<?xml version="1.0" encoding="utf-8"?>
<!-- Generator: Adobe Illustrator 28.3.0, SVG Export Plug-In . SVG Version: 6.00 Build 0)  -->
<svg version="1.1" id="Calque_1" xmlns="http://www.w3.org/2000/svg" xmlns:xlink="http://www.w3.org/1999/xlink" x="0px" y="0px"
	 viewBox="0 0 536 744.9" style="enable-background:new 0 0 536 744.9;" xml:space="preserve">
<style type="text/css">
	.st0{opacity:0;fill-rule:evenodd;clip-rule:evenodd;fill:#1752E2;}
	.st1{fill-rule:evenodd;clip-rule:evenodd;fill:#00B3FF;}
</style>
<path class="st0" d="M512.9,97.1h-0.4c-2.5,0-4.5-2.2-4.5-4.8c0-19.2,0-38.4,0-57.6c0-0.4-0.2-0.6-0.5-0.6c-0.3,0-0.5,0.3-0.5,0.6
	V55c0,1.6-1.4,2.3-2.7,2.3c-2,0-3.7-1.8-3.7-4V32.8c0-7,5.1-12.8,11.3-12.8h12.8c6.2,0,11.3,5.7,11.3,12.8v20.5c0,2.2-1.6,4-3.8,4
	c-1.4,0-2.6-0.7-2.6-2.3V34.7c0-0.4-0.2-0.6-0.5-0.6c-0.3,0-0.5,0.3-0.5,0.6c0,19.2,0,38.4,0,57.6c0,2.7-2,4.8-4.5,4.8h-0.4
	c-2.6,0-4.8-2.2-4.8-4.8c0-10.2,0-20.5,0-30.7c0-0.3-0.2-0.6-0.5-0.6c-0.3,0-0.5,0.3-0.5,0.6c0,10.2,0,20.5,0,30.7
	C517.7,95,515.5,97.1,512.9,97.1z M518.2,0c4.4,0,8,3.6,8,8.1c0,4.5-3.6,8.1-8,8.1s-8-3.6-8-8.1C510.2,3.6,513.8,0,518.2,0z"/>
<path class="st1" d="M11.9,744.8h-0.4C9,744.8,7,742.6,7,740c0-19.2,0-38.4,0-57.6c0-0.4-0.2-0.6-0.5-0.6c-0.3,0-0.5,0.3-0.5,0.6
	v20.3c0,1.6-1.4,2.3-2.7,2.3c-2,0-3.7-1.8-3.7-4v-20.5c0-7,5.1-12.8,11.3-12.8h12.8c6.2,0,11.3,5.7,11.3,12.8V701c0,2.2-1.6,4-3.8,4
	c-1.4,0-2.6-0.7-2.6-2.3v-20.3c0-0.4-0.2-0.6-0.5-0.6c-0.3,0-0.5,0.3-0.5,0.6c0,19.2,0,38.4,0,57.6c0,2.7-2,4.8-4.5,4.8h-0.4
	c-2.6,0-4.8-2.2-4.8-4.8c0-10.2,0-20.5,0-30.7c0-0.3-0.2-0.6-0.5-0.6c-0.3,0-0.5,0.3-0.5,0.6c0,10.2,0,20.5,0,30.7
	C16.7,742.6,14.5,744.8,11.9,744.8z M17.2,647.7c4.4,0,8,3.6,8,8.1c0,4.5-3.6,8.1-8,8.1s-8-3.6-8-8.1
	C9.2,651.3,12.8,647.7,17.2,647.7z"/>
</svg>
