<?xml version="1.0" encoding="utf-8"?>
<!-- Generator: Adobe Illustrator 28.3.0, SVG Export Plug-In . SVG Version: 6.00 Build 0)  -->
<svg version="1.1" xmlns="http://www.w3.org/2000/svg" xmlns:xlink="http://www.w3.org/1999/xlink" x="0px" y="0px"
	 viewBox="0 0 536 744.9" style="enable-background:new 0 0 536 744.9;" xml:space="preserve">
<style type="text/css">
	.st0{fill-rule:evenodd;clip-rule:evenodd;fill:#1752E2;}
	.st1{opacity:0;fill-rule:evenodd;clip-rule:evenodd;fill:#6981BB;}
</style>
<g id="malaria">
	<path class="st0" d="M12.4,97.1H12c-2.5,0-4.5-2.2-4.5-4.8c0-19.2,0-38.4,0-57.6c0-0.4-0.2-0.6-0.5-0.6c-0.3,0-0.5,0.3-0.5,0.6V55
		c0,1.6-1.4,2.3-2.7,2.3c-2,0-3.7-1.8-3.7-4V32.8C0,25.8,5.1,20,11.3,20h12.8c6.2,0,11.3,5.7,11.3,12.8v20.5c0,2.2-1.6,4-3.8,4
		c-1.4,0-2.6-0.7-2.6-2.3V34.7c0-0.4-0.2-0.6-0.5-0.6c-0.3,0-0.5,0.3-0.5,0.6c0,19.2,0,38.4,0,57.6c0,2.7-2,4.8-4.5,4.8h-0.4
		c-2.6,0-4.8-2.2-4.8-4.8c0-10.2,0-20.5,0-30.7c0-0.3-0.2-0.6-0.5-0.6c-0.3,0-0.5,0.3-0.5,0.6c0,10.2,0,20.5,0,30.7
		C17.2,95,15.1,97.1,12.4,97.1z M17.8,0c4.4,0,8,3.6,8,8.1c0,4.5-3.6,8.1-8,8.1s-8-3.6-8-8.1C9.8,3.6,13.3,0,17.8,0z"/>
	<path class="st0" d="M12.4,421H12c-2.5,0-4.5-2.2-4.5-4.8c0-19.2,0-38.4,0-57.6c0-0.4-0.2-0.6-0.5-0.6c-0.3,0-0.5,0.3-0.5,0.6v20.3
		c0,1.6-1.4,2.3-2.7,2.3c-2,0-3.7-1.8-3.7-4v-20.5c0-7,5.1-12.8,11.3-12.8h12.8c6.2,0,11.3,5.7,11.3,12.8v20.5c0,2.2-1.6,4-3.8,4
		c-1.4,0-2.6-0.7-2.6-2.3v-20.3c0-0.4-0.2-0.6-0.5-0.6c-0.3,0-0.5,0.3-0.5,0.6c0,19.2,0,38.4,0,57.6c0,2.7-2,4.8-4.5,4.8h-0.4
		c-2.6,0-4.8-2.2-4.8-4.8c0-10.2,0-20.5,0-30.7c0-0.3-0.2-0.6-0.5-0.6c-0.3,0-0.5,0.3-0.5,0.6c0,10.2,0,20.5,0,30.7
		C17.2,418.8,15.1,421,12.4,421z M17.8,323.8c4.4,0,8,3.6,8,8.1s-3.6,8.1-8,8.1s-8-3.6-8-8.1S13.3,323.8,17.8,323.8z"/>
	<path class="st0" d="M12.4,205.1H12c-2.5,0-4.5-2.2-4.5-4.8c0-19.2,0-38.4,0-57.6c0-0.4-0.2-0.6-0.5-0.6c-0.3,0-0.5,0.3-0.5,0.6
		V163c0,1.6-1.4,2.3-2.7,2.3c-2,0-3.7-1.8-3.7-4v-20.5c0-7,5.1-12.8,11.3-12.8h12.8c6.2,0,11.3,5.7,11.3,12.8v20.5
		c0,2.2-1.6,4-3.8,4c-1.4,0-2.6-0.7-2.6-2.3v-20.3c0-0.4-0.2-0.6-0.5-0.6c-0.3,0-0.5,0.3-0.5,0.6c0,19.2,0,38.4,0,57.6
		c0,2.7-2,4.8-4.5,4.8h-0.4c-2.6,0-4.8-2.2-4.8-4.8c0-10.2,0-20.5,0-30.7c0-0.3-0.2-0.6-0.5-0.6c-0.3,0-0.5,0.3-0.5,0.6
		c0,10.2,0,20.5,0,30.7C17.2,202.9,15.1,205.1,12.4,205.1z M17.8,107.9c4.4,0,8,3.6,8,8.1c0,4.5-3.6,8.1-8,8.1s-8-3.6-8-8.1
		C9.8,111.6,13.3,107.9,17.8,107.9z"/>
	<path class="st0" d="M12.4,528.9H12c-2.5,0-4.5-2.2-4.5-4.8c0-19.2,0-38.4,0-57.6c0-0.4-0.2-0.6-0.5-0.6c-0.3,0-0.5,0.3-0.5,0.6
		v20.3c0,1.6-1.4,2.3-2.7,2.3c-2,0-3.7-1.8-3.7-4v-20.5c0-7,5.1-12.8,11.3-12.8h12.8c6.2,0,11.3,5.7,11.3,12.8v20.5
		c0,2.2-1.6,4-3.8,4c-1.4,0-2.6-0.7-2.6-2.3v-20.3c0-0.4-0.2-0.6-0.5-0.6c-0.3,0-0.5,0.3-0.5,0.6c0,19.2,0,38.4,0,57.6
		c0,2.7-2,4.8-4.5,4.8h-0.4c-2.6,0-4.8-2.2-4.8-4.8c0-10.2,0-20.5,0-30.7c0-0.3-0.2-0.6-0.5-0.6c-0.3,0-0.5,0.3-0.5,0.6
		c0,10.2,0,20.5,0,30.7C17.2,526.8,15.1,528.9,12.4,528.9z M17.8,431.8c4.4,0,8,3.6,8,8.1c0,4.5-3.6,8.1-8,8.1s-8-3.6-8-8.1
		C9.8,435.4,13.3,431.8,17.8,431.8z"/>
	<path class="st0" d="M12.4,313H12c-2.5,0-4.5-2.2-4.5-4.8c0-19.2,0-38.4,0-57.6c0-0.4-0.2-0.6-0.5-0.6c-0.3,0-0.5,0.3-0.5,0.6v20.3
		c0,1.6-1.4,2.3-2.7,2.3c-2,0-3.7-1.8-3.7-4v-20.5c0-7,5.1-12.8,11.3-12.8h12.8c6.2,0,11.3,5.7,11.3,12.8v20.5c0,2.2-1.6,4-3.8,4
		c-1.4,0-2.6-0.7-2.6-2.3v-20.3c0-0.4-0.2-0.6-0.5-0.6c-0.3,0-0.5,0.3-0.5,0.6c0,19.2,0,38.4,0,57.6c0,2.7-2,4.8-4.5,4.8h-0.4
		c-2.6,0-4.8-2.2-4.8-4.8c0-10.2,0-20.5,0-30.7c0-0.3-0.2-0.6-0.5-0.6c-0.3,0-0.5,0.3-0.5,0.6c0,10.2,0,20.5,0,30.7
		C17.2,310.9,15.1,313,12.4,313z M17.8,215.9c4.4,0,8,3.6,8,8.1s-3.6,8.1-8,8.1s-8-3.6-8-8.1S13.3,215.9,17.8,215.9z"/>
	<path class="st0" d="M12.4,636.9H12c-2.5,0-4.5-2.2-4.5-4.8c0-19.2,0-38.4,0-57.6c0-0.4-0.2-0.6-0.5-0.6c-0.3,0-0.5,0.3-0.5,0.6
		v20.3c0,1.6-1.4,2.3-2.7,2.3c-2,0-3.7-1.8-3.7-4v-20.5c0-7,5.1-12.8,11.3-12.8h12.8c6.2,0,11.3,5.7,11.3,12.8v20.5
		c0,2.2-1.6,4-3.8,4c-1.4,0-2.6-0.7-2.6-2.3v-20.3c0-0.4-0.2-0.6-0.5-0.6c-0.3,0-0.5,0.3-0.5,0.6c0,19.2,0,38.4,0,57.6
		c0,2.7-2,4.8-4.5,4.8h-0.4c-2.6,0-4.8-2.2-4.8-4.8c0-10.2,0-20.5,0-30.7c0-0.3-0.2-0.6-0.5-0.6c-0.3,0-0.5,0.3-0.5,0.6
		c0,10.2,0,20.5,0,30.7C17.2,634.7,15.1,636.9,12.4,636.9z M17.8,539.7c4.4,0,8,3.6,8,8.1c0,4.5-3.6,8.1-8,8.1s-8-3.6-8-8.1
		C9.8,543.3,13.3,539.7,17.8,539.7z"/>
	<path class="st0" d="M232.5,97.1h-0.4c-2.6,0-4.8-2.2-4.8-4.8c0-19.2,0-38.4,0-57.6c0-0.4-0.3-0.6-0.6-0.6c-0.3,0-0.6,0.3-0.6,0.6
		V55c0,1.6-1.4,2.3-2.9,2.3c-2.2,0-3.9-1.8-3.9-4V32.8c0-7,5.4-12.8,12.1-12.8h13.7c6.7,0,12.1,5.7,12.1,12.8v20.5
		c0,2.2-1.7,4-4.1,4c-1.5,0-2.8-0.7-2.8-2.3V34.7c0-0.4-0.3-0.6-0.6-0.6c-0.3,0-0.6,0.3-0.6,0.6c0,19.2,0,38.4,0,57.6
		c0,2.7-2.2,4.8-4.8,4.8h-0.4c-2.8,0-5.1-2.2-5.1-4.8c0-10.2,0-20.5,0-30.7c0-0.3-0.3-0.6-0.6-0.6c-0.3,0-0.6,0.3-0.6,0.6
		c0,10.2,0,20.5,0,30.7C237.6,95,235.3,97.1,232.5,97.1z M238.2,0c4.7,0,8.5,3.6,8.5,8.1c0,4.5-3.8,8.1-8.5,8.1s-8.5-3.6-8.5-8.1
		C229.7,3.6,233.5,0,238.2,0z"/>
	<path class="st0" d="M232.5,421h-0.4c-2.6,0-4.8-2.2-4.8-4.8c0-19.2,0-38.4,0-57.6c0-0.4-0.3-0.6-0.6-0.6c-0.3,0-0.6,0.3-0.6,0.6
		v20.3c0,1.6-1.4,2.3-2.9,2.3c-2.2,0-3.9-1.8-3.9-4v-20.5c0-7,5.4-12.8,12.1-12.8h13.7c6.7,0,12.1,5.7,12.1,12.8v20.5
		c0,2.2-1.7,4-4.1,4c-1.5,0-2.8-0.7-2.8-2.3v-20.3c0-0.4-0.3-0.6-0.6-0.6c-0.3,0-0.6,0.3-0.6,0.6c0,19.2,0,38.4,0,57.6
		c0,2.7-2.2,4.8-4.8,4.8h-0.4c-2.8,0-5.1-2.2-5.1-4.8c0-10.2,0-20.5,0-30.7c0-0.3-0.3-0.6-0.6-0.6c-0.3,0-0.6,0.3-0.6,0.6
		c0,10.2,0,20.5,0,30.7C237.6,418.8,235.3,421,232.5,421z M238.2,323.8c4.7,0,8.5,3.6,8.5,8.1s-3.8,8.1-8.5,8.1s-8.5-3.6-8.5-8.1
		S233.5,323.8,238.2,323.8z"/>
	<path class="st0" d="M232.5,205.1h-0.4c-2.6,0-4.8-2.2-4.8-4.8c0-19.2,0-38.4,0-57.6c0-0.4-0.3-0.6-0.6-0.6c-0.3,0-0.6,0.3-0.6,0.6
		V163c0,1.6-1.4,2.3-2.9,2.3c-2.2,0-3.9-1.8-3.9-4v-20.5c0-7,5.4-12.8,12.1-12.8h13.7c6.7,0,12.1,5.7,12.1,12.8v20.5
		c0,2.2-1.7,4-4.1,4c-1.5,0-2.8-0.7-2.8-2.3v-20.3c0-0.4-0.3-0.6-0.6-0.6c-0.3,0-0.6,0.3-0.6,0.6c0,19.2,0,38.4,0,57.6
		c0,2.7-2.2,4.8-4.8,4.8h-0.4c-2.8,0-5.1-2.2-5.1-4.8c0-10.2,0-20.5,0-30.7c0-0.3-0.3-0.6-0.6-0.6c-0.3,0-0.6,0.3-0.6,0.6
		c0,10.2,0,20.5,0,30.7C237.6,202.9,235.3,205.1,232.5,205.1z M238.2,107.9c4.7,0,8.5,3.6,8.5,8.1c0,4.5-3.8,8.1-8.5,8.1
		s-8.5-3.6-8.5-8.1C229.7,111.6,233.5,107.9,238.2,107.9z"/>
	<path class="st0" d="M232.5,528.9h-0.4c-2.6,0-4.8-2.2-4.8-4.8c0-19.2,0-38.4,0-57.6c0-0.4-0.3-0.6-0.6-0.6c-0.3,0-0.6,0.3-0.6,0.6
		v20.3c0,1.6-1.4,2.3-2.9,2.3c-2.2,0-3.9-1.8-3.9-4v-20.5c0-7,5.4-12.8,12.1-12.8h13.7c6.7,0,12.1,5.7,12.1,12.8v20.5
		c0,2.2-1.7,4-4.1,4c-1.5,0-2.8-0.7-2.8-2.3v-20.3c0-0.4-0.3-0.6-0.6-0.6c-0.3,0-0.6,0.3-0.6,0.6c0,19.2,0,38.4,0,57.6
		c0,2.7-2.2,4.8-4.8,4.8h-0.4c-2.8,0-5.1-2.2-5.1-4.8c0-10.2,0-20.5,0-30.7c0-0.3-0.3-0.6-0.6-0.6c-0.3,0-0.6,0.3-0.6,0.6
		c0,10.2,0,20.5,0,30.7C237.6,526.8,235.3,528.9,232.5,528.9z M238.2,431.8c4.7,0,8.5,3.6,8.5,8.1c0,4.5-3.8,8.1-8.5,8.1
		s-8.5-3.6-8.5-8.1C229.7,435.4,233.5,431.8,238.2,431.8z"/>
	<path class="st0" d="M232.5,636.9h-0.4c-2.6,0-4.8-2.2-4.8-4.8c0-19.2,0-38.4,0-57.6c0-0.4-0.3-0.6-0.6-0.6c-0.3,0-0.6,0.3-0.6,0.6
		v20.3c0,1.6-1.4,2.3-2.9,2.3c-2.2,0-3.9-1.8-3.9-4v-20.5c0-7,5.4-12.8,12.1-12.8h13.7c6.7,0,12.1,5.7,12.1,12.8v20.5
		c0,2.2-1.7,4-4.1,4c-1.5,0-2.8-0.7-2.8-2.3v-20.3c0-0.4-0.3-0.6-0.6-0.6c-0.3,0-0.6,0.3-0.6,0.6c0,19.2,0,38.4,0,57.6
		c0,2.7-2.2,4.8-4.8,4.8h-0.4c-2.8,0-5.1-2.2-5.1-4.8c0-10.2,0-20.5,0-30.7c0-0.3-0.3-0.6-0.6-0.6c-0.3,0-0.6,0.3-0.6,0.6
		c0,10.2,0,20.5,0,30.7C237.6,634.7,235.3,636.9,232.5,636.9z M238.2,539.7c4.7,0,8.5,3.6,8.5,8.1c0,4.5-3.8,8.1-8.5,8.1
		s-8.5-3.6-8.5-8.1C229.7,543.3,233.5,539.7,238.2,539.7z"/>
	<path class="st0" d="M232.5,313h-0.4c-2.6,0-4.8-2.2-4.8-4.8c0-19.2,0-38.4,0-57.6c0-0.4-0.3-0.6-0.6-0.6c-0.3,0-0.6,0.3-0.6,0.6
		v20.3c0,1.6-1.4,2.3-2.9,2.3c-2.2,0-3.9-1.8-3.9-4v-20.5c0-7,5.4-12.8,12.1-12.8h13.7c6.7,0,12.1,5.7,12.1,12.8v20.5
		c0,2.2-1.7,4-4.1,4c-1.5,0-2.8-0.7-2.8-2.3v-20.3c0-0.4-0.3-0.6-0.6-0.6c-0.3,0-0.6,0.3-0.6,0.6c0,19.2,0,38.4,0,57.6
		c0,2.7-2.2,4.8-4.8,4.8h-0.4c-2.8,0-5.1-2.2-5.1-4.8c0-10.2,0-20.5,0-30.7c0-0.3-0.3-0.6-0.6-0.6c-0.3,0-0.6,0.3-0.6,0.6
		c0,10.2,0,20.5,0,30.7C237.6,310.9,235.3,313,232.5,313z M238.2,215.9c4.7,0,8.5,3.6,8.5,8.1s-3.8,8.1-8.5,8.1s-8.5-3.6-8.5-8.1
		S233.5,215.9,238.2,215.9z"/>
	<path class="st0" d="M67.2,97.1h-0.4c-2.5,0-4.5-2.2-4.5-4.8c0-19.2,0-38.4,0-57.6c0-0.4-0.2-0.6-0.5-0.6c-0.3,0-0.5,0.3-0.5,0.6
		V55c0,1.6-1.4,2.3-2.7,2.3c-2,0-3.7-1.8-3.7-4V32.8c0-7,5.1-12.8,11.3-12.8H79c6.2,0,11.3,5.7,11.3,12.8v20.5c0,2.2-1.6,4-3.8,4
		c-1.4,0-2.6-0.7-2.6-2.3V34.7c0-0.4-0.2-0.6-0.5-0.6c-0.3,0-0.5,0.3-0.5,0.6c0,19.2,0,38.4,0,57.6c0,2.7-2,4.8-4.5,4.8h-0.4
		c-2.6,0-4.8-2.2-4.8-4.8c0-10.2,0-20.5,0-30.7c0-0.3-0.2-0.6-0.5-0.6c-0.3,0-0.5,0.3-0.5,0.6c0,10.2,0,20.5,0,30.7
		C72,95,69.9,97.1,67.2,97.1z M72.6,0c4.4,0,8,3.6,8,8.1c0,4.5-3.6,8.1-8,8.1c-4.4,0-8-3.6-8-8.1C64.6,3.6,68.2,0,72.6,0z"/>
	<path class="st0" d="M67.2,421h-0.4c-2.5,0-4.5-2.2-4.5-4.8c0-19.2,0-38.4,0-57.6c0-0.4-0.2-0.6-0.5-0.6c-0.3,0-0.5,0.3-0.5,0.6
		v20.3c0,1.6-1.4,2.3-2.7,2.3c-2,0-3.7-1.8-3.7-4v-20.5c0-7,5.1-12.8,11.3-12.8H79c6.2,0,11.3,5.7,11.3,12.8v20.5c0,2.2-1.6,4-3.8,4
		c-1.4,0-2.6-0.7-2.6-2.3v-20.3c0-0.4-0.2-0.6-0.5-0.6c-0.3,0-0.5,0.3-0.5,0.6c0,19.2,0,38.4,0,57.6c0,2.7-2,4.8-4.5,4.8h-0.4
		c-2.6,0-4.8-2.2-4.8-4.8c0-10.2,0-20.5,0-30.7c0-0.3-0.2-0.6-0.5-0.6c-0.3,0-0.5,0.3-0.5,0.6c0,10.2,0,20.5,0,30.7
		C72,418.8,69.9,421,67.2,421z M72.6,323.8c4.4,0,8,3.6,8,8.1s-3.6,8.1-8,8.1c-4.4,0-8-3.6-8-8.1S68.2,323.8,72.6,323.8z"/>
	<path class="st0" d="M67.2,205.1h-0.4c-2.5,0-4.5-2.2-4.5-4.8c0-19.2,0-38.4,0-57.6c0-0.4-0.2-0.6-0.5-0.6c-0.3,0-0.5,0.3-0.5,0.6
		V163c0,1.6-1.4,2.3-2.7,2.3c-2,0-3.7-1.8-3.7-4v-20.5c0-7,5.1-12.8,11.3-12.8H79c6.2,0,11.3,5.7,11.3,12.8v20.5c0,2.2-1.6,4-3.8,4
		c-1.4,0-2.6-0.7-2.6-2.3v-20.3c0-0.4-0.2-0.6-0.5-0.6c-0.3,0-0.5,0.3-0.5,0.6c0,19.2,0,38.4,0,57.6c0,2.7-2,4.8-4.5,4.8h-0.4
		c-2.6,0-4.8-2.2-4.8-4.8c0-10.2,0-20.5,0-30.7c0-0.3-0.2-0.6-0.5-0.6c-0.3,0-0.5,0.3-0.5,0.6c0,10.2,0,20.5,0,30.7
		C72,202.9,69.9,205.1,67.2,205.1z M72.6,107.9c4.4,0,8,3.6,8,8.1c0,4.5-3.6,8.1-8,8.1c-4.4,0-8-3.6-8-8.1
		C64.6,111.6,68.2,107.9,72.6,107.9z"/>
	<path class="st0" d="M67.2,636.9h-0.4c-2.5,0-4.5-2.2-4.5-4.8c0-19.2,0-38.4,0-57.6c0-0.4-0.2-0.6-0.5-0.6c-0.3,0-0.5,0.3-0.5,0.6
		v20.3c0,1.6-1.4,2.3-2.7,2.3c-2,0-3.7-1.8-3.7-4v-20.5c0-7,5.1-12.8,11.3-12.8H79c6.2,0,11.3,5.7,11.3,12.8v20.5c0,2.2-1.6,4-3.8,4
		c-1.4,0-2.6-0.7-2.6-2.3v-20.3c0-0.4-0.2-0.6-0.5-0.6c-0.3,0-0.5,0.3-0.5,0.6c0,19.2,0,38.4,0,57.6c0,2.7-2,4.8-4.5,4.8h-0.4
		c-2.6,0-4.8-2.2-4.8-4.8c0-10.2,0-20.5,0-30.7c0-0.3-0.2-0.6-0.5-0.6c-0.3,0-0.5,0.3-0.5,0.6c0,10.2,0,20.5,0,30.7
		C72,634.7,69.9,636.9,67.2,636.9z M72.6,539.7c4.4,0,8,3.6,8,8.1c0,4.5-3.6,8.1-8,8.1c-4.4,0-8-3.6-8-8.1
		C64.6,543.3,68.2,539.7,72.6,539.7z"/>
	<path class="st0" d="M67.2,528.9h-0.4c-2.5,0-4.5-2.2-4.5-4.8c0-19.2,0-38.4,0-57.6c0-0.4-0.2-0.6-0.5-0.6c-0.3,0-0.5,0.3-0.5,0.6
		v20.3c0,1.6-1.4,2.3-2.7,2.3c-2,0-3.7-1.8-3.7-4v-20.5c0-7,5.1-12.8,11.3-12.8H79c6.2,0,11.3,5.7,11.3,12.8v20.5c0,2.2-1.6,4-3.8,4
		c-1.4,0-2.6-0.7-2.6-2.3v-20.3c0-0.4-0.2-0.6-0.5-0.6c-0.3,0-0.5,0.3-0.5,0.6c0,19.2,0,38.4,0,57.6c0,2.7-2,4.8-4.5,4.8h-0.4
		c-2.6,0-4.8-2.2-4.8-4.8c0-10.2,0-20.5,0-30.7c0-0.3-0.2-0.6-0.5-0.6c-0.3,0-0.5,0.3-0.5,0.6c0,10.2,0,20.5,0,30.7
		C72,526.8,69.9,528.9,67.2,528.9z M72.6,431.8c4.4,0,8,3.6,8,8.1c0,4.5-3.6,8.1-8,8.1c-4.4,0-8-3.6-8-8.1
		C64.6,435.4,68.2,431.8,72.6,431.8z"/>
	<path class="st0" d="M67.2,313h-0.4c-2.5,0-4.5-2.2-4.5-4.8c0-19.2,0-38.4,0-57.6c0-0.4-0.2-0.6-0.5-0.6c-0.3,0-0.5,0.3-0.5,0.6
		v20.3c0,1.6-1.4,2.3-2.7,2.3c-2,0-3.7-1.8-3.7-4v-20.5c0-7,5.1-12.8,11.3-12.8H79c6.2,0,11.3,5.7,11.3,12.8v20.5c0,2.2-1.6,4-3.8,4
		c-1.4,0-2.6-0.7-2.6-2.3v-20.3c0-0.4-0.2-0.6-0.5-0.6c-0.3,0-0.5,0.3-0.5,0.6c0,19.2,0,38.4,0,57.6c0,2.7-2,4.8-4.5,4.8h-0.4
		c-2.6,0-4.8-2.2-4.8-4.8c0-10.2,0-20.5,0-30.7c0-0.3-0.2-0.6-0.5-0.6c-0.3,0-0.5,0.3-0.5,0.6c0,10.2,0,20.5,0,30.7
		C72,310.9,69.9,313,67.2,313z M72.6,215.9c4.4,0,8,3.6,8,8.1s-3.6,8.1-8,8.1c-4.4,0-8-3.6-8-8.1S68.2,215.9,72.6,215.9z"/>
	<path class="st0" d="M288.9,97.1h-0.4c-2.5,0-4.5-2.2-4.5-4.8c0-19.2,0-38.4,0-57.6c0-0.4-0.2-0.6-0.5-0.6c-0.3,0-0.5,0.3-0.5,0.6
		V55c0,1.6-1.4,2.3-2.7,2.3c-2,0-3.7-1.8-3.7-4V32.8c0-7,5.1-12.8,11.3-12.8h12.8c6.2,0,11.3,5.7,11.3,12.8v20.5c0,2.2-1.6,4-3.8,4
		c-1.4,0-2.6-0.7-2.6-2.3V34.7c0-0.4-0.2-0.6-0.5-0.6c-0.3,0-0.5,0.3-0.5,0.6c0,19.2,0,38.4,0,57.6c0,2.7-2,4.8-4.5,4.8h-0.4
		c-2.6,0-4.8-2.2-4.8-4.8c0-10.2,0-20.5,0-30.7c0-0.3-0.2-0.6-0.5-0.6s-0.5,0.3-0.5,0.6c0,10.2,0,20.5,0,30.7
		C293.7,95,291.5,97.1,288.9,97.1z M294.2,0c4.4,0,8,3.6,8,8.1c0,4.5-3.6,8.1-8,8.1s-8-3.6-8-8.1C286.2,3.6,289.8,0,294.2,0z"/>
	<path class="st0" d="M288.9,421h-0.4c-2.5,0-4.5-2.2-4.5-4.8c0-19.2,0-38.4,0-57.6c0-0.4-0.2-0.6-0.5-0.6c-0.3,0-0.5,0.3-0.5,0.6
		v20.3c0,1.6-1.4,2.3-2.7,2.3c-2,0-3.7-1.8-3.7-4v-20.5c0-7,5.1-12.8,11.3-12.8h12.8c6.2,0,11.3,5.7,11.3,12.8v20.5
		c0,2.2-1.6,4-3.8,4c-1.4,0-2.6-0.7-2.6-2.3v-20.3c0-0.4-0.2-0.6-0.5-0.6c-0.3,0-0.5,0.3-0.5,0.6c0,19.2,0,38.4,0,57.6
		c0,2.7-2,4.8-4.5,4.8h-0.4c-2.6,0-4.8-2.2-4.8-4.8c0-10.2,0-20.5,0-30.7c0-0.3-0.2-0.6-0.5-0.6s-0.5,0.3-0.5,0.6
		c0,10.2,0,20.5,0,30.7C293.7,418.8,291.5,421,288.9,421z M294.2,323.8c4.4,0,8,3.6,8,8.1s-3.6,8.1-8,8.1s-8-3.6-8-8.1
		S289.8,323.8,294.2,323.8z"/>
	<path class="st0" d="M288.9,636.9h-0.4c-2.5,0-4.5-2.2-4.5-4.8c0-19.2,0-38.4,0-57.6c0-0.4-0.2-0.6-0.5-0.6c-0.3,0-0.5,0.3-0.5,0.6
		v20.3c0,1.6-1.4,2.3-2.7,2.3c-2,0-3.7-1.8-3.7-4v-20.5c0-7,5.1-12.8,11.3-12.8h12.8c6.2,0,11.3,5.7,11.3,12.8v20.5
		c0,2.2-1.6,4-3.8,4c-1.4,0-2.6-0.7-2.6-2.3v-20.3c0-0.4-0.2-0.6-0.5-0.6c-0.3,0-0.5,0.3-0.5,0.6c0,19.2,0,38.4,0,57.6
		c0,2.7-2,4.8-4.5,4.8h-0.4c-2.6,0-4.8-2.2-4.8-4.8c0-10.2,0-20.5,0-30.7c0-0.3-0.2-0.6-0.5-0.6s-0.5,0.3-0.5,0.6
		c0,10.2,0,20.5,0,30.7C293.7,634.7,291.5,636.9,288.9,636.9z M294.2,539.7c4.4,0,8,3.6,8,8.1c0,4.5-3.6,8.1-8,8.1s-8-3.6-8-8.1
		C286.2,543.3,289.8,539.7,294.2,539.7z"/>
	<path class="st0" d="M288.9,205.1h-0.4c-2.5,0-4.5-2.2-4.5-4.8c0-19.2,0-38.4,0-57.6c0-0.4-0.2-0.6-0.5-0.6c-0.3,0-0.5,0.3-0.5,0.6
		V163c0,1.6-1.4,2.3-2.7,2.3c-2,0-3.7-1.8-3.7-4v-20.5c0-7,5.1-12.8,11.3-12.8h12.8c6.2,0,11.3,5.7,11.3,12.8v20.5
		c0,2.2-1.6,4-3.8,4c-1.4,0-2.6-0.7-2.6-2.3v-20.3c0-0.4-0.2-0.6-0.5-0.6c-0.3,0-0.5,0.3-0.5,0.6c0,19.2,0,38.4,0,57.6
		c0,2.7-2,4.8-4.5,4.8h-0.4c-2.6,0-4.8-2.2-4.8-4.8c0-10.2,0-20.5,0-30.7c0-0.3-0.2-0.6-0.5-0.6s-0.5,0.3-0.5,0.6
		c0,10.2,0,20.5,0,30.7C293.7,202.9,291.5,205.1,288.9,205.1z M294.2,107.9c4.4,0,8,3.6,8,8.1c0,4.5-3.6,8.1-8,8.1s-8-3.6-8-8.1
		C286.2,111.6,289.8,107.9,294.2,107.9z"/>
	<path class="st0" d="M288.9,528.9h-0.4c-2.5,0-4.5-2.2-4.5-4.8c0-19.2,0-38.4,0-57.6c0-0.4-0.2-0.6-0.5-0.6c-0.3,0-0.5,0.3-0.5,0.6
		v20.3c0,1.6-1.4,2.3-2.7,2.3c-2,0-3.7-1.8-3.7-4v-20.5c0-7,5.1-12.8,11.3-12.8h12.8c6.2,0,11.3,5.7,11.3,12.8v20.5
		c0,2.2-1.6,4-3.8,4c-1.4,0-2.6-0.7-2.6-2.3v-20.3c0-0.4-0.2-0.6-0.5-0.6c-0.3,0-0.5,0.3-0.5,0.6c0,19.2,0,38.4,0,57.6
		c0,2.7-2,4.8-4.5,4.8h-0.4c-2.6,0-4.8-2.2-4.8-4.8c0-10.2,0-20.5,0-30.7c0-0.3-0.2-0.6-0.5-0.6s-0.5,0.3-0.5,0.6
		c0,10.2,0,20.5,0,30.7C293.7,526.8,291.5,528.9,288.9,528.9z M294.2,431.8c4.4,0,8,3.6,8,8.1c0,4.5-3.6,8.1-8,8.1s-8-3.6-8-8.1
		C286.2,435.4,289.8,431.8,294.2,431.8z"/>
	<path class="st0" d="M288.9,313h-0.4c-2.5,0-4.5-2.2-4.5-4.8c0-19.2,0-38.4,0-57.6c0-0.4-0.2-0.6-0.5-0.6c-0.3,0-0.5,0.3-0.5,0.6
		v20.3c0,1.6-1.4,2.3-2.7,2.3c-2,0-3.7-1.8-3.7-4v-20.5c0-7,5.1-12.8,11.3-12.8h12.8c6.2,0,11.3,5.7,11.3,12.8v20.5
		c0,2.2-1.6,4-3.8,4c-1.4,0-2.6-0.7-2.6-2.3v-20.3c0-0.4-0.2-0.6-0.5-0.6c-0.3,0-0.5,0.3-0.5,0.6c0,19.2,0,38.4,0,57.6
		c0,2.7-2,4.8-4.5,4.8h-0.4c-2.6,0-4.8-2.2-4.8-4.8c0-10.2,0-20.5,0-30.7c0-0.3-0.2-0.6-0.5-0.6s-0.5,0.3-0.5,0.6
		c0,10.2,0,20.5,0,30.7C293.7,310.9,291.5,313,288.9,313z M294.2,215.9c4.4,0,8,3.6,8,8.1s-3.6,8.1-8,8.1s-8-3.6-8-8.1
		S289.8,215.9,294.2,215.9z"/>
	<path class="st0" d="M122.1,97.1h-0.4c-2.5,0-4.5-2.2-4.5-4.8c0-19.2,0-38.4,0-57.6c0-0.4-0.2-0.6-0.5-0.6c-0.3,0-0.5,0.3-0.5,0.6
		V55c0,1.6-1.4,2.3-2.7,2.3c-2,0-3.7-1.8-3.7-4V32.8c0-7,5.1-12.8,11.3-12.8h12.8c6.2,0,11.3,5.7,11.3,12.8v20.5c0,2.2-1.6,4-3.8,4
		c-1.4,0-2.6-0.7-2.6-2.3V34.7c0-0.4-0.2-0.6-0.5-0.6c-0.3,0-0.5,0.3-0.5,0.6c0,19.2,0,38.4,0,57.6c0,2.7-2,4.8-4.5,4.8h-0.4
		c-2.6,0-4.8-2.2-4.8-4.8c0-10.2,0-20.5,0-30.7c0-0.3-0.2-0.6-0.5-0.6c-0.3,0-0.5,0.3-0.5,0.6c0,10.2,0,20.5,0,30.7
		C126.9,95,124.7,97.1,122.1,97.1z M127.4,0c4.4,0,8,3.6,8,8.1c0,4.5-3.6,8.1-8,8.1c-4.4,0-8-3.6-8-8.1C119.4,3.6,123,0,127.4,0z"/>
	<path class="st0" d="M122.1,636.9h-0.4c-2.5,0-4.5-2.2-4.5-4.8c0-19.2,0-38.4,0-57.6c0-0.4-0.2-0.6-0.5-0.6c-0.3,0-0.5,0.3-0.5,0.6
		v20.3c0,1.6-1.4,2.3-2.7,2.3c-2,0-3.7-1.8-3.7-4v-20.5c0-7,5.1-12.8,11.3-12.8h12.8c6.2,0,11.3,5.7,11.3,12.8v20.5
		c0,2.2-1.6,4-3.8,4c-1.4,0-2.6-0.7-2.6-2.3v-20.3c0-0.4-0.2-0.6-0.5-0.6c-0.3,0-0.5,0.3-0.5,0.6c0,19.2,0,38.4,0,57.6
		c0,2.7-2,4.8-4.5,4.8h-0.4c-2.6,0-4.8-2.2-4.8-4.8c0-10.2,0-20.5,0-30.7c0-0.3-0.2-0.6-0.5-0.6c-0.3,0-0.5,0.3-0.5,0.6
		c0,10.2,0,20.5,0,30.7C126.9,634.7,124.7,636.9,122.1,636.9z M127.4,539.7c4.4,0,8,3.6,8,8.1c0,4.5-3.6,8.1-8,8.1
		c-4.4,0-8-3.6-8-8.1C119.4,543.3,123,539.7,127.4,539.7z"/>
	<path class="st0" d="M122.1,421h-0.4c-2.5,0-4.5-2.2-4.5-4.8c0-19.2,0-38.4,0-57.6c0-0.4-0.2-0.6-0.5-0.6c-0.3,0-0.5,0.3-0.5,0.6
		v20.3c0,1.6-1.4,2.3-2.7,2.3c-2,0-3.7-1.8-3.7-4v-20.5c0-7,5.1-12.8,11.3-12.8h12.8c6.2,0,11.3,5.7,11.3,12.8v20.5
		c0,2.2-1.6,4-3.8,4c-1.4,0-2.6-0.7-2.6-2.3v-20.3c0-0.4-0.2-0.6-0.5-0.6c-0.3,0-0.5,0.3-0.5,0.6c0,19.2,0,38.4,0,57.6
		c0,2.7-2,4.8-4.5,4.8h-0.4c-2.6,0-4.8-2.2-4.8-4.8c0-10.2,0-20.5,0-30.7c0-0.3-0.2-0.6-0.5-0.6c-0.3,0-0.5,0.3-0.5,0.6
		c0,10.2,0,20.5,0,30.7C126.9,418.8,124.7,421,122.1,421z M127.4,323.8c4.4,0,8,3.6,8,8.1s-3.6,8.1-8,8.1c-4.4,0-8-3.6-8-8.1
		S123,323.8,127.4,323.8z"/>
	<path class="st0" d="M122.1,205.1h-0.4c-2.5,0-4.5-2.2-4.5-4.8c0-19.2,0-38.4,0-57.6c0-0.4-0.2-0.6-0.5-0.6c-0.3,0-0.5,0.3-0.5,0.6
		V163c0,1.6-1.4,2.3-2.7,2.3c-2,0-3.7-1.8-3.7-4v-20.5c0-7,5.1-12.8,11.3-12.8h12.8c6.2,0,11.3,5.7,11.3,12.8v20.5
		c0,2.2-1.6,4-3.8,4c-1.4,0-2.6-0.7-2.6-2.3v-20.3c0-0.4-0.2-0.6-0.5-0.6c-0.3,0-0.5,0.3-0.5,0.6c0,19.2,0,38.4,0,57.6
		c0,2.7-2,4.8-4.5,4.8h-0.4c-2.6,0-4.8-2.2-4.8-4.8c0-10.2,0-20.5,0-30.7c0-0.3-0.2-0.6-0.5-0.6c-0.3,0-0.5,0.3-0.5,0.6
		c0,10.2,0,20.5,0,30.7C126.9,202.9,124.7,205.1,122.1,205.1z M127.4,107.9c4.4,0,8,3.6,8,8.1c0,4.5-3.6,8.1-8,8.1
		c-4.4,0-8-3.6-8-8.1C119.4,111.6,123,107.9,127.4,107.9z"/>
	<path class="st0" d="M122.1,528.9h-0.4c-2.5,0-4.5-2.2-4.5-4.8c0-19.2,0-38.4,0-57.6c0-0.4-0.2-0.6-0.5-0.6c-0.3,0-0.5,0.3-0.5,0.6
		v20.3c0,1.6-1.4,2.3-2.7,2.3c-2,0-3.7-1.8-3.7-4v-20.5c0-7,5.1-12.8,11.3-12.8h12.8c6.2,0,11.3,5.7,11.3,12.8v20.5
		c0,2.2-1.6,4-3.8,4c-1.4,0-2.6-0.7-2.6-2.3v-20.3c0-0.4-0.2-0.6-0.5-0.6c-0.3,0-0.5,0.3-0.5,0.6c0,19.2,0,38.4,0,57.6
		c0,2.7-2,4.8-4.5,4.8h-0.4c-2.6,0-4.8-2.2-4.8-4.8c0-10.2,0-20.5,0-30.7c0-0.3-0.2-0.6-0.5-0.6c-0.3,0-0.5,0.3-0.5,0.6
		c0,10.2,0,20.5,0,30.7C126.9,526.8,124.7,528.9,122.1,528.9z M127.4,431.8c4.4,0,8,3.6,8,8.1c0,4.5-3.6,8.1-8,8.1
		c-4.4,0-8-3.6-8-8.1C119.4,435.4,123,431.8,127.4,431.8z"/>
	<path class="st0" d="M122.1,313h-0.4c-2.5,0-4.5-2.2-4.5-4.8c0-19.2,0-38.4,0-57.6c0-0.4-0.2-0.6-0.5-0.6c-0.3,0-0.5,0.3-0.5,0.6
		v20.3c0,1.6-1.4,2.3-2.7,2.3c-2,0-3.7-1.8-3.7-4v-20.5c0-7,5.1-12.8,11.3-12.8h12.8c6.2,0,11.3,5.7,11.3,12.8v20.5
		c0,2.2-1.6,4-3.8,4c-1.4,0-2.6-0.7-2.6-2.3v-20.3c0-0.4-0.2-0.6-0.5-0.6c-0.3,0-0.5,0.3-0.5,0.6c0,19.2,0,38.4,0,57.6
		c0,2.7-2,4.8-4.5,4.8h-0.4c-2.6,0-4.8-2.2-4.8-4.8c0-10.2,0-20.5,0-30.7c0-0.3-0.2-0.6-0.5-0.6c-0.3,0-0.5,0.3-0.5,0.6
		c0,10.2,0,20.5,0,30.7C126.9,310.9,124.7,313,122.1,313z M127.4,215.9c4.4,0,8,3.6,8,8.1s-3.6,8.1-8,8.1c-4.4,0-8-3.6-8-8.1
		S123,215.9,127.4,215.9z"/>
	<path class="st0" d="M344.5,636.9h-0.4c-2.6,0-4.8-2.2-4.8-4.8c0-19.2,0-38.4,0-57.6c0-0.4-0.3-0.6-0.6-0.6c-0.3,0-0.6,0.3-0.6,0.6
		v20.3c0,1.6-1.4,2.3-2.9,2.3c-2.2,0-3.9-1.8-3.9-4v-20.5c0-7,5.4-12.8,12.1-12.8h13.7c6.7,0,12.1,5.7,12.1,12.8v20.5
		c0,2.2-1.7,4-4.1,4c-1.5,0-2.8-0.7-2.8-2.3v-20.3c0-0.4-0.3-0.6-0.6-0.6c-0.3,0-0.6,0.3-0.6,0.6c0,19.2,0,38.4,0,57.6
		c0,2.7-2.2,4.8-4.8,4.8h-0.4c-2.8,0-5.1-2.2-5.1-4.8c0-10.2,0-20.5,0-30.7c0-0.3-0.3-0.6-0.6-0.6c-0.3,0-0.6,0.3-0.6,0.6
		c0,10.2,0,20.5,0,30.7C349.6,634.7,347.3,636.9,344.5,636.9z M350.2,539.7c4.7,0,8.5,3.6,8.5,8.1c0,4.5-3.8,8.1-8.5,8.1
		c-4.7,0-8.5-3.6-8.5-8.1C341.7,543.3,345.5,539.7,350.2,539.7z"/>
	<path class="st0" d="M344.5,97.1h-0.4c-2.6,0-4.8-2.2-4.8-4.8c0-19.2,0-38.4,0-57.6c0-0.4-0.3-0.6-0.6-0.6c-0.3,0-0.6,0.3-0.6,0.6
		V55c0,1.6-1.4,2.3-2.9,2.3c-2.2,0-3.9-1.8-3.9-4V32.8c0-7,5.4-12.8,12.1-12.8h13.7c6.7,0,12.1,5.7,12.1,12.8v20.5
		c0,2.2-1.7,4-4.1,4c-1.5,0-2.8-0.7-2.8-2.3V34.7c0-0.4-0.3-0.6-0.6-0.6c-0.3,0-0.6,0.3-0.6,0.6c0,19.2,0,38.4,0,57.6
		c0,2.7-2.2,4.8-4.8,4.8h-0.4c-2.8,0-5.1-2.2-5.1-4.8c0-10.2,0-20.5,0-30.7c0-0.3-0.3-0.6-0.6-0.6c-0.3,0-0.6,0.3-0.6,0.6
		c0,10.2,0,20.5,0,30.7C349.6,95,347.3,97.1,344.5,97.1z M350.2,0c4.7,0,8.5,3.6,8.5,8.1c0,4.5-3.8,8.1-8.5,8.1
		c-4.7,0-8.5-3.6-8.5-8.1C341.7,3.6,345.5,0,350.2,0z"/>
	<path class="st0" d="M344.5,421h-0.4c-2.6,0-4.8-2.2-4.8-4.8c0-19.2,0-38.4,0-57.6c0-0.4-0.3-0.6-0.6-0.6c-0.3,0-0.6,0.3-0.6,0.6
		v20.3c0,1.6-1.4,2.3-2.9,2.3c-2.2,0-3.9-1.8-3.9-4v-20.5c0-7,5.4-12.8,12.1-12.8h13.7c6.7,0,12.1,5.7,12.1,12.8v20.5
		c0,2.2-1.7,4-4.1,4c-1.5,0-2.8-0.7-2.8-2.3v-20.3c0-0.4-0.3-0.6-0.6-0.6c-0.3,0-0.6,0.3-0.6,0.6c0,19.2,0,38.4,0,57.6
		c0,2.7-2.2,4.8-4.8,4.8h-0.4c-2.8,0-5.1-2.2-5.1-4.8c0-10.2,0-20.5,0-30.7c0-0.3-0.3-0.6-0.6-0.6c-0.3,0-0.6,0.3-0.6,0.6
		c0,10.2,0,20.5,0,30.7C349.6,418.8,347.3,421,344.5,421z M350.2,323.8c4.7,0,8.5,3.6,8.5,8.1s-3.8,8.1-8.5,8.1
		c-4.7,0-8.5-3.6-8.5-8.1S345.5,323.8,350.2,323.8z"/>
	<path class="st0" d="M344.5,205.1h-0.4c-2.6,0-4.8-2.2-4.8-4.8c0-19.2,0-38.4,0-57.6c0-0.4-0.3-0.6-0.6-0.6c-0.3,0-0.6,0.3-0.6,0.6
		V163c0,1.6-1.4,2.3-2.9,2.3c-2.2,0-3.9-1.8-3.9-4v-20.5c0-7,5.4-12.8,12.1-12.8h13.7c6.7,0,12.1,5.7,12.1,12.8v20.5
		c0,2.2-1.7,4-4.1,4c-1.5,0-2.8-0.7-2.8-2.3v-20.3c0-0.4-0.3-0.6-0.6-0.6c-0.3,0-0.6,0.3-0.6,0.6c0,19.2,0,38.4,0,57.6
		c0,2.7-2.2,4.8-4.8,4.8h-0.4c-2.8,0-5.1-2.2-5.1-4.8c0-10.2,0-20.5,0-30.7c0-0.3-0.3-0.6-0.6-0.6c-0.3,0-0.6,0.3-0.6,0.6
		c0,10.2,0,20.5,0,30.7C349.6,202.9,347.3,205.1,344.5,205.1z M350.2,107.9c4.7,0,8.5,3.6,8.5,8.1c0,4.5-3.8,8.1-8.5,8.1
		c-4.7,0-8.5-3.6-8.5-8.1C341.7,111.6,345.5,107.9,350.2,107.9z"/>
	<path class="st0" d="M344.5,528.9h-0.4c-2.6,0-4.8-2.2-4.8-4.8c0-19.2,0-38.4,0-57.6c0-0.4-0.3-0.6-0.6-0.6c-0.3,0-0.6,0.3-0.6,0.6
		v20.3c0,1.6-1.4,2.3-2.9,2.3c-2.2,0-3.9-1.8-3.9-4v-20.5c0-7,5.4-12.8,12.1-12.8h13.7c6.7,0,12.1,5.7,12.1,12.8v20.5
		c0,2.2-1.7,4-4.1,4c-1.5,0-2.8-0.7-2.8-2.3v-20.3c0-0.4-0.3-0.6-0.6-0.6c-0.3,0-0.6,0.3-0.6,0.6c0,19.2,0,38.4,0,57.6
		c0,2.7-2.2,4.8-4.8,4.8h-0.4c-2.8,0-5.1-2.2-5.1-4.8c0-10.2,0-20.5,0-30.7c0-0.3-0.3-0.6-0.6-0.6c-0.3,0-0.6,0.3-0.6,0.6
		c0,10.2,0,20.5,0,30.7C349.6,526.8,347.3,528.9,344.5,528.9z M350.2,431.8c4.7,0,8.5,3.6,8.5,8.1c0,4.5-3.8,8.1-8.5,8.1
		c-4.7,0-8.5-3.6-8.5-8.1C341.7,435.4,345.5,431.8,350.2,431.8z"/>
	<path class="st0" d="M344.5,313h-0.4c-2.6,0-4.8-2.2-4.8-4.8c0-19.2,0-38.4,0-57.6c0-0.4-0.3-0.6-0.6-0.6c-0.3,0-0.6,0.3-0.6,0.6
		v20.3c0,1.6-1.4,2.3-2.9,2.3c-2.2,0-3.9-1.8-3.9-4v-20.5c0-7,5.4-12.8,12.1-12.8h13.7c6.7,0,12.1,5.7,12.1,12.8v20.5
		c0,2.2-1.7,4-4.1,4c-1.5,0-2.8-0.7-2.8-2.3v-20.3c0-0.4-0.3-0.6-0.6-0.6c-0.3,0-0.6,0.3-0.6,0.6c0,19.2,0,38.4,0,57.6
		c0,2.7-2.2,4.8-4.8,4.8h-0.4c-2.8,0-5.1-2.2-5.1-4.8c0-10.2,0-20.5,0-30.7c0-0.3-0.3-0.6-0.6-0.6c-0.3,0-0.6,0.3-0.6,0.6
		c0,10.2,0,20.5,0,30.7C349.6,310.9,347.3,313,344.5,313z M350.2,215.9c4.7,0,8.5,3.6,8.5,8.1s-3.8,8.1-8.5,8.1
		c-4.7,0-8.5-3.6-8.5-8.1S345.5,215.9,350.2,215.9z"/>
	<path class="st0" d="M456.5,636.9h-0.4c-2.6,0-4.8-2.2-4.8-4.8c0-19.2,0-38.4,0-57.6c0-0.4-0.3-0.6-0.6-0.6c-0.3,0-0.6,0.3-0.6,0.6
		v20.3c0,1.6-1.4,2.3-2.9,2.3c-2.2,0-3.9-1.8-3.9-4v-20.5c0-7,5.4-12.8,12.1-12.8h13.7c6.7,0,12.1,5.7,12.1,12.8v20.5
		c0,2.2-1.7,4-4.1,4c-1.5,0-2.8-0.7-2.8-2.3v-20.3c0-0.4-0.3-0.6-0.6-0.6c-0.3,0-0.6,0.3-0.6,0.6c0,19.2,0,38.4,0,57.6
		c0,2.7-2.2,4.8-4.8,4.8h-0.4c-2.8,0-5.1-2.2-5.1-4.8c0-10.2,0-20.5,0-30.7c0-0.3-0.3-0.6-0.6-0.6c-0.3,0-0.6,0.3-0.6,0.6
		c0,10.2,0,20.5,0,30.7C461.6,634.7,459.3,636.9,456.5,636.9z M462.2,539.7c4.7,0,8.5,3.6,8.5,8.1c0,4.5-3.8,8.1-8.5,8.1
		c-4.7,0-8.5-3.6-8.5-8.1C453.7,543.3,457.5,539.7,462.2,539.7z"/>
	<path class="st0" d="M456.5,97.1h-0.4c-2.6,0-4.8-2.2-4.8-4.8c0-19.2,0-38.4,0-57.6c0-0.4-0.3-0.6-0.6-0.6c-0.3,0-0.6,0.3-0.6,0.6
		V55c0,1.6-1.4,2.3-2.9,2.3c-2.2,0-3.9-1.8-3.9-4V32.8c0-7,5.4-12.8,12.1-12.8h13.7c6.7,0,12.1,5.7,12.1,12.8v20.5
		c0,2.2-1.7,4-4.1,4c-1.5,0-2.8-0.7-2.8-2.3V34.7c0-0.4-0.3-0.6-0.6-0.6c-0.3,0-0.6,0.3-0.6,0.6c0,19.2,0,38.4,0,57.6
		c0,2.7-2.2,4.8-4.8,4.8h-0.4c-2.8,0-5.1-2.2-5.1-4.8c0-10.2,0-20.5,0-30.7c0-0.3-0.3-0.6-0.6-0.6c-0.3,0-0.6,0.3-0.6,0.6
		c0,10.2,0,20.5,0,30.7C461.6,95,459.3,97.1,456.5,97.1z M462.2,0c4.7,0,8.5,3.6,8.5,8.1c0,4.5-3.8,8.1-8.5,8.1
		c-4.7,0-8.5-3.6-8.5-8.1C453.7,3.6,457.5,0,462.2,0z"/>
	<path class="st0" d="M456.5,421h-0.4c-2.6,0-4.8-2.2-4.8-4.8c0-19.2,0-38.4,0-57.6c0-0.4-0.3-0.6-0.6-0.6c-0.3,0-0.6,0.3-0.6,0.6
		v20.3c0,1.6-1.4,2.3-2.9,2.3c-2.2,0-3.9-1.8-3.9-4v-20.5c0-7,5.4-12.8,12.1-12.8h13.7c6.7,0,12.1,5.7,12.1,12.8v20.5
		c0,2.2-1.7,4-4.1,4c-1.5,0-2.8-0.7-2.8-2.3v-20.3c0-0.4-0.3-0.6-0.6-0.6c-0.3,0-0.6,0.3-0.6,0.6c0,19.2,0,38.4,0,57.6
		c0,2.7-2.2,4.8-4.8,4.8h-0.4c-2.8,0-5.1-2.2-5.1-4.8c0-10.2,0-20.5,0-30.7c0-0.3-0.3-0.6-0.6-0.6c-0.3,0-0.6,0.3-0.6,0.6
		c0,10.2,0,20.5,0,30.7C461.6,418.8,459.3,421,456.5,421z M462.2,323.8c4.7,0,8.5,3.6,8.5,8.1s-3.8,8.1-8.5,8.1
		c-4.7,0-8.5-3.6-8.5-8.1S457.5,323.8,462.2,323.8z"/>
	<path class="st0" d="M456.5,205.1h-0.4c-2.6,0-4.8-2.2-4.8-4.8c0-19.2,0-38.4,0-57.6c0-0.4-0.3-0.6-0.6-0.6c-0.3,0-0.6,0.3-0.6,0.6
		V163c0,1.6-1.4,2.3-2.9,2.3c-2.2,0-3.9-1.8-3.9-4v-20.5c0-7,5.4-12.8,12.1-12.8h13.7c6.7,0,12.1,5.7,12.1,12.8v20.5
		c0,2.2-1.7,4-4.1,4c-1.5,0-2.8-0.7-2.8-2.3v-20.3c0-0.4-0.3-0.6-0.6-0.6c-0.3,0-0.6,0.3-0.6,0.6c0,19.2,0,38.4,0,57.6
		c0,2.7-2.2,4.8-4.8,4.8h-0.4c-2.8,0-5.1-2.2-5.1-4.8c0-10.2,0-20.5,0-30.7c0-0.3-0.3-0.6-0.6-0.6c-0.3,0-0.6,0.3-0.6,0.6
		c0,10.2,0,20.5,0,30.7C461.6,202.9,459.3,205.1,456.5,205.1z M462.2,107.9c4.7,0,8.5,3.6,8.5,8.1c0,4.5-3.8,8.1-8.5,8.1
		c-4.7,0-8.5-3.6-8.5-8.1C453.7,111.6,457.5,107.9,462.2,107.9z"/>
	<path class="st0" d="M456.5,528.9h-0.4c-2.6,0-4.8-2.2-4.8-4.8c0-19.2,0-38.4,0-57.6c0-0.4-0.3-0.6-0.6-0.6c-0.3,0-0.6,0.3-0.6,0.6
		v20.3c0,1.6-1.4,2.3-2.9,2.3c-2.2,0-3.9-1.8-3.9-4v-20.5c0-7,5.4-12.8,12.1-12.8h13.7c6.7,0,12.1,5.7,12.1,12.8v20.5
		c0,2.2-1.7,4-4.1,4c-1.5,0-2.8-0.7-2.8-2.3v-20.3c0-0.4-0.3-0.6-0.6-0.6c-0.3,0-0.6,0.3-0.6,0.6c0,19.2,0,38.4,0,57.6
		c0,2.7-2.2,4.8-4.8,4.8h-0.4c-2.8,0-5.1-2.2-5.1-4.8c0-10.2,0-20.5,0-30.7c0-0.3-0.3-0.6-0.6-0.6c-0.3,0-0.6,0.3-0.6,0.6
		c0,10.2,0,20.5,0,30.7C461.6,526.8,459.3,528.9,456.5,528.9z M462.2,431.8c4.7,0,8.5,3.6,8.5,8.1c0,4.5-3.8,8.1-8.5,8.1
		c-4.7,0-8.5-3.6-8.5-8.1C453.7,435.4,457.5,431.8,462.2,431.8z"/>
	<path class="st0" d="M176.9,636.9h-0.4c-2.5,0-4.5-2.2-4.5-4.8c0-19.2,0-38.4,0-57.6c0-0.4-0.2-0.6-0.5-0.6c-0.3,0-0.5,0.3-0.5,0.6
		v20.3c0,1.6-1.4,2.3-2.7,2.3c-2,0-3.7-1.8-3.7-4v-20.5c0-7,5.1-12.8,11.3-12.8h12.8c6.2,0,11.3,5.7,11.3,12.8v20.5
		c0,2.2-1.6,4-3.8,4c-1.4,0-2.6-0.7-2.6-2.3v-20.3c0-0.4-0.2-0.6-0.5-0.6c-0.3,0-0.5,0.3-0.5,0.6c0,19.2,0,38.4,0,57.6
		c0,2.7-2,4.8-4.5,4.8h-0.4c-2.6,0-4.8-2.2-4.8-4.8c0-10.2,0-20.5,0-30.7c0-0.3-0.2-0.6-0.5-0.6s-0.5,0.3-0.5,0.6
		c0,10.2,0,20.5,0,30.7C181.7,634.7,179.5,636.9,176.9,636.9z M182.2,539.7c4.4,0,8,3.6,8,8.1c0,4.5-3.6,8.1-8,8.1
		c-4.4,0-8-3.6-8-8.1C174.2,543.3,177.8,539.7,182.2,539.7z"/>
	<path class="st0" d="M456.5,313h-0.4c-2.6,0-4.8-2.2-4.8-4.8c0-19.2,0-38.4,0-57.6c0-0.4-0.3-0.6-0.6-0.6c-0.3,0-0.6,0.3-0.6,0.6
		v20.3c0,1.6-1.4,2.3-2.9,2.3c-2.2,0-3.9-1.8-3.9-4v-20.5c0-7,5.4-12.8,12.1-12.8h13.7c6.7,0,12.1,5.7,12.1,12.8v20.5
		c0,2.2-1.7,4-4.1,4c-1.5,0-2.8-0.7-2.8-2.3v-20.3c0-0.4-0.3-0.6-0.6-0.6c-0.3,0-0.6,0.3-0.6,0.6c0,19.2,0,38.4,0,57.6
		c0,2.7-2.2,4.8-4.8,4.8h-0.4c-2.8,0-5.1-2.2-5.1-4.8c0-10.2,0-20.5,0-30.7c0-0.3-0.3-0.6-0.6-0.6c-0.3,0-0.6,0.3-0.6,0.6
		c0,10.2,0,20.5,0,30.7C461.6,310.9,459.3,313,456.5,313z M462.2,215.9c4.7,0,8.5,3.6,8.5,8.1s-3.8,8.1-8.5,8.1
		c-4.7,0-8.5-3.6-8.5-8.1S457.5,215.9,462.2,215.9z"/>
	<path class="st0" d="M176.9,97.1h-0.4c-2.5,0-4.5-2.2-4.5-4.8c0-19.2,0-38.4,0-57.6c0-0.4-0.2-0.6-0.5-0.6c-0.3,0-0.5,0.3-0.5,0.6
		V55c0,1.6-1.4,2.3-2.7,2.3c-2,0-3.7-1.8-3.7-4V32.8c0-7,5.1-12.8,11.3-12.8h12.8c6.2,0,11.3,5.7,11.3,12.8v20.5c0,2.2-1.6,4-3.8,4
		c-1.4,0-2.6-0.7-2.6-2.3V34.7c0-0.4-0.2-0.6-0.5-0.6c-0.3,0-0.5,0.3-0.5,0.6c0,19.2,0,38.4,0,57.6c0,2.7-2,4.8-4.5,4.8h-0.4
		c-2.6,0-4.8-2.2-4.8-4.8c0-10.2,0-20.5,0-30.7c0-0.3-0.2-0.6-0.5-0.6s-0.5,0.3-0.5,0.6c0,10.2,0,20.5,0,30.7
		C181.7,95,179.5,97.1,176.9,97.1z M182.2,0c4.4,0,8,3.6,8,8.1c0,4.5-3.6,8.1-8,8.1c-4.4,0-8-3.6-8-8.1C174.2,3.6,177.8,0,182.2,0z"
		/>
	<path class="st0" d="M176.9,421h-0.4c-2.5,0-4.5-2.2-4.5-4.8c0-19.2,0-38.4,0-57.6c0-0.4-0.2-0.6-0.5-0.6c-0.3,0-0.5,0.3-0.5,0.6
		v20.3c0,1.6-1.4,2.3-2.7,2.3c-2,0-3.7-1.8-3.7-4v-20.5c0-7,5.1-12.8,11.3-12.8h12.8c6.2,0,11.3,5.7,11.3,12.8v20.5
		c0,2.2-1.6,4-3.8,4c-1.4,0-2.6-0.7-2.6-2.3v-20.3c0-0.4-0.2-0.6-0.5-0.6c-0.3,0-0.5,0.3-0.5,0.6c0,19.2,0,38.4,0,57.6
		c0,2.7-2,4.8-4.5,4.8h-0.4c-2.6,0-4.8-2.2-4.8-4.8c0-10.2,0-20.5,0-30.7c0-0.3-0.2-0.6-0.5-0.6s-0.5,0.3-0.5,0.6
		c0,10.2,0,20.5,0,30.7C181.7,418.8,179.5,421,176.9,421z M182.2,323.8c4.4,0,8,3.6,8,8.1s-3.6,8.1-8,8.1c-4.4,0-8-3.6-8-8.1
		S177.8,323.8,182.2,323.8z"/>
	<path class="st0" d="M176.9,205.1h-0.4c-2.5,0-4.5-2.2-4.5-4.8c0-19.2,0-38.4,0-57.6c0-0.4-0.2-0.6-0.5-0.6c-0.3,0-0.5,0.3-0.5,0.6
		V163c0,1.6-1.4,2.3-2.7,2.3c-2,0-3.7-1.8-3.7-4v-20.5c0-7,5.1-12.8,11.3-12.8h12.8c6.2,0,11.3,5.7,11.3,12.8v20.5
		c0,2.2-1.6,4-3.8,4c-1.4,0-2.6-0.7-2.6-2.3v-20.3c0-0.4-0.2-0.6-0.5-0.6c-0.3,0-0.5,0.3-0.5,0.6c0,19.2,0,38.4,0,57.6
		c0,2.7-2,4.8-4.5,4.8h-0.4c-2.6,0-4.8-2.2-4.8-4.8c0-10.2,0-20.5,0-30.7c0-0.3-0.2-0.6-0.5-0.6s-0.5,0.3-0.5,0.6
		c0,10.2,0,20.5,0,30.7C181.7,202.9,179.5,205.1,176.9,205.1z M182.2,107.9c4.4,0,8,3.6,8,8.1c0,4.5-3.6,8.1-8,8.1
		c-4.4,0-8-3.6-8-8.1C174.2,111.6,177.8,107.9,182.2,107.9z"/>
	<path class="st0" d="M400.9,636.9h-0.4c-2.5,0-4.5-2.2-4.5-4.8c0-19.2,0-38.4,0-57.6c0-0.4-0.2-0.6-0.5-0.6c-0.3,0-0.5,0.3-0.5,0.6
		v20.3c0,1.6-1.4,2.3-2.7,2.3c-2,0-3.7-1.8-3.7-4v-20.5c0-7,5.1-12.8,11.3-12.8h12.8c6.2,0,11.3,5.7,11.3,12.8v20.5
		c0,2.2-1.6,4-3.8,4c-1.4,0-2.6-0.7-2.6-2.3v-20.3c0-0.4-0.2-0.6-0.5-0.6c-0.3,0-0.5,0.3-0.5,0.6c0,19.2,0,38.4,0,57.6
		c0,2.7-2,4.8-4.5,4.8h-0.4c-2.6,0-4.8-2.2-4.8-4.8c0-10.2,0-20.5,0-30.7c0-0.3-0.2-0.6-0.5-0.6s-0.5,0.3-0.5,0.6
		c0,10.2,0,20.5,0,30.7C405.7,634.7,403.5,636.9,400.9,636.9z M406.2,539.7c4.4,0,8,3.6,8,8.1c0,4.5-3.6,8.1-8,8.1s-8-3.6-8-8.1
		C398.2,543.3,401.8,539.7,406.2,539.7z"/>
	<path class="st0" d="M176.9,528.9h-0.4c-2.5,0-4.5-2.2-4.5-4.8c0-19.2,0-38.4,0-57.6c0-0.4-0.2-0.6-0.5-0.6c-0.3,0-0.5,0.3-0.5,0.6
		v20.3c0,1.6-1.4,2.3-2.7,2.3c-2,0-3.7-1.8-3.7-4v-20.5c0-7,5.1-12.8,11.3-12.8h12.8c6.2,0,11.3,5.7,11.3,12.8v20.5
		c0,2.2-1.6,4-3.8,4c-1.4,0-2.6-0.7-2.6-2.3v-20.3c0-0.4-0.2-0.6-0.5-0.6c-0.3,0-0.5,0.3-0.5,0.6c0,19.2,0,38.4,0,57.6
		c0,2.7-2,4.8-4.5,4.8h-0.4c-2.6,0-4.8-2.2-4.8-4.8c0-10.2,0-20.5,0-30.7c0-0.3-0.2-0.6-0.5-0.6s-0.5,0.3-0.5,0.6
		c0,10.2,0,20.5,0,30.7C181.7,526.8,179.5,528.9,176.9,528.9z M182.2,431.8c4.4,0,8,3.6,8,8.1c0,4.5-3.6,8.1-8,8.1
		c-4.4,0-8-3.6-8-8.1C174.2,435.4,177.8,431.8,182.2,431.8z"/>
	<path class="st0" d="M176.9,313h-0.4c-2.5,0-4.5-2.2-4.5-4.8c0-19.2,0-38.4,0-57.6c0-0.4-0.2-0.6-0.5-0.6c-0.3,0-0.5,0.3-0.5,0.6
		v20.3c0,1.6-1.4,2.3-2.7,2.3c-2,0-3.7-1.8-3.7-4v-20.5c0-7,5.1-12.8,11.3-12.8h12.8c6.2,0,11.3,5.7,11.3,12.8v20.5
		c0,2.2-1.6,4-3.8,4c-1.4,0-2.6-0.7-2.6-2.3v-20.3c0-0.4-0.2-0.6-0.5-0.6c-0.3,0-0.5,0.3-0.5,0.6c0,19.2,0,38.4,0,57.6
		c0,2.7-2,4.8-4.5,4.8h-0.4c-2.6,0-4.8-2.2-4.8-4.8c0-10.2,0-20.5,0-30.7c0-0.3-0.2-0.6-0.5-0.6s-0.5,0.3-0.5,0.6
		c0,10.2,0,20.5,0,30.7C181.7,310.9,179.5,313,176.9,313z M182.2,215.9c4.4,0,8,3.6,8,8.1s-3.6,8.1-8,8.1c-4.4,0-8-3.6-8-8.1
		S177.8,215.9,182.2,215.9z"/>
	<path class="st0" d="M400.9,97.1h-0.4c-2.5,0-4.5-2.2-4.5-4.8c0-19.2,0-38.4,0-57.6c0-0.4-0.2-0.6-0.5-0.6c-0.3,0-0.5,0.3-0.5,0.6
		V55c0,1.6-1.4,2.3-2.7,2.3c-2,0-3.7-1.8-3.7-4V32.8c0-7,5.1-12.8,11.3-12.8h12.8c6.2,0,11.3,5.7,11.3,12.8v20.5c0,2.2-1.6,4-3.8,4
		c-1.4,0-2.6-0.7-2.6-2.3V34.7c0-0.4-0.2-0.6-0.5-0.6c-0.3,0-0.5,0.3-0.5,0.6c0,19.2,0,38.4,0,57.6c0,2.7-2,4.8-4.5,4.8h-0.4
		c-2.6,0-4.8-2.2-4.8-4.8c0-10.2,0-20.5,0-30.7c0-0.3-0.2-0.6-0.5-0.6s-0.5,0.3-0.5,0.6c0,10.2,0,20.5,0,30.7
		C405.7,95,403.5,97.1,400.9,97.1z M406.2,0c4.4,0,8,3.6,8,8.1c0,4.5-3.6,8.1-8,8.1s-8-3.6-8-8.1C398.2,3.6,401.8,0,406.2,0z"/>
	<path class="st0" d="M400.9,421h-0.4c-2.5,0-4.5-2.2-4.5-4.8c0-19.2,0-38.4,0-57.6c0-0.4-0.2-0.6-0.5-0.6c-0.3,0-0.5,0.3-0.5,0.6
		v20.3c0,1.6-1.4,2.3-2.7,2.3c-2,0-3.7-1.8-3.7-4v-20.5c0-7,5.1-12.8,11.3-12.8h12.8c6.2,0,11.3,5.7,11.3,12.8v20.5
		c0,2.2-1.6,4-3.8,4c-1.4,0-2.6-0.7-2.6-2.3v-20.3c0-0.4-0.2-0.6-0.5-0.6c-0.3,0-0.5,0.3-0.5,0.6c0,19.2,0,38.4,0,57.6
		c0,2.7-2,4.8-4.5,4.8h-0.4c-2.6,0-4.8-2.2-4.8-4.8c0-10.2,0-20.5,0-30.7c0-0.3-0.2-0.6-0.5-0.6s-0.5,0.3-0.5,0.6
		c0,10.2,0,20.5,0,30.7C405.7,418.8,403.5,421,400.9,421z M406.2,323.8c4.4,0,8,3.6,8,8.1s-3.6,8.1-8,8.1s-8-3.6-8-8.1
		S401.8,323.8,406.2,323.8z"/>
	<path class="st0" d="M400.9,205.1h-0.4c-2.5,0-4.5-2.2-4.5-4.8c0-19.2,0-38.4,0-57.6c0-0.4-0.2-0.6-0.5-0.6c-0.3,0-0.5,0.3-0.5,0.6
		V163c0,1.6-1.4,2.3-2.7,2.3c-2,0-3.7-1.8-3.7-4v-20.5c0-7,5.1-12.8,11.3-12.8h12.8c6.2,0,11.3,5.7,11.3,12.8v20.5
		c0,2.2-1.6,4-3.8,4c-1.4,0-2.6-0.7-2.6-2.3v-20.3c0-0.4-0.2-0.6-0.5-0.6c-0.3,0-0.5,0.3-0.5,0.6c0,19.2,0,38.4,0,57.6
		c0,2.7-2,4.8-4.5,4.8h-0.4c-2.6,0-4.8-2.2-4.8-4.8c0-10.2,0-20.5,0-30.7c0-0.3-0.2-0.6-0.5-0.6s-0.5,0.3-0.5,0.6
		c0,10.2,0,20.5,0,30.7C405.7,202.9,403.5,205.1,400.9,205.1z M406.2,107.9c4.4,0,8,3.6,8,8.1c0,4.5-3.6,8.1-8,8.1s-8-3.6-8-8.1
		C398.2,111.6,401.8,107.9,406.2,107.9z"/>
	<path class="st0" d="M400.9,528.9h-0.4c-2.5,0-4.5-2.2-4.5-4.8c0-19.2,0-38.4,0-57.6c0-0.4-0.2-0.6-0.5-0.6c-0.3,0-0.5,0.3-0.5,0.6
		v20.3c0,1.6-1.4,2.3-2.7,2.3c-2,0-3.7-1.8-3.7-4v-20.5c0-7,5.1-12.8,11.3-12.8h12.8c6.2,0,11.3,5.7,11.3,12.8v20.5
		c0,2.2-1.6,4-3.8,4c-1.4,0-2.6-0.7-2.6-2.3v-20.3c0-0.4-0.2-0.6-0.5-0.6c-0.3,0-0.5,0.3-0.5,0.6c0,19.2,0,38.4,0,57.6
		c0,2.7-2,4.8-4.5,4.8h-0.4c-2.6,0-4.8-2.2-4.8-4.8c0-10.2,0-20.5,0-30.7c0-0.3-0.2-0.6-0.5-0.6s-0.5,0.3-0.5,0.6
		c0,10.2,0,20.5,0,30.7C405.7,526.8,403.5,528.9,400.9,528.9z M406.2,431.8c4.4,0,8,3.6,8,8.1c0,4.5-3.6,8.1-8,8.1s-8-3.6-8-8.1
		C398.2,435.4,401.8,431.8,406.2,431.8z"/>
	<path class="st0" d="M400.9,313h-0.4c-2.5,0-4.5-2.2-4.5-4.8c0-19.2,0-38.4,0-57.6c0-0.4-0.2-0.6-0.5-0.6c-0.3,0-0.5,0.3-0.5,0.6
		v20.3c0,1.6-1.4,2.3-2.7,2.3c-2,0-3.7-1.8-3.7-4v-20.5c0-7,5.1-12.8,11.3-12.8h12.8c6.2,0,11.3,5.7,11.3,12.8v20.5
		c0,2.2-1.6,4-3.8,4c-1.4,0-2.6-0.7-2.6-2.3v-20.3c0-0.4-0.2-0.6-0.5-0.6c-0.3,0-0.5,0.3-0.5,0.6c0,19.2,0,38.4,0,57.6
		c0,2.7-2,4.8-4.5,4.8h-0.4c-2.6,0-4.8-2.2-4.8-4.8c0-10.2,0-20.5,0-30.7c0-0.3-0.2-0.6-0.5-0.6s-0.5,0.3-0.5,0.6
		c0,10.2,0,20.5,0,30.7C405.7,310.9,403.5,313,400.9,313z M406.2,215.9c4.4,0,8,3.6,8,8.1s-3.6,8.1-8,8.1s-8-3.6-8-8.1
		S401.8,215.9,406.2,215.9z"/>
	<path class="st0" d="M512.9,636.9h-0.4c-2.5,0-4.5-2.2-4.5-4.8c0-19.2,0-38.4,0-57.6c0-0.4-0.2-0.6-0.5-0.6c-0.3,0-0.5,0.3-0.5,0.6
		v20.3c0,1.6-1.4,2.3-2.7,2.3c-2,0-3.7-1.8-3.7-4v-20.5c0-7,5.1-12.8,11.3-12.8h12.8c6.2,0,11.3,5.7,11.3,12.8v20.5
		c0,2.2-1.6,4-3.8,4c-1.4,0-2.6-0.7-2.6-2.3v-20.3c0-0.4-0.2-0.6-0.5-0.6c-0.3,0-0.5,0.3-0.5,0.6c0,19.2,0,38.4,0,57.6
		c0,2.7-2,4.8-4.5,4.8h-0.4c-2.6,0-4.8-2.2-4.8-4.8c0-10.2,0-20.5,0-30.7c0-0.3-0.2-0.6-0.5-0.6c-0.3,0-0.5,0.3-0.5,0.6
		c0,10.2,0,20.5,0,30.7C517.7,634.7,515.5,636.9,512.9,636.9z M518.2,539.7c4.4,0,8,3.6,8,8.1c0,4.5-3.6,8.1-8,8.1s-8-3.6-8-8.1
		C510.2,543.3,513.8,539.7,518.2,539.7z"/>
	<path class="st0" d="M512.9,97.1h-0.4c-2.5,0-4.5-2.2-4.5-4.8c0-19.2,0-38.4,0-57.6c0-0.4-0.2-0.6-0.5-0.6c-0.3,0-0.5,0.3-0.5,0.6
		V55c0,1.6-1.4,2.3-2.7,2.3c-2,0-3.7-1.8-3.7-4V32.8c0-7,5.1-12.8,11.3-12.8h12.8c6.2,0,11.3,5.7,11.3,12.8v20.5c0,2.2-1.6,4-3.8,4
		c-1.4,0-2.6-0.7-2.6-2.3V34.7c0-0.4-0.2-0.6-0.5-0.6c-0.3,0-0.5,0.3-0.5,0.6c0,19.2,0,38.4,0,57.6c0,2.7-2,4.8-4.5,4.8h-0.4
		c-2.6,0-4.8-2.2-4.8-4.8c0-10.2,0-20.5,0-30.7c0-0.3-0.2-0.6-0.5-0.6c-0.3,0-0.5,0.3-0.5,0.6c0,10.2,0,20.5,0,30.7
		C517.7,95,515.5,97.1,512.9,97.1z M518.2,0c4.4,0,8,3.6,8,8.1c0,4.5-3.6,8.1-8,8.1s-8-3.6-8-8.1C510.2,3.6,513.8,0,518.2,0z"/>
	<path class="st0" d="M512.9,421h-0.4c-2.5,0-4.5-2.2-4.5-4.8c0-19.2,0-38.4,0-57.6c0-0.4-0.2-0.6-0.5-0.6c-0.3,0-0.5,0.3-0.5,0.6
		v20.3c0,1.6-1.4,2.3-2.7,2.3c-2,0-3.7-1.8-3.7-4v-20.5c0-7,5.1-12.8,11.3-12.8h12.8c6.2,0,11.3,5.7,11.3,12.8v20.5
		c0,2.2-1.6,4-3.8,4c-1.4,0-2.6-0.7-2.6-2.3v-20.3c0-0.4-0.2-0.6-0.5-0.6c-0.3,0-0.5,0.3-0.5,0.6c0,19.2,0,38.4,0,57.6
		c0,2.7-2,4.8-4.5,4.8h-0.4c-2.6,0-4.8-2.2-4.8-4.8c0-10.2,0-20.5,0-30.7c0-0.3-0.2-0.6-0.5-0.6c-0.3,0-0.5,0.3-0.5,0.6
		c0,10.2,0,20.5,0,30.7C517.7,418.8,515.5,421,512.9,421z M518.2,323.8c4.4,0,8,3.6,8,8.1s-3.6,8.1-8,8.1s-8-3.6-8-8.1
		S513.8,323.8,518.2,323.8z"/>
	<path class="st0" d="M512.9,205.1h-0.4c-2.5,0-4.5-2.2-4.5-4.8c0-19.2,0-38.4,0-57.6c0-0.4-0.2-0.6-0.5-0.6c-0.3,0-0.5,0.3-0.5,0.6
		V163c0,1.6-1.4,2.3-2.7,2.3c-2,0-3.7-1.8-3.7-4v-20.5c0-7,5.1-12.8,11.3-12.8h12.8c6.2,0,11.3,5.7,11.3,12.8v20.5
		c0,2.2-1.6,4-3.8,4c-1.4,0-2.6-0.7-2.6-2.3v-20.3c0-0.4-0.2-0.6-0.5-0.6c-0.3,0-0.5,0.3-0.5,0.6c0,19.2,0,38.4,0,57.6
		c0,2.7-2,4.8-4.5,4.8h-0.4c-2.6,0-4.8-2.2-4.8-4.8c0-10.2,0-20.5,0-30.7c0-0.3-0.2-0.6-0.5-0.6c-0.3,0-0.5,0.3-0.5,0.6
		c0,10.2,0,20.5,0,30.7C517.7,202.9,515.5,205.1,512.9,205.1z M518.2,107.9c4.4,0,8,3.6,8,8.1c0,4.5-3.6,8.1-8,8.1s-8-3.6-8-8.1
		C510.2,111.6,513.8,107.9,518.2,107.9z"/>
	<path class="st0" d="M512.9,528.9h-0.4c-2.5,0-4.5-2.2-4.5-4.8c0-19.2,0-38.4,0-57.6c0-0.4-0.2-0.6-0.5-0.6c-0.3,0-0.5,0.3-0.5,0.6
		v20.3c0,1.6-1.4,2.3-2.7,2.3c-2,0-3.7-1.8-3.7-4v-20.5c0-7,5.1-12.8,11.3-12.8h12.8c6.2,0,11.3,5.7,11.3,12.8v20.5
		c0,2.2-1.6,4-3.8,4c-1.4,0-2.6-0.7-2.6-2.3v-20.3c0-0.4-0.2-0.6-0.5-0.6c-0.3,0-0.5,0.3-0.5,0.6c0,19.2,0,38.4,0,57.6
		c0,2.7-2,4.8-4.5,4.8h-0.4c-2.6,0-4.8-2.2-4.8-4.8c0-10.2,0-20.5,0-30.7c0-0.3-0.2-0.6-0.5-0.6c-0.3,0-0.5,0.3-0.5,0.6
		c0,10.2,0,20.5,0,30.7C517.7,526.8,515.5,528.9,512.9,528.9z M518.2,431.8c4.4,0,8,3.6,8,8.1c0,4.5-3.6,8.1-8,8.1s-8-3.6-8-8.1
		C510.2,435.4,513.8,431.8,518.2,431.8z"/>
	<path class="st0" d="M512.9,313h-0.4c-2.5,0-4.5-2.2-4.5-4.8c0-19.2,0-38.4,0-57.6c0-0.4-0.2-0.6-0.5-0.6c-0.3,0-0.5,0.3-0.5,0.6
		v20.3c0,1.6-1.4,2.3-2.7,2.3c-2,0-3.7-1.8-3.7-4v-20.5c0-7,5.1-12.8,11.3-12.8h12.8c6.2,0,11.3,5.7,11.3,12.8v20.5
		c0,2.2-1.6,4-3.8,4c-1.4,0-2.6-0.7-2.6-2.3v-20.3c0-0.4-0.2-0.6-0.5-0.6c-0.3,0-0.5,0.3-0.5,0.6c0,19.2,0,38.4,0,57.6
		c0,2.7-2,4.8-4.5,4.8h-0.4c-2.6,0-4.8-2.2-4.8-4.8c0-10.2,0-20.5,0-30.7c0-0.3-0.2-0.6-0.5-0.6c-0.3,0-0.5,0.3-0.5,0.6
		c0,10.2,0,20.5,0,30.7C517.7,310.9,515.5,313,512.9,313z M518.2,215.9c4.4,0,8,3.6,8,8.1s-3.6,8.1-8,8.1s-8-3.6-8-8.1
		S513.8,215.9,518.2,215.9z"/>
	<path class="st1" d="M512.3,744.8h-0.4c-2.5,0-4.5-2.2-4.5-4.8c0-19.2,0-38.4,0-57.6c0-0.4-0.2-0.6-0.5-0.6c-0.3,0-0.5,0.3-0.5,0.6
		v20.3c0,1.6-1.4,2.3-2.7,2.3c-2,0-3.7-1.8-3.7-4v-20.5c0-7,5.1-12.8,11.3-12.8h12.8c6.2,0,11.3,5.7,11.3,12.8V701
		c0,2.2-1.6,4-3.8,4c-1.4,0-2.6-0.7-2.6-2.3v-20.3c0-0.4-0.2-0.6-0.5-0.6c-0.3,0-0.5,0.3-0.5,0.6c0,19.2,0,38.4,0,57.6
		c0,2.7-2,4.8-4.5,4.8H523c-2.6,0-4.8-2.2-4.8-4.8c0-10.2,0-20.5,0-30.7c0-0.3-0.2-0.6-0.5-0.6c-0.3,0-0.5,0.3-0.5,0.6
		c0,10.2,0,20.5,0,30.7C517.1,742.6,515,744.8,512.3,744.8z M517.7,647.7c4.4,0,8,3.6,8,8.1c0,4.5-3.6,8.1-8,8.1c-4.4,0-8-3.6-8-8.1
		C509.7,651.3,513.3,647.7,517.7,647.7z"/>
</g>
<g id="dengue">
</g>
<g id="other">
</g>
</svg>
