<?xml version="1.0" encoding="utf-8"?>
<!-- Generator: Adobe Illustrator 28.3.0, SVG Export Plug-In . SVG Version: 6.00 Build 0)  -->
<svg version="1.1" id="other" xmlns="http://www.w3.org/2000/svg" xmlns:xlink="http://www.w3.org/1999/xlink" x="0px" y="0px"
	 viewBox="0 0 536 744.9" style="enable-background:new 0 0 536 744.9;" xml:space="preserve">
<style type="text/css">
	.st0{fill-rule:evenodd;clip-rule:evenodd;fill:#6981BB;}
	.st1{opacity:0;fill-rule:evenodd;clip-rule:evenodd;fill:#FFFFFF;}
</style>
<path class="st0" d="M232,744.8h-0.4c-2.6,0-4.8-2.2-4.8-4.8c0-19.2,0-38.4,0-57.6c0-0.4-0.3-0.6-0.6-0.6c-0.3,0-0.6,0.3-0.6,0.6
	v20.3c0,1.6-1.4,2.3-2.9,2.3c-2.2,0-3.9-1.8-3.9-4v-20.5c0-7,5.4-12.8,12.1-12.8h13.7c6.7,0,12.1,5.7,12.1,12.8V701
	c0,2.2-1.7,4-4.1,4c-1.5,0-2.8-0.7-2.8-2.3v-20.3c0-0.4-0.3-0.6-0.6-0.6c-0.3,0-0.6,0.3-0.6,0.6c0,19.2,0,38.4,0,57.6
	c0,2.7-2.2,4.8-4.8,4.8h-0.4c-2.8,0-5.1-2.2-5.1-4.8c0-10.2,0-20.5,0-30.7c0-0.3-0.3-0.6-0.6-0.6c-0.3,0-0.6,0.3-0.6,0.6
	c0,10.2,0,20.5,0,30.7C237.1,742.6,234.8,744.8,232,744.8z M237.7,647.7c4.7,0,8.5,3.6,8.5,8.1c0,4.5-3.8,8.1-8.5,8.1
	s-8.5-3.6-8.5-8.1C229.1,651.3,232.9,647.7,237.7,647.7z"/>
<path class="st0" d="M66.7,744.8h-0.4c-2.5,0-4.5-2.2-4.5-4.8c0-19.2,0-38.4,0-57.6c0-0.4-0.2-0.6-0.5-0.6c-0.3,0-0.5,0.3-0.5,0.6
	v20.3c0,1.6-1.4,2.3-2.7,2.3c-2,0-3.7-1.8-3.7-4v-20.5c0-7,5.1-12.8,11.3-12.8h12.8c6.2,0,11.3,5.7,11.3,12.8V701c0,2.2-1.6,4-3.8,4
	c-1.4,0-2.6-0.7-2.6-2.3v-20.3c0-0.4-0.2-0.6-0.5-0.6c-0.3,0-0.5,0.3-0.5,0.6c0,19.2,0,38.4,0,57.6c0,2.7-2,4.8-4.5,4.8h-0.4
	c-2.6,0-4.8-2.2-4.8-4.8c0-10.2,0-20.5,0-30.7c0-0.3-0.2-0.6-0.5-0.6c-0.3,0-0.5,0.3-0.5,0.6c0,10.2,0,20.5,0,30.7
	C71.5,742.6,69.3,744.8,66.7,744.8z M72,647.7c4.4,0,8,3.6,8,8.1c0,4.5-3.6,8.1-8,8.1c-4.4,0-8-3.6-8-8.1
	C64,651.3,67.6,647.7,72,647.7z"/>
<path class="st0" d="M288.3,744.8h-0.4c-2.5,0-4.5-2.2-4.5-4.8c0-19.2,0-38.4,0-57.6c0-0.4-0.2-0.6-0.5-0.6c-0.3,0-0.5,0.3-0.5,0.6
	v20.3c0,1.6-1.4,2.3-2.7,2.3c-2,0-3.7-1.8-3.7-4v-20.5c0-7,5.1-12.8,11.3-12.8h12.8c6.2,0,11.3,5.7,11.3,12.8V701c0,2.2-1.6,4-3.8,4
	c-1.4,0-2.6-0.7-2.6-2.3v-20.3c0-0.4-0.2-0.6-0.5-0.6c-0.3,0-0.5,0.3-0.5,0.6c0,19.2,0,38.4,0,57.6c0,2.7-2,4.8-4.5,4.8H299
	c-2.6,0-4.8-2.2-4.8-4.8c0-10.2,0-20.5,0-30.7c0-0.3-0.2-0.6-0.5-0.6c-0.3,0-0.5,0.3-0.5,0.6c0,10.2,0,20.5,0,30.7
	C293.1,742.6,291,744.8,288.3,744.8z M293.7,647.7c4.4,0,8,3.6,8,8.1c0,4.5-3.6,8.1-8,8.1c-4.4,0-8-3.6-8-8.1
	C285.7,651.3,289.2,647.7,293.7,647.7z"/>
<path class="st0" d="M121.5,744.8h-0.4c-2.5,0-4.5-2.2-4.5-4.8c0-19.2,0-38.4,0-57.6c0-0.4-0.2-0.6-0.5-0.6s-0.5,0.3-0.5,0.6v20.3
	c0,1.6-1.4,2.3-2.7,2.3c-2,0-3.7-1.8-3.7-4v-20.5c0-7,5.1-12.8,11.3-12.8h12.8c6.2,0,11.3,5.7,11.3,12.8V701c0,2.2-1.6,4-3.8,4
	c-1.4,0-2.6-0.7-2.6-2.3v-20.3c0-0.4-0.2-0.6-0.5-0.6s-0.5,0.3-0.5,0.6c0,19.2,0,38.4,0,57.6c0,2.7-2,4.8-4.5,4.8h-0.4
	c-2.6,0-4.8-2.2-4.8-4.8c0-10.2,0-20.5,0-30.7c0-0.3-0.2-0.6-0.5-0.6c-0.3,0-0.5,0.3-0.5,0.6c0,10.2,0,20.5,0,30.7
	C126.3,742.6,124.1,744.8,121.5,744.8z M126.9,647.7c4.4,0,8,3.6,8,8.1c0,4.5-3.6,8.1-8,8.1c-4.4,0-8-3.6-8-8.1
	C118.8,651.3,122.4,647.7,126.9,647.7z"/>
<path class="st0" d="M344,744.8h-0.4c-2.6,0-4.8-2.2-4.8-4.8c0-19.2,0-38.4,0-57.6c0-0.4-0.3-0.6-0.6-0.6c-0.3,0-0.6,0.3-0.6,0.6
	v20.3c0,1.6-1.4,2.3-2.9,2.3c-2.2,0-3.9-1.8-3.9-4v-20.5c0-7,5.4-12.8,12.1-12.8h13.7c6.7,0,12.1,5.7,12.1,12.8V701
	c0,2.2-1.7,4-4.1,4c-1.5,0-2.8-0.7-2.8-2.3v-20.3c0-0.4-0.3-0.6-0.6-0.6c-0.3,0-0.6,0.3-0.6,0.6c0,19.2,0,38.4,0,57.6
	c0,2.7-2.2,4.8-4.8,4.8h-0.4c-2.8,0-5.1-2.2-5.1-4.8c0-10.2,0-20.5,0-30.7c0-0.3-0.3-0.6-0.6-0.6c-0.3,0-0.6,0.3-0.6,0.6
	c0,10.2,0,20.5,0,30.7C349.1,742.6,346.8,744.8,344,744.8z M349.7,647.7c4.7,0,8.5,3.6,8.5,8.1c0,4.5-3.8,8.1-8.5,8.1
	c-4.7,0-8.5-3.6-8.5-8.1C341.1,651.3,345,647.7,349.7,647.7z"/>
<path class="st0" d="M456,744.8h-0.4c-2.6,0-4.8-2.2-4.8-4.8c0-19.2,0-38.4,0-57.6c0-0.4-0.3-0.6-0.6-0.6c-0.3,0-0.6,0.3-0.6,0.6
	v20.3c0,1.6-1.4,2.3-2.9,2.3c-2.2,0-3.9-1.8-3.9-4v-20.5c0-7,5.4-12.8,12.1-12.8h13.7c6.7,0,12.1,5.7,12.1,12.8V701
	c0,2.2-1.7,4-4.1,4c-1.5,0-2.8-0.7-2.8-2.3v-20.3c0-0.4-0.3-0.6-0.6-0.6c-0.3,0-0.6,0.3-0.6,0.6c0,19.2,0,38.4,0,57.6
	c0,2.7-2.2,4.8-4.8,4.8h-0.4c-2.8,0-5.1-2.2-5.1-4.8c0-10.2,0-20.5,0-30.7c0-0.3-0.3-0.6-0.6-0.6c-0.3,0-0.6,0.3-0.6,0.6
	c0,10.2,0,20.5,0,30.7C461.1,742.6,458.8,744.8,456,744.8z M461.7,647.7c4.7,0,8.5,3.6,8.5,8.1c0,4.5-3.8,8.1-8.5,8.1
	c-4.7,0-8.5-3.6-8.5-8.1C453.1,651.3,457,647.7,461.7,647.7z"/>
<path class="st0" d="M176.3,744.8h-0.4c-2.5,0-4.5-2.2-4.5-4.8c0-19.2,0-38.4,0-57.6c0-0.4-0.2-0.6-0.5-0.6c-0.3,0-0.5,0.3-0.5,0.6
	v20.3c0,1.6-1.4,2.3-2.7,2.3c-2,0-3.7-1.8-3.7-4v-20.5c0-7,5.1-12.8,11.3-12.8h12.8c6.2,0,11.3,5.7,11.3,12.8V701c0,2.2-1.6,4-3.8,4
	c-1.4,0-2.6-0.7-2.6-2.3v-20.3c0-0.4-0.2-0.6-0.5-0.6c-0.3,0-0.5,0.3-0.5,0.6c0,19.2,0,38.4,0,57.6c0,2.7-2,4.8-4.5,4.8H187
	c-2.6,0-4.8-2.2-4.8-4.8c0-10.2,0-20.5,0-30.7c0-0.3-0.2-0.6-0.5-0.6s-0.5,0.3-0.5,0.6c0,10.2,0,20.5,0,30.7
	C181.1,742.6,179,744.8,176.3,744.8z M181.7,647.7c4.4,0,8,3.6,8,8.1c0,4.5-3.6,8.1-8,8.1c-4.4,0-8-3.6-8-8.1
	C173.7,651.3,177.2,647.7,181.7,647.7z"/>
<path class="st0" d="M400.3,744.8h-0.4c-2.5,0-4.5-2.2-4.5-4.8c0-19.2,0-38.4,0-57.6c0-0.4-0.2-0.6-0.5-0.6c-0.3,0-0.5,0.3-0.5,0.6
	v20.3c0,1.6-1.4,2.3-2.7,2.3c-2,0-3.7-1.8-3.7-4v-20.5c0-7,5.1-12.8,11.3-12.8h12.8c6.2,0,11.3,5.7,11.3,12.8V701c0,2.2-1.6,4-3.8,4
	c-1.4,0-2.6-0.7-2.6-2.3v-20.3c0-0.4-0.2-0.6-0.5-0.6c-0.3,0-0.5,0.3-0.5,0.6c0,19.2,0,38.4,0,57.6c0,2.7-2,4.8-4.5,4.8H411
	c-2.6,0-4.8-2.2-4.8-4.8c0-10.2,0-20.5,0-30.7c0-0.3-0.2-0.6-0.5-0.6s-0.5,0.3-0.5,0.6c0,10.2,0,20.5,0,30.7
	C405.1,742.6,403,744.8,400.3,744.8z M405.7,647.7c4.4,0,8,3.6,8,8.1c0,4.5-3.6,8.1-8,8.1s-8-3.6-8-8.1
	C397.7,651.3,401.2,647.7,405.7,647.7z"/>
<path class="st0" d="M512.3,744.8h-0.4c-2.5,0-4.5-2.2-4.5-4.8c0-19.2,0-38.4,0-57.6c0-0.4-0.2-0.6-0.5-0.6c-0.3,0-0.5,0.3-0.5,0.6
	v20.3c0,1.6-1.4,2.3-2.7,2.3c-2,0-3.7-1.8-3.7-4v-20.5c0-7,5.1-12.8,11.3-12.8h12.8c6.2,0,11.3,5.7,11.3,12.8V701c0,2.2-1.6,4-3.8,4
	c-1.4,0-2.6-0.7-2.6-2.3v-20.3c0-0.4-0.2-0.6-0.5-0.6c-0.3,0-0.5,0.3-0.5,0.6c0,19.2,0,38.4,0,57.6c0,2.7-2,4.8-4.5,4.8H523
	c-2.6,0-4.8-2.2-4.8-4.8c0-10.2,0-20.5,0-30.7c0-0.3-0.2-0.6-0.5-0.6c-0.3,0-0.5,0.3-0.5,0.6c0,10.2,0,20.5,0,30.7
	C517.1,742.6,515,744.8,512.3,744.8z M517.7,647.7c4.4,0,8,3.6,8,8.1c0,4.5-3.6,8.1-8,8.1c-4.4,0-8-3.6-8-8.1
	C509.7,651.3,513.3,647.7,517.7,647.7z"/>
<path class="st1" d="M12.9,97.1h-0.4C10,97.1,8,95,8,92.3c0-19.2,0-38.4,0-57.6c0-0.4-0.2-0.6-0.5-0.6c-0.3,0-0.5,0.3-0.5,0.6V55
	c0,1.6-1.4,2.3-2.7,2.3c-2,0-3.7-1.8-3.7-4V32.8c0-7,5.1-12.8,11.3-12.8h12.8C30.9,20,36,25.8,36,32.8v20.5c0,2.2-1.6,4-3.8,4
	c-1.4,0-2.6-0.7-2.6-2.3V34.7c0-0.4-0.2-0.6-0.5-0.6c-0.3,0-0.5,0.3-0.5,0.6c0,19.2,0,38.4,0,57.6c0,2.7-2,4.8-4.5,4.8h-0.4
	c-2.6,0-4.8-2.2-4.8-4.8c0-10.2,0-20.5,0-30.7c0-0.3-0.2-0.6-0.5-0.6c-0.3,0-0.5,0.3-0.5,0.6c0,10.2,0,20.5,0,30.7
	C17.7,95,15.5,97.1,12.9,97.1z M18.2,0c4.4,0,8,3.6,8,8.1c0,4.5-3.6,8.1-8,8.1s-8-3.6-8-8.1C10.2,3.6,13.8,0,18.2,0z"/>
</svg>
