<?xml version="1.0" encoding="utf-8"?>
<!-- Generator: Adobe Illustrator 28.3.0, SVG Export Plug-In . SVG Version: 6.00 Build 0)  -->
<svg version="1.1" id="Calque_1" xmlns="http://www.w3.org/2000/svg" xmlns:xlink="http://www.w3.org/1999/xlink" x="0px" y="0px"
	 viewBox="0 0 805 600" style="enable-background:new 0 0 805 600;" xml:space="preserve">
<style type="text/css">
	.st0{fill:#A642CC;}
	.st1{fill:#4343ED;}
	.st2{fill:#FF7F0E;}
	.st3{fill:#E377C2;}
	.st4{fill:#48FF59;}
	.st5{fill:#15FFC7;}
	.st6{fill:#E5E5E5;stroke:#3A3A3A;stroke-miterlimit:10;}
	.st7{fill:#2CA02C;}
	.st8{fill:#7F7F7F;}
	.st9{fill:#8C564B;}
	.st10{fill:#17BECF;}
	.st11{fill:#CCCCCC;}
	.st12{fill:none;stroke:#000000;}
	.st13{font-family:'Helvetica';}
	.st14{font-size:10px;}
	.st15{fill:#7B7B7B;}
	.st16{font-family:'Arial-BoldMT';}
	.st17{font-size:12px;}
</style>
<g id="chapter_1">
	<g>
		<path class="st0" d="M10,471.9c8.5,0,8.5-0.6,17.1-0.6s8.5,5.7,17.1,5.7s8.5-9.3,17.1-9.3s8.5-30,17.1-30s8.5-7.8,17.1-7.8
			s8.5,18.3,17.1,18.3s8.5-5.9,17.1-5.9c8.5,0,8.5,6.4,17.1,6.4s8.5,8,17.1,8s8.5-1.8,17.1-1.8s8.5-26.7,17.1-26.7s8.5,3.8,17.1,3.8
			s8.5,1.7,17.1,1.7s8.5-28.4,17.1-28.4c8.6,0,8-20.3,16.6-20.3c8.5,0,8.5-19,17.1-19c8.5,0,8.5-18.1,17.1-18.1
			c8.5,0,8.5,15.7,17.1,15.7c8.5,0,8.5-26.7,17.1-26.7c8.5,0,8.5-17.2,17.1-17.2c8.5,0,8.5-47.7,17.1-47.7c8.5,0,8.5,2.8,17.1,2.8
			c8.5,0,8.5-5.7,17.1-5.7s8.5,20.4,17.1,20.4c8.5,0,8.5-15.1,17.1-15.1c8.5,0,8.5-12.4,17.1-12.4c8.5,0,8.5,22.2,17.1,22.2
			c8.5,0,8.5,30.6,17.1,30.6c8.5,0,8.5,29.6,17.1,29.6c8.5,0,8.5,18.9,17.1,18.9S531,322,539.6,322s8.5-48.8,17.1-48.8
			c8.5,0,8.5-42.9,17.1-42.9s8.5-39.5,17.1-39.5c8.5,0,8.5-31.2,17.1-31.2c8.5,0,8.5-6,17.1-6s8.5-5.4,17.1-5.4
			c8.5,0,8.5-44.8,17.1-44.8s8.5-10.3,17.1-10.3c8.5,0,8.5,25.6,17.1,25.6s8.5,61.5,17.1,61.5c8.5,0,8.5,55.2,17.1,55.2
			s8.5,79.9,17.1,79.9c8.5,0,8.5,61.2,17.1,61.2s8.5,57.6,17.1,57.6c8.5,0,8.5,21.7,17.1,21.7v5.3c-8.5,0-8.5-22.4-17.1-22.4
			c-8.5,0-8.5-57.9-17.1-57.9s-8.5-61.4-17.1-61.4c-8.5,0-8.5-80.2-17.1-80.2s-8.5-56.2-17.1-56.2c-8.5,0-8.5-61.8-17.1-61.8
			s-8.5-26.3-17.1-26.3c-8.5,0-8.5,9.9-17.1,9.9s-8.5,44.4-17.1,44.4c-8.5,0-8.5,5.2-17.1,5.2s-8.5,5.8-17.1,5.8
			c-8.5,0-8.5,30.8-17.1,30.8c-8.5,0-8.5,39.4-17.1,39.4s-8.5,42.9-17.1,42.9c-8.5,0-8.5,48.9-17.1,48.9s-8.5,41.4-17.1,41.4
			s-8.5-18.9-17.1-18.9c-8.5,0-8.5-29.4-17.1-29.4c-8.5,0-8.5-30.7-17.1-30.7c-8.5,0-8.5-22-17.1-22c-8.5,0-8.5,12.5-17.1,12.5
			c-8.5,0-8.5,14.9-17.1,14.9c-8.5,0-8.5-20.4-17.1-20.4s-8.5,5.5-17.1,5.5c-8.5,0-8.5-2.9-17.1-2.9c-8.5,0-8.5,47.5-17.1,47.5
			c-8.5,0-8.5,17.5-17.1,17.5c-8.5,0-8.5,27.4-17.1,27.4c-8.5,0-8.5-13.7-17.1-13.7c-8.5,0-8.5,24.5-17.1,24.5
			c-8.5,0-8.5,29.6-17.1,29.6c-8.5,0-8.5,29.9-17.1,29.9s-8.5,33.5-17.1,33.5s-8.5,10-17.1,10s-8.5,6.7-17.1,6.7
			s-8.5,28.1-17.1,28.1s-8.5,11.4-17.1,11.4s-8.5,6.4-17.1,6.4s-8.5-2.8-17.1-2.8c-8.5,0-8.5,0.9-17.1,0.9s-8.5-3.9-17.1-3.9
			s-8.5,8.6-17.1,8.6S69.4,544,60.8,544s-8.5,4.8-17.1,4.8s-8.5-0.3-17.1-0.3s-8.5,1.7-17.1,1.7v-78.3H10z"/>
		<path class="st1" d="M10,407.5c8.5,0,8.5,6.2,17.1,6.2s8.5,17,17.1,17s8.5-16.3,17.1-16.3s8.5-29.8,17.1-29.8s8.5-7.8,17.1-7.8
			S104,389,112.6,389s8.5,9.5,17.1,9.5c8.5,0,8.5,7,17.1,7s8.5,12.9,17.1,12.9s8.5,1.7,17.1,1.7s8.5-28.5,17.1-28.5
			s8.5,6.9,17.1,6.9s8.5,9.2,17.1,9.2s8.5-25.1,17.1-25.1c8.6,0,8.5-15.6,17.1-15.6c8.5,0,8.5-12.6,17.1-12.6
			c8.5,0,8.5-16.5,17.1-16.5c8.5,0,8.5,18.1,17.1,18.1c8.5,0,8.5-26.5,17.1-26.5c8.5,0,8.5-16.8,17.1-16.8c8.5,0,8.5-46.8,17.1-46.8
			c8.5,0,8.5,2.8,17.1,2.8c8.5,0,8.5-6.9,17.1-6.9s8.5,20.7,17.1,20.7c8.5,0,8.5-16.9,17.1-16.9c8.5,0,8.5-10.3,17.1-10.3
			c8.5,0,8.5,22.8,17.1,22.8c8.5,0,8.5,30.6,17.1,30.6c8.5,0,8.5,30.7,17.1,30.7c8.5,0,8.5,17.3,17.1,17.3s8.5-44.7,17.1-44.7
			s8.5-96.3,17.1-96.3c8.5,0,8.5-80.2,17.1-80.2s8.5-73.7,17.1-73.7c8.5,0,8.5-19.1,17.1-19.1c8.5,0,8.5,25.5,17.1,25.5
			s8.5,24.9,17.1,24.9c8.5,0,8.5-23.9,17.1-23.9s8.5,6.1,17.1,6.1c8.5,0,8.5,31.4,17.1,31.4s8.5,65.2,17.1,65.2
			c8.5,0,8.5,56.8,17.1,56.8s8.5,79.9,17.1,79.9c8.5,0,8.5,63.7,17.1,63.7s8.5,58.9,17.1,58.9c8.5,0,8.5,22.1,17.1,22.1v0.1
			c-8.5,0-8.5-22.1-17.1-22.1c-8.5,0-8.5-58.9-17.1-58.9s-8.5-63.7-17.1-63.7c-8.5,0-8.5-79.9-17.1-79.9s-8.5-56.8-17.1-56.8
			c-8.5,0-8.5-65.3-17.1-65.3s-8.5-31.4-17.1-31.4c-8.5,0-8.5-6.1-17.1-6.1S649.9,93,641.4,93s-8.5-24.9-17.1-24.9
			s-8.5-25.5-17.1-25.5c-8.5,0-8.5,19.1-17.1,19.1c-8.5,0-8.5,73.9-17.1,73.9s-8.5,80.4-17.1,80.4c-8.5,0-8.5,96.6-17.1,96.6
			s-8.5,44.8-17.1,44.8s-8.5-17.1-17.1-17.1c-8.5,0-8.5-30.4-17.1-30.4c-8.5,0-8.5-30.8-17.1-30.8c-8.5,0-8.5-22.7-17.1-22.7
			c-8.5,0-8.5,10.3-17.1,10.3c-8.5,0-8.5,17.5-17.1,17.5c-8.5,0-8.5-19.9-17.1-19.9s-8.5,6.9-17.1,6.9c-8.5,0-8.5-2.4-17.1-2.4
			c-8.5,0-8.5,47.7-17.1,47.7c-8.5,0-8.5,18.1-17.1,18.1c-8.5,0-8.5,27.1-17.1,27.1c-8.5,0-8.5-16.5-17.1-16.5
			c-8.5,0-8.5,19-17.1,19c-8.5,0-8.5,20.7-17.1,20.7c-8.5,0-8.5,20.2-17.1,20.2s-8.5,28.4-17.1,28.4s-8.5-1.7-17.1-1.7
			s-8.5-3.8-17.1-3.8s-8.5,26.7-17.1,26.7s-8.5,1.8-17.1,1.8s-8.5-8-17.1-8s-8.5-6.4-17.1-6.4c-8.5,0-8.5,5.9-17.1,5.9
			s-8.5-18.3-17.1-18.3s-8.5,7.8-17.1,7.8s-8.5,29.8-17.1,29.8s-8.5,9-17.1,9s-8.5-5.8-17.1-5.8S17.3,471,8.7,471v-63.5H10z"/>
	</g>
</g>
<g id="chapter_2">
	<path class="st2" d="M10,550.3c8.5,0,8.5-1.7,17.1-1.7s8.5,0.3,17.1,0.3s8.5-4.8,17.1-4.8s8.4-10.1,17-10.1s8.5-8.6,17.1-8.6
		s8.5,3.9,17.1,3.9s8.5-0.9,17.1-0.9c8.5,0,8.5,2.8,17.1,2.8s8.5-6.4,17.1-6.4s8.5-11.4,17.1-11.4s8.5-28.1,17.1-28.1
		s8.5-6.7,17.1-6.7s8.5-10,17.1-10s8.5-33.5,17.1-33.5s8.5-29.4,17.1-29.4c8.5,0,8.5-30,17.1-30c8.5,0,8.5-24.2,17.1-24.2
		c8.5,0,8.5,15,17.1,15c8.5,0,8.5-26.9,17.1-26.9c8.5,0,8.5-17.4,17.1-17.4c8.5,0,8.5-47.1,17.1-47.1c8.5,0,8.5,6.3,17.1,6.3
		c8.5,0,8.5,0.6,17.1,0.6s7.8,27,16.4,27c8.5,0,8.5-17.9,17.1-17.9c8.5,0,8.5-12.5,17.1-12.5c8.5,0,8.5,15.9,17.1,15.9
		c8.5,0,8.5,26,17.1,26c8.5,0,8.5,25.9,17.1,25.9c8.5,0,8.5,19.9,17.1,19.9s8.5-2.5,17.1-2.5s8.5,18,17.1,18
		c8.5,0,8.5,24.5,17.1,24.5S582,440,590.6,440c8.5,0,8.5,36.8,17.1,36.8c8.5,0,8.5,20.1,17.1,20.1s8.5,12.2,17.1,12.2
		c8.5,0,8.5,3.4,17.1,3.4s8.5,11.9,17.1,11.9c8.5,0,8.5,6.8,17.1,6.8s8.5,9.8,17.1,9.8c8.5,0,8.5,6,17.1,6s8.5,5.5,17.1,5.5
		c8.5,0,8.5,2.8,17.1,2.8s8.5,10,17.1,10c8.5,0,8.5,1.5,17.1,1.5v13c-8.5,0-8.5,0-17.1,0c-8.5,0-8.5,0-17.1,0s-8.5,0-17.1,0
		c-8.5,0-8.5,0-17.1,0s-8.5,0-17.1,0c-8.5,0-8.5,0-17.1,0s-8.5,0-17.1,0c-8.5,0-8.5,0-17.1,0s-8.5,0-17.1,0c-8.5,0-8.5,0-17.1,0
		s-8.5,0-17.1,0c-8.5,0-8.5-0.1-17.1-0.1c-8.5,0-8.5-0.1-17.1-0.1s-8.5-0.5-17.1-0.5c-8.5,0-8.5-0.8-17.1-0.8s-8.5-3.4-17.1-3.4
		s-8.5-3.9-17.1-3.9c-8.5,0-8.5-3.9-17.1-3.9c-8.5,0-8.5-9-17.1-9c-8.5,0-8.5-16.9-17.1-16.9c-8.5,0-8.5-13.2-17.1-13.2
		c-8.5,0-8.5-8.4-17.1-8.4c-8.5,0-8.5-19.7-17.1-19.7s-8.5-16.3-17.1-16.3c-8.5,0-8.5-23.3-17.1-23.3c-8.5,0-8.5,0.4-17.1,0.4
		c-8.5,0-8.5-7.3-17.1-7.3c-8.5,0-8.5,6.1-17.1,6.1c-8.5,0-8.5-28.1-17.1-28.1c-8.5,0-8.5,2-17.1,2c-8.5,0-8.5,13.9-17.1,13.9
		c-8.5,0-8.5,16.1-17.1,16.1s-8.5,19.8-17.1,19.8s-8.5,1.5-17.1,1.5s-8.5,2-17.1,2s-8.5,26.7-17.1,26.7s-8.5,11.2-17.1,11.2
		s-8.5,6.4-17.1,6.4s-8.5-2.8-17.1-2.8c-8.5,0-8.5,0.9-17.1,0.9s-8.5-3.9-17.1-3.9s-8.5,8.6-17.1,8.6S69.1,544,60.5,544
		s-8.5,4.8-17.1,4.8s-8.5-0.3-17.1-0.3S18.5,550.3,10,550.3z"/>
	<path class="st3" d="M10,550.3c8.5,0,8.5-1.7,17.1-1.7s8.5,0.3,17.1,0.3s8.5-4.8,17.1-4.8s8.4-10.1,17-10.1s8.5-8.6,17.1-8.6
		s8.5,3.9,17.1,3.9s8.5-0.9,17.1-0.9c8.5,0,8.5,2.8,17.1,2.8s8.5-6.4,17.1-6.4s8.5-11.4,17.1-11.4s8.5-28.1,17.1-28.1
		s8.5-6.7,17.1-6.7s8.5-10,17.1-10s8.5-33.5,17.1-33.5s8.5-29.9,17.1-29.9c8.5,0,8.5-29.6,17.1-29.6c8.5,0,8.5-24.5,17.1-24.5
		c8.5,0,8.5,13.7,17.1,13.7c8.5,0,8.5-27.4,17.1-27.4c8.5,0,8.5-17.5,17.1-17.5c8.5,0,8.5-47.5,17.1-47.5c8.5,0,8.5,2.9,17.1,2.9
		c8.5,0,8.5-5.5,17.1-5.5s8.5,20.4,17.1,20.4c8.5,0,8.5-14.9,17.1-14.9c8.5,0,8.5-12.5,17.1-12.5c8.5,0,8.5,22,17.1,22
		c8.5,0,8.5,30.7,17.1,30.7c8.5,0,8.5,29.5,17.1,29.5c8.5,0,8.5,18.9,17.1,18.9s8.5-2.4,17.1-2.4s8.5,15.6,17.1,15.6
		c8.5,0,8.5,20.9,17.1,20.9s8.5,27.2,17.1,27.2c8.5,0,8.5,33.5,17.1,33.5c8.5,0,8.5,17,17.1,17s8.5,9,17.1,9c8.5,0,8.5-1.7,17.1-1.7
		s8.5,8.4,17.1,8.4c8.5,0,8.5,6.6,17.1,6.6s8.5,10.8,17.1,10.8c8.5,0,8.5,8.3,17.1,8.3s8.5,11.6,17.1,11.6c8.5,0,8.5,8,17.1,8
		s8.5,14.7,17.1,14.7c8.5,0,8.5,4.2,17.1,4.2V567c-8.5,0-8.5-1.5-17.1-1.5c-8.5,0-8.5-10-17.1-10s-8.5-2.8-17.1-2.8
		c-8.5,0-8.5-5.6-17.1-5.6s-8.5-6.2-17.1-6.2c-8.5,0-8.5-9.7-17.1-9.7s-8.5-6.9-17.1-6.9c-8.5,0-8.5-12-17.1-12s-8.5-3.3-17.1-3.3
		c-8.5,0-8.5-12.2-17.1-12.2s-8.5-20.1-17.1-20.1c-8.5,0-8.5-37.4-17.1-37.4c-8.5,0-8.5-33.4-17.1-33.4s-8.5-24.8-17.1-24.8
		c-8.5,0-8.5-18.1-17.1-18.1s-8.5,1.1-17.1,1.1s-8.5-18.9-17.1-18.9c-8.5,0-8.5-29.5-17.1-29.5c-8.5,0-8.5-30.7-17.1-30.7
		c-8.5,0-8.5-22-17.1-22c-8.5,0-8.5,12.5-17.1,12.5c-8.5,0-8.5,14.9-17.1,14.9c-8.5,0-8.5-20.4-17.1-20.4s-8.5,5.5-17.1,5.5
		c-8.5,0-8.5-2.9-17.1-2.9c-8.5,0-8.5,47.5-17.1,47.5c-8.5,0-8.5,17.5-17.1,17.5c-8.5,0-8.5,27.4-17.1,27.4
		c-8.5,0-8.5-13.7-17.1-13.7c-8.5,0-8.5,24.5-17.1,24.5c-8.5,0-8.5,29.6-17.1,29.6c-8.5,0-8.5,29.9-17.1,29.9s-8.5,33.5-17.1,33.5
		s-8.5,10-17.1,10s-8.5,6.7-17.1,6.7s-8.5,28.1-17.1,28.1s-8.5,11.4-17.1,11.4s-8.5,6.4-17.1,6.4s-8.5-2.8-17.1-2.8
		c-8.5,0-8.5,0.9-17.1,0.9s-8.5-3.9-17.1-3.9s-8.5,8.6-17.1,8.6s-8.5,10.2-17.1,10.2s-8.5,4.8-17.1,4.8s-8.5-0.3-17.1-0.3
		S18.5,550.3,10,550.3z"/>
</g>
<path class="st4" d="M10,550.3c8.5,0,8.5-1.7,17.1-1.7s8.5,0.3,17.1,0.3s8.5-4.8,17.1-4.8s8.4-10.1,17-10.1s8.5-8.6,17.1-8.6
	s8.5,3.9,17.1,3.9s8.5-0.9,17.1-0.9c8.5,0,8.5,2.8,17.1,2.8s8.5-6.4,17.1-6.4s8.5-11.4,17.1-11.4s8.5-28.1,17.1-28.1
	s8.5-6.7,17.1-6.7s8.5-10,17.1-10s8.5-33.5,17.1-33.5s8.5-29.9,17.1-29.9c8.5,0,8.5-29.6,17.1-29.6c8.5,0,8.5-24.5,17.1-24.5
	c8.5,0,8.5,13.7,17.1,13.7c8.5,0,8.5-27.4,17.1-27.4c8.5,0,8.5-17.5,17.1-17.5c8.5,0,8.5-47.5,17.1-47.5c8.5,0,8.5,2.9,17.1,2.9
	c8.5,0,8.5-5.5,17.1-5.5s8.5,20.4,17.1,20.4c8.5,0,8.5-14.9,17.1-14.9c8.5,0,8.5-12.5,17.1-12.5c8.5,0,8.5,22,17.1,22
	c8.5,0,8.5,30.7,17.1,30.7c8.5,0,8.5,29.5,17.1,29.5c8.5,0,8.5,18.9,17.1,18.9s8.5-41.4,17.1-41.4s8.5-48.7,17.1-48.7
	c8.5,0,8.5-42.8,17.1-42.8s8.5-39.2,17.1-39.2c8.5,0,8.5-30.9,17.1-30.9c8.5,0,8.5-5.8,17.1-5.8s8.5-5.2,17.1-5.2
	c8.5,0,8.5-44.5,17.1-44.5s8.5-9.7,17.1-9.7c8.5,0,8.5,26.8,17.1,26.8s8.5,61.2,17.1,61.2c8.5,0,8.5,56.4,17.1,56.4s8.5,80,17.1,80
	c8.5,0,8.5,61.3,17.1,61.3s8.5,57.8,17.1,57.8c8.5,0,8.5,22.3,17.1,22.3v93.9c-8.5,0-8.5-4.2-17.1-4.2c-8.5,0-8.5-14.8-17.1-14.8
	s-8.5-8.2-17.1-8.2c-8.5,0-8.5-11.9-17.1-11.9s-8.5-9.3-17.1-9.3c-8.5,0-8.5-11.2-17.1-11.2s-8.5-7.2-17.1-7.2
	c-8.5,0-8.5-10-17.1-10s-8.5,1.1-17.1,1.1c-8.5,0-8.5-9.6-17.1-9.6S617,453,608.4,453c-8.5,0-8.5-31.7-17.1-31.7
	c-8.5,0-8.5-26-17.1-26s-8.5-18.6-17.1-18.6c-8.5,0-8.5-15-17.1-15s-8.5,2.4-17.1,2.4s-8.5-18.9-17.1-18.9
	c-8.5,0-8.5-29.5-17.1-29.5c-8.5,0-8.5-30.7-17.1-30.7c-8.5,0-8.5-22-17.1-22c-8.5,0-8.5,12.5-17.1,12.5c-8.5,0-8.5,14.9-17.1,14.9
	c-8.5,0-8.5-20.4-17.1-20.4s-8.5,5.5-17.1,5.5c-8.5,0-8.5-2.9-17.1-2.9c-8.5,0-8.5,47.5-17.1,47.5c-8.5,0-8.5,17.5-17.1,17.5
	c-8.5,0-8.5,27.4-17.1,27.4c-8.5,0-8.5-13.7-17.1-13.7c-8.5,0-8.5,24.5-17.1,24.5c-8.5,0-8.5,29.6-17.1,29.6
	c-8.5,0-8.5,29.9-17.1,29.9s-8.5,33.5-17.1,33.5s-8.5,10-17.1,10s-8.5,6.7-17.1,6.7s-8.5,28.1-17.1,28.1s-8.5,11.4-17.1,11.4
	s-8.5,6.4-17.1,6.4s-8.5-2.8-17.1-2.8c-8.5,0-8.5,0.9-17.1,0.9s-8.5-3.9-17.1-3.9s-8.5,8.6-17.1,8.6s-8.5,10.2-17.1,10.2
	s-8.5,4.8-17.1,4.8s-8.5-0.3-17.1-0.3S18.5,550.3,10,550.3z"/>
<path class="st5" d="M10,471.3c8.5,0,8.5-0.5,17.1-0.5s8.5,5.8,17.1,5.8s8.5-9,17.1-9s8.5-29.8,17.1-29.8s8.5-7.8,17.1-7.8
	s8.5,18.3,17.1,18.3s8.5-5.9,17.1-5.9c8.5,0,8.5,6.4,17.1,6.4s8.5,8,17.1,8s8.5-1.8,17.1-1.8s8.5-26.7,17.1-26.7s8.5,3.8,17.1,3.8
	s8.5,1.7,17.1,1.7s8.5-28.4,17.1-28.4c8.6,0,8-20.4,16.6-20.4c8.5,0,8.5-20.7,17.1-20.7c8.5,0,8.5-19,17.1-19
	c8.5,0,8.5,16.5,17.1,16.5c8.5,0,8.5-27.1,17.1-27.1c8.5,0,8.5-18.1,17.1-18.1c8.5,0,8.5-47.7,17.1-47.7c8.5,0,8.5,2.4,17.1,2.4
	c8.5,0,8.5-6.9,17.1-6.9s8.5,19.9,17.1,19.9c8.5,0,8.5-17.5,17.1-17.5c8.5,0,8.5-10.3,17.1-10.3c8.5,0,8.5,22.7,17.1,22.7
	c8.5,0,8.5,30.8,17.1,30.8c8.5,0,8.5,30.4,17.1,30.4c8.5,0,8.5,17.5,17.1,17.5S531,313,539.6,313s8.5-96.7,17.1-96.7
	c8.5,0,8.5-80.5,17.1-80.5s8.5-73.9,17.1-73.9c8.5,0,8.5-19.2,17.1-19.2c8.5,0,8.5,25.5,17.1,25.5S632.9,93,641.4,93
	s8.5-23.9,17.1-23.9s8.5,6.1,17.1,6.1c8.5,0,8.5,31.4,17.1,31.4s8.5,65.3,17.1,65.3c8.5,0,8.5,56.8,17.1,56.8s8.5,79.9,17.1,79.9
	c8.5,0,8.5,63.7,17.1,63.7s8.5,58.9,17.1,58.9c8.5,0,8.5,22.1,17.1,22.1v2.4c-8.5,0-8.5-21.7-17.1-21.7c-8.5,0-8.5-57.7-17.1-57.7
	s-8.5-61.4-17.1-61.4c-8.5,0-8.5-80.1-17.1-80.1s-8.5-55.5-17.1-55.5c-8.5,0-8.5-61.7-17.1-61.7s-8.5-25.9-17.1-25.9
	c-8.5,0-8.5,9.8-17.1,9.8s-8.5,44.4-17.1,44.4c-8.5,0-8.5,4.7-17.1,4.7s-8.5,5.5-17.1,5.5c-8.5,0-8.5,27.2-17.1,27.2
	c-8.5,0-8.5,40.7-17.1,40.7s-8.5,39.9-17.1,39.9c-8.5,0-8.5,49.1-17.1,49.1s-8.5,44.9-17.1,44.9s-8.5-17.5-17.1-17.5
	c-8.5,0-8.5-30.4-17.1-30.4c-8.5,0-8.5-30.8-17.1-30.8c-8.5,0-8.5-22.7-17.1-22.7c-8.5,0-8.5,10.3-17.1,10.3
	c-8.5,0-8.5,17.5-17.1,17.5c-8.5,0-8.5-19.9-17.1-19.9s-8.5,6.9-17.1,6.9c-8.5,0-8.5-2.4-17.1-2.4c-8.5,0-8.5,47.7-17.1,47.7
	c-8.5,0-8.5,18.1-17.1,18.1c-8.5,0-8.5,27.1-17.1,27.1c-8.5,0-8.5-16.5-17.1-16.5c-8.5,0-8.5,19-17.1,19c-8.5,0-8.5,20.7-17.1,20.7
	c-8.5,0-8.5,20.2-17.1,20.2s-8.5,28.4-17.1,28.4s-8.5-1.7-17.1-1.7s-8.5-3.8-17.1-3.8s-8.5,26.7-17.1,26.7s-8.5,1.8-17.1,1.8
	s-8.5-8-17.1-8s-8.5-6.4-17.1-6.4c-8.5,0-8.5,5.9-17.1,5.9s-8.5-18.3-17.1-18.3s-8.5,7.8-17.1,7.8s-8.5,29.8-17.1,29.8
	s-8.5,9-17.1,9s-8.5-5.8-17.1-5.8S18.5,471.3,10,471.3z"/>
<path class="st6" d="M10,554.5c8.5,0,8.5-1.6,17.1-1.6s8.5,0.6,17.1,0.6s8.5-3.2,17.1-3.2s8.5-5.9,17.1-5.9s8.5-1.8,17.1-1.8
	s8.5,8.8,17.1,8.8s8.5,4.8,17.1,4.8c8.5,0,8.5,9.8,17.1,9.8s8.5,10.2,17.1,10.2s8.5,3.8,17.1,3.8s8.5,0,17.1,0s8.5,0,17.1,0
	s8.5,0,17.1,0s8.5,0,17.1,0c8.6,0,8.5,0,17.1,0c8.5,0,8.5,0,17.1,0c8.5,0,8.5,0,17.1,0c8.5,0,8.5,0,17.1,0c8.5,0,8.5,0,17.1,0
	c8.5,0,8.5,0,17.1,0c8.5,0,8.5,0,17.1,0c8.5,0,8.5,0,17.1,0c8.5,0,8.5,0,17.1,0s8.5,0,17.1,0c8.5,0,8.5,0,17.1,0c8.5,0,8.5,0,17.1,0
	c8.5,0,8.5,0,17.1,0c8.5,0,8.5,0,17.1,0c8.5,0,8.5,0,17.1,0c8.5,0,8.5,0,17.1,0s8.5,0,17.1,0s8.5,0,17.1,0c8.5,0,8.5,0,17.1,0
	s8.5,0,17.1,0c8.5,0,8.5,0,17.1,0c8.5,0,8.5,0,17.1,0s8.5,0,17.1,0c8.5,0,8.5,0,17.1,0s8.5,0,17.1,0c8.5,0,8.5,0,17.1,0
	s8.5,0,17.1,0c8.5,0,8.5,0,17.1,0s8.5,0,17.1,0c8.5,0,8.5,0,17.1,0s8.5,0,17.1,0c8.5,0,8.5,0,17.1,0l0,0c-8.5,0-8.5,0-17.1,0
	c-8.5,0-8.5,0-17.1,0s-8.5,0-17.1,0c-8.5,0-8.5,0-17.1,0s-8.5,0-17.1,0c-8.5,0-8.5,0-17.1,0s-8.5,0-17.1,0c-8.5,0-8.5,0-17.1,0
	s-8.5,0-17.1,0c-8.5,0-8.5,0-17.1,0s-8.5,0-17.1,0c-8.5,0-8.5,0-17.1,0c-8.5,0-8.5,0-17.1,0s-8.5,0-17.1,0c-8.5,0-8.5,0-17.1,0
	s-8.5,0-17.1,0s-8.5,0-17.1,0c-8.5,0-8.5,0-17.1,0c-8.5,0-8.5,0-17.1,0c-8.5,0-8.5,0-17.1,0c-8.5,0-8.5,0-17.1,0
	c-8.5,0-8.5,0-17.1,0c-8.5,0-8.5,0-17.1,0s-8.5,0-17.1,0c-8.5,0-8.5,0-17.1,0c-8.5,0-8.5,0-17.1,0c-8.5,0-8.5,0-17.1,0
	c-8.5,0-8.5,0-17.1,0c-8.5,0-8.5,0-17.1,0c-8.5,0-8.5,0-17.1,0c-8.5,0-8.5,0-17.1,0c-8.5,0-8.5,0-17.1,0s-8.5,0-17.1,0
	s-8.5,0-17.1,0s-8.5,0-17.1,0s-8.5,0-17.1,0s-8.5,0-17.1,0s-8.5,0-17.1,0s-8.5,0-17.1,0c-8.5,0-8.5,0-17.1,0s-8.5,0-17.1,0
	s-8.5,0-17.1,0s-8.5,0-17.1,0s-8.5,0-17.1,0s-8.5,0-17.1,0s-8.5,0-17.1,0L10,554.5L10,554.5z"/>
<path class="st6" d="M10,550.3c8.5,0,8.5-1.7,17.1-1.7s8.5,0.3,17.1,0.3s8.5-4.8,17.1-4.8s8.4-10.1,17-10.1s8.5-8.6,17.1-8.6
	s8.5,3.9,17.1,3.9s8.5-0.9,17.1-0.9c8.5,0,8.5,2.8,17.1,2.8s8.5-6.4,17.1-6.4s8.5-11.2,17.1-11.2s8.5-26.7,17.1-26.7s8.5-2,17.1-2
	s8.5-1.5,17.1-1.5s8.5-18.3,17.1-18.3S257.4,454,266,454c8.5,0,8.5,1.1,17.1,1.1c8.5,0,8.5,1.1,17.1,1.1c8.5,0,8.5,23,17.1,23
	c8.5,0,8.5-1.8,17.1-1.8c8.5,0,8.5,7.5,17.1,7.5c8.5,0,8.5-1.7,17.1-1.7c8.5,0,8.5,20.4,17.1,20.4c8.5,0,8.5,13.2,17.1,13.2
	s8.5,14.8,17.1,14.8c8.5,0,8.5,3.9,17.1,3.9c8.5,0,8.5,9.8,17.1,9.8c8.5,0,8.5,13.3,17.1,13.3c8.5,0,8.5,8.7,17.1,8.7
	c8.5,0,8.5,3.9,17.1,3.9c8.5,0,8.5,3.9,17.1,3.9s8.5,3.4,17.1,3.4s8.5,0.8,17.1,0.8c8.5,0,8.5,0.5,17.1,0.5s8.5,0.1,17.1,0.1
	c8.5,0,8.5,0.1,17.1,0.1c8.5,0,8.5,0,17.1,0s8.5,0,17.1,0c8.5,0,8.5,0,17.1,0s8.5,0,17.1,0c8.5,0,8.5,0,17.1,0s8.5,0,17.1,0
	c8.5,0,8.5,0,17.1,0s8.5,0,17.1,0c8.5,0,8.5,0,17.1,0s8.5,0,17.1,0c8.5,0,8.5,0,17.1,0l0,0c-8.5,0-8.5,0-17.1,0c-8.5,0-8.5,0-17.1,0
	s-8.5,0-17.1,0c-8.5,0-8.5,0-17.1,0s-8.5,0-17.1,0c-8.5,0-8.5,0-17.1,0s-8.5,0-17.1,0c-8.5,0-8.5,0-17.1,0s-8.5,0-17.1,0
	c-8.5,0-8.5,0-17.1,0s-8.5,0-17.1,0c-8.5,0-8.5,0-17.1,0c-8.5,0-8.5,0-17.1,0s-8.5,0-17.1,0c-8.5,0-8.5,0-17.1,0s-8.5,0-17.1,0
	s-8.5,0-17.1,0c-8.5,0-8.5,0-17.1,0c-8.5,0-8.5,0-17.1,0c-8.5,0-8.5,0-17.1,0c-8.5,0-8.5,0-17.1,0c-8.5,0-8.5,0-17.1,0
	c-8.5,0-8.5,0-17.1,0s-8.5,0-17.1,0c-8.5,0-8.5,0-17.1,0c-8.5,0-8.5,0-17.1,0c-8.5,0-8.5,0-17.1,0c-8.5,0-8.5,0-17.1,0
	c-8.5,0-8.5,0-17.1,0c-8.5,0-8.5,0-17.1,0c-8.5,0-8.5,0-17.1,0c-8.5,0-8.5,0-17.1,0s-8.5,0-17.1,0s-8.5,0-17.1,0s-8.5,0-17.1,0
	s-8.5,0-17.1,0s-8.5-3.8-17.1-3.8s-8.5-10.2-17.1-10.2s-8.5-9.8-17.1-9.8c-8.5,0-8.5-4.8-17.1-4.8s-8.5-8.8-17.1-8.8
	s-8.5,1.8-17.1,1.8s-8.5,5.9-17.1,5.9s-8.5,3.2-17.1,3.2s-8.5-0.6-17.1-0.6s-8.5,1.6-17.1,1.6v-4.2H10z"/>
<path class="st6" d="M10,550.3c8.5,0,8.5-1.7,17.1-1.7s8.5,0.3,17.1,0.3s8.5-4.8,17.1-4.8s8.4-10.1,17-10.1s8.5-8.6,17.1-8.6
	s8.5,3.9,17.1,3.9s8.5-0.9,17.1-0.9c8.5,0,8.5,2.8,17.1,2.8s8.5-6.4,17.1-6.4s8.5-11.2,17.1-11.2s8.5-26.7,17.1-26.7s8.5-2,17.1-2
	s8.5-1.5,17.1-1.5s8.5-19.8,17.1-19.8s8.5-16.1,17.1-16.1c8.5,0,8.5-13.9,17.1-13.9c8.5,0,8.5-2,17.1-2c8.5,0,8.5,28.1,17.1,28.1
	c8.5,0,8.5-6.1,17.1-6.1c8.5,0,8.5,7.3,17.1,7.3c8.5,0,8.5-0.4,17.1-0.4c8.5,0,8.5,23.3,17.1,23.3c8.5,0,8.5,16.3,17.1,16.3
	s8.5,19.7,17.1,19.7c8.5,0,8.5,8.4,17.1,8.4c8.5,0,8.5,13.2,17.1,13.2c8.5,0,8.5,16.9,17.1,16.9c8.5,0,8.5,9,17.1,9
	c8.5,0,8.5,3.9,17.1,3.9c8.5,0,8.5,3.9,17.1,3.9s8.5,3.4,17.1,3.4s8.5,0.8,17.1,0.8c8.5,0,8.5,0.5,17.1,0.5s8.5,0.1,17.1,0.1
	c8.5,0,8.5,0.1,17.1,0.1c8.5,0,8.5,0,17.1,0s8.5,0,17.1,0c8.5,0,8.5,0,17.1,0s8.5,0,17.1,0c8.5,0,8.5,0,17.1,0s8.5,0,17.1,0
	c8.5,0,8.5,0,17.1,0s8.5,0,17.1,0c8.5,0,8.5,0,17.1,0s8.5,0,17.1,0c8.5,0,8.5,0,17.1,0l0,0c-8.5,0-8.5,0-17.1,0c-8.5,0-8.5,0-17.1,0
	s-8.5,0-17.1,0c-8.5,0-8.5,0-17.1,0s-8.5,0-17.1,0c-8.5,0-8.5,0-17.1,0s-8.5,0-17.1,0c-8.5,0-8.5,0-17.1,0s-8.5,0-17.1,0
	c-8.5,0-8.5,0-17.1,0s-8.5,0-17.1,0c-8.5,0-8.5-0.1-17.1-0.1c-8.5,0-8.5-0.1-17.1-0.1s-8.5-0.5-17.1-0.5c-8.5,0-8.5-0.8-17.1-0.8
	s-8.5-3.4-17.1-3.4s-8.5-3.9-17.1-3.9c-8.5,0-8.5-3.9-17.1-3.9c-8.5,0-8.5-8.7-17.1-8.7c-8.5,0-8.5-13.3-17.1-13.3
	c-8.5,0-8.5-9.8-17.1-9.8c-8.5,0-8.5-3.9-17.1-3.9c-8.5,0-8.5-14.8-17.1-14.8s-8.5-13.2-17.1-13.2c-8.5,0-8.5-20.4-17.1-20.4
	c-8.5,0-8.5,1.7-17.1,1.7c-8.5,0-8.5-7.5-17.1-7.5c-8.5,0-8.5,1.8-17.1,1.8c-8.5,0-8.5-23-17.1-23c-8.5,0-8.5-1.1-17.1-1.1
	c-8.5,0-8.5-1.1-17.1-1.1c-8.5,0-8.5,11.2-17.1,11.2s-8.5,18.3-17.1,18.3s-8.5,1.5-17.1,1.5s-8.5,2-17.1,2s-8.5,26.7-17.1,26.7
	s-8.5,11.2-17.1,11.2s-8.5,6.4-17.1,6.4s-8.5-2.8-17.1-2.8c-8.5,0-8.5,0.9-17.1,0.9s-8.5-3.9-17.1-3.9s-8.5,8.6-17.1,8.6
	s-8.5,10.2-17.1,10.2s-8.5,4.8-17.1,4.8s-8.5-0.3-17.1-0.3S18.5,550.3,10,550.3z"/>
<path class="st7" d="M10,550.3c8.5,0,8.5-1.7,17.1-1.7s8.5,0.3,17.1,0.3s8.5-4.8,17.1-4.8s8.4-10.1,17-10.1s8.5-8.6,17.1-8.6
	s8.5,3.9,17.1,3.9s8.5-0.9,17.1-0.9c8.5,0,8.5,2.8,17.1,2.8s8.5-6.4,17.1-6.4s8.5-11.4,17.1-11.4s8.5-28.1,17.1-28.1
	s8.5-6.7,17.1-6.7s8.5-10,17.1-10s8.5-33.5,17.1-33.5s8.5-29.9,17.1-29.9c8.5,0,8.5-29.6,17.1-29.6c8.5,0,8.5-24.5,17.1-24.5
	c8.5,0,8.5,13.7,17.1,13.7c8.5,0,8.5-27.4,17.1-27.4c8.5,0,8.5-17.5,17.1-17.5c8.5,0,8.5-47.5,17.1-47.5c8.5,0,8.5,2.9,17.1,2.9
	c8.5,0,8.5-5.5,17.1-5.5s8.5,20.4,17.1,20.4c8.5,0,8.5-14.9,17.1-14.9c8.5,0,8.5-12.5,17.1-12.5c8.5,0,8.5,22,17.1,22
	c8.5,0,8.5,30.7,17.1,30.7c8.5,0,8.5,29.5,17.1,29.5c8.5,0,8.5,18.9,17.1,18.9s8.5-1.1,17.1-1.1s8.5,18.1,17.1,18.1
	c8.5,0,8.5,24.8,17.1,24.8s8.5,33.4,17.1,33.4c8.5,0,8.5,37.4,17.1,37.4c8.5,0,8.5,20.1,17.1,20.1s8.5,12.2,17.1,12.2
	c8.5,0,8.5,3.3,17.1,3.3s8.5,12,17.1,12c8.5,0,8.5,6.9,17.1,6.9s8.5,9.7,17.1,9.7c8.5,0,8.5,6.2,17.1,6.2s8.5,5.6,17.1,5.6
	c8.5,0,8.5,2.8,17.1,2.8s8.5,10,17.1,10c8.5,0,8.5,1.5,17.1,1.5l0,0c-8.5,0-8.5-1.5-17.1-1.5c-8.5,0-8.5-10-17.1-10
	s-8.5-2.8-17.1-2.8c-8.5,0-8.5-5.5-17.1-5.5s-8.5-6-17.1-6c-8.5,0-8.5-9.8-17.1-9.8s-8.5-6.8-17.1-6.8c-8.5,0-8.5-11.9-17.1-11.9
	s-8.5-3.4-17.1-3.4c-8.5,0-8.5-12.2-17.1-12.2s-8.5-20.1-17.1-20.1c-8.5,0-8.5-36.8-17.1-36.8c-8.5,0-8.5-33.7-17.1-33.7
	s-8.5-24.5-17.1-24.5c-8.5,0-8.5-18-17.1-18s-8.5,2.5-17.1,2.5s-8.5-19.9-17.1-19.9c-8.5,0-8.5-25.9-17.1-25.9
	c-8.5,0-8.5-26-17.1-26c-8.5,0-8.5-15.9-17.1-15.9c-8.5,0-8.5,12.5-17.1,12.5c-8.5,0-8.5,17.9-17.1,17.9c-8.5,0-8.5-26.9-17.1-26.9
	s-8.5-0.6-17.1-0.6c-8.5,0-8.5-6.3-17.1-6.3c-8.5,0-8.5,47.1-17.1,47.1c-8.5,0-8.5,17.4-17.1,17.4c-8.5,0-8.5,26.9-17.1,26.9
	c-8.5,0-8.5-15-17.1-15c-8.5,0-8.5,24.2-17.1,24.2c-8.5,0-8.5,30-17.1,30c-8.5,0-8.5,29.4-17.1,29.4s-8.5,33.5-17.1,33.5
	s-8.5,10-17.1,10s-8.5,6.7-17.1,6.7s-8.5,28.1-17.1,28.1s-8.5,11.4-17.1,11.4s-8.5,6.4-17.1,6.4s-8.5-2.8-17.1-2.8
	c-8.5,0-8.5,0.9-17.1,0.9s-8.5-3.9-17.1-3.9s-8.5,8.6-17.1,8.6s-8.5,10.2-17.1,10.2s-8.5,4.8-17.1,4.8s-8.5-0.3-17.1-0.3
	S18.5,550.3,10,550.3z"/>
<path class="st8" d="M10,550.3c8.5,0,8.5-1.7,17.1-1.7s8.5,0.3,17.1,0.3s8.5-4.8,17.1-4.8s8.4-10.1,17-10.1s8.5-8.6,17.1-8.6
	s8.5,3.9,17.1,3.9s8.5-0.9,17.1-0.9c8.5,0,8.5,2.8,17.1,2.8s8.5-6.4,17.1-6.4s8.5-11.4,17.1-11.4s8.5-28.1,17.1-28.1
	s8.5-6.7,17.1-6.7s8.5-10,17.1-10s8.5-33.5,17.1-33.5s8.5-29.9,17.1-29.9c8.5,0,8.5-29.6,17.1-29.6c8.5,0,8.5-24.5,17.1-24.5
	c8.5,0,8.5,13.7,17.1,13.7c8.5,0,8.5-27.4,17.1-27.4c8.5,0,8.5-17.5,17.1-17.5c8.5,0,8.5-47.5,17.1-47.5c8.5,0,8.5,2.9,17.1,2.9
	c8.5,0,8.5-5.5,17.1-5.5s8.5,20.4,17.1,20.4c8.5,0,8.5-14.9,17.1-14.9c8.5,0,8.5-12.5,17.1-12.5c8.5,0,8.5,22,17.1,22
	c8.5,0,8.5,30.7,17.1,30.7c8.5,0,8.5,29.5,17.1,29.5c8.5,0,8.5,18.9,17.1,18.9s8.5-2.4,17.1-2.4s8.5,15,17.1,15
	c8.5,0,8.5,18.6,17.1,18.6s8.5,26,17.1,26c8.5,0,8.5,31.7,17.1,31.7c8.5,0,8.5,17.1,17.1,17.1s8.5,9.6,17.1,9.6
	c8.5,0,8.5-1.1,17.1-1.1s8.5,10,17.1,10c8.5,0,8.5,7.2,17.1,7.2s8.5,11.2,17.1,11.2c8.5,0,8.5,9.3,17.1,9.3s8.5,11.9,17.1,11.9
	c8.5,0,8.5,8.2,17.1,8.2s8.5,14.8,17.1,14.8c8.5,0,8.5,4.2,17.1,4.2v0.3c-8.5,0-8.5-4.2-17.1-4.2c-8.5,0-8.5-14.7-17.1-14.7
	s-8.5-8-17.1-8c-8.5,0-8.5-11.6-17.1-11.6s-8.5-8.3-17.1-8.3c-8.5,0-8.5-10.8-17.1-10.8s-8.5-6.6-17.1-6.6c-8.5,0-8.5-8.4-17.1-8.4
	s-8.5,1.7-17.1,1.7c-8.5,0-8.5-9-17.1-9s-8.5-17-17.1-17c-8.5,0-8.5-33.5-17.1-33.5c-8.5,0-8.5-27.2-17.1-27.2s-8.5-20.9-17.1-20.9
	c-8.5,0-8.5-15.6-17.1-15.6s-8.5,2.4-17.1,2.4s-8.5-18.9-17.1-18.9c-8.5,0-8.5-29.5-17.1-29.5c-8.5,0-8.5-30.7-17.1-30.7
	c-8.5,0-8.5-22-17.1-22c-8.5,0-8.5,12.5-17.1,12.5c-8.5,0-8.5,14.9-17.1,14.9c-8.5,0-8.5-20.4-17.1-20.4s-8.5,5.5-17.1,5.5
	c-8.5,0-8.5-2.9-17.1-2.9c-8.5,0-8.5,47.5-17.1,47.5c-8.5,0-8.5,17.5-17.1,17.5c-8.5,0-8.5,27.4-17.1,27.4
	c-8.5,0-8.5-13.7-17.1-13.7c-8.5,0-8.5,24.5-17.1,24.5c-8.5,0-8.5,29.6-17.1,29.6c-8.5,0-8.5,29.9-17.1,29.9s-8.5,33.5-17.1,33.5
	s-8.5,10-17.1,10s-8.5,6.7-17.1,6.7s-8.5,28.1-17.1,28.1s-8.5,11.4-17.1,11.4s-8.5,6.4-17.1,6.4s-8.5-2.8-17.1-2.8
	c-8.5,0-8.5,0.9-17.1,0.9s-8.5-3.9-17.1-3.9s-8.5,8.6-17.1,8.6s-8.5,10.2-17.1,10.2s-8.5,4.8-17.1,4.8s-8.5-0.3-17.1-0.3
	S18.5,550.3,10,550.3z"/>
<path class="st9" d="M10,550.3c8.5,0,8.5-1.7,17.1-1.7s8.5,0.3,17.1,0.3s8.5-4.8,17.1-4.8s8.4-10.1,17-10.1s8.5-8.6,17.1-8.6
	s8.5,3.9,17.1,3.9s8.5-0.9,17.1-0.9c8.5,0,8.5,2.8,17.1,2.8s8.5-6.4,17.1-6.4s8.5-11.4,17.1-11.4s8.5-28.1,17.1-28.1
	s8.5-6.7,17.1-6.7s8.5-10,17.1-10s8.5-33.5,17.1-33.5s8.5-29.9,17.1-29.9c8.5,0,8.5-29.6,17.1-29.6c8.5,0,8.5-24.5,17.1-24.5
	c8.5,0,8.5,13.7,17.1,13.7c8.5,0,8.5-27.4,17.1-27.4c8.5,0,8.5-17.5,17.1-17.5c8.5,0,8.5-47.5,17.1-47.5c8.5,0,8.5,2.9,17.1,2.9
	c8.5,0,8.5-5.5,17.1-5.5s8.5,20.4,17.1,20.4c8.5,0,8.5-14.9,17.1-14.9c8.5,0,8.5-12.5,17.1-12.5c8.5,0,8.5,22,17.1,22
	c8.5,0,8.5,30.7,17.1,30.7c8.5,0,8.5,29.4,17.1,29.4c8.5,0,8.5,18.9,17.1,18.9s8.5-41.4,17.1-41.4s8.5-48.7,17.1-48.7
	c8.5,0,8.5-42.7,17.1-42.7s8.5-39.3,17.1-39.3c8.5,0,8.5-30.8,17.1-30.8c8.5,0,8.5-5.8,17.1-5.8s8.5-5.2,17.1-5.2
	c8.5,0,8.5-44.5,17.1-44.5s8.5-9.7,17.1-9.7c8.5,0,8.5,26.8,17.1,26.8s8.5,61.2,17.1,61.2c8.5,0,8.5,56.3,17.1,56.3
	s8.5,80.1,17.1,80.1c8.5,0,8.5,61.3,17.1,61.3s8.5,57.8,17.1,57.8c8.5,0,8.5,22.3,17.1,22.3l0,0c-8.5,0-8.5-22.3-17.1-22.3
	c-8.5,0-8.5-57.8-17.1-57.8s-8.5-61.3-17.1-61.3c-8.5,0-8.5-80-17.1-80s-8.5-56.4-17.1-56.4c-8.5,0-8.5-61.2-17.1-61.2
	s-8.5-26.8-17.1-26.8c-8.5,0-8.5,9.7-17.1,9.7s-8.5,44.5-17.1,44.5c-8.5,0-8.5,5.2-17.1,5.2s-8.5,5.8-17.1,5.8
	c-8.5,0-8.5,30.9-17.1,30.9c-8.5,0-8.5,39.2-17.1,39.2s-8.5,42.8-17.1,42.8c-8.5,0-8.5,48.7-17.1,48.7s-9.5,41.5-18,41.5
	s-8.5-18.9-17.1-18.9c-8.5,0-8.5-29.5-17.1-29.5c-8.5,0-8.5-30.7-17.1-30.7c-8.5,0-8.5-22-17.1-22c-8.5,0-8.5,12.5-17.1,12.5
	c-8.5,0-8.5,14.9-17.1,14.9c-8.5,0-8.5-20.4-17.1-20.4s-8.5,5.5-17.1,5.5c-8.5,0-8.5-2.9-17.1-2.9c-8.5,0-8.5,47.5-17.1,47.5
	c-8.5,0-8.5,17.5-17.1,17.5c-8.5,0-8.5,27.4-17.1,27.4c-8.5,0-8.5-13.7-17.1-13.7c-8.5,0-8.5,24.5-17.1,24.5
	c-8.5,0-8.5,29.6-17.1,29.6c-8.5,0-8.5,29.9-17.1,29.9s-8.5,33.5-17.1,33.5s-8.5,10-17.1,10s-8.5,6.7-17.1,6.7s-8.5,28.1-17.1,28.1
	s-8.5,11.4-17.1,11.4s-8.5,6.4-17.1,6.4s-8.5-2.8-17.1-2.8c-8.5,0-8.5,0.9-17.1,0.9s-8.5-3.9-17.1-3.9s-8.5,8.6-17.1,8.6
	s-8.5,10.2-17.1,10.2s-8.5,4.8-17.1,4.8s-8.5-0.3-17.1-0.3S18.5,550.3,10,550.3z"/>
<path class="st10" d="M10,550.3c8.5,0,8.5-1.7,17.1-1.7s8.5,0.3,17.1,0.3s8.5-4.8,17.1-4.8s8.4-10.1,17-10.1s8.5-8.6,17.1-8.6
	s8.5,3.9,17.1,3.9s8.5-0.9,17.1-0.9c8.5,0,8.5,2.8,17.1,2.8s8.5-6.4,17.1-6.4s8.5-11.4,17.1-11.4s8.5-28.1,17.1-28.1
	s8.5-6.7,17.1-6.7s8.5-10,17.1-10s8.5-33.5,17.1-33.5s8.5-29.9,17.1-29.9c8.5,0,8.5-29.6,17.1-29.6c8.5,0,8.5-24.5,17.1-24.5
	c8.5,0,8.5,13.7,17.1,13.7c8.5,0,8.5-27.4,17.1-27.4c8.5,0,8.5-17.5,17.1-17.5c8.5,0,8.5-47.5,17.1-47.5c8.5,0,8.5,2.9,17.1,2.9
	c8.5,0,8.5-5.5,17.1-5.5s8.5,20.4,17.1,20.4c8.5,0,8.5-14.9,17.1-14.9c8.5,0,8.5-12.5,17.1-12.5c8.5,0,8.5,22,17.1,22
	c8.5,0,8.5,30.7,17.1,30.7c8.5,0,8.5,29.4,17.1,29.4c8.5,0,8.5,18.9,17.1,18.9s8.5-41.4,17.1-41.4s8.5-48.9,17.1-48.9
	c8.5,0,8.5-42.9,17.1-42.9s8.5-39.4,17.1-39.4c8.5,0,8.5-30.8,17.1-30.8c8.5,0,8.5-5.8,17.1-5.8s8.5-5.2,17.1-5.2
	c8.5,0,8.5-44.4,17.1-44.4s8.5-9.9,17.1-9.9c8.5,0,8.5,26.3,17.1,26.3s8.5,61.8,17.1,61.8c8.5,0,8.5,56.2,17.1,56.2
	s8.5,80.2,17.1,80.2c8.5,0,8.5,61.4,17.1,61.4s8.5,57.9,17.1,57.9c8.5,0,8.5,22.4,17.1,22.4v0.3c-8.5,0-8.5-22.3-17.1-22.3
	c-8.5,0-8.5-57.8-17.1-57.8s-8.5-61.3-17.1-61.3c-8.5,0-8.5-80.1-17.1-80.1s-8.5-56.3-17.1-56.3c-8.5,0-8.5-61.2-17.1-61.2
	s-8.5-26.8-17.1-26.8c-8.5,0-8.5,9.7-17.1,9.7s-8.5,44.5-17.1,44.5c-8.5,0-8.5,5.2-17.1,5.2s-8.5,5.8-17.1,5.8
	c-8.5,0-8.5,30.8-17.1,30.8c-8.5,0-8.5,39.3-17.1,39.3s-8.5,42.7-17.1,42.7c-8.5,0-8.5,48.7-17.1,48.7s-8.5,41.4-17.1,41.4
	s-8.5-18.9-17.1-18.9c-8.5,0-8.5-29.4-17.1-29.4c-8.5,0-8.5-30.7-17.1-30.7c-8.5,0-8.5-22-17.1-22c-8.5,0-8.5,12.5-17.1,12.5
	c-8.5,0-8.5,14.9-17.1,14.9c-8.5,0-8.5-20.4-17.1-20.4s-8.5,5.5-17.1,5.5c-8.5,0-8.5-2.9-17.1-2.9c-8.5,0-8.5,47.5-17.1,47.5
	c-8.5,0-8.5,17.5-17.1,17.5c-8.5,0-8.5,27.4-17.1,27.4c-8.5,0-8.5-13.7-17.1-13.7c-8.5,0-8.5,24.5-17.1,24.5
	c-8.5,0-8.5,29.6-17.1,29.6c-8.5,0-8.5,29.9-17.1,29.9s-8.5,33.5-17.1,33.5s-8.5,10-17.1,10s-8.5,6.7-17.1,6.7s-8.5,28.1-17.1,28.1
	s-8.5,11.4-17.1,11.4s-8.5,6.4-17.1,6.4s-8.5-2.8-17.1-2.8c-8.5,0-8.5,0.9-17.1,0.9s-8.5-3.9-17.1-3.9s-8.5,8.6-17.1,8.6
	s-8.5,10.2-17.1,10.2s-8.5,4.8-17.1,4.8s-8.5-0.3-17.1-0.3S18.5,550.3,10,550.3z"/>
<path class="st11" d="M10,550.3c8.5,0,8.5-1.7,17.1-1.7s8.5,0.3,17.1,0.3s8.5-4.8,17.1-4.8s8.4-10.1,17-10.1s8.5-8.6,17.1-8.6
	s8.5,3.9,17.1,3.9s8.5-0.9,17.1-0.9c8.5,0,8.5,2.8,17.1,2.8s8.5-6.4,17.1-6.4s8.5-11.4,17.1-11.4s8.5-28.1,17.1-28.1
	s8.5-6.7,17.1-6.7s8.5-10,17.1-10s8.5-33.5,17.1-33.5s8.5-29.9,17.1-29.9c8.5,0,8.5-29.6,17.1-29.6c8.5,0,8.5-24.5,17.1-24.5
	c8.5,0,8.5,13.7,17.1,13.7c8.5,0,8.5-27.4,17.1-27.4c8.5,0,8.5-17.5,17.1-17.5c8.5,0,8.5-47.5,17.1-47.5c8.5,0,8.5,2.9,17.1,2.9
	c8.5,0,8.5-5.5,17.1-5.5s8.5,20.4,17.1,20.4c8.5,0,8.5-14.9,17.1-14.9c8.5,0,8.5-12.5,17.1-12.5c8.5,0,8.5,22,17.1,22
	c8.5,0,8.5,30.7,17.1,30.7c8.5,0,8.5,29.4,17.1,29.4c8.5,0,8.5,18.9,17.1,18.9s8.5-41.4,17.1-41.4s8.5-48.9,17.1-48.9
	c8.5,0,8.5-42.9,17.1-42.9s8.5-39.4,17.1-39.4c8.5,0,8.5-30.8,17.1-30.8c8.5,0,8.5-5.8,17.1-5.8s8.5-5.2,17.1-5.2
	c8.5,0,8.5-44.4,17.1-44.4s8.5-9.9,17.1-9.9c8.5,0,8.5,26.3,17.1,26.3s8.5,61.8,17.1,61.8c8.5,0,8.5,56.2,17.1,56.2
	s8.5,80.2,17.1,80.2c8.5,0,8.5,61.4,17.1,61.4s8.5,57.9,17.1,57.9c8.5,0,8.5,22.4,17.1,22.4l0,0c-8.5,0-8.5-22.4-17.1-22.4
	c-8.5,0-8.5-57.9-17.1-57.9s-8.5-61.4-17.1-61.4c-8.5,0-8.5-80.2-17.1-80.2s-8.5-56.2-17.1-56.2c-8.5,0-8.5-61.8-17.1-61.8
	s-8.5-26.3-17.1-26.3c-8.5,0-8.5,9.9-17.1,9.9s-8.5,44.4-17.1,44.4c-8.5,0-8.5,5.2-17.1,5.2s-8.5,5.8-17.1,5.8
	c-8.5,0-8.5,30.8-17.1,30.8c-8.5,0-8.5,39.4-17.1,39.4s-8.5,42.9-17.1,42.9c-8.5,0-8.5,48.9-17.1,48.9s-8.5,41.4-17.1,41.4
	s-8.5-18.9-17.1-18.9c-8.5,0-8.5-29.4-17.1-29.4c-8.5,0-8.5-30.7-17.1-30.7c-8.5,0-8.5-22-17.1-22c-8.5,0-8.5,12.5-17.1,12.5
	c-8.5,0-8.5,14.9-17.1,14.9c-8.5,0-8.5-20.4-17.1-20.4s-8.5,5.5-17.1,5.5c-8.5,0-8.5-2.9-17.1-2.9c-8.5,0-8.5,47.5-17.1,47.5
	c-8.5,0-8.5,17.5-17.1,17.5c-8.5,0-8.5,27.4-17.1,27.4c-8.5,0-8.5-13.7-17.1-13.7c-8.5,0-8.5,24.5-17.1,24.5
	c-8.5,0-8.5,29.6-17.1,29.6c-8.5,0-8.5,29.9-17.1,29.9s-8.5,33.5-17.1,33.5s-8.5,10-17.1,10s-8.5,6.7-17.1,6.7s-8.5,28.1-17.1,28.1
	s-8.5,11.4-17.1,11.4s-8.5,6.4-17.1,6.4s-8.5-2.8-17.1-2.8c-8.5,0-8.5,0.9-17.1,0.9s-8.5-3.9-17.1-3.9s-8.5,8.6-17.1,8.6
	s-8.5,10.2-17.1,10.2s-8.5,4.8-17.1,4.8s-8.5-0.3-17.1-0.3S18.5,550.3,10,550.3z"/>
<path class="st11" d="M10,471.9c8.5,0,8.5-0.6,17.1-0.6s8.5,5.7,17.1,5.7s8.5-9.3,17.1-9.3s8.5-30,17.1-30s8.5-7.8,17.1-7.8
	s8.5,18.3,17.1,18.3s8.5-5.9,17.1-5.9c8.5,0,8.5,6.4,17.1,6.4s8.5,8,17.1,8s8.5-1.8,17.1-1.8s8.5-26.7,17.1-26.7s8.5,3.8,17.1,3.8
	s8.5,1.7,17.1,1.7s8.5-28.4,17.1-28.4c8.6,0,8-20.3,16.6-20.3c8.5,0,8.5-20.7,17.1-20.7c8.5,0,8.5-19,17.1-19
	c8.5,0,8.5,16.5,17.1,16.5c8.5,0,8.5-27.1,17.1-27.1c8.5,0,8.5-18.1,17.1-18.1c8.5,0,8.5-47.7,17.1-47.7c8.5,0,8.5,2.4,17.1,2.4
	c8.5,0,8.5-6.9,17.1-6.9s8.5,19.9,17.1,19.9c8.5,0,8.5-17.5,17.1-17.5c8.5,0,8.5-10.3,17.1-10.3c8.5,0,8.5,22.7,17.1,22.7
	c8.5,0,8.5,30.8,17.1,30.8c8.5,0,8.5,30.4,17.1,30.4c8.5,0,8.5,17.5,17.1,17.5S531,313,539.6,313s8.5-49.1,17.1-49.1
	c8.5,0,8.5-39.9,17.1-39.9s8.5-40.7,17.1-40.7c8.5,0,8.5-27.2,17.1-27.2c8.5,0,8.5-5.5,17.1-5.5s8.5-4.7,17.1-4.7
	c8.5,0,8.5-44.4,17.1-44.4s8.5-9.8,17.1-9.8c8.5,0,8.5,25.9,17.1,25.9s8.5,61.7,17.1,61.7c8.5,0,8.5,55.5,17.1,55.5
	s8.5,80.1,17.1,80.1c8.5,0,8.5,61.4,17.1,61.4S770.4,434,779,434c8.5,0,8.5,21.7,17.1,21.7v0.4c-8.5,0-8.5-21.7-17.1-21.7
	c-8.5,0-8.5-57.6-17.1-57.6s-8.5-61.2-17.1-61.2c-8.5,0-8.5-79.9-17.1-79.9s-8.5-55.2-17.1-55.2c-8.5,0-8.5-61.5-17.1-61.5
	s-8.5-25.6-17.1-25.6c-8.5,0-8.5,10.3-17.1,10.3s-8.5,44.8-17.1,44.8c-8.5,0-8.5,5.4-17.1,5.4s-8.5,6-17.1,6
	c-8.5,0-8.5,31.2-17.1,31.2c-8.5,0-8.5,39.5-17.1,39.5s-8.5,42.9-17.1,42.9c-8.5,0-8.5,48.8-17.1,48.8s-8.5,41.3-17.1,41.3
	s-8.5-18.9-17.1-18.9c-8.5,0-8.5-29.6-17.1-29.6c-8.5,0-8.5-30.6-17.1-30.6c-8.5,0-8.5-22.2-17.1-22.2c-8.5,0-8.5,12.4-17.1,12.4
	c-8.5,0-8.5,15.1-17.1,15.1c-8.5,0-8.5-20.4-17.1-20.4s-8.5,5.7-17.1,5.7c-8.5,0-8.5-2.8-17.1-2.8c-8.5,0-8.5,47.7-17.1,47.7
	c-8.5,0-8.5,17.2-17.1,17.2c-8.5,0-8.5,26.7-17.1,26.7c-8.5,0-8.5-15.7-17.1-15.7c-8.5,0-8.5,18.1-17.1,18.1c-8.5,0-8.5,19-17.1,19
	c-8.5,0-8.5,20.2-17.1,20.2s-8.5,28.4-17.1,28.4s-8.5-1.7-17.1-1.7s-8.5-3.8-17.1-3.8s-8.5,26.7-17.1,26.7s-8.5,1.8-17.1,1.8
	s-8.5-8-17.1-8s-8.5-6.4-17.1-6.4c-8.5,0-8.5,5.9-17.1,5.9s-8.5-18.3-17.1-18.3s-8.5,7.8-17.1,7.8s-8.5,30-17.1,30
	s-8.5,9.3-17.1,9.3s-8.5-5.7-17.1-5.7S18.5,471.9,10,471.9z"/>
<path class="st11" d="M10,471.9c8.5,0,8.5-0.6,17.1-0.6s8.5,5.7,17.1,5.7s8.5-9.3,17.1-9.3s8.5-30,17.1-30s8.5-7.8,17.1-7.8
	s8.5,18.3,17.1,18.3s8.5-5.9,17.1-5.9c8.5,0,8.5,6.4,17.1,6.4s8.5,8,17.1,8s8.5-1.8,17.1-1.8s8.5-26.7,17.1-26.7s8.5,3.8,17.1,3.8
	s8.5,1.7,17.1,1.7s8.5-28.4,17.1-28.4c8.6,0,8-20.3,16.6-20.3c8.5,0,8.5-20.7,17.1-20.7c8.5,0,8.5-19,17.1-19
	c8.5,0,8.5,16.5,17.1,16.5c8.5,0,8.5-27.1,17.1-27.1c8.5,0,8.5-18.1,17.1-18.1c8.5,0,8.5-47.7,17.1-47.7c8.5,0,8.5,2.4,17.1,2.4
	c8.5,0,8.5-6.9,17.1-6.9s8.5,19.9,17.1,19.9c8.5,0,8.5-17.5,17.1-17.5c8.5,0,8.5-10.3,17.1-10.3c8.5,0,8.5,22.7,17.1,22.7
	c8.5,0,8.5,30.8,17.1,30.8c8.5,0,8.5,30.4,17.1,30.4c8.5,0,8.5,17.5,17.1,17.5S531,313,539.6,313s8.5-49.1,17.1-49.1
	c8.5,0,8.5-39.9,17.1-39.9s8.5-40.7,17.1-40.7c8.5,0,8.5-27.2,17.1-27.2c8.5,0,8.5-5.5,17.1-5.5s8.5-4.7,17.1-4.7
	c8.5,0,8.5-44.4,17.1-44.4s8.5-9.8,17.1-9.8c8.5,0,8.5,25.9,17.1,25.9s8.5,61.7,17.1,61.7c8.5,0,8.5,55.5,17.1,55.5
	s8.5,80.1,17.1,80.1c8.5,0,8.5,61.4,17.1,61.4S770.4,434,779,434c8.5,0,8.5,21.7,17.1,21.7l0,0c-8.5,0-8.5-21.7-17.1-21.7
	c-8.5,0-8.5-57.7-17.1-57.7s-8.5-61.4-17.1-61.4c-8.5,0-8.5-80.1-17.1-80.1s-8.5-55.5-17.1-55.5c-8.5,0-8.5-61.7-17.1-61.7
	s-8.5-25.9-17.1-25.9c-8.5,0-8.5,9.8-17.1,9.8s-8.5,44.4-17.1,44.4c-8.5,0-8.5,4.7-17.1,4.7s-8.5,5.5-17.1,5.5
	c-8.5,0-8.5,27.2-17.1,27.2c-8.5,0-8.5,40.7-17.1,40.7s-8.5,39.9-17.1,39.9c-8.5,0-8.5,49.1-17.1,49.1s-8.5,44.9-17.1,44.9
	s-8.5-17.5-17.1-17.5c-8.5,0-8.5-30.4-17.1-30.4c-8.5,0-8.5-30.8-17.1-30.8c-8.5,0-8.5-22.7-17.1-22.7c-8.5,0-8.5,10.3-17.1,10.3
	c-8.5,0-8.5,17.5-17.1,17.5c-8.5,0-8.5-19.9-17.1-19.9s-8.5,6.9-17.1,6.9c-8.5,0-8.5-2.4-17.1-2.4c-8.5,0-8.5,47.7-17.1,47.7
	c-8.5,0-8.5,18.1-17.1,18.1c-8.5,0-8.5,27.1-17.1,27.1c-8.5,0-8.5-16.5-17.1-16.5c-8.5,0-8.5,19-17.1,19c-8.5,0-8.5,20.7-17.1,20.7
	c-8.5,0-8.5,20.2-17.1,20.2s-8.5,28.4-17.1,28.4s-8.5-1.7-17.1-1.7s-8.5-3.8-17.1-3.8s-8.5,26.7-17.1,26.7s-8.5,1.8-17.1,1.8
	s-8.5-8-17.1-8s-8.5-6.4-17.1-6.4c-8.5,0-8.5,5.9-17.1,5.9s-8.5-18.3-17.1-18.3s-8.5,7.8-17.1,7.8s-8.5,30-17.1,30
	s-8.5,9.3-17.1,9.3s-8.5-5.7-17.1-5.7S18.5,471.9,10,471.9z"/>
<path class="st11" d="M10,471.9c8.5,0,8.5-0.6,17.1-0.6s8.5,5.7,17.1,5.7s8.5-9.3,17.1-9.3s8.5-30,17.1-30s8.5-7.8,17.1-7.8
	s8.5,18.3,17.1,18.3s8.5-5.9,17.1-5.9c8.5,0,8.5,6.4,17.1,6.4s8.5,8,17.1,8s8.5-1.8,17.1-1.8s8.5-26.7,17.1-26.7s8.5,3.8,17.1,3.8
	s8.5,1.7,17.1,1.7s8.5-28.4,17.1-28.4c8.6,0,8-20.3,16.6-20.3c8.5,0,8.5-20.7,17.1-20.7c8.5,0,8.5-19,17.1-19
	c8.5,0,8.5,16.5,17.1,16.5c8.5,0,8.5-27.1,17.1-27.1c8.5,0,8.5-18.1,17.1-18.1c8.5,0,8.5-47.7,17.1-47.7c8.5,0,8.5,2.4,17.1,2.4
	c8.5,0,8.5-6.9,17.1-6.9s8.5,19.9,17.1,19.9c8.5,0,8.5-17.5,17.1-17.5c8.5,0,8.5-10.3,17.1-10.3c8.5,0,8.5,22.7,17.1,22.7
	c8.5,0,8.5,30.8,17.1,30.8c8.5,0,8.5,30.4,17.1,30.4c8.5,0,8.5,17.5,17.1,17.5S531,313,539.6,313s8.5-49.1,17.1-49.1
	c8.5,0,8.5-39.9,17.1-39.9s8.5-40.7,17.1-40.7c8.5,0,8.5-27.2,17.1-27.2c8.5,0,8.5-5.5,17.1-5.5s8.5-4.7,17.1-4.7
	c8.5,0,8.5-44.4,17.1-44.4s8.5-9.8,17.1-9.8c8.5,0,8.5,25.9,17.1,25.9s8.5,61.7,17.1,61.7c8.5,0,8.5,55.5,17.1,55.5
	s8.5,80.1,17.1,80.1c8.5,0,8.5,61.4,17.1,61.4S770.4,434,779,434c8.5,0,8.5,21.7,17.1,21.7l0,0c-8.5,0-8.5-21.7-17.1-21.7
	c-8.5,0-8.5-57.7-17.1-57.7s-8.5-61.4-17.1-61.4c-8.5,0-8.5-80.1-17.1-80.1s-8.5-55.5-17.1-55.5c-8.5,0-8.5-61.7-17.1-61.7
	s-8.5-25.9-17.1-25.9c-8.5,0-8.5,9.8-17.1,9.8s-8.5,44.4-17.1,44.4c-8.5,0-8.5,4.7-17.1,4.7s-8.5,5.5-17.1,5.5
	c-8.5,0-8.5,27.2-17.1,27.2c-8.5,0-8.5,40.7-17.1,40.7s-8.5,39.9-17.1,39.9c-8.5,0-8.5,49.1-17.1,49.1s-8.5,44.9-17.1,44.9
	s-8.5-17.5-17.1-17.5c-8.5,0-8.5-30.4-17.1-30.4c-8.5,0-8.5-30.8-17.1-30.8c-8.5,0-8.5-22.7-17.1-22.7c-8.5,0-8.5,10.3-17.1,10.3
	c-8.5,0-8.5,17.5-17.1,17.5c-8.5,0-8.5-19.9-17.1-19.9s-8.5,6.9-17.1,6.9c-8.5,0-8.5-2.4-17.1-2.4c-8.5,0-8.5,47.7-17.1,47.7
	c-8.5,0-8.5,18.1-17.1,18.1c-8.5,0-8.5,27.1-17.1,27.1c-8.5,0-8.5-16.5-17.1-16.5c-8.5,0-8.5,19-17.1,19c-8.5,0-8.5,20.7-17.1,20.7
	c-8.5,0-8.5,20.2-17.1,20.2s-8.5,28.4-17.1,28.4s-8.5-1.7-17.1-1.7s-8.5-3.8-17.1-3.8s-8.5,26.7-17.1,26.7s-8.5,1.8-17.1,1.8
	s-8.5-8-17.1-8s-8.5-6.4-17.1-6.4c-8.5,0-8.5,5.9-17.1,5.9s-8.5-18.3-17.1-18.3s-8.5,7.8-17.1,7.8s-8.5,30-17.1,30
	s-8.5,9.3-17.1,9.3s-8.5-5.7-17.1-5.7S18.5,471.9,10,471.9z"/>
<path class="st11" d="M10,471.9c8.5,0,8.5-0.6,17.1-0.6s8.5,5.7,17.1,5.7s8.5-9.3,17.1-9.3s8.5-30,17.1-30s8.5-7.8,17.1-7.8
	s8.5,18.3,17.1,18.3s8.5-5.9,17.1-5.9c8.5,0,8.5,6.4,17.1,6.4s8.5,8,17.1,8s8.5-1.8,17.1-1.8s8.5-26.7,17.1-26.7s8.5,3.8,17.1,3.8
	s8.5,1.7,17.1,1.7s8.5-28.4,17.1-28.4c8.6,0,8-20.3,16.6-20.3c8.5,0,8.5-20.7,17.1-20.7c8.5,0,8.5-19,17.1-19
	c8.5,0,8.5,16.5,17.1,16.5c8.5,0,8.5-27.1,17.1-27.1c8.5,0,8.5-18.1,17.1-18.1c8.5,0,8.5-47.7,17.1-47.7c8.5,0,8.5,2.4,17.1,2.4
	c8.5,0,8.5-6.9,17.1-6.9s8.5,19.9,17.1,19.9c8.5,0,8.5-17.5,17.1-17.5c8.5,0,8.5-10.3,17.1-10.3c8.5,0,8.5,22.7,17.1,22.7
	c8.5,0,8.5,30.8,17.1,30.8c8.5,0,8.5,30.4,17.1,30.4c8.5,0,8.5,17.5,17.1,17.5S531,313,539.6,313s8.5-49.1,17.1-49.1
	c8.5,0,8.5-39.9,17.1-39.9s8.5-40.7,17.1-40.7c8.5,0,8.5-27.2,17.1-27.2c8.5,0,8.5-5.5,17.1-5.5s8.5-4.7,17.1-4.7
	c8.5,0,8.5-44.4,17.1-44.4s8.5-9.8,17.1-9.8c8.5,0,8.5,25.9,17.1,25.9s8.5,61.7,17.1,61.7c8.5,0,8.5,55.5,17.1,55.5
	s8.5,80.1,17.1,80.1c8.5,0,8.5,61.4,17.1,61.4S770.4,434,779,434c8.5,0,8.5,21.7,17.1,21.7l0,0c-8.5,0-8.5-21.7-17.1-21.7
	c-8.5,0-8.5-57.7-17.1-57.7s-8.5-61.4-17.1-61.4c-8.5,0-8.5-80.1-17.1-80.1s-8.5-55.5-17.1-55.5c-8.5,0-8.5-61.7-17.1-61.7
	s-8.5-25.9-17.1-25.9c-8.5,0-8.5,9.8-17.1,9.8s-8.5,44.4-17.1,44.4c-8.5,0-8.5,4.7-17.1,4.7s-8.5,5.5-17.1,5.5
	c-8.5,0-8.5,27.2-17.1,27.2c-8.5,0-8.5,40.7-17.1,40.7s-8.5,39.9-17.1,39.9c-8.5,0-8.5,49.1-17.1,49.1s-8.5,44.9-17.1,44.9
	s-8.5-17.5-17.1-17.5c-8.5,0-8.5-30.4-17.1-30.4c-8.5,0-8.5-30.8-17.1-30.8c-8.5,0-8.5-22.7-17.1-22.7c-8.5,0-8.5,10.3-17.1,10.3
	c-8.5,0-8.5,17.5-17.1,17.5c-8.5,0-8.5-19.9-17.1-19.9s-8.5,6.9-17.1,6.9c-8.5,0-8.5-2.4-17.1-2.4c-8.5,0-8.5,47.7-17.1,47.7
	c-8.5,0-8.5,18.1-17.1,18.1c-8.5,0-8.5,27.1-17.1,27.1c-8.5,0-8.5-16.5-17.1-16.5c-8.5,0-8.5,19-17.1,19c-8.5,0-8.5,20.7-17.1,20.7
	c-8.5,0-8.5,20.2-17.1,20.2s-8.5,28.4-17.1,28.4s-8.5-1.7-17.1-1.7s-8.5-3.8-17.1-3.8s-8.5,26.7-17.1,26.7s-8.5,1.8-17.1,1.8
	s-8.5-8-17.1-8s-8.5-6.4-17.1-6.4c-8.5,0-8.5,5.9-17.1,5.9s-8.5-18.3-17.1-18.3s-8.5,7.8-17.1,7.8s-8.5,30-17.1,30
	s-8.5,9.3-17.1,9.3s-8.5-5.7-17.1-5.7S18.5,471.9,10,471.9z"/>
<path class="st11" d="M10,471.3c8.5,0,8.5-0.5,17.1-0.5s8.5,5.8,17.1,5.8s8.5-9,17.1-9s8.5-29.8,17.1-29.8s8.5-7.8,17.1-7.8
	s8.5,18.3,17.1,18.3s8.5-5.9,17.1-5.9c8.5,0,8.5,6.4,17.1,6.4s8.5,8,17.1,8s8.5-1.8,17.1-1.8s8.5-26.7,17.1-26.7s8.5,3.8,17.1,3.8
	s8.5,1.7,17.1,1.7s8.5-28.4,17.1-28.4c8.6,0,8-20.4,16.6-20.4c8.5,0,8.5-20.7,17.1-20.7c8.5,0,8.5-19,17.1-19
	c8.5,0,8.5,16.5,17.1,16.5c8.5,0,8.5-27.1,17.1-27.1c8.5,0,8.5-18.1,17.1-18.1c8.5,0,8.5-47.7,17.1-47.7c8.5,0,8.5,2.4,17.1,2.4
	c8.5,0,8.5-6.9,17.1-6.9s8.5,19.9,17.1,19.9c8.5,0,8.5-17.5,17.1-17.5c8.5,0,8.5-10.3,17.1-10.3c8.5,0,8.5,22.7,17.1,22.7
	c8.5,0,8.5,30.8,17.1,30.8c8.5,0,8.5,30.4,17.1,30.4c8.5,0,8.5,17.5,17.1,17.5S531,313,539.6,313s8.5-49.1,17.1-49.1
	c8.5,0,8.5-39.9,17.1-39.9s8.5-40.7,17.1-40.7c8.5,0,8.5-27.2,17.1-27.2c8.5,0,8.5-5.5,17.1-5.5s8.5-4.7,17.1-4.7
	c8.5,0,8.5-44.4,17.1-44.4s8.5-9.8,17.1-9.8c8.5,0,8.5,25.9,17.1,25.9s8.5,61.7,17.1,61.7c8.5,0,8.5,55.5,17.1,55.5
	s8.5,80.1,17.1,80.1c8.5,0,8.5,61.4,17.1,61.4S770.4,434,779,434c8.5,0,8.5,21.7,17.1,21.7l0,0c-8.5,0-8.5-21.7-17.1-21.7
	c-8.5,0-8.5-57.7-17.1-57.7s-8.5-61.4-17.1-61.4c-8.5,0-8.5-80.1-17.1-80.1s-8.5-55.5-17.1-55.5c-8.5,0-8.5-61.7-17.1-61.7
	s-8.5-25.9-17.1-25.9c-8.5,0-8.5,9.8-17.1,9.8s-8.5,44.4-17.1,44.4c-8.5,0-8.5,4.7-17.1,4.7s-8.5,5.5-17.1,5.5
	c-8.5,0-8.5,27.2-17.1,27.2c-8.5,0-8.5,40.7-17.1,40.7s-8.5,39.9-17.1,39.9c-8.5,0-8.5,49.1-17.1,49.1s-8.5,44.9-17.1,44.9
	s-8.5-17.5-17.1-17.5c-8.5,0-8.5-30.4-17.1-30.4c-8.5,0-8.5-30.8-17.1-30.8c-8.5,0-8.5-22.7-17.1-22.7c-8.5,0-8.5,10.3-17.1,10.3
	c-8.5,0-8.5,17.5-17.1,17.5c-8.5,0-8.5-19.9-17.1-19.9s-8.5,6.9-17.1,6.9c-8.5,0-8.5-2.4-17.1-2.4c-8.5,0-8.5,47.7-17.1,47.7
	c-8.5,0-8.5,18.1-17.1,18.1c-8.5,0-8.5,27.1-17.1,27.1c-8.5,0-8.5-16.5-17.1-16.5c-8.5,0-8.5,19-17.1,19c-8.5,0-8.5,20.7-17.1,20.7
	c-8.5,0-8.5,20.2-17.1,20.2s-8.5,28.4-17.1,28.4s-8.5-1.7-17.1-1.7s-8.5-3.8-17.1-3.8s-8.5,26.7-17.1,26.7s-8.5,1.8-17.1,1.8
	s-8.5-8-17.1-8s-8.5-6.4-17.1-6.4c-8.5,0-8.5,5.9-17.1,5.9s-8.5-18.3-17.1-18.3s-8.5,7.8-17.1,7.8s-8.5,30-17.1,30
	s-8.5,9.3-17.1,9.3s-8.5-5.7-17.1-5.7s-8.5,0.6-17.1,0.6v-0.5H10z"/>
<path class="st11" d="M10,471.3c8.5,0,8.5-0.5,17.1-0.5s8.5,5.8,17.1,5.8s8.5-9,17.1-9s8.5-29.8,17.1-29.8s8.5-7.8,17.1-7.8
	s8.5,18.3,17.1,18.3s8.5-5.9,17.1-5.9c8.5,0,8.5,6.4,17.1,6.4s8.5,8,17.1,8s8.5-1.8,17.1-1.8s8.5-26.7,17.1-26.7s8.5,3.8,17.1,3.8
	s8.5,1.7,17.1,1.7s8.5-28.4,17.1-28.4c8.6,0,8-20.4,16.6-20.4c8.5,0,8.5-20.7,17.1-20.7c8.5,0,8.5-19,17.1-19
	c8.5,0,8.5,16.5,17.1,16.5c8.5,0,8.5-27.1,17.1-27.1c8.5,0,8.5-18.1,17.1-18.1c8.5,0,8.5-47.7,17.1-47.7c8.5,0,8.5,2.4,17.1,2.4
	c8.5,0,8.5-6.9,17.1-6.9s8.5,19.9,17.1,19.9c8.5,0,8.5-17.5,17.1-17.5c8.5,0,8.5-10.3,17.1-10.3c8.5,0,8.5,22.7,17.1,22.7
	c8.5,0,8.5,30.8,17.1,30.8c8.5,0,8.5,30.4,17.1,30.4c8.5,0,8.5,17.5,17.1,17.5S531,313,539.6,313s8.5-49.1,17.1-49.1
	c8.5,0,8.5-39.9,17.1-39.9s8.5-40.7,17.1-40.7c8.5,0,8.5-27.2,17.1-27.2c8.5,0,8.5-5.5,17.1-5.5s8.5-4.7,17.1-4.7
	c8.5,0,8.5-44.4,17.1-44.4s8.5-9.8,17.1-9.8c8.5,0,8.5,25.9,17.1,25.9s8.5,61.7,17.1,61.7c8.5,0,8.5,55.5,17.1,55.5
	s8.5,80.1,17.1,80.1c8.5,0,8.5,61.4,17.1,61.4S770.4,434,779,434c8.5,0,8.5,21.7,17.1,21.7l0,0c-8.5,0-8.5-21.7-17.1-21.7
	c-8.5,0-8.5-57.7-17.1-57.7s-8.5-61.4-17.1-61.4c-8.5,0-8.5-80.1-17.1-80.1s-8.5-55.5-17.1-55.5c-8.5,0-8.5-61.7-17.1-61.7
	s-8.5-25.9-17.1-25.9c-8.5,0-8.5,9.8-17.1,9.8s-8.5,44.4-17.1,44.4c-8.5,0-8.5,4.7-17.1,4.7s-8.5,5.5-17.1,5.5
	c-8.5,0-8.5,27.2-17.1,27.2c-8.5,0-8.5,40.7-17.1,40.7s-8.5,39.9-17.1,39.9c-8.5,0-8.5,49.1-17.1,49.1s-8.5,44.9-17.1,44.9
	s-8.5-17.5-17.1-17.5c-8.5,0-8.5-30.4-17.1-30.4c-8.5,0-8.5-30.8-17.1-30.8c-8.5,0-8.5-22.7-17.1-22.7c-8.5,0-8.5,10.3-17.1,10.3
	c-8.5,0-8.5,17.5-17.1,17.5c-8.5,0-8.5-19.9-17.1-19.9s-8.5,6.9-17.1,6.9c-8.5,0-8.5-2.4-17.1-2.4c-8.5,0-8.5,47.7-17.1,47.7
	c-8.5,0-8.5,18.1-17.1,18.1c-8.5,0-8.5,27.1-17.1,27.1c-8.5,0-8.5-16.5-17.1-16.5c-8.5,0-8.5,19-17.1,19c-8.5,0-8.5,20.7-17.1,20.7
	c-8.5,0-8.5,20.2-17.1,20.2s-8.5,28.4-17.1,28.4s-8.5-1.7-17.1-1.7s-8.5-3.8-17.1-3.8s-8.5,26.7-17.1,26.7s-8.5,1.8-17.1,1.8
	s-8.5-8-17.1-8s-8.5-6.4-17.1-6.4c-8.5,0-8.5,5.9-17.1,5.9s-8.5-18.3-17.1-18.3s-8.5,7.8-17.1,7.8s-8.5,29.8-17.1,29.8
	s-8.5,9-17.1,9s-8.5-5.8-17.1-5.8S18.5,471.3,10,471.3z"/>
<path class="st11" d="M10,471.3c8.5,0,8.5-0.5,17.1-0.5s8.5,5.8,17.1,5.8s8.5-9,17.1-9s8.5-29.8,17.1-29.8s8.5-7.8,17.1-7.8
	s8.5,18.3,17.1,18.3s8.5-5.9,17.1-5.9c8.5,0,8.5,6.4,17.1,6.4s8.5,8,17.1,8s8.5-1.8,17.1-1.8s8.5-26.7,17.1-26.7s8.5,3.8,17.1,3.8
	s8.5,1.7,17.1,1.7s8.5-28.4,17.1-28.4c8.6,0,8-20.4,16.6-20.4c8.5,0,8.5-20.7,17.1-20.7c8.5,0,8.5-19,17.1-19
	c8.5,0,8.5,16.5,17.1,16.5c8.5,0,8.5-27.1,17.1-27.1c8.5,0,8.5-18.1,17.1-18.1c8.5,0,8.5-47.7,17.1-47.7c8.5,0,8.5,2.4,17.1,2.4
	c8.5,0,8.5-6.9,17.1-6.9s8.5,19.9,17.1,19.9c8.5,0,8.5-17.5,17.1-17.5c8.5,0,8.5-10.3,17.1-10.3c8.5,0,8.5,22.7,17.1,22.7
	c8.5,0,8.5,30.8,17.1,30.8c8.5,0,8.5,30.4,17.1,30.4c8.5,0,8.5,17.1,17.1,17.1s8.5-44.8,17.1-44.8s8.5-96.6,17.1-96.6
	c8.5,0,8.5-80.4,17.1-80.4s8.5-73.9,17.1-73.9c8.5,0,8.5-19.1,17.1-19.1c8.5,0,8.5,25.5,17.1,25.5S632.9,93,641.4,93
	s8.5-23.9,17.1-23.9s8.5,6.1,17.1,6.1c8.5,0,8.5,31.4,17.1,31.4s8.5,65.3,17.1,65.3c8.5,0,8.5,56.8,17.1,56.8s8.5,79.9,17.1,79.9
	c8.5,0,8.5,63.7,17.1,63.7s8.5,58.9,17.1,58.9c8.5,0,8.5,22.1,17.1,22.1l0,0c-8.5,0-8.5-22.1-17.1-22.1c-8.5,0-8.5-58.9-17.1-58.9
	s-8.5-63.7-17.1-63.7c-8.5,0-8.5-79.9-17.1-79.9s-8.5-56.8-17.1-56.8c-8.5,0-8.5-65.3-17.1-65.3s-8.5-31.4-17.1-31.4
	c-8.5,0-8.5-6.1-17.1-6.1S649.9,93,641.4,93s-8.5-24.9-17.1-24.9s-8.5-25.5-17.1-25.5c-8.5,0-8.5,19.2-17.1,19.2
	c-8.5,0-8.5,73.9-17.1,73.9s-8.5,80.5-17.1,80.5c-8.5,0-8.5,96.7-17.1,96.7s-8.5,44.9-17.1,44.9s-8.5-17.5-17.1-17.5
	c-8.5,0-8.5-30.4-17.1-30.4c-8.5,0-8.5-30.8-17.1-30.8c-8.5,0-8.5-22.7-17.1-22.7c-8.5,0-8.5,10.3-17.1,10.3
	c-8.5,0-8.5,17.5-17.1,17.5c-8.5,0-8.5-19.9-17.1-19.9s-8.5,6.9-17.1,6.9c-8.5,0-8.5-2.4-17.1-2.4c-8.5,0-8.5,47.7-17.1,47.7
	c-8.5,0-8.5,18.1-17.1,18.1c-8.5,0-8.5,27.1-17.1,27.1c-8.5,0-8.5-16.5-17.1-16.5c-8.5,0-8.5,19-17.1,19c-8.5,0-8.5,20.7-17.1,20.7
	c-8.5,0-8.5,20.2-17.1,20.2s-8.5,28.4-17.1,28.4s-8.5-1.7-17.1-1.7s-8.5-3.8-17.1-3.8s-8.5,26.7-17.1,26.7s-8.5,1.8-17.1,1.8
	s-8.5-8-17.1-8s-8.5-6.4-17.1-6.4c-8.5,0-8.5,5.9-17.1,5.9s-8.5-18.3-17.1-18.3s-8.5,7.8-17.1,7.8s-8.5,29.8-17.1,29.8
	s-8.5,9-17.1,9s-8.5-5.8-17.1-5.8S18.5,471.3,10,471.3z"/>
<path class="st11" d="M10,471.3c8.5,0,8.5-0.5,17.1-0.5s8.5,5.8,17.1,5.8s8.5-9,17.1-9s8.5-29.8,17.1-29.8s8.5-7.8,17.1-7.8
	s8.5,18.3,17.1,18.3s8.5-5.9,17.1-5.9c8.5,0,8.5,6.4,17.1,6.4s8.5,8,17.1,8s8.5-1.8,17.1-1.8s8.5-26.7,17.1-26.7s8.5,3.8,17.1,3.8
	s8.5,1.7,17.1,1.7s8.5-28.4,17.1-28.4c8.6,0,8-20.4,16.6-20.4c8.5,0,8.5-20.7,17.1-20.7c8.5,0,8.5-19,17.1-19
	c8.5,0,8.5,16.5,17.1,16.5c8.5,0,8.5-27.1,17.1-27.1c8.5,0,8.5-18.1,17.1-18.1c8.5,0,8.5-47.7,17.1-47.7c8.5,0,8.5,2.4,17.1,2.4
	c8.5,0,8.5-6.9,17.1-6.9s8.5,19.9,17.1,19.9c8.5,0,8.5-17.5,17.1-17.5c8.5,0,8.5-10.3,17.1-10.3c8.5,0,8.5,22.7,17.1,22.7
	c8.5,0,8.5,30.8,17.1,30.8c8.5,0,8.5,30.4,17.1,30.4c8.5,0,8.5,17.1,17.1,17.1s8.5-44.8,17.1-44.8s8.5-96.6,17.1-96.6
	c8.5,0,8.5-80.4,17.1-80.4s8.5-73.9,17.1-73.9c8.5,0,8.5-19.1,17.1-19.1c8.5,0,8.5,25.5,17.1,25.5S632.9,93,641.4,93
	s8.5-23.9,17.1-23.9s8.5,6.1,17.1,6.1c8.5,0,8.5,31.4,17.1,31.4s8.5,65.3,17.1,65.3c8.5,0,8.5,56.8,17.1,56.8s8.5,79.9,17.1,79.9
	c8.5,0,8.5,63.7,17.1,63.7s8.5,58.9,17.1,58.9c8.5,0,8.5,22.1,17.1,22.1l0,0c-8.5,0-8.5-22.1-17.1-22.1c-8.5,0-8.5-58.9-17.1-58.9
	s-8.5-63.7-17.1-63.7c-8.5,0-8.5-79.9-17.1-79.9s-8.5-56.8-17.1-56.8c-8.5,0-8.5-65.3-17.1-65.3s-8.5-31.4-17.1-31.4
	c-8.5,0-8.5-6.1-17.1-6.1S649.9,93,641.4,93s-8.5-24.9-17.1-24.9s-8.5-25.5-17.1-25.5c-8.5,0-8.5,19.1-17.1,19.1
	c-8.5,0-8.5,73.9-17.1,73.9s-8.5,80.4-17.1,80.4c-8.5,0-8.5,96.6-17.1,96.6s-8.5,44.8-17.1,44.8s-8.5-17.1-17.1-17.1
	c-8.5,0-8.5-30.4-17.1-30.4c-8.5,0-8.5-30.8-17.1-30.8c-8.5,0-8.5-22.7-17.1-22.7c-8.5,0-8.5,10.3-17.1,10.3
	c-8.5,0-8.5,17.5-17.1,17.5c-8.5,0-8.5-19.9-17.1-19.9s-8.5,6.9-17.1,6.9c-8.5,0-8.5-2.4-17.1-2.4c-8.5,0-8.5,47.7-17.1,47.7
	c-8.5,0-8.5,18.1-17.1,18.1c-8.5,0-8.5,27.1-17.1,27.1c-8.5,0-8.5-16.5-17.1-16.5c-8.5,0-8.5,19-17.1,19c-8.5,0-8.5,20.7-17.1,20.7
	c-8.5,0-8.5,20.2-17.1,20.2s-8.5,28.4-17.1,28.4s-8.5-1.7-17.1-1.7s-8.5-3.8-17.1-3.8s-8.5,26.7-17.1,26.7s-8.5,1.8-17.1,1.8
	s-8.5-8-17.1-8s-8.5-6.4-17.1-6.4c-8.5,0-8.5,5.9-17.1,5.9s-8.5-18.3-17.1-18.3s-8.5,7.8-17.1,7.8s-8.5,29.8-17.1,29.8
	s-8.5,9-17.1,9s-8.5-5.8-17.1-5.8S18.5,471.3,10,471.3z"/>
<path class="st11" d="M10,471.3c8.5,0,8.5-0.5,17.1-0.5s8.5,5.8,17.1,5.8s8.5-9,17.1-9s8.5-29.8,17.1-29.8s8.5-7.8,17.1-7.8
	s8.5,18.3,17.1,18.3s8.5-5.9,17.1-5.9c8.5,0,8.5,6.4,17.1,6.4s8.5,8,17.1,8s8.5-1.8,17.1-1.8s8.5-26.7,17.1-26.7s8.5,3.8,17.1,3.8
	s8.5,1.7,17.1,1.7s8.5-28.4,17.1-28.4c8.6,0,8-20.4,16.6-20.4c8.5,0,8.5-20.7,17.1-20.7c8.5,0,8.5-19,17.1-19
	c8.5,0,8.5,16.5,17.1,16.5c8.5,0,8.5-27.1,17.1-27.1c8.5,0,8.5-18.1,17.1-18.1c8.5,0,8.5-47.7,17.1-47.7c8.5,0,8.5,2.4,17.1,2.4
	c8.5,0,8.5-6.9,17.1-6.9s8.5,19.9,17.1,19.9c8.5,0,8.5-17.5,17.1-17.5c8.5,0,8.5-10.3,17.1-10.3c8.5,0,8.5,22.7,17.1,22.7
	c8.5,0,8.5,30.8,17.1,30.8c8.5,0,8.5,30.4,17.1,30.4c8.5,0,8.5,17.1,17.1,17.1s8.5-44.8,17.1-44.8s8.5-96.6,17.1-96.6
	c8.5,0,8.5-80.4,17.1-80.4s8.5-73.9,17.1-73.9c8.5,0,8.5-19.1,17.1-19.1c8.5,0,8.5,25.5,17.1,25.5S632.9,93,641.4,93
	s8.5-23.9,17.1-23.9s8.5,6.1,17.1,6.1c8.5,0,8.5,31.4,17.1,31.4s8.5,65.3,17.1,65.3c8.5,0,8.5,56.8,17.1,56.8s8.5,79.9,17.1,79.9
	c8.5,0,8.5,63.7,17.1,63.7s8.5,58.9,17.1,58.9c8.5,0,8.5,22.1,17.1,22.1l0,0c-8.5,0-8.5-22.1-17.1-22.1c-8.5,0-8.5-58.9-17.1-58.9
	s-8.5-63.7-17.1-63.7c-8.5,0-8.5-79.9-17.1-79.9s-8.5-56.8-17.1-56.8c-8.5,0-8.5-65.3-17.1-65.3s-8.5-31.4-17.1-31.4
	c-8.5,0-8.5-6.1-17.1-6.1S649.9,93,641.4,93s-8.5-24.9-17.1-24.9s-8.5-25.5-17.1-25.5c-8.5,0-8.5,19.1-17.1,19.1
	c-8.5,0-8.5,73.9-17.1,73.9s-8.5,80.4-17.1,80.4c-8.5,0-8.5,96.6-17.1,96.6s-8.5,44.8-17.1,44.8s-8.5-17.1-17.1-17.1
	c-8.5,0-8.5-30.4-17.1-30.4c-8.5,0-8.5-30.8-17.1-30.8c-8.5,0-8.5-22.7-17.1-22.7c-8.5,0-8.5,10.3-17.1,10.3
	c-8.5,0-8.5,17.5-17.1,17.5c-8.5,0-8.5-19.9-17.1-19.9s-8.5,6.9-17.1,6.9c-8.5,0-8.5-2.4-17.1-2.4c-8.5,0-8.5,47.7-17.1,47.7
	c-8.5,0-8.5,18.1-17.1,18.1c-8.5,0-8.5,27.1-17.1,27.1c-8.5,0-8.5-16.5-17.1-16.5c-8.5,0-8.5,19-17.1,19c-8.5,0-8.5,20.7-17.1,20.7
	c-8.5,0-8.5,20.2-17.1,20.2s-8.5,28.4-17.1,28.4s-8.5-1.7-17.1-1.7s-8.5-3.8-17.1-3.8s-8.5,26.7-17.1,26.7s-8.5,1.8-17.1,1.8
	s-8.5-8-17.1-8s-8.5-6.4-17.1-6.4c-8.5,0-8.5,5.9-17.1,5.9s-8.5-18.3-17.1-18.3s-8.5,7.8-17.1,7.8s-8.5,29.8-17.1,29.8
	s-8.5,9-17.1,9s-8.5-5.8-17.1-5.8S18.5,471.3,10,471.3z"/>
<path class="st12" d="M10,580h785"/>
<line class="st12" x1="44.1" y1="580" x2="44.1" y2="586"/>
<text transform="matrix(1 0 0 1 31.6182 596.1)" class="st13 st14">1,975</text>
<line class="st12" x1="129.5" y1="580" x2="129.5" y2="586"/>
<text transform="matrix(1 0 0 1 116.9443 596.1)" class="st13 st14">1,980</text>
<line class="st12" x1="214.8" y1="580" x2="214.8" y2="586"/>
<text transform="matrix(1 0 0 1 202.2704 596.1)" class="st13 st14">1,985</text>
<line class="st12" x1="300.1" y1="580" x2="300.1" y2="586"/>
<text transform="matrix(1 0 0 1 287.5965 596.1)" class="st13 st14">1,990</text>
<line class="st12" x1="385.4" y1="580" x2="385.4" y2="586"/>
<text transform="matrix(1 0 0 1 372.9226 596.1)" class="st13 st14">1,995</text>
<line class="st12" x1="470.8" y1="580" x2="470.8" y2="586"/>
<text transform="matrix(1 0 0 1 458.2487 596.1)" class="st13 st14">2,000</text>
<line class="st12" x1="556.1" y1="580" x2="556.1" y2="586"/>
<text transform="matrix(1 0 0 1 543.5747 596.1)" class="st13 st14">2,005</text>
<line class="st12" x1="641.4" y1="580" x2="641.4" y2="586"/>
<text transform="matrix(1 0 0 1 628.9009 596.1)" class="st13 st14">2,010</text>
<line class="st12" x1="726.7" y1="580" x2="726.7" y2="586"/>
<text transform="matrix(1 0 0 1 714.2269 596.1)" class="st13 st14">2,015</text>
<text transform="matrix(1 0 0 1 769.6406 576)" class="st15 st16 st17">Year</text>
<text transform="matrix(1 0 0 1 75.0356 561.296)" class="st16 st14">8 - Track</text>
<text transform="matrix(1 0 0 1 245.1335 516.986)" class="st16 st14">Cassette</text>
<text transform="matrix(1 0 0 1 262.8724 443.948)" class="st16 st14">Cassette Single</text>
<text transform="matrix(1 0 0 1 463.5392 426.406)" class="st16 st14">CD</text>
<text transform="matrix(1 0 0 1 395.9519 299.65)" class="st16 st14">CD Single</text>
<text transform="matrix(1 0 0 1 651.9641 514.6447)" class="st16 st14">Download Album</text>
<text transform="matrix(1 0 0 1 552.9247 455.904)" class="st16 st14">Download Music Video</text>
<text transform="matrix(1 0 0 1 635.2651 292.212)" class="st16 st14">Download Single</text>
<text transform="matrix(1 0 0 1 530.1641 273.862)" class="st16 st14">DVD Audio</text>
<text transform="matrix(1 0 0 1 678.9929 122.0652)" class="st16 st14">Kiosk</text>
<text transform="matrix(1 0 0 1 63.8126 485.864)" class="st16 st14">LP/EP</text>
<text transform="matrix(1 0 0 1 501.9951 239.584)" class="st16 st14">Music Video (Physical)</text>
<text transform="matrix(1 0 0 1 10 471.612)" class="st16 st14">Other Tapes</text>
<text transform="matrix(1 0 0 1 534.0992 122.536)" class="st16 st14">Ringtones &amp; Ringbacks</text>
<text transform="matrix(1 0 0 1 507.7891 357.694)" class="st16 st14">SACD</text>
<text transform="matrix(1 0 0 1 10 439.384)" class="st16 st14">Vinyl Single</text>
</svg>
