<?xml version="1.0" encoding="utf-8"?>
<!-- Generator: Adobe Illustrator 28.3.0, SVG Export Plug-In . SVG Version: 6.00 Build 0)  -->
<svg version="1.1" xmlns="http://www.w3.org/2000/svg" xmlns:xlink="http://www.w3.org/1999/xlink" x="0px" y="0px"
	 viewBox="0 0 805 600" style="enable-background:new 0 0 805 600;" xml:space="preserve">
<style type="text/css">
	.st0{fill:#FFFFFF;}
	.st1{fill:#CDA2CB;}
	.st2{fill:#E51941;}
	.st3{fill:#7F7F7F;}
	.st4{fill:#8C564B;}
	.st5{fill:#17BECF;}
	.st6{fill:#CCCCCC;}
	.st7{fill:none;stroke:#000000;}
	.st8{font-family:'Helvetica';}
	.st9{font-size:10px;}
	.st10{fill:#7B7B7B;}
	.st11{font-family:'Arial-BoldMT';}
	.st12{font-size:12px;}
</style>
<g id="Calque_1">
	<rect id="background" y="0" class="st0" width="805" height="600"/>
	<path class="st1" d="M10,562.9c8.5,0,8.5-2.1,17.1-2.1s8.5-1.2,17.1-1.2s8.5-3.3,17.1-3.3s8.5-4.6,17.1-4.6s8.5-4.8,17.1-4.8
		s8.5,9.2,17.1,9.2s8.5,5.5,17.1,5.5c8.5,0,8.5,7.5,17.1,7.5s8.5,8.7,17.1,8.7s8.5,2.3,17.1,2.3s8.5,0,17.1,0s8.5,0,17.1,0
		s8.5,0,17.1,0s8.5,0,17.1,0s8.5,0,17.1,0c8.5,0,8.5,0,17.1,0c8.5,0,8.5,0,17.1,0c8.5,0,8.5,0,17.1,0c8.5,0,8.5,0,17.1,0
		c8.5,0,8.5,0,17.1,0c8.5,0,8.5,0,17.1,0c8.5,0,8.5,0,17.1,0c8.5,0,8.5,0,17.1,0s8.5,0,17.1,0c8.5,0,8.5,0,17.1,0
		c8.5,0,8.5,0,17.1,0c8.5,0,8.5,0,17.1,0c8.5,0,8.5,0,17.1,0c8.5,0,8.5,0,17.1,0c8.5,0,8.5,0,17.1,0s8.5,0,17.1,0s8.5,0,17.1,0
		c8.5,0,8.5,0,17.1,0s8.5,0,17.1,0c8.5,0,8.5,0,17.1,0c8.5,0,8.5,0,17.1,0s8.5,0,17.1,0c8.5,0,8.5,0,17.1,0s8.5,0,17.1,0
		c8.5,0,8.5,0,17.1,0s8.5,0,17.1,0c8.5,0,8.5,0,17.1,0s8.5,0,17.1,0c8.5,0,8.5,0,17.1,0s8.5,0,17.1,0c8.5,0,8.5,0,17.1,0l0,0
		c-8.5,0-8.5,0-17.1,0c-8.5,0-8.5,0-17.1,0s-8.5,0-17.1,0c-8.5,0-8.5,0-17.1,0s-8.5,0-17.1,0c-8.5,0-8.5,0-17.1,0s-8.5,0-17.1,0
		c-8.5,0-8.5,0-17.1,0s-8.5,0-17.1,0c-8.5,0-8.5,0-17.1,0s-8.5,0-17.1,0c-8.5,0-8.5,0-17.1,0c-8.5,0-8.5,0-17.1,0s-8.5,0-17.1,0
		c-8.5,0-8.5,0-17.1,0s-8.5,0-17.1,0s-8.5,0-17.1,0c-8.5,0-8.5,0-17.1,0c-8.5,0-8.5,0-17.1,0c-8.5,0-8.5,0-17.1,0
		c-8.5,0-8.5,0-17.1,0c-8.5,0-8.5,0-17.1,0c-8.5,0-8.5,0-17.1,0s-8.5,0-17.1,0c-8.5,0-8.5,0-17.1,0c-8.5,0-8.5,0-17.1,0
		c-8.5,0-8.5,0-17.1,0c-8.5,0-8.5,0-17.1,0c-8.5,0-8.5,0-17.1,0c-8.5,0-8.5,0-17.1,0c-8.5,0-8.5,0-17.1,0c-8.5,0-8.5,0-17.1,0
		s-8.5,0-17.1,0s-8.5,0-17.1,0s-8.5,0-17.1,0s-8.5,0-17.1,0s-8.5-1-17.1-1s-8.5,1-17.1,1s-8.5,0-17.1,0c-8.5,0-8.5,0-17.1,0
		s-8.5,0-17.1,0s-8.5,0-17.1,0s-8.5,0-17.1,0s-8.5,0-17.1,0s-8.5,0-17.1,0s-8.5,0-17.1,0V562.9z"/>
	<path class="st1" d="M10,559.2c8.5,0,8.5-2.5,17.1-2.5s8.5-1.6,17.1-1.6s8.5-5,17.1-5s8.5-8.3,17.1-8.3s8.5-11.8,17.1-11.8
		s8.5,4.7,17.1,4.7s8.5,1.2,17.1,1.2c8.5,0,8.5-5,17.1-5s8.5-2.6,17.1-2.6s8.5-11.7,17.1-11.7s8.5-20.1,17.1-20.1s8.5-1,17.1-1
		s8.5-4.1,17.1-4.1s8.5-16.1,17.1-16.1s8.5-14.9,17.1-14.9c8.5,0,8.5,1.4,17.1,1.4c8.5,0,8.5-3.4,17.1-3.4c8.5,0,8.5,15.8,17.1,15.8
		c8.5,0,8.5-3.4,17.1-3.4c8.5,0,8.5,7,17.1,7c8.5,0,8.5-2.1,17.1-2.1c8.5,0,8.5,23.5,17.1,23.5c8.5,0,8.5,13.9,17.1,13.9
		s8.5,13.4,17.1,13.4c8.5,0,8.5,3.6,17.1,3.6c8.5,0,8.5,12.5,17.1,12.5c8.5,0,8.5,14.2,17.1,14.2c8.5,0,8.5,10.2,17.1,10.2
		c8.5,0,8.5,4.4,17.1,4.4c8.5,0,8.5,1.6,17.1,1.6s8.5,2,17.1,2s8.5,4.4,17.1,4.4c8.5,0,8.5,0.3,17.1,0.3s8.5,0,17.1,0
		c8.5,0,8.5-0.9,17.1-0.9c8.5,0,8.5,1,17.1,1s8.5,0,17.1,0c8.5,0,8.5,0,17.1,0s8.5,0,17.1,0c8.5,0,8.5,0,17.1,0s8.5,0,17.1,0
		c8.5,0,8.5,0,17.1,0s8.5,0,17.1,0c8.5,0,8.5,0,17.1,0s8.5,0,17.1,0c8.5,0,8.5,0,17.1,0l0,0c-8.5,0-8.5,0-17.1,0
		c-8.5,0-8.5,0-17.1,0s-8.5,0-17.1,0c-8.5,0-8.5,0-17.1,0s-8.5,0-17.1,0c-8.5,0-8.5,0-17.1,0s-8.5,0-17.1,0c-8.5,0-8.5,0-17.1,0
		s-8.5,0-17.1,0c-8.5,0-8.5,0-17.1,0s-8.5-1-17.1-1c-8.5,0-8.5,1-17.1,1c-8.5,0-8.5,0-17.1,0s-8.5,0-17.1,0c-8.5,0-8.5-4-17.1-4
		s-8.5,1-17.1,1s-8.5,2-17.1,2c-8.5,0-8.5,1-17.1,1c-8.5,0-8.5-1-17.1-1c-8.5,0-8.5,1-17.1,1c-8.5,0-8.5,0-17.1,0
		c-8.5,0-8.5,0-17.1,0c-8.5,0-8.5,0-17.1,0s-8.5,0-17.1,0c-8.5,0-8.5,0-17.1,0c-8.5,0-8.5,0-17.1,0c-8.5,0-8.5,0-17.1,0
		c-8.5,0-8.5,0-17.1,0c-8.5,0-8.5,0-17.1,0c-8.5,0-8.5-1-17.1-1c-8.5,0-8.5,0-17.1,0c-8.5,0-8.5,0-17.1,0s-8.5,0-17.1,0
		s-8.5,1-17.1,1s-8.5,0-17.1,0s-8.5,0-17.1,0s-8.5-3.3-17.1-3.3s-8.5-8.7-17.1-8.7s-8.5-7.5-17.1-7.5c-8.5,0-8.5-5.5-17.1-5.5
		s-8.5-9.2-17.1-9.2s-8.5,4.8-17.1,4.8s-8.5,4.6-17.1,4.6s-8.5,3.3-17.1,3.3s-8.5,1.2-17.1,1.2s-8.5,2.1-17.1,2.1V559.2z"/>
	<path class="st1" d="M10,580c8.5,0,8.5,0,17.1,0s8.5,0,17.1,0s8.5,0,17.1,0s8.5,0,17.1,0s8.5,0,17.1,0s8.5,0,17.1,0s8.5,0,17.1,0
		c8.5,0,8.5,0,17.1,0s8.5,0,17.1,0s8.5,0,17.1,0s8.5,0,17.1,0s8.5,0,17.1,0s8.5,0,17.1,0s8.5-106.1,17.1-106.1s8.5-16.4,17.1-16.4
		c8.5,0,8.5-3.4,17.1-3.4c8.5,0,8.5-5.6,17.1-5.6c8.5,0,8.5,16.8,17.1,16.8c8.5,0,8.5-5.8,17.1-5.8c8.5,0,8.5,7,17.1,7
		c8.5,0,8.5-1.3,17.1-1.3c8.5,0,8.5,24.9,17.1,24.9c8.5,0,8.5,15.6,17.1,15.6S411,521,419.6,521c8.5,0,8.5,5,17.1,5
		c8.5,0,8.5,14.2,17.1,14.2c8.5,0,8.5,15.8,17.1,15.8c8.5,0,8.5,24.1,17.1,24.1c8.5,0,8.5,0,17.1,0c8.5,0,8.5,0,17.1,0s8.5,0,17.1,0
		s8.5,0,17.1,0c8.5,0,8.5,0,17.1,0s8.5,0,17.1,0c8.5,0,8.5,0,17.1,0c8.5,0,8.5,0,17.1,0s8.5,0,17.1,0c8.5,0,8.5,0,17.1,0
		s8.5,0,17.1,0c8.5,0,8.5,0,17.1,0s8.5,0,17.1,0c8.5,0,8.5,0,17.1,0s8.5,0,17.1,0c8.5,0,8.5,0,17.1,0s8.5,0,17.1,0
		c8.5,0,8.5,0,17.1,0l0,0c-8.5,0-8.5,0-17.1,0c-8.5,0-8.5,0-17.1,0s-8.5,0-17.1,0c-8.5,0-8.5,0-17.1,0s-8.5,0-17.1,0
		c-8.5,0-8.5,0-17.1,0s-8.5,0-17.1,0c-8.5,0-8.5,0-17.1,0s-8.5,0-17.1,0c-8.5,0-8.5,0-17.1,0s-8.5,0-17.1,0c-8.5,0-8.5,0-17.1,0
		c-8.5,0-8.5,0-17.1,0s-8.5,0-17.1,0c-8.5,0-8.5,0-17.1,0s-8.5,0-17.1,0s-8.5,0-17.1,0c-8.5,0-8.5,0-17.1,0
		c-8.5,0-8.5-23.9-17.1-23.9c-8.5,0-8.5-14.2-17.1-14.2c-8.5,0-8.5-12.5-17.1-12.5c-8.5,0-8.5-3.6-17.1-3.6
		c-8.5,0-8.5-13.4-17.1-13.4s-8.5-13.9-17.1-13.9c-8.5,0-8.5-23.5-17.1-23.5c-8.5,0-8.5,2.1-17.1,2.1c-8.5,0-8.5-7-17.1-7
		c-8.5,0-8.5,3.4-17.1,3.4c-8.5,0-8.5-15.8-17.1-15.8c-8.5,0-8.5,3.4-17.1,3.4c-8.5,0-8.5-1.4-17.1-1.4c-8.5,0-8.5,14.9-17.1,14.9
		S240.4,580,231.8,580s-8.5,0-17.1,0s-8.5,0-17.1,0s-8.5,0-17.1,0s-8.5,0-17.1,0s-8.5,0-17.1,0s-8.5,0-17.1,0c-8.5,0-8.5,0-17.1,0
		s-8.5,0-17.1,0s-8.5,0-17.1,0s-8.5,0-17.1,0s-8.5,0-17.1,0s-8.5,0-17.1,0S18.5,580,10,580z"/>
	<path class="st2" d="M10,580c8.5,0,8.5,0,17.1,0s8.5,0,17.1,0s8.5,0,17.1,0s8.5,0,17.1,0s8.5,0,17.1,0s8.5,0,17.1,0s8.5,0,17.1,0
		c8.5,0,8.5,0,17.1,0s8.5,0,17.1,0s8.5-65,17.1-65s8.5-23.1,17.1-23.1s8.5-11,17.1-11s8.5-23,17.1-23s8.5-40.8,17.1-40.8
		s8.5-33.8,17.1-33.8c8.5,0,8.5-20.9,17.1-20.9c8.5,0,8.5-35.9,17.1-35.9c8.5,0,8.5-14.2,17.1-14.2c8.5,0,8.5-40.4,17.1-40.4
		c8.5,0,8.5-34.4,17.1-34.4c8.5,0,8.5-69.7,17.1-69.7c8.5,0,8.5-7.1,17.1-7.1c8.5,0,8.5-3.9,17.1-3.9s8.5,16,17.1,16
		c8.5,0,8.5-47.6,17.1-47.6c8.5,0,8.5-34.8,17.1-34.8c8.5,0,8.5,1.8,17.1,1.8c8.5,0,8.5,22,17.1,22c8.5,0,8.5,34.7,17.1,34.7
		c8.5,0,8.5,30,17.1,30s8.5-5.5,17.1-5.5s8.5,36.8,17.1,36.8c8.5,0,8.5,40.5,17.1,40.5s8.5,67.2,17.1,67.2c8.5,0,8.5,68.4,17.1,68.4
		c8.5,0,8.5,42.4,17.1,42.4s8.5,31.5,17.1,31.5c8.5,0,8.5,11.1,17.1,11.1S667,493,675.5,493c8.5,0,8.5,11.1,17.1,11.1
		s8.5,13.8,17.1,13.8c8.5,0,8.5,8.6,17.1,8.6s8.5,14,17.1,14c8.5,0,8.5,2.6,17.1,2.6s8.5,12.6,17.1,12.6c8.5,0,8.5,2.9,17.1,2.9V580
		c-8.5,0-8.5,0-17.1,0c-8.5,0-8.5,0-17.1,0s-8.5,0-17.1,0c-8.5,0-8.5-3-17.1-3s-8.5,3-17.1,3c-8.5,0-8.5-1-17.1-1s-8.5,1-17.1,1
		c-8.5,0-8.5,0-17.1,0s-8.5-1-17.1-1c-8.5,0-8.5,1-17.1,1s-8.5-2-17.1-2c-8.5,0-8.5,0.9-17.1,0.9c-8.5,0-8.5,0-17.1,0
		s-8.5-0.3-17.1-0.3c-8.5,0-8.5-4.4-17.1-4.4s-8.5-2-17.1-2s-8.5-1.6-17.1-1.6c-8.5,0-8.5-4.4-17.1-4.4c-8.5,0-8.5-11.4-17.1-11.4
		c-8.5,0-8.5-15.8-17.1-15.8c-8.5,0-8.5-14.2-17.1-14.2c-8.5,0-8.5-5-17.1-5c-8.5,0-8.5-15.3-17.1-15.3s-8.5-15.6-17.1-15.6
		c-8.5,0-8.5-24.9-17.1-24.9c-8.5,0-8.5,1.3-17.1,1.3c-8.5,0-8.5-7-17.1-7c-8.5,0-8.5,5.8-17.1,5.8c-8.5,0-8.5-16.8-17.1-16.8
		c-8.5,0-8.5,5.6-17.1,5.6c-8.5,0-8.5,3.4-17.1,3.4c-8.5,0-8.5,16.4-17.1,16.4s-8.5,17.6-17.1,17.6s-8.5,4.1-17.1,4.1s-8.5,1-17.1,1
		s-8.5,20.1-17.1,20.1s-8.5,64.4-17.1,64.4s-8.5,0-17.1,0s-8.5,0-17.1,0c-8.5,0-8.5,0-17.1,0s-8.5,0-17.1,0s-8.5,0-17.1,0
		s-8.5,0-17.1,0s-8.5,0-17.1,0s-8.5,0-17.1,0S18.5,580,10,580z"/>
	<path class="st2" d="M10,580c8.5,0,8.5,0,17.1,0s8.5,0,17.1,0s8.5,0,17.1,0s8.5,0,17.1,0s8.5,0,17.1,0s8.5,0,17.1,0s8.5,0,17.1,0
		c8.5,0,8.5,0,17.1,0s8.5-1,17.1-1s8.5,1,17.1,1s8.5,0,17.1,0s8.5,0,17.1,0s8.5-1,17.1-1s8.5,1,17.1,1s8.5-198,17.1-198
		c8.5,0,8.5,198,17.1,198c8.5,0,8.5-254.6,17.1-254.6c8.5,0,8.5-15.2,17.1-15.2c8.5,0,8.5-40.7,17.1-40.7c8.5,0,8.5-34.5,17.1-34.5
		c8.5,0,8.5-70,17.1-70c8.5,0,8.5-9,17.1-9c8.5,0,8.5-6.5,17.1-6.5s8.5,12.9,17.1,12.9c8.5,0,8.5-45.5,17.1-45.5
		c8.5,0,8.5-35.2,17.1-35.2c8.5,0,8.5,4.6,17.1,4.6c8.5,0,8.5,24.2,17.1,24.2c8.5,0,8.5,36.8,17.1,36.8c8.5,0,8.5,29.4,17.1,29.4
		s8.5-4.8,17.1-4.8s8.5,36.9,17.1,36.9c8.5,0,8.5,40.6,17.1,40.6s8.5,67.1,17.1,67.1c8.5,0,8.5,68.7,17.1,68.7
		c8.5,0,8.5,42.4,17.1,42.4s8.5,31.5,17.1,31.5c8.5,0,8.5,11.1,17.1,11.1s8.5,21.5,17.1,21.5c8.5,0,8.5,11.1,17.1,11.1
		s8.5,13.7,17.1,13.7c8.5,0,8.5,8.7,17.1,8.7s8.5,14,17.1,14c8.5,0,8.5,2.5,17.1,2.5s8.5,12.6,17.1,12.6c8.5,0,8.5,2.9,17.1,2.9v0
		c-8.5,0-8.5-2.9-17.1-2.9c-8.5,0-8.5-12.6-17.1-12.6s-8.5-2.6-17.1-2.6c-8.5,0-8.5-14-17.1-14s-8.5-8.6-17.1-8.6
		c-8.5,0-8.5-13.8-17.1-13.8s-8.5-11.1-17.1-11.1c-8.5,0-8.5-21.5-17.1-21.5s-8.5-11.1-17.1-11.1c-8.5,0-8.5-31.5-17.1-31.5
		s-8.5-42.4-17.1-42.4c-8.5,0-8.5-68.4-17.1-68.4c-8.5,0-8.5-67.2-17.1-67.2s-8.5-40.5-17.1-40.5c-8.5,0-8.5-36.8-17.1-36.8
		s-8.5,5.5-17.1,5.5s-8.5-30-17.1-30c-8.5,0-8.5-34.7-17.1-34.7c-8.5,0-8.5-22-17.1-22c-8.5,0-8.5-1.8-17.1-1.8
		c-8.5,0-8.5,34.8-17.1,34.8c-8.5,0-8.5,47.6-17.1,47.6c-8.5,0-8.5-16-17.1-16s-8.5,3.9-17.1,3.9c-8.5,0-8.5,7.1-17.1,7.1
		c-8.5,0-8.5,69.7-17.1,69.7c-8.5,0-8.5,34.4-17.1,34.4c-8.5,0-8.5,40.4-17.1,40.4c-8.5,0-8.5,14.2-17.1,14.2
		c-8.5,0-8.5,254.4-17.1,254.4c-8.5,0-8.5-197.6-17.1-197.6c-8.5,0-8.5,197.6-17.1,197.6s-8.5-1-17.1-1s-8.5,1-17.1,1s-8.5,0-17.1,0
		s-8.5,0-17.1,0s-8.5-1-17.1-1s-8.5,1-17.1,1s-8.5,0-17.1,0c-8.5,0-8.5,0-17.1,0s-8.5,0-17.1,0s-8.5,0-17.1,0s-8.5,0-17.1,0
		s-8.5,0-17.1,0s-8.5,0-17.1,0S18.5,580,10,580z"/>
	<path class="st2" d="M10,580c8.5,0,8.5,0,17.1,0s8.5,0,17.1,0s8.5,0,17.1,0s8.5,0,17.1,0s8.5,0,17.1,0s8.5,0,17.1,0s8.5,0,17.1,0
		c8.5,0,8.5,0,17.1,0s8.5-1,17.1-1s8.5,1,17.1,1s8.5,0,17.1,0s8.5,0,17.1,0s8.5-1,17.1-1s8.5,0,17.1,0s8.5,1,17.1,1
		c8.5,0,8.5-1,17.1-1c8.5,0,8.5,1,17.1,1c8.5,0,8.5,0,17.1,0c8.5,0,8.5,0,17.1,0c8.5,0,8.5,0,17.1,0c8.5,0,8.5,0,17.1,0
		c8.5,0,8.5,0,17.1,0c8.5,0,8.5,0,17.1,0s8.5,0,17.1,0c8.5,0,8.5,0,17.1,0c8.5,0,8.5,0,17.1,0c8.5,0,8.5,0,17.1,0
		c8.5,0,8.5,0,17.1,0c8.5,0,8.5,0,17.1,0c8.5,0,8.5,0,17.1,0s8.5-410.6,17.1-410.6s8.5,33.8,17.1,33.8c8.5,0,8.5,35.7,17.1,35.7
		s8.5,59.3,17.1,59.3c8.5,0,8.5,63.9,17.1,63.9c8.5,0,8.5,38.6,17.1,38.6s8.5,27.1,17.1,27.1c8.5,0,8.5,4.1,17.1,4.1
		s8.5,16.8,17.1,16.8c8.5,0,8.5,10.1,17.1,10.1s8.5,17.7,17.1,17.7c8.5,0,8.5,10.5,17.1,10.5s8.5,20.9,17.1,20.9
		c8.5,0,8.5,9.5,17.1,9.5s8.5,18.5,17.1,18.5c8.5,0,8.5,6.6,17.1,6.6v13.8c-8.5,0-8.5-2.9-17.1-2.9c-8.5,0-8.5-12.6-17.1-12.6
		s-8.5-2.5-17.1-2.5c-8.5,0-8.5-14-17.1-14s-8.5-8.7-17.1-8.7c-8.5,0-8.5-13.7-17.1-13.7s-8.5-11.1-17.1-11.1
		c-8.5,0-8.5-21.5-17.1-21.5s-8.5-11.1-17.1-11.1c-8.5,0-8.5-31.5-17.1-31.5s-8.5-42.4-17.1-42.4c-8.5,0-8.5-68.7-17.1-68.7
		c-8.5,0-8.5-67.1-17.1-67.1s-8.5-40.6-17.1-40.6c-8.5,0-8.5-36.9-17.1-36.9s-8.5,409-17.1,409s-8.5,0-17.1,0c-8.5,0-8.5,0-17.1,0
		c-8.5,0-8.5,0-17.1,0c-8.5,0-8.5,0-17.1,0c-8.5,0-8.5,0-17.1,0c-8.5,0-8.5,0-17.1,0c-8.5,0-8.5,0-17.1,0s-8.5,0-17.1,0
		c-8.5,0-8.5,0-17.1,0c-8.5,0-8.5,0-17.1,0c-8.5,0-8.5,0-17.1,0c-8.5,0-8.5,0-17.1,0c-8.5,0-8.5,0-17.1,0c-8.5,0-8.5-1-17.1-1
		c-8.5,0-8.5,1-17.1,1c-8.5,0-8.5-1-17.1-1s-8.5,0-17.1,0s-8.5,1-17.1,1s-8.5,0-17.1,0s-8.5,0-17.1,0s-8.5-1-17.1-1s-8.5,1-17.1,1
		s-8.5,0-17.1,0c-8.5,0-8.5,0-17.1,0s-8.5,0-17.1,0s-8.5,0-17.1,0s-8.5,0-17.1,0s-8.5,0-17.1,0s-8.5,0-17.1,0S18.5,580,10,580z"/>
	<path class="st3" d="M10,580c8.5,0,8.5,0,17.1,0s8.5,0,17.1,0s8.5,0,17.1,0s8.5,0,17.1,0s8.5,0,17.1,0s8.5,0,17.1,0s8.5,0,17.1,0
		c8.5,0,8.5,0,17.1,0s8.5-1,17.1-1s8.5,1,17.1,1s8.5,0,17.1,0s8.5,0,17.1,0s8.5-1,17.1-1s8.5,0,17.1,0s8.5,1,17.1,1
		c8.5,0,8.5-1,17.1-1c8.5,0,8.5,1,17.1,1c8.5,0,8.5,0,17.1,0c8.5,0,8.5,0,17.1,0c8.5,0,8.5,0,17.1,0c8.5,0,8.5,0,17.1,0
		c8.5,0,8.5,0,17.1,0c8.5,0,8.5,0,17.1,0s8.5,0,17.1,0c8.5,0,8.5,0,17.1,0c8.5,0,8.5,0,17.1,0c8.5,0,8.5,0,17.1,0
		c8.5,0,8.5,0,17.1,0c8.5,0,8.5,0,17.1,0c8.5,0,8.5-1,17.1-1s8.5,1,17.1,1s8.5-377.9,17.1-377.9c8.5,0,8.5,35.1,17.1,35.1
		s8.5,59,17.1,59c8.5,0,8.5,63.4,17.1,63.4c8.5,0,8.5,38.6,17.1,38.6s8.5,27.2,17.1,27.2c8.5,0,8.5,4.3,17.1,4.3S667,447,675.5,447
		c8.5,0,8.5,10.3,17.1,10.3s8.5,17.8,17.1,17.8c8.5,0,8.5,10.8,17.1,10.8s8.5,21,17.1,21c8.5,0,8.5,9.6,17.1,9.6s8.5,18.5,17.1,18.5
		c8.5,0,8.5,6.6,17.1,6.6v0.1c-8.5,0-8.5-6.6-17.1-6.6c-8.5,0-8.5-18.5-17.1-18.5s-8.5-9.5-17.1-9.5c-8.5,0-8.5-20.9-17.1-20.9
		s-8.5-10.5-17.1-10.5c-8.5,0-8.5-17.7-17.1-17.7s-8.5-10.1-17.1-10.1c-8.5,0-8.5-16.8-17.1-16.8s-8.5-4.1-17.1-4.1
		c-8.5,0-8.5-27.1-17.1-27.1s-8.5-38.6-17.1-38.6c-8.5,0-8.5-63.9-17.1-63.9c-8.5,0-8.5-59.3-17.1-59.3s-8.5-35.7-17.1-35.7
		c-8.5,0-8.5,377.8-17.1,377.8s-8.5-1-17.1-1s-8.5,1-17.1,1c-8.5,0-8.5,0-17.1,0c-8.5,0-8.5,0-17.1,0c-8.5,0-8.5,0-17.1,0
		c-8.5,0-8.5,0-17.1,0c-8.5,0-8.5,0-17.1,0c-8.5,0-8.5,0-17.1,0s-8.5,0-17.1,0c-8.5,0-8.5,0-17.1,0c-8.5,0-8.5,0-17.1,0
		c-8.5,0-8.5,0-17.1,0c-8.5,0-8.5,0-17.1,0c-8.5,0-8.5,0-17.1,0c-8.5,0-8.5-1-17.1-1c-8.5,0-8.5,1-17.1,1c-8.5,0-8.5-1-17.1-1
		s-8.5,0-17.1,0s-8.5,1-17.1,1s-8.5,0-17.1,0s-8.5,0-17.1,0s-8.5-1-17.1-1s-8.5,1-17.1,1s-8.5,0-17.1,0c-8.5,0-8.5,0-17.1,0
		s-8.5,0-17.1,0s-8.5,0-17.1,0s-8.5,0-17.1,0s-8.5,0-17.1,0s-8.5,0-17.1,0S18.5,580,10,580z"/>
	<path class="st2" d="M10,580c8.5,0,8.5,0,17.1,0s8.5,0,17.1,0s8.5,0,17.1,0s8.5,0,17.1,0s8.5,0,17.1,0s8.5,0,17.1,0s8.5,0,17.1,0
		c8.5,0,8.5,0,17.1,0s8.5-1,17.1-1s8.5,1,17.1,1s8.5,0,17.1,0s8.5,0,17.1,0s8.5-1,17.1-1s8.5,0,17.1,0s8.5,1,17.1,1
		c8.5,0,8.5-1,17.1-1c8.5,0,8.5,1,17.1,1c8.5,0,8.5,0,17.1,0c8.5,0,8.5,0,17.1,0c8.5,0,8.5,0,17.1,0c8.5,0,8.5,0,17.1,0
		c8.5,0,8.5,0,17.1,0c8.5,0,8.5,0,17.1,0s8.5,0,17.1,0c8.5,0,8.5,0,17.1,0c8.5,0,8.5,0,17.1,0c8.5,0,8.5,0,17.1,0
		c8.5,0,8.5,0,17.1,0c8.5,0,8.5,0,17.1,0c8.5,0,8.5-1,17.1-1s8.5-415.4,17.1-415.4s8.5,24.8,17.1,24.8c8.5,0,8.5,27.5,17.1,27.5
		s8.5,51,17.1,51c8.5,0,8.5,55.7,17.1,55.7c8.5,0,8.5,33.7,17.1,33.7s8.5,21.4,17.1,21.4c8.5,0,8.5-2.2,17.1-2.2s8.5,13,17.1,13
		c8.5,0,8.5,12.8,17.1,12.8s8.5,25.5,17.1,25.5c8.5,0,8.5,16.8,17.1,16.8s8.5,30.9,17.1,30.9c8.5,0,8.5,17.3,17.1,17.3
		s8.5,25.1,17.1,25.1c8.5,0,8.5,9.3,17.1,9.3v14.5c-8.5,0-8.5-6.6-17.1-6.6c-8.5,0-8.5-18.5-17.1-18.5s-8.5-9.6-17.1-9.6
		c-8.5,0-8.5-21-17.1-21s-8.5-10.8-17.1-10.8c-8.5,0-8.5-17.8-17.1-17.8s-8.5-10.3-17.1-10.3c-8.5,0-8.5-17.3-17.1-17.3
		s-8.5-4.3-17.1-4.3c-8.5,0-8.5-27.2-17.1-27.2s-8.5-38.6-17.1-38.6c-8.5,0-8.5-63.4-17.1-63.4c-8.5,0-8.5-59-17.1-59
		s-8.5-35.1-17.1-35.1c-8.5,0-8.5-32.6-17.1-32.6S530.5,579,522,579s-8.5,1-17.1,1c-8.5,0-8.5,0-17.1,0c-8.5,0-8.5,0-17.1,0
		c-8.5,0-8.5,0-17.1,0c-8.5,0-8.5,0-17.1,0c-8.5,0-8.5,0-17.1,0c-8.5,0-8.5,0-17.1,0s-8.5,0-17.1,0c-8.5,0-8.5,0-17.1,0
		c-8.5,0-8.5,0-17.1,0c-8.5,0-8.5,0-17.1,0c-8.5,0-8.5,0-17.1,0c-8.5,0-8.5,0-17.1,0c-8.5,0-8.5-1-17.1-1c-8.5,0-8.5,1-17.1,1
		c-8.5,0-8.5-1-17.1-1s-8.5,0-17.1,0s-8.5,1-17.1,1s-8.5,0-17.1,0s-8.5,0-17.1,0s-8.5-1-17.1-1s-8.5,1-17.1,1s-8.5,0-17.1,0
		c-8.5,0-8.5,0-17.1,0s-8.5,0-17.1,0s-8.5,0-17.1,0s-8.5,0-17.1,0s-8.5,0-17.1,0s-8.5,0-17.1,0S18.5,580,10,580z"/>
	<path class="st4" d="M14.9,580c8.5,0,8.5,0,17.1,0s8.5,0,17.1,0s8.5,0,17.1,0s8.5,0,17.1,0s8.5,0,17.1,0s8.5,0,17.1,0s8.5,0,17.1,0
		c8.5,0,8.5,0,17.1,0s8.5-1,17.1-1s8.5,1,17.1,1s8.5,0,17.1,0s8.5,0,17.1,0s8.5-1,17.1-1s8.5,0,17.1,0s8.5,1,17.1,1
		c8.5,0,8.5-1,17.1-1c8.5,0,8.5,1,17.1,1c8.5,0,8.5,0,17.1,0c8.5,0,8.5,0,17.1,0c8.5,0,8.5,0,17.1,0c8.5,0,8.5,0,17.1,0
		c8.5,0,8.5,0,17.1,0c8.5,0,8.5,0,17.1,0s8.5,0,17.1,0c8.5,0,8.5,0,17.1,0c8.5,0,8.5,0,17.1,0c8.5,0,8.5,0,17.1,0
		c8.5,0,8.5-470.5,17.1-470.5c8.5,0,8.5,36.7,17.1,36.7c8.5,0,8.5,29.4,17.1,29.4s8.5-13.2,17.1-13.2S552.4,187,561,187
		c8.5,0,8.5,27.8,17.1,27.8s8.5,50.9,17.1,50.9c8.5,0,8.5,55.7,17.1,55.7c8.5,0,8.5,33.7,17.1,33.7s8.5,21.5,17.1,21.5
		c8.5,0,8.5-2.2,17.1-2.2s8.5,13,17.1,13c8.5,0,8.5,192.6,17.1,192.6s8.5-154.4,17.1-154.4c8.5,0,8.5,16.6,17.1,16.6s8.5,31,17.1,31
		c8.5,0,8.5,17.3,17.1,17.3s8.5,25.1,17.1,25.1c8.5,0,8.5,9.4,17.1,9.4v0c-8.5,0-8.5-9.3-17.1-9.3c-8.5,0-8.5-25.1-17.1-25.1
		s-8.5-17.3-17.1-17.3c-8.5,0-8.5-30.9-17.1-30.9s-8.5-16.8-17.1-16.8c-8.5,0-8.5,154.3-17.1,154.3s-8.5-192.6-17.1-192.6
		c-8.5,0-8.5-13-17.1-13s-8.5,2.2-17.1,2.2c-8.5,0-8.5-21.4-17.1-21.4s-8.5-33.7-17.1-33.7c-8.5,0-8.5-55.7-17.1-55.7
		c-8.5,0-8.5-51-17.1-51s-8.5-27.5-17.1-27.5c-8.5,0-8.5-24.8-17.1-24.8s-8.5,13.2-17.1,13.2s-8.5-29.4-17.1-29.4
		c-8.5,0-8.5-36.8-17.1-36.8c-8.5,0-8.5,470.3-17.1,470.3c-8.5,0-8.5,0-17.1,0c-8.5,0-8.5,0-17.1,0c-8.5,0-8.5,0-17.1,0
		c-8.5,0-8.5,0-17.1,0s-8.5,0-17.1,0c-8.5,0-8.5,0-17.1,0c-8.5,0-8.5,0-17.1,0c-8.5,0-8.5,0-17.1,0c-8.5,0-8.5,0-17.1,0
		c-8.5,0-8.5,0-17.1,0c-8.5,0-8.5-1-17.1-1c-8.5,0-8.5,1-17.1,1c-8.5,0-8.5-1-17.1-1s-8.5,0-17.1,0s-8.5,1-17.1,1s-8.5,0-17.1,0
		s-8.5,0-17.1,0s-8.5-1-17.1-1s-8.5,1-17.1,1s-8.5,0-17.1,0c-8.5,0-8.5,0-17.1,0s-8.5,0-17.1,0s-8.5,0-17.1,0s-8.5,0-17.1,0
		s-8.5,0-17.1,0s-8.5,0-17.1,0S23.4,580,14.9,580z"/>
	<path class="st5" d="M10,580c8.5,0,8.5,0,17.1,0s8.5,0,17.1,0s8.5,0,17.1,0s8.5,0,17.1,0s8.5,0,17.1,0s8.5,0,17.1,0s8.5,0,17.1,0
		c8.5,0,8.5,0,17.1,0s8.5-1,17.1-1s8.5,1,17.1,1s8.5,0,17.1,0s8.5,0,17.1,0s8.5-1,17.1-1s8.5,0,17.1,0s8.5,1,17.1,1
		c8.5,0,8.5-1,17.1-1c8.5,0,8.5,1,17.1,1c8.5,0,8.5,0,17.1,0c8.5,0,8.5,0,17.1,0c8.5,0,8.5,0,17.1,0c8.5,0,8.5,0,17.1,0
		c8.5,0,8.5,0,17.1,0c8.5,0,8.5,0,17.1,0s8.5,0,17.1,0c8.5,0,8.5,0,17.1,0c8.5,0,8.5,0,17.1,0c8.5,0,8.5-1,17.1-1
		c8.5,0,8.5,1,17.1,1c8.5,0,8.5,0,17.1,0c8.5,0,8.5-2,17.1-2s8.5,1,17.1,1s8.5-393.1,17.1-393.1c8.5,0,8.5,27.8,17.1,27.8
		s8.5,50.9,17.1,50.9c8.5,0,8.5,55.7,17.1,55.7c8.5,0,8.5,33.5,17.1,33.5s8.5,21.5,17.1,21.5c8.5,0,8.5-2.1,17.1-2.1
		s8.5,12.9,17.1,12.9c8.5,0,8.5,13.7,17.1,13.7s8.5,24.5,17.1,24.5c8.5,0,8.5,16.6,17.1,16.6s8.5,31.1,17.1,31.1
		c8.5,0,8.5,17.4,17.1,17.4s8.5,25.1,17.1,25.1c8.5,0,8.5,9.4,17.1,9.4v0.1c-8.5,0-8.5-9.4-17.1-9.4c-8.5,0-8.5-25.1-17.1-25.1
		s-8.5-17.3-17.1-17.3c-8.5,0-8.5-31-17.1-31s-8.5-16.6-17.1-16.6c-8.5,0-8.5-24.4-17.1-24.4s-8.5-13.8-17.1-13.8
		c-8.5,0-8.5-13-17.1-13s-8.5,2.2-17.1,2.2c-8.5,0-8.5-21.5-17.1-21.5s-8.5-33.7-17.1-33.7c-8.5,0-8.5-55.7-17.1-55.7
		c-8.5,0-8.5-50.9-17.1-50.9s-8.5-27.8-17.1-27.8c-8.5,0-8.5,393-17.1,393s-8.5-1-17.1-1s-8.5,2-17.1,2c-8.5,0-8.5,0-17.1,0
		c-8.5,0-8.5-1-17.1-1c-8.5,0-8.5,1-17.1,1c-8.5,0-8.5,0-17.1,0c-8.5,0-8.5,0-17.1,0c-8.5,0-8.5,0-17.1,0s-8.5,0-17.1,0
		c-8.5,0-8.5,0-17.1,0c-8.5,0-8.5,0-17.1,0c-8.5,0-8.5,0-17.1,0c-8.5,0-8.5,0-17.1,0c-8.5,0-8.5,0-17.1,0c-8.5,0-8.5-1-17.1-1
		c-8.5,0-8.5,1-17.1,1c-8.5,0-8.5-1-17.1-1s-8.5,0-17.1,0s-8.5,1-17.1,1s-8.5,0-17.1,0s-8.5,0-17.1,0s-8.5-1-17.1-1s-8.5,1-17.1,1
		s-8.5,0-17.1,0c-8.5,0-8.5,0-17.1,0s-8.5,0-17.1,0s-8.5,0-17.1,0s-8.5,0-17.1,0s-8.5,0-17.1,0s-8.5,0-17.1,0S18.5,580,10,580z"/>
	<path class="st6" d="M10,580c8.5,0,8.5,0,17.1,0s8.5,0,17.1,0s8.5,0,17.1,0s8.5,0,17.1,0s8.5,0,17.1,0s8.5,0,17.1,0s8.5,0,17.1,0
		c8.5,0,8.5,0,17.1,0s8.5-1,17.1-1s8.5,1,17.1,1s8.5,0,17.1,0s8.5,0,17.1,0s8.5-1,17.1-1s8.5,0,17.1,0s8.5,1,17.1,1
		c8.5,0,8.5-1,17.1-1c8.5,0,8.5,1,17.1,1c8.5,0,8.5,0,17.1,0c8.5,0,8.5,0,17.1,0c8.5,0,8.5,0,17.1,0c8.5,0,8.5,0,17.1,0
		c8.5,0,8.5,0,17.1,0c8.5,0,8.5,0,17.1,0s8.5,0,17.1,0c8.5,0,8.5,0,17.1,0c8.5,0,8.5,0,17.1,0c8.5,0,8.5-1,17.1-1
		c8.5,0,8.5,1,17.1,1c8.5,0,8.5,0,17.1,0c8.5,0,8.5-2,17.1-2s8.5,0,17.1,0s8.5,2,17.1,2c8.5,0,8.5,0,17.1,0s8.5,0,17.1,0
		c8.5,0,8.5,0,17.1,0c8.5,0,8.5,0,17.1,0s8.5,0,17.1,0c8.5,0,8.5,0,17.1,0s8.5,0,17.1,0c8.5,0,8.5-1,17.1-1s8.5,1,17.1,1
		c8.5,0,8.5,0,17.1,0s8.5-118.1,17.1-118.1c8.5,0,8.5,5.9,17.1,5.9s8.5,19.7,17.1,19.7c8.5,0,8.5,6.5,17.1,6.5v29
		c-8.5,0-8.5-9.4-17.1-9.4c-8.5,0-8.5-25.1-17.1-25.1s-8.5-17.4-17.1-17.4c-8.5,0-8.5,108.8-17.1,108.8s-8.5,0-17.1,0
		c-8.5,0-8.5-1-17.1-1s-8.5,1-17.1,1c-8.5,0-8.5,0-17.1,0s-8.5,0-17.1,0c-8.5,0-8.5,0-17.1,0s-8.5,0-17.1,0c-8.5,0-8.5,0-17.1,0
		c-8.5,0-8.5,0-17.1,0s-8.5,0-17.1,0c-8.5,0-8.5-2-17.1-2s-8.5,0-17.1,0s-8.5,2-17.1,2c-8.5,0-8.5,0-17.1,0c-8.5,0-8.5-1-17.1-1
		c-8.5,0-8.5,1-17.1,1c-8.5,0-8.5,0-17.1,0c-8.5,0-8.5,0-17.1,0c-8.5,0-8.5,0-17.1,0s-8.5,0-17.1,0c-8.5,0-8.5,0-17.1,0
		c-8.5,0-8.5,0-17.1,0c-8.5,0-8.5,0-17.1,0c-8.5,0-8.5,0-17.1,0c-8.5,0-8.5,0-17.1,0c-8.5,0-8.5-1-17.1-1c-8.5,0-8.5,1-17.1,1
		c-8.5,0-8.5-1-17.1-1s-8.5,0-17.1,0s-8.5,1-17.1,1s-8.5,0-17.1,0s-8.5,0-17.1,0s-8.5-1-17.1-1s-8.5,1-17.1,1s-8.5,0-17.1,0
		c-8.5,0-8.5,0-17.1,0s-8.5,0-17.1,0s-8.5,0-17.1,0s-8.5,0-17.1,0s-8.5,0-17.1,0s-8.5,0-17.1,0S18.5,580,10,580z"/>
	<path class="st6" d="M10,514.6c8.5,0,8.5-6.3,17.1-6.3s8.5-6.1,17.1-6.1S52.7,491,61.2,491s8.5-26.9,17.1-26.9s8.5-21.5,17.1-21.5
		s8.5,19.2,17.1,19.2s8.5-3.9,17.1-3.9c8.5,0,8.5-10,17.1-10s8.5,12,17.1,12s8.5-5,17.1-5s8.5-18.2,17.1-18.2s8.5-1.6,17.1-1.6
		s8.5-12.6,17.1-12.6s8.5-34.2,17.1-34.2s8.5-26,17.1-26c8.5,0,8.5-8.6,17.1-8.6c8.5,0,8.5-32.4,17.1-32.4c8.5,0,8.5-13.2,17.1-13.2
		c8.5,0,8.5-40.2,17.1-40.2c8.5,0,8.5-34.4,17.1-34.4c8.5,0,8.5-70.3,17.1-70.3c8.5,0,8.5-9.2,17.1-9.2c8.5,0,8.5-6.9,17.1-6.9
		s8.5,13.1,17.1,13.1c8.5,0,8.5-45.5,17.1-45.5c8.5,0,8.5-35.1,17.1-35.1c8.5,0,8.5,4.8,17.1,4.8c8.5,0,8.5,23,17.1,23
		c8.5,0,8.5,36.9,17.1,36.9c8.5,0,8.5,29.4,17.1,29.4s8.5-13.1,17.1-13.1s8.5,23.7,17.1,23.7c8.5,0,8.5,27.8,17.1,27.8
		s8.5,50.7,17.1,50.7c8.5,0,8.5,54.6,17.1,54.6c8.5,0,8.5,33.3,17.1,33.3s8.5,20.6,17.1,20.6c8.5,0,8.5-3.1,17.1-3.1
		s8.5,11.5,17.1,11.5c8.5,0,8.5,11.9,17.1,11.9s8.5,23.4,17.1,23.4c8.5,0,8.5,13.5,17.1,13.5s8.5,20.1,17.1,20.1
		c8.5,0,8.5,4.7,17.1,4.7s8.5,18.6,17.1,18.6c8.5,0,8.5,3.7,17.1,3.7V493c-8.5,0-8.5-6.5-17.1-6.5c-8.5,0-8.5-19.7-17.1-19.7
		s-8.5-5.9-17.1-5.9c-8.5,0-8.5-20.8-17.1-20.8s-8.5-16.6-17.1-16.6c-8.5,0-8.5-24.5-17.1-24.5s-8.5-13.7-17.1-13.7
		c-8.5,0-8.5-12.9-17.1-12.9s-8.5,2.1-17.1,2.1c-8.5,0-8.5-21.5-17.1-21.5s-8.5-33.5-17.1-33.5c-8.5,0-8.5-55.7-17.1-55.7
		c-8.5,0-8.5-50.9-17.1-50.9s-8.5-27.8-17.1-27.8c-8.5,0-8.5-23.6-17.1-23.6s-8.5,13.2-17.1,13.2s-8.5-29.4-17.1-29.4
		c-8.5,0-8.5-36.7-17.1-36.7c-8.5,0-8.5-23-17.1-23c-8.5,0-8.5-4.6-17.1-4.6c-8.5,0-8.5,35.2-17.1,35.2c-8.5,0-8.5,45.5-17.1,45.5
		c-8.5,0-8.5-12.9-17.1-12.9s-8.5,6.5-17.1,6.5c-8.5,0-8.5,9-17.1,9c-8.5,0-8.5,70-17.1,70c-8.5,0-8.5,34.5-17.1,34.5
		c-8.5,0-8.5,40.7-17.1,40.7c-8.5,0-8.5,15.2-17.1,15.2c-8.5,0-8.5,37.1-17.1,37.1c-8.5,0-8.5,19.5-17.1,19.5
		c-8.5,0-8.5,35.1-17.1,35.1s-8.5,40.8-17.1,40.8s-8.5,23-17.1,23s-8.5,11-17.1,11s-8.5,23.1-17.1,23.1s-8.5,13.3-17.1,13.3
		s-8.5,2.6-17.1,2.6s-8.5,5-17.1,5c-8.5,0-8.5-1.2-17.1-1.2s-8.5-4.7-17.1-4.7s-8.5,11.8-17.1,11.8s-8.5,8.3-17.1,8.3s-8.5,5-17.1,5
		s-8.5,1.6-17.1,1.6s-8.5,2.5-17.1,2.5V514.6z"/>
	<path class="st6" d="M10,580c8.5,0,8.5,0,17.1,0s8.5,0,17.1,0s8.5,0,17.1,0s8.5,0,17.1,0s8.5,0,17.1,0s8.5,0,17.1,0s8.5,0,17.1,0
		c8.5,0,8.5,0,17.1,0s8.5-1,17.1-1s8.5,1,17.1,1s8.5,0,17.1,0s8.5,0,17.1,0s8.5-1,17.1-1s8.5,0,17.1,0s8.5,1,17.1,1
		c8.5,0,8.5-231.2,17.1-231.2c8.5,0,8.5-34.4,17.1-34.4c8.5,0,8.5-11.3,17.1-11.3c8.5,0,8.5-41.6,17.1-41.6
		c8.5,0,8.5-36.3,17.1-36.3c8.5,0,8.5-70.9,17.1-70.9c8.5,0,8.5-8.8,17.1-8.8c8.5,0,8.5-7.4,17.1-7.4s8.5,10,17.1,10
		c8.5,0,8.5-52,17.1-52c8.5,0,8.5-30.5,17.1-30.5c8.5,0,8.5,8.1,17.1,8.1c8.5,0,8.5,21.4,17.1,21.4c8.5,0,8.5,38.3,17.1,38.3
		c8.5,0,8.5,25.5,17.1,25.5s8.5-20.3,17.1-20.3s8.5,23.9,17.1,23.9c8.5,0,8.5,33,17.1,33s8.5,49.5,17.1,49.5
		c8.5,0,8.5,63.6,17.1,63.6c8.5,0,8.5,33.9,17.1,33.9s8.5,21.7,17.1,21.7c8.5,0,8.5-2.2,17.1-2.2s8.5,12.7,17.1,12.7
		c8.5,0,8.5,12.3,17.1,12.3s8.5,23.9,17.1,23.9c8.5,0,8.5,14.1,17.1,14.1s8.5,20.5,17.1,20.5c8.5,0,8.5,5.4,17.1,5.4s8.5,19,17.1,19
		c8.5,0,8.5,3.7,17.1,3.7v1c-8.5,0-8.5-3.7-17.1-3.7c-8.5,0-8.5-18.6-17.1-18.6s-8.5-4.7-17.1-4.7c-8.5,0-8.5-20.1-17.1-20.1
		s-8.5-13.5-17.1-13.5c-8.5,0-8.5-23.4-17.1-23.4s-8.5-11.9-17.1-11.9c-8.5,0-8.5-11.5-17.1-11.5s-8.5,3.1-17.1,3.1
		c-8.5,0-8.5-20.6-17.1-20.6s-8.5-33.3-17.1-33.3c-8.5,0-8.5-54.6-17.1-54.6c-8.5,0-8.5-50.7-17.1-50.7s-8.5-27.8-17.1-27.8
		c-8.5,0-8.5-23.7-17.1-23.7s-8.5,13.1-17.1,13.1s-8.5-29.4-17.1-29.4c-8.5,0-8.5-36.9-17.1-36.9c-8.5,0-8.5-23-17.1-23
		c-8.5,0-8.5-4.8-17.1-4.8c-8.5,0-8.5,35.1-17.1,35.1c-8.5,0-8.5,45.5-17.1,45.5c-8.5,0-8.5-13.1-17.1-13.1s-8.5,6.9-17.1,6.9
		c-8.5,0-8.5,9.2-17.1,9.2c-8.5,0-8.5,70.3-17.1,70.3c-8.5,0-8.5,34.4-17.1,34.4c-8.5,0-8.5,40.2-17.1,40.2
		c-8.5,0-8.5,13.2-17.1,13.2c-8.5,0-8.5,32.4-17.1,32.4c-8.5,0-8.5,227.2-17.1,227.2c-8.5,0-8.5-1-17.1-1s-8.5,0-17.1,0
		s-8.5,1-17.1,1s-8.5,0-17.1,0s-8.5,0-17.1,0s-8.5-1-17.1-1s-8.5,1-17.1,1s-8.5,0-17.1,0c-8.5,0-8.5,0-17.1,0s-8.5,0-17.1,0
		s-8.5,0-17.1,0s-8.5,0-17.1,0s-8.5,0-17.1,0s-8.5,0-17.1,0S18.5,580,10,580z"/>
	<path class="st6" d="M10,580c8.5,0,8.5,0,17.1,0s8.5,0,17.1,0s8.5,0,17.1,0s8.5,0,17.1,0s8.5,0,17.1,0s8.5,0,17.1,0s8.5,0,17.1,0
		c8.5,0,8.5,0,17.1,0s8.5-1,17.1-1s8.5,1,17.1,1s8.5,0,17.1,0s8.5,0,17.1,0s8.5-1,17.1-1s8.5,0,17.1,0s8.5,0,17.1,0
		c8.5,0,8.5,0,17.1,0c8.5,0,8.5,1,17.1,1c8.5,0,8.5,0,17.1,0c8.5,0,8.5,0,17.1,0c8.5,0,8.5,0,17.1,0c8.5,0,8.5,0,17.1,0
		c8.5,0,8.5,0,17.1,0c8.5,0,8.5,0,17.1,0s8.5,0,17.1,0c8.5,0,8.5,0,17.1,0c8.5,0,8.5,0,17.1,0c8.5,0,8.5-1,17.1-1
		c8.5,0,8.5,1,17.1,1c8.5,0,8.5,0,17.1,0c8.5,0,8.5-2,17.1-2s8.5,0,17.1,0s8.5,2,17.1,2c8.5,0,8.5,0,17.1,0s8.5,0,17.1,0
		c8.5,0,8.5,0,17.1,0c8.5,0,8.5,0,17.1,0s8.5,0,17.1,0c8.5,0,8.5-223.1,17.1-223.1s8.5,10.7,17.1,10.7c8.5,0,8.5,10.6,17.1,10.6
		s8.5,21.7,17.1,21.7c8.5,0,8.5,11.1,17.1,11.1s8.5,16.4,17.1,16.4c8.5,0,8.5-0.6,17.1-0.6s8.5,15.4,17.1,15.4
		c8.5,0,8.5-1.5,17.1-1.5v31.8c-8.5,0-8.5-3.7-17.1-3.7c-8.5,0-8.5-19-17.1-19s-8.5-5.4-17.1-5.4c-8.5,0-8.5-20.5-17.1-20.5
		s-8.5-14.1-17.1-14.1c-8.5,0-8.5-23.9-17.1-23.9s-8.5-12.3-17.1-12.3c-8.5,0-8.5-12.7-17.1-12.7S649.9,580,641.4,580
		c-8.5,0-8.5,0-17.1,0s-8.5,0-17.1,0c-8.5,0-8.5,0-17.1,0c-8.5,0-8.5,0-17.1,0s-8.5,0-17.1,0c-8.5,0-8.5-2-17.1-2s-8.5,0-17.1,0
		s-8.5,2-17.1,2c-8.5,0-8.5,0-17.1,0c-8.5,0-8.5-1-17.1-1c-8.5,0-8.5,1-17.1,1c-8.5,0-8.5,0-17.1,0c-8.5,0-8.5,0-17.1,0
		c-8.5,0-8.5,0-17.1,0s-8.5,0-17.1,0c-8.5,0-8.5,0-17.1,0c-8.5,0-8.5,0-17.1,0c-8.5,0-8.5,0-17.1,0c-8.5,0-8.5,0-17.1,0
		c-8.5,0-8.5,0-17.1,0c-8.5,0-8.5-1-17.1-1c-8.5,0-8.5,0-17.1,0c-8.5,0-8.5,0-17.1,0s-8.5,0-17.1,0s-8.5,1-17.1,1s-8.5,0-17.1,0
		s-8.5,0-17.1,0s-8.5-1-17.1-1s-8.5,1-17.1,1s-8.5,0-17.1,0c-8.5,0-8.5,0-17.1,0s-8.5,0-17.1,0s-8.5,0-17.1,0s-8.5,0-17.1,0
		s-8.5,0-17.1,0s-8.5,0-17.1,0S18.5,580,10,580z"/>
	<path class="st6" d="M10,580c8.5,0,8.5,0,17.1,0s8.5,0,17.1,0s8.5,0,17.1,0s8.5,0,17.1,0s8.5,0,17.1,0s8.5,0,17.1,0s8.5,0,17.1,0
		c8.5,0,8.5,0,17.1,0s8.5-1,17.1-1s8.5,1,17.1,1s8.5,0,17.1,0s8.5,0,17.1,0s8.5-1,17.1-1s8.5,0,17.1,0s8.5,0,17.1,0
		c8.5,0,8.5,0,17.1,0c8.5,0,8.5,1,17.1,1c8.5,0,8.5,0,17.1,0c8.5,0,8.5,0,17.1,0c8.5,0,8.5,0,17.1,0c8.5,0,8.5,0,17.1,0
		c8.5,0,8.5,0,17.1,0c8.5,0,8.5,0,17.1,0s8.5,0,17.1,0c8.5,0,8.5,0,17.1,0c8.5,0,8.5,0,17.1,0c8.5,0,8.5-1,17.1-1
		c8.5,0,8.5,1,17.1,1c8.5,0,8.5,0,17.1,0c8.5,0,8.5-2,17.1-2s8.5,0,17.1,0s8.5,2,17.1,2c8.5,0,8.5,0,17.1,0s8.5,0,17.1,0
		c8.5,0,8.5,0,17.1,0c8.5,0,8.5,0,17.1,0s8.5-1,17.1-1c8.5,0,8.5,1,17.1,1s8.5,0,17.1,0c8.5,0,8.5-1,17.1-1s8.5,1,17.1,1
		c8.5,0,8.5-1,17.1-1s8.5-155.5,17.1-155.5c8.5,0,8.5-6.9,17.1-6.9s8.5,15.8,17.1,15.8c8.5,0,8.5-1.5,17.1-1.5v8.8
		c-8.5,0-8.5,1.5-17.1,1.5c-8.5,0-8.5-15.4-17.1-15.4s-8.5,0.6-17.1,0.6c-8.5,0-8.5,152.6-17.1,152.6s-8.5,1-17.1,1
		c-8.5,0-8.5-1-17.1-1s-8.5,1-17.1,1c-8.5,0-8.5,0-17.1,0s-8.5-1-17.1-1c-8.5,0-8.5,1-17.1,1s-8.5,0-17.1,0c-8.5,0-8.5,0-17.1,0
		c-8.5,0-8.5,0-17.1,0s-8.5,0-17.1,0c-8.5,0-8.5-2-17.1-2s-8.5,0-17.1,0s-8.5,2-17.1,2c-8.5,0-8.5,0-17.1,0c-8.5,0-8.5-1-17.1-1
		c-8.5,0-8.5,1-17.1,1c-8.5,0-8.5,0-17.1,0c-8.5,0-8.5,0-17.1,0c-8.5,0-8.5,0-17.1,0s-8.5,0-17.1,0c-8.5,0-8.5,0-17.1,0
		c-8.5,0-8.5,0-17.1,0c-8.5,0-8.5,0-17.1,0c-8.5,0-8.5,0-17.1,0c-8.5,0-8.5,0-17.1,0c-8.5,0-8.5-1-17.1-1c-8.5,0-8.5,0-17.1,0
		c-8.5,0-8.5,0-17.1,0s-8.5,0-17.1,0s-8.5,1-17.1,1s-8.5,0-17.1,0s-8.5,0-17.1,0s-8.5-1-17.1-1s-8.5,1-17.1,1s-8.5,0-17.1,0
		c-8.5,0-8.5,0-17.1,0s-8.5,0-17.1,0s-8.5,0-17.1,0s-8.5,0-17.1,0s-8.5,0-17.1,0s-8.5,0-17.1,0S18.5,580,10,580z"/>
	<path class="st6" d="M10,580c8.5,0,8.5,0,17.1,0s8.5,0,17.1,0s8.5,0,17.1,0s8.5,0,17.1,0s8.5,0,17.1,0s8.5,0,17.1,0s8.5,0,17.1,0
		c8.5,0,8.5,0,17.1,0s8.5-1,17.1-1s8.5,1,17.1,1s8.5,0,17.1,0s8.5,0,17.1,0s8.5-1,17.1-1s8.5,0,17.1,0s8.5,0,17.1,0
		c8.5,0,8.5,0,17.1,0c8.5,0,8.5,1,17.1,1c8.5,0,8.5,0,17.1,0c8.5,0,8.5,0,17.1,0c8.5,0,8.5,0,17.1,0c8.5,0,8.5,0,17.1,0
		c8.5,0,8.5,0,17.1,0c8.5,0,8.5,0,17.1,0s8.5,0,17.1,0c8.5,0,8.5,0,17.1,0c8.5,0,8.5,0,17.1,0c8.5,0,8.5-1,17.1-1
		c8.5,0,8.5,1,17.1,1c8.5,0,8.5,0,17.1,0c8.5,0,8.5-2,17.1-2s8.5,0,17.1,0s8.5,2,17.1,2c8.5,0,8.5,0,17.1,0s8.5,0,17.1,0
		c8.5,0,8.5,0,17.1,0c8.5,0,8.5,0,17.1,0s8.5-1,17.1-1c8.5,0,8.5,1,17.1,1s8.5,0,17.1,0c8.5,0,8.5-1,17.1-1s8.5,1,17.1,1
		c8.5,0,8.5-2,17.1-2s8.5-156.1,17.1-156.1c8.5,0,8.5-6.9,17.1-6.9s8.5,15.7,17.1,15.7c8.5,0,8.5-1.5,17.1-1.5v0.8
		c-8.5,0-8.5,1.5-17.1,1.5c-8.5,0-8.5-15.8-17.1-15.8s-8.5,6.9-17.1,6.9c-8.5,0-8.5,155.5-17.1,155.5s-8.5,2-17.1,2
		c-8.5,0-8.5-1-17.1-1s-8.5,1-17.1,1c-8.5,0-8.5,0-17.1,0s-8.5-1-17.1-1c-8.5,0-8.5,1-17.1,1s-8.5,0-17.1,0c-8.5,0-8.5,0-17.1,0
		c-8.5,0-8.5,0-17.1,0s-8.5,0-17.1,0c-8.5,0-8.5-2-17.1-2s-8.5,0-17.1,0s-8.5,2-17.1,2c-8.5,0-8.5,0-17.1,0c-8.5,0-8.5-1-17.1-1
		c-8.5,0-8.5,1-17.1,1c-8.5,0-8.5,0-17.1,0c-8.5,0-8.5,0-17.1,0c-8.5,0-8.5,0-17.1,0s-8.5,0-17.1,0c-8.5,0-8.5,0-17.1,0
		c-8.5,0-8.5,0-17.1,0c-8.5,0-8.5,0-17.1,0c-8.5,0-8.5,0-17.1,0c-8.5,0-8.5,0-17.1,0c-8.5,0-8.5-1-17.1-1c-8.5,0-8.5,0-17.1,0
		c-8.5,0-8.5,0-17.1,0s-8.5,0-17.1,0s-8.5,1-17.1,1s-8.5,0-17.1,0s-8.5,0-17.1,0s-8.5-1-17.1-1s-8.5,1-17.1,1s-8.5,0-17.1,0
		c-8.5,0-8.5,0-17.1,0s-8.5,0-17.1,0s-8.5,0-17.1,0s-8.5,0-17.1,0s-8.5,0-17.1,0s-8.5,0-17.1,0S18.5,580,10,580z"/>
	<path class="st6" d="M10,513.1c8.5,0,8.5-6.3,17.1-6.3s8.5-6,17.1-6s8.5-11,17.1-11S69.7,580,78.3,580s8.5,0,17.1,0s8.5,0,17.1,0
		s8.5,0,17.1,0c8.5,0,8.5,0,17.1,0s8.5-1,17.1-1s8.5,1,17.1,1s8.5,0,17.1,0s8.5,0,17.1,0s8.5-1,17.1-1s8.5,0,17.1,0s8.5,0,17.1,0
		c8.5,0,8.5,0,17.1,0c8.5,0,8.5,1,17.1,1c8.5,0,8.5,0,17.1,0c8.5,0,8.5,0,17.1,0c8.5,0,8.5,0,17.1,0c8.5,0,8.5,0,17.1,0
		c8.5,0,8.5,0,17.1,0c8.5,0,8.5,0,17.1,0s8.5,0,17.1,0c8.5,0,8.5,0,17.1,0c8.5,0,8.5,0,17.1,0c8.5,0,8.5-1,17.1-1
		c8.5,0,8.5,1,17.1,1c8.5,0,8.5,0,17.1,0c8.5,0,8.5-2,17.1-2s8.5,0,17.1,0s8.5,2,17.1,2c8.5,0,8.5,0,17.1,0s8.5,0,17.1,0
		c8.5,0,8.5,0,17.1,0c8.5,0,8.5,0,17.1,0s8.5-1,17.1-1c8.5,0,8.5,1,17.1,1s8.5,0,17.1,0c8.5,0,8.5-1,17.1-1s8.5,1,17.1,1
		c8.5,0,8.5-3,17.1-3s8.5,3,17.1,3c8.5,0,8.5,0,17.1,0s8.5,0,17.1,0c8.5,0,8.5,0,17.1,0l0,0c-8.5,0-8.5,0-17.1,0
		c-8.5,0-8.5,0-17.1,0s-8.5,0-17.1,0c-8.5,0-8.5-3-17.1-3s-8.5,3-17.1,3c-8.5,0-8.5-1-17.1-1s-8.5,1-17.1,1c-8.5,0-8.5,0-17.1,0
		s-8.5-1-17.1-1c-8.5,0-8.5,1-17.1,1s-8.5,0-17.1,0c-8.5,0-8.5,0-17.1,0c-8.5,0-8.5,0-17.1,0s-8.5,0-17.1,0c-8.5,0-8.5-2-17.1-2
		s-8.5,0-17.1,0s-8.5,2-17.1,2c-8.5,0-8.5,0-17.1,0c-8.5,0-8.5-1-17.1-1c-8.5,0-8.5,1-17.1,1c-8.5,0-8.5,0-17.1,0
		c-8.5,0-8.5,0-17.1,0c-8.5,0-8.5,0-17.1,0s-8.5,0-17.1,0c-8.5,0-8.5,0-17.1,0c-8.5,0-8.5,0-17.1,0c-8.5,0-8.5,0-17.1,0
		c-8.5,0-8.5,0-17.1,0c-8.5,0-8.5,0-17.1,0c-8.5,0-8.5-1-17.1-1c-8.5,0-8.5,0-17.1,0c-8.5,0-8.5,0-17.1,0s-8.5,0-17.1,0
		s-8.5,1-17.1,1s-8.5,0-17.1,0s-8.5,0-17.1,0s-8.5-1-17.1-1s-8.5,1-17.1,1s-8.5,0-17.1,0c-8.5,0-8.5,0-17.1,0s-8.5,0-17.1,0
		s-8.5,0-17.1,0s-8.5-90-17.1-90s-8.5,11.2-17.1,11.2s-8.5,6.1-17.1,6.1s-8.5,6.3-17.1,6.3V513.1z"/>
	<path class="st6" d="M10,580c8.5,0,8.5,0,17.1,0s8.5,0,17.1,0s8.5,0,17.1,0s8.5,0,17.1,0s8.5,0,17.1,0s8.5,0,17.1,0s8.5,0,17.1,0
		c8.5,0,8.5,0,17.1,0s8.5-1,17.1-1s8.5,1,17.1,1s8.5,0,17.1,0s8.5,0,17.1,0s8.5-1,17.1-1s8.5,0,17.1,0s8.5,0,17.1,0
		c8.5,0,8.5,0,17.1,0c8.5,0,8.5,1,17.1,1c8.5,0,8.5,0,17.1,0c8.5,0,8.5,0,17.1,0c8.5,0,8.5,0,17.1,0c8.5,0,8.5,0,17.1,0
		c8.5,0,8.5,0,17.1,0c8.5,0,8.5,0,17.1,0s8.5,0,17.1,0c8.5,0,8.5,0,17.1,0c8.5,0,8.5,0,17.1,0c8.5,0,8.5-1,17.1-1
		c8.5,0,8.5,1,17.1,1c8.5,0,8.5,0,17.1,0c8.5,0,8.5-2,17.1-2s8.5,0,17.1,0s8.5-421.9,17.1-421.9c8.5,0,8.5,31.1,17.1,31.1
		s8.5,48.5,17.1,48.5c8.5,0,8.5,64,17.1,64c8.5,0,8.5,34.4,17.1,34.4s8.5,21.5,17.1,21.5c8.5,0,8.5-8.4,17.1-8.4s8.5,5.4,17.1,5.4
		c8.5,0,8.5,2,17.1,2s8.5,17.3,17.1,17.3c8.5,0,8.5-2.5,17.1-2.5s8.5-27.1,17.1-27.1c8.5,0,8.5-50.8,17.1-50.8s8.5-24.7,17.1-24.7
		c8.5,0,8.5-46.3,17.1-46.3v207.7c-8.5,0-8.5,1.5-17.1,1.5c-8.5,0-8.5-15.7-17.1-15.7s-8.5,6.9-17.1,6.9c-8.5,0-8.5-11-17.1-11
		s-8.5-11.1-17.1-11.1c-8.5,0-8.5-21.7-17.1-21.7s-8.5-10.6-17.1-10.6c-8.5,0-8.5-10.7-17.1-10.7s-8.5,7.2-17.1,7.2
		c-8.5,0-8.5-21.7-17.1-21.7s-8.5-33.9-17.1-33.9c-8.5,0-8.5-63.6-17.1-63.6c-8.5,0-8.5-49.5-17.1-49.5s-8.5-33-17.1-33
		c-8.5,0-8.5,416.6-17.1,416.6s-8.5,0-17.1,0s-8.5,2-17.1,2c-8.5,0-8.5,0-17.1,0c-8.5,0-8.5-1-17.1-1c-8.5,0-8.5,1-17.1,1
		c-8.5,0-8.5,0-17.1,0c-8.5,0-8.5,0-17.1,0c-8.5,0-8.5,0-17.1,0s-8.5,0-17.1,0c-8.5,0-8.5,0-17.1,0c-8.5,0-8.5,0-17.1,0
		c-8.5,0-8.5,0-17.1,0c-8.5,0-8.5,0-17.1,0c-8.5,0-8.5,0-17.1,0c-8.5,0-8.5-1-17.1-1c-8.5,0-8.5,0-17.1,0c-8.5,0-8.5,0-17.1,0
		s-8.5,0-17.1,0s-8.5,1-17.1,1s-8.5,0-17.1,0s-8.5,0-17.1,0s-8.5-1-17.1-1s-8.5,1-17.1,1s-8.5,0-17.1,0c-8.5,0-8.5,0-17.1,0
		s-8.5,0-17.1,0s-8.5,0-17.1,0s-8.5,0-17.1,0s-8.5,0-17.1,0s-8.5,0-17.1,0S18.5,580,10,580z"/>
	<path class="st6" d="M10,580c8.5,0,8.5,0,17.1,0s8.5,0,17.1,0s8.5,0,17.1,0s8.5,0,17.1,0s8.5,0,17.1,0s8.5,0,17.1,0s8.5,0,17.1,0
		c8.5,0,8.5,0,17.1,0s8.5-1,17.1-1s8.5,1,17.1,1s8.5,0,17.1,0s8.5,0,17.1,0s8.5-1,17.1-1s8.5,0,17.1,0s8.5,0,17.1,0
		c8.5,0,8.5,0,17.1,0c8.5,0,8.5,1,17.1,1c8.5,0,8.5,0,17.1,0c8.5,0,8.5,0,17.1,0c8.5,0,8.5,0,17.1,0c8.5,0,8.5,0,17.1,0
		c8.5,0,8.5,0,17.1,0c8.5,0,8.5,0,17.1,0s8.5,0,17.1,0c8.5,0,8.5,0,17.1,0c8.5,0,8.5,0,17.1,0c8.5,0,8.5-1,17.1-1
		c8.5,0,8.5,1,17.1,1c8.5,0,8.5,0,17.1,0c8.5,0,8.5-2,17.1-2s8.5-1,17.1-1s8.5-436.6,17.1-436.6c8.5,0,8.5,18.7,17.1,18.7
		s8.5,38.6,17.1,38.6c8.5,0,8.5,66.8,17.1,66.8c8.5,0,8.5,44,17.1,44s8.5,30.4,17.1,30.4c8.5,0,8.5-2.4,17.1-2.4s8.5,9.9,17.1,9.9
		c8.5,0,8.5,3.7,17.1,3.7s8.5,18.4,17.1,18.4c8.5,0,8.5-2.1,17.1-2.1s8.5-27.1,17.1-27.1c8.5,0,8.5-50.1,17.1-50.1
		s8.5-24.4,17.1-24.4c8.5,0,8.5-46.1,17.1-46.1v0.7c-8.5,0-8.5,46.3-17.1,46.3c-8.5,0-8.5,24.7-17.1,24.7s-8.5,50.8-17.1,50.8
		c-8.5,0-8.5,27.1-17.1,27.1s-8.5,2.5-17.1,2.5c-8.5,0-8.5-17.3-17.1-17.3s-8.5-2-17.1-2c-8.5,0-8.5-5.4-17.1-5.4s-8.5,8.4-17.1,8.4
		c-8.5,0-8.5-21.5-17.1-21.5s-8.5-34.4-17.1-34.4c-8.5,0-8.5-64-17.1-64c-8.5,0-8.5-48.5-17.1-48.5s-8.5-31.1-17.1-31.1
		c-8.5,0-8.5,421.9-17.1,421.9s-8.5,1-17.1,1s-8.5,2-17.1,2c-8.5,0-8.5,0-17.1,0c-8.5,0-8.5-1-17.1-1c-8.5,0-8.5,1-17.1,1
		c-8.5,0-8.5,0-17.1,0c-8.5,0-8.5,0-17.1,0c-8.5,0-8.5,0-17.1,0s-8.5,0-17.1,0c-8.5,0-8.5,0-17.1,0c-8.5,0-8.5,0-17.1,0
		c-8.5,0-8.5,0-17.1,0c-8.5,0-8.5,0-17.1,0c-8.5,0-8.5,0-17.1,0c-8.5,0-8.5-1-17.1-1c-8.5,0-8.5,0-17.1,0c-8.5,0-8.5,0-17.1,0
		s-8.5,0-17.1,0s-8.5,1-17.1,1s-8.5,0-17.1,0s-8.5,0-17.1,0s-8.5-1-17.1-1s-8.5,1-17.1,1s-8.5,0-17.1,0c-8.5,0-8.5,0-17.1,0
		s-8.5,0-17.1,0s-8.5,0-17.1,0s-8.5,0-17.1,0s-8.5,0-17.1,0s-8.5,0-17.1,0S18.5,580,10,580z"/>
	<path class="st6" d="M10,580c8.5,0,8.5,0,17.1,0s8.5,0,17.1,0s8.5,0,17.1,0s8.5,0,17.1,0s8.5,0,17.1,0s8.5,0,17.1,0s8.5,0,17.1,0
		c8.5,0,8.5,0,17.1,0s8.5-1,17.1-1s8.5,1,17.1,1s8.5,0,17.1,0s8.5,0,17.1,0s8.5-1,17.1-1s8.5,0,17.1,0s8.5,0,17.1,0
		c8.5,0,8.5,0,17.1,0c8.5,0,8.5,1,17.1,1c8.5,0,8.5,0,17.1,0c8.5,0,8.5,0,17.1,0c8.5,0,8.5,0,17.1,0c8.5,0,8.5,0,17.1,0
		c8.5,0,8.5,0,17.1,0c8.5,0,8.5,0,17.1,0s8.5,0,17.1,0c8.5,0,8.5,0,17.1,0c8.5,0,8.5,0,17.1,0c8.5,0,8.5-1,17.1-1
		c8.5,0,8.5,1,17.1,1c8.5,0,8.5,0,17.1,0c8.5,0,8.5-423.2,17.1-423.2s8.5-20,17.1-20s8.5,2.2,17.1,2.2c8.5,0,8.5,18.9,17.1,18.9
		s8.5,38.7,17.1,38.7c8.5,0,8.5,66.8,17.1,66.8c8.5,0,8.5,44.1,17.1,44.1s8.5,30.4,17.1,30.4c8.5,0,8.5-2.4,17.1-2.4
		s8.5,9.9,17.1,9.9c8.5,0,8.5,3.7,17.1,3.7s8.5,18.4,17.1,18.4c8.5,0,8.5-2.1,17.1-2.1s8.5-27.1,17.1-27.1c8.5,0,8.5-50.1,17.1-50.1
		s8.5-24.4,17.1-24.4c8.5,0,8.5-46.1,17.1-46.1v0c-8.5,0-8.5,46.1-17.1,46.1c-8.5,0-8.5,24.4-17.1,24.4s-8.5,50.1-17.1,50.1
		c-8.5,0-8.5,27.1-17.1,27.1s-8.5,2.1-17.1,2.1c-8.5,0-8.5-18.4-17.1-18.4s-8.5-3.7-17.1-3.7c-8.5,0-8.5-9.9-17.1-9.9
		s-8.5,2.4-17.1,2.4c-8.5,0-8.5-30.4-17.1-30.4s-8.5-44-17.1-44c-8.5,0-8.5-66.8-17.1-66.8c-8.5,0-8.5-38.6-17.1-38.6
		s-8.5-18.7-17.1-18.7c-8.5,0-8.5-1.9-17.1-1.9s-8.5,20.3-17.1,20.3S513.4,580,504.9,580c-8.5,0-8.5,0-17.1,0c-8.5,0-8.5-1-17.1-1
		c-8.5,0-8.5,1-17.1,1c-8.5,0-8.5,0-17.1,0c-8.5,0-8.5,0-17.1,0c-8.5,0-8.5,0-17.1,0s-8.5,0-17.1,0c-8.5,0-8.5,0-17.1,0
		c-8.5,0-8.5,0-17.1,0c-8.5,0-8.5,0-17.1,0c-8.5,0-8.5,0-17.1,0c-8.5,0-8.5,0-17.1,0c-8.5,0-8.5-1-17.1-1c-8.5,0-8.5,0-17.1,0
		c-8.5,0-8.5,0-17.1,0s-8.5,0-17.1,0s-8.5,1-17.1,1s-8.5,0-17.1,0s-8.5,0-17.1,0s-8.5-1-17.1-1s-8.5,1-17.1,1s-8.5,0-17.1,0
		c-8.5,0-8.5,0-17.1,0s-8.5,0-17.1,0s-8.5,0-17.1,0s-8.5,0-17.1,0s-8.5,0-17.1,0s-8.5,0-17.1,0S18.5,580,10,580z"/>
	<path class="st6" d="M10,580c8.5,0,8.5,0,17.1,0s8.5,0,17.1,0s8.5,0,17.1,0s8.5,0,17.1,0s8.5,0,17.1,0s8.5,0,17.1,0s8.5,0,17.1,0
		c8.5,0,8.5,0,17.1,0s8.5-1,17.1-1s8.5,1,17.1,1s8.5,0,17.1,0s8.5,0,17.1,0s8.5-1,17.1-1s8.5,0,17.1,0s8.5,0,17.1,0
		c8.5,0,8.5,0,17.1,0c8.5,0,8.5,1,17.1,1c8.5,0,8.5,0,17.1,0c8.5,0,8.5,0,17.1,0c8.5,0,8.5,0,17.1,0c8.5,0,8.5,0,17.1,0
		c8.5,0,8.5,0,17.1,0c8.5,0,8.5,0,17.1,0s8.5,0,17.1,0c8.5,0,8.5,0,17.1,0c8.5,0,8.5,0,17.1,0c8.5,0,8.5-1,17.1-1
		c8.5,0,8.5,1,17.1,1c8.5,0,8.5-1,17.1-1c8.5,0,8.5-1,17.1-1s8.5-442.4,17.1-442.4s8.5,1.7,17.1,1.7c8.5,0,8.5,18.4,17.1,18.4
		s8.5,38.6,17.1,38.6c8.5,0,8.5,64.6,17.1,64.6c8.5,0,8.5,42.1,17.1,42.1s8.5,27.2,17.1,27.2c8.5,0,8.5-3.9,17.1-3.9s8.5,4,17.1,4
		c8.5,0,8.5-0.8,17.1-0.8s8.5,12,17.1,12c8.5,0,8.5-3.1,17.1-3.1s8.5-30,17.1-30c8.5,0,8.5-42,17.1-42s8.5-34.9,17.1-34.9
		c8.5,0,8.5-44.6,17.1-44.6v31.8c-8.5,0-8.5,46.1-17.1,46.1c-8.5,0-8.5,24.4-17.1,24.4s-8.5,50.1-17.1,50.1
		c-8.5,0-8.5,27.1-17.1,27.1s-8.5,2.1-17.1,2.1c-8.5,0-8.5-18.4-17.1-18.4s-8.5-3.7-17.1-3.7c-8.5,0-8.5-9.9-17.1-9.9
		s-8.5,2.4-17.1,2.4c-8.5,0-8.5-30.4-17.1-30.4s-8.5-44.1-17.1-44.1c-8.5,0-8.5-66.8-17.1-66.8c-8.5,0-8.5-38.7-17.1-38.7
		s-8.5-18.9-17.1-18.9c-8.5,0-8.5-2.2-17.1-2.2S530.5,578,522,578s-8.5,1-17.1,1c-8.5,0-8.5,1-17.1,1c-8.5,0-8.5-1-17.1-1
		c-8.5,0-8.5,1-17.1,1c-8.5,0-8.5,0-17.1,0c-8.5,0-8.5,0-17.1,0c-8.5,0-8.5,0-17.1,0s-8.5,0-17.1,0c-8.5,0-8.5,0-17.1,0
		c-8.5,0-8.5,0-17.1,0c-8.5,0-8.5,0-17.1,0c-8.5,0-8.5,0-17.1,0c-8.5,0-8.5,0-17.1,0c-8.5,0-8.5-1-17.1-1c-8.5,0-8.5,0-17.1,0
		c-8.5,0-8.5,0-17.1,0s-8.5,0-17.1,0s-8.5,1-17.1,1s-8.5,0-17.1,0s-8.5,0-17.1,0s-8.5-1-17.1-1s-8.5,1-17.1,1s-8.5,0-17.1,0
		c-8.5,0-8.5,0-17.1,0s-8.5,0-17.1,0s-8.5,0-17.1,0s-8.5,0-17.1,0s-8.5,0-17.1,0s-8.5,0-17.1,0S18.5,580,10,580z"/>
	<path class="st6" d="M10,580c8.5,0,8.5,0,17.1,0s8.5,0,17.1,0s8.5,0,17.1,0s8.5,0,17.1,0s8.5,0,17.1,0s8.5,0,17.1,0s8.5,0,17.1,0
		c8.5,0,8.5,0,17.1,0s8.5-1,17.1-1s8.5,1,17.1,1s8.5,0,17.1,0s8.5,0,17.1,0s8.5-1,17.1-1s8.5,0,17.1,0s8.5,0,17.1,0
		c8.5,0,8.5,0,17.1,0c8.5,0,8.5,1,17.1,1c8.5,0,8.5,0,17.1,0c8.5,0,8.5,0,17.1,0c8.5,0,8.5,0,17.1,0c8.5,0,8.5,0,17.1,0
		c8.5,0,8.5,0,17.1,0c8.5,0,8.5,0,17.1,0s8.5,0,17.1,0c8.5,0,8.5,0,17.1,0c8.5,0,8.5,0,17.1,0c8.5,0,8.5-1,17.1-1
		c8.5,0,8.5,1,17.1,1c8.5,0,8.5-1,17.1-1c8.5,0,8.5-2,17.1-2s8.5-1,17.1-1s8.5,4,17.1,4c8.5,0,8.5,0,17.1,0s8.5,0,17.1,0
		c8.5,0,8.5,0,17.1,0c8.5,0,8.5-287,17.1-287s8.5,27.6,17.1,27.6c8.5,0,8.5-4.2,17.1-4.2s8.5,4.2,17.1,4.2c8.5,0,8.5-0.7,17.1-0.7
		s8.5,12,17.1,12c8.5,0,8.5-3.6,17.1-3.6s8.5-30.4,17.1-30.4c8.5,0,8.5-42.6,17.1-42.6s8.5-36.8,17.1-36.8c8.5,0,8.5-44.2,17.1-44.2
		v9.7c-8.5,0-8.5,44.6-17.1,44.6c-8.5,0-8.5,34.9-17.1,34.9s-8.5,42-17.1,42c-8.5,0-8.5,30-17.1,30s-8.5,3.1-17.1,3.1
		c-8.5,0-8.5-12-17.1-12s-8.5,0.8-17.1,0.8c-8.5,0-8.5-4-17.1-4s-8.5,3.9-17.1,3.9c-8.5,0-8.5-27.2-17.1-27.2s-8.5,280-17.1,280
		c-8.5,0-8.5,0-17.1,0c-8.5,0-8.5,0-17.1,0s-8.5,0-17.1,0c-8.5,0-8.5-4-17.1-4s-8.5,1-17.1,1s-8.5,2-17.1,2c-8.5,0-8.5,1-17.1,1
		c-8.5,0-8.5-1-17.1-1c-8.5,0-8.5,1-17.1,1c-8.5,0-8.5,0-17.1,0c-8.5,0-8.5,0-17.1,0c-8.5,0-8.5,0-17.1,0s-8.5,0-17.1,0
		c-8.5,0-8.5,0-17.1,0c-8.5,0-8.5,0-17.1,0c-8.5,0-8.5,0-17.1,0c-8.5,0-8.5,0-17.1,0c-8.5,0-8.5,0-17.1,0c-8.5,0-8.5-1-17.1-1
		c-8.5,0-8.5,0-17.1,0c-8.5,0-8.5,0-17.1,0s-8.5,0-17.1,0s-8.5,1-17.1,1s-8.5,0-17.1,0s-8.5,0-17.1,0s-8.5-1-17.1-1s-8.5,1-17.1,1
		s-8.5,0-17.1,0c-8.5,0-8.5,0-17.1,0s-8.5,0-17.1,0s-8.5,0-17.1,0s-8.5,0-17.1,0s-8.5,0-17.1,0s-8.5,0-17.1,0S18.5,580,10,580z"/>
	<path class="st6" d="M10,505.4c8.5,0,8.5-6.4,17.1-6.4s8.5-6.6,17.1-6.6s8.5-12.2,17.1-12.2s8.5-25.7,17.1-25.7s8.5-22.1,17.1-22.1
		s8.5,16,17.1,16s8.5-0.2,17.1-0.2c8.5,0,8.5-10.2,17.1-10.2s8.5,11.1,17.1,11.1s8.5-4.5,17.1-4.5s8.5-19.2,17.1-19.2s8.5-1,17.1-1
		s8.5-10.7,17.1-10.7s8.5-33.3,17.1-33.3s8.5-25.2,17.1-25.2c8.5,0,8.5-11.4,17.1-11.4c8.5,0,8.5-33.6,17.1-33.6
		c8.5,0,8.5-10.3,17.1-10.3c8.5,0,8.5-41.6,17.1-41.6c8.5,0,8.5-35.8,17.1-35.8c8.5,0,8.5-70.7,17.1-70.7c8.5,0,8.5-8.8,17.1-8.8
		c8.5,0,8.5-7.5,17.1-7.5s8.5,10.4,17.1,10.4c8.5,0,8.5-51.6,17.1-51.6c8.5,0,8.5-30.6,17.1-30.6c8.5,0,8.5,8.1,17.1,8.1
		c8.5,0,8.5,21.2,17.1,21.2c8.5,0,8.5,38.6,17.1,38.6c8.5,0,8.5,23.6,17.1,23.6s8.5-21.2,17.1-21.2s8.5,1.9,17.1,1.9
		c8.5,0,8.5,18.6,17.1,18.6s8.5,38.8,17.1,38.8c8.5,0,8.5,64.6,17.1,64.6c8.5,0,8.5,34.1,17.1,34.1s8.5,27.6,17.1,27.6
		c8.5,0,8.5-4.3,17.1-4.3s8.5,4.2,17.1,4.2c8.5,0,8.5-0.7,17.1-0.7s8.5,11.9,17.1,11.9c8.5,0,8.5-3.6,17.1-3.6s8.5-30.4,17.1-30.4
		c8.5,0,8.5-42.6,17.1-42.6s8.5-36.7,17.1-36.7c8.5,0,8.5-44.3,17.1-44.3v0.2c-8.5,0-8.5,44.2-17.1,44.2c-8.5,0-8.5,36.8-17.1,36.8
		s-8.5,42.6-17.1,42.6c-8.5,0-8.5,30.4-17.1,30.4s-8.5,3.6-17.1,3.6c-8.5,0-8.5-12-17.1-12s-8.5,0.7-17.1,0.7
		c-8.5,0-8.5-4.2-17.1-4.2s-8.5,4.2-17.1,4.2c-8.5,0-8.5-27.6-17.1-27.6s-8.5-34.1-17.1-34.1c-8.5,0-8.5-64.6-17.1-64.6
		c-8.5,0-8.5-38.6-17.1-38.6s-8.5-18.4-17.1-18.4c-8.5,0-8.5-1.7-17.1-1.7s-8.5,21.2-17.1,21.2s-8.5-23.5-17.1-23.5
		c-8.5,0-8.5-38.3-17.1-38.3c-8.5,0-8.5-21.4-17.1-21.4c-8.5,0-8.5-8.1-17.1-8.1c-8.5,0-8.5,30.5-17.1,30.5c-8.5,0-8.5,52-17.1,52
		c-8.5,0-8.5-10-17.1-10s-8.5,7.4-17.1,7.4c-8.5,0-8.5,8.8-17.1,8.8c-8.5,0-8.5,70.9-17.1,70.9c-8.5,0-8.5,36.3-17.1,36.3
		c-8.5,0-8.5,41.6-17.1,41.6c-8.5,0-8.5,11.3-17.1,11.3c-8.5,0-8.5,34.4-17.1,34.4c-8.5,0-8.5,13.6-17.1,13.6c-8.5,0-8.5,26-17.1,26
		s-8.5,34.2-17.1,34.2s-8.5,12.6-17.1,12.6s-8.5,1.6-17.1,1.6s-8.5,18.2-17.1,18.2s-8.5,5-17.1,5s-8.5-12-17.1-12s-8.5,10-17.1,10
		c-8.5,0-8.5,3.9-17.1,3.9s-8.5-19.2-17.1-19.2s-8.5,21.5-17.1,21.5s-8.5,25.7-17.1,25.7s-8.5,11-17.1,11s-8.5,6-17.1,6
		s-8.5,6.3-17.1,6.3V505.4z"/>
	<g id="xAxis" transform="translate(0,560)">
		<path class="st7" d="M10,20h785"/>
		<g transform="translate(34.130434782608695,0)">
			<line class="st7" x1="10" y1="20" x2="10" y2="26"/>
			<text transform="matrix(1 0 0 1 -2.5122 36.1)" class="st8 st9">1,975</text>
		</g>
		<g transform="translate(119.45652173913044,0)">
			<line class="st7" x1="10" y1="20" x2="10" y2="26"/>
			<text transform="matrix(1 0 0 1 -2.5122 36.1)" class="st8 st9">1,980</text>
		</g>
		<g transform="translate(204.78260869565216,0)">
			<line class="st7" x1="10" y1="20" x2="10" y2="26"/>
			<text transform="matrix(1 0 0 1 -2.5122 36.1)" class="st8 st9">1,985</text>
		</g>
		<g transform="translate(290.1086956521739,0)">
			<line class="st7" x1="10" y1="20" x2="10" y2="26"/>
			<text transform="matrix(1 0 0 1 -2.5122 36.1)" class="st8 st9">1,990</text>
		</g>
		<g transform="translate(375.4347826086957,0)">
			<line class="st7" x1="10" y1="20" x2="10" y2="26"/>
			<text transform="matrix(1 0 0 1 -2.5122 36.1)" class="st8 st9">1,995</text>
		</g>
		<g transform="translate(460.76086956521743,0)">
			<line class="st7" x1="10" y1="20" x2="10" y2="26"/>
			<text transform="matrix(1 0 0 1 -2.5122 36.1)" class="st8 st9">2,000</text>
		</g>
		<g transform="translate(546.0869565217391,0)">
			<line class="st7" x1="10" y1="20" x2="10" y2="26"/>
			<text transform="matrix(1 0 0 1 -2.5122 36.1)" class="st8 st9">2,005</text>
		</g>
		<g transform="translate(631.4130434782609,0)">
			<line class="st7" x1="10" y1="20" x2="10" y2="26"/>
			<text transform="matrix(1 0 0 1 -2.5122 36.1)" class="st8 st9">2,010</text>
		</g>
		<g transform="translate(716.7391304347826,0)">
			<line class="st7" x1="10" y1="20" x2="10" y2="26"/>
			<text transform="matrix(1 0 0 1 -2.5122 36.1)" class="st8 st9">2,015</text>
		</g>
	</g>
	<text transform="matrix(1 0 0 1 769.6406 576)" class="st10 st11 st12">Year</text>
	<text transform="matrix(1 0 0 1 14 30.2949)" class="st10 st11 st12">Revenues in millions</text>
	<g id="labels">
		<text transform="matrix(1 0 0 1 75.0356 563.41)" class="st11 st9">8 - Track</text>
		<text transform="matrix(1 0 0 1 279.264 519.233)" class="st11 st9">Cassette</text>
		<text transform="matrix(1 0 0 1 297.0028 464.7005)" class="st11 st9">Cassette Single</text>
		<text transform="matrix(1 0 0 1 463.5392 323.6752)" class="st11 st9">CD</text>
		<text transform="matrix(1 0 0 1 395.9519 167.2322)" class="st11 st9">CD Single</text>
		<text transform="matrix(1 0 0 1 651.9642 480.4198)" class="st11 st9">Download Album</text>
		<text transform="matrix(1 0 0 1 552.9247 360.3922)" class="st11 st9">Download Music Video</text>
		<text transform="matrix(1 0 0 1 635.2651 417.2124)" class="st11 st9">Download Single</text>
		<text transform="matrix(1 0 0 1 530.1641 187.1625)" class="st11 st9">DVD Audio</text>
		<text transform="matrix(1 0 0 1 627.7973 375.537)" class="st11 st9">Kiosk</text>
		<text transform="matrix(1 0 0 1 650.7178 508.4848)" class="st11 st9">Limited Tier Paid Subscription</text>
		<text transform="matrix(1 0 0 1 80.8778 485.7943)" class="st11 st9">LP/EP</text>
		<text transform="matrix(1 0 0 1 484.9299 149.0665)" class="st11 st9">Music Video (Physical)</text>
		<text transform="matrix(1 0 0 1 610.5566 456.6907)" class="st11 st9">On-Demand Streaming (Ad-Supported)</text>
		<text transform="matrix(1 0 0 1 687.1635 421.2403)" class="st11 st9">Other Ad-Supported Streaming</text>
		<text transform="matrix(1 0 0 1 734.9951 429.6342)" class="st11 st9">Other Digital</text>
		<text transform="matrix(1 0 0 1 10 513.342)" class="st11 st9">Other Tapes</text>
		<text transform="matrix(1 0 0 1 709.9902 324.4058)" class="st11 st9">Paid Subscription</text>
		<text transform="matrix(1 0 0 1 534.0992 216.228)" class="st11 st9">Ringtones &amp; Ringbacks</text>
		<text transform="matrix(1 0 0 1 507.789 157.3088)" class="st11 st9">SACD</text>
		<text transform="matrix(1 0 0 1 706.5407 246.2372)" class="st11 st9">SoundExchange Distributions</text>
		<text transform="matrix(1 0 0 1 739.0432 223.5667)" class="st11 st9">Synchronization</text>
		<text transform="matrix(1 0 0 1 84.1418 454.5455)" class="st11 st9">Vinyl Single</text>
	</g>
</g>
<g id="Calque_2">
</g>
<g id="Calque_3">
</g>
<g id="Calque_4">
</g>
</svg>
