<svg xmlns="http://www.w3.org/2000/svg" width="805" height="600"><rect width="805" height="600" x="0" y="0" fill="#FFFFFF" id="background"/><g transform="translate(10,10)" id="visualization"><g><rect x="390" y="70.00000000000009" height="4.930555555555543" width="5" fill="black"><title>Yeast: 1</title></rect><rect x="390" y="79.93055555555563" height="4.930555555555543" width="5" fill="black"><title>Fortified Wine: 1</title></rect><rect x="390" y="89.86111111111117" height="4.930555555555543" width="5" fill="black"><title>Aged White Wine: 1</title></rect><rect x="390" y="99.79166666666671" height="4.930555555555543" width="5" fill="black"><title>Trichloroanisole: 1</title></rect><rect x="390" y="109.72222222222226" height="4.930555555555543" width="5" fill="black"><title>Oxygen: 1</title></rect><rect x="390" y="119.6527777777778" height="4.930555555555543" width="5" fill="black"><title>Heat: 1</title></rect><rect x="390" y="129.58333333333334" height="4.930555555555543" width="5" fill="black"><title>Brett: 1</title></rect><rect x="780" y="2.2737367544323206e-13" height="4.930555555555557" width="5" fill="black"><title>Honeysuckle: 1</title></rect><rect x="780" y="9.930555555555785" height="4.930555555555571" width="5" fill="black"><title>Hawthorn: 1</title></rect><rect x="780" y="19.861111111111356" height="4.930555555555543" width="5" fill="black"><title>Orange Blossom: 1</title></rect><rect x="780" y="29.7916666666669" height="4.930555555555543" width="5" fill="black"><title>Linden: 1</title></rect><rect x="780" y="39.72222222222244" height="4.930555555555543" width="5" fill="black"><title>Jasmine: 1</title></rect><rect x="780" y="49.652777777777985" height="4.930555555555543" width="5" fill="black"><title>Acacia: 1</title></rect><rect x="780" y="59.58333333333353" height="4.930555555555543" width="5" fill="black"><title>Violet: 1</title></rect><rect x="780" y="69.51388888888907" height="4.930555555555543" width="5" fill="black"><title>Lavender: 1</title></rect><rect x="780" y="79.44444444444461" height="4.930555555555543" width="5" fill="black"><title>Rose: 1</title></rect><rect x="780" y="89.37500000000016" height="4.930555555555543" width="5" fill="black"><title>Young White Wine: 1</title></rect><rect x="780" y="99.3055555555557" height="4.930555555555543" width="5" fill="black"><title>Aged White Wine: 1</title></rect><rect x="780" y="109.23611111111124" height="4.930555555555543" width="5" fill="black"><title>Aged Red Wine: 1</title></rect><rect x="780" y="119.16666666666679" height="4.930555555555543" width="5" fill="black"><title>Bread: 1</title></rect><rect x="780" y="129.09722222222234" height="4.930555555555543" width="5" fill="black"><title>Yoghurt: 1</title></rect><rect x="780" y="139.02777777777789" height="4.930555555555543" width="5" fill="black"><title>Butter: 1</title></rect><rect x="780" y="148.95833333333343" height="4.930555555555543" width="5" fill="black"><title>Smoked: 1</title></rect><rect x="780" y="158.88888888888897" height="4.930555555555543" width="5" fill="black"><title>Coffee: 1</title></rect><rect x="780" y="168.8194444444445" height="4.930555555555543" width="5" fill="black"><title>Toast: 1</title></rect><rect x="780" y="178.75000000000006" height="4.930555555555543" width="5" fill="black"><title>Dry Apricot: 1</title></rect><rect x="780" y="188.6805555555556" height="4.930555555555543" width="5" fill="black"><title>Orange Peel: 1</title></rect><rect x="780" y="198.61111111111114" height="4.930555555555543" width="5" fill="black"><title>Prune: 1</title></rect><rect x="780" y="208.54166666666669" height="4.930555555555543" width="5" fill="black"><title>Honey: 1</title></rect><rect x="780" y="218.47222222222223" height="4.930555555555543" width="5" fill="black"><title>Chocolate: 1</title></rect><rect x="780" y="228.40277777777777" height="4.930555555555543" width="5" fill="black"><title>Animal: 1</title></rect><rect x="780" y="238.33333333333331" height="4.930555555555543" width="5" fill="black"><title>Leather: 1</title></rect><rect x="780" y="248.26388888888886" height="4.930555555555543" width="5" fill="black"><title>Musk: 1</title></rect><rect x="780" y="258.1944444444444" height="4.930555555555543" width="5" fill="black"><title>Corked: 1</title></rect><rect x="780" y="268.12499999999994" height="4.930555555555543" width="5" fill="black"><title>Sherry: 1</title></rect><rect x="780" y="278.0555555555555" height="4.930555555555543" width="5" fill="black"><title>Madeira: 1</title></rect><rect x="780" y="287.98611111111103" height="4.930555555555543" width="5" fill="black"><title>Ethyl Acetate: 1</title></rect><rect x="780" y="297.9166666666666" height="4.930555555555543" width="5" fill="black"><title>Acetic Acid: 1</title></rect><rect x="780" y="307.8472222222221" height="4.930555555555543" width="5" fill="black"><title>Dimethyl Sulfide: 1</title></rect><rect x="780" y="317.77777777777766" height="4.930555555555543" width="5" fill="black"><title>Ethyl Mercaptan: 1</title></rect><rect x="780" y="327.7083333333332" height="4.930555555555543" width="5" fill="black"><title>Hudrogen Sulfide: 1</title></rect><rect x="780" y="337.63888888888874" height="4.930555555555543" width="5" fill="black"><title>Sulfer Dioxide: 1</title></rect><rect x="780" y="347.5694444444443" height="4.930555555555543" width="5" fill="black"><title>Ethyl-phenol: 1</title></rect><rect x="390" y="139.51388888888889" height="9.861111111111086" width="5" fill="black"><title>Malolactic Fermentation: 2</title></rect><rect x="390" y="154.37499999999997" height="9.861111111111086" width="5" fill="black"><title>Late Harvest / Botrytis: 2</title></rect><rect x="390" y="169.23611111111106" height="9.861111111111086" width="5" fill="black"><title>Volatile Acidity: 2</title></rect><rect x="780" y="357.49999999999983" height="9.861111111111143" width="5" fill="black"><title>Vegetables: 2</title></rect><rect x="780" y="372.361111111111" height="9.861111111111086" width="5" fill="black"><title>Dried Herbs: 2</title></rect><rect x="780" y="387.22222222222206" height="9.861111111111086" width="5" fill="black"><title>Leaves: 2</title></rect><rect x="390" y="184.09722222222214" height="14.791666666666657" width="5" fill="black"><title>Mineral: 3</title></rect><rect x="780" y="402.08333333333314" height="14.791666666666686" width="5" fill="black"><title>Nuts: 3</title></rect><rect x="390" y="203.8888888888888" height="19.722222222222285" width="5" fill="black"><title>Aged Red Wine: 4</title></rect><rect x="390" y="228.6111111111111" height="19.72222222222217" width="5" fill="black"><title>Sulfides: 4</title></rect><rect x="780" y="421.87499999999983" height="19.72222222222223" width="5" fill="black"><title>Citrus: 4</title></rect><rect x="780" y="446.59722222222206" height="19.72222222222223" width="5" fill="black"><title>Red Berries: 4</title></rect><rect x="780" y="471.3194444444443" height="19.72222222222223" width="5" fill="black"><title>Fresh Herbs: 4</title></rect><rect x="780" y="496.0416666666665" height="19.72222222222217" width="5" fill="black"><title>Woods: 4</title></rect><rect x="780" y="520.7638888888887" height="24.65277777777783" width="5" fill="black"><title>Tropical Fruits: 5</title></rect><rect x="390" y="253.33333333333326" height="29.583333333333314" width="5" fill="black"><title>Fruits Red Wine: 6</title></rect><rect x="780" y="550.4166666666665" height="29.58333333333337" width="5" fill="black"><title>Tree Fruits: 6</title></rect><rect x="390" y="287.9166666666666" height="44.375" width="5" fill="black"><title>Floral: 9</title></rect><rect x="390" y="337.2916666666666" height="49.30555555555554" width="5" fill="black"><title>Vegetal: 10</title></rect><rect x="390" y="391.5972222222221" height="49.30555555555554" width="5" fill="black"><title>Oak Aging: 10</title></rect><rect x="0" y="107.5" height="49.30555555555554" width="5" fill="black"><title>Faults: 10</title></rect><rect x="390" y="445.90277777777766" height="64.09722222222223" width="5" fill="black"><title>Fruits White Wine: 13</title></rect><rect x="0" y="161.80555555555554" height="118.33333333333337" width="5" fill="black"><title>Bouquet: 24</title></rect><rect x="0" y="285.1388888888889" height="187.3611111111111" width="5" fill="black"><title>Aromas: 38</title></rect></g><g fill="none" stroke-opacity="1"><g style="mix-blend-mode: multiply;"><path d="M5,440.45138888888886C197.5,440.45138888888886,197.5,477.95138888888874,390,477.95138888888874" stroke="rgb(66, 136, 181)" stroke-width="64.09722222222221"/><title>Aromas → Fruits White Wine: 13</title></g><g style="mix-blend-mode: multiply;"><path d="M5,299.9305555555556C197.5,299.9305555555556,197.5,268.12499999999994,390,268.12499999999994" stroke="rgb(66, 136, 181)" stroke-width="29.583333333333332"/><title>Aromas → Fruits Red Wine: 6</title></g><g style="mix-blend-mode: multiply;"><path d="M5,336.90972222222223C197.5,336.90972222222223,197.5,310.1041666666666,390,310.1041666666666" stroke="rgb(66, 136, 181)" stroke-width="44.375"/><title>Aromas → Floral: 9</title></g><g style="mix-blend-mode: multiply;"><path d="M5,383.75C197.5,383.75,197.5,361.94444444444434,390,361.94444444444434" stroke="rgb(66, 136, 181)" stroke-width="49.30555555555556"/><title>Aromas → Vegetal: 10</title></g><g style="mix-blend-mode: multiply;"><path d="M5,203.71527777777774C197.5,203.71527777777774,197.5,191.4930555555555,390,191.4930555555555" stroke="rgb(74, 108, 174)" stroke-width="14.791666666666666"/><title>Bouquet → Mineral: 3</title></g><g style="mix-blend-mode: multiply;"><path d="M5,164.27083333333331C197.5,164.27083333333331,197.5,72.46527777777786,390,72.46527777777786" stroke="rgb(74, 108, 174)" stroke-width="4.930555555555555"/><title>Bouquet → Yeast: 1</title></g><g style="mix-blend-mode: multiply;"><path d="M5,181.52777777777771C197.5,181.52777777777771,197.5,144.44444444444443,390,144.44444444444443" stroke="rgb(74, 108, 174)" stroke-width="9.86111111111111"/><title>Bouquet → Malolactic Fermentation: 2</title></g><g style="mix-blend-mode: multiply;"><path d="M5,255.48611111111106C197.5,255.48611111111106,197.5,416.2499999999999,390,416.2499999999999" stroke="rgb(74, 108, 174)" stroke-width="49.30555555555556"/><title>Bouquet → Oak Aging: 10</title></g><g style="mix-blend-mode: multiply;"><path d="M5,191.38888888888883C197.5,191.38888888888883,197.5,159.30555555555551,390,159.30555555555551" stroke="rgb(74, 108, 174)" stroke-width="9.86111111111111"/><title>Bouquet → Late Harvest / Botrytis: 2</title></g><g style="mix-blend-mode: multiply;"><path d="M5,169.20138888888886C197.5,169.20138888888886,197.5,82.3958333333334,390,82.3958333333334" stroke="rgb(74, 108, 174)" stroke-width="4.930555555555555"/><title>Bouquet → Fortified Wine: 1</title></g><g style="mix-blend-mode: multiply;"><path d="M5,174.1319444444444C197.5,174.1319444444444,197.5,92.32638888888894,390,92.32638888888894" stroke="rgb(74, 108, 174)" stroke-width="4.930555555555555"/><title>Bouquet → Aged White Wine: 1</title></g><g style="mix-blend-mode: multiply;"><path d="M5,220.97222222222217C197.5,220.97222222222217,197.5,213.74999999999991,390,213.74999999999991" stroke="rgb(74, 108, 174)" stroke-width="19.72222222222222"/><title>Bouquet → Aged Red Wine: 4</title></g><g style="mix-blend-mode: multiply;"><path d="M5,109.96527777777777C197.5,109.96527777777777,197.5,102.25694444444449,390,102.25694444444449" stroke="rgb(94, 79, 162)" stroke-width="4.930555555555555"/><title>Faults → Trichloroanisole: 1</title></g><g style="mix-blend-mode: multiply;"><path d="M5,114.89583333333333C197.5,114.89583333333333,197.5,112.18750000000003,390,112.18750000000003" stroke="rgb(94, 79, 162)" stroke-width="4.930555555555555"/><title>Faults → Oxygen: 1</title></g><g style="mix-blend-mode: multiply;"><path d="M5,119.82638888888889C197.5,119.82638888888889,197.5,122.11805555555557,390,122.11805555555557" stroke="rgb(94, 79, 162)" stroke-width="4.930555555555555"/><title>Faults → Heat: 1</title></g><g style="mix-blend-mode: multiply;"><path d="M5,132.15277777777777C197.5,132.15277777777777,197.5,174.1666666666666,390,174.1666666666666" stroke="rgb(94, 79, 162)" stroke-width="9.86111111111111"/><title>Faults → Volatile Acidity: 2</title></g><g style="mix-blend-mode: multiply;"><path d="M5,146.94444444444446C197.5,146.94444444444446,197.5,238.4722222222222,390,238.4722222222222" stroke="rgb(94, 79, 162)" stroke-width="19.72222222222222"/><title>Faults → Sulfides: 4</title></g><g style="mix-blend-mode: multiply;"><path d="M5,124.75694444444444C197.5,124.75694444444444,197.5,132.04861111111111,390,132.04861111111111" stroke="rgb(94, 79, 162)" stroke-width="4.930555555555555"/><title>Faults → Brett: 1</title></g><g style="mix-blend-mode: multiply;"><path d="M395,455.76388888888874C587.5,455.76388888888874,587.5,431.7361111111109,780,431.7361111111109" stroke="rgb(252, 172, 99)" stroke-width="19.72222222222222"/><title>Fruits White Wine → Citrus: 4</title></g><g style="mix-blend-mode: multiply;"><path d="M395,500.13888888888874C587.5,500.13888888888874,587.5,570.1388888888887,780,570.1388888888887" stroke="rgb(252, 172, 99)" stroke-width="19.72222222222222"/><title>Fruits White Wine → Tree Fruits: 4</title></g><g style="mix-blend-mode: multiply;"><path d="M395,477.9513888888888C587.5,477.9513888888888,587.5,533.0902777777776,780,533.0902777777776" stroke="rgb(252, 172, 99)" stroke-width="24.65277777777778"/><title>Fruits White Wine → Tropical Fruits: 5</title></g><g style="mix-blend-mode: multiply;"><path d="M395,263.19444444444434C587.5,263.19444444444434,587.5,456.45833333333314,780,456.45833333333314" stroke="rgb(248, 142, 83)" stroke-width="19.72222222222222"/><title>Fruits Red Wine → Red Berries: 4</title></g><g style="mix-blend-mode: multiply;"><path d="M395,277.98611111111103C587.5,277.98611111111103,587.5,555.3472222222221,780,555.3472222222221" stroke="rgb(248, 142, 83)" stroke-width="9.86111111111111"/><title>Fruits Red Wine → Tree Fruits: 2</title></g><g style="mix-blend-mode: multiply;"><path d="M395,290.38194444444434C587.5,290.38194444444434,587.5,2.465277777778005,780,2.465277777778005" stroke="rgb(228, 86, 73)" stroke-width="4.930555555555555"/><title>Floral → Honeysuckle: 1</title></g><g style="mix-blend-mode: multiply;"><path d="M395,295.3124999999999C587.5,295.3124999999999,587.5,12.395833333333563,780,12.395833333333563" stroke="rgb(228, 86, 73)" stroke-width="4.930555555555555"/><title>Floral → Hawthorn: 1</title></g><g style="mix-blend-mode: multiply;"><path d="M395,300.24305555555543C587.5,300.24305555555543,587.5,22.326388888889134,780,22.326388888889134" stroke="rgb(228, 86, 73)" stroke-width="4.930555555555555"/><title>Floral → Orange Blossom: 1</title></g><g style="mix-blend-mode: multiply;"><path d="M395,305.173611111111C587.5,305.173611111111,587.5,32.25694444444468,780,32.25694444444468" stroke="rgb(228, 86, 73)" stroke-width="4.930555555555555"/><title>Floral → Linden: 1</title></g><g style="mix-blend-mode: multiply;"><path d="M395,310.1041666666665C587.5,310.1041666666665,587.5,42.18750000000022,780,42.18750000000022" stroke="rgb(228, 86, 73)" stroke-width="4.930555555555555"/><title>Floral → Jasmine: 1</title></g><g style="mix-blend-mode: multiply;"><path d="M395,315.03472222222206C587.5,315.03472222222206,587.5,52.11805555555576,780,52.11805555555576" stroke="rgb(228, 86, 73)" stroke-width="4.930555555555555"/><title>Floral → Acacia: 1</title></g><g style="mix-blend-mode: multiply;"><path d="M395,319.9652777777776C587.5,319.9652777777776,587.5,62.048611111111306,780,62.048611111111306" stroke="rgb(228, 86, 73)" stroke-width="4.930555555555555"/><title>Floral → Violet: 1</title></g><g style="mix-blend-mode: multiply;"><path d="M395,324.89583333333314C587.5,324.89583333333314,587.5,71.97916666666684,780,71.97916666666684" stroke="rgb(228, 86, 73)" stroke-width="4.930555555555555"/><title>Floral → Lavender: 1</title></g><g style="mix-blend-mode: multiply;"><path d="M395,329.8263888888887C587.5,329.8263888888887,587.5,81.90972222222238,780,81.90972222222238" stroke="rgb(228, 86, 73)" stroke-width="4.930555555555555"/><title>Floral → Rose: 1</title></g><g style="mix-blend-mode: multiply;"><path d="M395,342.2222222222221C587.5,342.2222222222221,587.5,362.4305555555554,780,362.4305555555554" stroke="rgb(137, 207, 165)" stroke-width="9.86111111111111"/><title>Vegetal → Vegetables: 2</title></g><g style="mix-blend-mode: multiply;"><path d="M395,376.7361111111109C587.5,376.7361111111109,587.5,481.1805555555554,780,481.1805555555554" stroke="rgb(137, 207, 165)" stroke-width="19.72222222222222"/><title>Vegetal → Fresh Herbs: 4</title></g><g style="mix-blend-mode: multiply;"><path d="M395,352.0833333333332C587.5,352.0833333333332,587.5,377.2916666666665,780,377.2916666666665" stroke="rgb(137, 207, 165)" stroke-width="9.86111111111111"/><title>Vegetal → Dried Herbs: 2</title></g><g style="mix-blend-mode: multiply;"><path d="M395,361.9444444444443C587.5,361.9444444444443,587.5,392.1527777777776,780,392.1527777777776" stroke="rgb(137, 207, 165)" stroke-width="9.86111111111111"/><title>Vegetal → Leaves: 2</title></g><g style="mix-blend-mode: multiply;"><path d="M395,186.56249999999991C587.5,186.56249999999991,587.5,91.84027777777793,780,91.84027777777793" stroke="rgb(251, 248, 176)" stroke-width="4.930555555555555"/><title>Mineral → Young White Wine: 1</title></g><g style="mix-blend-mode: multiply;"><path d="M395,191.49305555555546C587.5,191.49305555555546,587.5,101.77083333333347,780,101.77083333333347" stroke="rgb(251, 248, 176)" stroke-width="4.930555555555555"/><title>Mineral → Aged White Wine: 1</title></g><g style="mix-blend-mode: multiply;"><path d="M395,196.423611111111C587.5,196.423611111111,587.5,111.70138888888901,780,111.70138888888901" stroke="rgb(251, 248, 176)" stroke-width="4.930555555555555"/><title>Mineral → Aged Red Wine: 1</title></g><g style="mix-blend-mode: multiply;"><path d="M395,72.46527777777786C587.5,72.46527777777786,587.5,121.63194444444456,780,121.63194444444456" stroke="rgb(78, 164, 176)" stroke-width="4.930555555555555"/><title>Yeast → Bread: 1</title></g><g style="mix-blend-mode: multiply;"><path d="M395,141.97916666666666C587.5,141.97916666666666,587.5,131.5625000000001,780,131.5625000000001" stroke="rgb(254, 238, 163)" stroke-width="4.930555555555555"/><title>Malolactic Fermentation → Yoghurt: 1</title></g><g style="mix-blend-mode: multiply;"><path d="M395,146.9097222222222C587.5,146.9097222222222,587.5,141.49305555555566,780,141.49305555555566" stroke="rgb(254, 238, 163)" stroke-width="4.930555555555555"/><title>Malolactic Fermentation → Butter: 1</title></g><g style="mix-blend-mode: multiply;"><path d="M395,394.0624999999999C587.5,394.0624999999999,587.5,151.4236111111112,780,151.4236111111112" stroke="rgb(241, 249, 171)" stroke-width="4.930555555555555"/><title>Oak Aging → Smoked: 1</title></g><g style="mix-blend-mode: multiply;"><path d="M395,398.99305555555543C587.5,398.99305555555543,587.5,161.35416666666674,780,161.35416666666674" stroke="rgb(241, 249, 171)" stroke-width="4.930555555555555"/><title>Oak Aging → Coffee: 1</title></g><g style="mix-blend-mode: multiply;"><path d="M395,403.923611111111C587.5,403.923611111111,587.5,171.28472222222229,780,171.28472222222229" stroke="rgb(241, 249, 171)" stroke-width="4.930555555555555"/><title>Oak Aging → Toast: 1</title></g><g style="mix-blend-mode: multiply;"><path d="M395,431.0416666666665C587.5,431.0416666666665,587.5,505.9027777777776,780,505.9027777777776" stroke="rgb(241, 249, 171)" stroke-width="19.72222222222222"/><title>Oak Aging → Woods: 4</title></g><g style="mix-blend-mode: multiply;"><path d="M395,413.78472222222206C587.5,413.78472222222206,587.5,409.47916666666646,780,409.47916666666646" stroke="rgb(241, 249, 171)" stroke-width="14.791666666666666"/><title>Oak Aging → Nuts: 3</title></g><g style="mix-blend-mode: multiply;"><path d="M395,156.84027777777774C587.5,156.84027777777774,587.5,181.21527777777783,780,181.21527777777783" stroke="rgb(254, 221, 141)" stroke-width="4.930555555555555"/><title>Late Harvest / Botrytis → Dry Apricot: 1</title></g><g style="mix-blend-mode: multiply;"><path d="M395,161.7708333333333C587.5,161.7708333333333,587.5,191.14583333333337,780,191.14583333333337" stroke="rgb(254, 221, 141)" stroke-width="4.930555555555555"/><title>Late Harvest / Botrytis → Orange Peel: 1</title></g><g style="mix-blend-mode: multiply;"><path d="M395,82.3958333333334C587.5,82.3958333333334,587.5,201.0763888888889,780,201.0763888888889" stroke="rgb(240, 112, 74)" stroke-width="4.930555555555555"/><title>Fortified Wine → Prune: 1</title></g><g style="mix-blend-mode: multiply;"><path d="M395,92.32638888888894C587.5,92.32638888888894,587.5,211.00694444444446,780,211.00694444444446" stroke="rgb(185, 31, 72)" stroke-width="4.930555555555555"/><title>Aged White Wine → Honey: 1</title></g><g style="mix-blend-mode: multiply;"><path d="M395,206.35416666666657C587.5,206.35416666666657,587.5,220.9375,780,220.9375" stroke="rgb(158, 1, 66)" stroke-width="4.930555555555555"/><title>Aged Red Wine → Chocolate: 1</title></g><g style="mix-blend-mode: multiply;"><path d="M395,211.28472222222211C587.5,211.28472222222211,587.5,230.86805555555554,780,230.86805555555554" stroke="rgb(158, 1, 66)" stroke-width="4.930555555555555"/><title>Aged Red Wine → Animal: 1</title></g><g style="mix-blend-mode: multiply;"><path d="M395,216.21527777777766C587.5,216.21527777777766,587.5,240.7986111111111,780,240.7986111111111" stroke="rgb(158, 1, 66)" stroke-width="4.930555555555555"/><title>Aged Red Wine → Leather: 1</title></g><g style="mix-blend-mode: multiply;"><path d="M395,221.1458333333332C587.5,221.1458333333332,587.5,250.72916666666663,780,250.72916666666663" stroke="rgb(158, 1, 66)" stroke-width="4.930555555555555"/><title>Aged Red Wine → Musk: 1</title></g><g style="mix-blend-mode: multiply;"><path d="M395,102.25694444444449C587.5,102.25694444444449,587.5,260.6597222222222,780,260.6597222222222" stroke="rgb(169, 221, 162)" stroke-width="4.930555555555555"/><title>Trichloroanisole → Corked: 1</title></g><g style="mix-blend-mode: multiply;"><path d="M395,112.18750000000003C587.5,112.18750000000003,587.5,270.5902777777777,780,270.5902777777777" stroke="rgb(224, 243, 161)" stroke-width="4.930555555555555"/><title>Oxygen → Sherry: 1</title></g><g style="mix-blend-mode: multiply;"><path d="M395,122.11805555555557C587.5,122.11805555555557,587.5,280.52083333333326,780,280.52083333333326" stroke="rgb(253, 198, 118)" stroke-width="4.930555555555555"/><title>Heat → Madeira: 1</title></g><g style="mix-blend-mode: multiply;"><path d="M395,171.70138888888883C587.5,171.70138888888883,587.5,290.4513888888888,780,290.4513888888888" stroke="rgb(105, 189, 169)" stroke-width="4.930555555555555"/><title>Volatile Acidity → Ethyl Acetate: 1</title></g><g style="mix-blend-mode: multiply;"><path d="M395,176.63194444444437C587.5,176.63194444444437,587.5,300.38194444444434,780,300.38194444444434" stroke="rgb(105, 189, 169)" stroke-width="4.930555555555555"/><title>Volatile Acidity → Acetic Acid: 1</title></g><g style="mix-blend-mode: multiply;"><path d="M395,231.07638888888886C587.5,231.07638888888886,587.5,310.3124999999999,780,310.3124999999999" stroke="rgb(200, 233, 159)" stroke-width="4.930555555555555"/><title>Sulfides → Dimethyl Sulfide: 1</title></g><g style="mix-blend-mode: multiply;"><path d="M395,236.0069444444444C587.5,236.0069444444444,587.5,320.24305555555543,780,320.24305555555543" stroke="rgb(200, 233, 159)" stroke-width="4.930555555555555"/><title>Sulfides → Ethyl Mercaptan: 1</title></g><g style="mix-blend-mode: multiply;"><path d="M395,240.93749999999994C587.5,240.93749999999994,587.5,330.173611111111,780,330.173611111111" stroke="rgb(200, 233, 159)" stroke-width="4.930555555555555"/><title>Sulfides → Hudrogen Sulfide: 1</title></g><g style="mix-blend-mode: multiply;"><path d="M395,245.8680555555555C587.5,245.8680555555555,587.5,340.1041666666665,780,340.1041666666665" stroke="rgb(200, 233, 159)" stroke-width="4.930555555555555"/><title>Sulfides → Sulfer Dioxide: 1</title></g><g style="mix-blend-mode: multiply;"><path d="M395,132.04861111111111C587.5,132.04861111111111,587.5,350.03472222222206,780,350.03472222222206" stroke="rgb(209, 60, 75)" stroke-width="4.930555555555555"/><title>Brett → Ethyl-phenol: 1</title></g></g><g><text x="399" y="72.46527777777786" text-anchor="start"><tspan alignment-baseline="middle" x="399" style="font-family: Arial, sans-serif; font-size: 10px; fill: black; font-weight: bold;">Yeast</tspan></text><text x="399" y="82.3958333333334" text-anchor="start"><tspan alignment-baseline="middle" x="399" style="font-family: Arial, sans-serif; font-size: 10px; fill: black; font-weight: bold;">Fortified Wine</tspan></text><text x="399" y="92.32638888888894" text-anchor="start"><tspan alignment-baseline="middle" x="399" style="font-family: Arial, sans-serif; font-size: 10px; fill: black; font-weight: bold;">Aged White Wine</tspan></text><text x="399" y="102.25694444444449" text-anchor="start"><tspan alignment-baseline="middle" x="399" style="font-family: Arial, sans-serif; font-size: 10px; fill: black; font-weight: bold;">Trichloroanisole</tspan></text><text x="399" y="112.18750000000003" text-anchor="start"><tspan alignment-baseline="middle" x="399" style="font-family: Arial, sans-serif; font-size: 10px; fill: black; font-weight: bold;">Oxygen</tspan></text><text x="399" y="122.11805555555557" text-anchor="start"><tspan alignment-baseline="middle" x="399" style="font-family: Arial, sans-serif; font-size: 10px; fill: black; font-weight: bold;">Heat</tspan></text><text x="399" y="132.04861111111111" text-anchor="start"><tspan alignment-baseline="middle" x="399" style="font-family: Arial, sans-serif; font-size: 10px; fill: black; font-weight: bold;">Brett</tspan></text><text x="776" y="2.465277777778006" text-anchor="end"><tspan alignment-baseline="middle" x="776" style="font-family: Arial, sans-serif; font-size: 10px; fill: black; font-weight: bold;">Honeysuckle</tspan></text><text x="776" y="12.39583333333357" text-anchor="end"><tspan alignment-baseline="middle" x="776" style="font-family: Arial, sans-serif; font-size: 10px; fill: black; font-weight: bold;">Hawthorn</tspan></text><text x="776" y="22.326388888889127" text-anchor="end"><tspan alignment-baseline="middle" x="776" style="font-family: Arial, sans-serif; font-size: 10px; fill: black; font-weight: bold;">Orange Blossom</tspan></text><text x="776" y="32.25694444444467" text-anchor="end"><tspan alignment-baseline="middle" x="776" style="font-family: Arial, sans-serif; font-size: 10px; fill: black; font-weight: bold;">Linden</tspan></text><text x="776" y="42.18750000000021" text-anchor="end"><tspan alignment-baseline="middle" x="776" style="font-family: Arial, sans-serif; font-size: 10px; fill: black; font-weight: bold;">Jasmine</tspan></text><text x="776" y="52.118055555555756" text-anchor="end"><tspan alignment-baseline="middle" x="776" style="font-family: Arial, sans-serif; font-size: 10px; fill: black; font-weight: bold;">Acacia</tspan></text><text x="776" y="62.0486111111113" text-anchor="end"><tspan alignment-baseline="middle" x="776" style="font-family: Arial, sans-serif; font-size: 10px; fill: black; font-weight: bold;">Violet</tspan></text><text x="776" y="71.97916666666684" text-anchor="end"><tspan alignment-baseline="middle" x="776" style="font-family: Arial, sans-serif; font-size: 10px; fill: black; font-weight: bold;">Lavender</tspan></text><text x="776" y="81.90972222222238" text-anchor="end"><tspan alignment-baseline="middle" x="776" style="font-family: Arial, sans-serif; font-size: 10px; fill: black; font-weight: bold;">Rose</tspan></text><text x="776" y="91.84027777777793" text-anchor="end"><tspan alignment-baseline="middle" x="776" style="font-family: Arial, sans-serif; font-size: 10px; fill: black; font-weight: bold;">Young White Wine</tspan></text><text x="776" y="101.77083333333347" text-anchor="end"><tspan alignment-baseline="middle" x="776" style="font-family: Arial, sans-serif; font-size: 10px; fill: black; font-weight: bold;">Aged White Wine</tspan></text><text x="776" y="111.70138888888901" text-anchor="end"><tspan alignment-baseline="middle" x="776" style="font-family: Arial, sans-serif; font-size: 10px; fill: black; font-weight: bold;">Aged Red Wine</tspan></text><text x="776" y="121.63194444444456" text-anchor="end"><tspan alignment-baseline="middle" x="776" style="font-family: Arial, sans-serif; font-size: 10px; fill: black; font-weight: bold;">Bread</tspan></text><text x="776" y="131.5625000000001" text-anchor="end"><tspan alignment-baseline="middle" x="776" style="font-family: Arial, sans-serif; font-size: 10px; fill: black; font-weight: bold;">Yoghurt</tspan></text><text x="776" y="141.49305555555566" text-anchor="end"><tspan alignment-baseline="middle" x="776" style="font-family: Arial, sans-serif; font-size: 10px; fill: black; font-weight: bold;">Butter</tspan></text><text x="776" y="151.4236111111112" text-anchor="end"><tspan alignment-baseline="middle" x="776" style="font-family: Arial, sans-serif; font-size: 10px; fill: black; font-weight: bold;">Smoked</tspan></text><text x="776" y="161.35416666666674" text-anchor="end"><tspan alignment-baseline="middle" x="776" style="font-family: Arial, sans-serif; font-size: 10px; fill: black; font-weight: bold;">Coffee</tspan></text><text x="776" y="171.28472222222229" text-anchor="end"><tspan alignment-baseline="middle" x="776" style="font-family: Arial, sans-serif; font-size: 10px; fill: black; font-weight: bold;">Toast</tspan></text><text x="776" y="181.21527777777783" text-anchor="end"><tspan alignment-baseline="middle" x="776" style="font-family: Arial, sans-serif; font-size: 10px; fill: black; font-weight: bold;">Dry Apricot</tspan></text><text x="776" y="191.14583333333337" text-anchor="end"><tspan alignment-baseline="middle" x="776" style="font-family: Arial, sans-serif; font-size: 10px; fill: black; font-weight: bold;">Orange Peel</tspan></text><text x="776" y="201.0763888888889" text-anchor="end"><tspan alignment-baseline="middle" x="776" style="font-family: Arial, sans-serif; font-size: 10px; fill: black; font-weight: bold;">Prune</tspan></text><text x="776" y="211.00694444444446" text-anchor="end"><tspan alignment-baseline="middle" x="776" style="font-family: Arial, sans-serif; font-size: 10px; fill: black; font-weight: bold;">Honey</tspan></text><text x="776" y="220.9375" text-anchor="end"><tspan alignment-baseline="middle" x="776" style="font-family: Arial, sans-serif; font-size: 10px; fill: black; font-weight: bold;">Chocolate</tspan></text><text x="776" y="230.86805555555554" text-anchor="end"><tspan alignment-baseline="middle" x="776" style="font-family: Arial, sans-serif; font-size: 10px; fill: black; font-weight: bold;">Animal</tspan></text><text x="776" y="240.7986111111111" text-anchor="end"><tspan alignment-baseline="middle" x="776" style="font-family: Arial, sans-serif; font-size: 10px; fill: black; font-weight: bold;">Leather</tspan></text><text x="776" y="250.72916666666663" text-anchor="end"><tspan alignment-baseline="middle" x="776" style="font-family: Arial, sans-serif; font-size: 10px; fill: black; font-weight: bold;">Musk</tspan></text><text x="776" y="260.6597222222222" text-anchor="end"><tspan alignment-baseline="middle" x="776" style="font-family: Arial, sans-serif; font-size: 10px; fill: black; font-weight: bold;">Corked</tspan></text><text x="776" y="270.5902777777777" text-anchor="end"><tspan alignment-baseline="middle" x="776" style="font-family: Arial, sans-serif; font-size: 10px; fill: black; font-weight: bold;">Sherry</tspan></text><text x="776" y="280.52083333333326" text-anchor="end"><tspan alignment-baseline="middle" x="776" style="font-family: Arial, sans-serif; font-size: 10px; fill: black; font-weight: bold;">Madeira</tspan></text><text x="776" y="290.4513888888888" text-anchor="end"><tspan alignment-baseline="middle" x="776" style="font-family: Arial, sans-serif; font-size: 10px; fill: black; font-weight: bold;">Ethyl Acetate</tspan></text><text x="776" y="300.38194444444434" text-anchor="end"><tspan alignment-baseline="middle" x="776" style="font-family: Arial, sans-serif; font-size: 10px; fill: black; font-weight: bold;">Acetic Acid</tspan></text><text x="776" y="310.3124999999999" text-anchor="end"><tspan alignment-baseline="middle" x="776" style="font-family: Arial, sans-serif; font-size: 10px; fill: black; font-weight: bold;">Dimethyl Sulfide</tspan></text><text x="776" y="320.24305555555543" text-anchor="end"><tspan alignment-baseline="middle" x="776" style="font-family: Arial, sans-serif; font-size: 10px; fill: black; font-weight: bold;">Ethyl Mercaptan</tspan></text><text x="776" y="330.173611111111" text-anchor="end"><tspan alignment-baseline="middle" x="776" style="font-family: Arial, sans-serif; font-size: 10px; fill: black; font-weight: bold;">Hudrogen Sulfide</tspan></text><text x="776" y="340.1041666666665" text-anchor="end"><tspan alignment-baseline="middle" x="776" style="font-family: Arial, sans-serif; font-size: 10px; fill: black; font-weight: bold;">Sulfer Dioxide</tspan></text><text x="776" y="350.03472222222206" text-anchor="end"><tspan alignment-baseline="middle" x="776" style="font-family: Arial, sans-serif; font-size: 10px; fill: black; font-weight: bold;">Ethyl-phenol</tspan></text><text x="399" y="144.44444444444443" text-anchor="start"><tspan alignment-baseline="middle" x="399" style="font-family: Arial, sans-serif; font-size: 10px; fill: black; font-weight: bold;">Malolactic Fermentation</tspan></text><text x="399" y="159.30555555555551" text-anchor="start"><tspan alignment-baseline="middle" x="399" style="font-family: Arial, sans-serif; font-size: 10px; fill: black; font-weight: bold;">Late Harvest / Botrytis</tspan></text><text x="399" y="174.1666666666666" text-anchor="start"><tspan alignment-baseline="middle" x="399" style="font-family: Arial, sans-serif; font-size: 10px; fill: black; font-weight: bold;">Volatile Acidity</tspan></text><text x="776" y="362.43055555555543" text-anchor="end"><tspan alignment-baseline="middle" x="776" style="font-family: Arial, sans-serif; font-size: 10px; fill: black; font-weight: bold;">Vegetables</tspan></text><text x="776" y="377.2916666666665" text-anchor="end"><tspan alignment-baseline="middle" x="776" style="font-family: Arial, sans-serif; font-size: 10px; fill: black; font-weight: bold;">Dried Herbs</tspan></text><text x="776" y="392.1527777777776" text-anchor="end"><tspan alignment-baseline="middle" x="776" style="font-family: Arial, sans-serif; font-size: 10px; fill: black; font-weight: bold;">Leaves</tspan></text><text x="399" y="191.4930555555555" text-anchor="start"><tspan alignment-baseline="middle" x="399" style="font-family: Arial, sans-serif; font-size: 10px; fill: black; font-weight: bold;">Mineral</tspan></text><text x="776" y="409.4791666666665" text-anchor="end"><tspan alignment-baseline="middle" x="776" style="font-family: Arial, sans-serif; font-size: 10px; fill: black; font-weight: bold;">Nuts</tspan></text><text x="399" y="213.74999999999994" text-anchor="start"><tspan alignment-baseline="middle" x="399" style="font-family: Arial, sans-serif; font-size: 10px; fill: black; font-weight: bold;">Aged Red Wine</tspan></text><text x="399" y="238.47222222222217" text-anchor="start"><tspan alignment-baseline="middle" x="399" style="font-family: Arial, sans-serif; font-size: 10px; fill: black; font-weight: bold;">Sulfides</tspan></text><text x="776" y="431.736111111111" text-anchor="end"><tspan alignment-baseline="middle" x="776" style="font-family: Arial, sans-serif; font-size: 10px; fill: black; font-weight: bold;">Citrus</tspan></text><text x="776" y="456.45833333333314" text-anchor="end"><tspan alignment-baseline="middle" x="776" style="font-family: Arial, sans-serif; font-size: 10px; fill: black; font-weight: bold;">Red Berries</tspan></text><text x="776" y="481.18055555555543" text-anchor="end"><tspan alignment-baseline="middle" x="776" style="font-family: Arial, sans-serif; font-size: 10px; fill: black; font-weight: bold;">Fresh Herbs</tspan></text><text x="776" y="505.9027777777776" text-anchor="end"><tspan alignment-baseline="middle" x="776" style="font-family: Arial, sans-serif; font-size: 10px; fill: black; font-weight: bold;">Woods</tspan></text><text x="776" y="533.0902777777776" text-anchor="end"><tspan alignment-baseline="middle" x="776" style="font-family: Arial, sans-serif; font-size: 10px; fill: black; font-weight: bold;">Tropical Fruits</tspan></text><text x="399" y="268.1249999999999" text-anchor="start"><tspan alignment-baseline="middle" x="399" style="font-family: Arial, sans-serif; font-size: 10px; fill: black; font-weight: bold;">Fruits Red Wine</tspan></text><text x="776" y="565.2083333333333" text-anchor="end"><tspan alignment-baseline="middle" x="776" style="font-family: Arial, sans-serif; font-size: 10px; fill: black; font-weight: bold;">Tree Fruits</tspan></text><text x="399" y="310.1041666666666" text-anchor="start"><tspan alignment-baseline="middle" x="399" style="font-family: Arial, sans-serif; font-size: 10px; fill: black; font-weight: bold;">Floral</tspan></text><text x="399" y="361.94444444444434" text-anchor="start"><tspan alignment-baseline="middle" x="399" style="font-family: Arial, sans-serif; font-size: 10px; fill: black; font-weight: bold;">Vegetal</tspan></text><text x="399" y="416.2499999999999" text-anchor="start"><tspan alignment-baseline="middle" x="399" style="font-family: Arial, sans-serif; font-size: 10px; fill: black; font-weight: bold;">Oak Aging</tspan></text><text x="9" y="132.15277777777777" text-anchor="start"><tspan alignment-baseline="middle" x="9" style="font-family: Arial, sans-serif; font-size: 10px; fill: black; font-weight: bold;">Faults</tspan></text><text x="399" y="477.9513888888888" text-anchor="start"><tspan alignment-baseline="middle" x="399" style="font-family: Arial, sans-serif; font-size: 10px; fill: black; font-weight: bold;">Fruits White Wine</tspan></text><text x="9" y="220.97222222222223" text-anchor="start"><tspan alignment-baseline="middle" x="9" style="font-family: Arial, sans-serif; font-size: 10px; fill: black; font-weight: bold;">Bouquet</tspan></text><text x="9" y="378.81944444444446" text-anchor="start"><tspan alignment-baseline="middle" x="9" style="font-family: Arial, sans-serif; font-size: 10px; fill: black; font-weight: bold;">Aromas</tspan></text></g><g><text x="392.5" y="66.00000000000009" text-anchor="middle" style="font-family: Arial, sans-serif; font-size: 12px; fill: rgb(123, 123, 123); font-weight: bold;">Category</text><text x="782.5" y="-3.9999999999997726" text-anchor="middle" style="font-family: Arial, sans-serif; font-size: 12px; fill: rgb(123, 123, 123); font-weight: bold;">Type</text><text x="2.5" y="103.5" text-anchor="middle" style="font-family: Arial, sans-serif; font-size: 12px; fill: rgb(123, 123, 123); font-weight: bold;">Root</text></g></g></svg>