<svg width="610" height="172" viewBox="0 0 610 172" fill="none" xmlns="http://www.w3.org/2000/svg">
<path d="M249.762 122C242.763 111.5 243.502 82.3795 269.762 81.7287C302.588 80.9151 347.675 117.118 354.678 81.7287C361.681 46.3389 354.678 -1.22637e-05 412 2.0001C459 3.64005 470.4 31.3 494 50.5C523.5 74.5 587.5 30.5002 608 2.0001" stroke="#1752E2" stroke-width="3" stroke-linecap="round"/>
<path d="M238.5 124C226.5 116.8 220.833 113.333 219.5 112.5" stroke="#1752E2" stroke-width="3" stroke-linecap="round"/>
<path d="M256.841 127.489C264.558 115.815 268.269 110.305 269.16 109.01" stroke="#1752E2" stroke-width="3" stroke-linecap="round"/>
<path d="M240.046 144.634C230.289 154.666 225.617 159.388 224.5 160.495" stroke="#1752E2" stroke-width="3" stroke-linecap="round"/>
<path d="M251.04 148C249.244 161.879 248.336 168.459 248.105 170.015" stroke="#1752E2" stroke-width="3" stroke-linecap="round"/>
<path d="M262.81 142C271.335 148.94 275.353 152.269 276.297 153.066" stroke="#1752E2" stroke-width="3" stroke-linecap="round"/>
<path d="M238 134.635C231.209 129.607 206.59 119.248 162.446 118.042C118.302 116.835 37.0887 142.178 2 155" stroke="#1752E2" stroke-width="3" stroke-linecap="round"/>
</svg>
