<svg width="337" height="195" viewBox="0 0 337 195" fill="none" xmlns="http://www.w3.org/2000/svg">
<path d="M0 161.5L63.0067 161.723L141.5 162" stroke="#1752E2" stroke-width="4"/>
<path d="M160.065 145.813C147.565 129.646 130.065 97.1128 160.065 96.3128C197.565 95.3128 261.066 139.813 269.066 96.3128C277.066 52.8128 277.566 -7.6873 336.566 3.3127" stroke="#1752E2" stroke-width="4"/>
<path d="M149.5 148C137.5 140.8 131.833 137.333 130.5 136.5" stroke="#1752E2" stroke-width="4"/>
<path d="M167.841 151.49C175.558 139.816 179.269 134.306 180.16 133.01" stroke="#1752E2" stroke-width="4"/>
<path d="M151.046 168.634C141.289 178.666 136.617 183.388 135.5 184.495" stroke="#1752E2" stroke-width="4"/>
<path d="M162.04 172C160.244 185.879 159.336 192.459 159.105 194.015" stroke="#1752E2" stroke-width="4"/>
<path d="M173.81 166C182.335 172.94 186.353 176.269 187.297 177.066" stroke="#1752E2" stroke-width="4"/>
</svg>
