<svg width="608" height="171" viewBox="0 0 608 171" fill="none" xmlns="http://www.w3.org/2000/svg">
<path d="M238.5 123C226.5 115.8 220.833 112.333 219.5 111.5" stroke="white" stroke-width="3" stroke-linecap="round"/>
<path d="M247.592 121.185C246.544 109.097 246.094 103.358 246 102" stroke="white" stroke-width="3" stroke-linecap="round"/>
<path d="M263 131.825C274.857 134.4 280.472 135.667 281.797 135.979" stroke="white" stroke-width="3" stroke-linecap="round"/>
<path d="M256.841 126.489C264.558 114.815 268.269 109.305 269.16 108.01" stroke="white" stroke-width="3" stroke-linecap="round"/>
<path d="M240.046 143.634C230.289 153.666 225.617 158.388 224.5 159.495" stroke="white" stroke-width="3" stroke-linecap="round"/>
<path d="M251.04 147C249.244 160.879 248.336 167.459 248.105 169.015" stroke="white" stroke-width="3" stroke-linecap="round"/>
<path d="M262.81 141C271.335 147.94 275.353 151.269 276.297 152.066" stroke="white" stroke-width="3" stroke-linecap="round"/>
<path d="M238 133.635C231.209 128.607 206.59 118.248 162.446 117.042C118.302 115.835 37.0887 141.178 2 154" stroke="white" stroke-width="3" stroke-linecap="round"/>
</svg>
