<svg width="336" height="197" viewBox="0 0 336 197" fill="none" xmlns="http://www.w3.org/2000/svg">
<path d="M156.565 145.813C144.065 129.646 126.565 97.1128 156.565 96.3128C194.065 95.3128 257.566 139.813 265.566 96.3128C273.566 52.8128 274.066 -7.6873 333.066 3.3127" stroke="#1752E2" stroke-width="4" stroke-linecap="round"/>
<path d="M146 148C134 140.8 128.333 137.333 127 136.5" stroke="#1752E2" stroke-width="4" stroke-linecap="round"/>
<path d="M164.341 151.49C172.058 139.816 175.769 134.306 176.66 133.01" stroke="#1752E2" stroke-width="4" stroke-linecap="round"/>
<path d="M147.546 168.634C137.789 178.666 133.117 183.388 132 184.495" stroke="#1752E2" stroke-width="4" stroke-linecap="round"/>
<path d="M158.54 172C156.744 185.879 155.836 192.459 155.605 194.015" stroke="#1752E2" stroke-width="4" stroke-linecap="round"/>
<path d="M170.31 166C178.835 172.94 182.853 176.269 183.797 177.066" stroke="#1752E2" stroke-width="4" stroke-linecap="round"/>
<path d="M141.5 160.028C137.5 156.694 123 149.828 97 149.028C71 148.228 23.1667 165.028 2.5 173.528" stroke="#1752E2" stroke-width="4" stroke-linecap="round"/>
</svg>
