<?xml version="1.0" encoding="utf-8"?>
<!-- Generator: Adobe Illustrator 28.3.0, SVG Export Plug-In . SVG Version: 6.00 Build 0)  -->
<svg version="1.1" id="Calque_1" xmlns="http://www.w3.org/2000/svg" xmlns:xlink="http://www.w3.org/1999/xlink" x="0px" y="0px"
	 viewBox="0 0 87.9 87.9" style="enable-background:new 0 0 87.9 87.9;" xml:space="preserve">
<style type="text/css">
	.st0{fill:#FFFFFF;}
	.st1{fill:#1752E2;}
</style>
<polygon class="st0" points="17.1,31.6 13.7,62.1 6.3,61.5 5.5,45.2 7,18.5 7.7,13 16.7,9.4 19.7,4.4 25.6,5.7 30.5,5.3 37.6,2.4 
	41.8,4.4 51.5,6.3 54.4,10.6 66.4,41.2 61.3,52.7 55.8,41.9 53.6,30.7 52.4,55 54,60.4 23.3,65.5 22,62.2 18.1,34.3 "/>
<path class="st1" d="M52.2,6L52.2,6L52.2,6L52.2,6c-1.6-0.8-5-1.6-10.3-2.4c-1.4-0.3-2.7-1-3.8-2c-0.1-0.1-0.3-0.2-0.5-0.2
	s-0.4,0-0.5,0.1l0,0c-7.4,5.2-16.4,2.7-16.5,2.6l0,0c-0.2,0-0.4,0-0.5,0c-0.2,0.1-0.3,0.2-0.4,0.3c-0.7,1.3-1.8,2.3-3,3.1
	c-4.8,2.4-7.8,4.2-9,5.5l0,0l0,0l0,0c-3.1,3.5-2.9,41.5-2.8,49.1c0,0.2,0.1,0.4,0.2,0.6C5,63,5.2,63.1,5.4,63.1l8.2,0.1
	c0.2,0,0.4-0.1,0.6-0.2c0.2-0.1,0.3-0.3,0.3-0.5l2.9-27.1c1.6,8.9,3,20.1,3.7,25.8c0.1,1.4,0.6,2.8,1.4,4c0.1,0.1,0.2,0.2,0.4,0.3
	c0.1,0.1,0.3,0.1,0.4,0l30.3-4.9c0.2,0,0.3-0.1,0.4-0.2c0.1-0.1,0.2-0.2,0.2-0.4c0.4-1.5,0.4-3,0-4.5C53.2,50,51,39,49.8,30.1L61,55
	c0.1,0.2,0.2,0.3,0.4,0.4c0.2,0.1,0.4,0.1,0.6,0l7.7-2.6c0.2-0.1,0.4-0.2,0.5-0.4s0.1-0.4,0-0.6C67.9,44.5,56.2,8.4,52.2,6z
	 M29.7,6.3c2.5-0.4,5-1.3,7.2-2.6c0.2,1.7-0.3,3.5-1.3,4.9c-1.3,1.7-3.2,2.8-5.3,3.1c-1.9,0.3-3.8-0.1-5.5-1.1S21.9,8,21.4,6.1
	C24.1,6.6,26.9,6.7,29.7,6.3z M20,6.9c0.7,2.2,2.1,4,4,5.2s4.2,1.6,6.5,1.2h0.1c2.5-0.4,4.8-1.7,6.3-3.7C38,8,38.6,6,38.5,4
	c0.7,0.4,1.5,0.8,2.3,1c-1.4,4.7-4.9,9.5-10,10.3c-4.9,0.8-9.9-2.8-12.7-6.7C18.8,8.2,19.4,7.6,20,6.9z M12.9,61.6l-6.6-0.1
	c0-0.7,0-1.4,0-2.2l6.9,0.1L12.9,61.6z M13.3,57.8l-7-0.1c0-19,0.6-38.4,2.1-42.6c3.1,2.7,5.4,6.2,6.8,10.1c0.4,1.2,0.8,2.8,1.2,4.6
	L13.3,57.8z M38.1,61.4l-14.6,2.3c-0.4-0.7-0.6-1.5-0.8-2.3l30-4.8c0.1,0.8,0.1,1.6,0,2.4L38.1,61.4z M47,19.8
	c0.1,7.7,3.7,26.6,5.4,35.2l-29.9,4.8c-1.1-9-3.6-27.9-5.8-35.2c-1.5-4.2-4-8-7.3-10.9c2.3-1.6,4.7-3,7.3-4.3
	c3.1,4.4,8.7,8.4,14.4,7.5c5.8-0.9,9.8-6.4,11.4-11.6c2.8,0.4,5.5,0.9,8.2,1.8C48.3,11,47.1,15.3,47,19.8z M48.7,19.8
	c0.1-4.1,1.2-8.2,3.3-11.7c2.7,3.6,9.4,21.8,15.3,39.8l-6.7,2.3L49,24.5C48.8,22.7,48.7,21.1,48.7,19.8z M62.2,53.7l-0.9-2l6.5-2.2
	c0.2,0.7,0.4,1.4,0.7,2.1L62.2,53.7z M17.1,32.5L14.2,63"/>
<polygon class="st0" points="33.6,76.1 49,18.9 54.2,12.3 55.2,9.7 85.4,18.6 83.4,22.8 84.9,27.3 66.7,86.1 55.4,82.8 65.9,37.1 
	65.9,27.2 53.8,56.6 45,78.8 "/>
<path class="st0" d="M40.8,61.6"/>
<path class="st1" d="M85.5,29.6c0.3-1.1,0.4-2.3,0.3-3.5l-0.4-3.8l1-3.3c0.1-0.2,0-0.5-0.1-0.7s-0.4-0.4-0.6-0.5l-11.2-3.3
	c0.1-0.2,0-0.5-0.1-0.7s-0.4-0.4-0.6-0.5l-6-1.8c-0.3-0.1-0.5-0.1-0.8,0c-0.2,0.1-0.4,0.3-0.5,0.5L55.2,8.9c-0.3-0.1-0.5-0.1-0.8,0
	C54.2,9,54,9.2,53.9,9.4l-1,3.3l-2.4,3c-0.7,0.9-1.3,2-1.6,3.1L34.7,71.2l-1.2,4.2c-0.1,0.2,0,0.5,0.1,0.7s0.4,0.4,0.6,0.5l11.3,3.3
	c0.3,0.1,0.5,0.1,0.8,0c0.2-0.1,0.4-0.3,0.5-0.5C46.9,79,56.4,51,64,35.4c-2.1,17.2-9.2,45.9-9.3,46.3c-0.1,0.2,0,0.5,0.1,0.7
	s0.4,0.4,0.6,0.4l11.3,3.3c0.3,0.1,0.5,0.1,0.8,0c0.2-0.1,0.4-0.3,0.5-0.5l1.3-4.2L85.5,29.6L85.5,29.6z M66.5,30.4l3.1-10.6l2,0.6
	c0.3,0.1,0.5,0.1,0.8,0c0.2-0.1,0.4-0.3,0.5-0.5v-0.1l10.5,3.1l0.3,3.3c0.1,1,0,2-0.3,2.9L67.5,79.9l-9.6-2.8
	C60.4,66.6,65.8,42.7,66.5,30.4z M84.1,19.2L83.6,21l-10.2-3l0.5-1.8L84.1,19.2z M72.2,14.8l-1.1,3.6l-4-1.2l1.1-3.6L72.2,14.8z
	 M55.7,10.9l10.2,3l-0.5,1.8l-10.2-3L55.7,10.9z M52.3,16.9l2.1-2.6l10.5,3.1v0.1c-0.1,0.2,0,0.5,0.1,0.7s0.4,0.4,0.6,0.5l2,0.6
	l-3.1,10.6c-6.1,10.7-14.4,33.7-18,43.9L36.9,71L51,19.5C51.3,18.5,51.7,17.7,52.3,16.9z M35.8,75.1l0.7-2.5l9.5,2.8
	c-0.4,1.1-0.7,1.9-0.9,2.5L35.8,75.1z M56.9,81.3c0.1-0.6,0.4-1.4,0.6-2.5l9.5,2.8l-0.8,2.5L56.9,81.3z"/>
</svg>
