<?xml version="1.0" encoding="utf-8"?>
<!-- Generator: Adobe Illustrator 28.3.0, SVG Export Plug-In . SVG Version: 6.00 Build 0)  -->
<svg version="1.1" id="Calque_1" xmlns="http://www.w3.org/2000/svg" xmlns:xlink="http://www.w3.org/1999/xlink" x="0px" y="0px"
	 viewBox="0 0 144.6 145.6" style="enable-background:new 0 0 144.6 145.6;" xml:space="preserve">
<style type="text/css">
	.st0{fill:#001AFF;}
	.st1{fill:#1752E2;}
</style>
<path class="st0" d="M124.9,83.7c1.6-7.5,1.6-15.2,0-22.7c15.5-23.9,19.6-43.4,10.8-52.1c-7.7-7.7-23.9-5.4-44.4,6.2l2.2,3.9
	c18.4-10.4,32.9-13,39-6.9c6.5,6.5,2.9,23.2-9.3,43.1c-4.2-12.5-12.9-23.1-24.4-29.6s-25-8.6-38-5.8C37,4.2,17.5,0.1,8.8,8.8
	c-7.7,7.7-5.4,24,6.3,44.6l3.9-2.2C8.5,32.8,5.9,18.1,12,12c6.6-6.5,23.2-2.9,43.1,9.3c-10.7,3.6-20,10.5-26.5,19.6
	C21.9,50.1,18.4,61,18.4,72.3s3.5,22.3,10.1,31.4c6.6,9.2,15.9,16,26.5,19.6c-19.9,12.1-36.6,15.8-43.1,9.3
	c-6.1-6.1-3.5-20.7,6.9-39l-3.9-2.2c-11.6,20.5-13.8,36.7-6.1,44.4c1.7,1.6,3.7,2.8,5.9,3.5c2.2,0.8,4.5,1.1,6.8,1
	c10.1,0,23.8-5.3,39.4-15.4c12.9,2.8,26.5,0.7,38-5.8s20.2-17.1,24.4-29.6c12.1,19.9,15.8,36.6,9.3,43.1c-6.2,6.2-21.3,3.4-40.2-7.5
	l-2.2,3.9c13,7.5,24.3,11.4,32.9,11.4c2.3,0.1,4.6-0.2,6.8-1s4.2-2,5.9-3.5C144.5,127.1,140.4,107.6,124.9,83.7z M109.5,86.1
	l-1.8-2.4c2.2-2.5,4.3-5.1,6.4-7.7c2.1,2.9,4.2,5.7,6.1,8.6c-1.3,5.2-3.5,10.2-6.5,14.7l-3.2-3.2v-7.3
	C110.4,87.8,110.1,86.9,109.5,86.1z M103.7,78.3v-7.2c0-1.2-0.5-2.3-1.3-3.2l-2.8-2.8c-0.6-0.6-1.3-1-2.1-1.2
	c-0.8-0.2-1.7-0.2-2.4,0.1l-4.8,1.6l-7-1.7L81.4,57l3.3-4.9h7.1l4.4,2.9c5.4,5.6,10.5,11.4,15.1,17.3c-2,2.6-4.1,5.1-6.3,7.7
	L103.7,78.3z M112.1,43.2c1.7,2.3,3.2,4.8,4.4,7.3l-6.5,3.7l-9.9-2l-1-0.7c-1-1-2-2-3-3.1c-1.9-1.9-3.8-3.8-5.8-5.6
	c0.5,0.1,1,0,1.5-0.1L99,41l7.1,3.5c0.7,0.4,1.5,0.5,2.3,0.5s1.6-0.3,2.2-0.7L112.1,43.2z M118.4,54.7c0.7,1.8,1.3,3.6,1.7,5.4
	c-1.9,2.8-3.9,5.7-6.1,8.6c-2.9-3.6-6-7.3-9.2-10.9l4.4,0.9c1,0.2,2.1,0,3.1-0.5L118.4,54.7z M116.9,72.3c1.5-2,3-4,4.4-6
	c0.5,4,0.5,8,0,11.9C119.9,76.3,118.4,74.3,116.9,72.3z M109.3,39.7l-1.3,0.9l-7-3.5c-1-0.5-2.1-0.6-3.1-0.4l-7.2,1.8l-4-2.7
	l2.6-3.9h9.3c0.6,0,1.1-0.1,1.6-0.3C103.5,33.9,106.6,36.6,109.3,39.7z M92.8,27.4h-3.6c-0.7,0-1.5,0.2-2.1,0.5
	c-0.7,0.4-1.2,0.9-1.6,1.5l-2.6,3.9c-0.4,0.7-0.7,1.5-0.7,2.3c-1.6-1.3-3.1-2.6-4.7-3.9c0.1-1.1-0.2-2.3-0.9-3.1
	c-0.7-0.9-1.7-1.5-2.8-1.7l-3.1-0.5c-1.4-1-2.8-2.1-4.2-3.1c2-0.2,4-0.4,5.9-0.4C79.4,22.9,86.4,24.5,92.8,27.4z M59.2,24.7l1.6,2.8
	c0.3,0.6,0.8,1.1,1.3,1.5c0.6,0.4,1.2,0.7,1.9,0.8l4.7,0.8c1,0.8,2.1,1.6,3.1,2.4l-1,1.4l-7.4,1.9c-1,0.3-1.8,0.8-2.4,1.6l-5.9,7.9
	L46.9,50l-9.1,1.8c-1,0.2-1.9,0.8-2.6,1.6c-0.7,0.8-1,1.8-1,2.8v3.7c0,0.7,0.2,1.5,0.5,2.1c0.4,0.7,0.9,1.2,1.5,1.6l4.7,3.2v4.1
	L31.1,66L25,58.2c2.4-8,6.8-15.3,12.8-21.1C43.8,31.2,51.1,26.9,59.2,24.7z M22.9,72.3c0-2.9,0.3-5.7,0.7-8.5l3.9,5
	c0.4,0.5,0.9,1,1.6,1.3l9.8,4.9c0.6,0.3,1.3,0.5,2,0.5c0,0,0,0,0.1,0c0,0.1,0,0.3-0.1,0.4v6.8c0,1.2,0.5,2.3,1.3,3.2l3.6,3.6
	c0.3,0.3,0.7,0.6,1.2,0.8l2.9,1.5v7.3c0,0.5,0.1,1,0.2,1.4l4,12c0.2,0.7,0.6,1.3,1.1,1.8s1.1,0.9,1.8,1.1l2.7,0.9
	c0.7,0.2,1.4,0.3,2.1,0.2c0.7-0.1,1.4-0.4,1.9-0.8c0.6-0.4,1-1,1.4-1.6c0.3-0.6,0.5-1.3,0.5-2v-6.7l6.5-3.3c0.7-0.4,1.4-0.9,1.8-1.6
	s0.7-1.5,0.7-2.3v-3.7l3.9-1.3c0.7-0.2,1.4-0.7,1.9-1.2c0.5-0.6,0.9-1.2,1.1-2l1.3-5c0.2-0.7,0.2-1.4,0-2s-0.4-1.3-0.9-1.8
	s-1-1-1.6-1.3s-1.3-0.5-2-0.5h-2.6l-3.1-4.7c-0.4-0.6-1-1.1-1.6-1.5c-0.7-0.4-1.4-0.5-2.1-0.5H62l-4.8-4.9c-0.7-0.7-1.6-1.2-2.6-1.3
	c-1-0.1-2,0.1-2.9,0.6l-6.3,3.8v-3.8c0-0.7-0.2-1.5-0.5-2.1c-0.4-0.7-0.9-1.2-1.5-1.6l-4.7-3.1v-3.7l9.2-1.8
	c0.4-0.1,0.7-0.2,1.1-0.4l8.2-4.1c0.6-0.3,1.2-0.8,1.6-1.3l5.9-7.9l7.3-1.8c1.1-0.2,2.1-0.9,2.7-1.9l0.7-1.1
	c4.5,3.7,9,7.6,13.4,11.8h-4c-0.7,0-1.5,0.2-2.1,0.5c-0.7,0.4-1.2,0.9-1.6,1.5l-3.3,5c-0.3,0.5-0.5,1.1-0.6,1.7
	c-0.1,0.6-0.1,1.2,0.1,1.8l1.7,6.8c0.2,0.8,0.6,1.5,1.2,2.1s1.3,1,2.1,1.2l6.9,1.7c0.8,0.2,1.7,0.2,2.5-0.1l4.8-1.6l2.9,2.9v7.2
	c0,1,0.3,1.9,0.9,2.7l1.8,2.4c-2.9,3.2-5.9,6.4-9,9.5c-10,10.1-21,19.2-32.9,27.2c-10.6-2.7-20-8.9-26.8-17.6
	C26.6,93.9,22.9,83.3,22.9,72.3z M51.9,87.6L49,86.1l-3.6-3.6v-6.8l8.6-5.3l4.8,4.9c0.8,0.8,2,1.3,3.2,1.3h6.8l3.1,4.7
	c0.4,0.6,1,1.1,1.6,1.5c0.7,0.4,1.4,0.5,2.1,0.5h2.6l-1.3,5L73,89.6c-0.9,0.3-1.7,0.9-2.2,1.6c-0.6,0.8-0.9,1.7-0.9,2.6v3.7
	l-6.5,3.3c-0.7,0.4-1.4,0.9-1.8,1.7c-0.4,0.7-0.7,1.5-0.7,2.4v6.7l-2.7-0.9l-4-12v-7.3c0-0.8-0.2-1.7-0.7-2.4
	C53.2,88.6,52.6,88,51.9,87.6z M72.3,121.7c-2,0-4-0.1-6-0.4c10.6-7.5,20.6-16,29.8-25.2c3-3,5.8-6,8.6-9l1.3,1.7v7.3
	c0,1.2,0.5,2.3,1.3,3.2l3.7,3.7c-4.6,5.8-10.5,10.6-17.2,13.8C87.1,120,79.7,121.7,72.3,121.7z"/>
<circle class="st1" cx="15.8" cy="93.8" r="5.5"/>
<circle class="st1" cx="15.8" cy="49.8" r="5.5"/>
<circle class="st1" cx="94.8" cy="14.8" r="5.5"/>
<circle class="st1" cx="94.8" cy="127.8" r="5.5"/>
</svg>
