<svg width="1899" height="582" viewBox="0 0 1899 582" fill="none" xmlns="http://www.w3.org/2000/svg">
<path d="M103 81.4731C119.526 80.912 135.277 67.0971 149.299 59.6044C178.426 44.0401 209.437 34.0425 241.225 25.7764C313.118 7.08157 388.524 -1.85098 462.654 3.56605C552.463 10.1288 623.079 50.6518 704.548 83.1815C768.021 108.526 833.931 98.3458 898.801 84.5483C952.155 73.2002 1003.2 56.9095 1055.81 42.8613C1112.89 27.6216 1173.66 21.3343 1232.62 21.3343C1292.52 21.3343 1352.18 31.1281 1406.74 56.8708C1437.18 71.231 1466.23 92.2138 1498 103" stroke="#96A8D7" stroke-width="3" stroke-linecap="round"/>
<path d="M1506.5 396C1458.11 399.456 1471.72 398.29 1424.1 407.279C1354.15 420.485 1285.17 438.337 1217.28 459.709C1123.82 489.133 1032.92 526.871 937.885 551.248C771.687 593.88 601.328 587.047 437.323 539.635C359.716 517.2 282.795 485.571 200.449 489.767C125.978 493.562 65.8303 527.721 2 561.837" stroke="#96A8D7" stroke-width="3" stroke-linecap="round"/>
<path d="M1877 164.77C1889.53 156.604 1895.55 152.753 1897 151.848" stroke="white" stroke-width="3" stroke-linecap="round"/>
<path d="M1877.54 183.773C1888.73 192.885 1894.01 197.256 1895.25 198.303" stroke="white" stroke-width="3" stroke-linecap="round"/>
<path d="M1865.87 196.902C1872.26 205.954 1875.26 210.302 1875.96 211.345" stroke="white" stroke-width="3" stroke-linecap="round"/>
<path d="M1517 126C1518.8 135.184 1550.2 145.034 1569.13 148.223C1590.25 151.781 1619.4 155.408 1706.58 153.932C1743.49 153.307 1810 161.995 1834 168" stroke="#96A8D7" stroke-width="3" stroke-linecap="round"/>
<path d="M1546 375C1543.16 351.807 1567.95 321.412 1584.25 309.929C1602.43 297.118 1628.16 282.633 1711.2 269.973C1746.36 264.612 1804.87 230.533 1824.56 211.093C1830.28 205.446 1836.41 200.006 1841.76 194" stroke="#96A8D7" stroke-width="3" stroke-linecap="round"/>
<path d="M1846.69 158.161C1834.69 144.243 1829.05 137.588 1827.73 136" stroke="white" stroke-width="3" stroke-linecap="round"/>
<path d="M1831.05 181.879C1818.43 184.827 1812.43 186.174 1811 186.479" stroke="white" stroke-width="3" stroke-linecap="round"/>
<path d="M1853.84 194C1851.48 212.222 1850.29 220.862 1849.98 222.904" stroke="white" stroke-width="3" stroke-linecap="round"/>
<path d="M1865.84 124C1863.48 142.222 1862.29 150.862 1861.98 152.904" stroke="white" stroke-width="3" stroke-linecap="round"/>
<g filter="url(#filter0_bf_341_88)">
<circle cx="1474.14" cy="151.792" r="92.1103" transform="rotate(-64.0339 1474.14 151.792)" fill="#AFC0EE"/>
</g>
<path d="M1426.06 92.9219V84.7401H1427.27V86.0185H1427.38C1427.55 85.5817 1427.82 85.2425 1428.2 85.0011C1428.58 84.756 1429.04 84.6335 1429.57 84.6335C1430.11 84.6335 1430.56 84.756 1430.92 85.0011C1431.28 85.2425 1431.56 85.5817 1431.77 86.0185H1431.85C1432.06 85.5959 1432.38 85.2603 1432.8 85.0117C1433.21 84.7596 1433.72 84.6335 1434.3 84.6335C1435.03 84.6335 1435.63 84.8626 1436.1 85.3207C1436.56 85.7752 1436.8 86.4837 1436.8 87.446V92.9219H1435.54V87.446C1435.54 86.8423 1435.37 86.4109 1435.04 86.1516C1434.71 85.8924 1434.32 85.7628 1433.88 85.7628C1433.3 85.7628 1432.86 85.9368 1432.54 86.2848C1432.22 86.6293 1432.07 87.0661 1432.07 87.5952V92.9219H1430.79V87.3182C1430.79 86.853 1430.64 86.4783 1430.33 86.1942C1430.03 85.9066 1429.64 85.7628 1429.17 85.7628C1428.84 85.7628 1428.54 85.8498 1428.25 86.0238C1427.97 86.1978 1427.74 86.4393 1427.57 86.7482C1427.4 87.0536 1427.31 87.407 1427.31 87.8082V92.9219H1426.06ZM1442.42 93.0923C1441.68 93.0923 1441.03 92.9165 1440.47 92.565C1439.92 92.2134 1439.49 91.7216 1439.17 91.0895C1438.86 90.4574 1438.71 89.7187 1438.71 88.8736C1438.71 88.0213 1438.86 87.2773 1439.17 86.6417C1439.49 86.006 1439.92 85.5124 1440.47 85.1609C1441.03 84.8093 1441.68 84.6335 1442.42 84.6335C1443.16 84.6335 1443.8 84.8093 1444.36 85.1609C1444.91 85.5124 1445.35 86.006 1445.66 86.6417C1445.97 87.2773 1446.13 88.0213 1446.13 88.8736C1446.13 89.7187 1445.97 90.4574 1445.66 91.0895C1445.35 91.7216 1444.91 92.2134 1444.36 92.565C1443.8 92.9165 1443.16 93.0923 1442.42 93.0923ZM1442.42 91.9631C1442.98 91.9631 1443.44 91.8192 1443.8 91.5316C1444.16 91.244 1444.43 90.8658 1444.61 90.397C1444.78 89.9283 1444.87 89.4205 1444.87 88.8736C1444.87 88.3267 1444.78 87.8171 1444.61 87.3448C1444.43 86.8725 1444.16 86.4908 1443.8 86.1996C1443.44 85.9084 1442.98 85.7628 1442.42 85.7628C1441.86 85.7628 1441.4 85.9084 1441.03 86.1996C1440.67 86.4908 1440.4 86.8725 1440.23 87.3448C1440.05 87.8171 1439.97 88.3267 1439.97 88.8736C1439.97 89.4205 1440.05 89.9283 1440.23 90.397C1440.4 90.8658 1440.67 91.244 1441.03 91.5316C1441.4 91.8192 1441.86 91.9631 1442.42 91.9631ZM1453.84 86.5724L1452.71 86.892C1452.64 86.7038 1452.53 86.521 1452.4 86.3434C1452.26 86.1623 1452.08 86.0131 1451.84 85.896C1451.61 85.7788 1451.31 85.7202 1450.94 85.7202C1450.44 85.7202 1450.02 85.8356 1449.69 86.0664C1449.36 86.2937 1449.19 86.5831 1449.19 86.9347C1449.19 87.2472 1449.31 87.494 1449.54 87.6751C1449.76 87.8562 1450.12 88.0071 1450.6 88.1278L1451.82 88.4261C1452.55 88.6037 1453.09 88.8754 1453.45 89.2411C1453.81 89.6033 1453.99 90.0703 1453.99 90.642C1453.99 91.1108 1453.85 91.5298 1453.58 91.8991C1453.32 92.2685 1452.94 92.5597 1452.47 92.7727C1451.99 92.9858 1451.43 93.0923 1450.79 93.0923C1449.96 93.0923 1449.27 92.9112 1448.72 92.549C1448.17 92.1868 1447.83 91.6577 1447.68 90.9616L1448.88 90.6634C1448.99 91.1037 1449.2 91.4339 1449.52 91.6541C1449.84 91.8743 1450.26 91.9844 1450.77 91.9844C1451.36 91.9844 1451.82 91.8601 1452.17 91.6115C1452.52 91.3594 1452.69 91.0575 1452.69 90.706C1452.69 90.4219 1452.59 90.1839 1452.39 89.9922C1452.19 89.7969 1451.89 89.6513 1451.47 89.5554L1450.11 89.2358C1449.36 89.0582 1448.81 88.783 1448.46 88.4102C1448.11 88.0337 1447.94 87.5632 1447.94 86.9986C1447.94 86.5369 1448.07 86.1286 1448.33 85.7734C1448.59 85.4183 1448.95 85.1396 1449.4 84.9371C1449.85 84.7347 1450.37 84.6335 1450.94 84.6335C1451.75 84.6335 1452.39 84.8111 1452.85 85.1662C1453.31 85.5213 1453.64 85.9901 1453.84 86.5724ZM1461.46 95.9901V91.6648H1461.36C1461.26 91.8139 1461.13 92.0021 1460.96 92.2294C1460.79 92.4531 1460.55 92.6538 1460.23 92.8313C1459.92 93.0053 1459.5 93.0923 1458.97 93.0923C1458.29 93.0923 1457.69 92.9201 1457.16 92.5756C1456.64 92.2276 1456.23 91.7376 1455.94 91.1055C1455.64 90.4698 1455.5 89.7188 1455.5 88.8523C1455.5 87.9929 1455.64 87.2472 1455.94 86.6151C1456.23 85.983 1456.64 85.4947 1457.17 85.1502C1457.7 84.8058 1458.3 84.6335 1458.99 84.6335C1459.52 84.6335 1459.95 84.7223 1460.25 84.8999C1460.57 85.0739 1460.8 85.2727 1460.97 85.4964C1461.13 85.7166 1461.26 85.8977 1461.36 86.0398H1461.51V84.7401H1462.72V95.9901H1461.46ZM1459.14 91.9631C1459.65 91.9631 1460.07 91.8317 1460.42 91.5689C1460.77 91.3026 1461.03 90.935 1461.21 90.4663C1461.39 89.994 1461.48 89.4489 1461.48 88.831C1461.48 88.2202 1461.4 87.6857 1461.22 87.2276C1461.04 86.766 1460.78 86.4073 1460.43 86.1516C1460.08 85.8924 1459.65 85.7628 1459.14 85.7628C1458.61 85.7628 1458.16 85.8995 1457.81 86.1729C1457.46 86.4428 1457.19 86.8104 1457.02 87.2756C1456.84 87.7372 1456.75 88.2557 1456.75 88.831C1456.75 89.4134 1456.84 89.9425 1457.02 90.4183C1457.2 90.8906 1457.47 91.267 1457.82 91.5476C1458.18 91.8246 1458.62 91.9631 1459.14 91.9631ZM1470.18 89.5767V84.7401H1471.44V92.9219H1470.18V91.5369H1470.09C1469.9 91.9524 1469.6 92.3058 1469.2 92.5969C1468.79 92.8846 1468.28 93.0284 1467.66 93.0284C1467.15 93.0284 1466.7 92.9165 1466.3 92.6928C1465.9 92.4656 1465.59 92.1246 1465.36 91.6701C1465.14 91.212 1465.02 90.6349 1465.02 89.9389V84.7401H1466.28V89.8537C1466.28 90.4503 1466.45 90.9261 1466.78 91.2812C1467.12 91.6364 1467.55 91.8139 1468.07 91.8139C1468.38 91.8139 1468.7 91.734 1469.02 91.5742C1469.35 91.4144 1469.62 91.1694 1469.84 90.8391C1470.07 90.5089 1470.18 90.0881 1470.18 89.5767ZM1473.74 92.9219V84.7401H1474.99V92.9219H1473.74ZM1474.38 83.3764C1474.13 83.3764 1473.92 83.293 1473.74 83.1261C1473.57 82.9592 1473.48 82.7585 1473.48 82.5241C1473.48 82.2898 1473.57 82.0891 1473.74 81.9222C1473.92 81.7553 1474.13 81.6719 1474.38 81.6719C1474.62 81.6719 1474.83 81.7553 1475.01 81.9222C1475.18 82.0891 1475.27 82.2898 1475.27 82.5241C1475.27 82.7585 1475.18 82.9592 1475.01 83.1261C1474.83 83.293 1474.62 83.3764 1474.38 83.3764ZM1480.86 84.7401V85.8054H1476.62V84.7401H1480.86ZM1477.85 82.7798H1479.11V90.5781C1479.11 90.9332 1479.16 91.1996 1479.26 91.3771C1479.37 91.5511 1479.5 91.6683 1479.67 91.7287C1479.83 91.7855 1480.01 91.8139 1480.19 91.8139C1480.33 91.8139 1480.45 91.8068 1480.54 91.7926C1480.62 91.7749 1480.7 91.7607 1480.75 91.75L1481 92.8793C1480.92 92.9112 1480.8 92.9432 1480.65 92.9751C1480.49 93.0107 1480.3 93.0284 1480.07 93.0284C1479.71 93.0284 1479.36 92.9521 1479.02 92.7994C1478.69 92.6467 1478.41 92.4141 1478.18 92.1016C1477.96 91.7891 1477.85 91.3949 1477.85 90.919V82.7798ZM1485.98 93.0923C1485.24 93.0923 1484.6 92.9165 1484.04 92.565C1483.48 92.2134 1483.05 91.7216 1482.74 91.0895C1482.43 90.4574 1482.27 89.7187 1482.27 88.8736C1482.27 88.0213 1482.43 87.2773 1482.74 86.6417C1483.05 86.006 1483.48 85.5124 1484.04 85.1609C1484.6 84.8093 1485.24 84.6335 1485.98 84.6335C1486.72 84.6335 1487.37 84.8093 1487.92 85.1609C1488.48 85.5124 1488.91 86.006 1489.22 86.6417C1489.53 87.2773 1489.69 88.0213 1489.69 88.8736C1489.69 89.7187 1489.53 90.4574 1489.22 91.0895C1488.91 91.7216 1488.48 92.2134 1487.92 92.565C1487.37 92.9165 1486.72 93.0923 1485.98 93.0923ZM1485.98 91.9631C1486.54 91.9631 1487 91.8192 1487.37 91.5316C1487.73 91.244 1488 90.8658 1488.17 90.397C1488.35 89.9283 1488.43 89.4205 1488.43 88.8736C1488.43 88.3267 1488.35 87.8171 1488.17 87.3448C1488 86.8725 1487.73 86.4908 1487.37 86.1996C1487 85.9084 1486.54 85.7628 1485.98 85.7628C1485.42 85.7628 1484.96 85.9084 1484.6 86.1996C1484.24 86.4908 1483.97 86.8725 1483.79 87.3448C1483.62 87.8171 1483.53 88.3267 1483.53 88.8736C1483.53 89.4205 1483.62 89.9283 1483.79 90.397C1483.97 90.8658 1484.24 91.244 1484.6 91.5316C1484.96 91.8192 1485.42 91.9631 1485.98 91.9631ZM1499.49 93.071C1498.79 93.071 1498.16 92.9503 1497.61 92.7088C1497.06 92.4673 1496.63 92.1317 1496.31 91.7021C1495.99 91.2688 1495.81 90.7663 1495.78 90.1946H1497.13C1497.16 90.5462 1497.28 90.8498 1497.49 91.1055C1497.7 91.3576 1497.98 91.5529 1498.33 91.6914C1498.67 91.8299 1499.05 91.8991 1499.47 91.8991C1499.94 91.8991 1500.36 91.8175 1500.72 91.6541C1501.08 91.4908 1501.36 91.2635 1501.57 90.9723C1501.78 90.6811 1501.88 90.3438 1501.88 89.9602C1501.88 89.5589 1501.78 89.2056 1501.58 88.9002C1501.38 88.5913 1501.09 88.3498 1500.71 88.1758C1500.32 88.0018 1499.85 87.9148 1499.3 87.9148H1498.43V86.7429H1499.3C1499.73 86.7429 1500.11 86.6648 1500.44 86.5085C1500.77 86.3523 1501.03 86.1321 1501.21 85.848C1501.4 85.5639 1501.49 85.2301 1501.49 84.8466C1501.49 84.4773 1501.41 84.1559 1501.25 83.8825C1501.09 83.609 1500.86 83.396 1500.56 83.2433C1500.26 83.0906 1499.91 83.0142 1499.51 83.0142C1499.14 83.0142 1498.78 83.0835 1498.45 83.2219C1498.12 83.3569 1497.85 83.554 1497.64 83.8132C1497.43 84.0689 1497.32 84.3778 1497.3 84.7401H1496.02C1496.04 84.1683 1496.21 83.6676 1496.54 83.2379C1496.86 82.8047 1497.28 82.4673 1497.8 82.2259C1498.33 81.9844 1498.91 81.8636 1499.53 81.8636C1500.21 81.8636 1500.79 82.0004 1501.27 82.2738C1501.75 82.5437 1502.13 82.9006 1502.38 83.3445C1502.64 83.7884 1502.77 84.2678 1502.77 84.7827C1502.77 85.397 1502.61 85.9208 1502.29 86.354C1501.97 86.7873 1501.53 87.0874 1500.98 87.2543V87.3395C1501.67 87.4531 1502.21 87.7461 1502.6 88.2184C1502.98 88.6871 1503.18 89.2678 1503.18 89.9602C1503.18 90.5533 1503.02 91.0859 1502.69 91.5582C1502.37 92.027 1501.94 92.3963 1501.38 92.6662C1500.83 92.9361 1500.2 93.071 1499.49 93.071Z" fill="white"/>
<path fill-rule="evenodd" clip-rule="evenodd" d="M1502.73 170.027C1502.21 170.281 1501.68 170.506 1501.14 170.701C1500 179.594 1498.64 191.967 1498.79 199.25C1498.87 199.555 1499.41 208.949 1497.34 214.2C1497.03 214.975 1496.53 215.663 1495.9 216.202C1495.26 216.741 1494.5 217.114 1493.68 217.287C1492.87 217.461 1492.02 217.43 1491.22 217.198C1490.42 216.965 1489.68 216.538 1489.09 215.954C1485.32 212.008 1482.67 207.138 1481.39 201.837C1480.88 200.046 1480.49 198.225 1480.2 196.385C1480.13 195.803 1480.07 195.22 1480.02 194.637L1467.79 200.216L1456.46 223.818C1456.26 224.237 1455.9 224.557 1455.46 224.709C1455.02 224.862 1454.53 224.833 1454.12 224.629C1453.88 224.517 1453.67 224.354 1453.51 224.153C1453.35 223.951 1453.23 223.716 1453.17 223.464C1453.05 223.054 1453.09 222.617 1453.27 222.234L1464.89 198.081C1465.07 197.704 1465.38 197.403 1465.76 197.231L1479.87 190.786C1479.94 185.038 1481.24 179.348 1483.72 174.113C1484.55 172.34 1485.38 170.711 1486.21 169.225C1485.94 169.132 1485.67 169.034 1485.39 168.93C1484.83 168.756 1484.29 168.538 1483.77 168.279C1482.82 169.291 1481.2 170.859 1478.92 172.524L1475.14 184.289C1475.04 184.621 1474.84 184.916 1474.56 185.134C1468.89 189.494 1462.3 192.505 1455.28 193.941C1452.46 194.447 1449.9 195.924 1448.05 198.118L1432.28 216.903C1431.98 217.258 1431.55 217.48 1431.09 217.519C1430.62 217.558 1430.16 217.411 1429.81 217.111C1429.6 216.904 1429.45 216.651 1429.37 216.372C1429.3 216.098 1429.29 215.811 1429.36 215.534C1429.42 215.258 1429.55 215 1429.73 214.784L1445.49 195.909C1447.87 193.091 1451.16 191.192 1454.79 190.542C1461.05 189.195 1466.94 186.518 1472.07 182.69L1474.34 175.398C1465.81 179.951 1452.08 183.188 1433.28 174.975C1433.02 174.863 1432.8 174.691 1432.62 174.476C1432.45 174.26 1432.33 174.006 1432.27 173.734C1432.2 173.481 1432.19 173.215 1432.24 172.957C1432.28 172.699 1432.39 172.454 1432.54 172.241C1444.77 155.687 1458.31 151.644 1467.97 151.354L1462.25 146.098C1455.89 145.334 1449.45 145.956 1443.35 147.921C1439.89 149.168 1436.1 149.167 1432.63 147.918L1409.6 139.53C1409.33 139.439 1409.08 139.284 1408.89 139.077C1408.69 138.87 1408.54 138.618 1408.46 138.342C1408.37 137.996 1408.39 137.629 1408.51 137.292C1408.67 136.855 1408.99 136.497 1409.42 136.299C1409.84 136.101 1410.32 136.078 1410.76 136.235L1433.81 144.619C1436.51 145.578 1439.46 145.572 1442.16 144.603C1448.96 142.374 1456.18 141.715 1463.28 142.674C1463.62 142.728 1463.94 142.882 1464.2 143.119L1473.41 151.575C1476.04 151.871 1478.11 152.383 1479.43 152.786C1479.77 152.259 1480.15 151.759 1480.57 151.293C1480.76 151.085 1480.94 150.884 1481.12 150.688L1481.12 150.687L1481.12 150.686L1481.12 150.686L1481.2 150.593C1479.78 149.749 1478.29 148.79 1476.74 147.715C1471.97 144.453 1467.99 140.21 1465.05 135.297L1449.56 136.777C1449.15 136.818 1448.73 136.71 1448.39 136.473L1426.22 121.229C1425.87 120.992 1425.62 120.64 1425.51 120.235C1425.45 119.99 1425.43 119.733 1425.48 119.483C1425.52 119.232 1425.62 118.994 1425.76 118.785C1425.9 118.597 1426.07 118.439 1426.27 118.317C1426.46 118.196 1426.68 118.116 1426.91 118.08C1427.14 118.044 1427.37 118.053 1427.6 118.108C1427.82 118.163 1428.04 118.261 1428.22 118.398L1449.84 133.173L1463.23 131.891C1462.96 131.32 1462.7 130.741 1462.46 130.155C1461.78 128.42 1461.22 126.645 1460.76 124.841C1459.22 119.61 1459.08 114.066 1460.37 108.766C1460.58 107.944 1461.01 107.19 1461.59 106.573C1462.18 105.957 1462.91 105.498 1463.72 105.239C1464.53 104.98 1465.39 104.93 1466.23 105.092C1467.06 105.255 1467.84 105.625 1468.5 106.169C1472.38 109.344 1476.13 116.371 1477.05 118.107C1477.16 118.32 1477.24 118.453 1477.26 118.49C1480.72 124.813 1488.06 134.795 1493.49 141.919C1494.05 141.819 1494.62 141.751 1495.18 141.716C1494.53 135.25 1497.74 128.347 1497.9 128.028C1498.07 127.672 1498.35 127.382 1498.7 127.205C1499.05 127.028 1499.45 126.975 1499.84 127.053C1499.84 127.053 1507.2 128.904 1508.64 129.28C1508.8 129.311 1508.96 129.305 1509.11 129.264C1509.27 129.223 1509.41 129.148 1509.53 129.043C1512.76 126.904 1515.57 115.394 1516.58 108.626C1516.61 108.398 1516.69 108.179 1516.81 107.982C1516.93 107.784 1517.09 107.613 1517.28 107.477C1517.47 107.34 1517.68 107.242 1517.9 107.188C1518.13 107.134 1518.36 107.124 1518.59 107.16C1519.05 107.229 1519.46 107.476 1519.74 107.849C1520.01 108.221 1520.13 108.688 1520.07 109.148L1520.05 109.258C1519.66 111.634 1516.96 128.344 1511.48 131.979C1510.94 132.35 1510.34 132.604 1509.7 132.722C1509.06 132.84 1508.4 132.82 1507.77 132.664C1506.73 132.395 1502.69 131.367 1500.47 130.816C1499.62 133.077 1498.13 137.82 1498.69 141.913C1500.39 142.212 1502.05 142.808 1503.58 143.69C1504.7 144.336 1505.72 145.118 1506.62 146.011C1506.71 145.816 1506.81 145.624 1506.92 145.438C1507.38 144.632 1508 143.926 1508.74 143.359C1509.48 142.793 1510.32 142.377 1511.22 142.137C1512.12 141.896 1513.05 141.834 1513.98 141.956C1514.9 142.077 1515.79 142.379 1516.59 142.844C1517.4 143.31 1518.11 143.929 1518.67 144.667C1519.24 145.405 1519.65 146.248 1519.89 147.146L1521.45 152.937C1521.93 154.752 1521.68 156.686 1520.74 158.313C1519.8 159.94 1518.25 161.127 1516.44 161.614C1514.62 162.1 1512.69 161.845 1511.06 160.906C1510.88 160.799 1510.7 160.684 1510.52 160.562C1510.19 161.79 1509.69 162.981 1509.05 164.102C1508.18 165.61 1507.06 166.939 1505.75 168.042C1507.28 171.921 1510.98 175.251 1512.86 176.784L1518.26 171.533C1518.73 171.082 1519.29 170.736 1519.91 170.518C1520.52 170.3 1521.17 170.216 1521.82 170.271C1528.5 170.683 1539.44 184.205 1540.67 185.749C1540.97 186.115 1541.1 186.582 1541.05 187.047C1540.99 187.511 1540.76 187.936 1540.39 188.227C1540.03 188.518 1539.56 188.652 1539.09 188.599C1538.63 188.546 1538.2 188.311 1537.91 187.945C1533.65 182.571 1525.46 174.009 1521.59 173.772C1521.44 173.739 1521.28 173.743 1521.13 173.783C1520.98 173.824 1520.84 173.899 1520.73 174.004L1514.14 180.375C1513.84 180.657 1513.46 180.827 1513.05 180.856C1512.64 180.886 1512.24 180.772 1511.9 180.536C1511.61 180.339 1505.44 175.942 1502.73 170.027ZM1467.68 132.654C1467.67 132.626 1467.66 132.597 1467.64 132.57C1467.62 132.524 1467.59 132.479 1467.56 132.435C1466.91 131.256 1466.32 130.038 1465.8 128.786C1462.01 119.536 1462.88 112.86 1463.74 109.682C1463.81 109.432 1463.94 109.203 1464.12 109.015C1464.3 108.828 1464.52 108.687 1464.76 108.607C1465.02 108.526 1465.28 108.51 1465.54 108.562C1465.8 108.613 1466.04 108.73 1466.25 108.902C1470.07 111.972 1474.03 119.973 1474.08 120.126C1477.82 126.983 1485.7 137.637 1491.24 144.879C1491.28 144.937 1491.32 144.992 1491.36 145.045C1492.87 147.007 1494.19 148.71 1495.21 150.009C1495.29 150.114 1495.35 150.233 1495.39 150.36C1495.45 150.575 1495.44 150.805 1495.35 151.009C1495.29 151.167 1495.19 151.305 1495.06 151.408C1494.93 151.511 1494.77 151.574 1494.61 151.589C1491.2 151.991 1485.5 149.588 1478.76 144.789C1474.17 141.631 1470.39 137.474 1467.68 132.654ZM1482.16 155.111C1482.45 154.56 1482.81 154.045 1483.24 153.581C1483.62 153.165 1484 152.75 1484.38 152.343C1488.68 154.511 1492.26 155.44 1495.1 155.116C1495.89 155.017 1496.63 154.708 1497.26 154.22C1497.88 153.732 1498.36 153.083 1498.65 152.344C1498.96 151.602 1499.07 150.791 1498.96 149.995C1498.85 149.199 1498.53 148.446 1498.04 147.813C1497.46 147.069 1496.77 146.19 1496.01 145.204C1496.19 145.203 1496.37 145.206 1496.56 145.213C1496.89 145.35 1497.26 145.382 1497.61 145.303C1499.08 145.498 1500.51 145.979 1501.82 146.735C1503.88 147.925 1505.5 149.72 1506.49 151.854L1507.48 155.577C1507.7 157.916 1507.19 160.283 1506 162.344C1505.24 163.656 1504.24 164.79 1503.06 165.695C1502.77 165.802 1502.52 165.983 1502.32 166.219C1502.11 166.355 1501.9 166.484 1501.68 166.607C1501.84 165.396 1501.99 164.314 1502.12 163.394C1502.23 162.599 1502.13 161.788 1501.83 161.044C1501.52 160.301 1501.03 159.652 1500.39 159.163C1499.77 158.661 1499.03 158.337 1498.24 158.227C1497.46 158.117 1496.66 158.225 1495.93 158.539C1493.29 159.665 1490.67 162.214 1488.07 166.159C1487.54 166.005 1487 165.847 1486.48 165.688C1485.77 165.463 1485.1 165.133 1484.49 164.711L1484.47 164.693C1484.46 164.683 1484.44 164.673 1484.43 164.663C1484.39 164.629 1484.34 164.598 1484.29 164.569C1483.96 164.32 1483.64 164.042 1483.35 163.738C1482.49 162.835 1481.87 161.73 1481.54 160.523C1481.22 159.317 1481.21 158.048 1481.5 156.835C1481.55 156.619 1481.62 156.406 1481.69 156.196C1481.83 156.047 1481.94 155.872 1482.02 155.68C1482.1 155.497 1482.15 155.305 1482.16 155.111ZM1478.06 156.04C1472.44 154.362 1453.81 150.987 1436.69 172.641C1456.03 180.392 1468.99 175.294 1475.92 170.486C1475.97 170.418 1476.01 170.353 1476.07 170.291C1476.21 170.113 1476.39 169.965 1476.6 169.857C1476.73 169.789 1476.87 169.737 1477.01 169.703C1478.79 168.36 1480.09 167.098 1480.91 166.217C1480.88 166.181 1480.84 166.146 1480.81 166.11C1479.54 164.804 1478.61 163.202 1478.12 161.449C1477.65 159.687 1477.62 157.834 1478.05 156.059L1478.06 156.04ZM1483.72 195.917C1483.57 194.747 1483.48 193.575 1483.44 192.403C1483.5 192.22 1483.52 192.028 1483.52 191.836C1483.51 191.664 1483.48 191.494 1483.43 191.332C1483.42 185.899 1484.64 180.513 1487.01 175.58C1490.52 168.033 1494.19 163.118 1497.34 161.765L1497.26 161.766C1497.41 161.7 1497.58 161.679 1497.74 161.703C1497.9 161.728 1498.05 161.797 1498.17 161.904C1498.32 162.013 1498.43 162.158 1498.5 162.324C1498.57 162.491 1498.6 162.673 1498.57 162.853C1497.49 170.495 1494.99 189.348 1495.21 199.353C1495.22 199.442 1495.79 208.354 1494.04 212.916C1493.95 213.165 1493.8 213.387 1493.61 213.561C1493.41 213.736 1493.17 213.856 1492.91 213.912C1492.66 213.965 1492.39 213.954 1492.14 213.881C1491.9 213.808 1491.67 213.674 1491.49 213.492C1489.16 211.186 1485.06 205.822 1483.72 195.917ZM1511.21 155.68L1510.9 154.548C1510.82 153.949 1510.7 153.353 1510.54 152.763C1510.38 152.173 1510.19 151.597 1509.96 151.036L1509.65 149.89C1509.41 148.976 1509.54 148.002 1510.01 147.182C1510.48 146.362 1511.26 145.764 1512.18 145.519C1513.09 145.274 1514.07 145.402 1514.89 145.876C1515.71 146.349 1516.3 147.128 1516.55 148.043L1518.1 153.833C1518.35 154.747 1518.22 155.721 1517.74 156.541C1517.27 157.361 1516.49 157.959 1515.58 158.204C1514.66 158.449 1513.69 158.321 1512.87 157.847C1512.05 157.374 1511.45 156.595 1511.21 155.68Z" fill="white"/>
<g filter="url(#filter1_bf_341_88)">
<circle cx="1474.21" cy="386.141" r="92.1103" transform="rotate(-64.0339 1474.21 386.141)" fill="#AFC0EE"/>
</g>
<path d="M1426.12 327.271V319.09H1427.34V320.368H1427.44C1427.61 319.931 1427.89 319.592 1428.27 319.351C1428.65 319.106 1429.11 318.983 1429.64 318.983C1430.18 318.983 1430.63 319.106 1430.99 319.351C1431.35 319.592 1431.63 319.931 1431.83 320.368H1431.92C1432.13 319.945 1432.44 319.61 1432.86 319.361C1433.28 319.109 1433.78 318.983 1434.37 318.983C1435.1 318.983 1435.7 319.212 1436.16 319.67C1436.63 320.125 1436.86 320.833 1436.86 321.796V327.271H1435.6V321.796C1435.6 321.192 1435.44 320.76 1435.11 320.501C1434.78 320.242 1434.39 320.112 1433.94 320.112C1433.37 320.112 1432.92 320.286 1432.61 320.634C1432.29 320.979 1432.13 321.416 1432.13 321.945V327.271H1430.85V321.668C1430.85 321.203 1430.7 320.828 1430.4 320.544C1430.1 320.256 1429.71 320.112 1429.23 320.112C1428.91 320.112 1428.6 320.199 1428.32 320.373C1428.04 320.547 1427.81 320.789 1427.64 321.098C1427.47 321.403 1427.38 321.757 1427.38 322.158V327.271H1426.12ZM1442.48 327.442C1441.75 327.442 1441.1 327.266 1440.54 326.915C1439.99 326.563 1439.55 326.071 1439.24 325.439C1438.93 324.807 1438.78 324.068 1438.78 323.223C1438.78 322.371 1438.93 321.627 1439.24 320.991C1439.55 320.356 1439.99 319.862 1440.54 319.51C1441.1 319.159 1441.75 318.983 1442.48 318.983C1443.22 318.983 1443.87 319.159 1444.42 319.51C1444.98 319.862 1445.41 320.356 1445.72 320.991C1446.04 321.627 1446.19 322.371 1446.19 323.223C1446.19 324.068 1446.04 324.807 1445.72 325.439C1445.41 326.071 1444.98 326.563 1444.42 326.915C1443.87 327.266 1443.22 327.442 1442.48 327.442ZM1442.48 326.313C1443.05 326.313 1443.51 326.169 1443.87 325.881C1444.23 325.594 1444.5 325.215 1444.67 324.747C1444.85 324.278 1444.93 323.77 1444.93 323.223C1444.93 322.676 1444.85 322.167 1444.67 321.694C1444.5 321.222 1444.23 320.84 1443.87 320.549C1443.51 320.258 1443.05 320.112 1442.48 320.112C1441.92 320.112 1441.46 320.258 1441.1 320.549C1440.74 320.84 1440.47 321.222 1440.29 321.694C1440.12 322.167 1440.03 322.676 1440.03 323.223C1440.03 323.77 1440.12 324.278 1440.29 324.747C1440.47 325.215 1440.74 325.594 1441.1 325.881C1441.46 326.169 1441.92 326.313 1442.48 326.313ZM1453.91 320.922L1452.78 321.242C1452.71 321.053 1452.6 320.871 1452.46 320.693C1452.33 320.512 1452.14 320.363 1451.91 320.246C1451.67 320.128 1451.37 320.07 1451.01 320.07C1450.51 320.07 1450.09 320.185 1449.76 320.416C1449.43 320.643 1449.26 320.933 1449.26 321.284C1449.26 321.597 1449.37 321.844 1449.6 322.025C1449.83 322.206 1450.18 322.357 1450.67 322.477L1451.88 322.776C1452.61 322.953 1453.16 323.225 1453.52 323.591C1453.88 323.953 1454.06 324.42 1454.06 324.992C1454.06 325.46 1453.92 325.879 1453.65 326.249C1453.38 326.618 1453.01 326.909 1452.53 327.122C1452.05 327.335 1451.49 327.442 1450.86 327.442C1450.02 327.442 1449.33 327.261 1448.79 326.899C1448.24 326.536 1447.89 326.007 1447.75 325.311L1448.94 325.013C1449.06 325.453 1449.27 325.784 1449.59 326.004C1449.91 326.224 1450.32 326.334 1450.84 326.334C1451.42 326.334 1451.89 326.21 1452.23 325.961C1452.58 325.709 1452.76 325.407 1452.76 325.056C1452.76 324.771 1452.66 324.534 1452.46 324.342C1452.26 324.146 1451.95 324.001 1451.54 323.905L1450.18 323.585C1449.43 323.408 1448.88 323.133 1448.53 322.76C1448.18 322.383 1448 321.913 1448 321.348C1448 320.887 1448.13 320.478 1448.39 320.123C1448.66 319.768 1449.01 319.489 1449.46 319.287C1449.92 319.084 1450.43 318.983 1451.01 318.983C1451.82 318.983 1452.45 319.161 1452.92 319.516C1453.38 319.871 1453.71 320.34 1453.91 320.922ZM1461.53 330.34V326.014H1461.42C1461.33 326.164 1461.2 326.352 1461.03 326.579C1460.86 326.803 1460.62 327.003 1460.3 327.181C1459.98 327.355 1459.56 327.442 1459.04 327.442C1458.36 327.442 1457.75 327.27 1457.23 326.925C1456.71 326.577 1456.3 326.087 1456.01 325.455C1455.71 324.819 1455.56 324.068 1455.56 323.202C1455.56 322.343 1455.71 321.597 1456.01 320.965C1456.3 320.333 1456.71 319.844 1457.24 319.5C1457.76 319.155 1458.37 318.983 1459.06 318.983C1459.59 318.983 1460.01 319.072 1460.32 319.249C1460.63 319.423 1460.87 319.622 1461.03 319.846C1461.2 320.066 1461.33 320.247 1461.42 320.389H1461.57V319.09H1462.79V330.34H1461.53ZM1459.21 326.313C1459.71 326.313 1460.14 326.181 1460.49 325.919C1460.83 325.652 1461.1 325.285 1461.28 324.816C1461.46 324.344 1461.55 323.798 1461.55 323.181C1461.55 322.57 1461.46 322.035 1461.28 321.577C1461.11 321.116 1460.84 320.757 1460.5 320.501C1460.15 320.242 1459.72 320.112 1459.21 320.112C1458.67 320.112 1458.23 320.249 1457.88 320.523C1457.52 320.792 1457.26 321.16 1457.08 321.625C1456.91 322.087 1456.82 322.605 1456.82 323.181C1456.82 323.763 1456.91 324.292 1457.09 324.768C1457.27 325.24 1457.53 325.617 1457.89 325.897C1458.24 326.174 1458.68 326.313 1459.21 326.313ZM1470.24 323.926V319.09H1471.5V327.271H1470.24V325.887H1470.16C1469.97 326.302 1469.67 326.655 1469.26 326.947C1468.86 327.234 1468.35 327.378 1467.73 327.378C1467.22 327.378 1466.76 327.266 1466.37 327.042C1465.97 326.815 1465.66 326.474 1465.43 326.02C1465.2 325.562 1465.09 324.985 1465.09 324.289V319.09H1466.35V324.203C1466.35 324.8 1466.51 325.276 1466.85 325.631C1467.18 325.986 1467.61 326.164 1468.13 326.164C1468.45 326.164 1468.77 326.084 1469.09 325.924C1469.42 325.764 1469.69 325.519 1469.91 325.189C1470.13 324.858 1470.24 324.438 1470.24 323.926ZM1473.8 327.271V319.09H1475.06V327.271H1473.8ZM1474.44 317.726C1474.2 317.726 1473.99 317.643 1473.81 317.476C1473.64 317.309 1473.55 317.108 1473.55 316.874C1473.55 316.639 1473.64 316.439 1473.81 316.272C1473.99 316.105 1474.2 316.021 1474.44 316.021C1474.69 316.021 1474.9 316.105 1475.07 316.272C1475.25 316.439 1475.34 316.639 1475.34 316.874C1475.34 317.108 1475.25 317.309 1475.07 317.476C1474.9 317.643 1474.69 317.726 1474.44 317.726ZM1480.92 319.09V320.155H1476.68V319.09H1480.92ZM1477.92 317.129H1479.17V324.928C1479.17 325.283 1479.23 325.549 1479.33 325.727C1479.44 325.901 1479.57 326.018 1479.73 326.078C1479.9 326.135 1480.08 326.164 1480.26 326.164C1480.4 326.164 1480.51 326.156 1480.6 326.142C1480.69 326.124 1480.76 326.11 1480.82 326.1L1481.07 327.229C1480.99 327.261 1480.87 327.293 1480.71 327.325C1480.56 327.36 1480.37 327.378 1480.13 327.378C1479.78 327.378 1479.43 327.302 1479.09 327.149C1478.75 326.996 1478.47 326.764 1478.25 326.451C1478.03 326.139 1477.92 325.744 1477.92 325.269V317.129ZM1486.05 327.442C1485.31 327.442 1484.66 327.266 1484.1 326.915C1483.55 326.563 1483.12 326.071 1482.8 325.439C1482.5 324.807 1482.34 324.068 1482.34 323.223C1482.34 322.371 1482.5 321.627 1482.8 320.991C1483.12 320.356 1483.55 319.862 1484.1 319.51C1484.66 319.159 1485.31 318.983 1486.05 318.983C1486.79 318.983 1487.43 319.159 1487.99 319.51C1488.55 319.862 1488.98 320.356 1489.29 320.991C1489.6 321.627 1489.76 322.371 1489.76 323.223C1489.76 324.068 1489.6 324.807 1489.29 325.439C1488.98 326.071 1488.55 326.563 1487.99 326.915C1487.43 327.266 1486.79 327.442 1486.05 327.442ZM1486.05 326.313C1486.61 326.313 1487.07 326.169 1487.43 325.881C1487.8 325.594 1488.06 325.215 1488.24 324.747C1488.41 324.278 1488.5 323.77 1488.5 323.223C1488.5 322.676 1488.41 322.167 1488.24 321.694C1488.06 321.222 1487.8 320.84 1487.43 320.549C1487.07 320.258 1486.61 320.112 1486.05 320.112C1485.49 320.112 1485.03 320.258 1484.66 320.549C1484.3 320.84 1484.03 321.222 1483.86 321.694C1483.69 322.167 1483.6 322.676 1483.6 323.223C1483.6 323.77 1483.69 324.278 1483.86 324.747C1484.03 325.215 1484.3 325.594 1484.66 325.881C1485.03 326.169 1485.49 326.313 1486.05 326.313ZM1499.56 327.421C1498.86 327.421 1498.23 327.3 1497.68 327.058C1497.13 326.817 1496.7 326.481 1496.37 326.052C1496.05 325.618 1495.88 325.116 1495.85 324.544H1497.19C1497.22 324.896 1497.34 325.199 1497.56 325.455C1497.77 325.707 1498.05 325.903 1498.39 326.041C1498.74 326.18 1499.12 326.249 1499.54 326.249C1500.01 326.249 1500.42 326.167 1500.78 326.004C1501.15 325.84 1501.43 325.613 1501.64 325.322C1501.84 325.031 1501.94 324.693 1501.94 324.31C1501.94 323.909 1501.85 323.555 1501.65 323.25C1501.45 322.941 1501.16 322.699 1500.77 322.525C1500.39 322.351 1499.92 322.264 1499.37 322.264H1498.49V321.093H1499.37C1499.8 321.093 1500.18 321.014 1500.51 320.858C1500.84 320.702 1501.09 320.482 1501.28 320.198C1501.47 319.914 1501.56 319.58 1501.56 319.196C1501.56 318.827 1501.48 318.506 1501.32 318.232C1501.15 317.959 1500.92 317.746 1500.62 317.593C1500.33 317.44 1499.98 317.364 1499.58 317.364C1499.2 317.364 1498.85 317.433 1498.51 317.572C1498.18 317.706 1497.91 317.904 1497.7 318.163C1497.5 318.419 1497.38 318.727 1497.36 319.09H1496.09C1496.11 318.518 1496.28 318.017 1496.6 317.588C1496.93 317.154 1497.35 316.817 1497.87 316.575C1498.4 316.334 1498.97 316.213 1499.6 316.213C1500.28 316.213 1500.85 316.35 1501.34 316.623C1501.82 316.893 1502.19 317.25 1502.45 317.694C1502.71 318.138 1502.84 318.617 1502.84 319.132C1502.84 319.747 1502.68 320.27 1502.36 320.704C1502.04 321.137 1501.6 321.437 1501.05 321.604V321.689C1501.74 321.803 1502.28 322.096 1502.66 322.568C1503.05 323.037 1503.24 323.617 1503.24 324.31C1503.24 324.903 1503.08 325.436 1502.76 325.908C1502.44 326.377 1502 326.746 1501.45 327.016C1500.9 327.286 1500.27 327.421 1499.56 327.421Z" fill="white"/>
<path fill-rule="evenodd" clip-rule="evenodd" d="M1454.39 376.012C1454.96 376.049 1455.53 376.119 1456.1 376.222C1461.53 369.09 1468.9 359.058 1472.4 352.674C1472.49 352.368 1476.72 343.966 1481.14 340.454C1481.79 339.936 1482.56 339.587 1483.39 339.44C1484.21 339.292 1485.05 339.349 1485.85 339.607C1486.64 339.865 1487.36 340.315 1487.94 340.917C1488.51 341.519 1488.93 342.255 1489.16 343.058C1490.44 348.358 1490.31 353.903 1488.76 359.133C1488.31 360.937 1487.74 362.712 1487.07 364.447C1486.84 364.989 1486.61 365.524 1486.36 366.054L1499.72 367.333L1521.34 352.558C1521.72 352.297 1522.2 352.2 1522.66 352.288C1523.11 352.377 1523.52 352.643 1523.78 353.029C1523.92 353.244 1524.02 353.488 1524.06 353.744C1524.11 354.001 1524.09 354.263 1524.02 354.513C1523.91 354.925 1523.66 355.284 1523.31 355.525L1501.17 370.632C1500.83 370.869 1500.41 370.977 1500 370.936L1484.56 369.461C1481.63 374.408 1477.65 378.685 1472.89 381.978C1471.28 383.1 1469.75 384.096 1468.28 384.966C1468.47 385.181 1468.66 385.402 1468.85 385.632C1469.24 386.061 1469.6 386.52 1469.92 387.002C1471.25 386.599 1473.43 386.05 1476.24 385.75L1485.4 377.452C1485.66 377.216 1485.98 377.061 1486.32 377.007C1493.42 376.069 1500.63 376.758 1507.42 379.021C1510.12 379.995 1513.08 379.995 1515.78 379.021L1538.83 370.637C1539.26 370.48 1539.75 370.503 1540.17 370.701C1540.59 370.899 1540.91 371.256 1541.07 371.694C1541.15 371.974 1541.15 372.269 1541.08 372.551C1541.01 372.825 1540.87 373.076 1540.67 373.285C1540.48 373.493 1540.24 373.652 1539.98 373.748L1516.89 382.212C1513.42 383.463 1509.62 383.463 1506.15 382.211C1500.06 380.248 1493.61 379.62 1487.26 380.37L1481.65 385.553C1491.32 385.876 1504.82 389.938 1517 406.45C1517.16 406.675 1517.27 406.935 1517.31 407.209C1517.36 407.483 1517.34 407.764 1517.25 408.028C1517.18 408.282 1517.06 408.518 1516.89 408.718C1516.72 408.918 1516.51 409.077 1516.27 409.184C1497.4 417.41 1483.66 414.141 1475.14 409.558L1477.47 416.974C1482.59 420.814 1488.48 423.498 1494.74 424.843C1498.37 425.496 1501.65 427.392 1504.03 430.206L1519.78 448.986C1519.97 449.201 1520.1 449.458 1520.17 449.737C1520.24 450.015 1520.24 450.306 1520.17 450.584C1520.08 450.93 1519.88 451.239 1519.61 451.47C1519.25 451.77 1518.79 451.916 1518.33 451.877C1517.86 451.838 1517.43 451.617 1517.13 451.262L1501.36 432.476C1499.5 430.295 1496.94 428.825 1494.12 428.316C1487.11 426.843 1480.53 423.803 1474.86 419.425C1474.59 419.206 1474.39 418.912 1474.29 418.58L1470.54 406.645C1468.42 405.079 1466.88 403.601 1465.93 402.589C1465.38 402.879 1464.8 403.122 1464.2 403.315C1463.93 403.4 1463.68 403.483 1463.43 403.564L1463.42 403.565L1463.42 403.565L1463.42 403.565L1463.3 403.604C1464.11 405.045 1464.92 406.62 1465.73 408.329C1468.23 413.535 1469.55 419.199 1469.64 424.926L1483.79 431.387C1484.17 431.559 1484.48 431.86 1484.66 432.237L1496.24 456.526C1496.42 456.904 1496.46 457.334 1496.35 457.739C1496.29 457.984 1496.17 458.212 1496.01 458.408C1495.84 458.603 1495.64 458.761 1495.41 458.87C1495.2 458.965 1494.97 459.017 1494.74 459.023C1494.51 459.029 1494.28 458.989 1494.06 458.906C1493.85 458.822 1493.65 458.697 1493.48 458.537C1493.31 458.377 1493.18 458.186 1493.08 457.974L1481.75 434.372L1469.52 428.786C1469.47 429.416 1469.4 430.046 1469.32 430.675C1469.03 432.515 1468.64 434.335 1468.13 436.126C1466.85 441.428 1464.2 446.298 1460.43 450.244C1459.84 450.847 1459.09 451.29 1458.28 451.531C1457.46 451.771 1456.6 451.803 1455.77 451.622C1454.94 451.441 1454.16 451.053 1453.52 450.495C1452.88 449.937 1452.39 449.226 1452.09 448.428C1450.32 443.736 1450.59 435.779 1450.66 433.812C1450.66 433.571 1450.67 433.42 1450.67 433.376C1450.83 426.171 1449.47 413.859 1448.33 404.974C1447.79 404.779 1447.27 404.555 1446.76 404.302C1444.09 410.225 1437.86 414.599 1437.56 414.796C1437.24 415.021 1436.85 415.131 1436.46 415.108C1436.06 415.085 1435.69 414.931 1435.4 414.67C1435.4 414.67 1429.95 409.389 1428.88 408.339C1428.76 408.234 1428.62 408.159 1428.47 408.118C1428.32 408.077 1428.16 408.071 1428 408.102C1424.13 408.34 1415.94 416.901 1411.69 422.258C1411.54 422.438 1411.36 422.588 1411.16 422.699C1410.96 422.809 1410.73 422.879 1410.5 422.904C1410.27 422.928 1410.04 422.908 1409.82 422.842C1409.6 422.777 1409.39 422.669 1409.21 422.524C1408.85 422.235 1408.62 421.813 1408.56 421.352C1408.51 420.891 1408.64 420.428 1408.93 420.063L1409 419.976C1410.52 418.111 1421.21 404.99 1427.78 404.585C1428.43 404.53 1429.08 404.614 1429.69 404.832C1430.31 405.049 1430.87 405.395 1431.34 405.847C1432.1 406.598 1435.09 409.509 1436.74 411.098C1438.6 409.565 1442.26 406.203 1443.82 402.38C1442.49 401.268 1441.36 399.923 1440.47 398.395C1439.83 397.275 1439.34 396.087 1439 394.862C1438.82 394.986 1438.64 395.102 1438.46 395.21C1437.65 395.676 1436.76 395.978 1435.84 396.099C1434.92 396.22 1433.98 396.159 1433.08 395.918C1432.18 395.677 1431.34 395.262 1430.6 394.696C1429.86 394.129 1429.24 393.423 1428.78 392.617C1428.31 391.812 1428.01 390.922 1427.89 390C1427.77 389.077 1427.83 388.14 1428.07 387.241L1429.62 381.451C1430.11 379.636 1431.3 378.088 1432.92 377.149C1434.55 376.209 1436.48 375.955 1438.3 376.441C1440.11 376.927 1441.66 378.115 1442.6 379.742C1442.71 379.928 1442.81 380.117 1442.9 380.31C1443.8 379.414 1444.82 378.63 1445.94 377.982C1447.45 377.111 1449.09 376.519 1450.77 376.216C1451.39 372.093 1449.85 367.363 1448.98 365.092L1441.68 366.94C1441.05 367.096 1440.39 367.116 1439.75 366.998C1439.11 366.88 1438.5 366.626 1437.97 366.254C1432.39 362.557 1429.68 345.377 1429.38 343.424C1429.31 342.961 1429.43 342.49 1429.71 342.114C1429.99 341.738 1430.4 341.488 1430.87 341.419C1431.33 341.349 1431.8 341.467 1432.18 341.745C1432.55 342.023 1432.8 342.44 1432.87 342.902C1433.87 349.687 1436.69 361.197 1439.92 363.336C1440.03 363.441 1440.17 363.516 1440.32 363.557C1440.47 363.597 1440.63 363.601 1440.78 363.568L1449.68 361.347C1450.07 361.251 1450.49 361.295 1450.86 361.473C1451.23 361.652 1451.52 361.952 1451.69 362.323C1451.85 362.642 1454.99 369.531 1454.39 376.012ZM1466.04 425.861C1466.04 425.905 1466.03 425.948 1466.03 425.992C1466.03 426.056 1466.03 426.121 1466.04 426.184C1466.01 427.519 1465.91 428.856 1465.74 430.188C1464.39 440.093 1460.3 445.44 1457.97 447.763C1457.79 447.946 1457.56 448.079 1457.31 448.152C1457.06 448.226 1456.8 448.236 1456.55 448.183C1456.29 448.128 1456.05 448.007 1455.85 447.833C1455.65 447.659 1455.5 447.436 1455.41 447.187C1453.63 442.616 1454.2 433.704 1454.24 433.551C1454.43 425.736 1452.93 412.556 1451.75 403.514C1451.75 403.459 1451.74 403.404 1451.73 403.35C1451.41 400.89 1451.12 398.744 1450.89 397.107C1450.87 396.975 1450.87 396.841 1450.9 396.711C1450.95 396.493 1451.08 396.301 1451.26 396.171C1451.39 396.062 1451.54 395.991 1451.71 395.967C1451.87 395.943 1452.04 395.968 1452.19 396.037C1455.34 397.391 1459.08 402.324 1462.52 409.853C1464.91 414.868 1466.1 420.346 1466.04 425.861ZM1464.73 399.217C1464.2 399.546 1463.63 399.81 1463.04 399.999C1462.5 400.168 1461.96 400.337 1461.43 400.499C1458.78 396.471 1456.15 393.876 1453.53 392.738C1452.8 392.429 1452 392.325 1451.21 392.435C1450.43 392.545 1449.69 392.865 1449.07 393.362C1448.43 393.851 1447.93 394.5 1447.63 395.243C1447.32 395.986 1447.22 396.797 1447.33 397.593C1447.47 398.528 1447.62 399.632 1447.79 400.868C1447.63 400.779 1447.48 400.687 1447.32 400.591C1447.1 400.301 1446.8 400.086 1446.44 399.978C1445.27 399.074 1444.27 397.943 1443.52 396.637C1442.33 394.572 1441.82 392.202 1442.04 389.86L1443.03 386.155C1444.01 384.017 1445.64 382.219 1447.7 381.027C1449.01 380.27 1450.45 379.789 1451.92 379.595C1452.23 379.649 1452.54 379.619 1452.84 379.511C1453.08 379.498 1453.33 379.494 1453.58 379.497C1452.83 380.464 1452.16 381.327 1451.59 382.059C1451.1 382.693 1450.78 383.446 1450.67 384.242C1450.56 385.038 1450.67 385.849 1450.98 386.591C1451.26 387.334 1451.74 387.985 1452.36 388.474C1452.99 388.962 1453.74 389.27 1454.53 389.363C1457.37 389.705 1460.92 388.809 1465.14 386.692C1465.52 387.09 1465.91 387.496 1466.28 387.892C1466.78 388.438 1467.19 389.054 1467.51 389.718C1467.52 389.747 1467.53 389.776 1467.54 389.804C1467.57 389.86 1467.59 389.914 1467.62 389.967C1467.78 390.347 1467.92 390.741 1468.02 391.146C1468.31 392.359 1468.3 393.628 1467.97 394.834C1467.65 396.041 1467.03 397.146 1466.17 398.049C1466.01 398.208 1465.85 398.361 1465.69 398.505C1465.49 398.565 1465.3 398.66 1465.13 398.787C1464.98 398.908 1464.84 399.053 1464.73 399.217ZM1468.75 400.461C1472.78 404.724 1487.23 416.956 1512.87 406.765C1500.01 390.384 1486.23 388.319 1477.82 389.014C1477.75 389.051 1477.68 389.084 1477.6 389.111C1477.38 389.192 1477.15 389.229 1476.92 389.22C1476.78 389.214 1476.63 389.191 1476.49 389.15C1474.28 389.423 1472.52 389.866 1471.37 390.217C1471.38 390.266 1471.39 390.315 1471.41 390.365C1471.85 392.13 1471.85 393.979 1471.4 395.743C1470.93 397.506 1470.02 399.123 1468.77 400.446L1468.75 400.461ZM1483.79 363.096C1483.34 364.178 1482.83 365.234 1482.28 366.261C1482.14 366.396 1482.01 366.554 1481.92 366.729C1481.84 366.886 1481.78 367.055 1481.74 367.229C1479.03 371.929 1475.29 375.98 1470.77 379.064C1463.96 383.845 1458.33 386.267 1454.92 385.864L1454.98 385.899C1454.82 385.881 1454.67 385.818 1454.54 385.716C1454.41 385.614 1454.32 385.478 1454.26 385.324C1454.19 385.158 1454.17 384.976 1454.19 384.796C1454.21 384.617 1454.28 384.446 1454.39 384.303C1459.15 378.225 1470.74 363.149 1475.55 354.373C1475.59 354.293 1479.56 346.291 1483.35 343.212C1483.55 343.041 1483.79 342.923 1484.05 342.872C1484.31 342.82 1484.58 342.836 1484.83 342.917C1485.07 342.998 1485.3 343.138 1485.47 343.326C1485.65 343.513 1485.78 343.742 1485.85 343.992C1486.71 347.154 1487.58 353.846 1483.79 363.096ZM1439.86 384.194L1439.55 385.341C1439.33 385.897 1439.14 386.47 1438.98 387.056C1438.82 387.641 1438.7 388.233 1438.62 388.827L1438.31 389.985C1438.06 390.899 1437.47 391.679 1436.65 392.152C1435.83 392.625 1434.85 392.753 1433.94 392.508C1433.02 392.263 1432.25 391.665 1431.77 390.846C1431.3 390.026 1431.17 389.052 1431.42 388.138L1432.97 382.347C1433.21 381.433 1433.81 380.653 1434.63 380.18C1435.45 379.707 1436.42 379.579 1437.34 379.824C1438.25 380.069 1439.03 380.667 1439.5 381.486C1439.98 382.306 1440.11 383.28 1439.86 384.194Z" fill="white"/>
<defs>
<filter id="filter0_bf_341_88" x="1370.31" y="47.9611" width="207.662" height="207.662" filterUnits="userSpaceOnUse" color-interpolation-filters="sRGB">
<feFlood flood-opacity="0" result="BackgroundImageFix"/>
<feGaussianBlur in="BackgroundImageFix" stdDeviation="5.85"/>
<feComposite in2="SourceAlpha" operator="in" result="effect1_backgroundBlur_341_88"/>
<feBlend mode="normal" in="SourceGraphic" in2="effect1_backgroundBlur_341_88" result="shape"/>
<feGaussianBlur stdDeviation="2" result="effect2_foregroundBlur_341_88"/>
</filter>
<filter id="filter1_bf_341_88" x="1370.38" y="282.311" width="207.662" height="207.662" filterUnits="userSpaceOnUse" color-interpolation-filters="sRGB">
<feFlood flood-opacity="0" result="BackgroundImageFix"/>
<feGaussianBlur in="BackgroundImageFix" stdDeviation="5.85"/>
<feComposite in2="SourceAlpha" operator="in" result="effect1_backgroundBlur_341_88"/>
<feBlend mode="normal" in="SourceGraphic" in2="effect1_backgroundBlur_341_88" result="shape"/>
<feGaussianBlur stdDeviation="2" result="effect2_foregroundBlur_341_88"/>
</filter>
</defs>
</svg>
