<svg width="1447" height="614" viewBox="0 0 1447 614" fill="none" xmlns="http://www.w3.org/2000/svg">
<path d="M1206.81 175.019C1207.96 190.302 1227.95 206.693 1240 212C1253.45 217.92 1272 223.955 1327.5 221.5C1351 220.46 1393.34 234.917 1408.62 244.91" stroke="white" stroke-width="3" stroke-linecap="round"/>
<path d="M1200 438C1201.16 406.211 1221.41 372.118 1233.63 361.079C1247.25 348.765 1266.05 336.213 1322.29 341.319C1346.1 343.482 1389 313.413 1404.48 292.627C1408.98 286.589 1413.72 280.937 1418.01 274.321" stroke="white" stroke-width="3" stroke-linecap="round"/>
<path d="M1413.43 236.249C1397.67 226.796 1390.23 222.245 1388.48 221.15" stroke="white" stroke-width="3" stroke-linecap="round"/>
<path d="M1408.05 260.879C1395.43 263.827 1389.43 265.174 1388 265.479" stroke="white" stroke-width="3" stroke-linecap="round"/>
<path d="M1427.27 273.671C1424.91 291.893 1423.72 300.533 1423.41 302.575" stroke="white" stroke-width="3" stroke-linecap="round"/>
<path d="M1436.46 208.023C1434.1 226.245 1432.91 234.885 1432.61 236.927" stroke="white" stroke-width="3" stroke-linecap="round"/>
<path d="M2 97.7337C2 51.409 88.2188 -31.9098 265.036 23.68C486.057 93.1671 500.267 221.579 636.159 190.296C736.321 167.238 744.708 1.99976 880.222 2C1044.49 2.00029 1152.4 192.117 1180.6 221.579" stroke="#96A8D7" stroke-width="3"/>
<path d="M1178.11 496.776C1091.26 500.057 1064.25 418.689 967.907 420.657C890.831 422.232 773.272 472.059 724.126 496.776C666.356 525.83 598.082 594.031 498.298 596.657C373.567 599.94 388.666 486.369 257.37 485.056C126.074 483.743 28.2588 536.918 13.8163 613.726" stroke="#96A8D7" stroke-width="3"/>
<g filter="url(#filter0_bf_341_82)">
<circle cx="1140.99" cy="139.792" r="92.1103" transform="rotate(-64.0339 1140.99 139.792)" fill="#1752E2" fill-opacity="0.3"/>
</g>
<path d="M1092.91 80.9219V72.7401H1094.12V74.0185H1094.23C1094.4 73.5817 1094.68 73.2425 1095.06 73.0011C1095.44 72.756 1095.89 72.6335 1096.42 72.6335C1096.96 72.6335 1097.41 72.756 1097.77 73.0011C1098.13 73.2425 1098.42 73.5817 1098.62 74.0185H1098.7C1098.91 73.5959 1099.23 73.2603 1099.65 73.0117C1100.07 72.7596 1100.57 72.6335 1101.15 72.6335C1101.89 72.6335 1102.48 72.8626 1102.95 73.3207C1103.41 73.7752 1103.65 74.4837 1103.65 75.446V80.9219H1102.39V75.446C1102.39 74.8423 1102.22 74.4109 1101.89 74.1516C1101.56 73.8924 1101.18 73.7628 1100.73 73.7628C1100.15 73.7628 1099.71 73.9368 1099.39 74.2848C1099.07 74.6293 1098.92 75.0661 1098.92 75.5952V80.9219H1097.64V75.3182C1097.64 74.853 1097.49 74.4783 1097.19 74.1942C1096.88 73.9066 1096.5 73.7628 1096.02 73.7628C1095.69 73.7628 1095.39 73.8498 1095.1 74.0238C1094.82 74.1978 1094.6 74.4393 1094.42 74.7482C1094.25 75.0536 1094.17 75.407 1094.17 75.8082V80.9219H1092.91ZM1109.27 81.0923C1108.53 81.0923 1107.88 80.9165 1107.33 80.565C1106.77 80.2134 1106.34 79.7216 1106.03 79.0895C1105.72 78.4574 1105.56 77.7187 1105.56 76.8736C1105.56 76.0213 1105.72 75.2773 1106.03 74.6417C1106.34 74.006 1106.77 73.5124 1107.33 73.1609C1107.88 72.8093 1108.53 72.6335 1109.27 72.6335C1110.01 72.6335 1110.65 72.8093 1111.21 73.1609C1111.77 73.5124 1112.2 74.006 1112.51 74.6417C1112.82 75.2773 1112.98 76.0213 1112.98 76.8736C1112.98 77.7187 1112.82 78.4574 1112.51 79.0895C1112.2 79.7216 1111.77 80.2134 1111.21 80.565C1110.65 80.9165 1110.01 81.0923 1109.27 81.0923ZM1109.27 79.9631C1109.83 79.9631 1110.29 79.8192 1110.65 79.5316C1111.02 79.244 1111.28 78.8658 1111.46 78.397C1111.63 77.9283 1111.72 77.4205 1111.72 76.8736C1111.72 76.3267 1111.63 75.8171 1111.46 75.3448C1111.28 74.8725 1111.02 74.4908 1110.65 74.1996C1110.29 73.9084 1109.83 73.7628 1109.27 73.7628C1108.71 73.7628 1108.25 73.9084 1107.88 74.1996C1107.52 74.4908 1107.25 74.8725 1107.08 75.3448C1106.91 75.8171 1106.82 76.3267 1106.82 76.8736C1106.82 77.4205 1106.91 77.9283 1107.08 78.397C1107.25 78.8658 1107.52 79.244 1107.88 79.5316C1108.25 79.8192 1108.71 79.9631 1109.27 79.9631ZM1120.69 74.5724L1119.56 74.892C1119.49 74.7038 1119.39 74.521 1119.25 74.3434C1119.11 74.1623 1118.93 74.0131 1118.69 73.896C1118.46 73.7788 1118.16 73.7202 1117.79 73.7202C1117.29 73.7202 1116.88 73.8356 1116.54 74.0664C1116.21 74.2937 1116.05 74.5831 1116.05 74.9347C1116.05 75.2472 1116.16 75.494 1116.39 75.6751C1116.61 75.8562 1116.97 76.0071 1117.45 76.1278L1118.67 76.4261C1119.4 76.6037 1119.94 76.8754 1120.3 77.2411C1120.66 77.6033 1120.84 78.0703 1120.84 78.642C1120.84 79.1108 1120.71 79.5298 1120.44 79.8991C1120.17 80.2685 1119.8 80.5597 1119.32 80.7727C1118.84 80.9858 1118.28 81.0923 1117.64 81.0923C1116.81 81.0923 1116.12 80.9112 1115.57 80.549C1115.03 80.1868 1114.68 79.6577 1114.53 78.9616L1115.73 78.6634C1115.84 79.1037 1116.06 79.4339 1116.37 79.6541C1116.69 79.8743 1117.11 79.9844 1117.62 79.9844C1118.21 79.9844 1118.67 79.8601 1119.02 79.6115C1119.37 79.3594 1119.54 79.0575 1119.54 78.706C1119.54 78.4219 1119.44 78.1839 1119.24 77.9922C1119.04 77.7969 1118.74 77.6513 1118.33 77.5554L1116.96 77.2358C1116.21 77.0582 1115.66 76.783 1115.31 76.4102C1114.96 76.0337 1114.79 75.5632 1114.79 74.9986C1114.79 74.5369 1114.92 74.1286 1115.18 73.7734C1115.44 73.4183 1115.8 73.1396 1116.25 72.9371C1116.7 72.7347 1117.22 72.6335 1117.79 72.6335C1118.6 72.6335 1119.24 72.8111 1119.7 73.1662C1120.17 73.5213 1120.5 73.9901 1120.69 74.5724ZM1128.31 83.9901V79.6648H1128.21C1128.12 79.8139 1127.98 80.0021 1127.81 80.2294C1127.64 80.4531 1127.4 80.6538 1127.08 80.8313C1126.77 81.0053 1126.35 81.0923 1125.82 81.0923C1125.14 81.0923 1124.54 80.9201 1124.02 80.5756C1123.49 80.2276 1123.09 79.7376 1122.79 79.1055C1122.5 78.4698 1122.35 77.7188 1122.35 76.8523C1122.35 75.9929 1122.5 75.2472 1122.79 74.6151C1123.09 73.983 1123.5 73.4947 1124.02 73.1502C1124.55 72.8058 1125.15 72.6335 1125.84 72.6335C1126.38 72.6335 1126.8 72.7223 1127.11 72.8999C1127.42 73.0739 1127.66 73.2727 1127.82 73.4964C1127.99 73.7166 1128.12 73.8977 1128.21 74.0398H1128.36V72.7401H1129.57V83.9901H1128.31ZM1125.99 79.9631C1126.5 79.9631 1126.92 79.8317 1127.27 79.5689C1127.62 79.3026 1127.88 78.935 1128.06 78.4663C1128.25 77.994 1128.34 77.4489 1128.34 76.831C1128.34 76.2202 1128.25 75.6857 1128.07 75.2276C1127.89 74.766 1127.63 74.4073 1127.28 74.1516C1126.93 73.8924 1126.5 73.7628 1125.99 73.7628C1125.46 73.7628 1125.02 73.8995 1124.66 74.1729C1124.31 74.4428 1124.04 74.8104 1123.87 75.2756C1123.69 75.7372 1123.61 76.2557 1123.61 76.831C1123.61 77.4134 1123.69 77.9425 1123.87 78.4183C1124.05 78.8906 1124.32 79.267 1124.67 79.5476C1125.03 79.8246 1125.47 79.9631 1125.99 79.9631ZM1137.03 77.5767V72.7401H1138.29V80.9219H1137.03V79.5369H1136.94C1136.75 79.9524 1136.45 80.3058 1136.05 80.5969C1135.64 80.8846 1135.13 81.0284 1134.52 81.0284C1134 81.0284 1133.55 80.9165 1133.15 80.6928C1132.75 80.4656 1132.44 80.1246 1132.21 79.6701C1131.99 79.212 1131.87 78.6349 1131.87 77.9389V72.7401H1133.13V77.8537C1133.13 78.4503 1133.3 78.9261 1133.63 79.2812C1133.97 79.6364 1134.4 79.8139 1134.92 79.8139C1135.23 79.8139 1135.55 79.734 1135.87 79.5742C1136.2 79.4144 1136.47 79.1694 1136.69 78.8391C1136.92 78.5089 1137.03 78.0881 1137.03 77.5767ZM1140.59 80.9219V72.7401H1141.85V80.9219H1140.59ZM1141.23 71.3764C1140.98 71.3764 1140.77 71.293 1140.59 71.1261C1140.42 70.9592 1140.33 70.7585 1140.33 70.5241C1140.33 70.2898 1140.42 70.0891 1140.59 69.9222C1140.77 69.7553 1140.98 69.6719 1141.23 69.6719C1141.47 69.6719 1141.68 69.7553 1141.86 69.9222C1142.03 70.0891 1142.12 70.2898 1142.12 70.5241C1142.12 70.7585 1142.03 70.9592 1141.86 71.1261C1141.68 71.293 1141.47 71.3764 1141.23 71.3764ZM1147.71 72.7401V73.8054H1143.47V72.7401H1147.71ZM1144.7 70.7798H1145.96V78.5781C1145.96 78.9332 1146.01 79.1996 1146.11 79.3771C1146.22 79.5511 1146.36 79.6683 1146.52 79.7287C1146.69 79.7855 1146.86 79.8139 1147.05 79.8139C1147.18 79.8139 1147.3 79.8068 1147.39 79.7926C1147.48 79.7749 1147.55 79.7607 1147.6 79.75L1147.86 80.8793C1147.77 80.9112 1147.65 80.9432 1147.5 80.9751C1147.35 81.0107 1147.15 81.0284 1146.92 81.0284C1146.56 81.0284 1146.22 80.9521 1145.87 80.7994C1145.54 80.6467 1145.26 80.4141 1145.03 80.1016C1144.81 79.7891 1144.7 79.3949 1144.7 78.919V70.7798ZM1152.83 81.0923C1152.1 81.0923 1151.45 80.9165 1150.89 80.565C1150.34 80.2134 1149.9 79.7216 1149.59 79.0895C1149.28 78.4574 1149.13 77.7187 1149.13 76.8736C1149.13 76.0213 1149.28 75.2773 1149.59 74.6417C1149.9 74.006 1150.34 73.5124 1150.89 73.1609C1151.45 72.8093 1152.1 72.6335 1152.83 72.6335C1153.57 72.6335 1154.22 72.8093 1154.77 73.1609C1155.33 73.5124 1155.76 74.006 1156.07 74.6417C1156.38 75.2773 1156.54 76.0213 1156.54 76.8736C1156.54 77.7187 1156.38 78.4574 1156.07 79.0895C1155.76 79.7216 1155.33 80.2134 1154.77 80.565C1154.22 80.9165 1153.57 81.0923 1152.83 81.0923ZM1152.83 79.9631C1153.39 79.9631 1153.86 79.8192 1154.22 79.5316C1154.58 79.244 1154.85 78.8658 1155.02 78.397C1155.2 77.9283 1155.28 77.4205 1155.28 76.8736C1155.28 76.3267 1155.2 75.8171 1155.02 75.3448C1154.85 74.8725 1154.58 74.4908 1154.22 74.1996C1153.86 73.9084 1153.39 73.7628 1152.83 73.7628C1152.27 73.7628 1151.81 73.9084 1151.45 74.1996C1151.09 74.4908 1150.82 74.8725 1150.64 75.3448C1150.47 75.8171 1150.38 76.3267 1150.38 76.8736C1150.38 77.4205 1150.47 77.9283 1150.64 78.397C1150.82 78.8658 1151.09 79.244 1151.45 79.5316C1151.81 79.8192 1152.27 79.9631 1152.83 79.9631ZM1166.34 81.071C1165.64 81.071 1165.01 80.9503 1164.46 80.7088C1163.92 80.4673 1163.48 80.1317 1163.16 79.7021C1162.84 79.2688 1162.66 78.7663 1162.64 78.1946H1163.98C1164.01 78.5462 1164.13 78.8498 1164.34 79.1055C1164.55 79.3576 1164.83 79.5529 1165.18 79.6914C1165.52 79.8299 1165.9 79.8991 1166.32 79.8991C1166.79 79.8991 1167.21 79.8175 1167.57 79.6541C1167.93 79.4908 1168.22 79.2635 1168.42 78.9723C1168.63 78.6811 1168.73 78.3438 1168.73 77.9602C1168.73 77.5589 1168.63 77.2056 1168.43 76.9002C1168.23 76.5913 1167.94 76.3498 1167.56 76.1758C1167.17 76.0018 1166.71 75.9148 1166.15 75.9148H1165.28V74.7429H1166.15C1166.59 74.7429 1166.97 74.6648 1167.29 74.5085C1167.62 74.3523 1167.88 74.1321 1168.06 73.848C1168.25 73.5639 1168.35 73.2301 1168.35 72.8466C1168.35 72.4773 1168.26 72.1559 1168.1 71.8825C1167.94 71.609 1167.71 71.396 1167.41 71.2433C1167.11 71.0906 1166.77 71.0142 1166.36 71.0142C1165.99 71.0142 1165.63 71.0835 1165.3 71.2219C1164.97 71.3569 1164.7 71.554 1164.49 71.8132C1164.28 72.0689 1164.17 72.3778 1164.15 72.7401H1162.87C1162.89 72.1683 1163.06 71.6676 1163.39 71.2379C1163.71 70.8047 1164.13 70.4673 1164.66 70.2259C1165.18 69.9844 1165.76 69.8636 1166.39 69.8636C1167.06 69.8636 1167.64 70.0004 1168.12 70.2738C1168.61 70.5437 1168.98 70.9006 1169.24 71.3445C1169.5 71.7884 1169.62 72.2678 1169.62 72.7827C1169.62 73.397 1169.46 73.9208 1169.14 74.354C1168.82 74.7873 1168.39 75.0874 1167.84 75.2543V75.3395C1168.52 75.4531 1169.06 75.7461 1169.45 76.2184C1169.84 76.6871 1170.03 77.2678 1170.03 77.9602C1170.03 78.5533 1169.87 79.0859 1169.55 79.5582C1169.23 80.027 1168.79 80.3963 1168.23 80.6662C1167.68 80.9361 1167.05 81.071 1166.34 81.071Z" fill="white"/>
<path fill-rule="evenodd" clip-rule="evenodd" d="M1169.58 158.027C1169.06 158.281 1168.53 158.506 1167.99 158.701C1166.85 167.594 1165.49 179.967 1165.64 187.25C1165.72 187.555 1166.26 196.949 1164.19 202.2C1163.88 202.975 1163.39 203.663 1162.75 204.202C1162.11 204.741 1161.35 205.114 1160.53 205.287C1159.72 205.461 1158.87 205.43 1158.07 205.198C1157.27 204.965 1156.54 204.538 1155.94 203.954C1152.18 200.008 1149.52 195.138 1148.24 189.837C1147.74 188.046 1147.34 186.225 1147.06 184.385C1146.98 183.803 1146.92 183.22 1146.87 182.637L1134.65 188.216L1123.32 211.818C1123.11 212.237 1122.75 212.557 1122.31 212.709C1121.87 212.862 1121.39 212.833 1120.97 212.629C1120.73 212.517 1120.53 212.354 1120.36 212.153C1120.2 211.951 1120.08 211.716 1120.02 211.464C1119.9 211.054 1119.94 210.617 1120.12 210.234L1131.74 186.081C1131.92 185.704 1132.23 185.403 1132.61 185.231L1146.72 178.786C1146.79 173.038 1148.09 167.348 1150.57 162.113C1151.4 160.34 1152.23 158.711 1153.06 157.225C1152.79 157.132 1152.52 157.034 1152.24 156.93C1151.68 156.756 1151.14 156.538 1150.62 156.279C1149.67 157.291 1148.06 158.859 1145.77 160.524L1141.99 172.289C1141.89 172.621 1141.69 172.916 1141.42 173.134C1135.74 177.494 1129.15 180.505 1122.14 181.941C1119.31 182.447 1116.75 183.924 1114.9 186.118L1099.13 204.903C1098.83 205.258 1098.4 205.48 1097.94 205.519C1097.47 205.558 1097.01 205.411 1096.66 205.111C1096.45 204.904 1096.31 204.651 1096.22 204.372C1096.15 204.098 1096.15 203.811 1096.21 203.534C1096.27 203.258 1096.4 203 1096.58 202.784L1112.34 183.909C1114.72 181.091 1118.01 179.192 1121.64 178.542C1127.9 177.195 1133.79 174.518 1138.92 170.69L1141.19 163.398C1132.66 167.951 1118.93 171.188 1100.13 162.975C1099.87 162.863 1099.65 162.691 1099.48 162.476C1099.3 162.26 1099.18 162.006 1099.12 161.734C1099.05 161.481 1099.04 161.215 1099.09 160.957C1099.14 160.699 1099.24 160.454 1099.39 160.241C1111.62 143.687 1125.16 139.644 1134.83 139.354L1129.1 134.098C1122.74 133.334 1116.3 133.956 1110.21 135.921C1106.74 137.168 1102.95 137.167 1099.49 135.918L1076.45 127.53C1076.18 127.439 1075.94 127.284 1075.74 127.077C1075.54 126.87 1075.39 126.618 1075.32 126.342C1075.22 125.996 1075.24 125.629 1075.36 125.292C1075.52 124.855 1075.85 124.497 1076.27 124.299C1076.69 124.101 1077.17 124.078 1077.61 124.235L1100.66 132.619C1103.36 133.578 1106.31 133.572 1109.01 132.603C1115.81 130.374 1123.03 129.715 1130.13 130.674C1130.47 130.728 1130.79 130.882 1131.05 131.119L1140.27 139.575C1142.89 139.871 1144.96 140.383 1146.29 140.786C1146.62 140.259 1147 139.759 1147.42 139.293C1147.61 139.085 1147.79 138.884 1147.97 138.688L1147.97 138.687L1147.97 138.686L1147.97 138.686L1148.06 138.593C1146.63 137.749 1145.14 136.79 1143.59 135.715C1138.82 132.453 1134.85 128.21 1131.9 123.297L1116.42 124.777C1116 124.818 1115.59 124.71 1115.24 124.473L1093.07 109.229C1092.72 108.992 1092.47 108.64 1092.36 108.235C1092.3 107.99 1092.29 107.733 1092.33 107.483C1092.37 107.232 1092.47 106.994 1092.61 106.785C1092.75 106.597 1092.92 106.439 1093.12 106.317C1093.31 106.196 1093.53 106.116 1093.76 106.08C1093.99 106.044 1094.23 106.053 1094.45 106.108C1094.68 106.163 1094.89 106.261 1095.07 106.398L1116.69 121.173L1130.08 119.891C1129.81 119.32 1129.55 118.741 1129.31 118.155C1128.64 116.42 1128.07 114.645 1127.61 112.841C1126.07 107.61 1125.93 102.066 1127.22 96.7662C1127.44 95.9439 1127.86 95.1897 1128.44 94.5732C1129.03 93.9568 1129.76 93.498 1130.57 93.2392C1131.38 92.9803 1132.24 92.9298 1133.08 93.0923C1133.91 93.2548 1134.7 93.625 1135.35 94.1688C1139.23 97.3443 1142.98 104.371 1143.9 106.107C1144.02 106.32 1144.09 106.453 1144.11 106.49C1147.57 112.813 1154.91 122.795 1160.34 129.919C1160.9 129.819 1161.47 129.751 1162.03 129.716C1161.39 123.25 1164.59 116.347 1164.75 116.028C1164.92 115.672 1165.2 115.382 1165.55 115.205C1165.9 115.028 1166.3 114.975 1166.69 115.053C1166.69 115.053 1174.05 116.904 1175.5 117.28C1175.65 117.311 1175.81 117.305 1175.96 117.264C1176.12 117.223 1176.26 117.148 1176.38 117.043C1179.61 114.904 1182.42 103.394 1183.43 96.6264C1183.47 96.3981 1183.55 96.179 1183.67 95.9817C1183.79 95.7844 1183.94 95.6127 1184.13 95.4765C1184.32 95.3403 1184.53 95.2422 1184.75 95.1879C1184.98 95.1335 1185.21 95.124 1185.44 95.1597C1185.9 95.2287 1186.31 95.4764 1186.59 95.8488C1186.87 96.2213 1186.98 96.6882 1186.92 97.1477L1186.9 97.2581C1186.52 99.6336 1183.81 116.344 1178.33 119.979C1177.8 120.35 1177.19 120.604 1176.55 120.722C1175.91 120.84 1175.25 120.82 1174.62 120.664C1173.58 120.395 1169.54 119.367 1167.32 118.816C1166.47 121.077 1164.98 125.82 1165.54 129.913C1167.24 130.212 1168.9 130.808 1170.43 131.69C1171.55 132.336 1172.57 133.118 1173.47 134.011C1173.56 133.816 1173.66 133.624 1173.77 133.438C1174.23 132.632 1174.85 131.926 1175.59 131.359C1176.33 130.793 1177.17 130.377 1178.07 130.137C1178.97 129.896 1179.9 129.834 1180.83 129.956C1181.75 130.077 1182.64 130.379 1183.45 130.844C1184.25 131.31 1184.96 131.929 1185.52 132.667C1186.09 133.405 1186.51 134.248 1186.75 135.146L1188.3 140.937C1188.78 142.752 1188.53 144.686 1187.59 146.313C1186.65 147.94 1185.1 149.127 1183.29 149.614C1181.47 150.1 1179.54 149.845 1177.91 148.906C1177.73 148.799 1177.55 148.684 1177.37 148.562C1177.04 149.79 1176.55 150.981 1175.9 152.102C1175.03 153.61 1173.91 154.939 1172.61 156.042C1174.13 159.921 1177.83 163.251 1179.72 164.784L1185.12 159.533C1185.58 159.082 1186.14 158.736 1186.76 158.518C1187.37 158.3 1188.02 158.216 1188.67 158.271C1195.35 158.683 1206.29 172.205 1207.53 173.749C1207.82 174.115 1207.95 174.582 1207.9 175.047C1207.84 175.511 1207.61 175.936 1207.24 176.227C1206.88 176.518 1206.41 176.652 1205.95 176.599C1205.48 176.546 1205.06 176.311 1204.76 175.945C1200.5 170.571 1192.31 162.009 1188.45 161.772C1188.29 161.739 1188.14 161.743 1187.98 161.783C1187.83 161.824 1187.7 161.899 1187.58 162.004L1180.99 168.375C1180.69 168.657 1180.31 168.827 1179.9 168.856C1179.49 168.886 1179.09 168.772 1178.76 168.536C1178.46 168.339 1172.29 163.942 1169.58 158.027ZM1134.54 120.654C1134.52 120.626 1134.51 120.597 1134.49 120.57C1134.47 120.524 1134.44 120.479 1134.41 120.435C1133.76 119.256 1133.17 118.038 1132.66 116.786C1128.87 107.536 1129.73 100.86 1130.59 97.6816C1130.66 97.4319 1130.79 97.203 1130.97 97.0154C1131.15 96.8278 1131.37 96.6874 1131.62 96.6069C1131.87 96.5255 1132.14 96.5099 1132.39 96.5615C1132.65 96.6131 1132.9 96.7303 1133.1 96.9018C1136.92 99.9718 1140.89 107.973 1140.93 108.126C1144.67 114.983 1152.55 125.637 1158.09 132.879C1158.13 132.937 1158.17 132.992 1158.21 133.045C1159.72 135.007 1161.04 136.71 1162.06 138.009C1162.14 138.114 1162.2 138.233 1162.24 138.36C1162.31 138.575 1162.29 138.805 1162.2 139.009C1162.14 139.167 1162.05 139.305 1161.91 139.408C1161.78 139.511 1161.63 139.574 1161.46 139.589C1158.06 139.991 1152.35 137.588 1145.61 132.789C1141.02 129.631 1137.24 125.474 1134.54 120.654ZM1149.01 143.111C1149.3 142.56 1149.67 142.045 1150.09 141.581C1150.47 141.165 1150.85 140.75 1151.23 140.343C1155.53 142.511 1159.11 143.44 1161.95 143.116C1162.74 143.017 1163.48 142.708 1164.11 142.22C1164.73 141.732 1165.22 141.083 1165.5 140.344C1165.81 139.602 1165.92 138.791 1165.81 137.995C1165.7 137.199 1165.38 136.446 1164.89 135.813C1164.31 135.069 1163.62 134.19 1162.86 133.204C1163.04 133.203 1163.23 133.206 1163.41 133.213C1163.74 133.35 1164.11 133.382 1164.46 133.303C1165.93 133.498 1167.36 133.979 1168.67 134.735C1170.73 135.925 1172.36 137.72 1173.34 139.854L1174.34 143.577C1174.55 145.916 1174.04 148.283 1172.85 150.344C1172.1 151.656 1171.09 152.79 1169.92 153.695C1169.63 153.802 1169.37 153.983 1169.17 154.219C1168.96 154.355 1168.75 154.484 1168.53 154.607C1168.69 153.396 1168.84 152.314 1168.97 151.394C1169.09 150.599 1168.98 149.788 1168.68 149.044C1168.37 148.301 1167.88 147.652 1167.24 147.163C1166.62 146.661 1165.88 146.337 1165.1 146.227C1164.31 146.117 1163.51 146.225 1162.78 146.539C1160.14 147.665 1157.52 150.214 1154.92 154.159C1154.39 154.005 1153.85 153.847 1153.33 153.688C1152.62 153.463 1151.95 153.133 1151.34 152.711C1151.32 152.695 1151.3 152.679 1151.28 152.663C1151.24 152.629 1151.19 152.598 1151.14 152.569C1150.81 152.32 1150.49 152.042 1150.2 151.738C1149.34 150.835 1148.72 149.73 1148.4 148.523C1148.07 147.317 1148.06 146.048 1148.35 144.835C1148.41 144.619 1148.47 144.406 1148.54 144.196C1148.68 144.047 1148.79 143.872 1148.88 143.68C1148.95 143.497 1149 143.305 1149.01 143.111ZM1144.91 144.04C1139.29 142.362 1120.66 138.987 1103.54 160.641C1122.88 168.392 1135.84 163.294 1142.78 158.486C1142.82 158.418 1142.87 158.353 1142.92 158.291C1143.06 158.113 1143.25 157.965 1143.45 157.857C1143.58 157.789 1143.72 157.737 1143.86 157.703C1145.64 156.36 1146.94 155.098 1147.76 154.217C1147.73 154.181 1147.69 154.146 1147.66 154.11C1146.39 152.804 1145.47 151.202 1144.97 149.449C1144.5 147.687 1144.48 145.834 1144.9 144.059L1144.91 144.04ZM1150.57 183.917C1150.42 182.747 1150.33 181.575 1150.29 180.403C1150.35 180.22 1150.37 180.028 1150.37 179.836C1150.36 179.664 1150.33 179.494 1150.28 179.332C1150.27 173.899 1151.49 168.513 1153.86 163.58C1157.37 156.033 1161.04 151.118 1164.19 149.765L1164.12 149.766C1164.26 149.7 1164.43 149.679 1164.59 149.703C1164.75 149.728 1164.9 149.797 1165.03 149.904C1165.17 150.013 1165.28 150.158 1165.35 150.324C1165.42 150.491 1165.45 150.673 1165.43 150.853C1164.34 158.496 1161.84 177.348 1162.07 187.353C1162.07 187.442 1162.64 196.354 1160.89 200.916C1160.81 201.165 1160.66 201.387 1160.46 201.561C1160.26 201.736 1160.02 201.856 1159.76 201.912C1159.51 201.965 1159.24 201.954 1159 201.881C1158.75 201.808 1158.52 201.674 1158.34 201.492C1156.01 199.186 1151.91 193.822 1150.57 183.917ZM1178.06 143.68L1177.75 142.548C1177.67 141.949 1177.55 141.353 1177.39 140.763C1177.23 140.173 1177.04 139.597 1176.81 139.036L1176.51 137.89C1176.26 136.976 1176.39 136.002 1176.86 135.182C1177.34 134.362 1178.12 133.764 1179.03 133.519C1179.94 133.274 1180.92 133.402 1181.74 133.876C1182.56 134.349 1183.16 135.128 1183.4 136.043L1184.95 141.833C1185.2 142.747 1185.07 143.721 1184.6 144.541C1184.12 145.361 1183.34 145.959 1182.43 146.204C1181.51 146.449 1180.54 146.321 1179.72 145.847C1178.9 145.374 1178.3 144.595 1178.06 143.68Z" fill="white"/>
<g filter="url(#filter1_bf_341_82)">
<circle cx="1140.06" cy="479.527" r="92.1103" transform="rotate(-64.0339 1140.06 479.527)" fill="#1752E2" fill-opacity="0.3"/>
</g>
<path d="M1091.97 420.657V412.475H1093.19V413.754H1093.3C1093.47 413.317 1093.74 412.978 1094.12 412.736C1094.5 412.491 1094.96 412.369 1095.49 412.369C1096.03 412.369 1096.48 412.491 1096.84 412.736C1097.2 412.978 1097.48 413.317 1097.69 413.754H1097.77C1097.98 413.331 1098.29 412.996 1098.71 412.747C1099.13 412.495 1099.63 412.369 1100.22 412.369C1100.95 412.369 1101.55 412.598 1102.02 413.056C1102.48 413.511 1102.71 414.219 1102.71 415.181V420.657H1101.46V415.181C1101.46 414.578 1101.29 414.146 1100.96 413.887C1100.63 413.628 1100.24 413.498 1099.79 413.498C1099.22 413.498 1098.77 413.672 1098.46 414.02C1098.14 414.365 1097.98 414.801 1097.98 415.331V420.657H1096.7V415.054C1096.7 414.588 1096.55 414.214 1096.25 413.93C1095.95 413.642 1095.56 413.498 1095.09 413.498C1094.76 413.498 1094.45 413.585 1094.17 413.759C1093.89 413.933 1093.66 414.175 1093.49 414.484C1093.32 414.789 1093.23 415.142 1093.23 415.544V420.657H1091.97ZM1108.34 420.828C1107.6 420.828 1106.95 420.652 1106.39 420.3C1105.84 419.949 1105.4 419.457 1105.09 418.825C1104.78 418.193 1104.63 417.454 1104.63 416.609C1104.63 415.757 1104.78 415.013 1105.09 414.377C1105.4 413.741 1105.84 413.248 1106.39 412.896C1106.95 412.545 1107.6 412.369 1108.34 412.369C1109.07 412.369 1109.72 412.545 1110.27 412.896C1110.83 413.248 1111.27 413.741 1111.57 414.377C1111.89 415.013 1112.04 415.757 1112.04 416.609C1112.04 417.454 1111.89 418.193 1111.57 418.825C1111.27 419.457 1110.83 419.949 1110.27 420.3C1109.72 420.652 1109.07 420.828 1108.34 420.828ZM1108.34 419.698C1108.9 419.698 1109.36 419.555 1109.72 419.267C1110.08 418.979 1110.35 418.601 1110.53 418.132C1110.7 417.664 1110.79 417.156 1110.79 416.609C1110.79 416.062 1110.7 415.552 1110.53 415.08C1110.35 414.608 1110.08 414.226 1109.72 413.935C1109.36 413.644 1108.9 413.498 1108.34 413.498C1107.77 413.498 1107.31 413.644 1106.95 413.935C1106.59 414.226 1106.32 414.608 1106.15 415.08C1105.97 415.552 1105.89 416.062 1105.89 416.609C1105.89 417.156 1105.97 417.664 1106.15 418.132C1106.32 418.601 1106.59 418.979 1106.95 419.267C1107.31 419.555 1107.77 419.698 1108.34 419.698ZM1119.76 414.308L1118.63 414.627C1118.56 414.439 1118.45 414.256 1118.31 414.079C1118.18 413.898 1117.99 413.748 1117.76 413.631C1117.53 413.514 1117.23 413.456 1116.86 413.456C1116.36 413.456 1115.94 413.571 1115.61 413.802C1115.28 414.029 1115.11 414.318 1115.11 414.67C1115.11 414.983 1115.23 415.229 1115.45 415.41C1115.68 415.592 1116.04 415.742 1116.52 415.863L1117.73 416.161C1118.46 416.339 1119.01 416.611 1119.37 416.976C1119.73 417.339 1119.91 417.806 1119.91 418.377C1119.91 418.846 1119.77 419.265 1119.5 419.634C1119.24 420.004 1118.86 420.295 1118.38 420.508C1117.9 420.721 1117.35 420.828 1116.71 420.828C1115.88 420.828 1115.19 420.647 1114.64 420.284C1114.09 419.922 1113.75 419.393 1113.6 418.697L1114.79 418.399C1114.91 418.839 1115.12 419.169 1115.44 419.389C1115.76 419.61 1116.17 419.72 1116.69 419.72C1117.28 419.72 1117.74 419.595 1118.08 419.347C1118.43 419.095 1118.61 418.793 1118.61 418.441C1118.61 418.157 1118.51 417.919 1118.31 417.728C1118.11 417.532 1117.8 417.387 1117.39 417.291L1116.03 416.971C1115.28 416.794 1114.73 416.518 1114.38 416.146C1114.03 415.769 1113.86 415.299 1113.86 414.734C1113.86 414.272 1113.99 413.864 1114.24 413.509C1114.51 413.154 1114.86 412.875 1115.32 412.672C1115.77 412.47 1116.28 412.369 1116.86 412.369C1117.67 412.369 1118.31 412.546 1118.77 412.902C1119.23 413.257 1119.56 413.725 1119.76 414.308ZM1127.38 423.725V419.4H1127.27C1127.18 419.549 1127.05 419.737 1126.88 419.965C1126.71 420.188 1126.47 420.389 1126.15 420.567C1125.83 420.741 1125.41 420.828 1124.89 420.828C1124.21 420.828 1123.6 420.655 1123.08 420.311C1122.56 419.963 1122.15 419.473 1121.86 418.841C1121.56 418.205 1121.42 417.454 1121.42 416.588C1121.42 415.728 1121.56 414.983 1121.86 414.35C1122.15 413.718 1122.56 413.23 1123.09 412.886C1123.61 412.541 1124.22 412.369 1124.91 412.369C1125.44 412.369 1125.86 412.458 1126.17 412.635C1126.48 412.809 1126.72 413.008 1126.89 413.232C1127.05 413.452 1127.18 413.633 1127.27 413.775H1127.42V412.475H1128.64V423.725H1127.38ZM1125.06 419.698C1125.56 419.698 1125.99 419.567 1126.34 419.304C1126.69 419.038 1126.95 418.67 1127.13 418.202C1127.31 417.729 1127.4 417.184 1127.4 416.566C1127.4 415.956 1127.31 415.421 1127.14 414.963C1126.96 414.501 1126.7 414.143 1126.35 413.887C1126 413.628 1125.57 413.498 1125.06 413.498C1124.53 413.498 1124.08 413.635 1123.73 413.908C1123.38 414.178 1123.11 414.546 1122.93 415.011C1122.76 415.473 1122.67 415.991 1122.67 416.566C1122.67 417.149 1122.76 417.678 1122.94 418.154C1123.12 418.626 1123.39 419.002 1123.74 419.283C1124.09 419.56 1124.53 419.698 1125.06 419.698ZM1136.1 417.312V412.475H1137.35V420.657H1136.1V419.272H1136.01C1135.82 419.688 1135.52 420.041 1135.12 420.332C1134.71 420.62 1134.2 420.764 1133.58 420.764C1133.07 420.764 1132.62 420.652 1132.22 420.428C1131.82 420.201 1131.51 419.86 1131.28 419.405C1131.05 418.947 1130.94 418.37 1130.94 417.674V412.475H1132.2V417.589C1132.2 418.186 1132.36 418.661 1132.7 419.017C1133.03 419.372 1133.46 419.549 1133.99 419.549C1134.3 419.549 1134.62 419.469 1134.94 419.31C1135.27 419.15 1135.54 418.905 1135.76 418.574C1135.98 418.244 1136.1 417.823 1136.1 417.312ZM1139.66 420.657V412.475H1140.91V420.657H1139.66ZM1140.29 411.112C1140.05 411.112 1139.84 411.028 1139.66 410.861C1139.49 410.695 1139.4 410.494 1139.4 410.259C1139.4 410.025 1139.49 409.824 1139.66 409.658C1139.84 409.491 1140.05 409.407 1140.29 409.407C1140.54 409.407 1140.75 409.491 1140.92 409.658C1141.1 409.824 1141.19 410.025 1141.19 410.259C1141.19 410.494 1141.1 410.695 1140.92 410.861C1140.75 411.028 1140.54 411.112 1140.29 411.112ZM1146.77 412.475V413.541H1142.53V412.475H1146.77ZM1143.77 410.515H1145.03V418.313C1145.03 418.669 1145.08 418.935 1145.18 419.112C1145.29 419.286 1145.42 419.404 1145.59 419.464C1145.75 419.521 1145.93 419.549 1146.11 419.549C1146.25 419.549 1146.36 419.542 1146.45 419.528C1146.54 419.51 1146.61 419.496 1146.67 419.485L1146.92 420.615C1146.84 420.647 1146.72 420.679 1146.57 420.71C1146.41 420.746 1146.22 420.764 1145.98 420.764C1145.63 420.764 1145.28 420.687 1144.94 420.535C1144.6 420.382 1144.32 420.149 1144.1 419.837C1143.88 419.524 1143.77 419.13 1143.77 418.654V410.515ZM1151.9 420.828C1151.16 420.828 1150.51 420.652 1149.96 420.3C1149.4 419.949 1148.97 419.457 1148.66 418.825C1148.35 418.193 1148.19 417.454 1148.19 416.609C1148.19 415.757 1148.35 415.013 1148.66 414.377C1148.97 413.741 1149.4 413.248 1149.96 412.896C1150.51 412.545 1151.16 412.369 1151.9 412.369C1152.64 412.369 1153.29 412.545 1153.84 412.896C1154.4 413.248 1154.83 413.741 1155.14 414.377C1155.45 415.013 1155.61 415.757 1155.61 416.609C1155.61 417.454 1155.45 418.193 1155.14 418.825C1154.83 419.457 1154.4 419.949 1153.84 420.3C1153.29 420.652 1152.64 420.828 1151.9 420.828ZM1151.9 419.698C1152.46 419.698 1152.92 419.555 1153.29 419.267C1153.65 418.979 1153.92 418.601 1154.09 418.132C1154.26 417.664 1154.35 417.156 1154.35 416.609C1154.35 416.062 1154.26 415.552 1154.09 415.08C1153.92 414.608 1153.65 414.226 1153.29 413.935C1152.92 413.644 1152.46 413.498 1151.9 413.498C1151.34 413.498 1150.88 413.644 1150.52 413.935C1150.15 414.226 1149.88 414.608 1149.71 415.08C1149.54 415.552 1149.45 416.062 1149.45 416.609C1149.45 417.156 1149.54 417.664 1149.71 418.132C1149.88 418.601 1150.15 418.979 1150.52 419.267C1150.88 419.555 1151.34 419.698 1151.9 419.698ZM1165.41 420.806C1164.71 420.806 1164.08 420.686 1163.53 420.444C1162.98 420.203 1162.55 419.867 1162.22 419.437C1161.91 419.004 1161.73 418.502 1161.7 417.93H1163.05C1163.07 418.282 1163.19 418.585 1163.41 418.841C1163.62 419.093 1163.9 419.288 1164.24 419.427C1164.59 419.565 1164.97 419.634 1165.39 419.634C1165.86 419.634 1166.27 419.553 1166.64 419.389C1167 419.226 1167.28 418.999 1167.49 418.708C1167.69 418.416 1167.8 418.079 1167.8 417.696C1167.8 417.294 1167.7 416.941 1167.5 416.636C1167.3 416.327 1167.01 416.085 1166.62 415.911C1166.24 415.737 1165.77 415.65 1165.22 415.65H1164.34V414.478H1165.22C1165.65 414.478 1166.03 414.4 1166.36 414.244C1166.69 414.088 1166.95 413.867 1167.13 413.583C1167.32 413.299 1167.41 412.965 1167.41 412.582C1167.41 412.213 1167.33 411.891 1167.17 411.618C1167 411.344 1166.77 411.131 1166.48 410.979C1166.18 410.826 1165.83 410.75 1165.43 410.75C1165.05 410.75 1164.7 410.819 1164.37 410.957C1164.04 411.092 1163.77 411.289 1163.56 411.549C1163.35 411.804 1163.23 412.113 1163.22 412.475H1161.94C1161.96 411.904 1162.13 411.403 1162.45 410.973C1162.78 410.54 1163.2 410.203 1163.72 409.961C1164.25 409.72 1164.82 409.599 1165.45 409.599C1166.13 409.599 1166.71 409.736 1167.19 410.009C1167.67 410.279 1168.04 410.636 1168.3 411.08C1168.56 411.524 1168.69 412.003 1168.69 412.518C1168.69 413.132 1168.53 413.656 1168.21 414.089C1167.89 414.523 1167.45 414.823 1166.9 414.99V415.075C1167.59 415.188 1168.13 415.481 1168.52 415.954C1168.9 416.422 1169.1 417.003 1169.1 417.696C1169.1 418.289 1168.93 418.821 1168.61 419.294C1168.29 419.762 1167.86 420.132 1167.3 420.402C1166.75 420.671 1166.12 420.806 1165.41 420.806Z" fill="white"/>
<path fill-rule="evenodd" clip-rule="evenodd" d="M1120.24 469.397C1120.81 469.434 1121.38 469.505 1121.95 469.608C1127.38 462.476 1134.75 452.444 1138.26 446.06C1138.34 445.754 1142.57 437.352 1146.99 433.84C1147.64 433.322 1148.42 432.973 1149.24 432.825C1150.06 432.677 1150.9 432.735 1151.7 432.993C1152.49 433.25 1153.21 433.7 1153.79 434.303C1154.37 434.905 1154.79 435.64 1155.01 436.444C1156.3 441.743 1156.16 447.288 1154.62 452.518C1154.16 454.323 1153.59 456.098 1152.92 457.833C1152.69 458.374 1152.46 458.91 1152.21 459.439L1165.58 460.718L1187.19 445.943C1187.58 445.683 1188.05 445.586 1188.51 445.674C1188.96 445.763 1189.37 446.029 1189.63 446.415C1189.78 446.629 1189.87 446.874 1189.92 447.13C1189.96 447.387 1189.94 447.649 1189.87 447.899C1189.76 448.311 1189.51 448.67 1189.16 448.91L1167.02 464.018C1166.68 464.255 1166.26 464.363 1165.85 464.322L1150.41 462.847C1147.48 467.794 1143.51 472.071 1138.74 475.364C1137.14 476.486 1135.6 477.482 1134.14 478.351C1134.32 478.566 1134.51 478.788 1134.7 479.018C1135.1 479.447 1135.45 479.905 1135.77 480.388C1137.1 479.985 1139.29 479.436 1142.09 479.136L1151.25 470.838C1151.51 470.602 1151.83 470.447 1152.17 470.393C1159.27 469.455 1166.48 470.144 1173.27 472.407C1175.97 473.381 1178.93 473.381 1181.63 472.406L1204.68 464.022C1205.12 463.865 1205.6 463.888 1206.02 464.086C1206.44 464.285 1206.77 464.642 1206.92 465.079C1207 465.36 1207 465.655 1206.93 465.937C1206.86 466.21 1206.72 466.462 1206.53 466.67C1206.33 466.879 1206.09 467.038 1205.83 467.133L1182.74 475.598C1179.27 476.849 1175.47 476.848 1172 475.596C1165.91 473.634 1159.47 473.006 1153.11 473.756L1147.5 478.939C1157.17 479.262 1170.68 483.324 1182.85 499.836C1183.01 500.061 1183.12 500.321 1183.17 500.595C1183.21 500.869 1183.19 501.15 1183.1 501.414C1183.03 501.668 1182.91 501.903 1182.74 502.104C1182.57 502.304 1182.36 502.463 1182.12 502.57C1163.26 510.796 1149.51 507.526 1140.99 502.944L1143.32 510.36C1148.44 514.2 1154.34 516.884 1160.6 518.228C1164.22 518.881 1167.5 520.778 1169.88 523.591L1185.63 542.372C1185.82 542.586 1185.96 542.844 1186.02 543.122C1186.09 543.401 1186.09 543.691 1186.02 543.969C1185.93 544.315 1185.73 544.625 1185.46 544.855C1185.1 545.155 1184.64 545.302 1184.18 545.263C1183.71 545.224 1183.28 545.003 1182.98 544.648L1167.21 525.862C1165.35 523.681 1162.8 522.211 1159.97 521.702C1152.97 520.229 1146.38 517.189 1140.72 512.811C1140.45 512.592 1140.25 512.298 1140.14 511.965L1136.39 500.031C1134.27 498.465 1132.73 496.987 1131.78 495.975C1131.23 496.265 1130.65 496.508 1130.06 496.701C1129.78 496.786 1129.53 496.87 1129.27 496.951L1129.16 496.99C1129.96 498.431 1130.77 500.006 1131.58 501.715C1134.08 506.921 1135.4 512.585 1135.49 518.312L1149.64 524.773C1150.02 524.945 1150.33 525.246 1150.51 525.623L1162.09 549.912C1162.27 550.29 1162.31 550.72 1162.2 551.125C1162.14 551.37 1162.02 551.598 1161.86 551.793C1161.69 551.989 1161.49 552.147 1161.26 552.256C1161.05 552.351 1160.82 552.402 1160.59 552.408C1160.36 552.414 1160.13 552.375 1159.91 552.291C1159.7 552.208 1159.5 552.083 1159.33 551.923C1159.16 551.763 1159.03 551.572 1158.94 551.36L1147.61 527.758L1135.37 522.172C1135.32 522.802 1135.25 523.432 1135.17 524.061C1134.89 525.9 1134.49 527.721 1133.98 529.512C1132.7 534.813 1130.05 539.683 1126.29 543.63C1125.69 544.233 1124.94 544.676 1124.13 544.916C1123.31 545.157 1122.45 545.188 1121.62 545.007C1120.79 544.826 1120.02 544.439 1119.37 543.881C1118.73 543.323 1118.24 542.612 1117.95 541.814C1116.17 537.122 1116.44 529.164 1116.51 527.198C1116.52 526.957 1116.52 526.806 1116.52 526.762C1116.69 519.557 1115.32 507.245 1114.18 498.359C1113.64 498.165 1113.12 497.941 1112.61 497.688C1109.94 503.61 1103.71 507.985 1103.42 508.182C1103.09 508.407 1102.7 508.517 1102.31 508.494C1101.92 508.471 1101.54 508.317 1101.25 508.056C1101.25 508.056 1095.8 502.774 1094.74 501.724C1094.62 501.62 1094.47 501.545 1094.32 501.504C1094.17 501.463 1094.01 501.457 1093.85 501.488C1089.98 501.726 1081.79 510.287 1077.54 515.644C1077.39 515.824 1077.21 515.974 1077.01 516.084C1076.81 516.195 1076.59 516.265 1076.36 516.29C1076.13 516.314 1075.89 516.293 1075.67 516.228C1075.45 516.163 1075.24 516.055 1075.06 515.91C1074.7 515.62 1074.47 515.199 1074.41 514.738C1074.36 514.277 1074.49 513.813 1074.78 513.448L1074.85 513.362C1076.37 511.496 1087.06 498.375 1093.63 497.97C1094.28 497.915 1094.93 498 1095.54 498.217C1096.16 498.435 1096.72 498.781 1097.19 499.233C1097.95 499.983 1100.94 502.895 1102.59 504.483C1104.45 502.951 1108.11 499.589 1109.67 495.765C1108.35 494.653 1107.21 493.309 1106.33 491.78C1105.68 490.661 1105.19 489.473 1104.85 488.248C1104.68 488.372 1104.49 488.488 1104.31 488.596C1103.5 489.061 1102.61 489.363 1101.69 489.485C1100.77 489.606 1099.83 489.545 1098.93 489.304C1098.03 489.063 1097.19 488.648 1096.45 488.081C1095.71 487.515 1095.09 486.809 1094.63 486.003C1094.16 485.197 1093.86 484.308 1093.74 483.385C1093.62 482.463 1093.68 481.526 1093.92 480.627L1095.47 474.836C1095.96 473.021 1097.15 471.474 1098.77 470.535C1100.4 469.595 1102.34 469.34 1104.15 469.827C1105.97 470.313 1107.51 471.5 1108.45 473.128C1108.56 473.313 1108.66 473.503 1108.75 473.696C1109.65 472.8 1110.67 472.015 1111.8 471.368C1113.3 470.496 1114.94 469.904 1116.62 469.602C1117.24 465.479 1115.7 460.749 1114.83 458.478L1107.53 460.325C1106.9 460.482 1106.24 460.502 1105.6 460.384C1104.96 460.266 1104.36 460.012 1103.82 459.64C1098.24 455.943 1095.53 438.763 1095.23 436.809C1095.16 436.347 1095.28 435.876 1095.56 435.5C1095.84 435.124 1096.25 434.873 1096.72 434.804C1097.18 434.735 1097.65 434.853 1098.03 435.131C1098.4 435.409 1098.65 435.825 1098.72 436.288C1099.73 443.072 1102.54 454.582 1105.77 456.722C1105.88 456.827 1106.02 456.902 1106.17 456.942C1106.32 456.983 1106.48 456.987 1106.63 456.954L1115.53 454.733C1115.93 454.636 1116.34 454.681 1116.71 454.859C1117.08 455.037 1117.37 455.338 1117.54 455.709C1117.7 456.028 1120.84 462.917 1120.24 469.397ZM1131.89 519.247C1131.89 519.29 1131.89 519.334 1131.88 519.378C1131.88 519.442 1131.88 519.506 1131.89 519.57C1131.86 520.905 1131.76 522.242 1131.59 523.574C1130.24 533.479 1126.15 538.826 1123.82 541.149C1123.64 541.331 1123.41 541.465 1123.16 541.538C1122.91 541.611 1122.65 541.622 1122.4 541.569C1122.14 541.513 1121.9 541.393 1121.7 541.219C1121.5 541.044 1121.35 540.822 1121.26 540.573C1119.49 536.002 1120.05 527.09 1120.09 526.937C1120.28 519.122 1118.78 505.942 1117.61 496.899C1117.6 496.844 1117.59 496.79 1117.58 496.735C1117.26 494.276 1116.97 492.13 1116.74 490.493C1116.72 490.361 1116.72 490.227 1116.75 490.096C1116.8 489.879 1116.93 489.687 1117.12 489.557C1117.24 489.447 1117.39 489.376 1117.56 489.353C1117.72 489.329 1117.89 489.353 1118.04 489.423C1121.19 490.777 1124.93 495.709 1128.37 503.239C1130.76 508.254 1131.95 513.731 1131.89 519.247ZM1130.58 492.603C1130.05 492.932 1129.48 493.196 1128.89 493.385C1128.35 493.554 1127.81 493.723 1127.28 493.884C1124.64 489.856 1122 487.262 1119.38 486.124C1118.65 485.815 1117.85 485.71 1117.06 485.82C1116.28 485.93 1115.54 486.251 1114.92 486.748C1114.28 487.236 1113.78 487.885 1113.48 488.629C1113.18 489.372 1113.07 490.183 1113.19 490.979C1113.32 491.914 1113.47 493.018 1113.64 494.253C1113.48 494.165 1113.33 494.073 1113.18 493.977C1112.95 493.687 1112.65 493.472 1112.3 493.363C1111.12 492.46 1110.13 491.329 1109.37 490.022C1108.18 487.958 1107.67 485.588 1107.89 483.246L1108.88 479.541C1109.86 477.403 1111.49 475.605 1113.55 474.413C1114.86 473.656 1116.3 473.175 1117.77 472.98C1118.08 473.035 1118.39 473.005 1118.69 472.897C1118.94 472.884 1119.18 472.879 1119.43 472.883C1118.69 473.85 1118.01 474.713 1117.44 475.445C1116.95 476.078 1116.63 476.832 1116.52 477.628C1116.41 478.424 1116.52 479.234 1116.83 479.976C1117.11 480.719 1117.59 481.37 1118.22 481.859C1118.84 482.348 1119.59 482.656 1120.38 482.748C1123.23 483.091 1126.77 482.195 1130.99 480.078C1131.37 480.476 1131.76 480.882 1132.13 481.277C1132.63 481.824 1133.04 482.44 1133.36 483.104C1133.37 483.133 1133.38 483.161 1133.39 483.19C1133.42 483.246 1133.44 483.3 1133.47 483.353C1133.64 483.733 1133.77 484.127 1133.87 484.532C1134.16 485.745 1134.15 487.013 1133.83 488.22C1133.5 489.426 1132.88 490.532 1132.02 491.434C1131.86 491.594 1131.71 491.746 1131.54 491.891C1131.34 491.951 1131.15 492.045 1130.99 492.173C1130.83 492.293 1130.69 492.439 1130.58 492.603ZM1134.6 493.846C1138.63 498.11 1153.08 510.342 1178.73 500.151C1165.86 483.77 1152.08 481.705 1143.67 482.4C1143.6 482.437 1143.53 482.47 1143.45 482.497C1143.24 482.578 1143 482.615 1142.77 482.606C1142.63 482.6 1142.48 482.577 1142.34 482.536C1140.13 482.808 1138.37 483.252 1137.22 483.603C1137.23 483.652 1137.25 483.701 1137.26 483.75C1137.7 485.516 1137.7 487.364 1137.25 489.129C1136.78 490.892 1135.88 492.509 1134.62 493.832L1134.6 493.846ZM1149.64 456.482C1149.19 457.563 1148.68 458.619 1148.13 459.647C1147.99 459.781 1147.86 459.939 1147.77 460.115C1147.69 460.272 1147.63 460.44 1147.59 460.615C1144.88 465.315 1141.14 469.365 1136.63 472.45C1129.81 477.231 1124.18 479.652 1120.77 479.25L1120.84 479.285C1120.67 479.267 1120.52 479.203 1120.39 479.102C1120.26 479 1120.17 478.864 1120.12 478.71C1120.04 478.543 1120.02 478.361 1120.04 478.182C1120.06 478.002 1120.13 477.832 1120.24 477.688C1125 471.611 1136.6 456.535 1141.4 447.759C1141.44 447.678 1145.41 439.677 1149.2 436.598C1149.4 436.426 1149.64 436.309 1149.9 436.258C1150.16 436.206 1150.43 436.222 1150.68 436.303C1150.93 436.383 1151.15 436.524 1151.33 436.711C1151.5 436.899 1151.63 437.128 1151.7 437.378C1152.57 440.539 1153.43 447.232 1149.64 456.482ZM1105.71 477.58L1105.41 478.726C1105.18 479.283 1104.99 479.856 1104.83 480.441C1104.68 481.027 1104.56 481.619 1104.47 482.213L1104.16 483.371C1103.92 484.285 1103.32 485.064 1102.5 485.538C1101.68 486.011 1100.7 486.139 1099.79 485.894C1098.88 485.649 1098.1 485.051 1097.62 484.231C1097.15 483.412 1097.02 482.438 1097.27 481.523L1098.82 475.733C1099.06 474.819 1099.66 474.039 1100.48 473.566C1101.3 473.093 1102.27 472.964 1103.19 473.209C1104.1 473.454 1104.88 474.052 1105.36 474.872C1105.83 475.692 1105.96 476.666 1105.71 477.58Z" fill="white"/>
<defs>
<filter id="filter0_bf_341_82" x="1037.16" y="35.9611" width="207.662" height="207.662" filterUnits="userSpaceOnUse" color-interpolation-filters="sRGB">
<feFlood flood-opacity="0" result="BackgroundImageFix"/>
<feGaussianBlur in="BackgroundImageFix" stdDeviation="5.85"/>
<feComposite in2="SourceAlpha" operator="in" result="effect1_backgroundBlur_341_82"/>
<feBlend mode="normal" in="SourceGraphic" in2="effect1_backgroundBlur_341_82" result="shape"/>
<feGaussianBlur stdDeviation="2" result="effect2_foregroundBlur_341_82"/>
</filter>
<filter id="filter1_bf_341_82" x="1036.23" y="375.696" width="207.662" height="207.662" filterUnits="userSpaceOnUse" color-interpolation-filters="sRGB">
<feFlood flood-opacity="0" result="BackgroundImageFix"/>
<feGaussianBlur in="BackgroundImageFix" stdDeviation="5.85"/>
<feComposite in2="SourceAlpha" operator="in" result="effect1_backgroundBlur_341_82"/>
<feBlend mode="normal" in="SourceGraphic" in2="effect1_backgroundBlur_341_82" result="shape"/>
<feGaussianBlur stdDeviation="2" result="effect2_foregroundBlur_341_82"/>
</filter>
</defs>
</svg>
