<svg width="1181" height="196" viewBox="0 0 1181 196" fill="none" xmlns="http://www.w3.org/2000/svg">
<rect y="71" width="192" height="75" fill="#DCE2F5"/>
<rect x="198" y="71" width="192" height="75" fill="#C4C1FE"/>
<rect x="396" y="71" width="191" height="75" fill="#8660FF"/>
<rect x="593" y="71" width="192" height="75" fill="#6331FF"/>
<rect x="791" y="71" width="192" height="75" fill="#451BCA"/>
<rect x="989" y="71" width="192" height="75" fill="#290795"/>
<path d="M13.35 16.75V44H9.2V16.75H13.35ZM0.5 19.45V15.85H22V19.45H0.5ZM34.1516 44.5C31.9516 44.5 30.1016 44.05 28.6016 43.15C27.1016 42.25 25.9682 41.0167 25.2016 39.45C24.4682 37.85 24.1016 36.05 24.1016 34.05C24.1016 31.9833 24.4682 30.1667 25.2016 28.6C25.9682 27 27.1016 25.75 28.6016 24.85C30.1016 23.95 31.9682 23.5 34.2016 23.5C37.4682 23.5 39.9516 24.4667 41.6516 26.4C43.3516 28.3333 44.2016 30.8833 44.2016 34.05C44.2016 36.0167 43.8349 37.8 43.1016 39.4C42.4016 40.9667 41.3016 42.2167 39.8016 43.15C38.3349 44.05 36.4516 44.5 34.1516 44.5ZM34.1516 40.95C35.7849 40.95 37.0349 40.6 37.9016 39.9C38.7682 39.2 39.3516 38.3167 39.6516 37.25C39.9849 36.15 40.1516 35.0333 40.1516 33.9C40.1516 32.7667 39.9849 31.6667 39.6516 30.6C39.3516 29.5 38.7682 28.6 37.9016 27.9C37.0349 27.1667 35.7849 26.8 34.1516 26.8C32.5849 26.8 31.3516 27.1667 30.4516 27.9C29.5849 28.6 28.9849 29.5 28.6516 30.6C28.3182 31.6667 28.1516 32.7667 28.1516 33.9C28.1516 35.0333 28.3182 36.15 28.6516 37.25C28.9849 38.3167 29.5849 39.2 30.4516 39.9C31.3516 40.6 32.5849 40.95 34.1516 40.95ZM53.8938 44C52.4938 44 51.4604 43.6333 50.7938 42.9C50.1271 42.1667 49.7938 41.05 49.7938 39.55V26.05H53.7438V40.7H58.4938V44H53.8938ZM46.6438 26.55V23.55C47.4104 23.55 48.0271 23.5 48.4938 23.4C48.9938 23.3 49.3604 23.1 49.5938 22.8C49.8604 22.4667 50.0438 21.95 50.1438 21.25C50.2438 20.5167 50.2938 19.5333 50.2938 18.3H53.7438V23.55H58.4438V26.55H46.6438ZM69.6445 44.45C67.7779 44.45 66.2445 44 65.0445 43.1C63.8779 42.2 63.0112 40.9667 62.4445 39.4C61.9112 37.8333 61.6445 36.0333 61.6445 34C61.6445 31.9 61.9279 30.0667 62.4945 28.5C63.0612 26.9 63.9279 25.65 65.0945 24.75C66.2945 23.85 67.8112 23.4 69.6445 23.4C70.7779 23.4 71.7445 23.5667 72.5445 23.9C73.3445 24.2 74.0112 24.5833 74.5445 25.05C75.0779 25.5167 75.5112 26 75.8445 26.5C76.1779 26.9667 76.4112 27.3833 76.5445 27.75H76.6445V23.55H80.8945V44H77.3445L76.6445 40.35H76.5445C76.4112 40.7167 76.1779 41.1333 75.8445 41.6C75.5112 42.0667 75.0612 42.5167 74.4945 42.95C73.9612 43.3833 73.2945 43.7333 72.4945 44C71.6945 44.3 70.7445 44.45 69.6445 44.45ZM71.2945 40.9C72.6279 40.9 73.6779 40.6167 74.4445 40.05C75.2112 39.45 75.7612 38.6333 76.0945 37.6C76.4279 36.5667 76.5945 35.3833 76.5945 34.05C76.5945 32.6167 76.4112 31.3833 76.0445 30.35C75.7112 29.3167 75.1612 28.5333 74.3945 28C73.6279 27.4333 72.5945 27.15 71.2945 27.15C69.9279 27.15 68.8279 27.4667 67.9945 28.1C67.1945 28.7 66.6112 29.5167 66.2445 30.55C65.9112 31.5833 65.7445 32.7333 65.7445 34C65.7445 35.3 65.9112 36.4833 66.2445 37.55C66.6112 38.5833 67.1945 39.4 67.9945 40C68.8279 40.6 69.9279 40.9 71.2945 40.9ZM85.166 44V15.85H89.266V44H85.166ZM114.625 44.5C112.725 44.5 111.008 44.1 109.475 43.3C107.942 42.5 106.725 41.3333 105.825 39.8C104.925 38.2667 104.475 36.4 104.475 34.2C104.542 32 105.008 30.1 105.875 28.5C106.775 26.9 107.992 25.6667 109.525 24.8C111.058 23.9333 112.792 23.5 114.725 23.5C116.658 23.5 118.308 23.8667 119.675 24.6C121.075 25.3333 122.175 26.2833 122.975 27.45C123.775 28.6167 124.258 29.8833 124.425 31.25H120.575C120.308 29.95 119.675 28.9333 118.675 28.2C117.675 27.4667 116.408 27.1 114.875 27.1C113.542 27.1 112.408 27.4 111.475 28C110.542 28.5667 109.825 29.3667 109.325 30.4C108.825 31.4 108.558 32.5667 108.525 33.9C108.525 36 109.075 37.6833 110.175 38.95C111.275 40.2167 112.825 40.85 114.825 40.85C116.258 40.85 117.508 40.4833 118.575 39.75C119.642 39.0167 120.308 37.95 120.575 36.55H124.425C124.258 37.95 123.758 39.25 122.925 40.45C122.125 41.65 121.025 42.6333 119.625 43.4C118.225 44.1333 116.558 44.5 114.625 44.5ZM135.172 44.45C133.305 44.45 131.772 44 130.572 43.1C129.405 42.2 128.539 40.9667 127.972 39.4C127.439 37.8333 127.172 36.0333 127.172 34C127.172 31.9 127.455 30.0667 128.022 28.5C128.589 26.9 129.455 25.65 130.622 24.75C131.822 23.85 133.339 23.4 135.172 23.4C136.305 23.4 137.272 23.5667 138.072 23.9C138.872 24.2 139.539 24.5833 140.072 25.05C140.605 25.5167 141.039 26 141.372 26.5C141.705 26.9667 141.939 27.3833 142.072 27.75H142.172V23.55H146.422V44H142.872L142.172 40.35H142.072C141.939 40.7167 141.705 41.1333 141.372 41.6C141.039 42.0667 140.589 42.5167 140.022 42.95C139.489 43.3833 138.822 43.7333 138.022 44C137.222 44.3 136.272 44.45 135.172 44.45ZM136.822 40.9C138.155 40.9 139.205 40.6167 139.972 40.05C140.739 39.45 141.289 38.6333 141.622 37.6C141.955 36.5667 142.122 35.3833 142.122 34.05C142.122 32.6167 141.939 31.3833 141.572 30.35C141.239 29.3167 140.689 28.5333 139.922 28C139.155 27.4333 138.122 27.15 136.822 27.15C135.455 27.15 134.355 27.4667 133.522 28.1C132.722 28.7 132.139 29.5167 131.772 30.55C131.439 31.5833 131.272 32.7333 131.272 34C131.272 35.3 131.439 36.4833 131.772 37.55C132.139 38.5833 132.722 39.4 133.522 40C134.355 40.6 135.455 40.9 136.822 40.9ZM158.643 44.5C157.71 44.5 156.793 44.3667 155.893 44.1C155.027 43.8667 154.21 43.5167 153.443 43.05C152.71 42.5833 152.043 42.05 151.443 41.45C150.877 40.85 150.427 40.2 150.093 39.5C149.793 38.7667 149.643 38 149.643 37.2H153.543C153.543 37.2333 153.56 37.4667 153.593 37.9C153.66 38.3333 153.843 38.8333 154.143 39.4C154.443 39.9333 154.927 40.4 155.593 40.8C156.293 41.2 157.277 41.4 158.543 41.4C159.51 41.4 160.327 41.2833 160.993 41.05C161.693 40.8167 162.227 40.5 162.593 40.1C162.96 39.6667 163.127 39.15 163.093 38.55C163.093 37.7167 162.777 37.0667 162.143 36.6C161.51 36.1333 160.693 35.7667 159.693 35.5C158.693 35.2 157.643 34.9167 156.543 34.65C155.443 34.3833 154.393 34.0333 153.393 33.6C152.393 33.1333 151.577 32.5167 150.943 31.75C150.343 30.95 150.06 29.8833 150.093 28.55C150.093 26.75 150.843 25.3667 152.343 24.4C153.877 23.4 155.81 22.9 158.143 22.9C159.277 22.9 160.377 23.0333 161.443 23.3C162.51 23.5667 163.46 23.9833 164.293 24.55C165.16 25.1167 165.843 25.8667 166.343 26.8C166.877 27.7333 167.127 28.8833 167.093 30.25H163.243C163.277 29.3833 163.127 28.6833 162.793 28.15C162.493 27.6167 162.077 27.2167 161.543 26.95C161.01 26.65 160.443 26.45 159.843 26.35C159.277 26.2167 158.727 26.15 158.193 26.15C156.86 26.15 155.81 26.4 155.043 26.9C154.277 27.3667 153.893 28 153.893 28.8C153.893 29.6333 154.21 30.2833 154.843 30.75C155.477 31.2167 156.293 31.5833 157.293 31.85C158.293 32.1167 159.36 32.3833 160.493 32.65C161.627 32.9167 162.693 33.2833 163.693 33.75C164.693 34.1833 165.51 34.8 166.143 35.6C166.777 36.4 167.093 37.4667 167.093 38.8C167.093 40.1 166.727 41.1667 165.993 42C165.293 42.8333 164.31 43.4667 163.043 43.9C161.777 44.3 160.31 44.5 158.643 44.5ZM179.952 44.5C177.652 44.5 175.769 44 174.302 43C172.836 41.9667 171.752 40.65 171.052 39.05C170.352 37.4167 170.002 35.7333 170.002 34C169.969 32.0333 170.336 30.25 171.102 28.65C171.902 27.05 173.036 25.7833 174.502 24.85C176.002 23.9167 177.786 23.45 179.852 23.45C181.652 23.45 183.252 23.85 184.652 24.65C186.052 25.4167 187.169 26.5167 188.002 27.95C188.836 29.35 189.286 31.0167 189.352 32.95C189.386 33.05 189.402 33.25 189.402 33.55C189.402 33.8167 189.402 34.05 189.402 34.25H173.952C173.952 36.3833 174.469 38.05 175.502 39.25C176.569 40.4167 178.036 41 179.902 41C181.302 41 182.486 40.65 183.452 39.95C184.452 39.2167 185.069 38.25 185.302 37.05H189.352C189.152 38.45 188.652 39.7167 187.852 40.85C187.052 41.9833 185.986 42.8833 184.652 43.55C183.319 44.1833 181.752 44.5 179.952 44.5ZM174.102 32.2H185.202C185.169 31.8333 185.069 31.35 184.902 30.75C184.769 30.15 184.502 29.5667 184.102 29C183.702 28.4 183.152 27.9 182.452 27.5C181.752 27.1 180.852 26.9 179.752 26.9C178.752 26.9 177.902 27.0667 177.202 27.4C176.502 27.7333 175.936 28.1833 175.502 28.75C175.069 29.2833 174.736 29.8667 174.502 30.5C174.302 31.1 174.169 31.6667 174.102 32.2ZM201.954 44.5C201.021 44.5 200.104 44.3667 199.204 44.1C198.337 43.8667 197.521 43.5167 196.754 43.05C196.021 42.5833 195.354 42.05 194.754 41.45C194.187 40.85 193.737 40.2 193.404 39.5C193.104 38.7667 192.954 38 192.954 37.2H196.854C196.854 37.2333 196.871 37.4667 196.904 37.9C196.971 38.3333 197.154 38.8333 197.454 39.4C197.754 39.9333 198.237 40.4 198.904 40.8C199.604 41.2 200.587 41.4 201.854 41.4C202.821 41.4 203.637 41.2833 204.304 41.05C205.004 40.8167 205.537 40.5 205.904 40.1C206.271 39.6667 206.437 39.15 206.404 38.55C206.404 37.7167 206.087 37.0667 205.454 36.6C204.821 36.1333 204.004 35.7667 203.004 35.5C202.004 35.2 200.954 34.9167 199.854 34.65C198.754 34.3833 197.704 34.0333 196.704 33.6C195.704 33.1333 194.887 32.5167 194.254 31.75C193.654 30.95 193.371 29.8833 193.404 28.55C193.404 26.75 194.154 25.3667 195.654 24.4C197.187 23.4 199.121 22.9 201.454 22.9C202.587 22.9 203.687 23.0333 204.754 23.3C205.821 23.5667 206.771 23.9833 207.604 24.55C208.471 25.1167 209.154 25.8667 209.654 26.8C210.187 27.7333 210.437 28.8833 210.404 30.25H206.554C206.587 29.3833 206.437 28.6833 206.104 28.15C205.804 27.6167 205.387 27.2167 204.854 26.95C204.321 26.65 203.754 26.45 203.154 26.35C202.587 26.2167 202.037 26.15 201.504 26.15C200.171 26.15 199.121 26.4 198.354 26.9C197.587 27.3667 197.204 28 197.204 28.8C197.204 29.6333 197.521 30.2833 198.154 30.75C198.787 31.2167 199.604 31.5833 200.604 31.85C201.604 32.1167 202.671 32.3833 203.804 32.65C204.937 32.9167 206.004 33.2833 207.004 33.75C208.004 34.1833 208.821 34.8 209.454 35.6C210.087 36.4 210.404 37.4667 210.404 38.8C210.404 40.1 210.037 41.1667 209.304 42C208.604 42.8333 207.621 43.4667 206.354 43.9C205.087 44.3 203.621 44.5 201.954 44.5ZM234.64 44.5C232.44 44.5 230.59 44.05 229.09 43.15C227.59 42.25 226.457 41.0167 225.69 39.45C224.957 37.85 224.59 36.05 224.59 34.05C224.59 31.9833 224.957 30.1667 225.69 28.6C226.457 27 227.59 25.75 229.09 24.85C230.59 23.95 232.457 23.5 234.69 23.5C237.957 23.5 240.44 24.4667 242.14 26.4C243.84 28.3333 244.69 30.8833 244.69 34.05C244.69 36.0167 244.323 37.8 243.59 39.4C242.89 40.9667 241.79 42.2167 240.29 43.15C238.823 44.05 236.94 44.5 234.64 44.5ZM234.64 40.95C236.273 40.95 237.523 40.6 238.39 39.9C239.257 39.2 239.84 38.3167 240.14 37.25C240.473 36.15 240.64 35.0333 240.64 33.9C240.64 32.7667 240.473 31.6667 240.14 30.6C239.84 29.5 239.257 28.6 238.39 27.9C237.523 27.1667 236.273 26.8 234.64 26.8C233.073 26.8 231.84 27.1667 230.94 27.9C230.073 28.6 229.473 29.5 229.14 30.6C228.807 31.6667 228.64 32.7667 228.64 33.9C228.64 35.0333 228.807 36.15 229.14 37.25C229.473 38.3167 230.073 39.2 230.94 39.9C231.84 40.6 233.073 40.95 234.64 40.95ZM250.332 44.1V19.6C250.332 18.1333 250.649 17.0333 251.282 16.3C251.949 15.5667 252.999 15.2 254.432 15.2H260.132V18.5H254.482V44.1H250.332ZM247.332 26.55V23.55H259.882V26.55H247.332ZM282.775 44.5C280.775 44.5 279.125 44.05 277.825 43.15C276.558 42.25 275.608 41.0167 274.975 39.45C274.375 37.8833 274.075 36.1 274.075 34.1C274.075 32 274.392 30.1667 275.025 28.6C275.658 27 276.608 25.7667 277.875 24.9C279.175 24 280.808 23.55 282.775 23.55C284.108 23.55 285.225 23.7667 286.125 24.2C287.058 24.6333 287.792 25.15 288.325 25.75C288.858 26.35 289.242 26.9 289.475 27.4C289.742 27.9 289.892 28.2167 289.925 28.35H290.025V15.85H294.325V44H290.725L290.075 39.9H289.975C289.908 40.0333 289.742 40.35 289.475 40.85C289.208 41.3167 288.792 41.8333 288.225 42.4C287.658 42.9667 286.925 43.4667 286.025 43.9C285.125 44.3 284.042 44.5 282.775 44.5ZM283.975 40.9C285.275 40.9 286.375 40.6167 287.275 40.05C288.175 39.4833 288.842 38.6833 289.275 37.65C289.742 36.6167 289.975 35.4167 289.975 34.05C289.975 32.7167 289.758 31.5333 289.325 30.5C288.892 29.4667 288.242 28.6833 287.375 28.15C286.542 27.5833 285.475 27.3 284.175 27.3C282.708 27.3 281.525 27.6167 280.625 28.25C279.758 28.8833 279.125 29.7167 278.725 30.75C278.358 31.7833 278.175 32.8833 278.175 34.05C278.175 35.2167 278.342 36.3333 278.675 37.4C279.042 38.4333 279.642 39.2833 280.475 39.95C281.342 40.5833 282.508 40.9 283.975 40.9ZM307.98 44.5C305.68 44.5 303.796 44 302.33 43C300.863 41.9667 299.78 40.65 299.08 39.05C298.38 37.4167 298.03 35.7333 298.03 34C297.996 32.0333 298.363 30.25 299.13 28.65C299.93 27.05 301.063 25.7833 302.53 24.85C304.03 23.9167 305.813 23.45 307.88 23.45C309.68 23.45 311.28 23.85 312.68 24.65C314.08 25.4167 315.196 26.5167 316.03 27.95C316.863 29.35 317.313 31.0167 317.38 32.95C317.413 33.05 317.43 33.25 317.43 33.55C317.43 33.8167 317.43 34.05 317.43 34.25H301.98C301.98 36.3833 302.496 38.05 303.53 39.25C304.596 40.4167 306.063 41 307.93 41C309.33 41 310.513 40.65 311.48 39.95C312.48 39.2167 313.096 38.25 313.33 37.05H317.38C317.18 38.45 316.68 39.7167 315.88 40.85C315.08 41.9833 314.013 42.8833 312.68 43.55C311.346 44.1833 309.78 44.5 307.98 44.5ZM302.13 32.2H313.23C313.196 31.8333 313.096 31.35 312.93 30.75C312.796 30.15 312.53 29.5667 312.13 29C311.73 28.4 311.18 27.9 310.48 27.5C309.78 27.1 308.88 26.9 307.78 26.9C306.78 26.9 305.93 27.0667 305.23 27.4C304.53 27.7333 303.963 28.1833 303.53 28.75C303.096 29.2833 302.763 29.8667 302.53 30.5C302.33 31.1 302.196 31.6667 302.13 32.2ZM321.431 44V23.55H324.981L325.681 28.3H325.781C325.815 28.1667 325.948 27.85 326.181 27.35C326.415 26.85 326.798 26.3167 327.331 25.75C327.865 25.15 328.581 24.6333 329.481 24.2C330.381 23.7667 331.515 23.55 332.881 23.55C334.315 23.55 335.481 23.7833 336.381 24.25C337.315 24.6833 338.048 25.2833 338.581 26.05C339.148 26.7833 339.548 27.6167 339.781 28.55C340.015 29.45 340.165 30.3833 340.231 31.35C340.298 32.2833 340.331 33.1667 340.331 34V44H336.281V33.95C336.281 32.6833 336.148 31.55 335.881 30.55C335.615 29.5167 335.131 28.7167 334.431 28.15C333.731 27.55 332.681 27.25 331.281 27.25C329.881 27.25 328.765 27.5833 327.931 28.25C327.131 28.9167 326.548 29.7833 326.181 30.85C325.848 31.8833 325.681 33.0167 325.681 34.25V44H321.431ZM349.584 52.75V48.85H359.184V39.9H359.084C359.017 40.0333 358.851 40.35 358.584 40.85C358.317 41.3167 357.901 41.8333 357.334 42.4C356.801 42.9667 356.084 43.4667 355.184 43.9C354.317 44.3 353.234 44.5 351.934 44.5C349.967 44.5 348.334 44.05 347.034 43.15C345.734 42.25 344.767 41.0167 344.134 39.45C343.534 37.8833 343.234 36.0833 343.234 34.05C343.234 31.95 343.551 30.1167 344.184 28.55C344.817 26.95 345.784 25.7167 347.084 24.85C348.384 23.9833 350.017 23.55 351.984 23.55C353.317 23.55 354.434 23.7667 355.334 24.2C356.234 24.6333 356.934 25.15 357.434 25.75C357.967 26.35 358.351 26.9 358.584 27.4C358.851 27.9 359.001 28.2167 359.034 28.35H359.134V23.55H363.434V46.6C363.434 48.0667 363.251 49.25 362.884 50.15C362.517 51.05 361.934 51.7 361.134 52.1C360.367 52.5333 359.334 52.75 358.034 52.75H349.584ZM353.084 40.9C354.384 40.9 355.484 40.6167 356.384 40.05C357.284 39.4833 357.951 38.6833 358.384 37.65C358.851 36.6167 359.084 35.4167 359.084 34.05C359.084 32.7167 358.867 31.5333 358.434 30.5C358.001 29.4667 357.351 28.6833 356.484 28.15C355.651 27.5833 354.584 27.3 353.284 27.3C351.817 27.3 350.634 27.6167 349.734 28.25C348.867 28.8833 348.234 29.7167 347.834 30.75C347.467 31.7833 347.284 32.8833 347.284 34.05C347.284 35.2167 347.451 36.3333 347.784 37.4C348.151 38.4333 348.751 39.2833 349.584 39.95C350.451 40.5833 351.617 40.9 353.084 40.9ZM374.826 44.5C373.46 44.5 372.31 44.2833 371.376 43.85C370.476 43.4167 369.743 42.8333 369.176 42.1C368.643 41.3667 368.243 40.55 367.976 39.65C367.71 38.75 367.526 37.8167 367.426 36.85C367.326 35.8833 367.276 34.95 367.276 34.05V23.55H371.376V34.05C371.376 35.25 371.493 36.3667 371.726 37.4C371.96 38.4 372.443 39.2167 373.176 39.85C373.91 40.4833 374.993 40.8 376.426 40.8C377.826 40.8 378.91 40.4833 379.676 39.85C380.443 39.1833 380.976 38.35 381.276 37.35C381.61 36.35 381.793 35.3167 381.826 34.25V23.55H386.126V44H382.576L381.876 39.75H381.776C381.676 40.0833 381.476 40.5167 381.176 41.05C380.876 41.55 380.46 42.0667 379.926 42.6C379.393 43.1333 378.693 43.5833 377.826 43.95C376.993 44.3167 375.993 44.5 374.826 44.5ZM399.532 44.5C397.232 44.5 395.349 44 393.882 43C392.416 41.9667 391.332 40.65 390.632 39.05C389.932 37.4167 389.582 35.7333 389.582 34C389.549 32.0333 389.916 30.25 390.682 28.65C391.482 27.05 392.616 25.7833 394.082 24.85C395.582 23.9167 397.366 23.45 399.432 23.45C401.232 23.45 402.832 23.85 404.232 24.65C405.632 25.4167 406.749 26.5167 407.582 27.95C408.416 29.35 408.866 31.0167 408.932 32.95C408.966 33.05 408.982 33.25 408.982 33.55C408.982 33.8167 408.982 34.05 408.982 34.25H393.532C393.532 36.3833 394.049 38.05 395.082 39.25C396.149 40.4167 397.616 41 399.482 41C400.882 41 402.066 40.65 403.032 39.95C404.032 39.2167 404.649 38.25 404.882 37.05H408.932C408.732 38.45 408.232 39.7167 407.432 40.85C406.632 41.9833 405.566 42.8833 404.232 43.55C402.899 44.1833 401.332 44.5 399.532 44.5ZM393.682 32.2H404.782C404.749 31.8333 404.649 31.35 404.482 30.75C404.349 30.15 404.082 29.5667 403.682 29C403.282 28.4 402.732 27.9 402.032 27.5C401.332 27.1 400.432 26.9 399.332 26.9C398.332 26.9 397.482 27.0667 396.782 27.4C396.082 27.7333 395.516 28.1833 395.082 28.75C394.649 29.2833 394.316 29.8667 394.082 30.5C393.882 31.1 393.749 31.6667 393.682 32.2Z" fill="black"/>
<path d="M96 188.318C94.2879 188.318 92.8295 187.852 91.625 186.92C90.4205 185.981 89.5 184.621 88.8636 182.841C88.2273 181.053 87.9091 178.894 87.9091 176.364C87.9091 173.848 88.2273 171.701 88.8636 169.92C89.5076 168.133 90.4318 166.769 91.6364 165.83C92.8485 164.883 94.303 164.409 96 164.409C97.697 164.409 99.1477 164.883 100.352 165.83C101.564 166.769 102.489 168.133 103.125 169.92C103.769 171.701 104.091 173.848 104.091 176.364C104.091 178.894 103.773 181.053 103.136 182.841C102.5 184.621 101.58 185.981 100.375 186.92C99.1705 187.852 97.7121 188.318 96 188.318ZM96 185.818C97.697 185.818 99.0152 185 99.9545 183.364C100.894 181.727 101.364 179.394 101.364 176.364C101.364 174.348 101.148 172.633 100.716 171.216C100.292 169.799 99.678 168.72 98.875 167.977C98.0795 167.235 97.1212 166.864 96 166.864C94.3182 166.864 93.0038 167.693 92.0568 169.352C91.1098 171.004 90.6364 173.341 90.6364 176.364C90.6364 178.379 90.8485 180.091 91.2727 181.5C91.697 182.909 92.3068 183.981 93.1023 184.716C93.9053 185.451 94.8712 185.818 96 185.818Z" fill="black"/>
<path d="M255.227 177.636V175.818L269.864 168.364V171.273L258.636 176.682L258.727 176.5V176.955L258.636 176.773L269.864 182.182V185.091L255.227 177.636ZM292.685 164.727V188H289.866V167.682H289.73L284.048 171.455V168.591L289.866 164.727H292.685ZM306.969 188.318C305.257 188.318 303.798 187.852 302.594 186.92C301.389 185.981 300.469 184.621 299.832 182.841C299.196 181.053 298.878 178.894 298.878 176.364C298.878 173.848 299.196 171.701 299.832 169.92C300.476 168.133 301.401 166.769 302.605 165.83C303.817 164.883 305.272 164.409 306.969 164.409C308.666 164.409 310.116 164.883 311.321 165.83C312.533 166.769 313.457 168.133 314.094 169.92C314.738 171.701 315.06 173.848 315.06 176.364C315.06 178.894 314.741 181.053 314.105 182.841C313.469 184.621 312.548 185.981 311.344 186.92C310.139 187.852 308.681 188.318 306.969 188.318ZM306.969 185.818C308.666 185.818 309.984 185 310.923 183.364C311.863 181.727 312.332 179.394 312.332 176.364C312.332 174.348 312.116 172.633 311.685 171.216C311.26 169.799 310.647 168.72 309.844 167.977C309.048 167.235 308.09 166.864 306.969 166.864C305.287 166.864 303.973 167.693 303.026 169.352C302.079 171.004 301.605 173.341 301.605 176.364C301.605 178.379 301.817 180.091 302.241 181.5C302.666 182.909 303.276 183.981 304.071 184.716C304.874 185.451 305.84 185.818 306.969 185.818Z" fill="black"/>
<path d="M452.227 177.636V175.818L466.864 168.364V171.273L455.636 176.682L455.727 176.5V176.955L455.636 176.773L466.864 182.182V185.091L452.227 177.636ZM489.685 164.727V188H486.866V167.682H486.73L481.048 171.455V168.591L486.866 164.727H489.685ZM503.969 188.318C502.257 188.318 500.798 187.852 499.594 186.92C498.389 185.981 497.469 184.621 496.832 182.841C496.196 181.053 495.878 178.894 495.878 176.364C495.878 173.848 496.196 171.701 496.832 169.92C497.476 168.133 498.401 166.769 499.605 165.83C500.817 164.883 502.272 164.409 503.969 164.409C505.666 164.409 507.116 164.883 508.321 165.83C509.533 166.769 510.457 168.133 511.094 169.92C511.738 171.701 512.06 173.848 512.06 176.364C512.06 178.894 511.741 181.053 511.105 182.841C510.469 184.621 509.548 185.981 508.344 186.92C507.139 187.852 505.681 188.318 503.969 188.318ZM503.969 185.818C505.666 185.818 506.984 185 507.923 183.364C508.863 181.727 509.332 179.394 509.332 176.364C509.332 174.348 509.116 172.633 508.685 171.216C508.26 169.799 507.647 168.72 506.844 167.977C506.048 167.235 505.09 166.864 503.969 166.864C502.287 166.864 500.973 167.693 500.026 169.352C499.079 171.004 498.605 173.341 498.605 176.364C498.605 178.379 498.817 180.091 499.241 181.5C499.666 182.909 500.276 183.981 501.071 184.716C501.874 185.451 502.84 185.818 503.969 185.818ZM523.969 188.318C522.257 188.318 520.798 187.852 519.594 186.92C518.389 185.981 517.469 184.621 516.832 182.841C516.196 181.053 515.878 178.894 515.878 176.364C515.878 173.848 516.196 171.701 516.832 169.92C517.476 168.133 518.401 166.769 519.605 165.83C520.817 164.883 522.272 164.409 523.969 164.409C525.666 164.409 527.116 164.883 528.321 165.83C529.533 166.769 530.457 168.133 531.094 169.92C531.738 171.701 532.06 173.848 532.06 176.364C532.06 178.894 531.741 181.053 531.105 182.841C530.469 184.621 529.548 185.981 528.344 186.92C527.139 187.852 525.681 188.318 523.969 188.318ZM523.969 185.818C525.666 185.818 526.984 185 527.923 183.364C528.863 181.727 529.332 179.394 529.332 176.364C529.332 174.348 529.116 172.633 528.685 171.216C528.26 169.799 527.647 168.72 526.844 167.977C526.048 167.235 525.09 166.864 523.969 166.864C522.287 166.864 520.973 167.693 520.026 169.352C519.079 171.004 518.605 173.341 518.605 176.364C518.605 178.379 518.817 180.091 519.241 181.5C519.666 182.909 520.276 183.981 521.071 184.716C521.874 185.451 522.84 185.818 523.969 185.818Z" fill="black"/>
<path d="M635.227 177.636V175.818L649.864 168.364V171.273L638.636 176.682L638.727 176.5V176.955L638.636 176.773L649.864 182.182V185.091L635.227 177.636ZM672.685 164.727V188H669.866V167.682H669.73L664.048 171.455V168.591L669.866 164.727H672.685ZM695.969 188.318C694.257 188.318 692.798 187.852 691.594 186.92C690.389 185.981 689.469 184.621 688.832 182.841C688.196 181.053 687.878 178.894 687.878 176.364C687.878 173.848 688.196 171.701 688.832 169.92C689.476 168.133 690.401 166.769 691.605 165.83C692.817 164.883 694.272 164.409 695.969 164.409C697.666 164.409 699.116 164.883 700.321 165.83C701.533 166.769 702.457 168.133 703.094 169.92C703.738 171.701 704.06 173.848 704.06 176.364C704.06 178.894 703.741 181.053 703.105 182.841C702.469 184.621 701.548 185.981 700.344 186.92C699.139 187.852 697.681 188.318 695.969 188.318ZM695.969 185.818C697.666 185.818 698.984 185 699.923 183.364C700.863 181.727 701.332 179.394 701.332 176.364C701.332 174.348 701.116 172.633 700.685 171.216C700.26 169.799 699.647 168.72 698.844 167.977C698.048 167.235 697.09 166.864 695.969 166.864C694.287 166.864 692.973 167.693 692.026 169.352C691.079 171.004 690.605 173.341 690.605 176.364C690.605 178.379 690.817 180.091 691.241 181.5C691.666 182.909 692.276 183.981 693.071 184.716C693.874 185.451 694.84 185.818 695.969 185.818ZM715.969 188.318C714.257 188.318 712.798 187.852 711.594 186.92C710.389 185.981 709.469 184.621 708.832 182.841C708.196 181.053 707.878 178.894 707.878 176.364C707.878 173.848 708.196 171.701 708.832 169.92C709.476 168.133 710.401 166.769 711.605 165.83C712.817 164.883 714.272 164.409 715.969 164.409C717.666 164.409 719.116 164.883 720.321 165.83C721.533 166.769 722.457 168.133 723.094 169.92C723.738 171.701 724.06 173.848 724.06 176.364C724.06 178.894 723.741 181.053 723.105 182.841C722.469 184.621 721.548 185.981 720.344 186.92C719.139 187.852 717.681 188.318 715.969 188.318ZM715.969 185.818C717.666 185.818 718.984 185 719.923 183.364C720.863 181.727 721.332 179.394 721.332 176.364C721.332 174.348 721.116 172.633 720.685 171.216C720.26 169.799 719.647 168.72 718.844 167.977C718.048 167.235 717.09 166.864 715.969 166.864C714.287 166.864 712.973 167.693 712.026 169.352C711.079 171.004 710.605 173.341 710.605 176.364C710.605 178.379 710.817 180.091 711.241 181.5C711.666 182.909 712.276 183.981 713.071 184.716C713.874 185.451 714.84 185.818 715.969 185.818ZM735.969 188.318C734.257 188.318 732.798 187.852 731.594 186.92C730.389 185.981 729.469 184.621 728.832 182.841C728.196 181.053 727.878 178.894 727.878 176.364C727.878 173.848 728.196 171.701 728.832 169.92C729.476 168.133 730.401 166.769 731.605 165.83C732.817 164.883 734.272 164.409 735.969 164.409C737.666 164.409 739.116 164.883 740.321 165.83C741.533 166.769 742.457 168.133 743.094 169.92C743.738 171.701 744.06 173.848 744.06 176.364C744.06 178.894 743.741 181.053 743.105 182.841C742.469 184.621 741.548 185.981 740.344 186.92C739.139 187.852 737.681 188.318 735.969 188.318ZM735.969 185.818C737.666 185.818 738.984 185 739.923 183.364C740.863 181.727 741.332 179.394 741.332 176.364C741.332 174.348 741.116 172.633 740.685 171.216C740.26 169.799 739.647 168.72 738.844 167.977C738.048 167.235 737.09 166.864 735.969 166.864C734.287 166.864 732.973 167.693 732.026 169.352C731.079 171.004 730.605 173.341 730.605 176.364C730.605 178.379 730.817 180.091 731.241 181.5C731.666 182.909 732.276 183.981 733.071 184.716C733.874 185.451 734.84 185.818 735.969 185.818Z" fill="black"/>
<path d="M823.227 177.636V175.818L837.864 168.364V171.273L826.636 176.682L826.727 176.5V176.955L826.636 176.773L837.864 182.182V185.091L823.227 177.636ZM860.685 164.727V188H857.866V167.682H857.73L852.048 171.455V168.591L857.866 164.727H860.685ZM874.969 188.318C873.257 188.318 871.798 187.852 870.594 186.92C869.389 185.981 868.469 184.621 867.832 182.841C867.196 181.053 866.878 178.894 866.878 176.364C866.878 173.848 867.196 171.701 867.832 169.92C868.476 168.133 869.401 166.769 870.605 165.83C871.817 164.883 873.272 164.409 874.969 164.409C876.666 164.409 878.116 164.883 879.321 165.83C880.533 166.769 881.457 168.133 882.094 169.92C882.738 171.701 883.06 173.848 883.06 176.364C883.06 178.894 882.741 181.053 882.105 182.841C881.469 184.621 880.548 185.981 879.344 186.92C878.139 187.852 876.681 188.318 874.969 188.318ZM874.969 185.818C876.666 185.818 877.984 185 878.923 183.364C879.863 181.727 880.332 179.394 880.332 176.364C880.332 174.348 880.116 172.633 879.685 171.216C879.26 169.799 878.647 168.72 877.844 167.977C877.048 167.235 876.09 166.864 874.969 166.864C873.287 166.864 871.973 167.693 871.026 169.352C870.079 171.004 869.605 173.341 869.605 176.364C869.605 178.379 869.817 180.091 870.241 181.5C870.666 182.909 871.276 183.981 872.071 184.716C872.874 185.451 873.84 185.818 874.969 185.818ZM903.969 188.318C902.257 188.318 900.798 187.852 899.594 186.92C898.389 185.981 897.469 184.621 896.832 182.841C896.196 181.053 895.878 178.894 895.878 176.364C895.878 173.848 896.196 171.701 896.832 169.92C897.476 168.133 898.401 166.769 899.605 165.83C900.817 164.883 902.272 164.409 903.969 164.409C905.666 164.409 907.116 164.883 908.321 165.83C909.533 166.769 910.457 168.133 911.094 169.92C911.738 171.701 912.06 173.848 912.06 176.364C912.06 178.894 911.741 181.053 911.105 182.841C910.469 184.621 909.548 185.981 908.344 186.92C907.139 187.852 905.681 188.318 903.969 188.318ZM903.969 185.818C905.666 185.818 906.984 185 907.923 183.364C908.863 181.727 909.332 179.394 909.332 176.364C909.332 174.348 909.116 172.633 908.685 171.216C908.26 169.799 907.647 168.72 906.844 167.977C906.048 167.235 905.09 166.864 903.969 166.864C902.287 166.864 900.973 167.693 900.026 169.352C899.079 171.004 898.605 173.341 898.605 176.364C898.605 178.379 898.817 180.091 899.241 181.5C899.666 182.909 900.276 183.981 901.071 184.716C901.874 185.451 902.84 185.818 903.969 185.818ZM923.969 188.318C922.257 188.318 920.798 187.852 919.594 186.92C918.389 185.981 917.469 184.621 916.832 182.841C916.196 181.053 915.878 178.894 915.878 176.364C915.878 173.848 916.196 171.701 916.832 169.92C917.476 168.133 918.401 166.769 919.605 165.83C920.817 164.883 922.272 164.409 923.969 164.409C925.666 164.409 927.116 164.883 928.321 165.83C929.533 166.769 930.457 168.133 931.094 169.92C931.738 171.701 932.06 173.848 932.06 176.364C932.06 178.894 931.741 181.053 931.105 182.841C930.469 184.621 929.548 185.981 928.344 186.92C927.139 187.852 925.681 188.318 923.969 188.318ZM923.969 185.818C925.666 185.818 926.984 185 927.923 183.364C928.863 181.727 929.332 179.394 929.332 176.364C929.332 174.348 929.116 172.633 928.685 171.216C928.26 169.799 927.647 168.72 926.844 167.977C926.048 167.235 925.09 166.864 923.969 166.864C922.287 166.864 920.973 167.693 920.026 169.352C919.079 171.004 918.605 173.341 918.605 176.364C918.605 178.379 918.817 180.091 919.241 181.5C919.666 182.909 920.276 183.981 921.071 184.716C921.874 185.451 922.84 185.818 923.969 185.818ZM943.969 188.318C942.257 188.318 940.798 187.852 939.594 186.92C938.389 185.981 937.469 184.621 936.832 182.841C936.196 181.053 935.878 178.894 935.878 176.364C935.878 173.848 936.196 171.701 936.832 169.92C937.476 168.133 938.401 166.769 939.605 165.83C940.817 164.883 942.272 164.409 943.969 164.409C945.666 164.409 947.116 164.883 948.321 165.83C949.533 166.769 950.457 168.133 951.094 169.92C951.738 171.701 952.06 173.848 952.06 176.364C952.06 178.894 951.741 181.053 951.105 182.841C950.469 184.621 949.548 185.981 948.344 186.92C947.139 187.852 945.681 188.318 943.969 188.318ZM943.969 185.818C945.666 185.818 946.984 185 947.923 183.364C948.863 181.727 949.332 179.394 949.332 176.364C949.332 174.348 949.116 172.633 948.685 171.216C948.26 169.799 947.647 168.72 946.844 167.977C946.048 167.235 945.09 166.864 943.969 166.864C942.287 166.864 940.973 167.693 940.026 169.352C939.079 171.004 938.605 173.341 938.605 176.364C938.605 178.379 938.817 180.091 939.241 181.5C939.666 182.909 940.276 183.981 941.071 184.716C941.874 185.451 942.84 185.818 943.969 185.818Z" fill="black"/>
<path d="M1011.23 177.636V175.818L1025.86 168.364V171.273L1014.64 176.682L1014.73 176.5V176.955L1014.64 176.773L1025.86 182.182V185.091L1011.23 177.636ZM1048.68 164.727V188H1045.87V167.682H1045.73L1040.05 171.455V168.591L1045.87 164.727H1048.68ZM1062.97 188.318C1061.26 188.318 1059.8 187.852 1058.59 186.92C1057.39 185.981 1056.47 184.621 1055.83 182.841C1055.2 181.053 1054.88 178.894 1054.88 176.364C1054.88 173.848 1055.2 171.701 1055.83 169.92C1056.48 168.133 1057.4 166.769 1058.61 165.83C1059.82 164.883 1061.27 164.409 1062.97 164.409C1064.67 164.409 1066.12 164.883 1067.32 165.83C1068.53 166.769 1069.46 168.133 1070.09 169.92C1070.74 171.701 1071.06 173.848 1071.06 176.364C1071.06 178.894 1070.74 181.053 1070.11 182.841C1069.47 184.621 1068.55 185.981 1067.34 186.92C1066.14 187.852 1064.68 188.318 1062.97 188.318ZM1062.97 185.818C1064.67 185.818 1065.98 185 1066.92 183.364C1067.86 181.727 1068.33 179.394 1068.33 176.364C1068.33 174.348 1068.12 172.633 1067.68 171.216C1067.26 169.799 1066.65 168.72 1065.84 167.977C1065.05 167.235 1064.09 166.864 1062.97 166.864C1061.29 166.864 1059.97 167.693 1059.03 169.352C1058.08 171.004 1057.61 173.341 1057.61 176.364C1057.61 178.379 1057.82 180.091 1058.24 181.5C1058.67 182.909 1059.28 183.981 1060.07 184.716C1060.87 185.451 1061.84 185.818 1062.97 185.818ZM1082.97 188.318C1081.26 188.318 1079.8 187.852 1078.59 186.92C1077.39 185.981 1076.47 184.621 1075.83 182.841C1075.2 181.053 1074.88 178.894 1074.88 176.364C1074.88 173.848 1075.2 171.701 1075.83 169.92C1076.48 168.133 1077.4 166.769 1078.61 165.83C1079.82 164.883 1081.27 164.409 1082.97 164.409C1084.67 164.409 1086.12 164.883 1087.32 165.83C1088.53 166.769 1089.46 168.133 1090.09 169.92C1090.74 171.701 1091.06 173.848 1091.06 176.364C1091.06 178.894 1090.74 181.053 1090.11 182.841C1089.47 184.621 1088.55 185.981 1087.34 186.92C1086.14 187.852 1084.68 188.318 1082.97 188.318ZM1082.97 185.818C1084.67 185.818 1085.98 185 1086.92 183.364C1087.86 181.727 1088.33 179.394 1088.33 176.364C1088.33 174.348 1088.12 172.633 1087.68 171.216C1087.26 169.799 1086.65 168.72 1085.84 167.977C1085.05 167.235 1084.09 166.864 1082.97 166.864C1081.29 166.864 1079.97 167.693 1079.03 169.352C1078.08 171.004 1077.61 173.341 1077.61 176.364C1077.61 178.379 1077.82 180.091 1078.24 181.5C1078.67 182.909 1079.28 183.981 1080.07 184.716C1080.87 185.451 1081.84 185.818 1082.97 185.818ZM1111.97 188.318C1110.26 188.318 1108.8 187.852 1107.59 186.92C1106.39 185.981 1105.47 184.621 1104.83 182.841C1104.2 181.053 1103.88 178.894 1103.88 176.364C1103.88 173.848 1104.2 171.701 1104.83 169.92C1105.48 168.133 1106.4 166.769 1107.61 165.83C1108.82 164.883 1110.27 164.409 1111.97 164.409C1113.67 164.409 1115.12 164.883 1116.32 165.83C1117.53 166.769 1118.46 168.133 1119.09 169.92C1119.74 171.701 1120.06 173.848 1120.06 176.364C1120.06 178.894 1119.74 181.053 1119.11 182.841C1118.47 184.621 1117.55 185.981 1116.34 186.92C1115.14 187.852 1113.68 188.318 1111.97 188.318ZM1111.97 185.818C1113.67 185.818 1114.98 185 1115.92 183.364C1116.86 181.727 1117.33 179.394 1117.33 176.364C1117.33 174.348 1117.12 172.633 1116.68 171.216C1116.26 169.799 1115.65 168.72 1114.84 167.977C1114.05 167.235 1113.09 166.864 1111.97 166.864C1110.29 166.864 1108.97 167.693 1108.03 169.352C1107.08 171.004 1106.61 173.341 1106.61 176.364C1106.61 178.379 1106.82 180.091 1107.24 181.5C1107.67 182.909 1108.28 183.981 1109.07 184.716C1109.87 185.451 1110.84 185.818 1111.97 185.818ZM1131.97 188.318C1130.26 188.318 1128.8 187.852 1127.59 186.92C1126.39 185.981 1125.47 184.621 1124.83 182.841C1124.2 181.053 1123.88 178.894 1123.88 176.364C1123.88 173.848 1124.2 171.701 1124.83 169.92C1125.48 168.133 1126.4 166.769 1127.61 165.83C1128.82 164.883 1130.27 164.409 1131.97 164.409C1133.67 164.409 1135.12 164.883 1136.32 165.83C1137.53 166.769 1138.46 168.133 1139.09 169.92C1139.74 171.701 1140.06 173.848 1140.06 176.364C1140.06 178.894 1139.74 181.053 1139.11 182.841C1138.47 184.621 1137.55 185.981 1136.34 186.92C1135.14 187.852 1133.68 188.318 1131.97 188.318ZM1131.97 185.818C1133.67 185.818 1134.98 185 1135.92 183.364C1136.86 181.727 1137.33 179.394 1137.33 176.364C1137.33 174.348 1137.12 172.633 1136.68 171.216C1136.26 169.799 1135.65 168.72 1134.84 167.977C1134.05 167.235 1133.09 166.864 1131.97 166.864C1130.29 166.864 1128.97 167.693 1128.03 169.352C1127.08 171.004 1126.61 173.341 1126.61 176.364C1126.61 178.379 1126.82 180.091 1127.24 181.5C1127.67 182.909 1128.28 183.981 1129.07 184.716C1129.87 185.451 1130.84 185.818 1131.97 185.818ZM1151.97 188.318C1150.26 188.318 1148.8 187.852 1147.59 186.92C1146.39 185.981 1145.47 184.621 1144.83 182.841C1144.2 181.053 1143.88 178.894 1143.88 176.364C1143.88 173.848 1144.2 171.701 1144.83 169.92C1145.48 168.133 1146.4 166.769 1147.61 165.83C1148.82 164.883 1150.27 164.409 1151.97 164.409C1153.67 164.409 1155.12 164.883 1156.32 165.83C1157.53 166.769 1158.46 168.133 1159.09 169.92C1159.74 171.701 1160.06 173.848 1160.06 176.364C1160.06 178.894 1159.74 181.053 1159.11 182.841C1158.47 184.621 1157.55 185.981 1156.34 186.92C1155.14 187.852 1153.68 188.318 1151.97 188.318ZM1151.97 185.818C1153.67 185.818 1154.98 185 1155.92 183.364C1156.86 181.727 1157.33 179.394 1157.33 176.364C1157.33 174.348 1157.12 172.633 1156.68 171.216C1156.26 169.799 1155.65 168.72 1154.84 167.977C1154.05 167.235 1153.09 166.864 1151.97 166.864C1150.29 166.864 1148.97 167.693 1148.03 169.352C1147.08 171.004 1146.61 173.341 1146.61 176.364C1146.61 178.379 1146.82 180.091 1147.24 181.5C1147.67 182.909 1148.28 183.981 1149.07 184.716C1149.87 185.451 1150.84 185.818 1151.97 185.818Z" fill="black"/>
</svg>
