<svg width="1177" height="193" viewBox="0 0 1177 193" fill="none" xmlns="http://www.w3.org/2000/svg">
<rect y="71" width="230" height="75" fill="#DCE2F5"/>
<rect x="237" y="71" width="230" height="75" fill="#C0D2FE"/>
<rect x="474" y="71" width="229" height="75" fill="#96B2F5"/>
<rect x="710" y="71" width="230" height="75" fill="#4C77E1"/>
<rect x="947" y="71" width="230" height="75" fill="#001AFF"/>
<path d="M6.8 43.1V16.75H10.9V43.1H6.8ZM2.95 44V40.4H14.7V44H2.95ZM2.95 19.45V15.85H14.7V19.45H2.95ZM19.9176 44V23.55H23.4676L24.1676 28.3H24.2676C24.3009 28.1667 24.4342 27.85 24.6676 27.35C24.9009 26.85 25.2842 26.3167 25.8176 25.75C26.3509 25.15 27.0676 24.6333 27.9676 24.2C28.8676 23.7667 30.0009 23.55 31.3676 23.55C32.8009 23.55 33.9676 23.7833 34.8676 24.25C35.8009 24.6833 36.5342 25.2833 37.0676 26.05C37.6342 26.7833 38.0342 27.6167 38.2676 28.55C38.5009 29.45 38.6509 30.3833 38.7176 31.35C38.7842 32.2833 38.8176 33.1667 38.8176 34V44H34.7676V33.95C34.7676 32.6833 34.6342 31.55 34.3676 30.55C34.1009 29.5167 33.6176 28.7167 32.9176 28.15C32.2176 27.55 31.1676 27.25 29.7676 27.25C28.3676 27.25 27.2509 27.5833 26.4176 28.25C25.6176 28.9167 25.0342 29.7833 24.6676 30.85C24.3342 31.8833 24.1676 33.0167 24.1676 34.25V44H19.9176ZM52.3203 44.5C50.4203 44.5 48.7036 44.1 47.1703 43.3C45.637 42.5 44.4203 41.3333 43.5203 39.8C42.6203 38.2667 42.1703 36.4 42.1703 34.2C42.237 32 42.7036 30.1 43.5703 28.5C44.4703 26.9 45.687 25.6667 47.2203 24.8C48.7536 23.9333 50.487 23.5 52.4203 23.5C54.3536 23.5 56.0036 23.8667 57.3703 24.6C58.7703 25.3333 59.8703 26.2833 60.6703 27.45C61.4703 28.6167 61.9536 29.8833 62.1203 31.25H58.2703C58.0036 29.95 57.3703 28.9333 56.3703 28.2C55.3703 27.4667 54.1036 27.1 52.5703 27.1C51.237 27.1 50.1036 27.4 49.1703 28C48.237 28.5667 47.5203 29.3667 47.0203 30.4C46.5203 31.4 46.2536 32.5667 46.2203 33.9C46.2203 36 46.7703 37.6833 47.8703 38.95C48.9703 40.2167 50.5203 40.85 52.5203 40.85C53.9536 40.85 55.2036 40.4833 56.2703 39.75C57.337 39.0167 58.0036 37.95 58.2703 36.55H62.1203C61.9536 37.95 61.4536 39.25 60.6203 40.45C59.8203 41.65 58.7203 42.6333 57.3203 43.4C55.9203 44.1333 54.2536 44.5 52.3203 44.5ZM66.4172 44V23.55H70.5672V44H66.4172ZM68.5172 20.7C67.5505 20.7 66.8839 20.45 66.5172 19.95C66.1839 19.45 66.0172 18.8667 66.0172 18.2C66.0172 17.5667 66.1839 17.0167 66.5172 16.55C66.8839 16.05 67.5505 15.8 68.5172 15.8C69.4839 15.8 70.1172 16.05 70.4172 16.55C70.7505 17.0167 70.9172 17.5667 70.9172 18.2C70.9172 18.8667 70.7505 19.45 70.4172 19.95C70.1172 20.45 69.4839 20.7 68.5172 20.7ZM83.9469 44.5C81.9469 44.5 80.2969 44.05 78.9969 43.15C77.7302 42.25 76.7802 41.0167 76.1469 39.45C75.5469 37.8833 75.2469 36.1 75.2469 34.1C75.2469 32 75.5635 30.1667 76.1969 28.6C76.8302 27 77.7802 25.7667 79.0469 24.9C80.3469 24 81.9802 23.55 83.9469 23.55C85.2802 23.55 86.3969 23.7667 87.2969 24.2C88.2302 24.6333 88.9635 25.15 89.4969 25.75C90.0302 26.35 90.4135 26.9 90.6469 27.4C90.9135 27.9 91.0635 28.2167 91.0969 28.35H91.1969V15.85H95.4969V44H91.8969L91.2469 39.9H91.1469C91.0802 40.0333 90.9135 40.35 90.6469 40.85C90.3802 41.3167 89.9635 41.8333 89.3969 42.4C88.8302 42.9667 88.0969 43.4667 87.1969 43.9C86.2969 44.3 85.2135 44.5 83.9469 44.5ZM85.1469 40.9C86.4469 40.9 87.5469 40.6167 88.4469 40.05C89.3469 39.4833 90.0135 38.6833 90.4469 37.65C90.9135 36.6167 91.1469 35.4167 91.1469 34.05C91.1469 32.7167 90.9302 31.5333 90.4969 30.5C90.0635 29.4667 89.4135 28.6833 88.5469 28.15C87.7135 27.5833 86.6469 27.3 85.3469 27.3C83.8802 27.3 82.6969 27.6167 81.7969 28.25C80.9302 28.8833 80.2969 29.7167 79.8969 30.75C79.5302 31.7833 79.3469 32.8833 79.3469 34.05C79.3469 35.2167 79.5135 36.3333 79.8469 37.4C80.2135 38.4333 80.8135 39.2833 81.6469 39.95C82.5135 40.5833 83.6802 40.9 85.1469 40.9ZM109.152 44.5C106.852 44.5 104.968 44 103.502 43C102.035 41.9667 100.952 40.65 100.252 39.05C99.5516 37.4167 99.2016 35.7333 99.2016 34C99.1682 32.0333 99.5349 30.25 100.302 28.65C101.102 27.05 102.235 25.7833 103.702 24.85C105.202 23.9167 106.985 23.45 109.052 23.45C110.852 23.45 112.452 23.85 113.852 24.65C115.252 25.4167 116.368 26.5167 117.202 27.95C118.035 29.35 118.485 31.0167 118.552 32.95C118.585 33.05 118.602 33.25 118.602 33.55C118.602 33.8167 118.602 34.05 118.602 34.25H103.152C103.152 36.3833 103.668 38.05 104.702 39.25C105.768 40.4167 107.235 41 109.102 41C110.502 41 111.685 40.65 112.652 39.95C113.652 39.2167 114.268 38.25 114.502 37.05H118.552C118.352 38.45 117.852 39.7167 117.052 40.85C116.252 41.9833 115.185 42.8833 113.852 43.55C112.518 44.1833 110.952 44.5 109.152 44.5ZM103.302 32.2H114.402C114.368 31.8333 114.268 31.35 114.102 30.75C113.968 30.15 113.702 29.5667 113.302 29C112.902 28.4 112.352 27.9 111.652 27.5C110.952 27.1 110.052 26.9 108.952 26.9C107.952 26.9 107.102 27.0667 106.402 27.4C105.702 27.7333 105.135 28.1833 104.702 28.75C104.268 29.2833 103.935 29.8667 103.702 30.5C103.502 31.1 103.368 31.6667 103.302 32.2ZM122.603 44V23.55H126.153L126.853 28.3H126.953C126.986 28.1667 127.12 27.85 127.353 27.35C127.586 26.85 127.97 26.3167 128.503 25.75C129.036 25.15 129.753 24.6333 130.653 24.2C131.553 23.7667 132.686 23.55 134.053 23.55C135.486 23.55 136.653 23.7833 137.553 24.25C138.486 24.6833 139.22 25.2833 139.753 26.05C140.32 26.7833 140.72 27.6167 140.953 28.55C141.186 29.45 141.336 30.3833 141.403 31.35C141.47 32.2833 141.503 33.1667 141.503 34V44H137.453V33.95C137.453 32.6833 137.32 31.55 137.053 30.55C136.786 29.5167 136.303 28.7167 135.603 28.15C134.903 27.55 133.853 27.25 132.453 27.25C131.053 27.25 129.936 27.5833 129.103 28.25C128.303 28.9167 127.72 29.7833 127.353 30.85C127.02 31.8833 126.853 33.0167 126.853 34.25V44H122.603ZM155.006 44.5C153.106 44.5 151.389 44.1 149.856 43.3C148.323 42.5 147.106 41.3333 146.206 39.8C145.306 38.2667 144.856 36.4 144.856 34.2C144.923 32 145.389 30.1 146.256 28.5C147.156 26.9 148.373 25.6667 149.906 24.8C151.439 23.9333 153.173 23.5 155.106 23.5C157.039 23.5 158.689 23.8667 160.056 24.6C161.456 25.3333 162.556 26.2833 163.356 27.45C164.156 28.6167 164.639 29.8833 164.806 31.25H160.956C160.689 29.95 160.056 28.9333 159.056 28.2C158.056 27.4667 156.789 27.1 155.256 27.1C153.923 27.1 152.789 27.4 151.856 28C150.923 28.5667 150.206 29.3667 149.706 30.4C149.206 31.4 148.939 32.5667 148.906 33.9C148.906 36 149.456 37.6833 150.556 38.95C151.656 40.2167 153.206 40.85 155.206 40.85C156.639 40.85 157.889 40.4833 158.956 39.75C160.023 39.0167 160.689 37.95 160.956 36.55H164.806C164.639 37.95 164.139 39.25 163.306 40.45C162.506 41.65 161.406 42.6333 160.006 43.4C158.606 44.1333 156.939 44.5 155.006 44.5ZM177.853 44.5C175.553 44.5 173.669 44 172.203 43C170.736 41.9667 169.653 40.65 168.953 39.05C168.253 37.4167 167.903 35.7333 167.903 34C167.869 32.0333 168.236 30.25 169.003 28.65C169.803 27.05 170.936 25.7833 172.403 24.85C173.903 23.9167 175.686 23.45 177.753 23.45C179.553 23.45 181.153 23.85 182.553 24.65C183.953 25.4167 185.069 26.5167 185.903 27.95C186.736 29.35 187.186 31.0167 187.253 32.95C187.286 33.05 187.303 33.25 187.303 33.55C187.303 33.8167 187.303 34.05 187.303 34.25H171.853C171.853 36.3833 172.369 38.05 173.403 39.25C174.469 40.4167 175.936 41 177.803 41C179.203 41 180.386 40.65 181.353 39.95C182.353 39.2167 182.969 38.25 183.203 37.05H187.253C187.053 38.45 186.553 39.7167 185.753 40.85C184.953 41.9833 183.886 42.8833 182.553 43.55C181.219 44.1833 179.653 44.5 177.853 44.5ZM172.003 32.2H183.103C183.069 31.8333 182.969 31.35 182.803 30.75C182.669 30.15 182.403 29.5667 182.003 29C181.603 28.4 181.053 27.9 180.353 27.5C179.653 27.1 178.753 26.9 177.653 26.9C176.653 26.9 175.803 27.0667 175.103 27.4C174.403 27.7333 173.836 28.1833 173.403 28.75C172.969 29.2833 172.636 29.8667 172.403 30.5C172.203 31.1 172.069 31.6667 172.003 32.2ZM212.081 44.5C209.881 44.5 208.031 44.05 206.531 43.15C205.031 42.25 203.898 41.0167 203.131 39.45C202.398 37.85 202.031 36.05 202.031 34.05C202.031 31.9833 202.398 30.1667 203.131 28.6C203.898 27 205.031 25.75 206.531 24.85C208.031 23.95 209.898 23.5 212.131 23.5C215.398 23.5 217.881 24.4667 219.581 26.4C221.281 28.3333 222.131 30.8833 222.131 34.05C222.131 36.0167 221.765 37.8 221.031 39.4C220.331 40.9667 219.231 42.2167 217.731 43.15C216.265 44.05 214.381 44.5 212.081 44.5ZM212.081 40.95C213.715 40.95 214.965 40.6 215.831 39.9C216.698 39.2 217.281 38.3167 217.581 37.25C217.915 36.15 218.081 35.0333 218.081 33.9C218.081 32.7667 217.915 31.6667 217.581 30.6C217.281 29.5 216.698 28.6 215.831 27.9C214.965 27.1667 213.715 26.8 212.081 26.8C210.515 26.8 209.281 27.1667 208.381 27.9C207.515 28.6 206.915 29.5 206.581 30.6C206.248 31.6667 206.081 32.7667 206.081 33.9C206.081 35.0333 206.248 36.15 206.581 37.25C206.915 38.3167 207.515 39.2 208.381 39.9C209.281 40.6 210.515 40.95 212.081 40.95ZM227.773 44.1V19.6C227.773 18.1333 228.09 17.0333 228.723 16.3C229.39 15.5667 230.44 15.2 231.873 15.2H237.573V18.5H231.923V44.1H227.773ZM224.773 26.55V23.55H237.323V26.55H224.773ZM251.216 44V23.55H255.116L255.266 28.3H255.366C255.4 28.1 255.533 27.75 255.766 27.25C256 26.75 256.35 26.2167 256.816 25.65C257.316 25.0833 257.95 24.6 258.716 24.2C259.516 23.7667 260.516 23.55 261.716 23.55C262.883 23.55 263.85 23.7833 264.616 24.25C265.383 24.6833 265.983 25.2667 266.416 26C266.883 26.7 267.216 27.4667 267.416 28.3H267.516C267.583 28.1 267.75 27.75 268.016 27.25C268.283 26.75 268.666 26.2167 269.166 25.65C269.7 25.05 270.383 24.55 271.216 24.15C272.05 23.75 273.066 23.55 274.266 23.55C275.566 23.55 276.633 23.8167 277.466 24.35C278.333 24.8833 279.016 25.5833 279.516 26.45C280.016 27.2833 280.383 28.1833 280.616 29.15C280.85 30.0833 281 30.9833 281.066 31.85C281.133 32.7167 281.166 33.4333 281.166 34V44H277.116V33.95C277.116 33.4167 277.083 32.7833 277.016 32.05C276.983 31.2833 276.833 30.5333 276.566 29.8C276.333 29.0667 275.933 28.4667 275.366 28C274.8 27.5 274 27.25 272.966 27.25C271.766 27.25 270.816 27.5833 270.116 28.25C269.416 28.9167 268.916 29.7833 268.616 30.85C268.35 31.9167 268.216 33.05 268.216 34.25V44H264.166V33.95C264.166 33.4167 264.133 32.7833 264.066 32.05C264.033 31.2833 263.883 30.5333 263.616 29.8C263.383 29.0667 262.983 28.4667 262.416 28C261.85 27.5 261.05 27.25 260.016 27.25C258.816 27.25 257.866 27.5833 257.166 28.25C256.466 28.9167 255.966 29.7833 255.666 30.85C255.4 31.9167 255.266 33.05 255.266 34.25V44H251.216ZM292.154 44.45C290.288 44.45 288.754 44 287.554 43.1C286.388 42.2 285.521 40.9667 284.954 39.4C284.421 37.8333 284.154 36.0333 284.154 34C284.154 31.9 284.438 30.0667 285.004 28.5C285.571 26.9 286.438 25.65 287.604 24.75C288.804 23.85 290.321 23.4 292.154 23.4C293.288 23.4 294.254 23.5667 295.054 23.9C295.854 24.2 296.521 24.5833 297.054 25.05C297.588 25.5167 298.021 26 298.354 26.5C298.688 26.9667 298.921 27.3833 299.054 27.75H299.154V23.55H303.404V44H299.854L299.154 40.35H299.054C298.921 40.7167 298.688 41.1333 298.354 41.6C298.021 42.0667 297.571 42.5167 297.004 42.95C296.471 43.3833 295.804 43.7333 295.004 44C294.204 44.3 293.254 44.45 292.154 44.45ZM293.804 40.9C295.138 40.9 296.188 40.6167 296.954 40.05C297.721 39.45 298.271 38.6333 298.604 37.6C298.938 36.5667 299.104 35.3833 299.104 34.05C299.104 32.6167 298.921 31.3833 298.554 30.35C298.221 29.3167 297.671 28.5333 296.904 28C296.138 27.4333 295.104 27.15 293.804 27.15C292.438 27.15 291.338 27.4667 290.504 28.1C289.704 28.7 289.121 29.5167 288.754 30.55C288.421 31.5833 288.254 32.7333 288.254 34C288.254 35.3 288.421 36.4833 288.754 37.55C289.121 38.5833 289.704 39.4 290.504 40C291.338 40.6 292.438 40.9 293.804 40.9ZM307.676 44V15.85H311.776V44H307.676ZM323.258 44.45C321.391 44.45 319.858 44 318.658 43.1C317.491 42.2 316.624 40.9667 316.058 39.4C315.524 37.8333 315.258 36.0333 315.258 34C315.258 31.9 315.541 30.0667 316.108 28.5C316.674 26.9 317.541 25.65 318.708 24.75C319.908 23.85 321.424 23.4 323.258 23.4C324.391 23.4 325.358 23.5667 326.158 23.9C326.958 24.2 327.624 24.5833 328.158 25.05C328.691 25.5167 329.124 26 329.458 26.5C329.791 26.9667 330.024 27.3833 330.158 27.75H330.258V23.55H334.508V44H330.958L330.258 40.35H330.158C330.024 40.7167 329.791 41.1333 329.458 41.6C329.124 42.0667 328.674 42.5167 328.108 42.95C327.574 43.3833 326.908 43.7333 326.108 44C325.308 44.3 324.358 44.45 323.258 44.45ZM324.908 40.9C326.241 40.9 327.291 40.6167 328.058 40.05C328.824 39.45 329.374 38.6333 329.708 37.6C330.041 36.5667 330.208 35.3833 330.208 34.05C330.208 32.6167 330.024 31.3833 329.658 30.35C329.324 29.3167 328.774 28.5333 328.008 28C327.241 27.4333 326.208 27.15 324.908 27.15C323.541 27.15 322.441 27.4667 321.608 28.1C320.808 28.7 320.224 29.5167 319.858 30.55C319.524 31.5833 319.358 32.7333 319.358 34C319.358 35.3 319.524 36.4833 319.858 37.55C320.224 38.5833 320.808 39.4 321.608 40C322.441 40.6 323.541 40.9 324.908 40.9ZM338.529 44V23.55H342.379L342.729 29.45L342.679 33.85V44H338.529ZM342.679 34.8L342.529 30.3C342.563 29.5667 342.729 28.8167 343.029 28.05C343.329 27.25 343.779 26.5167 344.379 25.85C345.013 25.15 345.813 24.6 346.779 24.2C347.779 23.7667 348.979 23.55 350.379 23.55H351.229V28.15H350.329C348.829 28.15 347.579 28.3 346.579 28.6C345.579 28.8667 344.796 29.2833 344.229 29.85C343.663 30.4167 343.263 31.1167 343.029 31.95C342.796 32.7833 342.679 33.7333 342.679 34.8ZM354.845 44V23.55H358.995V44H354.845ZM356.945 20.7C355.978 20.7 355.312 20.45 354.945 19.95C354.612 19.45 354.445 18.8667 354.445 18.2C354.445 17.5667 354.612 17.0167 354.945 16.55C355.312 16.05 355.978 15.8 356.945 15.8C357.912 15.8 358.545 16.05 358.845 16.55C359.178 17.0167 359.345 17.5667 359.345 18.2C359.345 18.8667 359.178 19.45 358.845 19.95C358.545 20.45 357.912 20.7 356.945 20.7ZM370.475 44.45C368.608 44.45 367.075 44 365.875 43.1C364.708 42.2 363.841 40.9667 363.275 39.4C362.741 37.8333 362.475 36.0333 362.475 34C362.475 31.9 362.758 30.0667 363.325 28.5C363.891 26.9 364.758 25.65 365.925 24.75C367.125 23.85 368.641 23.4 370.475 23.4C371.608 23.4 372.575 23.5667 373.375 23.9C374.175 24.2 374.841 24.5833 375.375 25.05C375.908 25.5167 376.341 26 376.675 26.5C377.008 26.9667 377.241 27.3833 377.375 27.75H377.475V23.55H381.725V44H378.175L377.475 40.35H377.375C377.241 40.7167 377.008 41.1333 376.675 41.6C376.341 42.0667 375.891 42.5167 375.325 42.95C374.791 43.3833 374.125 43.7333 373.325 44C372.525 44.3 371.575 44.45 370.475 44.45ZM372.125 40.9C373.458 40.9 374.508 40.6167 375.275 40.05C376.041 39.45 376.591 38.6333 376.925 37.6C377.258 36.5667 377.425 35.3833 377.425 34.05C377.425 32.6167 377.241 31.3833 376.875 30.35C376.541 29.3167 375.991 28.5333 375.225 28C374.458 27.4333 373.425 27.15 372.125 27.15C370.758 27.15 369.658 27.4667 368.825 28.1C368.025 28.7 367.441 29.5167 367.075 30.55C366.741 31.5833 366.575 32.7333 366.575 34C366.575 35.3 366.741 36.4833 367.075 37.55C367.441 38.5833 368.025 39.4 368.825 40C369.658 40.6 370.758 40.9 372.125 40.9ZM406.523 53.95C406.523 53.95 406.19 53.6833 405.523 53.15C404.89 52.6167 404.106 51.8167 403.173 50.75C402.24 49.7167 401.29 48.4 400.323 46.8C399.39 45.2 398.606 43.3333 397.973 41.2C397.34 39.0667 397.023 36.6667 397.023 34C397.023 31.3 397.34 28.8833 397.973 26.75C398.606 24.5833 399.39 22.7 400.323 21.1C401.29 19.4667 402.24 18.1167 403.173 17.05C404.106 15.9833 404.89 15.1833 405.523 14.65C406.19 14.1167 406.523 13.85 406.523 13.85L409.723 17.1C409.59 17.2 409.173 17.4833 408.473 17.95C407.773 18.3833 406.94 19.0333 405.973 19.9C405.006 20.7667 404.056 21.8667 403.123 23.2C402.19 24.5 401.406 26.05 400.773 27.85C400.14 29.6167 399.823 31.6667 399.823 34C399.823 36.3333 400.156 38.4167 400.823 40.25C401.49 42.05 402.306 43.6 403.273 44.9C404.273 46.2 405.256 47.2667 406.223 48.1C407.223 48.9667 408.056 49.6 408.723 50C409.39 50.4 409.723 50.6 409.723 50.6L406.523 53.95ZM424.253 44.5C422.953 44.5 421.869 44.3 421.003 43.9C420.136 43.4667 419.419 42.9667 418.853 42.4C418.319 41.8333 417.919 41.3167 417.653 40.85C417.386 40.35 417.219 40.0333 417.153 39.9H417.053V52.75H412.803V23.55H416.403L417.103 28.35H417.203C417.236 28.2167 417.369 27.9 417.603 27.4C417.836 26.9 418.219 26.35 418.753 25.75C419.286 25.15 419.986 24.6333 420.853 24.2C421.753 23.7667 422.869 23.55 424.203 23.55C426.236 23.55 427.886 24 429.153 24.9C430.453 25.8 431.419 27.05 432.053 28.65C432.686 30.2167 433.003 32.0333 433.003 34.1C433.003 36.1667 432.669 37.9833 432.003 39.55C431.369 41.1167 430.403 42.3333 429.103 43.2C427.836 44.0667 426.219 44.5 424.253 44.5ZM423.153 40.9C424.619 40.9 425.769 40.5833 426.603 39.95C427.469 39.2833 428.069 38.4333 428.403 37.4C428.769 36.3333 428.953 35.2167 428.953 34.05C428.953 32.8833 428.753 31.7833 428.353 30.75C427.986 29.7167 427.353 28.8833 426.453 28.25C425.586 27.6167 424.419 27.3 422.953 27.3C421.686 27.3 420.619 27.5833 419.753 28.15C418.886 28.6833 418.236 29.4667 417.803 30.5C417.369 31.5333 417.153 32.7167 417.153 34.05C417.153 35.4167 417.369 36.6167 417.803 37.65C418.269 38.6833 418.953 39.4833 419.853 40.05C420.753 40.6167 421.853 40.9 423.153 40.9ZM445.821 44.5C443.521 44.5 441.638 44 440.171 43C438.705 41.9667 437.621 40.65 436.921 39.05C436.221 37.4167 435.871 35.7333 435.871 34C435.838 32.0333 436.205 30.25 436.971 28.65C437.771 27.05 438.905 25.7833 440.371 24.85C441.871 23.9167 443.655 23.45 445.721 23.45C447.521 23.45 449.121 23.85 450.521 24.65C451.921 25.4167 453.038 26.5167 453.871 27.95C454.705 29.35 455.155 31.0167 455.221 32.95C455.255 33.05 455.271 33.25 455.271 33.55C455.271 33.8167 455.271 34.05 455.271 34.25H439.821C439.821 36.3833 440.338 38.05 441.371 39.25C442.438 40.4167 443.905 41 445.771 41C447.171 41 448.355 40.65 449.321 39.95C450.321 39.2167 450.938 38.25 451.171 37.05H455.221C455.021 38.45 454.521 39.7167 453.721 40.85C452.921 41.9833 451.855 42.8833 450.521 43.55C449.188 44.1833 447.621 44.5 445.821 44.5ZM439.971 32.2H451.071C451.038 31.8333 450.938 31.35 450.771 30.75C450.638 30.15 450.371 29.5667 449.971 29C449.571 28.4 449.021 27.9 448.321 27.5C447.621 27.1 446.721 26.9 445.621 26.9C444.621 26.9 443.771 27.0667 443.071 27.4C442.371 27.7333 441.805 28.1833 441.371 28.75C440.938 29.2833 440.605 29.8667 440.371 30.5C440.171 31.1 440.038 31.6667 439.971 32.2ZM459.623 44V23.55H463.473L463.823 29.45L463.773 33.85V44H459.623ZM463.773 34.8L463.623 30.3C463.656 29.5667 463.823 28.8167 464.123 28.05C464.423 27.25 464.873 26.5167 465.473 25.85C466.106 25.15 466.906 24.6 467.873 24.2C468.873 23.7667 470.073 23.55 471.473 23.55H472.323V28.15H471.423C469.923 28.15 468.673 28.3 467.673 28.6C466.673 28.8667 465.89 29.2833 465.323 29.85C464.756 30.4167 464.356 31.1167 464.123 31.95C463.89 32.7833 463.773 33.7333 463.773 34.8ZM500.466 40.4V44H487.916V40.4H492.466V21.3C492.166 22.4 491.716 23.2667 491.116 23.9C490.516 24.5333 489.882 24.9833 489.216 25.25C488.582 25.5167 487.999 25.6833 487.466 25.75C486.932 25.8167 486.582 25.85 486.416 25.85V21.4C486.616 21.4333 487.032 21.4 487.666 21.3C488.332 21.2 489.049 20.9667 489.816 20.6C490.616 20.2333 491.299 19.6833 491.866 18.95C492.466 18.1833 492.782 17.15 492.816 15.85H496.516V40.4H500.466ZM505.091 48.75V45.85H506.141C506.975 45.85 507.525 45.6833 507.791 45.35C508.058 45.05 508.191 44.6 508.191 44C507.125 44.0667 506.358 43.8667 505.891 43.4C505.458 42.9333 505.241 42.3 505.241 41.5C505.241 40.8 505.425 40.2167 505.791 39.75C506.158 39.25 506.808 39 507.741 39C508.508 39 509.091 39.2333 509.491 39.7C509.925 40.1667 510.141 41.0667 510.141 42.4C510.141 43.6 510.008 44.6833 509.741 45.65C509.508 46.6167 509.108 47.3667 508.541 47.9C507.975 48.4667 507.191 48.75 506.191 48.75H505.091ZM525.994 44.7C521.961 44.7 518.977 43.3833 517.044 40.75C515.111 38.0833 514.144 34.5 514.144 30C514.144 27.0333 514.544 24.4667 515.344 22.3C516.177 20.1 517.461 18.4 519.194 17.2C520.961 15.9667 523.227 15.35 525.994 15.35C528.694 15.35 530.911 15.95 532.644 17.15C534.411 18.35 535.711 20.05 536.544 22.25C537.411 24.45 537.844 27.0333 537.844 30C537.844 32.9 537.411 35.4667 536.544 37.7C535.711 39.9 534.411 41.6167 532.644 42.85C530.911 44.0833 528.694 44.7 525.994 44.7ZM525.944 41.2C528.711 41.2 530.727 40.2333 531.994 38.3C533.294 36.3333 533.944 33.5667 533.944 30C533.944 27.6 533.661 25.5833 533.094 23.95C532.561 22.2833 531.694 21.0167 530.494 20.15C529.327 19.25 527.811 18.8 525.944 18.8C523.244 18.8 521.244 19.7333 519.944 21.6C518.677 23.4667 518.044 26.2667 518.044 30C518.044 32.3667 518.311 34.3833 518.844 36.05C519.411 37.7167 520.261 39 521.394 39.9C522.561 40.7667 524.077 41.2 525.944 41.2ZM552.459 44.7C548.426 44.7 545.442 43.3833 543.509 40.75C541.576 38.0833 540.609 34.5 540.609 30C540.609 27.0333 541.009 24.4667 541.809 22.3C542.642 20.1 543.926 18.4 545.659 17.2C547.426 15.9667 549.692 15.35 552.459 15.35C555.159 15.35 557.376 15.95 559.109 17.15C560.876 18.35 562.176 20.05 563.009 22.25C563.876 24.45 564.309 27.0333 564.309 30C564.309 32.9 563.876 35.4667 563.009 37.7C562.176 39.9 560.876 41.6167 559.109 42.85C557.376 44.0833 555.159 44.7 552.459 44.7ZM552.409 41.2C555.176 41.2 557.192 40.2333 558.459 38.3C559.759 36.3333 560.409 33.5667 560.409 30C560.409 27.6 560.126 25.5833 559.559 23.95C559.026 22.2833 558.159 21.0167 556.959 20.15C555.792 19.25 554.276 18.8 552.409 18.8C549.709 18.8 547.709 19.7333 546.409 21.6C545.142 23.4667 544.509 26.2667 544.509 30C544.509 32.3667 544.776 34.3833 545.309 36.05C545.876 37.7167 546.726 39 547.859 39.9C549.026 40.7667 550.542 41.2 552.409 41.2ZM578.924 44.7C574.89 44.7 571.907 43.3833 569.974 40.75C568.04 38.0833 567.074 34.5 567.074 30C567.074 27.0333 567.474 24.4667 568.274 22.3C569.107 20.1 570.39 18.4 572.124 17.2C573.89 15.9667 576.157 15.35 578.924 15.35C581.624 15.35 583.84 15.95 585.574 17.15C587.34 18.35 588.64 20.05 589.474 22.25C590.34 24.45 590.774 27.0333 590.774 30C590.774 32.9 590.34 35.4667 589.474 37.7C588.64 39.9 587.34 41.6167 585.574 42.85C583.84 44.0833 581.624 44.7 578.924 44.7ZM578.874 41.2C581.64 41.2 583.657 40.2333 584.924 38.3C586.224 36.3333 586.874 33.5667 586.874 30C586.874 27.6 586.59 25.5833 586.024 23.95C585.49 22.2833 584.624 21.0167 583.424 20.15C582.257 19.25 580.74 18.8 578.874 18.8C576.174 18.8 574.174 19.7333 572.874 21.6C571.607 23.4667 570.974 26.2667 570.974 30C570.974 32.3667 571.24 34.3833 571.774 36.05C572.34 37.7167 573.19 39 574.324 39.9C575.49 40.7667 577.007 41.2 578.874 41.2ZM617.466 44.5C616.166 44.5 615.082 44.3 614.216 43.9C613.349 43.4667 612.632 42.9667 612.066 42.4C611.532 41.8333 611.132 41.3167 610.866 40.85C610.599 40.35 610.432 40.0333 610.366 39.9H610.266V52.75H606.016V23.55H609.616L610.316 28.35H610.416C610.449 28.2167 610.582 27.9 610.816 27.4C611.049 26.9 611.432 26.35 611.966 25.75C612.499 25.15 613.199 24.6333 614.066 24.2C614.966 23.7667 616.082 23.55 617.416 23.55C619.449 23.55 621.099 24 622.366 24.9C623.666 25.8 624.632 27.05 625.266 28.65C625.899 30.2167 626.216 32.0333 626.216 34.1C626.216 36.1667 625.882 37.9833 625.216 39.55C624.582 41.1167 623.616 42.3333 622.316 43.2C621.049 44.0667 619.432 44.5 617.466 44.5ZM616.366 40.9C617.832 40.9 618.982 40.5833 619.816 39.95C620.682 39.2833 621.282 38.4333 621.616 37.4C621.982 36.3333 622.166 35.2167 622.166 34.05C622.166 32.8833 621.966 31.7833 621.566 30.75C621.199 29.7167 620.566 28.8833 619.666 28.25C618.799 27.6167 617.632 27.3 616.166 27.3C614.899 27.3 613.832 27.5833 612.966 28.15C612.099 28.6833 611.449 29.4667 611.016 30.5C610.582 31.5333 610.366 32.7167 610.366 34.05C610.366 35.4167 610.582 36.6167 611.016 37.65C611.482 38.6833 612.166 39.4833 613.066 40.05C613.966 40.6167 615.066 40.9 616.366 40.9ZM639.034 44.5C636.834 44.5 634.984 44.05 633.484 43.15C631.984 42.25 630.851 41.0167 630.084 39.45C629.351 37.85 628.984 36.05 628.984 34.05C628.984 31.9833 629.351 30.1667 630.084 28.6C630.851 27 631.984 25.75 633.484 24.85C634.984 23.95 636.851 23.5 639.084 23.5C642.351 23.5 644.834 24.4667 646.534 26.4C648.234 28.3333 649.084 30.8833 649.084 34.05C649.084 36.0167 648.718 37.8 647.984 39.4C647.284 40.9667 646.184 42.2167 644.684 43.15C643.218 44.05 641.334 44.5 639.034 44.5ZM639.034 40.95C640.668 40.95 641.918 40.6 642.784 39.9C643.651 39.2 644.234 38.3167 644.534 37.25C644.868 36.15 645.034 35.0333 645.034 33.9C645.034 32.7667 644.868 31.6667 644.534 30.6C644.234 29.5 643.651 28.6 642.784 27.9C641.918 27.1667 640.668 26.8 639.034 26.8C637.468 26.8 636.234 27.1667 635.334 27.9C634.468 28.6 633.868 29.5 633.534 30.6C633.201 31.6667 633.034 32.7667 633.034 33.9C633.034 35.0333 633.201 36.15 633.534 37.25C633.868 38.3167 634.468 39.2 635.334 39.9C636.234 40.6 637.468 40.95 639.034 40.95ZM664.927 44.5C663.627 44.5 662.543 44.3 661.677 43.9C660.81 43.4667 660.093 42.9667 659.527 42.4C658.993 41.8333 658.593 41.3167 658.327 40.85C658.06 40.35 657.893 40.0333 657.827 39.9H657.727V52.75H653.477V23.55H657.077L657.777 28.35H657.877C657.91 28.2167 658.043 27.9 658.277 27.4C658.51 26.9 658.893 26.35 659.427 25.75C659.96 25.15 660.66 24.6333 661.527 24.2C662.427 23.7667 663.543 23.55 664.877 23.55C666.91 23.55 668.56 24 669.827 24.9C671.127 25.8 672.093 27.05 672.727 28.65C673.36 30.2167 673.677 32.0333 673.677 34.1C673.677 36.1667 673.343 37.9833 672.677 39.55C672.043 41.1167 671.077 42.3333 669.777 43.2C668.51 44.0667 666.893 44.5 664.927 44.5ZM663.827 40.9C665.293 40.9 666.443 40.5833 667.277 39.95C668.143 39.2833 668.743 38.4333 669.077 37.4C669.443 36.3333 669.627 35.2167 669.627 34.05C669.627 32.8833 669.427 31.7833 669.027 30.75C668.66 29.7167 668.027 28.8833 667.127 28.25C666.26 27.6167 665.093 27.3 663.627 27.3C662.36 27.3 661.293 27.5833 660.427 28.15C659.56 28.6833 658.91 29.4667 658.477 30.5C658.043 31.5333 657.827 32.7167 657.827 34.05C657.827 35.4167 658.043 36.6167 658.477 37.65C658.943 38.6833 659.627 39.4833 660.527 40.05C661.427 40.6167 662.527 40.9 663.827 40.9ZM684.445 44.5C683.079 44.5 681.929 44.2833 680.995 43.85C680.095 43.4167 679.362 42.8333 678.795 42.1C678.262 41.3667 677.862 40.55 677.595 39.65C677.329 38.75 677.145 37.8167 677.045 36.85C676.945 35.8833 676.895 34.95 676.895 34.05V23.55H680.995V34.05C680.995 35.25 681.112 36.3667 681.345 37.4C681.579 38.4 682.062 39.2167 682.795 39.85C683.529 40.4833 684.612 40.8 686.045 40.8C687.445 40.8 688.529 40.4833 689.295 39.85C690.062 39.1833 690.595 38.35 690.895 37.35C691.229 36.35 691.412 35.3167 691.445 34.25V23.55H695.745V44H692.195L691.495 39.75H691.395C691.295 40.0833 691.095 40.5167 690.795 41.05C690.495 41.55 690.079 42.0667 689.545 42.6C689.012 43.1333 688.312 43.5833 687.445 43.95C686.612 44.3167 685.612 44.5 684.445 44.5ZM700.352 44V15.85H704.452V44H700.352ZM715.934 44.45C714.067 44.45 712.534 44 711.334 43.1C710.167 42.2 709.3 40.9667 708.734 39.4C708.2 37.8333 707.934 36.0333 707.934 34C707.934 31.9 708.217 30.0667 708.784 28.5C709.35 26.9 710.217 25.65 711.384 24.75C712.584 23.85 714.1 23.4 715.934 23.4C717.067 23.4 718.034 23.5667 718.834 23.9C719.634 24.2 720.3 24.5833 720.834 25.05C721.367 25.5167 721.8 26 722.134 26.5C722.467 26.9667 722.7 27.3833 722.834 27.75H722.934V23.55H727.184V44H723.634L722.934 40.35H722.834C722.7 40.7167 722.467 41.1333 722.134 41.6C721.8 42.0667 721.35 42.5167 720.784 42.95C720.25 43.3833 719.584 43.7333 718.784 44C717.984 44.3 717.034 44.45 715.934 44.45ZM717.584 40.9C718.917 40.9 719.967 40.6167 720.734 40.05C721.5 39.45 722.05 38.6333 722.384 37.6C722.717 36.5667 722.884 35.3833 722.884 34.05C722.884 32.6167 722.7 31.3833 722.334 30.35C722 29.3167 721.45 28.5333 720.684 28C719.917 27.4333 718.884 27.15 717.584 27.15C716.217 27.15 715.117 27.4667 714.284 28.1C713.484 28.7 712.9 29.5167 712.534 30.55C712.2 31.5833 712.034 32.7333 712.034 34C712.034 35.3 712.2 36.4833 712.534 37.55C712.9 38.5833 713.484 39.4 714.284 40C715.117 40.6 716.217 40.9 717.584 40.9ZM736.755 44C735.355 44 734.322 43.6333 733.655 42.9C732.988 42.1667 732.655 41.05 732.655 39.55V26.05H736.605V40.7H741.355V44H736.755ZM729.505 26.55V23.55C730.272 23.55 730.888 23.5 731.355 23.4C731.855 23.3 732.222 23.1 732.455 22.8C732.722 22.4667 732.905 21.95 733.005 21.25C733.105 20.5167 733.155 19.5333 733.155 18.3H736.605V23.55H741.305V26.55H729.505ZM746.056 44V23.55H750.206V44H746.056ZM748.156 20.7C747.189 20.7 746.523 20.45 746.156 19.95C745.823 19.45 745.656 18.8667 745.656 18.2C745.656 17.5667 745.823 17.0167 746.156 16.55C746.523 16.05 747.189 15.8 748.156 15.8C749.123 15.8 749.756 16.05 750.056 16.55C750.389 17.0167 750.556 17.5667 750.556 18.2C750.556 18.8667 750.389 19.45 750.056 19.95C749.756 20.45 749.123 20.7 748.156 20.7ZM763.986 44.5C761.786 44.5 759.936 44.05 758.436 43.15C756.936 42.25 755.802 41.0167 755.036 39.45C754.302 37.85 753.936 36.05 753.936 34.05C753.936 31.9833 754.302 30.1667 755.036 28.6C755.802 27 756.936 25.75 758.436 24.85C759.936 23.95 761.802 23.5 764.036 23.5C767.302 23.5 769.786 24.4667 771.486 26.4C773.186 28.3333 774.036 30.8833 774.036 34.05C774.036 36.0167 773.669 37.8 772.936 39.4C772.236 40.9667 771.136 42.2167 769.636 43.15C768.169 44.05 766.286 44.5 763.986 44.5ZM763.986 40.95C765.619 40.95 766.869 40.6 767.736 39.9C768.602 39.2 769.186 38.3167 769.486 37.25C769.819 36.15 769.986 35.0333 769.986 33.9C769.986 32.7667 769.819 31.6667 769.486 30.6C769.186 29.5 768.602 28.6 767.736 27.9C766.869 27.1667 765.619 26.8 763.986 26.8C762.419 26.8 761.186 27.1667 760.286 27.9C759.419 28.6 758.819 29.5 758.486 30.6C758.152 31.6667 757.986 32.7667 757.986 33.9C757.986 35.0333 758.152 36.15 758.486 37.25C758.819 38.3167 759.419 39.2 760.286 39.9C761.186 40.6 762.419 40.95 763.986 40.95ZM777.828 44V23.55H781.378L782.078 28.3H782.178C782.211 28.1667 782.344 27.85 782.578 27.35C782.811 26.85 783.194 26.3167 783.728 25.75C784.261 25.15 784.978 24.6333 785.878 24.2C786.778 23.7667 787.911 23.55 789.278 23.55C790.711 23.55 791.878 23.7833 792.778 24.25C793.711 24.6833 794.444 25.2833 794.978 26.05C795.544 26.7833 795.944 27.6167 796.178 28.55C796.411 29.45 796.561 30.3833 796.628 31.35C796.694 32.2833 796.728 33.1667 796.728 34V44H792.678V33.95C792.678 32.6833 792.544 31.55 792.278 30.55C792.011 29.5167 791.528 28.7167 790.828 28.15C790.128 27.55 789.078 27.25 787.678 27.25C786.278 27.25 785.161 27.5833 784.328 28.25C783.528 28.9167 782.944 29.7833 782.578 30.85C782.244 31.8833 782.078 33.0167 782.078 34.25V44H777.828ZM819.107 44.45C817.241 44.45 815.707 44 814.507 43.1C813.341 42.2 812.474 40.9667 811.907 39.4C811.374 37.8333 811.107 36.0333 811.107 34C811.107 31.9 811.391 30.0667 811.957 28.5C812.524 26.9 813.391 25.65 814.557 24.75C815.757 23.85 817.274 23.4 819.107 23.4C820.241 23.4 821.207 23.5667 822.007 23.9C822.807 24.2 823.474 24.5833 824.007 25.05C824.541 25.5167 824.974 26 825.307 26.5C825.641 26.9667 825.874 27.3833 826.007 27.75H826.107V23.55H830.357V44H826.807L826.107 40.35H826.007C825.874 40.7167 825.641 41.1333 825.307 41.6C824.974 42.0667 824.524 42.5167 823.957 42.95C823.424 43.3833 822.757 43.7333 821.957 44C821.157 44.3 820.207 44.45 819.107 44.45ZM820.757 40.9C822.091 40.9 823.141 40.6167 823.907 40.05C824.674 39.45 825.224 38.6333 825.557 37.6C825.891 36.5667 826.057 35.3833 826.057 34.05C826.057 32.6167 825.874 31.3833 825.507 30.35C825.174 29.3167 824.624 28.5333 823.857 28C823.091 27.4333 822.057 27.15 820.757 27.15C819.391 27.15 818.291 27.4667 817.457 28.1C816.657 28.7 816.074 29.5167 815.707 30.55C815.374 31.5833 815.207 32.7333 815.207 34C815.207 35.3 815.374 36.4833 815.707 37.55C816.074 38.5833 816.657 39.4 817.457 40C818.291 40.6 819.391 40.9 820.757 40.9ZM839.929 44C838.529 44 837.496 43.6333 836.829 42.9C836.162 42.1667 835.829 41.05 835.829 39.55V26.05H839.779V40.7H844.529V44H839.929ZM832.679 26.55V23.55C833.446 23.55 834.062 23.5 834.529 23.4C835.029 23.3 835.396 23.1 835.629 22.8C835.896 22.4667 836.079 21.95 836.179 21.25C836.279 20.5167 836.329 19.5333 836.329 18.3H839.779V23.55H844.479V26.55H832.679ZM860.307 44V23.55H864.157L864.507 29.45L864.457 33.85V44H860.307ZM864.457 34.8L864.307 30.3C864.34 29.5667 864.507 28.8167 864.807 28.05C865.107 27.25 865.557 26.5167 866.157 25.85C866.79 25.15 867.59 24.6 868.557 24.2C869.557 23.7667 870.757 23.55 872.157 23.55H873.007V28.15H872.107C870.607 28.15 869.357 28.3 868.357 28.6C867.357 28.8667 866.573 29.2833 866.007 29.85C865.44 30.4167 865.04 31.1167 864.807 31.95C864.573 32.7833 864.457 33.7333 864.457 34.8ZM876.622 44V23.55H880.772V44H876.622ZM878.722 20.7C877.756 20.7 877.089 20.45 876.722 19.95C876.389 19.45 876.222 18.8667 876.222 18.2C876.222 17.5667 876.389 17.0167 876.722 16.55C877.089 16.05 877.756 15.8 878.722 15.8C879.689 15.8 880.322 16.05 880.622 16.55C880.956 17.0167 881.122 17.5667 881.122 18.2C881.122 18.8667 880.956 19.45 880.622 19.95C880.322 20.45 879.689 20.7 878.722 20.7ZM893.702 44.5C892.769 44.5 891.852 44.3667 890.952 44.1C890.085 43.8667 889.269 43.5167 888.502 43.05C887.769 42.5833 887.102 42.05 886.502 41.45C885.935 40.85 885.485 40.2 885.152 39.5C884.852 38.7667 884.702 38 884.702 37.2H888.602C888.602 37.2333 888.619 37.4667 888.652 37.9C888.719 38.3333 888.902 38.8333 889.202 39.4C889.502 39.9333 889.985 40.4 890.652 40.8C891.352 41.2 892.335 41.4 893.602 41.4C894.569 41.4 895.385 41.2833 896.052 41.05C896.752 40.8167 897.285 40.5 897.652 40.1C898.019 39.6667 898.185 39.15 898.152 38.55C898.152 37.7167 897.835 37.0667 897.202 36.6C896.569 36.1333 895.752 35.7667 894.752 35.5C893.752 35.2 892.702 34.9167 891.602 34.65C890.502 34.3833 889.452 34.0333 888.452 33.6C887.452 33.1333 886.635 32.5167 886.002 31.75C885.402 30.95 885.119 29.8833 885.152 28.55C885.152 26.75 885.902 25.3667 887.402 24.4C888.935 23.4 890.869 22.9 893.202 22.9C894.335 22.9 895.435 23.0333 896.502 23.3C897.569 23.5667 898.519 23.9833 899.352 24.55C900.219 25.1167 900.902 25.8667 901.402 26.8C901.935 27.7333 902.185 28.8833 902.152 30.25H898.302C898.335 29.3833 898.185 28.6833 897.852 28.15C897.552 27.6167 897.135 27.2167 896.602 26.95C896.069 26.65 895.502 26.45 894.902 26.35C894.335 26.2167 893.785 26.15 893.252 26.15C891.919 26.15 890.869 26.4 890.102 26.9C889.335 27.3667 888.952 28 888.952 28.8C888.952 29.6333 889.269 30.2833 889.902 30.75C890.535 31.2167 891.352 31.5833 892.352 31.85C893.352 32.1167 894.419 32.3833 895.552 32.65C896.685 32.9167 897.752 33.2833 898.752 33.75C899.752 34.1833 900.569 34.8 901.202 35.6C901.835 36.4 902.152 37.4667 902.152 38.8C902.152 40.1 901.785 41.1667 901.052 42C900.352 42.8333 899.369 43.4667 898.102 43.9C896.835 44.3 895.369 44.5 893.702 44.5ZM910.161 44H905.961V15.85H910.161V44ZM915.311 30.45L925.411 44H920.411L912.261 33.35L915.311 30.45ZM909.911 38.95V34.2L920.061 23.45H925.261L909.911 38.95ZM929.034 53.95L925.834 50.6C925.834 50.6 926.167 50.4 926.834 50C927.5 49.6 928.317 48.9667 929.284 48.1C930.284 47.2667 931.267 46.2 932.234 44.9C933.2 43.6 934.017 42.05 934.684 40.25C935.35 38.4167 935.684 36.3333 935.684 34C935.684 31.7 935.367 29.65 934.734 27.85C934.134 26.05 933.35 24.5 932.384 23.2C931.45 21.8667 930.5 20.7667 929.534 19.9C928.567 19.0333 927.734 18.3833 927.034 17.95C926.334 17.4833 925.934 17.2 925.834 17.1L929.034 13.85C929.034 13.85 929.35 14.1167 929.984 14.65C930.617 15.1833 931.4 15.9833 932.334 17.05C933.3 18.1167 934.25 19.4667 935.184 21.1C936.117 22.7 936.9 24.5833 937.534 26.75C938.2 28.8833 938.534 31.3 938.534 34C938.534 36.6667 938.2 39.0667 937.534 41.2C936.9 43.3333 936.117 45.2 935.184 46.8C934.25 48.4 933.3 49.7167 932.334 50.75C931.4 51.8167 930.617 52.6167 929.984 53.15C929.35 53.6833 929.034 53.95 929.034 53.95Z" fill="black"/>
<path d="M111 185.318C109.288 185.318 107.83 184.852 106.625 183.92C105.42 182.981 104.5 181.621 103.864 179.841C103.227 178.053 102.909 175.894 102.909 173.364C102.909 170.848 103.227 168.701 103.864 166.92C104.508 165.133 105.432 163.769 106.636 162.83C107.848 161.883 109.303 161.409 111 161.409C112.697 161.409 114.148 161.883 115.352 162.83C116.564 163.769 117.489 165.133 118.125 166.92C118.769 168.701 119.091 170.848 119.091 173.364C119.091 175.894 118.773 178.053 118.136 179.841C117.5 181.621 116.58 182.981 115.375 183.92C114.17 184.852 112.712 185.318 111 185.318ZM111 182.818C112.697 182.818 114.015 182 114.955 180.364C115.894 178.727 116.364 176.394 116.364 173.364C116.364 171.348 116.148 169.633 115.716 168.216C115.292 166.799 114.678 165.72 113.875 164.977C113.08 164.235 112.121 163.864 111 163.864C109.318 163.864 108.004 164.693 107.057 166.352C106.11 168.004 105.636 170.341 105.636 173.364C105.636 175.379 105.848 177.091 106.273 178.5C106.697 179.909 107.307 180.981 108.102 181.716C108.905 182.451 109.871 182.818 111 182.818Z" fill="black"/>
<path d="M327.227 174.636V172.818L341.864 165.364V168.273L330.636 173.682L330.727 173.5V173.955L330.636 173.773L341.864 179.182V182.091L327.227 174.636ZM364.685 161.727V185H361.866V164.682H361.73L356.048 168.455V165.591L361.866 161.727H364.685Z" fill="black"/>
<path d="M553.227 174.636V172.818L567.864 165.364V168.273L556.636 173.682L556.727 173.5V173.955L556.636 173.773L567.864 179.182V182.091L553.227 174.636ZM590.685 161.727V185H587.866V164.682H587.73L582.048 168.455V165.591L587.866 161.727H590.685ZM604.969 185.318C603.257 185.318 601.798 184.852 600.594 183.92C599.389 182.981 598.469 181.621 597.832 179.841C597.196 178.053 596.878 175.894 596.878 173.364C596.878 170.848 597.196 168.701 597.832 166.92C598.476 165.133 599.401 163.769 600.605 162.83C601.817 161.883 603.272 161.409 604.969 161.409C606.666 161.409 608.116 161.883 609.321 162.83C610.533 163.769 611.457 165.133 612.094 166.92C612.738 168.701 613.06 170.848 613.06 173.364C613.06 175.894 612.741 178.053 612.105 179.841C611.469 181.621 610.548 182.981 609.344 183.92C608.139 184.852 606.681 185.318 604.969 185.318ZM604.969 182.818C606.666 182.818 607.984 182 608.923 180.364C609.863 178.727 610.332 176.394 610.332 173.364C610.332 171.348 610.116 169.633 609.685 168.216C609.26 166.799 608.647 165.72 607.844 164.977C607.048 164.235 606.09 163.864 604.969 163.864C603.287 163.864 601.973 164.693 601.026 166.352C600.079 168.004 599.605 170.341 599.605 173.364C599.605 175.379 599.817 177.091 600.241 178.5C600.666 179.909 601.276 180.981 602.071 181.716C602.874 182.451 603.84 182.818 604.969 182.818Z" fill="black"/>
<path d="M773.227 174.636V172.818L787.864 165.364V168.273L776.636 173.682L776.727 173.5V173.955L776.636 173.773L787.864 179.182V182.091L773.227 174.636ZM810.685 161.727V185H807.866V164.682H807.73L802.048 168.455V165.591L807.866 161.727H810.685ZM824.969 185.318C823.257 185.318 821.798 184.852 820.594 183.92C819.389 182.981 818.469 181.621 817.832 179.841C817.196 178.053 816.878 175.894 816.878 173.364C816.878 170.848 817.196 168.701 817.832 166.92C818.476 165.133 819.401 163.769 820.605 162.83C821.817 161.883 823.272 161.409 824.969 161.409C826.666 161.409 828.116 161.883 829.321 162.83C830.533 163.769 831.457 165.133 832.094 166.92C832.738 168.701 833.06 170.848 833.06 173.364C833.06 175.894 832.741 178.053 832.105 179.841C831.469 181.621 830.548 182.981 829.344 183.92C828.139 184.852 826.681 185.318 824.969 185.318ZM824.969 182.818C826.666 182.818 827.984 182 828.923 180.364C829.863 178.727 830.332 176.394 830.332 173.364C830.332 171.348 830.116 169.633 829.685 168.216C829.26 166.799 828.647 165.72 827.844 164.977C827.048 164.235 826.09 163.864 824.969 163.864C823.287 163.864 821.973 164.693 821.026 166.352C820.079 168.004 819.605 170.341 819.605 173.364C819.605 175.379 819.817 177.091 820.241 178.5C820.666 179.909 821.276 180.981 822.071 181.716C822.874 182.451 823.84 182.818 824.969 182.818ZM844.969 185.318C843.257 185.318 841.798 184.852 840.594 183.92C839.389 182.981 838.469 181.621 837.832 179.841C837.196 178.053 836.878 175.894 836.878 173.364C836.878 170.848 837.196 168.701 837.832 166.92C838.476 165.133 839.401 163.769 840.605 162.83C841.817 161.883 843.272 161.409 844.969 161.409C846.666 161.409 848.116 161.883 849.321 162.83C850.533 163.769 851.457 165.133 852.094 166.92C852.738 168.701 853.06 170.848 853.06 173.364C853.06 175.894 852.741 178.053 852.105 179.841C851.469 181.621 850.548 182.981 849.344 183.92C848.139 184.852 846.681 185.318 844.969 185.318ZM844.969 182.818C846.666 182.818 847.984 182 848.923 180.364C849.863 178.727 850.332 176.394 850.332 173.364C850.332 171.348 850.116 169.633 849.685 168.216C849.26 166.799 848.647 165.72 847.844 164.977C847.048 164.235 846.09 163.864 844.969 163.864C843.287 163.864 841.973 164.693 841.026 166.352C840.079 168.004 839.605 170.341 839.605 173.364C839.605 175.379 839.817 177.091 840.241 178.5C840.666 179.909 841.276 180.981 842.071 181.716C842.874 182.451 843.84 182.818 844.969 182.818Z" fill="black"/>
<path d="M1001.23 174.636V172.818L1015.86 165.364V168.273L1004.64 173.682L1004.73 173.5V173.955L1004.64 173.773L1015.86 179.182V182.091L1001.23 174.636ZM1038.68 161.727V185H1035.87V164.682H1035.73L1030.05 168.455V165.591L1035.87 161.727H1038.68ZM1052.97 185.318C1051.26 185.318 1049.8 184.852 1048.59 183.92C1047.39 182.981 1046.47 181.621 1045.83 179.841C1045.2 178.053 1044.88 175.894 1044.88 173.364C1044.88 170.848 1045.2 168.701 1045.83 166.92C1046.48 165.133 1047.4 163.769 1048.61 162.83C1049.82 161.883 1051.27 161.409 1052.97 161.409C1054.67 161.409 1056.12 161.883 1057.32 162.83C1058.53 163.769 1059.46 165.133 1060.09 166.92C1060.74 168.701 1061.06 170.848 1061.06 173.364C1061.06 175.894 1060.74 178.053 1060.11 179.841C1059.47 181.621 1058.55 182.981 1057.34 183.92C1056.14 184.852 1054.68 185.318 1052.97 185.318ZM1052.97 182.818C1054.67 182.818 1055.98 182 1056.92 180.364C1057.86 178.727 1058.33 176.394 1058.33 173.364C1058.33 171.348 1058.12 169.633 1057.68 168.216C1057.26 166.799 1056.65 165.72 1055.84 164.977C1055.05 164.235 1054.09 163.864 1052.97 163.864C1051.29 163.864 1049.97 164.693 1049.03 166.352C1048.08 168.004 1047.61 170.341 1047.61 173.364C1047.61 175.379 1047.82 177.091 1048.24 178.5C1048.67 179.909 1049.28 180.981 1050.07 181.716C1050.87 182.451 1051.84 182.818 1052.97 182.818ZM1072.97 185.318C1071.26 185.318 1069.8 184.852 1068.59 183.92C1067.39 182.981 1066.47 181.621 1065.83 179.841C1065.2 178.053 1064.88 175.894 1064.88 173.364C1064.88 170.848 1065.2 168.701 1065.83 166.92C1066.48 165.133 1067.4 163.769 1068.61 162.83C1069.82 161.883 1071.27 161.409 1072.97 161.409C1074.67 161.409 1076.12 161.883 1077.32 162.83C1078.53 163.769 1079.46 165.133 1080.09 166.92C1080.74 168.701 1081.06 170.848 1081.06 173.364C1081.06 175.894 1080.74 178.053 1080.11 179.841C1079.47 181.621 1078.55 182.981 1077.34 183.92C1076.14 184.852 1074.68 185.318 1072.97 185.318ZM1072.97 182.818C1074.67 182.818 1075.98 182 1076.92 180.364C1077.86 178.727 1078.33 176.394 1078.33 173.364C1078.33 171.348 1078.12 169.633 1077.68 168.216C1077.26 166.799 1076.65 165.72 1075.84 164.977C1075.05 164.235 1074.09 163.864 1072.97 163.864C1071.29 163.864 1069.97 164.693 1069.03 166.352C1068.08 168.004 1067.61 170.341 1067.61 173.364C1067.61 175.379 1067.82 177.091 1068.24 178.5C1068.67 179.909 1069.28 180.981 1070.07 181.716C1070.87 182.451 1071.84 182.818 1072.97 182.818ZM1092.97 185.318C1091.26 185.318 1089.8 184.852 1088.59 183.92C1087.39 182.981 1086.47 181.621 1085.83 179.841C1085.2 178.053 1084.88 175.894 1084.88 173.364C1084.88 170.848 1085.2 168.701 1085.83 166.92C1086.48 165.133 1087.4 163.769 1088.61 162.83C1089.82 161.883 1091.27 161.409 1092.97 161.409C1094.67 161.409 1096.12 161.883 1097.32 162.83C1098.53 163.769 1099.46 165.133 1100.09 166.92C1100.74 168.701 1101.06 170.848 1101.06 173.364C1101.06 175.894 1100.74 178.053 1100.11 179.841C1099.47 181.621 1098.55 182.981 1097.34 183.92C1096.14 184.852 1094.68 185.318 1092.97 185.318ZM1092.97 182.818C1094.67 182.818 1095.98 182 1096.92 180.364C1097.86 178.727 1098.33 176.394 1098.33 173.364C1098.33 171.348 1098.12 169.633 1097.68 168.216C1097.26 166.799 1096.65 165.72 1095.84 164.977C1095.05 164.235 1094.09 163.864 1092.97 163.864C1091.29 163.864 1089.97 164.693 1089.03 166.352C1088.08 168.004 1087.61 170.341 1087.61 173.364C1087.61 175.379 1087.82 177.091 1088.24 178.5C1088.67 179.909 1089.28 180.981 1090.07 181.716C1090.87 182.451 1091.84 182.818 1092.97 182.818Z" fill="black"/>
</svg>
