<svg width="1009" height="3410" viewBox="0 0 1009 3410" fill="none" xmlns="http://www.w3.org/2000/svg">
<path d="M1008 5.53642C740.999 -19.9628 595 93.0356 726.5 325.037C779.406 418.376 686.167 492.037 612 557.536C494.333 627.37 684.9 696.035 726.5 806.035C778.5 943.535 725.5 1054.04 509.5 1180.04C264.59 1322.9 481 1565.54 481 1650.54C481 1821.04 412.471 1752.46 502 1988.54C591.5 2224.54 383.5 2142.53 257 2357.03C130.5 2571.53 385.168 2536.5 482 2588.54C555.5 2628.04 564.667 2707.54 544 2769.54C513.958 2859.66 286 2766.04 243.5 2847.54C178.577 2972.04 257 3052.04 257 3181.54C257 3293.21 13.8333 3329.7 2.00002 3409.04" stroke="#1752E2" stroke-width="4"/>
</svg>
