<svg width="864" height="3449" viewBox="0 0 864 3449" fill="none" xmlns="http://www.w3.org/2000/svg">
<path d="M861.561 2C777.586 40.2607 699.245 84.2569 618.869 128.252C570.261 154.859 526.328 192.737 501.121 242.729C452.872 338.424 480.496 431.305 561.303 499.486C664.902 586.897 822.205 694.532 702.601 836.703C543.534 1025.78 334.133 1155.6 128.579 1288.07C61.7825 1331.12 2 1359.86 2 1444.09C2 1569.9 132.94 1565.24 215.255 1616.46C265.477 1647.71 315.443 1718.54 331.695 1775.42C360.574 1876.49 331.695 1983.79 331.695 2086.14C331.695 2152.69 335.631 2198.3 376.177 2253.93C420.545 2314.81 475.371 2370.33 487.384 2447.56C504.517 2557.7 373.447 2593.78 297.679 2638.25C270.731 2654.07 235.677 2679.33 210.375 2697.67C162.767 2732.19 131.836 2772.67 109.282 2814.87C82.9183 2864.2 61.1942 2921.25 56.295 2977.1C52.496 3020.41 52.7143 3146 83 3199C109.282 3244.99 146.299 3280 211.003 3334.27C257.786 3373.51 305.411 3412.91 355.244 3446.13" stroke="#1752E2" stroke-width="4" stroke-linecap="round"/>
</svg>
