<svg width="487" height="2975" viewBox="0 0 487 2975" fill="none" xmlns="http://www.w3.org/2000/svg">
<path d="M485.5 0C485.5 127.5 333.203 321.45 219.764 383C99.3299 448.346 211.5 568.5 219.764 654.691C228.029 740.881 148.303 916.076 355.191 920.414C520.701 923.885 458.052 1054.9 471.045 1141.13C496.704 1311.41 350.71 1380.49 251.164 1398.72C126.731 1421.49 225.178 1519.65 225.178 1560.86C225.178 1602.08 51.7719 1676.91 71.2613 1749.58C90.6166 1821.75 301.288 1696.55 275.797 2008.75C275.455 2012.94 274.251 2017.33 272.67 2021.23C227.629 2132.15 378.066 2170.12 295.721 2212.15C118.318 2302.72 -39.5964 2424.19 11.8756 2507.7C63.3477 2591.22 238 2507.7 316 2605.5C364.31 2666.07 281.493 2760.76 238 2807C190.5 2857.5 169.5 2918.5 253 2973" stroke="#1752E2" stroke-width="3"/>
</svg>
