<svg width="1380" height="1770" viewBox="0 0 1380 1770" fill="none" xmlns="http://www.w3.org/2000/svg">
<path d="M2.55469 2.48047C29.4198 63.1436 54.8286 121.043 112.58 157.542C159.555 187.23 221.156 210.747 275.623 221.961C328.817 232.913 386.394 229.009 440.376 228.232C506.608 227.279 563.787 198.954 626.507 181.771C754.078 146.819 900.208 111.197 1030.69 154.692C1162.58 198.653 1285.48 296.969 1322.86 434.031C1363.93 584.607 1280.3 721.846 1219.67 853.039C1203.82 887.354 1192.46 923.804 1192.88 961.925C1193.39 1007.7 1216.09 1047.93 1226.23 1091.62C1241.55 1157.6 1237.49 1211.38 1213.4 1274.61C1187.83 1341.74 1156.8 1412.15 1152.41 1484.69C1148.25 1553.3 1181.71 1604.73 1225.09 1655.14C1253.28 1687.9 1284.26 1718.33 1322.29 1739.51C1340.56 1749.69 1360.77 1756.24 1377.59 1767.45" stroke="#1752E2" stroke-width="4" stroke-linecap="round"/>
</svg>
