<?xml version="1.0" encoding="utf-8"?>
<!-- Generator: Adobe Illustrator 28.3.0, SVG Export Plug-In . SVG Version: 6.00 Build 0)  -->
<svg version="1.1" id="Calque_1" xmlns="http://www.w3.org/2000/svg" xmlns:xlink="http://www.w3.org/1999/xlink" x="0px" y="0px"
	 viewBox="0 0 100 95.6" style="enable-background:new 0 0 100 95.6;" xml:space="preserve">
<style type="text/css">
	.st0{fill:#FFFFFF;}
</style>
<image style="overflow:visible;enable-background:new    ;" width="130" height="129" xlink:href="AE8EBB277E206D29.png"  transform="matrix(1 0 0 1 -14 -19)">
</image>
<path class="st0" d="M51.2,80.4c-0.1,0-0.3,0-0.5-0.1c-5.8-3.2-11.4-7.5-16.6-12.8c-6-6-9.4-14.5-9.4-23.4V25.3
	c0-0.5,0.3-0.8,0.7-0.9c8.9-1.9,17.4-4.9,25.2-9.1c0.1-0.1,0.3-0.1,0.5-0.1s0.3,0,0.4,0.1c7.8,4.2,16.3,7.3,25.2,9.1
	c0.4,0.1,0.7,0.5,0.7,0.9v18.8c0,8.8-3.4,17.4-9.4,23.4c-5.2,5.3-10.8,9.6-16.6,12.8C51.5,80.4,51.3,80.4,51.2,80.4L51.2,80.4z
	 M50.9,17.3C43.4,21.2,35.4,24.1,27,26l-0.4,0.1v18.1c0,8.3,3.2,16.4,8.8,22.1c4.9,4.9,10.1,9,15.5,12l0.3,0.2l0.3-0.2
	c5.4-3.1,10.6-7.1,15.5-12c5.6-5.7,8.8-13.7,8.8-22.1v-18L75.3,26c-8.4-1.9-16.4-4.8-23.9-8.7l-0.3-0.1
	C51.1,17.2,50.9,17.3,50.9,17.3z"/>
<path class="st0" d="M59.6,39.3c-1.2-0.3-2.3-0.5-3.3-0.6c0,0,0,0,0,0l2.1-0.5c0.2-0.1,0.4-0.3,0.5-0.5l1.8-5.4c0,0,0,0,0,0l6.4-2.7
	c0.3-0.1,0.5-0.5,0.4-0.9c-0.1-0.3-0.6-0.5-0.9-0.4L60,31.1c-0.1,0-0.2,0.1-0.2,0.1c-0.1,0.1-0.2,0.2-0.2,0.3l-1.8,5.3c0,0,0,0,0,0
	l-4.9,1.2c0,0,0-0.1,0-0.1c0-0.8-0.5-1.4-1.1-1.7c0,0,0,0,0,0v-7.4c0-0.3-0.3-0.6-0.6-0.6l0,0c-0.3,0-0.6,0.3-0.6,0.6v7.4
	c0,0,0,0,0,0c-0.7,0.3-1.1,1-1.1,1.7c0,0,0,0.1,0,0.1l-4.9-1.2c0,0,0,0,0,0l-1.8-5.3c0-0.1-0.1-0.2-0.2-0.3
	c-0.1-0.1-0.2-0.1-0.2-0.2l-6.6-2.8c-0.3-0.1-0.8,0-0.9,0.4c-0.2,0.3,0,0.8,0.4,0.9l6.4,2.7c0,0,0,0,0,0l1.8,5.4
	c0.1,0.2,0.2,0.4,0.5,0.5l2.1,0.5c0,0,0,0,0,0c-1,0.1-2.2,0.3-3.3,0.6c-1.5,0.3-9,2.2-8.5,4.5c0.3,1.2,2,1.3,3.3,1.3
	c1.7,0,4-0.3,6.3-0.8c0.5-0.1,1.7-0.4,3.1-0.8c0,0,0,0,0,0l-5.2,3.7c-0.2,0.2-0.4,0.5-0.5,0.8l0,0l0,0l0.2,4c0,0,0,0,0,0l-4.9,4.2
	c-0.1,0.1-0.2,0.3-0.2,0.5c0,0.2,0,0.4,0.2,0.5c0.2,0.3,0.7,0.3,1,0l5.1-4.4l0.2-0.2c0.1-0.1,0.1-0.2,0.1-0.4l-0.2-4c0,0,0,0,0,0
	l6-4.2c0,0,0,0,0,0c0.1,0.3,0.2,0.5,0.4,0.8v0l-3.3,5.9c-0.2,0.1-0.2,0.3-0.2,0.5l0.1,5.3c0,0,0,0,0,0l-2.8,4.9
	c-0.2,0.3-0.1,0.7,0.3,0.9c0.1,0.1,0.2,0.1,0.3,0.1c0.2,0,0.5-0.1,0.6-0.3l2.8-5l0-0.1c0,0,0,0,0-0.1c0,0,0-0.1,0-0.1v0l-0.1-5.3
	c0,0,0,0,0,0l3-5.4c0,0,0,0,0,0c-0.2,1.3-0.3,2.9-0.3,4.6c0,0.7,0,7.1,1.6,7.1c0,0,0,0,0,0h0c1.6,0,1.6-6.4,1.6-7.1
	c0-1.7-0.1-3.4-0.3-4.6c0,0,0,0,0,0l3,5.4c0,0,0,0,0,0l-0.1,5.2v0.1v0c0,0,0,0.1,0,0.1c0,0,0,0,0,0.1l2.9,5.1
	c0.2,0.3,0.6,0.4,0.9,0.3c0.2-0.1,0.3-0.2,0.3-0.4s0-0.4-0.1-0.5l-2.8-4.9c0,0,0,0,0,0l0.1-5.3c0-0.2-0.1-0.4-0.2-0.5l-3.3-5.9v0
	c0.2-0.2,0.3-0.5,0.4-0.8c0,0,0,0,0,0l6,4.2c0,0,0,0,0,0l-0.2,4c0,0.1,0,0.2,0.1,0.3l0,0.1l0.3-0.2l-0.3,0.2l5.2,4.5
	c0.3,0.2,0.7,0.2,1,0c0.1-0.1,0.2-0.3,0.2-0.5c0-0.2-0.1-0.3-0.2-0.5L60.9,52c0,0,0,0,0,0l0.2-4v0c0-0.2-0.1-0.5-0.3-0.6l-5.4-3.8
	c0,0,0,0,0,0c1.4,0.4,2.6,0.7,3.1,0.8c2.3,0.5,4.6,0.8,6.3,0.8c1.3,0,3.1-0.1,3.3-1.3C68.6,41.5,61.1,39.7,59.6,39.3L59.6,39.3z
	 M48.7,41.4c-1,0.4-2.7,1.1-5.2,1.6c-2.2,0.5-4.4,0.8-6,0.8c-1.2,0-1.7-0.2-2-0.2c0.4-0.5,2.6-1.8,7.4-2.9c2.2-0.5,4.4-0.8,6-0.8
	c0.4,0,0.7,0,0.9,0C49.3,40.2,48.9,40.8,48.7,41.4z M64.8,43.8c-1.6,0-3.8-0.3-6-0.8c-2.5-0.5-4.2-1.2-5.2-1.6
	c-0.2-0.6-0.7-1.2-1.2-1.5c0.2,0,0.5,0,0.9,0c1.6,0,3.8,0.3,6,0.8c4.8,1.1,7,2.4,7.4,2.9C66.5,43.6,66,43.8,64.8,43.8z"/>
</svg>
