<?xml version="1.0" encoding="utf-8"?>
<!-- Generator: Adobe Illustrator 28.3.0, SVG Export Plug-In . SVG Version: 6.00 Build 0)  -->
<svg version="1.1" id="Calque_1" xmlns="http://www.w3.org/2000/svg" xmlns:xlink="http://www.w3.org/1999/xlink" x="0px" y="0px"
	 viewBox="0 0 100 95.6" style="enable-background:new 0 0 100 95.6;" xml:space="preserve">
<style type="text/css">
	.st0{filter:url(#Adobe_OpacityMaskFilter);}
	.st1{mask:url(#SVGID_1_);}
	.st2{fill:#001AFF;}
	.st3{fill:#FFFFFF;}
</style>
<g>
	<g>
		<defs>
			<filter id="Adobe_OpacityMaskFilter" filterUnits="userSpaceOnUse" x="9.2" y="4.1" width="83.3" height="83.3">
				<feFlood  style="flood-color:white;flood-opacity:1" result="back"/>
				<feBlend  in="SourceGraphic" in2="back" mode="normal"/>
			</filter>
		</defs>
		<mask maskUnits="userSpaceOnUse" x="9.2" y="4.1" width="83.3" height="83.3" id="SVGID_1_">
			<g class="st0">
				
					<image style="overflow:visible;" width="88" height="88" xlink:href="BB4E721B219D32A2.jpg"  transform="matrix(1 0 0 1 7 1.6)">
				</image>
			</g>
		</mask>
		<g class="st1">
			<circle class="st2" cx="50.9" cy="45.8" r="41.7"/>
		</g>
	</g>
	<path class="st3" d="M58.4,40.3c-1-0.3-2.1-0.5-3-0.5l0,0l1.9-0.5c0.2-0.1,0.4-0.3,0.5-0.5l1.6-4.9l0,0l5.8-2.5
		c0.3-0.1,0.5-0.5,0.4-0.8c-0.1-0.3-0.5-0.5-0.8-0.4l-6,2.5c-0.1,0-0.2,0.1-0.2,0.1c-0.1,0.1-0.2,0.2-0.2,0.3L56.8,38l0,0l-4.5,1.1
		V39c0-0.7-0.5-1.3-1-1.5l0,0v-6.7c0-0.3-0.3-0.5-0.5-0.5l0,0c-0.3,0-0.5,0.3-0.5,0.5v6.7l0,0c-0.6,0.3-1,0.9-1,1.5v0.1L44.8,38l0,0
		l-1.6-4.8c0-0.1-0.1-0.2-0.2-0.3c-0.1-0.1-0.1-0.1-0.2-0.2l-6-2.5c-0.3-0.1-0.6,0-0.8,0.4c-0.1,0.3,0,0.6,0.4,0.8l5.8,2.5l0,0
		l1.6,4.9c0.1,0.2,0.2,0.4,0.5,0.5l1.9,0.5l0,0c-0.9,0.1-2,0.3-3,0.5c-1.4,0.3-8.2,2-7.7,4.2c0.3,1.1,1.8,1.2,3.1,1.2
		c1.5,0,3.6-0.3,5.7-0.7c0.4-0.1,1.5-0.4,2.8-0.7l0,0l-4.7,3.4c-0.2,0.2-0.4,0.5-0.5,0.7l0,0l0,0l0.2,3.6l0,0l-4.5,3.8
		c-0.1,0.1-0.2,0.3-0.2,0.5c0,0.2,0.1,0.4,0.2,0.5c0.2,0.3,0.6,0.3,0.9,0.1l4.6-4l0.1-0.2c0.1-0.1,0.1-0.2,0.1-0.4l-0.2-3.6l0,0
		l5.5-3.8l0,0c0.1,0.3,0.2,0.5,0.4,0.7l0,0l-3,5.4c-0.2,0.1-0.2,0.3-0.2,0.5l0.1,4.8l0,0l-2.5,4.5c-0.2,0.3-0.1,0.6,0.3,0.8
		c0.1,0.1,0.2,0.1,0.3,0.1c0.2,0,0.5-0.1,0.5-0.3l2.5-4.6v-0.1c0,0,0,0,0-0.1v-0.1l0,0l-0.1-4.8l0,0l2.7-4.9l0,0
		c-0.2,1.2-0.3,2.6-0.3,4.2c0,0.6,0,6.5,1.5,6.5l0,0l0,0c1.5,0,1.5-5.8,1.5-6.5c0-1.5-0.1-3.1-0.3-4.2l0,0l2.7,4.9l0,0l-0.1,4.7v0.1
		l0,0v0.1v0.1l2.6,4.6c0.2,0.3,0.5,0.4,0.8,0.3c0.2-0.1,0.3-0.2,0.3-0.4c0-0.2,0-0.4-0.1-0.5l-2.5-4.5l0,0l0.1-4.8
		c0-0.2-0.1-0.4-0.2-0.5l-3-5.4l0,0c0.2-0.2,0.3-0.5,0.4-0.7l0,0l5.5,3.8l0,0l-0.2,3.6c0,0.1,0,0.3,0.1,0.3v0.1l0.3-0.2l-0.3,0.2
		l4.7,4.1c0.3,0.2,0.6,0.2,0.9,0c0.1-0.1,0.2-0.3,0.2-0.5c0-0.2-0.1-0.3-0.2-0.5l-4.3-3.9l0,0l0.2-3.6l0,0c0-0.2-0.1-0.5-0.3-0.5
		l-4.9-3.5l0,0c1.3,0.4,2.4,0.6,2.8,0.7c2.1,0.5,4.2,0.7,5.7,0.7c1.2,0,2.8-0.1,3.1-1.2C66.7,42.3,59.9,40.6,58.4,40.3z M48.5,42.2
		c-0.9,0.4-2.5,1-4.7,1.5c-2,0.5-4,0.7-5.5,0.7c-1.1,0-1.5-0.2-1.7-0.2c0.4-0.5,2.4-1.6,6.7-2.6c2-0.5,4-0.7,5.5-0.7
		c0.4,0,0.6,0,0.8,0C49.1,41.1,48.7,41.6,48.5,42.2z M63.2,44.3c-1.5,0-3.5-0.3-5.5-0.7c-2.3-0.5-3.8-1.1-4.7-1.5
		c-0.3-0.5-0.6-1.1-1.1-1.4c0.2,0,0.5,0,0.8,0c1.5,0,3.5,0.3,5.5,0.7c4.4,1,6.4,2.2,6.7,2.6C64.7,44.2,64.3,44.3,63.2,44.3z"/>
	<path class="st3" d="M51,72.8c-20.9,0-28.3-15.2-28.3-28.3c0-15.6,12.7-28.3,28.3-28.3s28.3,12.7,28.3,28.3S66.6,72.8,51,72.8z
		 M51,17.8c-14.8,0-26.8,12-26.8,26.8c0,12.4,7,26.8,26.8,26.8c14.8,0,26.8-12,26.8-26.8S65.8,17.8,51,17.8z"/>
</g>
</svg>
