<?xml version="1.0" encoding="utf-8"?>
<!-- Generator: Adobe Illustrator 28.3.0, SVG Export Plug-In . SVG Version: 6.00 Build 0)  -->
<svg version="1.1" xmlns="http://www.w3.org/2000/svg" xmlns:xlink="http://www.w3.org/1999/xlink" x="0px" y="0px"
	 viewBox="0 0 158 423" style="enable-background:new 0 0 158 423;" xml:space="preserve">
<style type="text/css">
	.st0{fill-rule:evenodd;clip-rule:evenodd;fill:#001AFF;stroke:#FFFFFF;stroke-width:3;}
	.st1{fill:none;stroke:#FFFFFF;stroke-width:3;stroke-linejoin:round;}
	.st2{fill-rule:evenodd;clip-rule:evenodd;fill:#97BAFF;stroke:#1752E2;stroke-width:3;}
	.st3{fill:none;stroke:#1752E2;stroke-width:3;stroke-linejoin:round;}
	.st4{filter:url(#Adobe_OpacityMaskFilter);}
	.st5{mask:url(#SVGID_1_);}
	.st6{opacity:0.9;fill:#FFFFFF;}
	.st7{fill:#001AFF;}
	.st8{fill-rule:evenodd;clip-rule:evenodd;fill:#FFFFFF;stroke:#001AFF;stroke-width:3;}
</style>
<g id="sick">
	<path class="st0" d="M55.8,421h-1.7c-10.7,0-19.5-9.4-19.5-20.9c0-82.8,0-165.6,0-248.4c0-1.5-1.1-2.8-2.4-2.8
		c-1.3,0-2.4,1.2-2.4,2.8v87.5c0,6.9-5.9,9.8-11.9,9.8C9.2,249.1,2,241.4,2,232v-88.6c0-30.3,22.1-55.1,49.2-55.1h55.7
		c27,0,49.2,24.8,49.2,55.1V232c0,9.4-6.9,17.1-16.5,17.1c-5.9,0-11.4-3.2-11.4-9.8v-87.6c0-1.5-1.1-2.8-2.4-2.8
		c-1.3,0-2.4,1.2-2.4,2.8c0,82.8,0,165.6,0,248.4c0,11.5-8.8,20.9-19.5,20.9h-1.7c-11.5,0-20.8-9.4-20.8-20.9c0-44.2,0-88.3,0-132.5
		c0-1.4-1-2.5-2.3-2.5c-1.3,0-2.3,1.1-2.3,2.5c0,44.2,0,88.3,0,132.5C76.6,411.6,67.3,421,55.8,421z M79,2
		c19.2,0,34.7,15.6,34.7,34.8c0,19.2-15.5,34.8-34.7,34.8c-19.2,0-34.7-15.6-34.7-34.8C44.3,17.6,59.8,2,79,2z"/>
	<path class="st1" d="M35.5,229c-0.5,3,6.5,9.3,38.5,10.5c32,1.2,46.3-4.2,49.5-7"/>
	<path class="st1" d="M93,12c-2.7,4.3-10.1,12.9-18.5,12.5S60.7,21.3,59,20c5.8,0,17.6-2.2,18-11"/>
	<path class="st1" d="M2.1,153c-0.9,3.4,3.1,10,26.9,8.9"/>
	<path class="st1" d="M155.9,153c0.9,3.4-3.1,10-26.9,8.9"/>
	<path class="st1" d="M53.5,88.5c0,8.8,5.6,26.5,28,26.5s27-17.7,26.5-26.5"/>
</g>
<g id="changing">
	<path class="st2" d="M55.8,421h-1.7c-10.7,0-19.5-9.4-19.5-20.9c0-82.8,0-165.6,0-248.4c0-1.5-1.1-2.8-2.4-2.8
		c-1.3,0-2.4,1.2-2.4,2.8v87.5c0,6.9-5.9,9.8-11.9,9.8C9.2,249.1,2,241.4,2,232v-88.6c0-30.3,22.1-55.1,49.2-55.1h55.7
		c27,0,49.2,24.8,49.2,55.1V232c0,9.4-6.9,17.1-16.5,17.1c-5.9,0-11.4-3.2-11.4-9.8v-87.6c0-1.5-1.1-2.8-2.4-2.8
		c-1.3,0-2.4,1.2-2.4,2.8c0,82.8,0,165.6,0,248.4c0,11.5-8.8,20.9-19.5,20.9h-1.7c-11.5,0-20.8-9.4-20.8-20.9c0-44.2,0-88.3,0-132.5
		c0-1.4-1-2.5-2.3-2.5c-1.3,0-2.3,1.1-2.3,2.5c0,44.2,0,88.3,0,132.5C76.6,411.6,67.3,421,55.8,421z M79,2
		c19.2,0,34.7,15.6,34.7,34.8c0,19.2-15.5,34.8-34.7,34.8c-19.2,0-34.7-15.6-34.7-34.8C44.3,17.6,59.8,2,79,2z"/>
	<path class="st3" d="M35.5,229c-0.5,3,6.5,9.3,38.5,10.5c32,1.2,46.3-4.2,49.5-7"/>
	<path class="st3" d="M93,12c-2.7,4.3-10.1,12.9-18.5,12.5S60.7,21.3,59,20c5.8,0,17.6-2.2,18-11"/>
	<path class="st3" d="M2.1,153c-0.9,3.4,3.1,10,26.9,8.9"/>
	<path class="st3" d="M155.9,153c0.9,3.4-3.1,10-26.9,8.9"/>
	<path class="st3" d="M53.5,88.5c0,8.8,5.6,26.5,28,26.5s27-17.7,26.5-26.5"/>
	<g>
		<defs>
			<filter id="Adobe_OpacityMaskFilter" filterUnits="userSpaceOnUse" x="29.8" y="114.4" width="102" height="102">
				<feFlood  style="flood-color:white;flood-opacity:1" result="back"/>
				<feBlend  in="SourceGraphic" in2="back" mode="normal"/>
			</filter>
		</defs>
		<mask maskUnits="userSpaceOnUse" x="29.8" y="114.4" width="102" height="102" id="SVGID_1_">
			<g class="st4">
				
					<image style="overflow:visible;" width="107" height="107" xlink:href="BB689F6F21FC3424.jpg"  transform="matrix(1 0 0 1 27 112)">
				</image>
			</g>
		</mask>
		<g class="st5">
			<g>
				<g>
					<circle class="st6" cx="80.8" cy="165.4" r="51"/>
				</g>
			</g>
		</g>
	</g>
	<path class="st7" d="M79.9,183.2c11,0,20-8.8,20-19.6c0-10.8-9-19.6-20-19.6s-20,8.8-20,19.6C59.9,174.4,68.8,183.2,79.9,183.2z
		 M79.9,145.3c10.3,0,18.7,8.2,18.7,18.3s-8.4,18.3-18.7,18.3s-18.7-8.2-18.7-18.3S69.6,145.3,79.9,145.3z"/>
	<path class="st7" d="M79.8,178.2c0.4,0.2,0.8,0.4,1.2,0.4c0.1,0,0.3,0,0.4,0c0.6-0.1,1.1-0.4,1.5-1c0.7-1,0.4-2.4-0.6-3.2
		c-0.1,0-0.1-0.1-0.2-0.1c-6-1.8-11.4-5.7-15.2-10.9c0-0.1-0.1-0.1-0.1-0.2c-0.5-0.4-1.1-0.5-1.7-0.4c-0.6,0.1-1.1,0.4-1.5,1
		c-0.7,1-0.5,2.3,0.5,3.1C68,172.3,73.5,176.3,79.8,178.2L79.8,178.2z M66.5,166.8c-0.2-0.3-0.6-0.3-0.9-0.1l-0.1,0
		c-0.2-0.2-0.3-0.4-0.5-0.6c0-0.1-0.1-0.1-0.2-0.2c-0.4-0.3-0.5-0.9-0.2-1.4c0.1-0.2,0.4-0.3,0.6-0.4c0,0,0.1,0,0.1,0
		c0.1,0,0.3,0,0.4,0.1c0.1,0.1,0.2,0.2,0.2,0.3c-0.3,0.2-0.4,0.6-0.2,0.9c0.2,0.3,0.6,0.4,0.9,0.2l0.1-0.1c0.4,0.5,0.9,1,1.3,1.5
		l-0.1,0.1c-0.3,0.2-0.4,0.6-0.2,0.9c0.2,0.3,0.6,0.4,0.9,0.2l0.4-0.2c0.5,0.5,1.1,1,1.6,1.5l-0.2,0.2c-0.3,0.3-0.3,0.7,0,0.9
		c0.3,0.3,0.7,0.3,0.9,0l0.3-0.3c0.8,0.6,1.6,1.2,2.4,1.7l-0.3,0.3c-0.3,0.3-0.3,0.7,0,0.9c0.3,0.3,0.7,0.3,0.9,0l0.5-0.5
		c0.7,0.4,1.4,0.8,2.1,1.1l-0.4,0.4c-0.2,0.3-0.2,0.7,0.1,0.9c0.3,0.2,0.7,0.2,0.9-0.1l0.6-0.7c0.9,0.4,1.9,0.7,2.8,1
		c0.4,0.3,0.4,0.9,0.2,1.3c-0.1,0.2-0.4,0.3-0.6,0.4c-0.2,0-0.5,0-0.7-0.2c-0.1,0-0.1-0.1-0.2-0.1c0,0-0.1,0-0.1,0l0.3-0.8l-1.2-0.5
		l-0.3,0.8c-1.1-0.4-2.1-0.8-3.1-1.3l0.2-0.3c0.2-0.3,0.2-0.7-0.1-0.9c-0.3-0.2-0.7-0.2-0.9,0.1l-0.3,0.5c-0.8-0.4-1.5-0.9-2.3-1.4
		l0.2-0.2c0.3-0.3,0.3-0.7,0-0.9c-0.3-0.3-0.7-0.3-0.9,0l-0.4,0.3c-0.8-0.6-1.5-1.2-2.2-1.8l0.2-0.2c0.3-0.3,0.3-0.7,0-0.9
		c-0.3-0.3-0.7-0.3-0.9,0l-0.2,0.2c-0.6-0.6-1.2-1.2-1.7-1.9l0,0C66.7,167.6,66.7,167.1,66.5,166.8L66.5,166.8z"/>
	<path class="st7" d="M70.1,157.9c0.2,0,0.3,0.1,0.5,0.1c0.5,0,1-0.2,1.4-0.5c3.2-2.6,6.8-4.4,10.7-5.5c0.6-0.2,1.1-0.6,1.4-1.2
		c0.3-0.6,0.3-1.4,0-2c-0.5-1-1.5-1.5-2.6-1.2c-4.5,1.2-8.6,3.3-12.3,6.3c-0.8,0.7-1.1,1.8-0.7,2.8
		C68.9,157.3,69.5,157.8,70.1,157.9L70.1,157.9z M70.1,154.9c0.2-0.1,0.3-0.2,0.5-0.4l0.3,0.4c0.2,0.3,0.6,0.3,0.9,0.1
		c0.3-0.2,0.4-0.6,0.1-0.9l-0.3-0.5c0.7-0.5,1.5-1,2.2-1.5l0.4,0.6c0.2,0.3,0.6,0.4,0.9,0.2c0.3-0.2,0.4-0.6,0.2-0.9l-0.4-0.6
		c0.8-0.4,1.6-0.8,2.4-1.2l0.2,0.4c0.2,0.3,0.6,0.5,0.9,0.3c0.3-0.2,0.5-0.6,0.3-0.9l-0.2-0.3c0.7-0.3,1.4-0.5,2.1-0.7l0.2,0.4
		c0.2,0.3,0.6,0.5,0.9,0.3c0.3-0.2,0.5-0.6,0.3-0.9l-0.1-0.1c0.4,0,0.7,0.2,0.9,0.5c0.1,0.3,0.1,0.6,0,0.9c-0.1,0.3-0.3,0.4-0.6,0.5
		c-0.5,0.1-0.9,0.3-1.4,0.4l-0.2-0.4c-0.2-0.3-0.6-0.5-0.9-0.3c-0.3,0.2-0.5,0.6-0.3,0.9l0.1,0.3c-0.6,0.2-1.3,0.5-1.9,0.8l-0.4-0.5
		c-0.2-0.3-0.6-0.3-0.9-0.1c-0.3,0.2-0.4,0.6-0.1,0.9l0.2,0.3c-0.8,0.4-1.5,0.8-2.2,1.2l-0.3-0.3c-0.2-0.3-0.6-0.3-0.9-0.1
		c-0.3,0.2-0.4,0.6-0.1,0.9l0.2,0.3c-0.7,0.5-1.4,1-2.1,1.5c-0.2,0.2-0.5,0.2-0.7,0.2c-0.3-0.1-0.5-0.3-0.6-0.5
		C69.6,155.7,69.7,155.2,70.1,154.9L70.1,154.9z"/>
	<path class="st7" d="M86.2,169.8c-0.3,0.5-0.4,1.2-0.2,1.8c0.2,0.7,0.7,1.2,1.4,1.5c0.3,0.1,0.6,0.2,0.9,0.2c0.7,0,1.4-0.3,1.8-1
		c2.5-3.8,4.2-8.1,4.9-12.7c0.2-1-0.4-2.1-1.4-2.5c-0.7-0.3-1.4-0.3-2,0.1c-0.6,0.3-1,0.9-1.1,1.5C89.9,162.8,88.4,166.5,86.2,169.8
		L86.2,169.8z M91.4,162.8c0.4,0.1,0.7-0.2,0.8-0.5c0.1-0.4-0.2-0.7-0.5-0.8l-0.3-0.1c0.2-0.8,0.4-1.7,0.5-2.5
		c0-0.3,0.2-0.5,0.4-0.6c0.1-0.1,0.3-0.1,0.4-0.1c0.1,0,0.3,0,0.4,0.1c0.4,0.2,0.7,0.7,0.6,1.1c0,0.2-0.1,0.4-0.1,0.6L93,160
		c-0.4-0.1-0.7,0.2-0.8,0.5c-0.1,0.4,0.2,0.7,0.5,0.8l0.6,0.1c-0.2,0.9-0.4,1.7-0.7,2.5l-0.7-0.2c-0.4-0.1-0.7,0.1-0.8,0.4
		c-0.1,0.3,0.1,0.7,0.4,0.8l0.7,0.2c-0.3,0.8-0.6,1.6-1,2.4l-0.4-0.2c-0.3-0.1-0.7,0-0.9,0.4c-0.1,0.3,0,0.7,0.4,0.8l0.4,0.1
		c-0.3,0.7-0.7,1.3-1.1,1.9l-0.4-0.1c-0.3-0.1-0.7,0-0.9,0.4c-0.1,0.3,0,0.7,0.4,0.8l0.1,0.1c-0.2,0.3-0.6,0.3-1,0.2
		c-0.3-0.1-0.5-0.4-0.6-0.7c-0.1-0.3,0-0.5,0.1-0.8c0.3-0.4,0.5-0.8,0.8-1.2l0.4,0.2c0.3,0.1,0.7,0,0.9-0.4c0.1-0.3,0-0.7-0.4-0.8
		l-0.3-0.1c0.3-0.6,0.6-1.2,0.9-1.8l0.6,0.1c0.4,0.1,0.7-0.2,0.8-0.5c0.1-0.4-0.2-0.7-0.5-0.8l-0.3-0.1c0.3-0.8,0.6-1.6,0.8-2.4
		L91.4,162.8L91.4,162.8z"/>
	<path class="st7" d="M83.6,155.9c-1.8,2.7-4,5.1-6.7,6.9c-0.5,0.3-0.8,0.8-0.8,1.4c-0.1,0.6,0.2,1.2,0.6,1.6
		c0.4,0.4,0.9,0.6,1.4,0.6c0.4,0,0.8-0.1,1.1-0.3c3.1-2.1,5.8-4.8,7.8-8c0.5-0.8,0.4-1.8-0.3-2.4c-0.4-0.4-1-0.6-1.6-0.5
		C84.4,155.2,83.9,155.5,83.6,155.9L83.6,155.9z M85.1,156.4C85.1,156.4,85.2,156.4,85.1,156.4c0.2,0,0.4,0.1,0.5,0.2
		c0.2,0.2,0.3,0.6,0.1,0.8c-0.1,0.1-0.1,0.2-0.2,0.3l-0.2-0.1c-0.3-0.2-0.7-0.1-0.9,0.2c-0.2,0.3-0.1,0.7,0.2,0.9l0.1,0.1
		c-0.4,0.5-0.8,1-1.2,1.5l-0.3-0.2c-0.3-0.2-0.7-0.2-0.9,0.1c-0.2,0.3-0.2,0.7,0.1,0.9l0.2,0.2c-0.4,0.5-0.9,0.9-1.3,1.3l-0.1-0.1
		c-0.3-0.2-0.7-0.2-0.9,0.1c-0.2,0.3-0.2,0.7,0.1,0.9c-0.4,0.3-0.8,0.7-1.2,1l-0.1-0.1c-0.3-0.2-0.7-0.2-0.9,0.1
		c-0.2,0.2-0.2,0.5-0.1,0.7c-0.2,0-0.4,0-0.5-0.2s-0.2-0.3-0.2-0.5c0-0.1,0.1-0.3,0.2-0.4c0.3-0.2,0.6-0.4,0.9-0.6l0.1,0.1
		c0.3,0.2,0.7,0.2,0.9-0.1c0.2-0.3,0.2-0.6,0-0.9c0.4-0.3,0.7-0.6,1.1-0.9l0.2,0.1c0.3,0.2,0.7,0.1,0.9-0.2c0.2-0.3,0.1-0.7-0.2-0.9
		c0.4-0.4,0.8-0.9,1.2-1.3l0.1,0.1c0.3,0.2,0.7,0.1,0.9-0.2c0.2-0.3,0.1-0.7-0.2-0.9c0.4-0.5,0.8-1,1.1-1.6
		C84.8,156.4,85,156.4,85.1,156.4L85.1,156.4z"/>
	<path class="st7" d="M65.9,161.6c1.1,0,2-0.9,2-2c0-1.1-0.9-2-2-2c-1.1,0-2,0.9-2,2C63.9,160.7,64.8,161.6,65.9,161.6z M65.9,159
		c0.4,0,0.7,0.3,0.7,0.7c0,0.4-0.3,0.7-0.7,0.7c-0.4,0-0.7-0.3-0.7-0.7C65.2,159.3,65.5,159,65.9,159z"/>
	<path class="st7" d="M88.5,154.4c1.1,0,2-0.9,2-2c0-1.1-0.9-2-2-2c-1.1,0-2,0.9-2,2C86.5,153.5,87.4,154.4,88.5,154.4z M88.5,151.8
		c0.4,0,0.7,0.3,0.7,0.7c0,0.4-0.3,0.7-0.7,0.7s-0.7-0.3-0.7-0.7C87.9,152.1,88.2,151.8,88.5,151.8z"/>
	<path class="st7" d="M87.9,177.3c0.4,0,0.7-0.3,0.7-0.7c0-0.4-0.3-0.7-0.7-0.7c-0.4,0-0.7,0.3-0.7,0.7
		C87.2,177,87.5,177.3,87.9,177.3z"/>
	<path class="st7" d="M82.3,167.5l-0.4,0.4c-0.3,0.3-0.3,0.7,0,0.9c0.3,0.3,0.7,0.3,0.9,0l0.4-0.4c0.3-0.3,0.3-0.7,0-0.9
		C82.9,167.2,82.5,167.2,82.3,167.5z"/>
	<path class="st7" d="M72.3,161l-0.4,0.4c-0.3,0.3-0.3,0.7,0,0.9c0.3,0.3,0.7,0.3,0.9,0l0.4-0.4c0.3-0.3,0.3-0.7,0-0.9
		C72.9,160.7,72.5,160.7,72.3,161z"/>
	<path class="st7" d="M69.5,174.7c-0.3-0.3-0.7-0.3-0.9,0c-0.3,0.3-0.3,0.7,0,0.9l0.4,0.4c0.3,0.3,0.7,0.3,0.9,0
		c0.3-0.3,0.3-0.7,0-0.9L69.5,174.7z"/>
	<path class="st7" d="M96.8,166.2l0.4-0.4c0.3-0.3,0.3-0.7,0-0.9c-0.3-0.3-0.7-0.3-0.9,0l-0.4,0.4c-0.3,0.3-0.3,0.7,0,0.9
		C96.1,166.4,96.5,166.4,96.8,166.2z"/>
	<path class="st7" d="M71.9,149.8c0.4,0,0.7-0.3,0.7-0.7c0-0.4-0.3-0.7-0.7-0.7c-0.4,0-0.7,0.3-0.7,0.7
		C71.2,149.6,71.5,149.8,71.9,149.8z"/>
	<path class="st7" d="M79.9,156.4c0.4,0,0.7-0.3,0.7-0.7c0-0.4-0.3-0.7-0.7-0.7c-0.4,0-0.7,0.3-0.7,0.7
		C79.2,156.1,79.5,156.4,79.9,156.4z"/>
	<path class="st7" d="M112.7,164c0.6,0.6,1.5,0.6,2.1,0l9.5-9.5c0.6-0.6,0.6-1.5,0-2.1c-0.6-0.6-1.5-0.6-2.1,0l-8.5,8.5l-8.5-8.5
		c-0.6-0.6-1.5-0.6-2.1,0s-0.6,1.5,0,2.1L112.7,164z M107.2,142.9l1.2-0.9L107.2,142.9z M90,130.8l-0.4,1.4L90,130.8z M69,131.3
		l-0.5-1.4l0,0L69,131.3z M52.4,144.3l-1.2-0.8L52.4,144.3z M46.8,164.5l1.5-0.1L46.8,164.5z M72.1,195.4l-0.4,1.5L72.1,195.4z
		 M93.6,195.3c0.8-0.3,1.1-1.2,0.8-2c-0.3-0.8-1.2-1.1-2-0.8L93.6,195.3z M115.3,162.9c0-7.5-2.4-14.8-6.9-20.8l-2.4,1.8
		c4.1,5.5,6.3,12.2,6.3,19.1H115.3z M108.4,142.1c-4.5-6-10.8-10.5-17.9-12.6l-0.9,2.9c6.6,2,12.3,6,16.4,11.6L108.4,142.1z
		 M90.4,129.4c-7.2-2.2-14.9-2-21.9,0.5l1,2.8c6.5-2.3,13.5-2.5,20.1-0.5L90.4,129.4z M68.5,129.9c-7.1,2.5-13.1,7.3-17.3,13.5
		l2.5,1.7c3.8-5.7,9.4-10,15.8-12.3L68.5,129.9z M51.2,143.4c-4.2,6.2-6.2,13.7-5.9,21.1l3-0.1c-0.3-6.9,1.6-13.6,5.4-19.3
		L51.2,143.4z M45.3,164.6c0.4,7.5,3.1,14.7,7.9,20.5l2.3-1.9c-4.3-5.3-6.9-11.9-7.2-18.7L45.3,164.6z M53.2,185.1
		c4.8,5.8,11.2,9.9,18.5,11.8l0.7-2.9c-6.7-1.7-12.6-5.5-16.9-10.8L53.2,185.1z M71.7,196.8c7.3,1.8,15,1.3,21.9-1.6l-1.1-2.8
		c-6.3,2.6-13.4,3.1-20,1.4L71.7,196.8z"/>
</g>
<g id="healthy">
	<path class="st8" d="M55.8,421h-1.7c-10.7,0-19.5-9.4-19.5-20.9c0-82.8,0-165.6,0-248.4c0-1.5-1.1-2.8-2.4-2.8
		c-1.3,0-2.4,1.2-2.4,2.8v87.5c0,6.9-5.9,9.8-11.9,9.8C9.2,249.1,2,241.4,2,232v-88.6c0-30.3,22.1-55.1,49.2-55.1h55.7
		c27,0,49.2,24.8,49.2,55.1V232c0,9.4-6.9,17.1-16.5,17.1c-5.9,0-11.4-3.2-11.4-9.8v-87.6c0-1.5-1.1-2.8-2.4-2.8
		c-1.3,0-2.4,1.2-2.4,2.8c0,82.8,0,165.6,0,248.4c0,11.5-8.8,20.9-19.5,20.9h-1.7c-11.5,0-20.8-9.4-20.8-20.9c0-44.2,0-88.3,0-132.5
		c0-1.4-1-2.5-2.3-2.5c-1.3,0-2.3,1.1-2.3,2.5c0,44.2,0,88.3,0,132.5C76.6,411.6,67.3,421,55.8,421z M79,2
		c19.2,0,34.7,15.6,34.7,34.8c0,19.2-15.5,34.8-34.7,34.8c-19.2,0-34.7-15.6-34.7-34.8C44.3,17.6,59.8,2,79,2z"/>
	<path class="st3" d="M35.5,229c-0.5,3,6.5,9.3,38.5,10.5c32,1.2,46.3-4.2,49.5-7"/>
	<path class="st3" d="M93,12c-2.7,4.3-10.1,12.9-18.5,12.5S60.7,21.3,59,20c5.8,0,17.6-2.2,18-11"/>
	<path class="st3" d="M2.1,153c-0.9,3.4,3.1,10,26.9,8.9"/>
	<path class="st3" d="M155.9,153c0.9,3.4-3.1,10-26.9,8.9"/>
	<path class="st3" d="M53.5,88.5c0,8.8,5.6,26.5,28,26.5s27-17.7,26.5-26.5"/>
</g>
</svg>
