<?xml version="1.0" encoding="utf-8"?>
<!-- Generator: Adobe Illustrator 28.3.0, SVG Export Plug-In . SVG Version: 6.00 Build 0)  -->
<svg version="1.1" xmlns="http://www.w3.org/2000/svg" xmlns:xlink="http://www.w3.org/1999/xlink" x="0px" y="0px"
	 viewBox="0 0 180 419" style="enable-background:new 0 0 180 419;" xml:space="preserve">
<style type="text/css">
	.st0{fill:#001AFF;stroke:#FFFFFF;stroke-width:3;stroke-linecap:round;stroke-linejoin:round;}
	.st1{fill:#97BAFF;stroke:#1752E2;stroke-width:3;stroke-linecap:round;stroke-linejoin:round;}
	.st2{fill:none;stroke:#1752E2;stroke-width:3;stroke-linecap:round;stroke-linejoin:round;}
	.st3{filter:url(#Adobe_OpacityMaskFilter);}
	.st4{mask:url(#SVGID_1_);}
	.st5{opacity:0.9;fill:#FFFFFF;}
	.st6{fill:#001AFF;}
	.st7{fill:#FFFFFF;stroke:#1752E2;stroke-width:3;stroke-linecap:round;stroke-linejoin:round;}
</style>
<g id="sickness">
	<g>
		<path class="st0" d="M137.6,88.6l8.1,17.9l-19-12l-23,24l17.5-30.6H85.7l17.5,30.6l-23-24l-19,12l8.3-18.4
			c-4.3,0.4-7.9,1.3-11,2.8c-4.2,2-7.6,5.1-10.7,9.5c-3.1,4.4-6,9.9-9.1,16.9c-1.9,4.3-3.9,9-6.1,14.3c-1.4,3.3-2.9,6.8-4.4,10.5
			L8.1,194l-6,19.4c-0.7,3.7-0.9,6.7-0.2,9.2c0.7,2.4,2.3,4.5,5.4,6.1c2.7,1.4,6.8,2.2,10.5,1.5c3.7-0.6,6.9-2.6,8.4-6.7l25.3-74
			c0.1-2,1.6-4,3.9-4c2.4,0,3.9,2.2,3.9,4.3v248.4c0,10.8,8.2,19.4,18,19.4H79c10.6,0,19.3-8.7,19.3-19.4c0-22.1,0-44.2,0-66.2v0
			c0-22.1,0-44.1,0-66.2c0-2.1,1.6-4,3.8-4s3.8,1.9,3.8,4c0,22.1,0,44.1,0,66.2v0c0,22.1,0,44.2,0,66.2c0,10.7,8.7,19.4,19.3,19.4
			h1.8c9.8,0,18-8.6,18-19.4V149.8c0-2.1,1.5-4.3,3.9-4.3c2.4,0,3.9,2.2,3.9,4.3v87.6c0,2.8,1.1,4.8,2.9,6.1c1.8,1.4,4.3,2.1,7,2.1
			c8.6,0,15-6.9,15-15.6v-88.6C177.7,114.7,160.2,92.7,137.6,88.6z M102.2,1.5C83.8,1.5,69,16.4,69,34.8S83.8,68,102.2,68
			c18.3,0,33.2-14.9,33.2-33.3S120.5,1.5,102.2,1.5z"/>
		<circle class="st0" cx="86.2" cy="32" r="11.5"/>
		<path class="st0" d="M96.7,27c1.8-1.5,6.3-3.6,9.5,0"/>
		<circle class="st0" cx="116.2" cy="32" r="11.5"/>
		<polygon class="st0" points="103.2,118.5 80.2,94.5 61.2,106.5 69.5,88.1 76.7,72 85.7,87.9 		"/>
		<polygon class="st0" points="145.7,106.5 126.7,94.5 103.7,118.5 121.2,87.9 130.2,72 137.6,88.6 		"/>
	</g>
</g>
<g id="multiplication">
	<g>
		<path class="st1" d="M137.6,88.6l8.1,17.9l-19-12l-23,24l17.5-30.6H85.7l17.5,30.6l-23-24l-19,12l8.3-18.4
			c-4.3,0.4-7.9,1.3-11,2.8c-4.2,2-7.6,5.1-10.7,9.5c-3.1,4.4-6,9.9-9.1,16.9c-1.9,4.3-3.9,9-6.1,14.3c-1.4,3.3-2.9,6.8-4.4,10.5
			L8.1,194l-6,19.4c-0.7,3.7-0.9,6.7-0.2,9.2c0.7,2.4,2.3,4.5,5.4,6.1c2.7,1.4,6.8,2.2,10.5,1.5c3.7-0.6,6.9-2.6,8.4-6.7l25.3-74
			c0.1-2,1.6-4,3.9-4c2.4,0,3.9,2.2,3.9,4.3v248.4c0,10.8,8.2,19.4,18,19.4H79c10.6,0,19.3-8.7,19.3-19.4c0-22.1,0-44.2,0-66.2v0
			c0-22.1,0-44.1,0-66.2c0-2.1,1.6-4,3.8-4s3.8,1.9,3.8,4c0,22.1,0,44.1,0,66.2v0c0,22.1,0,44.2,0,66.2c0,10.7,8.7,19.4,19.3,19.4
			h1.8c9.8,0,18-8.6,18-19.4V149.8c0-2.1,1.5-4.3,3.9-4.3c2.4,0,3.9,2.2,3.9,4.3v87.6c0,2.8,1.1,4.8,2.9,6.1c1.8,1.4,4.3,2.1,7,2.1
			c8.6,0,15-6.9,15-15.6v-88.6C177.7,114.7,160.2,92.7,137.6,88.6z M102.2,1.5C83.8,1.5,69,16.4,69,34.8S83.8,68,102.2,68
			c18.3,0,33.2-14.9,33.2-33.3S120.5,1.5,102.2,1.5z"/>
		<circle class="st1" cx="86.2" cy="32" r="11.5"/>
		<path class="st2" d="M96.7,27c1.8-1.5,6.3-3.6,9.5,0"/>
		<circle class="st1" cx="116.2" cy="32" r="11.5"/>
		<polygon class="st1" points="103.2,118.5 80.2,94.5 61.2,106.5 69.5,88.1 76.7,72 85.7,87.9 		"/>
		<polygon class="st1" points="145.7,106.5 126.7,94.5 103.7,118.5 121.2,87.9 130.2,72 137.6,88.6 		"/>
	</g>
	<g>
		<g>
			<defs>
				<filter id="Adobe_OpacityMaskFilter" filterUnits="userSpaceOnUse" x="51" y="120.8" width="102" height="102">
					<feFlood  style="flood-color:white;flood-opacity:1" result="back"/>
					<feBlend  in="SourceGraphic" in2="back" mode="normal"/>
				</filter>
			</defs>
			<mask maskUnits="userSpaceOnUse" x="51" y="120.8" width="102" height="102" id="SVGID_1_">
				<g class="st3">
					
						<image style="overflow:visible;" width="107" height="107" xlink:href="BB710A7BDC0A8867.jpg"  transform="matrix(1 0 0 1 48 118)">
					</image>
				</g>
			</mask>
			<g class="st4">
				<g>
					<g>
						<circle class="st5" cx="102" cy="171.8" r="51"/>
					</g>
				</g>
			</g>
		</g>
		<path class="st6" d="M101.1,189.6c11,0,20-8.8,20-19.6c0-10.8-9-19.6-20-19.6s-20,8.8-20,19.6C81.1,180.8,90.1,189.6,101.1,189.6z
			 M101.1,151.7c10.3,0,18.7,8.2,18.7,18.3s-8.4,18.3-18.7,18.3s-18.7-8.2-18.7-18.3S90.8,151.7,101.1,151.7z"/>
		<path class="st6" d="M101,184.7c0.4,0.2,0.8,0.4,1.2,0.4c0.1,0,0.3,0,0.4,0c0.6-0.1,1.1-0.4,1.5-1c0.7-1,0.4-2.4-0.6-3.2
			c-0.1,0-0.1-0.1-0.2-0.1c-6-1.8-11.4-5.7-15.2-10.9c0-0.1-0.1-0.1-0.1-0.2c-0.5-0.4-1.1-0.5-1.7-0.4c-0.6,0.1-1.1,0.4-1.5,1
			c-0.7,1-0.5,2.3,0.5,3.1C89.2,178.8,94.8,182.8,101,184.7L101,184.7z M87.8,173.3c-0.2-0.3-0.6-0.3-0.9-0.1l-0.1,0
			c-0.2-0.2-0.3-0.4-0.5-0.6c0-0.1-0.1-0.1-0.2-0.2c-0.4-0.3-0.5-0.9-0.2-1.4c0.1-0.2,0.4-0.3,0.6-0.4c0,0,0.1,0,0.1,0
			c0.1,0,0.3,0,0.4,0.1c0.1,0.1,0.2,0.2,0.2,0.3c-0.3,0.2-0.4,0.6-0.2,0.9c0.2,0.3,0.6,0.4,0.9,0.2l0.1-0.1c0.4,0.5,0.9,1,1.3,1.5
			l-0.1,0.1c-0.3,0.2-0.4,0.6-0.2,0.9c0.2,0.3,0.6,0.4,0.9,0.2l0.4-0.2c0.5,0.5,1.1,1,1.6,1.5l-0.2,0.2c-0.3,0.3-0.3,0.7,0,0.9
			c0.3,0.3,0.7,0.3,0.9,0l0.3-0.3c0.8,0.6,1.6,1.2,2.4,1.7l-0.3,0.3c-0.3,0.3-0.3,0.7,0,0.9c0.3,0.3,0.7,0.3,0.9,0l0.5-0.5
			c0.7,0.4,1.4,0.8,2.1,1.1l-0.4,0.4c-0.2,0.3-0.2,0.7,0.1,0.9c0.3,0.2,0.7,0.2,0.9-0.1l0.6-0.7c0.9,0.4,1.9,0.7,2.8,1
			c0.4,0.3,0.4,0.9,0.2,1.3c-0.1,0.2-0.4,0.3-0.6,0.4c-0.2,0-0.5,0-0.7-0.2c-0.1,0-0.1-0.1-0.2-0.1c0,0-0.1,0-0.1,0l0.3-0.8
			l-1.2-0.5l-0.3,0.8c-1.1-0.4-2.1-0.8-3.1-1.3l0.2-0.3c0.2-0.3,0.2-0.7-0.1-0.9c-0.3-0.2-0.7-0.2-0.9,0.1l-0.3,0.5
			c-0.8-0.4-1.5-0.9-2.3-1.4l0.2-0.2c0.3-0.3,0.3-0.7,0-0.9c-0.3-0.3-0.7-0.3-0.9,0l-0.4,0.3c-0.8-0.6-1.5-1.2-2.2-1.8l0.2-0.2
			c0.3-0.3,0.3-0.7,0-0.9c-0.3-0.3-0.7-0.3-0.9,0l-0.2,0.2c-0.6-0.6-1.2-1.2-1.7-1.9l0,0C87.9,174,88,173.6,87.8,173.3L87.8,173.3z"
			/>
		<path class="st6" d="M91.4,164.4c0.2,0,0.3,0.1,0.5,0.1c0.5,0,1-0.2,1.4-0.5c3.2-2.6,6.8-4.4,10.7-5.5c0.6-0.2,1.1-0.6,1.4-1.2
			c0.3-0.6,0.3-1.4,0-2c-0.5-1-1.5-1.5-2.6-1.2c-4.5,1.2-8.6,3.3-12.3,6.3c-0.8,0.7-1.1,1.8-0.7,2.8
			C90.1,163.7,90.7,164.2,91.4,164.4L91.4,164.4z M91.3,161.3c0.2-0.1,0.3-0.2,0.5-0.4l0.3,0.4c0.2,0.3,0.6,0.3,0.9,0.1
			c0.3-0.2,0.4-0.6,0.1-0.9l-0.3-0.5c0.7-0.5,1.5-1,2.2-1.5l0.4,0.6c0.2,0.3,0.6,0.4,0.9,0.2c0.3-0.2,0.4-0.6,0.2-0.9l-0.4-0.6
			c0.8-0.4,1.6-0.8,2.4-1.2l0.2,0.4c0.2,0.3,0.6,0.5,0.9,0.3c0.3-0.2,0.5-0.6,0.3-0.9l-0.2-0.3c0.7-0.3,1.4-0.5,2.1-0.7l0.2,0.4
			c0.2,0.3,0.6,0.5,0.9,0.3c0.3-0.2,0.5-0.6,0.3-0.9l-0.1-0.1c0.4,0,0.7,0.2,0.9,0.5c0.1,0.3,0.1,0.6,0,0.9
			c-0.1,0.3-0.3,0.4-0.6,0.5c-0.5,0.1-0.9,0.3-1.4,0.4l-0.2-0.4c-0.2-0.3-0.6-0.5-0.9-0.3s-0.5,0.6-0.3,0.9l0.1,0.3
			c-0.6,0.2-1.3,0.5-1.9,0.8l-0.4-0.5c-0.2-0.3-0.6-0.3-0.9-0.1c-0.3,0.2-0.4,0.6-0.1,0.9l0.2,0.3c-0.8,0.4-1.5,0.8-2.2,1.2
			l-0.3-0.3c-0.2-0.3-0.6-0.3-0.9-0.1c-0.3,0.2-0.4,0.6-0.1,0.9l0.2,0.3c-0.7,0.5-1.4,1-2.1,1.5c-0.2,0.2-0.5,0.2-0.7,0.2
			c-0.3-0.1-0.5-0.3-0.6-0.5C90.8,162.1,91,161.6,91.3,161.3L91.3,161.3z"/>
		<path class="st6" d="M107.5,176.3c-0.3,0.5-0.4,1.2-0.2,1.8c0.2,0.7,0.7,1.2,1.4,1.5c0.3,0.1,0.6,0.2,0.9,0.2c0.7,0,1.4-0.3,1.8-1
			c2.5-3.8,4.2-8.1,4.9-12.7c0.2-1-0.4-2.1-1.4-2.5c-0.7-0.3-1.4-0.3-2,0.1c-0.6,0.3-1,0.9-1.1,1.5
			C111.1,169.2,109.6,172.9,107.5,176.3L107.5,176.3z M112.6,169.3c0.4,0.1,0.7-0.2,0.8-0.5c0.1-0.4-0.2-0.7-0.5-0.8l-0.3-0.1
			c0.2-0.8,0.4-1.7,0.5-2.5c0-0.3,0.2-0.5,0.4-0.6c0.1-0.1,0.3-0.1,0.4-0.1c0.1,0,0.3,0,0.4,0.1c0.4,0.2,0.7,0.7,0.6,1.1
			c0,0.2-0.1,0.4-0.1,0.6l-0.6-0.1c-0.4-0.1-0.7,0.2-0.8,0.5c-0.1,0.4,0.2,0.7,0.5,0.8l0.6,0.1c-0.2,0.9-0.4,1.7-0.7,2.5l-0.7-0.2
			c-0.4-0.1-0.7,0.1-0.8,0.4c-0.1,0.3,0.1,0.7,0.4,0.8l0.7,0.2c-0.3,0.8-0.6,1.6-1,2.4l-0.4-0.2c-0.3-0.1-0.7,0-0.9,0.4
			c-0.1,0.3,0,0.7,0.4,0.8l0.4,0.1c-0.3,0.7-0.7,1.3-1.1,1.9l-0.4-0.1c-0.3-0.1-0.7,0-0.9,0.4c-0.1,0.3,0,0.7,0.4,0.8l0.1,0.1
			c-0.2,0.3-0.6,0.3-1,0.2c-0.3-0.1-0.5-0.4-0.6-0.7c-0.1-0.3,0-0.5,0.1-0.8c0.3-0.4,0.5-0.8,0.8-1.2l0.4,0.2c0.3,0.1,0.7,0,0.9-0.4
			c0.1-0.3,0-0.7-0.4-0.8l-0.3-0.1c0.3-0.6,0.6-1.2,0.9-1.8l0.6,0.1c0.4,0.1,0.7-0.2,0.8-0.5c0.1-0.4-0.2-0.7-0.5-0.8l-0.3-0.1
			c0.3-0.8,0.6-1.6,0.8-2.4L112.6,169.3L112.6,169.3z"/>
		<path class="st6" d="M104.8,162.4c-1.8,2.7-4,5.1-6.7,6.9c-0.5,0.3-0.8,0.8-0.8,1.4c-0.1,0.6,0.2,1.2,0.6,1.6
			c0.4,0.4,0.9,0.6,1.4,0.6c0.4,0,0.8-0.1,1.1-0.3c3.1-2.1,5.8-4.8,7.8-8c0.5-0.8,0.4-1.8-0.3-2.4c-0.4-0.4-1-0.6-1.6-0.5
			C105.6,161.6,105.1,161.9,104.8,162.4L104.8,162.4z M106.3,162.8C106.3,162.8,106.4,162.8,106.3,162.8c0.2,0,0.4,0.1,0.5,0.2
			c0.2,0.2,0.3,0.6,0.1,0.8c-0.1,0.1-0.1,0.2-0.2,0.3l-0.2-0.1c-0.3-0.2-0.7-0.1-0.9,0.2c-0.2,0.3-0.1,0.7,0.2,0.9l0.1,0.1
			c-0.4,0.5-0.8,1-1.2,1.5l-0.3-0.2c-0.3-0.2-0.7-0.2-0.9,0.1c-0.2,0.3-0.2,0.7,0.1,0.9l0.2,0.2c-0.4,0.5-0.9,0.9-1.3,1.3l-0.1-0.1
			c-0.3-0.2-0.7-0.2-0.9,0.1c-0.2,0.3-0.2,0.7,0.1,0.9c-0.4,0.3-0.8,0.7-1.2,1l-0.1-0.1c-0.3-0.2-0.7-0.2-0.9,0.1
			c-0.2,0.2-0.2,0.5-0.1,0.7c-0.2,0-0.4,0-0.5-0.2c-0.2-0.1-0.2-0.3-0.2-0.5c0-0.1,0.1-0.3,0.2-0.4c0.3-0.2,0.6-0.4,0.9-0.6l0.1,0.1
			c0.3,0.2,0.7,0.2,0.9-0.1c0.2-0.3,0.2-0.6,0-0.9c0.4-0.3,0.7-0.6,1.1-0.9l0.2,0.1c0.3,0.2,0.7,0.1,0.9-0.2
			c0.2-0.3,0.1-0.7-0.2-0.9c0.4-0.4,0.8-0.9,1.2-1.3l0.1,0.1c0.3,0.2,0.7,0.1,0.9-0.2c0.2-0.3,0.1-0.7-0.2-0.9
			c0.4-0.5,0.8-1,1.1-1.6C106,162.9,106.2,162.8,106.3,162.8L106.3,162.8z"/>
		<path class="st6" d="M83.1,168.1c1.1,0,2-0.9,2-2c0-1.1-0.9-2-2-2s-2,0.9-2,2C81.1,167.2,82,168.1,83.1,168.1z M83.1,165.4
			c0.4,0,0.7,0.3,0.7,0.7s-0.3,0.7-0.7,0.7s-0.7-0.3-0.7-0.7S82.7,165.4,83.1,165.4z"/>
		<path class="st6" d="M109.7,160.9c1.1,0,2-0.9,2-2c0-1.1-0.9-2-2-2c-1.1,0-2,0.9-2,2C107.7,160,108.6,160.9,109.7,160.9z
			 M109.7,158.2c0.4,0,0.7,0.3,0.7,0.7c0,0.4-0.3,0.7-0.7,0.7s-0.7-0.3-0.7-0.7C109.1,158.5,109.4,158.2,109.7,158.2z"/>
		<path class="st6" d="M109.1,183.7c0.4,0,0.7-0.3,0.7-0.7c0-0.4-0.3-0.7-0.7-0.7c-0.4,0-0.7,0.3-0.7,0.7
			C108.4,183.4,108.7,183.7,109.1,183.7z"/>
		<path class="st6" d="M103.5,173.9l-0.4,0.4c-0.3,0.3-0.3,0.7,0,0.9c0.3,0.3,0.7,0.3,0.9,0l0.4-0.4c0.3-0.3,0.3-0.7,0-0.9
			C104.2,173.7,103.7,173.7,103.5,173.9z"/>
		<path class="st6" d="M89.5,167.4l-0.4,0.4c-0.3,0.3-0.3,0.7,0,0.9c0.3,0.3,0.7,0.3,0.9,0l0.4-0.4c0.3-0.3,0.3-0.7,0-0.9
			C90.2,167.1,89.7,167.1,89.5,167.4z"/>
		<path class="st6" d="M86.7,181.1c-0.3-0.3-0.7-0.3-0.9,0c-0.3,0.3-0.3,0.7,0,0.9l0.4,0.4c0.3,0.3,0.7,0.3,0.9,0
			c0.3-0.3,0.3-0.7,0-0.9L86.7,181.1z"/>
		<path class="st6" d="M118,172.6l0.4-0.4c0.3-0.3,0.3-0.7,0-0.9c-0.3-0.3-0.7-0.3-0.9,0l-0.4,0.4c-0.3,0.3-0.3,0.7,0,0.9
			C117.3,172.9,117.8,172.9,118,172.6z"/>
		<path class="st6" d="M89.1,156.3c0.4,0,0.7-0.3,0.7-0.7c0-0.4-0.3-0.7-0.7-0.7c-0.4,0-0.7,0.3-0.7,0.7
			C88.4,156,88.7,156.3,89.1,156.3z"/>
		<path class="st6" d="M101.1,162.8c0.4,0,0.7-0.3,0.7-0.7c0-0.4-0.3-0.7-0.7-0.7c-0.4,0-0.7,0.3-0.7,0.7
			C100.4,162.5,100.7,162.8,101.1,162.8z"/>
		<path class="st6" d="M133.9,170.4c0.6,0.6,1.5,0.6,2.1,0l9.5-9.5c0.6-0.6,0.6-1.5,0-2.1c-0.6-0.6-1.5-0.6-2.1,0l-8.5,8.5l-8.5-8.5
			c-0.6-0.6-1.5-0.6-2.1,0s-0.6,1.5,0,2.1L133.9,170.4z M128.4,149.4l1.2-0.9L128.4,149.4z M111.2,137.3l-0.4,1.4L111.2,137.3z
			 M90.2,137.8l-0.5-1.4l0,0L90.2,137.8z M73.7,150.7l-1.2-0.8L73.7,150.7z M68,170.9l1.5-0.1L68,170.9z M93.3,201.8l-0.4,1.5
			L93.3,201.8z M114.8,201.7c0.8-0.3,1.1-1.2,0.8-2c-0.3-0.8-1.2-1.1-2-0.8L114.8,201.7z M136.5,169.3c0-7.5-2.4-14.8-6.9-20.8
			l-2.4,1.8c4.1,5.5,6.3,12.2,6.3,19.1H136.5z M129.6,148.5c-4.5-6-10.8-10.5-17.9-12.6l-0.9,2.9c6.6,2,12.3,6,16.4,11.6
			L129.6,148.5z M111.7,135.9c-7.2-2.2-14.9-2-21.9,0.5l1,2.8c6.5-2.3,13.5-2.5,20.1-0.5L111.7,135.9z M89.7,136.4
			c-7.1,2.5-13.1,7.3-17.3,13.5l2.5,1.7c3.8-5.7,9.4-10,15.8-12.3L89.7,136.4z M72.4,149.9c-4.2,6.2-6.2,13.7-5.9,21.1l3-0.1
			c-0.3-6.9,1.6-13.6,5.4-19.3L72.4,149.9z M66.5,171c0.4,7.5,3.1,14.7,7.9,20.5l2.3-1.9c-4.3-5.3-6.9-11.9-7.2-18.7L66.5,171z
			 M74.4,191.5c4.8,5.8,11.2,9.9,18.5,11.8l0.7-2.9c-6.7-1.7-12.6-5.5-16.9-10.8L74.4,191.5z M92.9,203.3c7.3,1.8,15,1.3,21.9-1.6
			l-1.1-2.8c-6.3,2.6-13.4,3.1-20,1.4L92.9,203.3z"/>
	</g>
</g>
<g id="healthy">
	<path class="st2" d="M96.7,27c1.8-1.5,6.3-3.6,9.5,0"/>
	<g>
		<path class="st7" d="M137.6,88.6l8.1,17.9l-19-12l-23,24l17.5-30.6H85.7l17.5,30.6l-23-24l-19,12l8.3-18.4
			c-4.3,0.4-7.9,1.3-11,2.8c-4.2,2-7.6,5.1-10.7,9.5c-3.1,4.4-6,9.9-9.1,16.9c-1.9,4.3-3.9,9-6.1,14.3c-1.4,3.3-2.9,6.8-4.4,10.5
			L8.1,194l-6,19.4c-0.7,3.7-0.9,6.7-0.2,9.2c0.7,2.4,2.3,4.5,5.4,6.1c2.7,1.4,6.8,2.2,10.5,1.5c3.7-0.6,6.9-2.6,8.4-6.7l25.3-74
			c0.1-2,1.6-4,3.9-4c2.4,0,3.9,2.2,3.9,4.3v248.4c0,10.8,8.2,19.4,18,19.4H79c10.6,0,19.3-8.7,19.3-19.4c0-22.1,0-44.2,0-66.2v0
			c0-22.1,0-44.1,0-66.2c0-2.1,1.6-4,3.8-4s3.8,1.9,3.8,4c0,22.1,0,44.1,0,66.2v0c0,22.1,0,44.2,0,66.2c0,10.7,8.7,19.4,19.3,19.4
			h1.8c9.8,0,18-8.6,18-19.4V149.8c0-2.1,1.5-4.3,3.9-4.3c2.4,0,3.9,2.2,3.9,4.3v87.6c0,2.8,1.1,4.8,2.9,6.1c1.8,1.4,4.3,2.1,7,2.1
			c8.6,0,15-6.9,15-15.6v-88.6C177.7,114.7,160.2,92.7,137.6,88.6z M102.2,1.5C83.8,1.5,69,16.4,69,34.8S83.8,68,102.2,68
			c18.3,0,33.2-14.9,33.2-33.3S120.5,1.5,102.2,1.5z"/>
		<polygon class="st7" points="103.2,118.5 80.2,94.5 61.2,106.5 69.5,88.1 76.7,72 85.7,87.9 		"/>
		<circle class="st7" cx="86.2" cy="32" r="11.5"/>
		<circle class="st7" cx="116.2" cy="32" r="11.5"/>
		<polygon class="st7" points="145.7,106.5 126.7,94.5 103.7,118.5 121.2,87.9 130.2,72 137.6,88.6 		"/>
	</g>
	<path class="st2" d="M96.7,26c1.8-1.5,6.3-3.6,9.5,0"/>
</g>
</svg>
