<?xml version="1.0" encoding="utf-8"?>
<!-- Generator: Adobe Illustrator 28.3.0, SVG Export Plug-In . SVG Version: 6.00 Build 0)  -->
<svg version="1.1" id="Calque_1" xmlns="http://www.w3.org/2000/svg" xmlns:xlink="http://www.w3.org/1999/xlink" x="0px" y="0px"
	 viewBox="0 0 180 431" style="enable-background:new 0 0 180 431;" xml:space="preserve">
<style type="text/css">
	.st0{fill:#FFFFFF;stroke:#1752E2;stroke-width:3;}
	.st1{fill:#FFFFFF;stroke:#1752E2;stroke-width:2;}
	.st2{fill:#FFFFFF;stroke:#1752E2;stroke-width:3;stroke-linejoin:round;}
	.st3{fill:#1752E2;stroke:#FFFFFF;stroke-width:3;}
	.st4{fill:#1752E2;stroke:#FFFFFF;stroke-width:2;}
	.st5{fill:#1752E2;stroke:#FFFFFF;stroke-width:3;stroke-linejoin:round;}
</style>
<g id="healthy2">
	<path class="st0" d="M98.3,398.1L98.3,398.1c0,10.7-8.7,19.4-19.3,19.4h-1.7c-9.8,0-18-8.6-18-19.4v-0.5v-0.5v-0.5v-0.5v-0.5v-0.5
		v-0.5v-0.5v-0.5v-0.5v-0.5v-0.5v-0.5v-0.5v-0.5v-0.5v-0.5v-0.5v-0.5v-0.5V388v-0.5V387v-0.5V386v-0.5V385v-0.5V384v-0.5V383v-0.5
		V382v-0.5V381v-0.5V380v-0.5V379v-0.5V378v-0.5V377v-0.5V376v-0.5V375v-0.5V374v-0.5V373v-0.5V372v-0.5V371l0,0v-0.5V370v-0.5V369
		v-0.5V368v-0.5V367v-0.5V366v-0.5V365v-0.5V364v-0.5V363v-0.5V362v-0.5V361v-0.5V360v-0.5V359v-0.5V358v-0.5V357v-0.5V356v-0.5V355
		l0,0v-0.5V354v-0.5V353v-0.5V352v-0.5V351v-0.5V350v-0.5V349v-0.5V348v-0.5V347v-0.5V346v-0.5V345v-0.5V344v-0.5V343v-0.5V342v-0.5
		V341v-0.5V340v-0.5V339l0,0v-0.5V338v-0.5V337v-0.5V336v-0.5V335v-0.5V334v-0.5V333v-0.5V332v-0.5V331v-0.5V330v-0.5V329v-0.5V328
		v-0.5V327v-0.5V326v-0.5V325v-0.5V324v-0.5V323v-0.5V322l0,0v-0.5V321v-0.5V320v-0.5V319v-0.5V318v-0.5V317v-0.5V316v-0.5V315v-0.5
		V314v-0.5V313v-0.5V312v-0.5V311v-0.5V310v-0.5V309v-0.5V308v-0.5V307v-0.5V306l0,0v-0.5V305v-0.5V304v-0.5V303v-0.5V302v-0.5V301
		v-0.5V300v-0.5V299v-0.5V298v-0.5V297v-0.5V296v-0.5V295v-0.5V294v-0.5V293v-0.5V292v-0.5V291v-0.5V290l0,0v-0.5V289v-0.5V288v-0.5
		V287v-0.5V286v-0.5V285v-0.5V284v-0.5V283v-0.5V282v-0.5V281v-0.5V280v-0.5V279v-0.5V278v-0.5V277v-0.5V276v-0.5V275v-0.5V274l0,0
		v-0.5V273v-0.5V272v-0.5V271v-0.5V270v-0.5V269v-0.5V268v-0.5V267v-0.5V266v-0.5V265v-0.5V264v-0.5V263v-0.5V262v-0.5V261v-0.5V260
		v-0.5V259v-0.5V258v-0.5V257l0,0v-0.5V256v-0.5V255v-0.5V254v-0.5V253v-0.5V252v-0.5V251v-0.5V250v-0.5V249v-0.5V248v-0.5V247v-0.5
		V246v-0.5V245v-0.5V244v-0.5V243v-0.5V242v-0.5V241l0,0v-0.5V240v-0.5V239v-0.5V238v-0.5V237v-0.5V236v-0.5V235v-0.5V234v-0.5V233
		v-0.5V232v-0.5V231v-0.5V230v-0.5V229v-0.5V228v-0.5V227v-0.5V226v-0.5V225l0,0v-0.5V224v-0.5V223v-0.5V222v-0.5V221v-0.5V220v-0.5
		V219v-0.5V218v-0.5V217v-0.5V216v-0.5V215v-0.5V214v-0.5V213v-0.5V212v-0.5V211v-0.5V210v-0.5V209v-0.5V208l0,0v-0.5V207v-0.5V206
		v-0.5V205v-0.5V204v-0.5V203v-0.5V202v-0.5V201v-0.5V200v-0.5V199v-0.5V198v-0.5V197v-0.5V196v-0.5V195v-0.5V194v-0.5V193v-0.5V192
		l0,0v-0.5V191v-0.5V190v-0.5V189v-0.5V188v-0.5V187v-0.5V186v-0.5V185v-0.5V184v-0.5V183v-0.5V182v-0.5V181v-0.5V180v-0.5V179v-0.5
		V178v-0.5V177v-0.5V176l0,0v-0.5V175v-0.5V174v-0.5V173v-0.5V172v-0.5V171v-0.5V170v-0.5V169v-0.5V168v-0.5V167v-0.5V166v-0.5V165
		v-0.5V164v-0.5V163v-0.5V162v-0.5V161v-0.5V160l0,0v-0.5V159v-0.5V158v-0.5V157v-0.5V156v-0.5V155v-0.5V154v-0.5V153v-0.5V152v-0.5
		V151v-0.5V150v-0.5c0-2.1-1.5-4.3-3.9-4.3c-2.3,0-3.7,2-3.9,4l-25.3,74c-1.5,4.1-4.8,6.1-8.4,6.7c-3.7,0.6-7.8-0.2-10.5-1.6
		c-3.2-1.6-4.7-3.6-5.4-6.1s-0.5-5.6,0.2-9.2l6-19.4l20-51.9c1.6-3.7,3.1-7.2,4.4-10.5c2.2-5.3,4.2-10,6.1-14.3
		c3.1-7,6-12.5,9.1-16.9c3.1-4.3,6.5-7.4,10.7-9.5c4.2-2,9.3-3.1,15.9-3.1H130c26.1,0,47.7,23.9,47.7,53.6v89
		c0,8.7-6.3,15.6-15,15.6c-2.7,0-5.2-0.7-7-2.1c-1.7-1.3-2.9-3.3-2.9-6.2v-87.6c0-2.1-1.5-4.3-3.9-4.3s-3.9,2.2-3.9,4.3v0.5v0.5v0.5
		v0.5v0.5v0.5v0.5v0.5v0.5v0.5v0.5v0.5v0.5v0.5v0.5v0.5v0.5v0.5v0.5v0.5v0.5v0.5v0.5v0.5v0.5v0.5v0.5v0.5v0.5v0.5v0.5v0.5v0.5v0.5
		v0.5v0.5v0.5v0.5v0.5v0.5v0.5v0.5v0.5v0.5v0.5v0.5v0.5v0.5v0.5v0.5v0.5v0.5v0.5v0.5v0.5v0.5v0.5v0.5v0.5v0.5v0.5v0.5v0.5v0.5v0.5
		v0.5v0.5v0.5v0.5v0.5v0.5v0.5v0.5v0.5v0.5v0.5v0.5v0.5v0.5v0.5v0.5v0.5v0.5v0.5v0.5v0.5v0.5v0.5v0.5v0.5v0.5v0.5v0.5v0.5v0.5v0.5
		v0.5v0.5v0.5v0.5v0.5v0.5v0.5v0.5v0.5v0.5v0.5v0.5v0.5v0.5v0.5v0.5v0.5v0.5v0.5v0.5v0.5v0.5v0.5v0.5v0.5v0.5v0.5v0.5v0.5v0.5v0.5
		v0.5v0.5v0.5v0.5v0.5v0.5v0.5v0.5v0.5v0.5v0.5v0.5v0.5v0.5v0.5v0.5v0.5v0.5v0.5v0.5v0.5v0.5v0.5v0.5v0.5v0.5v0.5v0.5v0.5v0.5v0.5
		v0.5v0.5v0.5v0.5v0.5v0.5v0.5v0.5v0.5v0.5v0.5v0.5v0.5v0.5v0.5v0.5v0.5v0.5v0.5v0.5v0.5v0.5v0.5v0.5v0.5v0.5v0.5v0.5v0.5v0.5v0.5
		v0.5v0.5v0.5v0.5v0.5v0.5v0.5v0.5v0.5v0.5v0.5v0.5v0.5v0.5v0.5v0.5v0.5v0.5v0.5v0.5v0.5v0.5v0.5v0.5v0.5v0.5v0.5v0.5v0.5v0.5v0.5
		v0.5v0.5v0.5v0.5v0.5v0.5v0.5v0.5v0.5v0.5v0.5v0.5v0.5v0.5v0.5v0.5v0.5v0.5v0.5v0.5v0.5v0.5v0.5v0.5v0.5v0.5v0.5v0.5v0.5v0.5v0.5
		v0.5v0.5v0.5v0.5v0.5v0.5v0.5v0.5v0.5v0.5v0.5v0.5v0.5v0.5v0.5v0.5v0.5v0.5v0.5v0.5v0.5v0.5v0.5v0.5v0.5v0.5v0.5v0.5v0.5v0.5v0.5
		v0.5v0.5v0.5v0.5v0.5v0.5v0.5v0.5v0.5v0.5v0.5v0.5v0.5v0.5v0.5v0.5v0.5v0.5v0.5v0.5v0.5v0.5v0.5v0.5v0.5v0.5v0.5v0.5v0.5v0.5v0.5
		v0.5v0.5v0.5v0.5v0.5v0.5v0.5v0.5v0.5v0.5v0.5v0.5v0.5v0.5v0.5v0.5v0.5v0.5v0.5v0.5v0.5v0.5v0.5v0.5v0.5v0.5v0.5v0.5v0.5v0.5v0.5
		v0.5v0.5v0.5v0.5v0.5v0.5v0.5v0.5v0.5v0.5v0.5v0.5v0.5v0.5v0.5v0.5v0.5v0.5v0.5v0.5v0.5v0.5v0.5v0.5v0.5v0.5v0.5v0.5v0.5v0.5v0.5
		v0.5v0.5v0.5v0.5v0.5v0.5v0.5v0.5v0.5v0.5v0.5v0.5v0.5v0.5v0.5v0.5v0.5v0.5v0.5v0.5v0.5v0.5v0.5v0.5v0.5v0.5v0.5v0.5v0.5v0.5v0.5
		v0.5v0.5v0.5v0.5v0.5v0.5v0.5v0.5v0.5v0.5v0.5v0.5v0.5v0.5v0.5v0.5v0.5v0.5v0.5v0.5v0.5v0.5v0.5v0.5v0.5v0.5v0.5v0.5v0.5v0.5v0.5
		v0.5v0.5v0.5v0.5v0.5v0.5v0.5v0.5v0.5v0.5v0.5v0.5v0.5v0.5v0.5v0.5v0.5v0.5v0.5v0.5v0.5v0.5v0.5v0.5v0.5v0.5v0.5v0.5v0.5v0.5v0.5
		v0.5v0.5v0.5v0.5v0.5v0.5v0.5v0.5v0.5v0.5v0.5v0.5v0.5v0.5v0.5v0.5v0.5v0.5v0.5v0.5v0.5v0.5v0.5v0.5v0.5v0.5v0.5v0.5v0.5v0.5v0.5
		v0.5v0.5v0.5v0.5v0.5v0.5v0.5v0.5v0.5v0.5v0.5v0.5v0.5c0,10.8-8.2,19.4-18,19.4h-1.7c-10.6,0-19.3-8.7-19.3-19.4
		c0-22.1,0-44.2,0-66.3v-0.1c0-22.1,0-44.1,0-66.2c0-2.1-1.6-4-3.8-4c-2.2,0-3.8,1.9-3.8,4c0,22.1,0,44.1,0,66.2l0,0
		C98.3,354,98.3,376.1,98.3,398.1z M102.2,1.5c18.3,0,33.2,14.9,33.2,33.3s-14.9,33.3-33.2,33.3C83.8,68,69,53.2,69,34.8
		S83.8,1.5,102.2,1.5z"/>
	<circle class="st0" cx="86.2" cy="32" r="11.5"/>
	<path class="st1" d="M96.7,27c1.8-1.5,6.3-3.6,9.5,0"/>
	<circle class="st0" cx="116.2" cy="32" r="11.5"/>
	<path class="st2" d="M76.7,72l26.5,46.5l-23-24l-19,12L76.7,72z"/>
	<path class="st2" d="M130.2,72l-26.5,46.5l23-24l19,12L130.2,72z"/>
</g>
<g id="sick2">
	<path class="st3" d="M98.3,398.1L98.3,398.1c0,10.7-8.7,19.4-19.3,19.4h-1.7c-9.8,0-18-8.6-18-19.4v-0.5v-0.5v-0.5v-0.5v-0.5v-0.5
		v-0.5v-0.5v-0.5v-0.5v-0.5v-0.5v-0.5v-0.5v-0.5v-0.5v-0.5v-0.5v-0.5v-0.5V388v-0.5V387v-0.5V386v-0.5V385v-0.5V384v-0.5V383v-0.5
		V382v-0.5V381v-0.5V380v-0.5V379v-0.5V378v-0.5V377v-0.5V376v-0.5V375v-0.5V374v-0.5V373v-0.5V372v-0.5V371l0,0v-0.5V370v-0.5V369
		v-0.5V368v-0.5V367v-0.5V366v-0.5V365v-0.5V364v-0.5V363v-0.5V362v-0.5V361v-0.5V360v-0.5V359v-0.5V358v-0.5V357v-0.5V356v-0.5V355
		l0,0v-0.5V354v-0.5V353v-0.5V352v-0.5V351v-0.5V350v-0.5V349v-0.5V348v-0.5V347v-0.5V346v-0.5V345v-0.5V344v-0.5V343v-0.5V342v-0.5
		V341v-0.5V340v-0.5V339l0,0v-0.5V338v-0.5V337v-0.5V336v-0.5V335v-0.5V334v-0.5V333v-0.5V332v-0.5V331v-0.5V330v-0.5V329v-0.5V328
		v-0.5V327v-0.5V326v-0.5V325v-0.5V324v-0.5V323v-0.5V322l0,0v-0.5V321v-0.5V320v-0.5V319v-0.5V318v-0.5V317v-0.5V316v-0.5V315v-0.5
		V314v-0.5V313v-0.5V312v-0.5V311v-0.5V310v-0.5V309v-0.5V308v-0.5V307v-0.5V306l0,0v-0.5V305v-0.5V304v-0.5V303v-0.5V302v-0.5V301
		v-0.5V300v-0.5V299v-0.5V298v-0.5V297v-0.5V296v-0.5V295v-0.5V294v-0.5V293v-0.5V292v-0.5V291v-0.5V290l0,0v-0.5V289v-0.5V288v-0.5
		V287v-0.5V286v-0.5V285v-0.5V284v-0.5V283v-0.5V282v-0.5V281v-0.5V280v-0.5V279v-0.5V278v-0.5V277v-0.5V276v-0.5V275v-0.5V274l0,0
		v-0.5V273v-0.5V272v-0.5V271v-0.5V270v-0.5V269v-0.5V268v-0.5V267v-0.5V266v-0.5V265v-0.5V264v-0.5V263v-0.5V262v-0.5V261v-0.5V260
		v-0.5V259v-0.5V258v-0.5V257l0,0v-0.5V256v-0.5V255v-0.5V254v-0.5V253v-0.5V252v-0.5V251v-0.5V250v-0.5V249v-0.5V248v-0.5V247v-0.5
		V246v-0.5V245v-0.5V244v-0.5V243v-0.5V242v-0.5V241l0,0v-0.5V240v-0.5V239v-0.5V238v-0.5V237v-0.5V236v-0.5V235v-0.5V234v-0.5V233
		v-0.5V232v-0.5V231v-0.5V230v-0.5V229v-0.5V228v-0.5V227v-0.5V226v-0.5V225l0,0v-0.5V224v-0.5V223v-0.5V222v-0.5V221v-0.5V220v-0.5
		V219v-0.5V218v-0.5V217v-0.5V216v-0.5V215v-0.5V214v-0.5V213v-0.5V212v-0.5V211v-0.5V210v-0.5V209v-0.5V208l0,0v-0.5V207v-0.5V206
		v-0.5V205v-0.5V204v-0.5V203v-0.5V202v-0.5V201v-0.5V200v-0.5V199v-0.5V198v-0.5V197v-0.5V196v-0.5V195v-0.5V194v-0.5V193v-0.5V192
		l0,0v-0.5V191v-0.5V190v-0.5V189v-0.5V188v-0.5V187v-0.5V186v-0.5V185v-0.5V184v-0.5V183v-0.5V182v-0.5V181v-0.5V180v-0.5V179v-0.5
		V178v-0.5V177v-0.5V176l0,0v-0.5V175v-0.5V174v-0.5V173v-0.5V172v-0.5V171v-0.5V170v-0.5V169v-0.5V168v-0.5V167v-0.5V166v-0.5V165
		v-0.5V164v-0.5V163v-0.5V162v-0.5V161v-0.5V160l0,0v-0.5V159v-0.5V158v-0.5V157v-0.5V156v-0.5V155v-0.5V154v-0.5V153v-0.5V152v-0.5
		V151v-0.5V150v-0.5c0-2.1-1.5-4.3-3.9-4.3c-2.3,0-3.7,2-3.9,4l-25.3,74c-1.5,4.1-4.8,6.1-8.4,6.7c-3.7,0.6-7.8-0.2-10.5-1.6
		c-3.2-1.6-4.7-3.6-5.4-6.1s-0.5-5.6,0.2-9.2l6-19.4l20-51.9c1.6-3.7,3.1-7.2,4.4-10.5c2.2-5.3,4.2-10,6.1-14.3
		c3.1-7,6-12.5,9.1-16.9c3.1-4.3,6.5-7.4,10.7-9.5c4.2-2,9.3-3.1,15.9-3.1H130c26.1,0,47.7,23.9,47.7,53.6v89
		c0,8.7-6.3,15.6-15,15.6c-2.7,0-5.2-0.7-7-2.1c-1.7-1.3-2.9-3.3-2.9-6.2v-87.6c0-2.1-1.5-4.3-3.9-4.3s-3.9,2.2-3.9,4.3v0.5v0.5v0.5
		v0.5v0.5v0.5v0.5v0.5v0.5v0.5v0.5v0.5v0.5v0.5v0.5v0.5v0.5v0.5v0.5v0.5v0.5v0.5v0.5v0.5v0.5v0.5v0.5v0.5v0.5v0.5v0.5v0.5v0.5v0.5
		v0.5v0.5v0.5v0.5v0.5v0.5v0.5v0.5v0.5v0.5v0.5v0.5v0.5v0.5v0.5v0.5v0.5v0.5v0.5v0.5v0.5v0.5v0.5v0.5v0.5v0.5v0.5v0.5v0.5v0.5v0.5
		v0.5v0.5v0.5v0.5v0.5v0.5v0.5v0.5v0.5v0.5v0.5v0.5v0.5v0.5v0.5v0.5v0.5v0.5v0.5v0.5v0.5v0.5v0.5v0.5v0.5v0.5v0.5v0.5v0.5v0.5v0.5
		v0.5v0.5v0.5v0.5v0.5v0.5v0.5v0.5v0.5v0.5v0.5v0.5v0.5v0.5v0.5v0.5v0.5v0.5v0.5v0.5v0.5v0.5v0.5v0.5v0.5v0.5v0.5v0.5v0.5v0.5v0.5
		v0.5v0.5v0.5v0.5v0.5v0.5v0.5v0.5v0.5v0.5v0.5v0.5v0.5v0.5v0.5v0.5v0.5v0.5v0.5v0.5v0.5v0.5v0.5v0.5v0.5v0.5v0.5v0.5v0.5v0.5v0.5
		v0.5v0.5v0.5v0.5v0.5v0.5v0.5v0.5v0.5v0.5v0.5v0.5v0.5v0.5v0.5v0.5v0.5v0.5v0.5v0.5v0.5v0.5v0.5v0.5v0.5v0.5v0.5v0.5v0.5v0.5v0.5
		v0.5v0.5v0.5v0.5v0.5v0.5v0.5v0.5v0.5v0.5v0.5v0.5v0.5v0.5v0.5v0.5v0.5v0.5v0.5v0.5v0.5v0.5v0.5v0.5v0.5v0.5v0.5v0.5v0.5v0.5v0.5
		v0.5v0.5v0.5v0.5v0.5v0.5v0.5v0.5v0.5v0.5v0.5v0.5v0.5v0.5v0.5v0.5v0.5v0.5v0.5v0.5v0.5v0.5v0.5v0.5v0.5v0.5v0.5v0.5v0.5v0.5v0.5
		v0.5v0.5v0.5v0.5v0.5v0.5v0.5v0.5v0.5v0.5v0.5v0.5v0.5v0.5v0.5v0.5v0.5v0.5v0.5v0.5v0.5v0.5v0.5v0.5v0.5v0.5v0.5v0.5v0.5v0.5v0.5
		v0.5v0.5v0.5v0.5v0.5v0.5v0.5v0.5v0.5v0.5v0.5v0.5v0.5v0.5v0.5v0.5v0.5v0.5v0.5v0.5v0.5v0.5v0.5v0.5v0.5v0.5v0.5v0.5v0.5v0.5v0.5
		v0.5v0.5v0.5v0.5v0.5v0.5v0.5v0.5v0.5v0.5v0.5v0.5v0.5v0.5v0.5v0.5v0.5v0.5v0.5v0.5v0.5v0.5v0.5v0.5v0.5v0.5v0.5v0.5v0.5v0.5v0.5
		v0.5v0.5v0.5v0.5v0.5v0.5v0.5v0.5v0.5v0.5v0.5v0.5v0.5v0.5v0.5v0.5v0.5v0.5v0.5v0.5v0.5v0.5v0.5v0.5v0.5v0.5v0.5v0.5v0.5v0.5v0.5
		v0.5v0.5v0.5v0.5v0.5v0.5v0.5v0.5v0.5v0.5v0.5v0.5v0.5v0.5v0.5v0.5v0.5v0.5v0.5v0.5v0.5v0.5v0.5v0.5v0.5v0.5v0.5v0.5v0.5v0.5v0.5
		v0.5v0.5v0.5v0.5v0.5v0.5v0.5v0.5v0.5v0.5v0.5v0.5v0.5v0.5v0.5v0.5v0.5v0.5v0.5v0.5v0.5v0.5v0.5v0.5v0.5v0.5v0.5v0.5v0.5v0.5v0.5
		v0.5v0.5v0.5v0.5v0.5v0.5v0.5v0.5v0.5v0.5v0.5v0.5v0.5v0.5v0.5v0.5v0.5v0.5v0.5v0.5v0.5v0.5v0.5v0.5v0.5v0.5v0.5v0.5v0.5v0.5v0.5
		v0.5v0.5v0.5v0.5v0.5v0.5v0.5v0.5v0.5v0.5v0.5v0.5v0.5v0.5v0.5v0.5v0.5v0.5v0.5v0.5v0.5v0.5v0.5v0.5v0.5v0.5v0.5v0.5v0.5v0.5v0.5
		v0.5v0.5v0.5v0.5v0.5v0.5v0.5v0.5v0.5v0.5v0.5v0.5v0.5c0,10.8-8.2,19.4-18,19.4h-1.7c-10.6,0-19.3-8.7-19.3-19.4
		c0-22.1,0-44.2,0-66.3v-0.1c0-22.1,0-44.1,0-66.2c0-2.1-1.6-4-3.8-4c-2.2,0-3.8,1.9-3.8,4c0,22.1,0,44.1,0,66.2l0,0
		C98.3,354,98.3,376.1,98.3,398.1z M102.2,1.5c18.3,0,33.2,14.9,33.2,33.3s-14.9,33.3-33.2,33.3C83.8,68,69,53.2,69,34.8
		S83.8,1.5,102.2,1.5z"/>
	<circle class="st3" cx="86.2" cy="32" r="11.5"/>
	<path class="st4" d="M96.7,27c1.8-1.5,6.3-3.6,9.5,0"/>
	<circle class="st3" cx="116.2" cy="32" r="11.5"/>
	<path class="st5" d="M76.7,72l26.5,46.5l-23-24l-19,12L76.7,72z"/>
	<path class="st5" d="M130.2,72l-26.5,46.5l23-24l19,12L130.2,72z"/>
</g>
</svg>
