<svg width="188" height="188" viewBox="0 0 188 188" fill="none" xmlns="http://www.w3.org/2000/svg">
<g filter="url(#filter0_bf_206_5985)">
<circle cx="93.7894" cy="93.7896" r="70.1548" transform="rotate(-64.0339 93.7894 93.7896)" fill="#1752E2" fill-opacity="0.3"/>
</g>
<path d="M57.4396 52.2896V44.1077H58.6541V45.3861H58.7607C58.9311 44.9494 59.2063 44.6102 59.5863 44.3687C59.9663 44.1237 60.4226 44.0012 60.9553 44.0012C61.495 44.0012 61.9442 44.1237 62.3029 44.3687C62.6651 44.6102 62.9474 44.9494 63.1499 45.3861H63.2351C63.4446 44.9636 63.7589 44.628 64.1779 44.3794C64.5969 44.1273 65.0994 44.0012 65.6854 44.0012C66.4169 44.0012 67.0153 44.2302 67.4805 44.6883C67.9457 45.1429 68.1783 45.8513 68.1783 46.8137V52.2896H66.9212V46.8137C66.9212 46.21 66.756 45.7785 66.4258 45.5193C66.0955 45.2601 65.7067 45.1305 65.2592 45.1305C64.6839 45.1305 64.2383 45.3045 63.9222 45.6525C63.6062 45.9969 63.4482 46.4337 63.4482 46.9628V52.2896H62.1697V46.6859C62.1697 46.2207 62.0188 45.846 61.717 45.5619C61.4151 45.2743 61.0263 45.1305 60.5504 45.1305C60.2237 45.1305 59.9183 45.2175 59.6342 45.3915C59.3537 45.5655 59.1264 45.807 58.9524 46.1159C58.782 46.4213 58.6967 46.7746 58.6967 47.1759V52.2896H57.4396ZM73.8006 52.46C73.062 52.46 72.4139 52.2842 71.8564 51.9327C71.3024 51.5811 70.8691 51.0893 70.5566 50.4572C70.2477 49.8251 70.0932 49.0864 70.0932 48.2413C70.0932 47.389 70.2477 46.645 70.5566 46.0094C70.8691 45.3737 71.3024 44.8801 71.8564 44.5285C72.4139 44.177 73.062 44.0012 73.8006 44.0012C74.5392 44.0012 75.1855 44.177 75.7395 44.5285C76.2971 44.8801 76.7303 45.3737 77.0392 46.0094C77.3517 46.645 77.508 47.389 77.508 48.2413C77.508 49.0864 77.3517 49.8251 77.0392 50.4572C76.7303 51.0893 76.2971 51.5811 75.7395 51.9327C75.1855 52.2842 74.5392 52.46 73.8006 52.46ZM73.8006 51.3307C74.3617 51.3307 74.8233 51.1869 75.1855 50.8993C75.5478 50.6116 75.8159 50.2334 75.9899 49.7647C76.1639 49.2959 76.2509 48.7881 76.2509 48.2413C76.2509 47.6944 76.1639 47.1848 75.9899 46.7125C75.8159 46.2402 75.5478 45.8584 75.1855 45.5672C74.8233 45.2761 74.3617 45.1305 73.8006 45.1305C73.2395 45.1305 72.7779 45.2761 72.4157 45.5672C72.0534 45.8584 71.7853 46.2402 71.6113 46.7125C71.4373 47.1848 71.3503 47.6944 71.3503 48.2413C71.3503 48.7881 71.4373 49.2959 71.6113 49.7647C71.7853 50.2334 72.0534 50.6116 72.4157 50.8993C72.7779 51.1869 73.2395 51.3307 73.8006 51.3307ZM85.2224 45.9401L84.0931 46.2597C84.0221 46.0715 83.9173 45.8886 83.7789 45.7111C83.6439 45.53 83.4593 45.3808 83.2249 45.2636C82.9905 45.1464 82.6904 45.0878 82.3247 45.0878C81.824 45.0878 81.4067 45.2033 81.0729 45.4341C80.7426 45.6614 80.5775 45.9508 80.5775 46.3023C80.5775 46.6148 80.6911 46.8616 80.9184 47.0427C81.1457 47.2239 81.5008 47.3748 81.9838 47.4955L83.1982 47.7938C83.9298 47.9714 84.4749 48.243 84.8335 48.6088C85.1922 48.971 85.3715 49.438 85.3715 50.0097C85.3715 50.4785 85.2366 50.8975 84.9667 51.2668C84.7004 51.6361 84.3275 51.9273 83.8481 52.1404C83.3687 52.3535 82.8112 52.46 82.1755 52.46C81.341 52.46 80.6503 52.2789 80.1034 51.9167C79.5566 51.5545 79.2103 51.0253 79.0647 50.3293L80.2579 50.031C80.3715 50.4714 80.5864 50.8016 80.9024 51.0218C81.222 51.242 81.6393 51.3521 82.1542 51.3521C82.7401 51.3521 83.2053 51.2278 83.5498 50.9792C83.8978 50.7271 84.0718 50.4252 84.0718 50.0736C84.0718 49.7896 83.9724 49.5516 83.7735 49.3599C83.5747 49.1646 83.2693 49.019 82.8573 48.9231L81.4937 48.6035C80.7444 48.4259 80.194 48.1507 79.8424 47.7778C79.4944 47.4014 79.3204 46.9309 79.3204 46.3663C79.3204 45.9046 79.45 45.4962 79.7093 45.1411C79.972 44.786 80.3289 44.5072 80.7799 44.3048C81.2345 44.1024 81.7494 44.0012 82.3247 44.0012C83.1343 44.0012 83.77 44.1788 84.2316 44.5339C84.6968 44.889 85.0271 45.3577 85.2224 45.9401ZM92.8462 55.3577V51.0324H92.7397C92.6474 51.1816 92.516 51.3698 92.3455 51.5971C92.1751 51.8208 91.9318 52.0214 91.6158 52.199C91.2997 52.373 90.8789 52.46 90.3533 52.46C89.6715 52.46 89.0696 52.2878 88.5476 51.9433C88.0256 51.5953 87.6172 51.1052 87.3224 50.4731C87.0277 49.8375 86.8803 49.0864 86.8803 48.2199C86.8803 47.3606 87.0277 46.6148 87.3224 45.9827C87.6172 45.3506 88.0273 44.8623 88.5529 44.5179C89.0785 44.1734 89.6857 44.0012 90.3746 44.0012C90.9073 44.0012 91.3281 44.09 91.6371 44.2675C91.9496 44.4415 92.1875 44.6404 92.3509 44.8641C92.5178 45.0843 92.6474 45.2654 92.7397 45.4074H92.8888V44.1077H94.1033V55.3577H92.8462ZM90.5238 51.3307C91.0281 51.3307 91.4542 51.1994 91.8022 50.9366C92.1502 50.6702 92.4148 50.3027 92.5959 49.8339C92.777 49.3616 92.8675 48.8165 92.8675 48.1986C92.8675 47.5878 92.7788 47.0534 92.6012 46.5953C92.4237 46.1337 92.1609 45.775 91.8129 45.5193C91.4648 45.2601 91.0352 45.1305 90.5238 45.1305C89.9911 45.1305 89.5472 45.2672 89.1921 45.5406C88.8406 45.8105 88.576 46.178 88.3984 46.6432C88.2244 47.1049 88.1374 47.6234 88.1374 48.1986C88.1374 48.781 88.2262 49.3101 88.4038 49.786C88.5849 50.2583 88.8512 50.6347 89.2028 50.9153C89.5579 51.1922 89.9982 51.3307 90.5238 51.3307ZM101.561 48.9444V44.1077H102.818V52.2896H101.561V50.9046H101.475C101.284 51.3201 100.985 51.6734 100.581 51.9646C100.176 52.2523 99.6644 52.3961 99.0465 52.3961C98.5352 52.3961 98.0806 52.2842 97.6829 52.0605C97.2852 51.8332 96.9727 51.4923 96.7454 51.0378C96.5181 50.5797 96.4045 50.0026 96.4045 49.3066V44.1077H97.6616V49.2214C97.6616 49.818 97.8285 50.2938 98.1623 50.6489C98.4996 51.004 98.9293 51.1816 99.4513 51.1816C99.7638 51.1816 100.082 51.1017 100.405 50.9419C100.732 50.7821 101.005 50.5371 101.225 50.2068C101.449 49.8766 101.561 49.4557 101.561 48.9444ZM105.12 52.2896V44.1077H106.377V52.2896H105.12ZM105.759 42.7441C105.514 42.7441 105.303 42.6606 105.126 42.4937C104.952 42.3268 104.865 42.1262 104.865 41.8918C104.865 41.6574 104.952 41.4568 105.126 41.2899C105.303 41.123 105.514 41.0396 105.759 41.0396C106.005 41.0396 106.214 41.123 106.388 41.2899C106.566 41.4568 106.654 41.6574 106.654 41.8918C106.654 42.1262 106.566 42.3268 106.388 42.4937C106.214 42.6606 106.005 42.7441 105.759 42.7441ZM112.238 44.1077V45.1731H107.998V44.1077H112.238ZM109.234 42.1475H110.491V49.9458C110.491 50.3009 110.542 50.5672 110.645 50.7448C110.752 50.9188 110.887 51.036 111.05 51.0964C111.217 51.1532 111.393 51.1816 111.578 51.1816C111.716 51.1816 111.83 51.1745 111.919 51.1603C112.007 51.1425 112.078 51.1283 112.132 51.1177L112.387 52.2469C112.302 52.2789 112.183 52.3109 112.03 52.3428C111.878 52.3783 111.684 52.3961 111.45 52.3961C111.095 52.3961 110.747 52.3197 110.406 52.167C110.068 52.0143 109.788 51.7817 109.564 51.4692C109.344 51.1567 109.234 50.7626 109.234 50.2867V42.1475ZM117.365 52.46C116.626 52.46 115.978 52.2842 115.421 51.9327C114.867 51.5811 114.434 51.0893 114.121 50.4572C113.812 49.8251 113.658 49.0864 113.658 48.2413C113.658 47.389 113.812 46.645 114.121 46.0094C114.434 45.3737 114.867 44.8801 115.421 44.5285C115.978 44.177 116.626 44.0012 117.365 44.0012C118.104 44.0012 118.75 44.177 119.304 44.5285C119.862 44.8801 120.295 45.3737 120.604 46.0094C120.916 46.645 121.072 47.389 121.072 48.2413C121.072 49.0864 120.916 49.8251 120.604 50.4572C120.295 51.0893 119.862 51.5811 119.304 51.9327C118.75 52.2842 118.104 52.46 117.365 52.46ZM117.365 51.3307C117.926 51.3307 118.388 51.1869 118.75 50.8993C119.112 50.6116 119.38 50.2334 119.554 49.7647C119.728 49.2959 119.815 48.7881 119.815 48.2413C119.815 47.6944 119.728 47.1848 119.554 46.7125C119.38 46.2402 119.112 45.8584 118.75 45.5672C118.388 45.2761 117.926 45.1305 117.365 45.1305C116.804 45.1305 116.342 45.2761 115.98 45.5672C115.618 45.8584 115.35 46.2402 115.176 46.7125C115.002 47.1848 114.915 47.6944 114.915 48.2413C114.915 48.7881 115.002 49.2959 115.176 49.7647C115.35 50.2334 115.618 50.6116 115.98 50.8993C116.342 51.1869 116.804 51.3307 117.365 51.3307ZM130.875 52.4387C130.172 52.4387 129.545 52.318 128.995 52.0765C128.448 51.835 128.013 51.4994 127.69 51.0697C127.37 50.6365 127.196 50.134 127.168 49.5623H128.51C128.538 49.9138 128.659 50.2175 128.872 50.4731C129.085 50.7253 129.364 50.9206 129.708 51.0591C130.053 51.1976 130.435 51.2668 130.854 51.2668C131.322 51.2668 131.738 51.1851 132.1 51.0218C132.462 50.8584 132.746 50.6312 132.952 50.34C133.158 50.0488 133.261 49.7114 133.261 49.3279C133.261 48.9266 133.162 48.5733 132.963 48.2679C132.764 47.9589 132.473 47.7175 132.089 47.5435C131.706 47.3695 131.237 47.2824 130.683 47.2824H129.81V46.1106H130.683C131.116 46.1106 131.496 46.0324 131.823 45.8762C132.153 45.7199 132.411 45.4998 132.595 45.2157C132.784 44.9316 132.878 44.5978 132.878 44.2143C132.878 43.8449 132.796 43.5236 132.633 43.2501C132.469 42.9767 132.239 42.7636 131.94 42.6109C131.646 42.4582 131.297 42.3819 130.896 42.3819C130.52 42.3819 130.165 42.4511 129.831 42.5896C129.501 42.7246 129.231 42.9217 129.021 43.1809C128.812 43.4366 128.698 43.7455 128.68 44.1077H127.402C127.423 43.536 127.595 43.0353 127.919 42.6056C128.242 42.1724 128.664 41.835 129.186 41.5935C129.712 41.3521 130.289 41.2313 130.918 41.2313C131.592 41.2313 132.171 41.368 132.654 41.6415C133.137 41.9114 133.508 42.2682 133.767 42.7121C134.027 43.156 134.156 43.6354 134.156 44.1503C134.156 44.7647 133.995 45.2885 133.671 45.7217C133.352 46.155 132.917 46.455 132.366 46.6219V46.7072C133.055 46.8208 133.593 47.1138 133.98 47.5861C134.367 48.0548 134.561 48.6354 134.561 49.3279C134.561 49.9209 134.399 50.4536 134.076 50.9259C133.757 51.3947 133.32 51.764 132.766 52.0339C132.212 52.3038 131.582 52.4387 130.875 52.4387Z" fill="white"/>
<path fill-rule="evenodd" clip-rule="evenodd" d="M78.6932 86.0738C79.1286 86.1021 79.5636 86.1554 79.996 86.2342C84.1338 80.8021 89.7459 73.1614 92.4173 68.2989C92.4797 68.0661 95.7053 61.6668 99.0697 58.9919C99.5679 58.5971 100.156 58.3316 100.782 58.219C101.407 58.1064 102.051 58.1502 102.655 58.3465C103.26 58.5428 103.807 58.8855 104.247 59.3441C104.687 59.8027 105.007 60.363 105.178 60.9752C106.158 65.0114 106.054 69.2346 104.878 73.218C104.531 74.5926 104.099 75.9444 103.585 77.2659C103.414 77.6782 103.234 78.086 103.045 78.4892L113.226 79.4634L129.688 68.2102C129.982 68.0116 130.343 67.9378 130.691 68.0052C131.039 68.0726 131.347 68.2755 131.546 68.5695C131.658 68.7326 131.732 68.9186 131.764 69.114C131.795 69.3095 131.783 69.5094 131.728 69.6996C131.647 70.0131 131.456 70.2868 131.189 70.47L114.327 81.9763C114.066 82.1571 113.749 82.2393 113.433 82.2081L101.673 81.0843C99.4425 84.8524 96.4156 88.1099 92.7856 90.6183C91.5638 91.4727 90.3948 92.2313 89.2791 92.8938C89.4208 93.0575 89.5641 93.2263 89.7103 93.4013C90.0107 93.7282 90.2836 94.0775 90.5268 94.4454C91.5373 94.1385 93.2011 93.7202 95.3396 93.4913L102.316 87.1716C102.511 86.9917 102.755 86.8738 103.017 86.8327C108.421 86.1185 113.917 86.643 119.088 88.3664C121.144 89.1083 123.395 89.1083 125.451 88.3663L143.006 81.9806C143.34 81.861 143.707 81.8786 144.028 82.0295C144.349 82.1804 144.596 82.4523 144.717 82.7857C144.773 82.9996 144.774 83.2239 144.722 83.4386C144.666 83.647 144.56 83.8388 144.414 83.9975C144.268 84.1562 144.085 84.2772 143.882 84.3501L126.296 90.797C123.653 91.7499 120.761 91.7495 118.118 90.7958C113.479 89.301 108.571 88.823 103.731 89.3943L99.4588 93.3411C106.821 93.5869 117.11 96.6804 126.384 109.257C126.508 109.428 126.59 109.626 126.624 109.835C126.657 110.044 126.64 110.258 126.575 110.459C126.523 110.652 126.43 110.832 126.3 110.984C126.171 111.137 126.008 111.258 125.826 111.34C111.46 117.605 100.99 115.115 94.5015 111.625L96.2762 117.272C100.178 120.196 104.666 122.241 109.433 123.265C112.194 123.762 114.694 125.207 116.504 127.349L128.501 141.654C128.646 141.817 128.749 142.013 128.801 142.225C128.853 142.437 128.852 142.658 128.799 142.87C128.728 143.134 128.578 143.369 128.369 143.545C128.098 143.773 127.747 143.885 127.394 143.855C127.04 143.826 126.713 143.657 126.484 143.387L114.474 129.079C113.057 127.418 111.109 126.298 108.96 125.91C103.623 124.788 98.6085 122.473 94.2928 119.138C94.0865 118.972 93.9342 118.748 93.8554 118.495L90.997 109.406C89.3801 108.213 88.2093 107.087 87.4877 106.316C87.0669 106.537 86.6265 106.723 86.1708 106.869C85.9649 106.934 85.7677 106.998 85.5759 107.06L85.4867 107.089C86.1033 108.187 86.7202 109.387 87.3372 110.689C89.2367 114.654 90.2453 118.968 90.315 123.329L101.093 128.25C101.382 128.381 101.615 128.611 101.751 128.898L110.573 147.397C110.71 147.685 110.741 148.013 110.658 148.321C110.608 148.508 110.518 148.682 110.394 148.83C110.271 148.979 110.117 149.099 109.942 149.183C109.781 149.255 109.607 149.294 109.431 149.299C109.254 149.303 109.079 149.273 108.914 149.21C108.75 149.146 108.599 149.051 108.472 148.929C108.344 148.807 108.242 148.662 108.17 148.5L99.541 130.524L90.2195 126.269C90.1806 126.749 90.1302 127.229 90.0682 127.708C89.8522 129.109 89.5501 130.496 89.1637 131.86C88.1904 135.898 86.1684 139.607 83.3022 142.613C82.8454 143.072 82.2802 143.409 81.6589 143.593C81.0375 143.776 80.3799 143.8 79.7469 143.662C79.1138 143.524 78.5257 143.229 78.0369 142.804C77.548 142.379 77.1741 141.837 76.9498 141.23C75.5977 137.656 75.8035 131.595 75.8544 130.098L75.8544 130.097L75.8544 130.097L75.8544 130.097C75.8606 129.914 75.8645 129.799 75.8629 129.766C75.9894 124.278 74.9504 114.9 74.0814 108.132C73.6713 107.984 73.2715 107.812 72.8838 107.619C70.8485 112.131 66.1045 115.464 65.8788 115.614C65.6326 115.785 65.3359 115.869 65.0365 115.852C64.737 115.834 64.452 115.717 64.2273 115.518C64.2273 115.518 60.0791 111.496 59.2676 110.696C59.1767 110.617 59.0688 110.559 58.9523 110.528C58.8357 110.497 58.7135 110.492 58.5951 110.516C55.6494 110.697 49.4109 117.218 46.169 121.298C46.0587 121.435 45.9224 121.549 45.7679 121.633C45.6135 121.717 45.4439 121.771 45.269 121.789C45.094 121.808 44.917 121.792 44.7482 121.743C44.5794 121.693 44.422 121.61 44.2851 121.5C44.0086 121.28 43.8304 120.959 43.7894 120.608C43.7485 120.257 43.8481 119.903 44.0665 119.625L44.1204 119.559C45.2784 118.139 53.4242 108.145 58.4258 107.837C58.9197 107.795 59.4169 107.859 59.8841 108.025C60.3512 108.191 60.7776 108.454 61.1346 108.798C61.7161 109.37 63.9913 111.587 65.2474 112.797C66.6682 111.63 69.4573 109.068 70.6459 106.154C69.6361 105.308 68.7715 104.285 68.1002 103.122C67.6078 102.269 67.2325 101.364 66.9775 100.43C66.8431 100.525 66.7041 100.614 66.5611 100.696C65.9474 101.051 65.27 101.281 64.5674 101.373C63.8648 101.466 63.151 101.419 62.4665 101.236C61.782 101.052 61.1404 100.736 60.5782 100.304C60.016 99.873 59.5443 99.3351 59.19 98.7214C58.8357 98.1077 58.6057 97.4303 58.5132 96.7277C58.4207 96.0252 58.4675 95.3113 58.6509 94.6268L59.8327 90.2165C60.2031 88.8342 61.1074 87.6556 62.3468 86.94C63.5862 86.2244 65.059 86.0305 66.4414 86.4009C67.8237 86.7713 69.0023 87.6757 69.7179 88.9151C69.7998 89.057 69.8749 89.2019 69.9431 89.3494C70.632 88.6662 71.4112 88.0683 72.266 87.5748C73.4148 86.9115 74.6588 86.4607 75.9399 86.2301C76.4091 83.0898 75.239 79.4871 74.5789 77.7574L69.0175 79.1644C68.5363 79.2837 68.0353 79.2988 67.5478 79.2088C67.0603 79.1189 66.5977 78.9258 66.1908 78.6426C61.9412 75.8266 59.8748 62.7417 59.6497 61.2536C59.5971 60.9013 59.6865 60.5425 59.8985 60.2561C60.1104 59.9697 60.4274 59.7793 60.7797 59.7266C61.132 59.674 61.4909 59.7635 61.7772 59.9754C62.0636 60.1873 62.2541 60.5043 62.3067 60.8566C63.0707 66.0239 65.213 74.7904 67.6735 76.42C67.7616 76.4996 67.8674 76.5571 67.982 76.5878C68.0967 76.6185 68.217 76.6216 68.3331 76.5967L75.1075 74.9049C75.4097 74.8314 75.728 74.8655 76.0079 75.0012C76.2877 75.1368 76.5115 75.3657 76.641 75.6484C76.7616 75.8911 79.1531 81.1384 78.6932 86.0738ZM87.5727 124.05C87.5697 124.08 87.5677 124.111 87.5667 124.141C87.5651 124.187 87.566 124.234 87.5692 124.28C87.5493 125.299 87.4731 126.32 87.3397 127.338C86.3164 134.881 83.2013 138.954 81.4242 140.723C81.2841 140.862 81.1117 140.964 80.9226 141.02C80.7335 141.076 80.5334 141.084 80.3405 141.043C80.1437 141.001 79.9609 140.909 79.8096 140.776C79.6583 140.644 79.5436 140.474 79.4763 140.285C78.122 136.803 78.5545 130.015 78.5857 129.899C78.7288 123.952 77.5901 113.926 76.6933 107.039C76.6895 106.985 76.6825 106.931 76.6722 106.878C76.4285 105.012 76.2037 103.384 76.0288 102.142C76.0145 102.041 76.0184 101.939 76.0404 101.84C76.0802 101.674 76.1783 101.528 76.3169 101.429C76.4123 101.345 76.5297 101.291 76.6551 101.273C76.7805 101.255 76.9084 101.274 77.0234 101.327C79.4225 102.358 82.2694 106.115 84.8915 111.849C86.7091 115.672 87.6198 119.846 87.5727 124.05ZM86.5747 103.746C86.172 103.998 85.7376 104.199 85.2812 104.344L85.2811 104.344L85.281 104.344L85.2809 104.344L85.2808 104.344L85.2807 104.344L85.2805 104.344L85.2804 104.344L85.2803 104.344L85.2791 104.344C84.8709 104.473 84.4626 104.601 84.056 104.724C82.0449 101.656 80.0384 99.6807 78.0433 98.8138C77.4866 98.5789 76.8767 98.4991 76.2783 98.5828C75.6799 98.6666 75.1153 98.9107 74.6445 99.2893C74.1586 99.6613 73.7803 100.156 73.5482 100.722C73.3161 101.288 73.2386 101.906 73.3236 102.512C73.424 103.224 73.5409 104.064 73.6684 105.005C73.546 104.935 73.4254 104.863 73.3067 104.788C73.1406 104.573 72.9123 104.413 72.6515 104.331C71.7563 103.642 70.9949 102.78 70.4193 101.783C69.5098 100.207 69.1228 98.3982 69.292 96.6109L70.0427 93.8093C70.7898 92.1768 72.0296 90.8035 73.6049 89.894C74.6029 89.3178 75.6946 88.9513 76.8152 88.8031C77.0498 88.8442 77.2905 88.8218 77.5125 88.7393C77.7019 88.7296 77.8916 88.7261 78.0815 88.7288C77.5122 89.4652 77.0004 90.1226 76.5645 90.68C76.1879 91.1623 75.9462 91.736 75.8641 92.3424C75.782 92.9488 75.8624 93.5661 76.0972 94.1312C76.3119 94.6969 76.6777 95.1929 77.1548 95.5652C77.6318 95.9374 78.2019 96.1717 78.8029 96.2424C80.9704 96.5035 83.6694 95.8208 86.8853 94.2087C87.1761 94.5119 87.4712 94.821 87.7521 95.1223C88.1362 95.5424 88.4533 96.0165 88.6944 96.5275C88.7009 96.5447 88.7077 96.5618 88.7148 96.5788C88.7309 96.6168 88.7486 96.6538 88.7679 96.6899C88.8952 96.9833 88.9979 97.288 89.0742 97.6009C89.2998 98.525 89.289 99.491 89.0428 100.41C88.7966 101.329 88.3229 102.171 87.6655 102.858C87.549 102.98 87.4274 103.096 87.3011 103.207C87.1512 103.252 87.009 103.324 86.8816 103.421C86.7606 103.512 86.6573 103.622 86.5747 103.746ZM89.6365 104.695C92.7025 107.941 103.705 117.26 123.242 109.497C113.44 97.0202 102.949 95.448 96.5409 95.9773C96.4875 96.0058 96.4321 96.0307 96.375 96.0518C96.2094 96.1131 96.0334 96.1412 95.8569 96.1345C95.7459 96.1302 95.6361 96.1123 95.53 96.0812C93.8441 96.2887 92.5072 96.6265 91.6279 96.8942C91.6379 96.9313 91.6475 96.9685 91.6569 97.0058C91.9961 98.3504 91.9947 99.7584 91.6529 101.102C91.294 102.445 90.6042 103.677 89.6465 104.684L89.6365 104.695ZM101.089 76.2366C100.744 77.0607 100.36 77.8652 99.9395 78.6477C99.8289 78.7501 99.736 78.8704 99.6647 79.0037C99.6009 79.1231 99.5554 79.2511 99.5296 79.3836C97.4631 82.9636 94.6131 86.0491 91.1763 88.3989C85.9865 92.0402 81.6942 93.8843 79.1011 93.5776L79.1493 93.6044C79.0259 93.5907 78.9089 93.5423 78.8119 93.4648C78.7149 93.3873 78.6418 93.2838 78.6013 93.1664C78.5471 93.0398 78.5276 92.901 78.5447 92.7643C78.5619 92.6276 78.615 92.4979 78.6988 92.3886C82.3234 87.7596 91.1528 76.2773 94.8152 69.593C94.8455 69.5318 97.8647 63.4375 100.753 61.0923C100.906 60.9617 101.09 60.8725 101.287 60.8332C101.484 60.7938 101.689 60.8057 101.88 60.8677C102.067 60.9291 102.237 61.036 102.373 61.1788C102.509 61.3217 102.607 61.4961 102.659 61.6863C103.317 64.0943 103.975 69.1916 101.089 76.2366ZM67.6315 92.3062L67.3938 93.1933C67.2254 93.6129 67.0814 94.0443 66.9632 94.4855C66.845 94.9268 66.754 95.3724 66.69 95.82L66.4498 96.7165C66.2632 97.4128 65.8076 98.0065 65.1833 98.3669C64.559 98.7274 63.8171 98.825 63.1208 98.6385C62.4245 98.4519 61.8308 97.9963 61.4703 97.372C61.1099 96.7477 61.0122 96.0058 61.1988 95.3095L62.3805 90.8992C62.5671 90.2029 63.0227 89.6092 63.647 89.2488C64.2713 88.8883 65.0132 88.7906 65.7095 88.9772C66.4058 89.1638 66.9995 89.6194 67.3599 90.2437C67.7204 90.868 67.8181 91.6099 67.6315 92.3062Z" fill="white"/>
<defs>
<filter id="filter0_bf_206_5985" x="11.9172" y="11.9191" width="163.744" height="163.741" filterUnits="userSpaceOnUse" color-interpolation-filters="sRGB">
<feFlood flood-opacity="0" result="BackgroundImageFix"/>
<feGaussianBlur in="BackgroundImageFix" stdDeviation="5.85"/>
<feComposite in2="SourceAlpha" operator="in" result="effect1_backgroundBlur_206_5985"/>
<feBlend mode="normal" in="SourceGraphic" in2="effect1_backgroundBlur_206_5985" result="shape"/>
<feGaussianBlur stdDeviation="2" result="effect2_foregroundBlur_206_5985"/>
</filter>
</defs>
</svg>
