<?xml version="1.0" encoding="utf-8"?>
<!-- Generator: Adobe Illustrator 28.3.0, SVG Export Plug-In . SVG Version: 6.00 Build 0)  -->
<svg version="1.1" id="Calque_1" xmlns="http://www.w3.org/2000/svg" xmlns:xlink="http://www.w3.org/1999/xlink" x="0px" y="0px"
	 viewBox="0 0 87.9 87.9" style="enable-background:new 0 0 87.9 87.9;" xml:space="preserve">
<style type="text/css">
	.st0{fill:#FFFFFF;}
	.st1{fill-rule:evenodd;clip-rule:evenodd;fill:#1752E2;}
</style>
<circle class="st0" cx="67.2" cy="62.3" r="19.2"/>
<g>
	<path class="st1" d="M82.6,60.3c-0.1-1.4-1.4-2.8-4.2-2.8h-0.1c-3,0-5-0.1-6.3-0.3l2.3-0.9c0.2-0.1,0.4-0.3,0.5-0.5s0.1-0.5,0-0.7
		L74,53l3.7-3.4c0.4-0.3,0.4-0.9,0.1-1.3c-0.3-0.4-0.9-0.4-1.3-0.1l-4.2,3.9c-0.3,0.2-0.4,0.7-0.2,1l0.8,1.8l-3.1,1.2
		c-0.3-0.8-0.9-1.3-1.5-1.7c1.1-2.6,3.5-2.7,3.6-2.7l0,0c0.5,0,0.9-0.4,0.9-0.9s-0.4-0.9-0.9-0.9c-1,0-2.6,0.4-3.9,1.7v-3
		c0-0.5-0.4-0.9-0.9-0.9s-0.9,0.4-0.9,0.9v2.9C65,50.4,63.4,50,62.4,50c-0.5,0-0.9,0.4-0.9,0.9s0.4,0.9,0.9,0.9l0,0
		c0,0,2.5,0,3.6,2.7c-0.6,0.3-1.2,0.9-1.5,1.7l-3-1.2l0.8-1.8c0.2-0.3,0.1-0.8-0.2-1l-4.2-3.9c-0.4-0.3-0.9-0.3-1.3,0
		c-0.3,0.4-0.3,0.9,0.1,1.3l3.7,3.4l-0.9,2.1c-0.1,0.2-0.1,0.5,0,0.7s0.3,0.4,0.5,0.5l2.4,0.9c-1.3,0.2-3.2,0.3-6.3,0.3H56
		c-2.7,0-4.1,1.4-4.2,2.8c-0.1,1.8,1.7,3.9,6,4.5h0.1v1.7l-3.1,4.1c-0.3,0.4-0.2,1,0.2,1.3c0.2,0.1,0.4,0.2,0.5,0.2l0,0
		c0.3,0,0.5-0.1,0.7-0.4l3.3-4.3c0.1-0.2,0.2-0.4,0.2-0.5v-2c0.8-0.1,1.7-0.3,2.5-0.6l-0.7,0.5c-0.2,0.2-0.4,0.5-0.4,0.7v4.7
		L58.6,76c-0.2,0.5,0,1,0.5,1.2c0.1,0.1,0.2,0.1,0.4,0.1c0.3,0,0.7-0.2,0.8-0.6l2.6-6c0.1-0.1,0.1-0.2,0.1-0.4v-4.4l1.8-1.3
		c-0.1,2.1,0.3,4.6,1.8,6.3c0.2,0.2,0.4,0.3,0.7,0.3c0.3,0,0.5-0.1,0.6-0.3c1.5-1.6,1.9-4.1,1.8-6.3l1.8,1.3v4.4
		c0,0.1,0,0.2,0.1,0.4l2.6,6c0.1,0.3,0.5,0.5,0.8,0.5c0.1,0,0.2,0,0.3-0.1c0.5-0.2,0.7-0.7,0.5-1.2l-2.5-5.8v-4.7
		c0-0.3-0.1-0.6-0.4-0.7l-0.7-0.5c0.8,0.3,1.7,0.5,2.5,0.6v2c0,0.2,0.1,0.4,0.2,0.5l3.3,4.3c0.2,0.2,0.5,0.4,0.7,0.4l0,0
		c0.2,0,0.4-0.1,0.5-0.2c0.4-0.3,0.5-0.9,0.2-1.3l-3.1-4.1v-1.7h0.1C80.9,64.3,82.7,62.2,82.6,60.3z M65.9,58.2c0-0.2,0-0.4,0.1-0.6
		v-0.1c0.2-0.8,0.7-1.4,1.2-1.4l0,0l0,0l0,0c0.6,0,1.3,0.9,1.3,2.1c0,1.2-0.7,2.1-1.3,2.1S65.9,59.4,65.9,58.2z M53.6,60.5
		c0-0.6,0.9-1.2,2.4-1.2c3.8,0,6.5-0.2,8.1-0.6c0.1,0.8,0.4,1.5,0.7,2.1c-1.6,1.3-4.1,2.2-6.1,2.3c-0.3,0-0.5,0-0.8,0
		C54.7,62.6,53.5,61.2,53.6,60.5z M67.2,68.7c-0.8-1.7-0.7-4.1-0.5-5.7v-0.1c0-0.3,0.1-0.6,0.1-0.8c0.1,0,0.2,0,0.4,0
		c0.1,0,0.2,0,0.3,0C67.8,63.6,68.2,66.6,67.2,68.7z M76.3,63c-0.2,0-0.5,0-0.8,0c-2,0-4.5-1-6.1-2.3c0.4-0.6,0.7-1.3,0.7-2.1
		c1.6,0.4,4.4,0.6,8.2,0.6c1.5,0,2.4,0.6,2.4,1.2C80.8,61.2,79.7,62.6,76.3,63z"/>
	<path class="st1" d="M71,43.2V6.5c0-0.4-0.2-0.7-0.6-0.8c-0.1-0.1-0.3-0.1-0.4-0.1H2c-0.1,0-0.1,0-0.2,0s-0.2,0-0.3,0.1
		c-0.1,0-0.2,0.1-0.3,0.2l0,0C1.1,6,1.1,6.1,1,6.2c0,0.1,0,0.2,0,0.3v7.8v0.1v12v0.1v11v0.1v12.9v0.1v12v0.1v5.8v0.1v6.1
		c0,0.3,0,0.5,0.2,0.7c0,0,0.1,0,0.1,0.1c0.1,0.1,0.3,0.2,0.5,0.2c0,0,0,0,0.1,0l0,0l0,0H8l0,0l0,0h6.2l0,0l0,0h9.3l0,0l0,0h3.7l0,0
		l0,0h13l0,0l0,0h12.2c3.6,4,8.8,6.6,14.7,6.6c10.9,0,19.7-8.8,19.7-19.7C86.9,53,80.1,45,71,43.2z M67.2,42.8c-0.4,0-0.7,0-1,0.1
		L63.3,40l5.4-5.4l0.5,0.5v7.8C68.5,42.8,67.9,42.8,67.2,42.8z M47.4,62.5c0,1.2,0.1,2.3,0.3,3.5l-0.3,0.3L42.1,61l6.5-6.5l0.3,0.3
		C48,57.2,47.4,59.8,47.4,62.5z M23.9,73.8l-3.7-3.7l6.5-6.5l5.3,5.3l-5,5h-3.1V73.8z M8.3,73.8l-2.1-2.1l6.5-6.5l4.9,4.9l-3.7,3.7
		H8.3z M14.8,7.5l2.4,2.4l-5.4,5.4L7,10.5l3-3C10,7.5,14.8,7.5,14.8,7.5z M28.2,7.5l1.7,1.7l-5.4,5.4l-4.8-4.8l2.4-2.4L28.2,7.5
		L28.2,7.5z M41.6,7.5l1.1,1.1L37.2,14l-4.8-4.8l1.7-1.7H41.6z M54.9,7.5L55.4,8L50,13.3l-4.8-4.8l1.1-1.1L54.9,7.5L54.9,7.5z
		 M67.9,7.5l-5.2,5.2l-4.8-4.8l0.5-0.5h9.5V7.5z M2.8,63l3.9-3.9l4.8,4.8L5,70.4l-2.2-2.2V63z M7.9,57.9l6.5-6.5l4.8,4.8l-6.5,6.5
		L7.9,57.9z M2.8,51l5.6-5.6l4.8,4.8l-6.5,6.5l-3.9-3.9C2.8,52.8,2.8,51,2.8,51z M2.8,26.8l1.3-1.3l4.8,4.8l-6.1,6.1
		C2.8,36.4,2.8,26.8,2.8,26.8z M2.8,14.7l3-3l4.8,4.8L4.1,23l-1.3-1.3V14.7z M11.8,17.8l4.8,4.8L10.1,29l-4.8-4.8L11.8,17.8z
		 M23.4,42.4l6.5-6.5l4.8,4.8l-6.5,6.5L23.4,42.4z M27,48.4l-6.5,6.5l-4.8-4.8l6.5-6.5L27,48.4z M23.9,29.8l4.8,4.8l-6.5,6.5
		l-4.8-4.8L23.9,29.8z M16.1,35.1l-4.8-4.8l6.5-6.5l4.8,4.8L16.1,35.1z M41.4,34L36,39.4l-4.8-4.8l5.4-5.4L41.4,34z M37.9,27.9
		l5.4-5.4l4.8,4.8l-5.4,5.4L37.9,27.9z M29.9,33.3l-4.8-4.8l5.4-5.4l4.8,4.8L29.9,33.3z M36,41.9l4.9,4.9l-6.5,6.5l-4.9-4.9L36,41.9
		z M37.3,40.6l5.4-5.4l4.9,4.9l-5.4,5.4L37.3,40.6z M43.9,34l5.4-5.4l4.9,4.9l-5.4,5.4L43.9,34z M50.6,27.3l5.4-5.4l4.9,4.9
		l-5.4,5.4L50.6,27.3z M57.3,20.6l5.4-5.4l4.9,4.9l-5.4,5.4L57.3,20.6z M56,19.4l-4.8-4.8l5.4-5.4l4.8,4.8L56,19.4z M54.7,20.6
		L49.3,26l-4.8-4.8l5.4-5.4L54.7,20.6z M43.3,20l-4.8-4.8l5.4-5.4l4.8,4.8L43.3,20z M42,21.3l-5.4,5.4l-4.8-4.8l5.4-5.4L42,21.3z
		 M30.6,20.6l-4.8-4.8l5.4-5.4l4.8,4.8L30.6,20.6z M29.3,21.9l-5.4,5.4l-4.8-4.8l5.4-5.4L29.3,21.9z M17.9,21.3l-4.8-4.8l5.4-5.4
		l4.8,4.8L17.9,21.3z M10.1,31.6l4.8,4.8l-6.5,6.5l-4.8-4.8L10.1,31.6z M16.2,37.6l4.8,4.8l-6.5,6.5l-4.8-4.8L16.2,37.6z M20.5,57.4
		l4.9,4.9l-6.5,6.5L14,63.9L20.5,57.4z M21.7,56.2l6.5-6.5l4.9,4.9l-6.5,6.5L21.7,56.2z M34.4,55.8l5.3,5.3l-6.5,6.5l-5.3-5.3
		L34.4,55.8z M35.6,54.6l6.5-6.5l5.3,5.3l-6.5,6.5L35.6,54.6z M43.4,46.8l4.7-4.7l0.7-0.7l5.3,5.3L48.7,52L43.4,46.8z M50.1,40.1
		l5.4-5.4l5.3,5.3l-5.4,5.4L50.1,40.1z M56.7,33.5l5.4-5.4l5.3,5.3L62,38.7L56.7,33.5z M63.4,26.8l5.4-5.4l0.4,0.4v9.8L68.7,32
		L63.4,26.8z M69.2,18.5l-0.4,0.4L63.9,14l5.3-5.3C69.2,8.7,69.2,18.5,69.2,18.5z M31.2,7.9l-0.5-0.5h0.9L31.2,7.9z M18.5,8.6
		l-1.1-1.1h2.2L18.5,8.6z M5.8,9.2L4.1,7.5h3.4L5.8,9.2z M2.8,8.7l1.8,1.8l-1.8,1.8V8.7z M2.8,24.2L2.8,24.2L2.8,24.2L2.8,24.2z
		 M2.8,39.8l4.3,4.3l-4.3,4.3C2.8,48.4,2.8,39.8,2.8,39.8z M2.8,55.3l2.6,2.6l-2.6,2.6C2.8,60.5,2.8,55.3,2.8,55.3z M3.7,71.7
		l-0.9,0.9v-1.8L3.7,71.7z M5,73l0.9,0.9H4.1L5,73z M18.9,71.4l2.5,2.5h-4.9L18.9,71.4z M33.1,70.1l3.7,3.7h-7.4L33.1,70.1z
		 M39.4,73.8l-5-5l6.5-6.5l5.3,5.3L40,73.8H39.4z M62,41.2l1.8,1.8c-1.9,0.3-3.8,0.9-5.5,1.8L62,41.2z M42.5,73.8l5-5l1.8,1.8
		c0.5,1.1,1.1,2.2,1.8,3.2H42.5z M67.2,80.5c-9.9,0-17.9-8.1-17.9-17.9c0-9.9,8.1-17.9,17.9-17.9c9.9,0,17.9,8.1,17.9,17.9
		S77.1,80.5,67.2,80.5z"/>
</g>
</svg>
