<svg width="214" height="214" viewBox="0 0 214 214" fill="none" xmlns="http://www.w3.org/2000/svg">
<g filter="url(#filter0_bf_285_19)">
<circle cx="106.599" cy="106.6" r="75.9237" transform="rotate(38.1226 106.599 106.6)" fill="white" fill-opacity="0.3"/>
</g>
<path d="M99.5645 138.417C101.99 136.876 104.262 135.286 106.295 133.706L103.463 138.411C103.153 138.927 103.157 139.565 103.468 140.07L109.286 152.034L103.174 167.143C102.843 167.963 103.237 168.894 104.055 169.221C104.85 169.536 105.808 169.131 106.135 168.327L112.49 152.615C112.575 152.403 112.611 152.171 112.596 152.038C112.618 151.737 112.571 151.473 112.453 151.225L106.652 139.294L112.743 129.174C112.815 129.26 112.892 129.342 112.971 129.422C114.226 130.677 116.099 131.019 117.71 130.343L131.005 143.638L133.074 141.565L119.78 128.271C120.456 126.66 120.115 124.787 118.859 123.531C118.779 123.452 118.696 123.375 118.611 123.303L128.731 117.212L140.662 123.012C140.904 123.13 141.168 123.178 141.374 123.157C141.617 123.169 141.845 123.133 142.058 123.047L157.764 116.695C158.566 116.369 158.974 115.409 158.657 114.614C158.331 113.798 157.399 113.404 156.58 113.735L141.471 119.847L129.505 114.028C128.997 113.718 128.36 113.714 127.847 114.026L123.144 116.856C124.723 114.824 126.315 112.552 127.854 110.125C129.812 107.042 139.329 91.5018 134.478 88.4379C132.143 86.9635 128.962 89.7025 126.774 91.8907C123.904 94.7602 120.667 98.9515 117.659 103.692C117.057 104.639 115.422 107.277 113.771 110.465L116.555 94.7372C116.651 94.1963 116.452 93.6428 116.046 93.2795L116.031 93.2554L109.065 86.8423L110.205 71.7363C110.229 71.31 110.084 70.8998 109.798 70.5837C109.512 70.2684 109.121 70.0835 108.698 70.0627C107.856 70.0197 107.063 70.7233 107.015 71.5802L105.836 87.3548L105.918 87.9329C106 88.2509 106.15 88.5141 106.368 88.7131L113.257 95.0561L110.213 112.244C109.564 111.914 108.879 111.67 108.184 111.522L103.803 96.2705C103.841 95.793 103.671 95.3353 103.329 95.0081L94.3193 86.405L90.8622 73.7573C90.6302 72.9097 89.7515 72.4115 88.9011 72.647C88.6359 72.721 88.391 72.8638 88.1951 73.0597C87.7868 73.468 87.6294 74.066 87.7813 74.6168L91.3495 87.6706L91.4362 87.8927C91.4616 87.9481 91.4906 88.0027 91.5259 88.0637C91.5542 88.1133 91.5966 88.1828 91.6653 88.27L91.7098 88.3445L100.647 96.8802L104.717 111.056C102.989 108.562 100.399 105.538 97.447 102.587C96.245 101.385 85.6222 90.9116 83.0271 93.5067C83.0121 93.5217 82.9979 93.5373 82.9843 93.5523L82.943 93.5936C80.3479 96.1888 90.8217 106.811 92.0237 108.013C94.9726 110.962 97.9949 113.554 100.49 115.283L86.3186 111.216L77.8771 102.377L77.763 102.26L77.702 102.226C77.6319 102.172 77.5645 102.13 77.4957 102.09C77.4404 102.059 77.3865 102.029 77.3276 102.003L64.0539 98.3457C63.2375 98.1236 62.3152 98.6378 62.0854 99.4655C61.9699 99.8758 62.0211 100.306 62.2296 100.677C62.4395 101.048 62.7819 101.316 63.1936 101.429L75.8413 104.886L84.4458 113.896C84.7723 114.239 85.2314 114.407 85.7068 114.371L100.959 118.75C101.108 119.445 101.351 120.13 101.681 120.779L84.4924 123.822L78.1536 116.937C77.9532 116.717 77.6901 116.564 77.4437 116.505L77.2251 116.451L77.0586 117.243L77.1171 116.432L61.0201 117.578C60.1802 117.622 59.4646 118.408 59.5025 119.26C59.5219 119.685 59.7083 120.078 60.0264 120.362C60.3417 120.648 60.7498 120.791 61.1761 120.767L76.28 119.627L82.6343 126.529L82.6939 126.582C83.0571 127.005 83.6227 127.215 84.1764 127.116L99.9018 124.333C96.712 125.985 94.0749 127.62 93.129 128.22C88.3885 131.228 84.1979 134.465 81.3277 137.335C79.1402 139.523 76.4027 142.701 77.8749 145.04C80.9374 149.889 96.4789 140.373 99.5645 138.417ZM114.392 116.683C115.366 114.252 117.171 110.404 120.354 105.391C123.238 100.846 126.318 96.8517 129.027 94.1426C131.052 92.1175 132.186 91.4967 132.682 91.3063C132.747 92.7817 131.387 98.6106 125.158 108.425C122.275 112.971 119.194 116.965 116.485 119.674C115.889 120.27 115.37 120.744 114.921 121.121C115.206 119.715 115.033 118.164 114.392 116.683ZM83.581 139.589C86.288 136.882 90.2834 133.801 94.8289 130.915C99.842 127.732 103.69 125.928 106.119 124.956C107.602 125.596 109.152 125.769 110.557 125.485C110.181 125.933 109.707 126.453 109.11 127.049C106.403 129.757 102.407 132.837 97.8617 135.722C88.0512 141.948 82.2201 143.308 80.744 143.244C80.9345 142.748 81.5552 141.614 83.581 139.589Z" fill="#001AFF"/>
<path d="M69.321 49.6524H70.8977L74.6051 58.7078H74.733L78.4403 49.6524H80.017V60.5615H78.7812V52.2732H78.6747L75.2656 60.5615H74.0724L70.6634 52.2732H70.5568V60.5615H69.321V49.6524ZM85.8192 60.732C85.0805 60.732 84.4324 60.5562 83.8749 60.2046C83.3209 59.8531 82.8877 59.3612 82.5752 58.7291C82.2662 58.097 82.1118 57.3584 82.1118 56.5132C82.1118 55.661 82.2662 54.917 82.5752 54.2813C82.8877 53.6457 83.3209 53.1521 83.8749 52.8005C84.4324 52.449 85.0805 52.2732 85.8192 52.2732C86.5578 52.2732 87.2041 52.449 87.7581 52.8005C88.3156 53.1521 88.7488 53.6457 89.0578 54.2813C89.3703 54.917 89.5265 55.661 89.5265 56.5132C89.5265 57.3584 89.3703 58.097 89.0578 58.7291C88.7488 59.3612 88.3156 59.8531 87.7581 60.2046C87.2041 60.5562 86.5578 60.732 85.8192 60.732ZM85.8192 59.6027C86.3802 59.6027 86.8419 59.4589 87.2041 59.1713C87.5663 58.8836 87.8344 58.5054 88.0084 58.0367C88.1824 57.5679 88.2694 57.0601 88.2694 56.5132C88.2694 55.9664 88.1824 55.4568 88.0084 54.9845C87.8344 54.5122 87.5663 54.1304 87.2041 53.8392C86.8419 53.548 86.3802 53.4024 85.8192 53.4024C85.2581 53.4024 84.7964 53.548 84.4342 53.8392C84.072 54.1304 83.8039 54.5122 83.6299 54.9845C83.4559 55.4568 83.3689 55.9664 83.3689 56.5132C83.3689 57.0601 83.4559 57.5679 83.6299 58.0367C83.8039 58.5054 84.072 58.8836 84.4342 59.1713C84.7964 59.4589 85.2581 59.6027 85.8192 59.6027ZM97.2409 54.2121L96.1117 54.5317C96.0407 54.3435 95.9359 54.1606 95.7974 53.983C95.6625 53.8019 95.4778 53.6528 95.2434 53.5356C95.0091 53.4184 94.709 53.3598 94.3432 53.3598C93.8425 53.3598 93.4252 53.4752 93.0914 53.7061C92.7612 53.9333 92.5961 54.2227 92.5961 54.5743C92.5961 54.8868 92.7097 55.1336 92.937 55.3147C93.1642 55.4958 93.5194 55.6468 94.0023 55.7675L95.2168 56.0658C95.9483 56.2433 96.4934 56.515 96.8521 56.8808C97.2108 57.243 97.3901 57.71 97.3901 58.2817C97.3901 58.7504 97.2551 59.1695 96.9853 59.5388C96.7189 59.9081 96.3461 60.1993 95.8667 60.4124C95.3873 60.6254 94.8297 60.732 94.1941 60.732C93.3596 60.732 92.6689 60.5509 92.122 60.1887C91.5751 59.8264 91.2289 59.2973 91.0833 58.6013L92.2765 58.303C92.3901 58.7433 92.6049 59.0736 92.921 59.2938C93.2406 59.5139 93.6578 59.624 94.1728 59.624C94.7587 59.624 95.2239 59.4997 95.5684 59.2512C95.9164 58.999 96.0904 58.6972 96.0904 58.3456C96.0904 58.0615 95.9909 57.8236 95.7921 57.6318C95.5932 57.4365 95.2878 57.2909 94.8759 57.195L93.5123 56.8754C92.763 56.6979 92.2125 56.4227 91.861 56.0498C91.513 55.6734 91.339 55.2029 91.339 54.6382C91.339 54.1766 91.4686 53.7682 91.7278 53.4131C91.9906 53.058 92.3475 52.7792 92.7985 52.5768C93.253 52.3744 93.7679 52.2732 94.3432 52.2732C95.1529 52.2732 95.7885 52.4507 96.2502 52.8058C96.7154 53.161 97.0456 53.6297 97.2409 54.2121ZM104.865 63.6297V59.3044H104.758C104.666 59.4536 104.535 59.6418 104.364 59.8691C104.194 60.0928 103.95 60.2934 103.634 60.471C103.318 60.645 102.897 60.732 102.372 60.732C101.69 60.732 101.088 60.5597 100.566 60.2153C100.044 59.8673 99.6357 59.3772 99.341 58.7451C99.0463 58.1095 98.8989 57.3584 98.8989 56.4919C98.8989 55.6325 99.0463 54.8868 99.341 54.2547C99.6357 53.6226 100.046 53.1343 100.571 52.7899C101.097 52.4454 101.704 52.2732 102.393 52.2732C102.926 52.2732 103.347 52.3619 103.656 52.5395C103.968 52.7135 104.206 52.9124 104.369 53.1361C104.536 53.3563 104.666 53.5374 104.758 53.6794H104.907V52.3797H106.122V63.6297H104.865ZM102.542 59.6027C103.047 59.6027 103.473 59.4713 103.821 59.2085C104.169 58.9422 104.433 58.5747 104.614 58.1059C104.796 57.6336 104.886 57.0885 104.886 56.4706C104.886 55.8598 104.797 55.3254 104.62 54.8673C104.442 54.4056 104.179 54.047 103.831 53.7913C103.483 53.532 103.054 53.4024 102.542 53.4024C102.01 53.4024 101.566 53.5392 101.211 53.8126C100.859 54.0825 100.595 54.45 100.417 54.9152C100.243 55.3769 100.156 55.8953 100.156 56.4706C100.156 57.053 100.245 57.5821 100.422 58.058C100.603 58.5303 100.87 58.9067 101.221 59.1872C101.576 59.4642 102.017 59.6027 102.542 59.6027ZM113.579 57.2164V52.3797H114.836V60.5615H113.579V59.1766H113.494C113.302 59.5921 113.004 59.9454 112.599 60.2366C112.194 60.5242 111.683 60.6681 111.065 60.6681C110.554 60.6681 110.099 60.5562 109.701 60.3325C109.304 60.1052 108.991 59.7643 108.764 59.3097C108.537 58.8517 108.423 58.2746 108.423 57.5786V52.3797H109.68V57.4933C109.68 58.0899 109.847 58.5658 110.181 58.9209C110.518 59.276 110.948 59.4536 111.47 59.4536C111.782 59.4536 112.1 59.3737 112.423 59.2139C112.75 59.0541 113.024 58.809 113.244 58.4788C113.467 58.1485 113.579 57.7277 113.579 57.2164ZM117.139 60.5615V52.3797H118.396V60.5615H117.139ZM117.778 51.0161C117.533 51.0161 117.322 50.9326 117.144 50.7657C116.97 50.5988 116.883 50.3982 116.883 50.1638C116.883 49.9294 116.97 49.7288 117.144 49.5619C117.322 49.395 117.533 49.3115 117.778 49.3115C118.023 49.3115 118.233 49.395 118.407 49.5619C118.584 49.7288 118.673 49.9294 118.673 50.1638C118.673 50.3982 118.584 50.5988 118.407 50.7657C118.233 50.9326 118.023 51.0161 117.778 51.0161ZM124.257 52.3797V53.445H120.017V52.3797H124.257ZM121.252 50.4195H122.509V58.2178C122.509 58.5729 122.561 58.8392 122.664 59.0168C122.771 59.1908 122.905 59.308 123.069 59.3683C123.236 59.4252 123.411 59.4536 123.596 59.4536C123.735 59.4536 123.848 59.4465 123.937 59.4323C124.026 59.4145 124.097 59.4003 124.15 59.3896L124.406 60.5189C124.321 60.5509 124.202 60.5828 124.049 60.6148C123.896 60.6503 123.703 60.6681 123.468 60.6681C123.113 60.6681 122.765 60.5917 122.424 60.439C122.087 60.2863 121.806 60.0537 121.583 59.7412C121.362 59.4287 121.252 59.0345 121.252 58.5587V50.4195ZM129.384 60.732C128.645 60.732 127.997 60.5562 127.439 60.2046C126.885 59.8531 126.452 59.3612 126.14 58.7291C125.831 58.097 125.676 57.3584 125.676 56.5132C125.676 55.661 125.831 54.917 126.14 54.2813C126.452 53.6457 126.885 53.1521 127.439 52.8005C127.997 52.449 128.645 52.2732 129.384 52.2732C130.122 52.2732 130.769 52.449 131.323 52.8005C131.88 53.1521 132.313 53.6457 132.622 54.2813C132.935 54.917 133.091 55.661 133.091 56.5132C133.091 57.3584 132.935 58.097 132.622 58.7291C132.313 59.3612 131.88 59.8531 131.323 60.2046C130.769 60.5562 130.122 60.732 129.384 60.732ZM129.384 59.6027C129.945 59.6027 130.406 59.4589 130.769 59.1713C131.131 58.8836 131.399 58.5054 131.573 58.0367C131.747 57.5679 131.834 57.0601 131.834 56.5132C131.834 55.9664 131.747 55.4568 131.573 54.9845C131.399 54.5122 131.131 54.1304 130.769 53.8392C130.406 53.548 129.945 53.4024 129.384 53.4024C128.823 53.4024 128.361 53.548 127.999 53.8392C127.636 54.1304 127.368 54.5122 127.194 54.9845C127.02 55.4568 126.933 55.9664 126.933 56.5132C126.933 57.0601 127.02 57.5679 127.194 58.0367C127.368 58.5054 127.636 58.8836 127.999 59.1713C128.361 59.4589 128.823 59.6027 129.384 59.6027ZM143.043 49.6524V60.5615H141.722V51.0374H141.658L138.994 52.8058V51.4635L141.722 49.6524H143.043Z" fill="#1752E2"/>
<defs>
<filter id="filter0_bf_285_19" x="18.9719" y="18.9729" width="175.255" height="175.254" filterUnits="userSpaceOnUse" color-interpolation-filters="sRGB">
<feFlood flood-opacity="0" result="BackgroundImageFix"/>
<feGaussianBlur in="BackgroundImageFix" stdDeviation="5.85"/>
<feComposite in2="SourceAlpha" operator="in" result="effect1_backgroundBlur_285_19"/>
<feBlend mode="normal" in="SourceGraphic" in2="effect1_backgroundBlur_285_19" result="shape"/>
<feGaussianBlur stdDeviation="2" result="effect2_foregroundBlur_285_19"/>
</filter>
</defs>
</svg>
