<svg width="109" height="109" viewBox="0 0 109 109" fill="none" xmlns="http://www.w3.org/2000/svg">
<g filter="url(#filter0_bf_310_16)">
<circle cx="54.5" cy="54.5" r="50.5" fill="#DCE2F5" fill-opacity="0.7"/>
</g>
<path d="M40.755 65.3524C42.7737 65.8031 44.7395 66.15 46.5784 66.3807L42.7425 67.334C42.3218 67.4386 41.999 67.7659 41.9004 68.1806L38.7718 77.2318L27.9701 81.8114C27.3847 82.0602 27.1112 82.7344 27.3615 83.3178C27.6052 83.8824 28.2994 84.1644 28.8754 83.9214L40.1072 79.1585C40.2581 79.0936 40.3945 78.9941 40.4547 78.9184C40.6193 78.7771 40.7296 78.6184 40.7956 78.4324L43.9162 69.4064L52.1674 67.3556C52.1602 67.4364 52.1573 67.5172 52.1573 67.5979C52.1573 68.8757 52.9363 70.0028 54.1006 70.4794L54.1006 84.0129L56.2086 84.0115L56.2086 70.478C57.3728 70.0021 58.1526 68.875 58.1526 67.5965C58.1526 67.5157 58.149 67.4342 58.1424 67.3542L66.3937 69.405L69.5143 78.4302C69.5774 78.6134 69.6876 78.772 69.803 78.8665C69.9205 78.9963 70.0554 79.0936 70.207 79.1585L81.4352 83.9199C82.009 84.1622 82.7054 83.881 82.9484 83.3149C83.1979 82.7337 82.9245 82.0588 82.3391 81.8107L71.5374 77.231L68.4088 68.1784C68.308 67.7623 67.9859 67.4357 67.5659 67.3333L63.7315 66.38C65.5696 66.1493 67.5362 65.8031 69.5549 65.3517C72.1206 64.7785 84.875 61.7131 83.9654 57.6843C83.5272 55.7453 80.514 55.5203 78.2863 55.5203C75.3652 55.5203 71.5838 56.0056 67.6399 56.8875C66.8514 57.0635 64.6767 57.574 62.2133 58.3564L71.636 51.7677C71.9603 51.5413 72.1409 51.1584 72.1191 50.7669L72.1235 50.7467L71.842 43.9366L80.1114 36.8281C80.3406 36.6233 80.4756 36.3406 80.4908 36.0342C80.506 35.7284 80.4008 35.4349 80.1963 35.2092C79.7893 34.7585 79.0277 34.7131 78.5671 35.1249L69.9379 42.5543L69.6855 42.8903C69.5651 43.0937 69.5077 43.3042 69.5172 43.5162L69.795 50.2513L59.4967 57.4507C59.3342 56.9524 59.1101 56.4794 58.8315 56.0503L64.3648 46.0574C64.6274 45.8338 64.7739 45.5144 64.7659 45.1733L64.5592 36.2087L69.2372 28.0113C69.5505 27.4618 69.3569 26.7609 68.8041 26.4479C68.6315 26.3506 68.4342 26.2987 68.2347 26.2987C67.819 26.2987 67.4346 26.5229 67.2315 26.8806L62.4033 35.3412L62.3344 35.4984C62.3192 35.5395 62.3061 35.582 62.2931 35.6311C62.2822 35.6707 62.2684 35.7277 62.259 35.807L62.2437 35.8676L62.4483 44.7616L57.3046 54.0486C57.6941 51.8997 57.9147 49.042 57.9147 46.0372C57.9147 44.8135 57.8385 34.0757 55.1966 34.0757C55.1814 34.0757 55.1662 34.0764 55.1517 34.0771L55.1096 34.0771C52.4677 34.0771 52.3923 44.8149 52.3923 46.0386C52.3923 49.0406 52.6114 51.8983 53.0009 54.0486L47.8579 44.7652L48.0603 35.9693L48.0618 35.8517L48.048 35.8034C48.04 35.74 48.0269 35.6844 48.0124 35.6289C48.0001 35.5849 47.9878 35.5424 47.9711 35.4991L43.0762 26.8813C42.7737 26.3527 42.0425 26.1451 41.5043 26.4494C41.2366 26.5994 41.0437 26.8445 40.961 27.1395C40.879 27.4351 40.9167 27.7459 41.0691 28.0127L45.7471 36.2101L45.5403 45.1762C45.5324 45.5166 45.6803 45.836 45.9407 46.0595L51.4754 56.0518C51.1969 56.4815 50.9727 56.9538 50.8102 57.4521L40.512 50.252L40.7898 43.5213C40.7999 43.3071 40.7441 43.0951 40.6483 42.9401L40.5649 42.8009L40.0767 43.1196L40.5192 42.7367L31.7428 35.1263C31.2931 34.721 30.5285 34.7571 30.1143 35.2099C29.9076 35.4364 29.8024 35.7313 29.8198 36.0378C29.835 36.3435 29.97 36.624 30.1992 36.8288L38.4671 43.9366L38.1886 50.6839L38.1915 50.7416C38.161 51.1418 38.3423 51.5363 38.6746 51.7677L48.0951 58.3557C45.631 57.5726 43.4563 57.0627 42.6693 56.8868C38.7253 56.0049 34.9446 55.5196 32.0228 55.5196C29.7959 55.5196 26.7848 55.7439 26.3438 57.6836C25.4341 61.7109 38.1886 64.7777 40.755 65.3524ZM59.3647 61.8371C61.0976 61.0958 63.9752 60.0553 68.1469 59.1243C71.9284 58.2785 75.5292 57.8134 78.2871 57.8134C80.3486 57.8134 81.2416 58.0744 81.5912 58.2302C80.8731 59.014 77.2142 61.2891 69.0479 63.1142C65.2664 63.96 61.6656 64.4251 58.9077 64.4251C58.3006 64.4251 57.795 64.402 57.375 64.3653C58.2353 63.7949 58.9367 62.9173 59.3647 61.8371ZM32.0228 57.8134C34.7785 57.8134 38.3801 58.2792 42.1629 59.1236C46.3346 60.0553 49.2115 61.0958 50.943 61.8371C51.3717 62.918 52.0731 63.7949 52.9327 64.3653C52.5127 64.402 52.0071 64.4251 51.4 64.4251C48.6435 64.4251 45.042 63.9593 41.2598 63.1142C33.0971 61.2898 29.4368 59.014 28.7179 58.2302C29.0676 58.0744 29.9605 57.8134 32.0228 57.8134Z" fill="#1752E2"/>
<defs>
<filter id="filter0_bf_310_16" x="0" y="0" width="109" height="109" filterUnits="userSpaceOnUse" color-interpolation-filters="sRGB">
<feFlood flood-opacity="0" result="BackgroundImageFix"/>
<feGaussianBlur in="BackgroundImageFix" stdDeviation="2"/>
<feComposite in2="SourceAlpha" operator="in" result="effect1_backgroundBlur_310_16"/>
<feBlend mode="normal" in="SourceGraphic" in2="effect1_backgroundBlur_310_16" result="shape"/>
<feGaussianBlur stdDeviation="2" result="effect2_foregroundBlur_310_16"/>
</filter>
</defs>
</svg>
