<svg width="385" height="61" viewBox="0 0 385 61" fill="none" xmlns="http://www.w3.org/2000/svg">
<circle cx="5.65084" cy="5.65084" r="5.65084" transform="matrix(4.37114e-08 -1 -1 -4.37114e-08 26.3164 59.7728)" fill="#1752E2"/>
<circle cx="5.65084" cy="5.65084" r="5.65084" transform="matrix(4.37114e-08 -1 -1 -4.37114e-08 120.082 27.8949)" fill="white"/>
<circle cx="5.65084" cy="5.65084" r="5.65084" transform="matrix(4.37114e-08 -1 -1 -4.37114e-08 135.621 27.8949)" fill="white"/>
<circle cx="5.65084" cy="5.65084" r="5.65084" transform="matrix(4.37114e-08 -1 -1 -4.37114e-08 151.156 27.8949)" fill="white"/>
<circle cx="5.65084" cy="5.65084" r="5.65084" transform="matrix(4.37114e-08 -1 -1 -4.37114e-08 166.695 27.8949)" fill="white"/>
<circle cx="5.65084" cy="5.65084" r="5.65084" transform="matrix(4.37114e-08 -1 -1 -4.37114e-08 182.238 27.8949)" fill="white"/>
<circle cx="5.65084" cy="5.65084" r="5.65084" transform="matrix(4.37114e-08 -1 -1 -4.37114e-08 197.781 27.8949)" fill="white"/>
<circle cx="5.65084" cy="5.65084" r="5.65084" transform="matrix(4.37114e-08 -1 -1 -4.37114e-08 213.324 27.8949)" fill="white"/>
<circle cx="5.65084" cy="5.65084" r="5.65084" transform="matrix(4.37114e-08 -1 -1 -4.37114e-08 228.863 27.8949)" fill="white"/>
<circle cx="5.65084" cy="5.65084" r="5.65084" transform="matrix(4.37114e-08 -1 -1 -4.37114e-08 244.398 27.8949)" fill="white"/>
<circle cx="5.65084" cy="5.65084" r="5.65084" transform="matrix(4.37114e-08 -1 -1 -4.37114e-08 103.375 60.1074)" fill="white"/>
<circle cx="5.65084" cy="5.65084" r="5.65084" transform="matrix(4.37114e-08 -1 -1 -4.37114e-08 120.082 12.3551)" fill="white"/>
<circle cx="5.65084" cy="5.65084" r="5.65084" transform="matrix(4.37114e-08 -1 -1 -4.37114e-08 135.621 12.3551)" fill="white"/>
<circle cx="5.65084" cy="5.65084" r="5.65084" transform="matrix(4.37114e-08 -1 -1 -4.37114e-08 151.156 12.3551)" fill="white"/>
<circle cx="5.65084" cy="5.65084" r="5.65084" transform="matrix(4.37114e-08 -1 -1 -4.37114e-08 166.695 12.3551)" fill="white"/>
<circle cx="5.65084" cy="5.65084" r="5.65084" transform="matrix(4.37114e-08 -1 -1 -4.37114e-08 182.238 12.3551)" fill="white"/>
<circle cx="5.65084" cy="5.65084" r="5.65084" transform="matrix(4.37114e-08 -1 -1 -4.37114e-08 197.781 12.3551)" fill="white"/>
<circle cx="5.65084" cy="5.65084" r="5.65084" transform="matrix(4.37114e-08 -1 -1 -4.37114e-08 213.324 12.3551)" fill="white"/>
<circle cx="5.65084" cy="5.65084" r="5.65084" transform="matrix(4.37114e-08 -1 -1 -4.37114e-08 228.863 12.3551)" fill="white"/>
<circle cx="5.65084" cy="5.65084" r="5.65084" transform="matrix(4.37114e-08 -1 -1 -4.37114e-08 244.398 12.3551)" fill="white"/>
<circle cx="5.65084" cy="5.65084" r="5.65084" transform="matrix(1 8.74228e-08 8.74228e-08 -1 77.0586 60.1074)" fill="white"/>
<circle cx="5.65084" cy="5.65084" r="5.65084" transform="matrix(4.37114e-08 -1 -1 -4.37114e-08 384.512 27.1036)" fill="white"/>
<circle cx="5.65084" cy="5.65084" r="5.65084" transform="matrix(4.37114e-08 -1 -1 -4.37114e-08 275.73 11.3016)" fill="white"/>
<circle cx="5.65084" cy="5.65084" r="5.65084" transform="matrix(4.37114e-08 -1 -1 -4.37114e-08 291.27 11.3016)" fill="white"/>
<circle cx="5.65084" cy="5.65084" r="5.65084" transform="matrix(4.37114e-08 -1 -1 -4.37114e-08 306.805 11.3016)" fill="white"/>
<circle cx="5.65084" cy="5.65084" r="5.65084" transform="matrix(4.37114e-08 -1 -1 -4.37114e-08 322.355 11.3016)" fill="white"/>
<circle cx="5.65084" cy="5.65084" r="5.65084" transform="matrix(4.37114e-08 -1 -1 -4.37114e-08 337.891 11.3016)" fill="white"/>
<circle cx="5.65084" cy="5.65084" r="5.65084" transform="matrix(4.37114e-08 -1 -1 -4.37114e-08 353.434 11.3016)" fill="white"/>
<circle cx="5.65084" cy="5.65084" r="5.65084" transform="matrix(4.37114e-08 -1 -1 -4.37114e-08 368.973 11.3016)" fill="white"/>
<circle cx="5.65084" cy="5.65084" r="5.65084" transform="matrix(4.37114e-08 -1 -1 -4.37114e-08 384.512 11.3016)" fill="white"/>
<circle cx="5.65084" cy="5.65084" r="5.65084" transform="matrix(4.37114e-08 -1 -1 -4.37114e-08 57.3711 59.7728)" fill="white"/>
<circle cx="5.65084" cy="5.65084" r="5.65084" transform="matrix(4.37114e-08 -1 -1 -4.37114e-08 72.9531 59.7728)" fill="white"/>
<circle cx="5.65084" cy="5.65084" r="5.65084" transform="matrix(4.37114e-08 -1 -1 -4.37114e-08 228.305 59.7728)" fill="white"/>
<circle cx="5.65084" cy="5.65084" r="5.65084" transform="matrix(4.37114e-08 -1 -1 -4.37114e-08 243.84 59.7728)" fill="white"/>
<circle cx="5.65084" cy="5.65084" r="5.65084" transform="matrix(4.37114e-08 -1 -1 -4.37114e-08 259.379 59.7728)" fill="white"/>
<circle cx="5.65084" cy="5.65084" r="5.65084" transform="matrix(4.37114e-08 -1 -1 -4.37114e-08 274.918 59.7728)" fill="white"/>
<circle cx="5.65084" cy="5.65084" r="5.65084" transform="matrix(4.37114e-08 -1 -1 -4.37114e-08 290.461 59.7728)" fill="white"/>
<circle cx="5.65084" cy="5.65084" r="5.65084" transform="matrix(4.37114e-08 -1 -1 -4.37114e-08 306.004 59.7728)" fill="white"/>
<circle cx="5.65084" cy="5.65084" r="5.65084" transform="matrix(4.37114e-08 -1 -1 -4.37114e-08 321.547 59.7728)" fill="white"/>
<circle cx="5.65084" cy="5.65084" r="5.65084" transform="matrix(4.37114e-08 -1 -1 -4.37114e-08 337.086 59.7728)" fill="white"/>
<circle cx="5.65084" cy="5.65084" r="5.65084" transform="matrix(4.37114e-08 -1 -1 -4.37114e-08 352.621 59.7728)" fill="white"/>
<circle cx="5.65084" cy="5.65084" r="5.65084" transform="matrix(4.37114e-08 -1 -1 -4.37114e-08 134.434 60.1074)" fill="white"/>
<circle cx="5.65084" cy="5.65084" r="5.65084" transform="matrix(4.37114e-08 -1 -1 -4.37114e-08 228.305 44.233)" fill="white"/>
<circle cx="5.65084" cy="5.65084" r="5.65084" transform="matrix(4.37114e-08 -1 -1 -4.37114e-08 243.84 44.233)" fill="white"/>
<circle cx="5.65084" cy="5.65084" r="5.65084" transform="matrix(4.37114e-08 -1 -1 -4.37114e-08 259.379 44.233)" fill="white"/>
<circle cx="5.65084" cy="5.65084" r="5.65084" transform="matrix(4.37114e-08 -1 -1 -4.37114e-08 274.918 44.233)" fill="white"/>
<circle cx="5.65084" cy="5.65084" r="5.65084" transform="matrix(4.37114e-08 -1 -1 -4.37114e-08 290.461 44.233)" fill="white"/>
<circle cx="5.65084" cy="5.65084" r="5.65084" transform="matrix(4.37114e-08 -1 -1 -4.37114e-08 306.004 44.233)" fill="white"/>
<circle cx="5.65084" cy="5.65084" r="5.65084" transform="matrix(4.37114e-08 -1 -1 -4.37114e-08 321.547 44.233)" fill="white"/>
<circle cx="5.65084" cy="5.65084" r="5.65084" transform="matrix(4.37114e-08 -1 -1 -4.37114e-08 337.086 44.233)" fill="white"/>
<circle cx="5.65084" cy="5.65084" r="5.65084" transform="matrix(4.37114e-08 -1 -1 -4.37114e-08 352.621 44.233)" fill="white"/>
<circle cx="5.65084" cy="5.65084" r="5.65084" transform="matrix(4.37114e-08 -1 -1 -4.37114e-08 41.8516 59.7728)" fill="#1752E2"/>
<circle cx="5.65084" cy="5.65084" r="5.65084" transform="matrix(4.37114e-08 -1 -1 -4.37114e-08 367.613 59.7728)" fill="white"/>
<circle cx="5.65084" cy="5.65084" r="5.65084" transform="matrix(4.37114e-08 -1 -1 -4.37114e-08 383.152 59.7728)" fill="white"/>
<circle cx="5.65084" cy="5.65084" r="5.65084" transform="matrix(4.37114e-08 -1 -1 -4.37114e-08 11.3008 27.8949)" fill="#1752E2"/>
<circle cx="5.65084" cy="5.65084" r="5.65084" transform="matrix(4.37114e-08 -1 -1 -4.37114e-08 26.8398 27.8949)" fill="#1752E2"/>
<circle cx="5.65084" cy="5.65084" r="5.65084" transform="matrix(4.37114e-08 -1 -1 -4.37114e-08 42.3789 27.8949)" fill="white"/>
<circle cx="5.65084" cy="5.65084" r="5.65084" transform="matrix(4.37114e-08 -1 -1 -4.37114e-08 57.9219 27.8949)" fill="white"/>
<circle cx="5.65084" cy="5.65084" r="5.65084" transform="matrix(4.37114e-08 -1 -1 -4.37114e-08 73.457 27.8949)" fill="white"/>
<circle cx="5.65084" cy="5.65084" r="5.65084" transform="matrix(4.37114e-08 -1 -1 -4.37114e-08 89 27.8949)" fill="white"/>
<circle cx="5.65084" cy="5.65084" r="5.65084" transform="matrix(4.37114e-08 -1 -1 -4.37114e-08 104.543 27.8949)" fill="white"/>
<circle cx="5.65084" cy="5.65084" r="5.65084" transform="matrix(4.37114e-08 -1 -1 -4.37114e-08 118.91 60.1074)" fill="white"/>
<circle cx="5.65084" cy="5.65084" r="5.65084" transform="matrix(4.37114e-08 -1 -1 -4.37114e-08 367.613 44.233)" fill="white"/>
<circle cx="5.65084" cy="5.65084" r="5.65084" transform="matrix(4.37114e-08 -1 -1 -4.37114e-08 383.152 44.233)" fill="white"/>
<circle cx="5.65084" cy="5.65084" r="5.65084" transform="matrix(4.37114e-08 -1 -1 -4.37114e-08 11.3008 12.3551)" fill="#1752E2"/>
<circle cx="5.65084" cy="5.65084" r="5.65084" transform="matrix(4.37114e-08 -1 -1 -4.37114e-08 26.8398 12.3551)" fill="#1752E2"/>
<circle cx="5.65084" cy="5.65084" r="5.65084" transform="matrix(4.37114e-08 -1 -1 -4.37114e-08 42.3789 12.3551)" fill="white"/>
<circle cx="5.65084" cy="5.65084" r="5.65084" transform="matrix(4.37114e-08 -1 -1 -4.37114e-08 57.9219 12.3551)" fill="white"/>
<circle cx="5.65084" cy="5.65084" r="5.65084" transform="matrix(4.37114e-08 -1 -1 -4.37114e-08 73.457 12.3551)" fill="white"/>
<circle cx="5.65084" cy="5.65084" r="5.65084" transform="matrix(4.37114e-08 -1 -1 -4.37114e-08 89 12.3551)" fill="white"/>
<circle cx="5.65084" cy="5.65084" r="5.65084" transform="matrix(4.37114e-08 -1 -1 -4.37114e-08 104.543 12.3551)" fill="white"/>
<circle cx="5.65084" cy="5.65084" r="5.65084" transform="matrix(1 8.74228e-08 8.74228e-08 -1 0 59.7717)" fill="#1752E2"/>
<circle cx="5.65084" cy="5.65084" r="5.65084" transform="matrix(4.37114e-08 -1 -1 -4.37114e-08 260.203 11.3016)" fill="white"/>
<circle cx="5.65084" cy="5.65084" r="5.65084" transform="matrix(4.37114e-08 -1 -1 -4.37114e-08 260.191 27.1036)" fill="white"/>
<circle cx="5.65084" cy="5.65084" r="5.65084" transform="matrix(4.37114e-08 -1 -1 -4.37114e-08 275.73 27.1036)" fill="white"/>
<circle cx="5.65084" cy="5.65084" r="5.65084" transform="matrix(4.37114e-08 -1 -1 -4.37114e-08 291.27 27.1036)" fill="white"/>
<circle cx="5.65084" cy="5.65084" r="5.65084" transform="matrix(4.37114e-08 -1 -1 -4.37114e-08 306.805 27.1036)" fill="white"/>
<circle cx="5.65084" cy="5.65084" r="5.65084" transform="matrix(4.37114e-08 -1 -1 -4.37114e-08 322.355 27.1036)" fill="white"/>
<circle cx="5.65084" cy="5.65084" r="5.65084" transform="matrix(4.37114e-08 -1 -1 -4.37114e-08 337.891 27.1036)" fill="white"/>
<circle cx="5.65084" cy="5.65084" r="5.65084" transform="matrix(4.37114e-08 -1 -1 -4.37114e-08 353.434 27.1036)" fill="white"/>
<circle cx="5.65084" cy="5.65084" r="5.65084" transform="matrix(4.37114e-08 -1 -1 -4.37114e-08 368.973 27.1036)" fill="white"/>
<circle cx="5.65084" cy="5.65084" r="5.65084" transform="matrix(4.37114e-08 -1 -1 -4.37114e-08 11.3008 43.4106)" fill="#1752E2"/>
<circle cx="5.65084" cy="5.65084" r="5.65084" transform="matrix(4.37114e-08 -1 -1 -4.37114e-08 26.8398 43.4106)" fill="#1752E2"/>
<circle cx="5.65084" cy="5.65084" r="5.65084" transform="matrix(4.37114e-08 -1 -1 -4.37114e-08 42.3828 43.4106)" fill="white"/>
<circle cx="5.65084" cy="5.65084" r="5.65084" transform="matrix(4.37114e-08 -1 -1 -4.37114e-08 57.9219 43.4106)" fill="white"/>
<circle cx="5.65084" cy="5.65084" r="5.65084" transform="matrix(4.37114e-08 -1 -1 -4.37114e-08 150.605 59.7728)" fill="white"/>
<circle cx="5.65084" cy="5.65084" r="5.65084" transform="matrix(4.37114e-08 -1 -1 -4.37114e-08 166.141 59.7728)" fill="white"/>
<circle cx="5.65084" cy="5.65084" r="5.65084" transform="matrix(4.37114e-08 -1 -1 -4.37114e-08 181.684 59.7728)" fill="white"/>
<circle cx="5.65084" cy="5.65084" r="5.65084" transform="matrix(4.37114e-08 -1 -1 -4.37114e-08 197.227 59.7728)" fill="white"/>
<circle cx="5.65084" cy="5.65084" r="5.65084" transform="matrix(4.37114e-08 -1 -1 -4.37114e-08 212.77 59.7728)" fill="white"/>
<circle cx="5.65084" cy="5.65084" r="5.65084" transform="matrix(4.37114e-08 -1 -1 -4.37114e-08 88.4414 44.233)" fill="white"/>
<circle cx="5.65084" cy="5.65084" r="5.65084" transform="matrix(4.37114e-08 -1 -1 -4.37114e-08 103.984 44.233)" fill="white"/>
<circle cx="5.65084" cy="5.65084" r="5.65084" transform="matrix(4.37114e-08 -1 -1 -4.37114e-08 119.527 44.233)" fill="white"/>
<circle cx="5.65084" cy="5.65084" r="5.65084" transform="matrix(4.37114e-08 -1 -1 -4.37114e-08 135.062 44.233)" fill="white"/>
<circle cx="5.65084" cy="5.65084" r="5.65084" transform="matrix(4.37114e-08 -1 -1 -4.37114e-08 150.605 44.233)" fill="white"/>
<circle cx="5.65084" cy="5.65084" r="5.65084" transform="matrix(4.37114e-08 -1 -1 -4.37114e-08 166.141 44.233)" fill="white"/>
<circle cx="5.65084" cy="5.65084" r="5.65084" transform="matrix(4.37114e-08 -1 -1 -4.37114e-08 181.684 44.233)" fill="white"/>
<circle cx="5.65084" cy="5.65084" r="5.65084" transform="matrix(4.37114e-08 -1 -1 -4.37114e-08 197.227 44.233)" fill="white"/>
<circle cx="5.65084" cy="5.65084" r="5.65084" transform="matrix(4.37114e-08 -1 -1 -4.37114e-08 212.77 44.233)" fill="white"/>
<circle cx="5.65084" cy="5.65084" r="5.65084" transform="matrix(4.37114e-08 -1 -1 -4.37114e-08 72.9062 44.233)" fill="white"/>
</svg>
