<?xml version="1.0" encoding="UTF-8"?>
<svg id="mosquitoHealthy" xmlns="http://www.w3.org/2000/svg" viewBox="0 0 140.34 140.34">
  <defs>
    <style>
      .cls-1 {
        fill: rgba(23, 82, 226, .3);
      }

      .cls-1, .cls-2 {
        stroke-width: 0px;
      }

      .cls-2 {
        fill: #fff;
      }
    </style>
  </defs>
  <circle class="cls-1" cx="70.17" cy="70.17" r="70.15"/>
  <path class="cls-2" d="M74.24,101.45c1.79-2.25,3.42-4.49,4.83-6.65l-1.14,5.37c-.12.59.09,1.19.55,1.57l9.4,9.41-.85,16.28c-.05.88.63,1.63,1.51,1.68.85.04,1.63-.66,1.68-1.52l.88-16.93c0-.23-.03-.46-.09-.58-.08-.29-.21-.53-.4-.72l-9.38-9.39,2.46-11.55c.1.06.19.11.3.16,1.6.78,3.48.49,4.78-.67l16.9,8.23,1.28-2.63-16.9-8.23c.11-1.74-.82-3.4-2.42-4.18-.1-.05-.21-.09-.31-.13l7.58-9.06,13.17,1.59c.27.03.53,0,.72-.1.23-.07.44-.18.61-.33l12.78-11.13c.65-.57.72-1.61.17-2.26-.57-.67-1.58-.73-2.25-.15l-12.29,10.71-13.21-1.6c-.58-.13-1.18.08-1.57.54l-3.52,4.21c.83-2.44,1.59-5.1,2.26-7.9.84-3.55,4.77-21.35-.81-22.66-2.69-.63-4.8,2.99-6.16,5.78-1.78,3.65-3.47,8.67-4.77,14.13-.26,1.09-.94,4.12-1.47,7.67l-2.5-15.78c-.09-.54-.45-1-.96-1.21l-.02-.02-8.68-3.79-3.85-14.65c-.12-.41-.39-.75-.76-.96-.37-.21-.8-.25-1.21-.13-.81.23-1.33,1.16-1.1,1.98l4.03,15.3.27.52c.18.27.41.47.68.59l8.58,3.75,2.73,17.24c-.72-.1-1.45-.11-2.15-.02l-9.11-12.99c-.12-.46-.43-.84-.86-1.04l-11.32-5.19-7.39-10.83c-.5-.73-1.49-.91-2.22-.41-.23.16-.41.37-.53.62-.25.52-.21,1.14.12,1.61l7.63,11.18.15.18s.09.09.14.13c.04.04.11.09.2.15l.07.06,11.23,5.15,8.47,12.07c-2.45-1.79-5.88-3.81-9.63-5.64-1.53-.74-14.99-7.18-16.59-3.88,0,.02-.02.04-.03.06l-.03.05c-1.61,3.3,11.76,9.92,13.29,10.67,3.75,1.83,7.45,3.29,10.38,4.11l-14.72.78-10.86-5.6-.15-.07h-.07c-.08-.04-.16-.06-.24-.07-.06-.01-.12-.02-.19-.03l-13.74.87c-.84.06-1.55.84-1.5,1.7.02.43.21.82.53,1.1.32.28.73.42,1.16.4l13.08-.86,11.07,5.71c.42.22.91.23,1.35.04l15.85-.84c.37.61.82,1.18,1.34,1.68l-15.26,8.48-8.24-4.44c-.26-.14-.56-.2-.81-.18l-.22.02.1.8-.21-.79-14.84,6.33c-.78.32-1.2,1.29-.89,2.08.16.4.46.71.85.87.39.17.82.17,1.22,0l13.91-6,8.26,4.45.07.03c.48.28,1.08.29,1.57.02l13.96-7.76c-2.48,2.6-4.44,5.01-5.13,5.88-3.5,4.39-6.41,8.82-8.18,12.47-1.35,2.78-2.91,6.68-.75,8.41,4.48,3.59,16.07-10.48,18.34-13.33ZM81.17,76.07c.13-2.62.58-6.84,1.95-12.62,1.24-5.24,2.85-10.02,4.53-13.46,1.25-2.57,2.12-3.53,2.53-3.87.54,1.37,1.16,7.33-1.53,18.64-1.24,5.24-2.85,10.02-4.53,13.46-.37.76-.71,1.38-1.01,1.88-.19-1.42-.86-2.83-1.95-4.02ZM59.51,107.77c1.68-3.44,4.45-7.66,7.8-11.87,3.7-4.64,6.75-7.6,8.73-9.32,1.61.12,3.13-.22,4.37-.95-.21.55-.49,1.19-.86,1.95-1.68,3.44-4.45,7.66-7.81,11.87-7.24,9.08-12.31,12.27-13.73,12.69.02-.53.24-1.8,1.49-4.38Z"/>
  <path class="cls-2" d="M33.82,28.67v-8.18h1.21v1.28h.11c.17-.44.45-.78.83-1.02.38-.25.84-.37,1.37-.37s.99.12,1.35.37c.36.24.64.58.85,1.02h.09c.21-.42.52-.76.94-1.01.42-.25.92-.38,1.51-.38.73,0,1.33.23,1.8.69.47.45.7,1.16.7,2.13v5.48h-1.26v-5.48c0-.6-.17-1.04-.5-1.29-.33-.26-.72-.39-1.17-.39-.58,0-1.02.17-1.34.52-.32.34-.47.78-.47,1.31v5.33h-1.28v-5.6c0-.47-.15-.84-.45-1.12-.3-.29-.69-.43-1.17-.43-.33,0-.63.09-.92.26-.28.17-.51.42-.68.72-.17.31-.26.66-.26,1.06v5.11h-1.26ZM50.18,28.84c-.74,0-1.39-.18-1.94-.53-.55-.35-.99-.84-1.3-1.48-.31-.63-.46-1.37-.46-2.22s.15-1.6.46-2.23c.31-.64.75-1.13,1.3-1.48.56-.35,1.21-.53,1.94-.53s1.39.18,1.94.53c.56.35.99.85,1.3,1.48.31.64.47,1.38.47,2.23s-.16,1.58-.47,2.22c-.31.63-.74,1.12-1.3,1.48-.55.35-1.2.53-1.94.53ZM50.18,27.71c.56,0,1.02-.14,1.39-.43.36-.29.63-.67.8-1.13.17-.47.26-.98.26-1.52s-.09-1.06-.26-1.53c-.17-.47-.44-.85-.8-1.15s-.82-.44-1.39-.44-1.02.15-1.38.44c-.36.29-.63.67-.8,1.15-.17.47-.26.98-.26,1.53s.09,1.05.26,1.52c.17.47.44.85.8,1.13.36.29.82.43,1.38.43ZM61.6,22.32l-1.13.32c-.07-.19-.18-.37-.31-.55-.13-.18-.32-.33-.55-.45-.24-.12-.53-.18-.9-.18-.5,0-.92.12-1.25.35-.33.23-.5.52-.5.87,0,.31.11.56.34.74.23.18.58.33,1.07.45l1.21.3c.73.18,1.28.45,1.64.81.36.36.54.83.54,1.4,0,.47-.13.89-.4,1.26-.27.37-.64.66-1.12.87-.48.21-1.04.32-1.67.32-.83,0-1.53-.18-2.07-.54-.55-.36-.89-.89-1.04-1.59l1.19-.3c.11.44.33.77.64.99.32.22.74.33,1.25.33.59,0,1.05-.12,1.4-.37.35-.25.52-.55.52-.91,0-.28-.1-.52-.3-.71-.2-.2-.5-.34-.92-.44l-1.36-.32c-.75-.18-1.3-.45-1.65-.83-.35-.38-.52-.85-.52-1.41,0-.46.13-.87.39-1.23.26-.36.62-.63,1.07-.84.45-.2.97-.3,1.55-.3.81,0,1.44.18,1.91.53.46.36.79.82.99,1.41ZM69.23,31.74v-4.33h-.11c-.09.15-.22.34-.39.56-.17.22-.41.42-.73.6-.32.17-.74.26-1.26.26-.68,0-1.28-.17-1.81-.52-.52-.35-.93-.84-1.23-1.47-.29-.64-.44-1.39-.44-2.25s.15-1.61.44-2.24c.3-.63.71-1.12,1.23-1.46.53-.34,1.13-.52,1.82-.52.53,0,.95.09,1.26.27.31.17.55.37.71.6.17.22.3.4.39.54h.15v-1.3h1.21v11.25h-1.26ZM66.91,27.71c.5,0,.93-.13,1.28-.39.35-.27.61-.63.79-1.1.18-.47.27-1.02.27-1.64s-.09-1.15-.27-1.6c-.18-.46-.44-.82-.79-1.08-.35-.26-.78-.39-1.29-.39s-.98.14-1.33.41c-.35.27-.62.64-.79,1.1-.17.46-.26.98-.26,1.56s.09,1.11.27,1.59c.18.47.45.85.8,1.13.35.28.79.42,1.32.42ZM77.94,25.33v-4.84h1.26v8.18h-1.26v-1.38h-.09c-.19.42-.49.77-.89,1.06-.4.29-.92.43-1.53.43-.51,0-.97-.11-1.36-.34-.4-.23-.71-.57-.94-1.02-.23-.46-.34-1.04-.34-1.73v-5.2h1.26v5.11c0,.6.17,1.07.5,1.43.34.36.77.53,1.29.53.31,0,.63-.08.95-.24.33-.16.6-.4.82-.74.22-.33.34-.75.34-1.26ZM81.5,28.67v-8.18h1.26v8.18h-1.26ZM82.14,19.13c-.24,0-.46-.08-.63-.25-.17-.17-.26-.37-.26-.6s.09-.44.26-.6c.18-.17.39-.25.63-.25s.46.08.63.25c.18.17.27.37.27.6s-.09.43-.27.6c-.17.17-.38.25-.63.25ZM88.62,20.49v1.07h-4.24v-1.07h4.24ZM85.62,18.53h1.26v7.8c0,.36.05.62.15.8.11.17.24.29.4.35.17.06.34.09.53.09.14,0,.25,0,.34-.02.09-.02.16-.03.21-.04l.26,1.13c-.09.03-.2.06-.36.1-.15.04-.35.05-.58.05-.35,0-.7-.08-1.04-.23-.34-.15-.62-.39-.84-.7-.22-.31-.33-.71-.33-1.18v-8.14ZM93.75,28.84c-.74,0-1.39-.18-1.94-.53-.55-.35-.99-.84-1.3-1.48-.31-.63-.46-1.37-.46-2.22s.15-1.6.46-2.23c.31-.64.75-1.13,1.3-1.48.56-.35,1.21-.53,1.94-.53s1.38.18,1.94.53c.56.35.99.85,1.3,1.48.31.64.47,1.38.47,2.23s-.16,1.58-.47,2.22c-.31.63-.74,1.12-1.3,1.48-.55.35-1.2.53-1.94.53ZM93.75,27.71c.56,0,1.02-.14,1.38-.43.36-.29.63-.67.8-1.13.17-.47.26-.98.26-1.52s-.09-1.06-.26-1.53c-.17-.47-.44-.85-.8-1.15s-.82-.44-1.38-.44-1.02.15-1.39.44-.63.67-.8,1.15c-.17.47-.26.98-.26,1.53s.09,1.05.26,1.52c.17.47.44.85.8,1.13.36.29.82.43,1.39.43ZM99.35,28.67v-.96l3.6-3.94c.42-.46.77-.86,1.04-1.2.27-.34.48-.67.61-.97.13-.31.2-.62.2-.96,0-.38-.09-.72-.28-1-.18-.28-.43-.5-.75-.65-.32-.15-.67-.23-1.07-.23-.42,0-.78.09-1.1.26-.31.17-.55.41-.72.72-.17.31-.25.67-.25,1.09h-1.26c0-.64.15-1.2.44-1.68.29-.48.7-.86,1.2-1.13.51-.27,1.08-.4,1.72-.4s1.21.13,1.7.4c.49.27.88.63,1.16,1.09.28.46.42.97.42,1.53,0,.4-.07.79-.22,1.18-.14.38-.39.8-.75,1.27-.35.47-.84,1.03-1.46,1.7l-2.45,2.62v.09h5.07v1.17h-6.88Z"/>
</svg>