<?xml version="1.0" encoding="utf-8"?>
<!-- Generator: Adobe Illustrator 28.3.0, SVG Export Plug-In . SVG Version: 6.00 Build 0)  -->
<svg version="1.1" xmlns="http://www.w3.org/2000/svg" xmlns:xlink="http://www.w3.org/1999/xlink" x="0px" y="0px"
	 viewBox="0 0 235 235" style="enable-background:new 0 0 235 235;" xml:space="preserve">
<style type="text/css">
	.st0{fill:#1752E2;fill-opacity:0.3;}
	.st1{fill:#FFFFFF;}
	.st2{display:none;}
	.st3{display:inline;}
	.st4{display:inline;fill:#667CFF;}
	.st5{fill:#FFFFFF;fill-opacity:0.9;}
	.st6{fill:#001AFF;}
	.st7{display:inline;fill:#001AFF;}
</style>
<g id="mosquitoHealthy">
	<g>
		<circle class="st0" cx="117.5" cy="117.5" r="70.2"/>
	</g>
	<path class="st1" d="M121.6,148.8c1.8-2.2,3.4-4.5,4.8-6.6l-1.1,5.4c-0.1,0.6,0.1,1.2,0.5,1.6l9.4,9.4l-0.9,16.3
		c0,0.9,0.6,1.6,1.5,1.7c0.9,0,1.6-0.7,1.7-1.5l0.9-16.9c0-0.2,0-0.5-0.1-0.6c-0.1-0.3-0.2-0.5-0.4-0.7l-9.4-9.4l2.5-11.6
		c0.1,0.1,0.2,0.1,0.3,0.2c1.6,0.8,3.5,0.5,4.8-0.7l16.9,8.2l1.3-2.6l-16.9-8.2c0.1-1.7-0.8-3.4-2.4-4.2c-0.1,0-0.2-0.1-0.3-0.1
		l7.6-9.1l13.2,1.6c0.3,0,0.5,0,0.7-0.1c0.2-0.1,0.4-0.2,0.6-0.3l12.8-11.1c0.7-0.6,0.7-1.6,0.2-2.3c-0.6-0.7-1.6-0.7-2.2-0.2
		l-12.3,10.7l-13.2-1.6c-0.6-0.1-1.2,0.1-1.6,0.5l-3.5,4.2c0.8-2.4,1.6-5.1,2.3-7.9c0.8-3.6,4.8-21.3-0.8-22.7
		c-2.7-0.6-4.8,3-6.2,5.8c-1.8,3.6-3.5,8.7-4.8,14.1c-0.3,1.1-0.9,4.1-1.5,7.7l-2.5-15.8c-0.1-0.5-0.5-1-1-1.2l0,0l-8.7-3.8
		l-3.8-14.7c-0.1-0.4-0.4-0.8-0.8-1c-0.4-0.2-0.8-0.3-1.2-0.1c-0.8,0.2-1.3,1.2-1.1,2l4,15.3l0.3,0.5c0.2,0.3,0.4,0.5,0.7,0.6
		l8.6,3.7l2.7,17.2c-0.7-0.1-1.4-0.1-2.2,0l-9.1-13c-0.1-0.5-0.4-0.8-0.9-1l-11.3-5.2l-7.4-10.8c-0.5-0.7-1.5-0.9-2.2-0.4
		c-0.2,0.2-0.4,0.4-0.5,0.6c-0.3,0.5-0.2,1.1,0.1,1.6l7.6,11.2l0.2,0.2c0,0,0.1,0.1,0.1,0.1c0,0,0.1,0.1,0.2,0.2l0.1,0.1l11.2,5.2
		l8.5,12.1c-2.4-1.8-5.9-3.8-9.6-5.6c-1.5-0.7-15-7.2-16.6-3.9c0,0,0,0,0,0.1l0,0.1c-1.6,3.3,11.8,9.9,13.3,10.7
		c3.8,1.8,7.5,3.3,10.4,4.1l-14.7,0.8l-10.9-5.6l-0.1-0.1l-0.1,0c-0.1,0-0.2,0-0.2-0.1c-0.1,0-0.1,0-0.2,0l-13.7,0.9
		c-0.8,0.1-1.5,0.8-1.5,1.7c0,0.4,0.2,0.8,0.5,1.1c0.3,0.3,0.7,0.4,1.2,0.4l13.1-0.9l11.1,5.7c0.4,0.2,0.9,0.2,1.3,0l15.8-0.8
		c0.4,0.6,0.8,1.2,1.3,1.7l-15.3,8.5l-8.2-4.4c-0.3-0.1-0.6-0.2-0.8-0.2l-0.2,0l0.1,0.8l-0.2-0.8l-14.8,6.3
		c-0.8,0.3-1.2,1.3-0.9,2.1c0.2,0.4,0.5,0.7,0.9,0.9c0.4,0.2,0.8,0.2,1.2,0l13.9-6l8.3,4.5l0.1,0c0.5,0.3,1.1,0.3,1.6,0l14-7.8
		c-2.5,2.6-4.4,5-5.1,5.9c-3.5,4.4-6.4,8.8-8.2,12.5c-1.4,2.8-2.9,6.7-0.8,8.4C107.7,165.7,119.3,151.6,121.6,148.8z M128.5,123.4
		c0.1-2.6,0.6-6.8,2-12.6c1.2-5.2,2.9-10,4.5-13.5c1.3-2.6,2.1-3.5,2.5-3.9c0.5,1.4,1.2,7.3-1.5,18.6c-1.2,5.2-2.9,10-4.5,13.5
		c-0.4,0.8-0.7,1.4-1,1.9C130.3,126,129.6,124.6,128.5,123.4z M106.8,155.1c1.7-3.4,4.4-7.7,7.8-11.9c3.7-4.6,6.8-7.6,8.7-9.3
		c1.6,0.1,3.1-0.2,4.4-0.9c-0.2,0.5-0.5,1.2-0.9,2c-1.7,3.4-4.4,7.7-7.8,11.9c-7.2,9.1-12.3,12.3-13.7,12.7
		C105.4,159,105.6,157.7,106.8,155.1z"/>
	<path class="st1" d="M81.2,76v-8.2h1.2v1.3h0.1c0.2-0.4,0.4-0.8,0.8-1c0.4-0.2,0.8-0.4,1.4-0.4c0.5,0,1,0.1,1.3,0.4
		c0.4,0.2,0.6,0.6,0.8,1h0.1c0.2-0.4,0.5-0.8,0.9-1c0.4-0.3,0.9-0.4,1.5-0.4c0.7,0,1.3,0.2,1.8,0.7c0.5,0.5,0.7,1.2,0.7,2.1V76h-1.3
		v-5.5c0-0.6-0.2-1-0.5-1.3c-0.3-0.3-0.7-0.4-1.2-0.4c-0.6,0-1,0.2-1.3,0.5c-0.3,0.3-0.5,0.8-0.5,1.3V76h-1.3v-5.6
		c0-0.5-0.2-0.8-0.5-1.1c-0.3-0.3-0.7-0.4-1.2-0.4c-0.3,0-0.6,0.1-0.9,0.3c-0.3,0.2-0.5,0.4-0.7,0.7c-0.2,0.3-0.3,0.7-0.3,1.1V76
		H81.2z M97.5,76.2c-0.7,0-1.4-0.2-1.9-0.5c-0.6-0.4-1-0.8-1.3-1.5c-0.3-0.6-0.5-1.4-0.5-2.2c0-0.9,0.2-1.6,0.5-2.2
		c0.3-0.6,0.7-1.1,1.3-1.5c0.6-0.4,1.2-0.5,1.9-0.5c0.7,0,1.4,0.2,1.9,0.5c0.6,0.4,1,0.8,1.3,1.5c0.3,0.6,0.5,1.4,0.5,2.2
		c0,0.8-0.2,1.6-0.5,2.2c-0.3,0.6-0.7,1.1-1.3,1.5C98.9,76,98.3,76.2,97.5,76.2z M97.5,75c0.6,0,1-0.1,1.4-0.4
		c0.4-0.3,0.6-0.7,0.8-1.1c0.2-0.5,0.3-1,0.3-1.5s-0.1-1.1-0.3-1.5c-0.2-0.5-0.4-0.9-0.8-1.1s-0.8-0.4-1.4-0.4c-0.6,0-1,0.1-1.4,0.4
		c-0.4,0.3-0.6,0.7-0.8,1.1c-0.2,0.5-0.3,1-0.3,1.5s0.1,1.1,0.3,1.5c0.2,0.5,0.4,0.8,0.8,1.1C96.5,74.9,97,75,97.5,75z M108.9,69.7
		l-1.1,0.3c-0.1-0.2-0.2-0.4-0.3-0.5c-0.1-0.2-0.3-0.3-0.6-0.4c-0.2-0.1-0.5-0.2-0.9-0.2c-0.5,0-0.9,0.1-1.3,0.3
		c-0.3,0.2-0.5,0.5-0.5,0.9c0,0.3,0.1,0.6,0.3,0.7c0.2,0.2,0.6,0.3,1.1,0.5l1.2,0.3c0.7,0.2,1.3,0.4,1.6,0.8
		c0.4,0.4,0.5,0.8,0.5,1.4c0,0.5-0.1,0.9-0.4,1.3c-0.3,0.4-0.6,0.7-1.1,0.9c-0.5,0.2-1,0.3-1.7,0.3c-0.8,0-1.5-0.2-2.1-0.5
		c-0.5-0.4-0.9-0.9-1-1.6l1.2-0.3c0.1,0.4,0.3,0.8,0.6,1c0.3,0.2,0.7,0.3,1.3,0.3c0.6,0,1.1-0.1,1.4-0.4c0.3-0.3,0.5-0.6,0.5-0.9
		c0-0.3-0.1-0.5-0.3-0.7c-0.2-0.2-0.5-0.3-0.9-0.4l-1.4-0.3c-0.8-0.2-1.3-0.5-1.7-0.8c-0.3-0.4-0.5-0.8-0.5-1.4
		c0-0.5,0.1-0.9,0.4-1.2c0.3-0.4,0.6-0.6,1.1-0.8c0.5-0.2,1-0.3,1.5-0.3c0.8,0,1.4,0.2,1.9,0.5C108.4,68.6,108.7,69.1,108.9,69.7z
		 M116.6,79.1v-4.3h-0.1c-0.1,0.1-0.2,0.3-0.4,0.6c-0.2,0.2-0.4,0.4-0.7,0.6c-0.3,0.2-0.7,0.3-1.3,0.3c-0.7,0-1.3-0.2-1.8-0.5
		c-0.5-0.3-0.9-0.8-1.2-1.5c-0.3-0.6-0.4-1.4-0.4-2.3c0-0.9,0.1-1.6,0.4-2.2c0.3-0.6,0.7-1.1,1.2-1.5c0.5-0.3,1.1-0.5,1.8-0.5
		c0.5,0,1,0.1,1.3,0.3c0.3,0.2,0.6,0.4,0.7,0.6c0.2,0.2,0.3,0.4,0.4,0.5h0.1v-1.3h1.2v11.2H116.6z M114.2,75c0.5,0,0.9-0.1,1.3-0.4
		c0.3-0.3,0.6-0.6,0.8-1.1c0.2-0.5,0.3-1,0.3-1.6c0-0.6-0.1-1.1-0.3-1.6c-0.2-0.5-0.4-0.8-0.8-1.1c-0.3-0.3-0.8-0.4-1.3-0.4
		c-0.5,0-1,0.1-1.3,0.4c-0.4,0.3-0.6,0.6-0.8,1.1c-0.2,0.5-0.3,1-0.3,1.6c0,0.6,0.1,1.1,0.3,1.6c0.2,0.5,0.4,0.8,0.8,1.1
		C113.3,74.9,113.7,75,114.2,75z M125.3,72.7v-4.8h1.3V76h-1.3v-1.4h-0.1c-0.2,0.4-0.5,0.8-0.9,1.1c-0.4,0.3-0.9,0.4-1.5,0.4
		c-0.5,0-1-0.1-1.4-0.3c-0.4-0.2-0.7-0.6-0.9-1c-0.2-0.5-0.3-1-0.3-1.7v-5.2h1.3v5.1c0,0.6,0.2,1.1,0.5,1.4c0.3,0.4,0.8,0.5,1.3,0.5
		c0.3,0,0.6-0.1,1-0.2c0.3-0.2,0.6-0.4,0.8-0.7C125.2,73.6,125.3,73.2,125.3,72.7z M128.8,76v-8.2h1.3V76H128.8z M129.5,66.5
		c-0.2,0-0.5-0.1-0.6-0.3c-0.2-0.2-0.3-0.4-0.3-0.6c0-0.2,0.1-0.4,0.3-0.6c0.2-0.2,0.4-0.3,0.6-0.3s0.5,0.1,0.6,0.3
		c0.2,0.2,0.3,0.4,0.3,0.6c0,0.2-0.1,0.4-0.3,0.6C129.9,66.4,129.7,66.5,129.5,66.5z M135.9,67.8v1.1h-4.2v-1.1H135.9z M132.9,65.9
		h1.3v7.8c0,0.4,0.1,0.6,0.2,0.8c0.1,0.2,0.2,0.3,0.4,0.4c0.2,0.1,0.3,0.1,0.5,0.1c0.1,0,0.3,0,0.3,0c0.1,0,0.2,0,0.2,0l0.3,1.1
		c-0.1,0-0.2,0.1-0.4,0.1c-0.2,0-0.3,0.1-0.6,0.1c-0.4,0-0.7-0.1-1-0.2c-0.3-0.2-0.6-0.4-0.8-0.7c-0.2-0.3-0.3-0.7-0.3-1.2V65.9z
		 M141.1,76.2c-0.7,0-1.4-0.2-1.9-0.5c-0.6-0.4-1-0.8-1.3-1.5c-0.3-0.6-0.5-1.4-0.5-2.2c0-0.9,0.2-1.6,0.5-2.2
		c0.3-0.6,0.7-1.1,1.3-1.5c0.6-0.4,1.2-0.5,1.9-0.5s1.4,0.2,1.9,0.5c0.6,0.4,1,0.8,1.3,1.5c0.3,0.6,0.5,1.4,0.5,2.2
		c0,0.8-0.2,1.6-0.5,2.2c-0.3,0.6-0.7,1.1-1.3,1.5C142.5,76,141.8,76.2,141.1,76.2z M141.1,75c0.6,0,1-0.1,1.4-0.4
		c0.4-0.3,0.6-0.7,0.8-1.1c0.2-0.5,0.3-1,0.3-1.5s-0.1-1.1-0.3-1.5c-0.2-0.5-0.4-0.9-0.8-1.1s-0.8-0.4-1.4-0.4c-0.6,0-1,0.1-1.4,0.4
		s-0.6,0.7-0.8,1.1c-0.2,0.5-0.3,1-0.3,1.5s0.1,1.1,0.3,1.5c0.2,0.5,0.4,0.8,0.8,1.1C140.1,74.9,140.5,75,141.1,75z M146.7,76v-1
		l3.6-3.9c0.4-0.5,0.8-0.9,1-1.2c0.3-0.3,0.5-0.7,0.6-1c0.1-0.3,0.2-0.6,0.2-1c0-0.4-0.1-0.7-0.3-1c-0.2-0.3-0.4-0.5-0.7-0.6
		c-0.3-0.2-0.7-0.2-1.1-0.2c-0.4,0-0.8,0.1-1.1,0.3c-0.3,0.2-0.5,0.4-0.7,0.7c-0.2,0.3-0.2,0.7-0.2,1.1h-1.3c0-0.6,0.1-1.2,0.4-1.7
		c0.3-0.5,0.7-0.9,1.2-1.1c0.5-0.3,1.1-0.4,1.7-0.4c0.6,0,1.2,0.1,1.7,0.4c0.5,0.3,0.9,0.6,1.2,1.1c0.3,0.5,0.4,1,0.4,1.5
		c0,0.4-0.1,0.8-0.2,1.2c-0.1,0.4-0.4,0.8-0.7,1.3c-0.4,0.5-0.8,1-1.5,1.7l-2.4,2.6v0.1h5.1V76H146.7z"/>
</g>
<g id="mosquitoSick" class="st2">
	<g class="st3">
		<circle class="st0" cx="117.5" cy="117.5" r="70.2"/>
	</g>
	<path class="st4" d="M121.6,148.8c1.8-2.2,3.4-4.5,4.8-6.6l-1.1,5.4c-0.1,0.6,0.1,1.2,0.5,1.6l9.4,9.4l-0.9,16.3
		c0,0.9,0.6,1.6,1.5,1.7c0.9,0,1.6-0.7,1.7-1.5l0.9-16.9c0-0.2,0-0.5-0.1-0.6c-0.1-0.3-0.2-0.5-0.4-0.7l-9.4-9.4l2.5-11.6
		c0.1,0.1,0.2,0.1,0.3,0.2c1.6,0.8,3.5,0.5,4.8-0.7l16.9,8.2l1.3-2.6l-16.9-8.2c0.1-1.7-0.8-3.4-2.4-4.2c-0.1,0-0.2-0.1-0.3-0.1
		l7.6-9.1l13.2,1.6c0.3,0,0.5,0,0.7-0.1c0.2-0.1,0.4-0.2,0.6-0.3l12.8-11.1c0.7-0.6,0.7-1.6,0.2-2.3c-0.6-0.7-1.6-0.7-2.2-0.2
		l-12.3,10.7l-13.2-1.6c-0.6-0.1-1.2,0.1-1.6,0.5l-3.5,4.2c0.8-2.4,1.6-5.1,2.3-7.9c0.8-3.6,4.8-21.3-0.8-22.7
		c-2.7-0.6-4.8,3-6.2,5.8c-1.8,3.6-3.5,8.7-4.8,14.1c-0.3,1.1-0.9,4.1-1.5,7.7l-2.5-15.8c-0.1-0.5-0.5-1-1-1.2l0,0l-8.7-3.8
		l-3.8-14.7c-0.1-0.4-0.4-0.8-0.8-1c-0.4-0.2-0.8-0.3-1.2-0.1c-0.8,0.2-1.3,1.2-1.1,2l4,15.3l0.3,0.5c0.2,0.3,0.4,0.5,0.7,0.6
		l8.6,3.7l2.7,17.2c-0.7-0.1-1.4-0.1-2.2,0l-9.1-13c-0.1-0.5-0.4-0.8-0.9-1l-11.3-5.2l-7.4-10.8c-0.5-0.7-1.5-0.9-2.2-0.4
		c-0.2,0.2-0.4,0.4-0.5,0.6c-0.3,0.5-0.2,1.1,0.1,1.6l7.6,11.2l0.2,0.2c0,0,0.1,0.1,0.1,0.1c0,0,0.1,0.1,0.2,0.2l0.1,0.1l11.2,5.2
		l8.5,12.1c-2.4-1.8-5.9-3.8-9.6-5.6c-1.5-0.7-15-7.2-16.6-3.9c0,0,0,0,0,0.1l0,0.1c-1.6,3.3,11.8,9.9,13.3,10.7
		c3.8,1.8,7.5,3.3,10.4,4.1l-14.7,0.8l-10.9-5.6l-0.1-0.1l-0.1,0c-0.1,0-0.2,0-0.2-0.1c-0.1,0-0.1,0-0.2,0l-13.7,0.9
		c-0.8,0.1-1.5,0.8-1.5,1.7c0,0.4,0.2,0.8,0.5,1.1c0.3,0.3,0.7,0.4,1.2,0.4l13.1-0.9l11.1,5.7c0.4,0.2,0.9,0.2,1.3,0l15.8-0.8
		c0.4,0.6,0.8,1.2,1.3,1.7l-15.3,8.5l-8.2-4.4c-0.3-0.1-0.6-0.2-0.8-0.2l-0.2,0l0.1,0.8l-0.2-0.8l-14.8,6.3
		c-0.8,0.3-1.2,1.3-0.9,2.1c0.2,0.4,0.5,0.7,0.9,0.9c0.4,0.2,0.8,0.2,1.2,0l13.9-6l8.3,4.5l0.1,0c0.5,0.3,1.1,0.3,1.6,0l14-7.8
		c-2.5,2.6-4.4,5-5.1,5.9c-3.5,4.4-6.4,8.8-8.2,12.5c-1.4,2.8-2.9,6.7-0.8,8.4C107.7,165.7,119.3,151.6,121.6,148.8z M128.5,123.4
		c0.1-2.6,0.6-6.8,2-12.6c1.2-5.2,2.9-10,4.5-13.5c1.3-2.6,2.1-3.5,2.5-3.9c0.5,1.4,1.2,7.3-1.5,18.6c-1.2,5.2-2.9,10-4.5,13.5
		c-0.4,0.8-0.7,1.4-1,1.9C130.3,126,129.6,124.6,128.5,123.4z M106.8,155.1c1.7-3.4,4.4-7.7,7.8-11.9c3.7-4.6,6.8-7.6,8.7-9.3
		c1.6,0.1,3.1-0.2,4.4-0.9c-0.2,0.5-0.5,1.2-0.9,2c-1.7,3.4-4.4,7.7-7.8,11.9c-7.2,9.1-12.3,12.3-13.7,12.7
		C105.4,159,105.6,157.7,106.8,155.1z"/>
	<path class="st4" d="M81.2,76v-8.2h1.2v1.3h0.1c0.2-0.4,0.4-0.8,0.8-1c0.4-0.2,0.8-0.4,1.4-0.4c0.5,0,1,0.1,1.3,0.4
		c0.4,0.2,0.6,0.6,0.8,1h0.1c0.2-0.4,0.5-0.8,0.9-1c0.4-0.3,0.9-0.4,1.5-0.4c0.7,0,1.3,0.2,1.8,0.7c0.5,0.5,0.7,1.2,0.7,2.1V76h-1.3
		v-5.5c0-0.6-0.2-1-0.5-1.3c-0.3-0.3-0.7-0.4-1.2-0.4c-0.6,0-1,0.2-1.3,0.5c-0.3,0.3-0.5,0.8-0.5,1.3V76h-1.3v-5.6
		c0-0.5-0.2-0.8-0.5-1.1c-0.3-0.3-0.7-0.4-1.2-0.4c-0.3,0-0.6,0.1-0.9,0.3c-0.3,0.2-0.5,0.4-0.7,0.7c-0.2,0.3-0.3,0.7-0.3,1.1V76
		H81.2z M97.5,76.2c-0.7,0-1.4-0.2-1.9-0.5c-0.6-0.4-1-0.8-1.3-1.5c-0.3-0.6-0.5-1.4-0.5-2.2c0-0.9,0.2-1.6,0.5-2.2
		c0.3-0.6,0.7-1.1,1.3-1.5c0.6-0.4,1.2-0.5,1.9-0.5c0.7,0,1.4,0.2,1.9,0.5c0.6,0.4,1,0.8,1.3,1.5c0.3,0.6,0.5,1.4,0.5,2.2
		c0,0.8-0.2,1.6-0.5,2.2c-0.3,0.6-0.7,1.1-1.3,1.5C98.9,76,98.3,76.2,97.5,76.2z M97.5,75c0.6,0,1-0.1,1.4-0.4
		c0.4-0.3,0.6-0.7,0.8-1.1c0.2-0.5,0.3-1,0.3-1.5s-0.1-1.1-0.3-1.5c-0.2-0.5-0.4-0.9-0.8-1.1s-0.8-0.4-1.4-0.4c-0.6,0-1,0.1-1.4,0.4
		c-0.4,0.3-0.6,0.7-0.8,1.1c-0.2,0.5-0.3,1-0.3,1.5s0.1,1.1,0.3,1.5c0.2,0.5,0.4,0.8,0.8,1.1C96.5,74.9,97,75,97.5,75z M108.9,69.7
		l-1.1,0.3c-0.1-0.2-0.2-0.4-0.3-0.5c-0.1-0.2-0.3-0.3-0.6-0.4c-0.2-0.1-0.5-0.2-0.9-0.2c-0.5,0-0.9,0.1-1.3,0.3
		c-0.3,0.2-0.5,0.5-0.5,0.9c0,0.3,0.1,0.6,0.3,0.7c0.2,0.2,0.6,0.3,1.1,0.5l1.2,0.3c0.7,0.2,1.3,0.4,1.6,0.8
		c0.4,0.4,0.5,0.8,0.5,1.4c0,0.5-0.1,0.9-0.4,1.3c-0.3,0.4-0.6,0.7-1.1,0.9c-0.5,0.2-1,0.3-1.7,0.3c-0.8,0-1.5-0.2-2.1-0.5
		c-0.5-0.4-0.9-0.9-1-1.6l1.2-0.3c0.1,0.4,0.3,0.8,0.6,1c0.3,0.2,0.7,0.3,1.3,0.3c0.6,0,1.1-0.1,1.4-0.4c0.3-0.3,0.5-0.6,0.5-0.9
		c0-0.3-0.1-0.5-0.3-0.7c-0.2-0.2-0.5-0.3-0.9-0.4l-1.4-0.3c-0.8-0.2-1.3-0.5-1.7-0.8c-0.3-0.4-0.5-0.8-0.5-1.4
		c0-0.5,0.1-0.9,0.4-1.2c0.3-0.4,0.6-0.6,1.1-0.8c0.5-0.2,1-0.3,1.5-0.3c0.8,0,1.4,0.2,1.9,0.5C108.4,68.6,108.7,69.1,108.9,69.7z
		 M116.6,79.1v-4.3h-0.1c-0.1,0.1-0.2,0.3-0.4,0.6c-0.2,0.2-0.4,0.4-0.7,0.6c-0.3,0.2-0.7,0.3-1.3,0.3c-0.7,0-1.3-0.2-1.8-0.5
		c-0.5-0.3-0.9-0.8-1.2-1.5c-0.3-0.6-0.4-1.4-0.4-2.3c0-0.9,0.1-1.6,0.4-2.2c0.3-0.6,0.7-1.1,1.2-1.5c0.5-0.3,1.1-0.5,1.8-0.5
		c0.5,0,1,0.1,1.3,0.3c0.3,0.2,0.6,0.4,0.7,0.6c0.2,0.2,0.3,0.4,0.4,0.5h0.1v-1.3h1.2v11.2H116.6z M114.2,75c0.5,0,0.9-0.1,1.3-0.4
		c0.3-0.3,0.6-0.6,0.8-1.1c0.2-0.5,0.3-1,0.3-1.6c0-0.6-0.1-1.1-0.3-1.6c-0.2-0.5-0.4-0.8-0.8-1.1c-0.3-0.3-0.8-0.4-1.3-0.4
		c-0.5,0-1,0.1-1.3,0.4c-0.4,0.3-0.6,0.6-0.8,1.1c-0.2,0.5-0.3,1-0.3,1.6c0,0.6,0.1,1.1,0.3,1.6c0.2,0.5,0.4,0.8,0.8,1.1
		C113.3,74.9,113.7,75,114.2,75z M125.3,72.7v-4.8h1.3V76h-1.3v-1.4h-0.1c-0.2,0.4-0.5,0.8-0.9,1.1c-0.4,0.3-0.9,0.4-1.5,0.4
		c-0.5,0-1-0.1-1.4-0.3c-0.4-0.2-0.7-0.6-0.9-1c-0.2-0.5-0.3-1-0.3-1.7v-5.2h1.3v5.1c0,0.6,0.2,1.1,0.5,1.4c0.3,0.4,0.8,0.5,1.3,0.5
		c0.3,0,0.6-0.1,1-0.2c0.3-0.2,0.6-0.4,0.8-0.7C125.2,73.6,125.3,73.2,125.3,72.7z M128.8,76v-8.2h1.3V76H128.8z M129.5,66.5
		c-0.2,0-0.5-0.1-0.6-0.3c-0.2-0.2-0.3-0.4-0.3-0.6c0-0.2,0.1-0.4,0.3-0.6c0.2-0.2,0.4-0.3,0.6-0.3s0.5,0.1,0.6,0.3
		c0.2,0.2,0.3,0.4,0.3,0.6c0,0.2-0.1,0.4-0.3,0.6C129.9,66.4,129.7,66.5,129.5,66.5z M135.9,67.8v1.1h-4.2v-1.1H135.9z M132.9,65.9
		h1.3v7.8c0,0.4,0.1,0.6,0.2,0.8c0.1,0.2,0.2,0.3,0.4,0.4c0.2,0.1,0.3,0.1,0.5,0.1c0.1,0,0.3,0,0.3,0c0.1,0,0.2,0,0.2,0l0.3,1.1
		c-0.1,0-0.2,0.1-0.4,0.1c-0.2,0-0.3,0.1-0.6,0.1c-0.4,0-0.7-0.1-1-0.2c-0.3-0.2-0.6-0.4-0.8-0.7c-0.2-0.3-0.3-0.7-0.3-1.2V65.9z
		 M141.1,76.2c-0.7,0-1.4-0.2-1.9-0.5c-0.6-0.4-1-0.8-1.3-1.5c-0.3-0.6-0.5-1.4-0.5-2.2c0-0.9,0.2-1.6,0.5-2.2
		c0.3-0.6,0.7-1.1,1.3-1.5c0.6-0.4,1.2-0.5,1.9-0.5s1.4,0.2,1.9,0.5c0.6,0.4,1,0.8,1.3,1.5c0.3,0.6,0.5,1.4,0.5,2.2
		c0,0.8-0.2,1.6-0.5,2.2c-0.3,0.6-0.7,1.1-1.3,1.5C142.5,76,141.8,76.2,141.1,76.2z M141.1,75c0.6,0,1-0.1,1.4-0.4
		c0.4-0.3,0.6-0.7,0.8-1.1c0.2-0.5,0.3-1,0.3-1.5s-0.1-1.1-0.3-1.5c-0.2-0.5-0.4-0.9-0.8-1.1s-0.8-0.4-1.4-0.4c-0.6,0-1,0.1-1.4,0.4
		s-0.6,0.7-0.8,1.1c-0.2,0.5-0.3,1-0.3,1.5s0.1,1.1,0.3,1.5c0.2,0.5,0.4,0.8,0.8,1.1C140.1,74.9,140.5,75,141.1,75z M146.7,76v-1
		l3.6-3.9c0.4-0.5,0.8-0.9,1-1.2c0.3-0.3,0.5-0.7,0.6-1c0.1-0.3,0.2-0.6,0.2-1c0-0.4-0.1-0.7-0.3-1c-0.2-0.3-0.4-0.5-0.7-0.6
		c-0.3-0.2-0.7-0.2-1.1-0.2c-0.4,0-0.8,0.1-1.1,0.3c-0.3,0.2-0.5,0.4-0.7,0.7c-0.2,0.3-0.2,0.7-0.2,1.1h-1.3c0-0.6,0.1-1.2,0.4-1.7
		c0.3-0.5,0.7-0.9,1.2-1.1c0.5-0.3,1.1-0.4,1.7-0.4c0.6,0,1.2,0.1,1.7,0.4c0.5,0.3,0.9,0.6,1.2,1.1c0.3,0.5,0.4,1,0.4,1.5
		c0,0.4-0.1,0.8-0.2,1.2c-0.1,0.4-0.4,0.8-0.7,1.3c-0.4,0.5-0.8,1-1.5,1.7l-2.4,2.6v0.1h5.1V76H146.7z"/>
	<g class="st3">
		<g>
			<circle class="st5" cx="81.4" cy="111.6" r="30.6"/>
		</g>
		<path class="st6" d="M80.8,122.3c6.6,0,12-5.3,12-11.8c0-6.5-5.4-11.8-12-11.8c-6.6,0-12,5.3-12,11.8
			C68.8,117,74.2,122.3,80.8,122.3z M80.8,99.6c6.2,0,11.2,4.9,11.2,11c0,6.1-5,11-11.2,11c-6.2,0-11.2-4.9-11.2-11
			C69.6,104.5,74.7,99.6,80.8,99.6z"/>
		<path class="st6" d="M80.8,119.4c0.2,0.1,0.5,0.2,0.7,0.2c0.1,0,0.2,0,0.2,0c0.4-0.1,0.7-0.3,0.9-0.6c0.4-0.6,0.3-1.5-0.3-1.9
			c0,0-0.1,0-0.1-0.1c-3.6-1.1-6.9-3.4-9.1-6.5c0,0-0.1-0.1-0.1-0.1c-0.3-0.2-0.6-0.3-1-0.2c-0.4,0.1-0.7,0.3-0.9,0.6
			c-0.4,0.6-0.3,1.4,0.3,1.8C73.7,115.8,77,118.2,80.8,119.4L80.8,119.4z M72.8,112.5c-0.1-0.2-0.4-0.2-0.6-0.1l0,0
			c-0.1-0.1-0.2-0.2-0.3-0.4c0,0-0.1-0.1-0.1-0.1c-0.3-0.2-0.3-0.6-0.1-0.8c0.1-0.1,0.2-0.2,0.4-0.2c0,0,0.1,0,0.1,0
			c0.1,0,0.2,0,0.3,0.1c0,0.1,0.1,0.1,0.1,0.2c-0.2,0.1-0.3,0.4-0.1,0.5c0.1,0.2,0.4,0.2,0.5,0.1l0.1,0c0.3,0.3,0.5,0.6,0.8,0.9
			l-0.1,0c-0.2,0.1-0.3,0.4-0.1,0.5c0.1,0.2,0.4,0.2,0.5,0.1l0.2-0.1c0.3,0.3,0.6,0.6,1,0.9l-0.1,0.1c-0.2,0.2-0.2,0.4,0,0.6
			c0.2,0.2,0.4,0.2,0.6,0l0.2-0.2c0.5,0.4,0.9,0.7,1.4,1l-0.2,0.2c-0.2,0.2-0.2,0.4,0,0.6c0.2,0.2,0.4,0.2,0.6,0l0.3-0.3
			c0.4,0.2,0.8,0.5,1.3,0.7l-0.2,0.3c-0.1,0.2-0.1,0.4,0.1,0.6c0.2,0.1,0.4,0.1,0.6-0.1l0.3-0.4c0.6,0.2,1.1,0.4,1.7,0.6
			c0.2,0.2,0.3,0.5,0.1,0.8c-0.1,0.1-0.2,0.2-0.4,0.2c-0.1,0-0.3,0-0.4-0.1c0,0-0.1,0-0.1-0.1c0,0,0,0-0.1,0l0.2-0.5l-0.7-0.3
			l-0.2,0.5c-0.6-0.2-1.3-0.5-1.9-0.8l0.1-0.2c0.1-0.2,0.1-0.4-0.1-0.5c-0.2-0.1-0.4-0.1-0.6,0.1l-0.2,0.3c-0.5-0.3-0.9-0.5-1.4-0.8
			l0.1-0.1c0.2-0.2,0.2-0.4,0-0.6c-0.2-0.2-0.4-0.2-0.6,0l-0.2,0.2c-0.5-0.3-0.9-0.7-1.3-1.1l0.1-0.1c0.2-0.2,0.2-0.4,0-0.6
			c-0.2-0.2-0.4-0.2-0.6,0l-0.1,0.1c-0.4-0.4-0.7-0.7-1-1.1l0,0C72.9,112.9,72.9,112.7,72.8,112.5L72.8,112.5z"/>
		<path class="st6" d="M75,107.2c0.1,0,0.2,0,0.3,0c0.3,0,0.6-0.1,0.8-0.3c1.9-1.5,4.1-2.6,6.5-3.3c0.4-0.1,0.7-0.4,0.9-0.7
			c0.2-0.4,0.2-0.8,0-1.2c-0.3-0.6-0.9-0.9-1.5-0.7c-2.7,0.7-5.2,2-7.4,3.8c-0.5,0.4-0.7,1.1-0.4,1.7
			C74.3,106.8,74.6,107.1,75,107.2L75,107.2z M75,105.3c0.1-0.1,0.2-0.1,0.3-0.2l0.2,0.3c0.1,0.2,0.4,0.2,0.6,0.1
			c0.2-0.1,0.2-0.4,0.1-0.5l-0.2-0.3c0.4-0.3,0.9-0.6,1.3-0.9l0.2,0.4c0.1,0.2,0.4,0.2,0.5,0.1c0.2-0.1,0.3-0.4,0.1-0.5l-0.2-0.4
			c0.5-0.3,0.9-0.5,1.4-0.7l0.1,0.2c0.1,0.2,0.3,0.3,0.5,0.2c0.2-0.1,0.3-0.3,0.2-0.5l-0.1-0.2c0.4-0.2,0.8-0.3,1.3-0.4l0.1,0.2
			c0.1,0.2,0.3,0.3,0.5,0.2c0.2-0.1,0.3-0.3,0.2-0.5l0-0.1c0.2,0,0.4,0.1,0.5,0.3c0.1,0.2,0.1,0.4,0,0.5c-0.1,0.2-0.2,0.3-0.3,0.3
			c-0.3,0.1-0.6,0.2-0.8,0.3l-0.1-0.3c-0.1-0.2-0.3-0.3-0.5-0.2s-0.3,0.3-0.2,0.5l0.1,0.2c-0.4,0.1-0.8,0.3-1.1,0.5l-0.2-0.3
			c-0.1-0.2-0.4-0.2-0.6-0.1c-0.2,0.1-0.2,0.4-0.1,0.5l0.1,0.2c-0.5,0.2-0.9,0.5-1.3,0.7l-0.2-0.2c-0.1-0.2-0.4-0.2-0.6-0.1
			c-0.2,0.1-0.2,0.4-0.1,0.5l0.1,0.2c-0.4,0.3-0.9,0.6-1.3,0.9c-0.1,0.1-0.3,0.1-0.4,0.1c-0.2,0-0.3-0.2-0.4-0.3
			C74.7,105.8,74.8,105.5,75,105.3L75,105.3z"/>
		<path class="st6" d="M84.7,114.3c-0.2,0.3-0.3,0.7-0.1,1.1c0.1,0.4,0.4,0.7,0.8,0.9c0.2,0.1,0.4,0.1,0.6,0.1
			c0.4,0,0.9-0.2,1.1-0.6c1.5-2.3,2.5-4.9,2.9-7.7c0.1-0.6-0.3-1.3-0.9-1.5c-0.4-0.2-0.8-0.2-1.2,0c-0.4,0.2-0.6,0.5-0.7,0.9
			C86.8,110.1,86,112.3,84.7,114.3L84.7,114.3z M87.7,110.1c0.2,0,0.4-0.1,0.5-0.3c0-0.2-0.1-0.4-0.3-0.5l-0.2,0
			c0.1-0.5,0.2-1,0.3-1.5c0-0.2,0.1-0.3,0.2-0.3c0.1,0,0.2-0.1,0.2-0.1c0.1,0,0.2,0,0.2,0.1c0.3,0.1,0.4,0.4,0.4,0.7
			c0,0.1,0,0.2-0.1,0.4l-0.3-0.1c-0.2,0-0.4,0.1-0.5,0.3c0,0.2,0.1,0.4,0.3,0.5l0.3,0.1c-0.1,0.5-0.3,1-0.4,1.5l-0.4-0.1
			c-0.2-0.1-0.4,0.1-0.5,0.3c-0.1,0.2,0.1,0.4,0.3,0.5l0.4,0.1c-0.2,0.5-0.4,1-0.6,1.5l-0.3-0.1c-0.2-0.1-0.4,0-0.5,0.2
			c-0.1,0.2,0,0.4,0.2,0.5l0.2,0.1c-0.2,0.4-0.4,0.8-0.6,1.2l-0.2-0.1c-0.2-0.1-0.4,0-0.5,0.2c-0.1,0.2,0,0.4,0.2,0.5l0.1,0
			c-0.1,0.2-0.4,0.2-0.6,0.1c-0.2-0.1-0.3-0.2-0.4-0.4c0-0.2,0-0.3,0.1-0.5c0.2-0.2,0.3-0.5,0.5-0.7l0.3,0.1c0.2,0.1,0.4,0,0.5-0.2
			c0.1-0.2,0-0.4-0.2-0.5l-0.2-0.1c0.2-0.4,0.4-0.7,0.5-1.1l0.4,0.1c0.2,0,0.4-0.1,0.5-0.3c0-0.2-0.1-0.4-0.3-0.5l-0.2,0
			c0.2-0.5,0.3-0.9,0.5-1.4L87.7,110.1L87.7,110.1z"/>
		<path class="st6" d="M83,106c-1.1,1.6-2.4,3-4,4.1c-0.3,0.2-0.5,0.5-0.5,0.8c0,0.4,0.1,0.7,0.4,1c0.2,0.2,0.5,0.3,0.8,0.3
			c0.2,0,0.5-0.1,0.7-0.2c1.9-1.3,3.5-2.9,4.7-4.8c0.3-0.5,0.2-1.1-0.2-1.5c-0.3-0.3-0.6-0.4-1-0.3C83.5,105.5,83.2,105.7,83,106
			L83,106z M84,106.2C84,106.2,84,106.2,84,106.2c0.1,0,0.2,0,0.3,0.1c0.1,0.1,0.2,0.3,0.1,0.5c0,0.1-0.1,0.1-0.1,0.2l-0.1-0.1
			c-0.2-0.1-0.4-0.1-0.5,0.1c-0.1,0.2-0.1,0.4,0.1,0.5l0.1,0.1c-0.2,0.3-0.5,0.6-0.7,0.9l-0.2-0.1c-0.2-0.1-0.4-0.1-0.6,0.1
			c-0.1,0.2-0.1,0.4,0.1,0.5l0.1,0.1c-0.3,0.3-0.5,0.5-0.8,0.8l-0.1-0.1c-0.2-0.1-0.4-0.1-0.6,0c-0.1,0.2-0.1,0.4,0,0.5
			c-0.2,0.2-0.5,0.4-0.7,0.6l0,0c-0.2-0.1-0.4-0.1-0.6,0c-0.1,0.1-0.1,0.3-0.1,0.4c-0.1,0-0.2,0-0.3-0.1c-0.1-0.1-0.1-0.2-0.1-0.3
			c0-0.1,0-0.2,0.1-0.3c0.2-0.1,0.4-0.3,0.5-0.4l0.1,0.1c0.2,0.1,0.4,0.1,0.6,0c0.1-0.2,0.1-0.4,0-0.5c0.2-0.2,0.4-0.4,0.6-0.6
			l0.1,0.1c0.2,0.1,0.4,0.1,0.5-0.1c0.1-0.2,0.1-0.4-0.1-0.5c0.2-0.3,0.5-0.5,0.7-0.8l0.1,0c0.2,0.1,0.4,0.1,0.5-0.1
			c0.1-0.2,0.1-0.4-0.1-0.5c0.2-0.3,0.5-0.6,0.7-1C83.8,106.3,83.9,106.2,84,106.2L84,106.2z"/>
		<path class="st6" d="M72.4,109.4c0.7,0,1.2-0.5,1.2-1.2c0-0.6-0.5-1.2-1.2-1.2c-0.7,0-1.2,0.5-1.2,1.2
			C71.2,108.8,71.8,109.4,72.4,109.4z M72.4,107.8c0.2,0,0.4,0.2,0.4,0.4s-0.2,0.4-0.4,0.4s-0.4-0.2-0.4-0.4S72.2,107.8,72.4,107.8z
			"/>
		<path class="st6" d="M86,105.1c0.7,0,1.2-0.5,1.2-1.2c0-0.6-0.5-1.2-1.2-1.2c-0.7,0-1.2,0.5-1.2,1.2
			C84.8,104.5,85.4,105.1,86,105.1z M86,103.5c0.2,0,0.4,0.2,0.4,0.4c0,0.2-0.2,0.4-0.4,0.4s-0.4-0.2-0.4-0.4
			C85.6,103.7,85.8,103.5,86,103.5z"/>
		<path class="st6" d="M85.6,118.8c0.2,0,0.4-0.2,0.4-0.4s-0.2-0.4-0.4-0.4c-0.2,0-0.4,0.2-0.4,0.4S85.4,118.8,85.6,118.8z"/>
		<path class="st6" d="M82.3,112.9l-0.2,0.2c-0.2,0.2-0.2,0.4,0,0.6c0.2,0.2,0.4,0.2,0.6,0l0.2-0.2c0.2-0.2,0.2-0.4,0-0.6
			C82.7,112.8,82.4,112.8,82.3,112.9z"/>
		<path class="st6" d="M76.3,109l-0.2,0.2c-0.2,0.2-0.2,0.4,0,0.6c0.2,0.2,0.4,0.2,0.6,0l0.2-0.2c0.2-0.2,0.2-0.4,0-0.6
			C76.7,108.8,76.4,108.8,76.3,109z"/>
		<path class="st6" d="M74.6,117.2c-0.2-0.2-0.4-0.2-0.6,0c-0.2,0.2-0.2,0.4,0,0.6l0.2,0.2c0.2,0.2,0.4,0.2,0.6,0
			c0.2-0.2,0.2-0.4,0-0.6L74.6,117.2z"/>
		<path class="st6" d="M91,112.1l0.2-0.2c0.2-0.2,0.2-0.4,0-0.6c-0.2-0.2-0.4-0.2-0.6,0l-0.2,0.2c-0.2,0.2-0.2,0.4,0,0.6
			C90.6,112.3,90.8,112.3,91,112.1z"/>
		<path class="st6" d="M76,102.3c0.2,0,0.4-0.2,0.4-0.4c0-0.2-0.2-0.4-0.4-0.4c-0.2,0-0.4,0.2-0.4,0.4
			C75.6,102.1,75.8,102.3,76,102.3z"/>
		<path class="st6" d="M80.8,106.2c0.2,0,0.4-0.2,0.4-0.4c0-0.2-0.2-0.4-0.4-0.4c-0.2,0-0.4,0.2-0.4,0.4
			C80.4,106.1,80.6,106.2,80.8,106.2z"/>
		<path class="st6" d="M100.6,110.8c0.4,0.4,0.9,0.4,1.3,0l5.7-5.7c0.4-0.4,0.4-0.9,0-1.3c-0.4-0.4-0.9-0.4-1.3,0l-5.1,5.1l-5.1-5.1
			c-0.4-0.4-0.9-0.4-1.3,0s-0.4,0.9,0,1.3L100.6,110.8z M97.2,98.2l0.7-0.5L97.2,98.2z M86.9,90.9l-0.3,0.9L86.9,90.9z M74.3,91.2
			L74,90.3l0,0L74.3,91.2z M64.4,98.9l-0.7-0.5L64.4,98.9z M61,111.1l0.9,0L61,111.1z M76.1,129.7l-0.2,0.9L76.1,129.7z M89.1,129.6
			c0.5-0.2,0.7-0.7,0.5-1.2c-0.2-0.5-0.7-0.7-1.2-0.5L89.1,129.6z M102.1,110.1c0-4.5-1.4-8.9-4.1-12.5l-1.4,1.1
			c2.5,3.3,3.8,7.3,3.8,11.4H102.1z M98,97.6c-2.7-3.6-6.5-6.3-10.8-7.6l-0.5,1.7c3.9,1.2,7.4,3.6,9.9,6.9L98,97.6z M87.2,90
			c-4.3-1.3-8.9-1.2-13.2,0.3l0.6,1.7c3.9-1.4,8.1-1.5,12.1-0.3L87.2,90z M74,90.3c-4.2,1.5-7.9,4.4-10.4,8.1l1.5,1
			c2.3-3.4,5.6-6,9.5-7.4L74,90.3z M63.6,98.4c-2.5,3.7-3.7,8.2-3.5,12.7l1.8-0.1c-0.2-4.1,0.9-8.2,3.2-11.6L63.6,98.4z M60.1,111.1
			c0.2,4.5,1.9,8.8,4.7,12.3l1.4-1.1c-2.6-3.2-4.1-7.1-4.3-11.3L60.1,111.1z M64.8,123.5c2.9,3.5,6.8,6,11.1,7.1l0.4-1.7
			c-4-1-7.6-3.3-10.2-6.5L64.8,123.5z M75.9,130.5c4.4,1.1,9,0.8,13.2-0.9l-0.7-1.7c-3.8,1.6-8,1.9-12,0.9L75.9,130.5z"/>
	</g>
</g>
<g id="mosquitoSick_-_copie" class="st2">
	<g class="st3">
		<circle class="st0" cx="117.5" cy="117.5" r="70.2"/>
	</g>
	<path class="st7" d="M121.6,148.8c1.8-2.2,3.4-4.5,4.8-6.6l-1.1,5.4c-0.1,0.6,0.1,1.2,0.5,1.6l9.4,9.4l-0.9,16.3
		c0,0.9,0.6,1.6,1.5,1.7c0.9,0,1.6-0.7,1.7-1.5l0.9-16.9c0-0.2,0-0.5-0.1-0.6c-0.1-0.3-0.2-0.5-0.4-0.7l-9.4-9.4l2.5-11.6
		c0.1,0.1,0.2,0.1,0.3,0.2c1.6,0.8,3.5,0.5,4.8-0.7l16.9,8.2l1.3-2.6l-16.9-8.2c0.1-1.7-0.8-3.4-2.4-4.2c-0.1,0-0.2-0.1-0.3-0.1
		l7.6-9.1l13.2,1.6c0.3,0,0.5,0,0.7-0.1c0.2-0.1,0.4-0.2,0.6-0.3l12.8-11.1c0.7-0.6,0.7-1.6,0.2-2.3c-0.6-0.7-1.6-0.7-2.2-0.2
		l-12.3,10.7l-13.2-1.6c-0.6-0.1-1.2,0.1-1.6,0.5l-3.5,4.2c0.8-2.4,1.6-5.1,2.3-7.9c0.8-3.6,4.8-21.3-0.8-22.7
		c-2.7-0.6-4.8,3-6.2,5.8c-1.8,3.6-3.5,8.7-4.8,14.1c-0.3,1.1-0.9,4.1-1.5,7.7l-2.5-15.8c-0.1-0.5-0.5-1-1-1.2l0,0l-8.7-3.8
		l-3.8-14.7c-0.1-0.4-0.4-0.8-0.8-1c-0.4-0.2-0.8-0.3-1.2-0.1c-0.8,0.2-1.3,1.2-1.1,2l4,15.3l0.3,0.5c0.2,0.3,0.4,0.5,0.7,0.6
		l8.6,3.7l2.7,17.2c-0.7-0.1-1.4-0.1-2.2,0l-9.1-13c-0.1-0.5-0.4-0.8-0.9-1l-11.3-5.2l-7.4-10.8c-0.5-0.7-1.5-0.9-2.2-0.4
		c-0.2,0.2-0.4,0.4-0.5,0.6c-0.3,0.5-0.2,1.1,0.1,1.6l7.6,11.2l0.2,0.2c0,0,0.1,0.1,0.1,0.1c0,0,0.1,0.1,0.2,0.2l0.1,0.1l11.2,5.2
		l8.5,12.1c-2.4-1.8-5.9-3.8-9.6-5.6c-1.5-0.7-15-7.2-16.6-3.9c0,0,0,0,0,0.1l0,0.1c-1.6,3.3,11.8,9.9,13.3,10.7
		c3.8,1.8,7.5,3.3,10.4,4.1l-14.7,0.8l-10.9-5.6l-0.1-0.1l-0.1,0c-0.1,0-0.2,0-0.2-0.1c-0.1,0-0.1,0-0.2,0l-13.7,0.9
		c-0.8,0.1-1.5,0.8-1.5,1.7c0,0.4,0.2,0.8,0.5,1.1c0.3,0.3,0.7,0.4,1.2,0.4l13.1-0.9l11.1,5.7c0.4,0.2,0.9,0.2,1.3,0l15.8-0.8
		c0.4,0.6,0.8,1.2,1.3,1.7l-15.3,8.5l-8.2-4.4c-0.3-0.1-0.6-0.2-0.8-0.2l-0.2,0l0.1,0.8l-0.2-0.8l-14.8,6.3
		c-0.8,0.3-1.2,1.3-0.9,2.1c0.2,0.4,0.5,0.7,0.9,0.9c0.4,0.2,0.8,0.2,1.2,0l13.9-6l8.3,4.5l0.1,0c0.5,0.3,1.1,0.3,1.6,0l14-7.8
		c-2.5,2.6-4.4,5-5.1,5.9c-3.5,4.4-6.4,8.8-8.2,12.5c-1.4,2.8-2.9,6.7-0.8,8.4C107.7,165.7,119.3,151.6,121.6,148.8z M128.5,123.4
		c0.1-2.6,0.6-6.8,2-12.6c1.2-5.2,2.9-10,4.5-13.5c1.3-2.6,2.1-3.5,2.5-3.9c0.5,1.4,1.2,7.3-1.5,18.6c-1.2,5.2-2.9,10-4.5,13.5
		c-0.4,0.8-0.7,1.4-1,1.9C130.3,126,129.6,124.6,128.5,123.4z M106.8,155.1c1.7-3.4,4.4-7.7,7.8-11.9c3.7-4.6,6.8-7.6,8.7-9.3
		c1.6,0.1,3.1-0.2,4.4-0.9c-0.2,0.5-0.5,1.2-0.9,2c-1.7,3.4-4.4,7.7-7.8,11.9c-7.2,9.1-12.3,12.3-13.7,12.7
		C105.4,159,105.6,157.7,106.8,155.1z"/>
	<path class="st7" d="M81.2,76v-8.2h1.2v1.3h0.1c0.2-0.4,0.4-0.8,0.8-1c0.4-0.2,0.8-0.4,1.4-0.4c0.5,0,1,0.1,1.3,0.4
		c0.4,0.2,0.6,0.6,0.8,1h0.1c0.2-0.4,0.5-0.8,0.9-1c0.4-0.3,0.9-0.4,1.5-0.4c0.7,0,1.3,0.2,1.8,0.7c0.5,0.5,0.7,1.2,0.7,2.1V76h-1.3
		v-5.5c0-0.6-0.2-1-0.5-1.3c-0.3-0.3-0.7-0.4-1.2-0.4c-0.6,0-1,0.2-1.3,0.5c-0.3,0.3-0.5,0.8-0.5,1.3V76h-1.3v-5.6
		c0-0.5-0.2-0.8-0.5-1.1c-0.3-0.3-0.7-0.4-1.2-0.4c-0.3,0-0.6,0.1-0.9,0.3c-0.3,0.2-0.5,0.4-0.7,0.7c-0.2,0.3-0.3,0.7-0.3,1.1V76
		H81.2z M97.5,76.2c-0.7,0-1.4-0.2-1.9-0.5c-0.6-0.4-1-0.8-1.3-1.5c-0.3-0.6-0.5-1.4-0.5-2.2c0-0.9,0.2-1.6,0.5-2.2
		c0.3-0.6,0.7-1.1,1.3-1.5c0.6-0.4,1.2-0.5,1.9-0.5c0.7,0,1.4,0.2,1.9,0.5c0.6,0.4,1,0.8,1.3,1.5c0.3,0.6,0.5,1.4,0.5,2.2
		c0,0.8-0.2,1.6-0.5,2.2c-0.3,0.6-0.7,1.1-1.3,1.5C98.9,76,98.3,76.2,97.5,76.2z M97.5,75c0.6,0,1-0.1,1.4-0.4
		c0.4-0.3,0.6-0.7,0.8-1.1c0.2-0.5,0.3-1,0.3-1.5s-0.1-1.1-0.3-1.5c-0.2-0.5-0.4-0.9-0.8-1.1s-0.8-0.4-1.4-0.4c-0.6,0-1,0.1-1.4,0.4
		c-0.4,0.3-0.6,0.7-0.8,1.1c-0.2,0.5-0.3,1-0.3,1.5s0.1,1.1,0.3,1.5c0.2,0.5,0.4,0.8,0.8,1.1C96.5,74.9,97,75,97.5,75z M108.9,69.7
		l-1.1,0.3c-0.1-0.2-0.2-0.4-0.3-0.5c-0.1-0.2-0.3-0.3-0.6-0.4c-0.2-0.1-0.5-0.2-0.9-0.2c-0.5,0-0.9,0.1-1.3,0.3
		c-0.3,0.2-0.5,0.5-0.5,0.9c0,0.3,0.1,0.6,0.3,0.7c0.2,0.2,0.6,0.3,1.1,0.5l1.2,0.3c0.7,0.2,1.3,0.4,1.6,0.8
		c0.4,0.4,0.5,0.8,0.5,1.4c0,0.5-0.1,0.9-0.4,1.3c-0.3,0.4-0.6,0.7-1.1,0.9c-0.5,0.2-1,0.3-1.7,0.3c-0.8,0-1.5-0.2-2.1-0.5
		c-0.5-0.4-0.9-0.9-1-1.6l1.2-0.3c0.1,0.4,0.3,0.8,0.6,1c0.3,0.2,0.7,0.3,1.3,0.3c0.6,0,1.1-0.1,1.4-0.4c0.3-0.3,0.5-0.6,0.5-0.9
		c0-0.3-0.1-0.5-0.3-0.7c-0.2-0.2-0.5-0.3-0.9-0.4l-1.4-0.3c-0.8-0.2-1.3-0.5-1.7-0.8c-0.3-0.4-0.5-0.8-0.5-1.4
		c0-0.5,0.1-0.9,0.4-1.2c0.3-0.4,0.6-0.6,1.1-0.8c0.5-0.2,1-0.3,1.5-0.3c0.8,0,1.4,0.2,1.9,0.5C108.4,68.6,108.7,69.1,108.9,69.7z
		 M116.6,79.1v-4.3h-0.1c-0.1,0.1-0.2,0.3-0.4,0.6c-0.2,0.2-0.4,0.4-0.7,0.6c-0.3,0.2-0.7,0.3-1.3,0.3c-0.7,0-1.3-0.2-1.8-0.5
		c-0.5-0.3-0.9-0.8-1.2-1.5c-0.3-0.6-0.4-1.4-0.4-2.3c0-0.9,0.1-1.6,0.4-2.2c0.3-0.6,0.7-1.1,1.2-1.5c0.5-0.3,1.1-0.5,1.8-0.5
		c0.5,0,1,0.1,1.3,0.3c0.3,0.2,0.6,0.4,0.7,0.6c0.2,0.2,0.3,0.4,0.4,0.5h0.1v-1.3h1.2v11.2H116.6z M114.2,75c0.5,0,0.9-0.1,1.3-0.4
		c0.3-0.3,0.6-0.6,0.8-1.1c0.2-0.5,0.3-1,0.3-1.6c0-0.6-0.1-1.1-0.3-1.6c-0.2-0.5-0.4-0.8-0.8-1.1c-0.3-0.3-0.8-0.4-1.3-0.4
		c-0.5,0-1,0.1-1.3,0.4c-0.4,0.3-0.6,0.6-0.8,1.1c-0.2,0.5-0.3,1-0.3,1.6c0,0.6,0.1,1.1,0.3,1.6c0.2,0.5,0.4,0.8,0.8,1.1
		C113.3,74.9,113.7,75,114.2,75z M125.3,72.7v-4.8h1.3V76h-1.3v-1.4h-0.1c-0.2,0.4-0.5,0.8-0.9,1.1c-0.4,0.3-0.9,0.4-1.5,0.4
		c-0.5,0-1-0.1-1.4-0.3c-0.4-0.2-0.7-0.6-0.9-1c-0.2-0.5-0.3-1-0.3-1.7v-5.2h1.3v5.1c0,0.6,0.2,1.1,0.5,1.4c0.3,0.4,0.8,0.5,1.3,0.5
		c0.3,0,0.6-0.1,1-0.2c0.3-0.2,0.6-0.4,0.8-0.7C125.2,73.6,125.3,73.2,125.3,72.7z M128.8,76v-8.2h1.3V76H128.8z M129.5,66.5
		c-0.2,0-0.5-0.1-0.6-0.3c-0.2-0.2-0.3-0.4-0.3-0.6c0-0.2,0.1-0.4,0.3-0.6c0.2-0.2,0.4-0.3,0.6-0.3s0.5,0.1,0.6,0.3
		c0.2,0.2,0.3,0.4,0.3,0.6c0,0.2-0.1,0.4-0.3,0.6C129.9,66.4,129.7,66.5,129.5,66.5z M135.9,67.8v1.1h-4.2v-1.1H135.9z M132.9,65.9
		h1.3v7.8c0,0.4,0.1,0.6,0.2,0.8c0.1,0.2,0.2,0.3,0.4,0.4c0.2,0.1,0.3,0.1,0.5,0.1c0.1,0,0.3,0,0.3,0c0.1,0,0.2,0,0.2,0l0.3,1.1
		c-0.1,0-0.2,0.1-0.4,0.1c-0.2,0-0.3,0.1-0.6,0.1c-0.4,0-0.7-0.1-1-0.2c-0.3-0.2-0.6-0.4-0.8-0.7c-0.2-0.3-0.3-0.7-0.3-1.2V65.9z
		 M141.1,76.2c-0.7,0-1.4-0.2-1.9-0.5c-0.6-0.4-1-0.8-1.3-1.5c-0.3-0.6-0.5-1.4-0.5-2.2c0-0.9,0.2-1.6,0.5-2.2
		c0.3-0.6,0.7-1.1,1.3-1.5c0.6-0.4,1.2-0.5,1.9-0.5s1.4,0.2,1.9,0.5c0.6,0.4,1,0.8,1.3,1.5c0.3,0.6,0.5,1.4,0.5,2.2
		c0,0.8-0.2,1.6-0.5,2.2c-0.3,0.6-0.7,1.1-1.3,1.5C142.5,76,141.8,76.2,141.1,76.2z M141.1,75c0.6,0,1-0.1,1.4-0.4
		c0.4-0.3,0.6-0.7,0.8-1.1c0.2-0.5,0.3-1,0.3-1.5s-0.1-1.1-0.3-1.5c-0.2-0.5-0.4-0.9-0.8-1.1s-0.8-0.4-1.4-0.4c-0.6,0-1,0.1-1.4,0.4
		s-0.6,0.7-0.8,1.1c-0.2,0.5-0.3,1-0.3,1.5s0.1,1.1,0.3,1.5c0.2,0.5,0.4,0.8,0.8,1.1C140.1,74.9,140.5,75,141.1,75z M146.7,76v-1
		l3.6-3.9c0.4-0.5,0.8-0.9,1-1.2c0.3-0.3,0.5-0.7,0.6-1c0.1-0.3,0.2-0.6,0.2-1c0-0.4-0.1-0.7-0.3-1c-0.2-0.3-0.4-0.5-0.7-0.6
		c-0.3-0.2-0.7-0.2-1.1-0.2c-0.4,0-0.8,0.1-1.1,0.3c-0.3,0.2-0.5,0.4-0.7,0.7c-0.2,0.3-0.2,0.7-0.2,1.1h-1.3c0-0.6,0.1-1.2,0.4-1.7
		c0.3-0.5,0.7-0.9,1.2-1.1c0.5-0.3,1.1-0.4,1.7-0.4c0.6,0,1.2,0.1,1.7,0.4c0.5,0.3,0.9,0.6,1.2,1.1c0.3,0.5,0.4,1,0.4,1.5
		c0,0.4-0.1,0.8-0.2,1.2c-0.1,0.4-0.4,0.8-0.7,1.3c-0.4,0.5-0.8,1-1.5,1.7l-2.4,2.6v0.1h5.1V76H146.7z"/>
</g>
</svg>
