<?xml version="1.0" encoding="UTF-8"?>
<svg id="mosquitoSick" xmlns="http://www.w3.org/2000/svg" viewBox="0 0 140.34 140.34">
  <defs>
    <style>
      .cls-1 {
        fill: rgba(255, 255, 255, .9);
      }

      .cls-1, .cls-2, .cls-3, .cls-4 {
        stroke-width: 0px;
      }

      .cls-2 {
        fill: #667cff;
      }

      .cls-3 {
        fill: #001aff;
      }

      .cls-4 {
        fill: rgba(23, 82, 226, .3);
      }
    </style>
  </defs>
  <circle class="cls-4" cx="70.17" cy="70.17" r="70.15"/>
  <path class="cls-2" d="M74.24,101.45c1.79-2.25,3.42-4.49,4.83-6.65l-1.14,5.37c-.12.59.09,1.19.55,1.57l9.4,9.41-.85,16.28c-.05.88.63,1.63,1.51,1.68.85.04,1.63-.66,1.68-1.52l.88-16.93c0-.23-.03-.46-.09-.58-.08-.29-.21-.53-.4-.72l-9.38-9.39,2.46-11.55c.1.06.19.11.3.16,1.6.78,3.48.49,4.78-.67l16.9,8.23,1.28-2.63-16.9-8.23c.11-1.74-.82-3.4-2.42-4.18-.1-.05-.21-.09-.31-.13l7.58-9.06,13.17,1.59c.27.03.53,0,.72-.1.23-.07.44-.18.61-.33l12.78-11.13c.65-.57.72-1.61.17-2.26-.57-.67-1.58-.73-2.25-.15l-12.29,10.71-13.21-1.6c-.58-.13-1.18.08-1.57.54l-3.52,4.21c.83-2.44,1.59-5.1,2.26-7.9.84-3.55,4.77-21.35-.81-22.66-2.69-.63-4.8,2.99-6.16,5.78-1.78,3.65-3.47,8.67-4.77,14.13-.26,1.09-.94,4.12-1.47,7.67l-2.5-15.78c-.09-.54-.45-1-.96-1.21l-.02-.02-8.68-3.79-3.85-14.65c-.12-.41-.39-.75-.76-.96-.37-.21-.8-.25-1.21-.13-.81.23-1.33,1.16-1.1,1.98l4.03,15.3.27.52c.18.27.41.47.68.59l8.58,3.75,2.73,17.24c-.72-.1-1.45-.11-2.15-.02l-9.11-12.99c-.12-.46-.43-.84-.86-1.04l-11.32-5.19-7.39-10.83c-.5-.73-1.49-.91-2.22-.41-.23.16-.41.37-.53.62-.25.52-.21,1.14.12,1.61l7.63,11.18.15.18s.09.09.14.13c.04.04.11.09.2.15l.07.06,11.23,5.15,8.47,12.07c-2.45-1.79-5.88-3.81-9.63-5.64-1.53-.74-14.99-7.18-16.59-3.88,0,.02-.02.04-.03.06l-.03.05c-1.61,3.3,11.76,9.92,13.29,10.67,3.75,1.83,7.45,3.29,10.38,4.11l-14.72.78-10.86-5.6-.15-.07h-.07c-.08-.04-.16-.06-.24-.07-.06-.01-.12-.02-.19-.03l-13.74.87c-.84.06-1.55.84-1.5,1.7.02.43.21.82.53,1.1.32.28.73.42,1.16.4l13.08-.86,11.07,5.71c.42.22.91.23,1.35.04l15.85-.84c.37.61.82,1.18,1.34,1.68l-15.26,8.48-8.24-4.44c-.26-.14-.56-.2-.81-.18l-.22.02.1.8-.21-.79-14.84,6.33c-.78.32-1.2,1.29-.89,2.08.16.4.46.71.85.87.39.17.82.17,1.22,0l13.91-6,8.26,4.45.07.03c.48.28,1.08.29,1.57.02l13.96-7.76c-2.48,2.6-4.44,5.01-5.13,5.88-3.5,4.39-6.41,8.82-8.18,12.47-1.35,2.78-2.91,6.68-.75,8.41,4.48,3.59,16.07-10.48,18.34-13.33ZM81.17,76.07c.13-2.62.58-6.84,1.95-12.62,1.24-5.24,2.85-10.02,4.53-13.46,1.25-2.57,2.12-3.53,2.53-3.87.54,1.37,1.16,7.33-1.53,18.64-1.24,5.24-2.85,10.02-4.53,13.46-.37.76-.71,1.38-1.01,1.88-.19-1.42-.86-2.83-1.95-4.02ZM59.51,107.77c1.68-3.44,4.45-7.66,7.8-11.87,3.7-4.64,6.75-7.6,8.73-9.32,1.61.12,3.13-.22,4.37-.95-.21.55-.49,1.19-.86,1.95-1.68,3.44-4.45,7.66-7.81,11.87-7.24,9.08-12.31,12.27-13.73,12.69.02-.53.24-1.8,1.49-4.38Z"/>
  <path class="cls-2" d="M33.82,28.67v-8.18h1.21v1.28h.11c.17-.44.45-.78.83-1.02.38-.25.84-.37,1.37-.37s.99.12,1.35.37c.36.24.64.58.85,1.02h.09c.21-.42.52-.76.94-1.01.42-.25.92-.38,1.51-.38.73,0,1.33.23,1.8.69.47.45.7,1.16.7,2.13v5.48h-1.26v-5.48c0-.6-.17-1.04-.5-1.29-.33-.26-.72-.39-1.17-.39-.58,0-1.02.17-1.34.52-.32.34-.47.78-.47,1.31v5.33h-1.28v-5.6c0-.47-.15-.84-.45-1.12-.3-.29-.69-.43-1.17-.43-.33,0-.63.09-.92.26-.28.17-.51.42-.68.72-.17.31-.26.66-.26,1.06v5.11h-1.26ZM50.18,28.84c-.74,0-1.39-.18-1.94-.53-.55-.35-.99-.84-1.3-1.48-.31-.63-.46-1.37-.46-2.22s.15-1.6.46-2.23c.31-.64.75-1.13,1.3-1.48.56-.35,1.21-.53,1.94-.53s1.39.18,1.94.53c.56.35.99.85,1.3,1.48.31.64.47,1.38.47,2.23s-.16,1.58-.47,2.22c-.31.63-.74,1.12-1.3,1.48-.55.35-1.2.53-1.94.53ZM50.18,27.71c.56,0,1.02-.14,1.39-.43.36-.29.63-.67.8-1.13.17-.47.26-.98.26-1.52s-.09-1.06-.26-1.53c-.17-.47-.44-.85-.8-1.15s-.82-.44-1.39-.44-1.02.15-1.38.44c-.36.29-.63.67-.8,1.15-.17.47-.26.98-.26,1.53s.09,1.05.26,1.52c.17.47.44.85.8,1.13.36.29.82.43,1.38.43ZM61.6,22.32l-1.13.32c-.07-.19-.18-.37-.31-.55-.13-.18-.32-.33-.55-.45-.24-.12-.53-.18-.9-.18-.5,0-.92.12-1.25.35-.33.23-.5.52-.5.87,0,.31.11.56.34.74.23.18.58.33,1.07.45l1.21.3c.73.18,1.28.45,1.64.81.36.36.54.83.54,1.4,0,.47-.13.89-.4,1.26-.27.37-.64.66-1.12.87-.48.21-1.04.32-1.67.32-.83,0-1.53-.18-2.07-.54-.55-.36-.89-.89-1.04-1.59l1.19-.3c.11.44.33.77.64.99.32.22.74.33,1.25.33.59,0,1.05-.12,1.4-.37.35-.25.52-.55.52-.91,0-.28-.1-.52-.3-.71-.2-.2-.5-.34-.92-.44l-1.36-.32c-.75-.18-1.3-.45-1.65-.83-.35-.38-.52-.85-.52-1.41,0-.46.13-.87.39-1.23.26-.36.62-.63,1.07-.84.45-.2.97-.3,1.55-.3.81,0,1.44.18,1.91.53.46.36.79.82.99,1.41ZM69.23,31.74v-4.33h-.11c-.09.15-.22.34-.39.56-.17.22-.41.42-.73.6-.32.17-.74.26-1.26.26-.68,0-1.28-.17-1.81-.52-.52-.35-.93-.84-1.23-1.47-.29-.64-.44-1.39-.44-2.25s.15-1.61.44-2.24c.3-.63.71-1.12,1.23-1.46.53-.34,1.13-.52,1.82-.52.53,0,.95.09,1.26.27.31.17.55.37.71.6.17.22.3.4.39.54h.15v-1.3h1.21v11.25h-1.26ZM66.91,27.71c.5,0,.93-.13,1.28-.39.35-.27.61-.63.79-1.1.18-.47.27-1.02.27-1.64s-.09-1.15-.27-1.6c-.18-.46-.44-.82-.79-1.08-.35-.26-.78-.39-1.29-.39s-.98.14-1.33.41c-.35.27-.62.64-.79,1.1-.17.46-.26.98-.26,1.56s.09,1.11.27,1.59c.18.47.45.85.8,1.13.35.28.79.42,1.32.42ZM77.94,25.33v-4.84h1.26v8.18h-1.26v-1.38h-.09c-.19.42-.49.77-.89,1.06-.4.29-.92.43-1.53.43-.51,0-.97-.11-1.36-.34-.4-.23-.71-.57-.94-1.02-.23-.46-.34-1.04-.34-1.73v-5.2h1.26v5.11c0,.6.17,1.07.5,1.43.34.36.77.53,1.29.53.31,0,.63-.08.95-.24.33-.16.6-.4.82-.74.22-.33.34-.75.34-1.26ZM81.5,28.67v-8.18h1.26v8.18h-1.26ZM82.14,19.13c-.24,0-.46-.08-.63-.25-.17-.17-.26-.37-.26-.6s.09-.44.26-.6c.18-.17.39-.25.63-.25s.46.08.63.25c.18.17.27.37.27.6s-.09.43-.27.6c-.17.17-.38.25-.63.25ZM88.62,20.49v1.07h-4.24v-1.07h4.24ZM85.62,18.53h1.26v7.8c0,.36.05.62.15.8.11.17.24.29.4.35.17.06.34.09.53.09.14,0,.25,0,.34-.02.09-.02.16-.03.21-.04l.26,1.13c-.09.03-.2.06-.36.1-.15.04-.35.05-.58.05-.35,0-.7-.08-1.04-.23-.34-.15-.62-.39-.84-.7-.22-.31-.33-.71-.33-1.18v-8.14ZM93.75,28.84c-.74,0-1.39-.18-1.94-.53-.55-.35-.99-.84-1.3-1.48-.31-.63-.46-1.37-.46-2.22s.15-1.6.46-2.23c.31-.64.75-1.13,1.3-1.48.56-.35,1.21-.53,1.94-.53s1.38.18,1.94.53c.56.35.99.85,1.3,1.48.31.64.47,1.38.47,2.23s-.16,1.58-.47,2.22c-.31.63-.74,1.12-1.3,1.48-.55.35-1.2.53-1.94.53ZM93.75,27.71c.56,0,1.02-.14,1.38-.43.36-.29.63-.67.8-1.13.17-.47.26-.98.26-1.52s-.09-1.06-.26-1.53c-.17-.47-.44-.85-.8-1.15s-.82-.44-1.38-.44-1.02.15-1.39.44-.63.67-.8,1.15c-.17.47-.26.98-.26,1.53s.09,1.05.26,1.52c.17.47.44.85.8,1.13.36.29.82.43,1.39.43ZM99.35,28.67v-.96l3.6-3.94c.42-.46.77-.86,1.04-1.2.27-.34.48-.67.61-.97.13-.31.2-.62.2-.96,0-.38-.09-.72-.28-1-.18-.28-.43-.5-.75-.65-.32-.15-.67-.23-1.07-.23-.42,0-.78.09-1.1.26-.31.17-.55.41-.72.72-.17.31-.25.67-.25,1.09h-1.26c0-.64.15-1.2.44-1.68.29-.48.7-.86,1.2-1.13.51-.27,1.08-.4,1.72-.4s1.21.13,1.7.4c.49.27.88.63,1.16,1.09.28.46.42.97.42,1.53,0,.4-.07.79-.22,1.18-.14.38-.39.8-.75,1.27-.35.47-.84,1.03-1.46,1.7l-2.45,2.62v.09h5.07v1.17h-6.88Z"/>
  <g>
    <circle class="cls-1" cx="34.04" cy="64.32" r="30.63"/>
    <path class="cls-3" d="M33.5,75c6.62,0,12-5.28,12-11.78s-5.39-11.78-12-11.78-12,5.28-12,11.78,5.39,11.78,12,11.78ZM33.5,52.23c6.18,0,11.2,4.93,11.2,10.99s-5.03,10.99-11.2,10.99-11.2-4.93-11.2-10.99,5.03-10.99,11.2-10.99Z"/>
    <path class="cls-3" d="M33.43,72.04c.22.14.46.21.72.21.08,0,.16,0,.23-.02.36-.06.67-.27.88-.57.42-.61.27-1.46-.33-1.89-.04-.03-.08-.05-.12-.06-3.62-1.1-6.85-3.42-9.1-6.54-.02-.04-.06-.06-.09-.09-.29-.21-.65-.29-1-.23-.36.06-.67.27-.88.57-.4.59-.28,1.41.28,1.85,2.34,3.22,5.69,5.62,9.43,6.77h0ZM25.49,65.18c-.13-.17-.38-.21-.56-.08l-.04.02c-.09-.12-.18-.24-.28-.37-.02-.04-.06-.07-.09-.09-.26-.18-.32-.55-.14-.82.08-.13.21-.21.36-.24.03,0,.06,0,.09,0,.09,0,.18.02.26.07.04.06.09.12.14.18-.19.11-.25.35-.14.54.11.18.36.25.55.13l.08-.05c.25.31.51.61.78.9l-.07.04c-.19.11-.25.35-.14.54.11.18.36.25.55.13l.23-.13c.31.31.63.6.96.88l-.14.13c-.16.15-.16.4,0,.55s.41.15.56,0l.19-.18c.46.36.94.7,1.43,1.02l-.18.18c-.16.15-.16.4,0,.55s.41.15.56,0l.32-.31c.42.24.84.47,1.27.68l-.22.26c-.14.17-.11.42.06.55.17.14.42.11.56-.06l.34-.42c.56.24,1.12.45,1.7.63.22.19.26.53.09.79-.08.13-.21.21-.36.24-.14.02-.28,0-.39-.09-.04-.03-.08-.05-.12-.06-.02,0-.03-.01-.05-.02l.19-.46-.74-.29-.2.5c-.64-.23-1.27-.5-1.88-.8l.14-.18c.13-.17.1-.42-.08-.55-.18-.13-.43-.09-.56.08l-.21.27c-.46-.26-.92-.55-1.36-.85l.12-.12c.16-.15.16-.4,0-.55-.16-.15-.41-.15-.56,0l-.21.21c-.46-.35-.91-.72-1.34-1.11l.11-.11c.16-.15.16-.4,0-.55s-.41-.15-.56,0l-.12.11c-.36-.36-.7-.73-1.02-1.12l.02-.02c.18-.13.21-.38.08-.55h.01Z"/>
    <path class="cls-3" d="M27.66,59.83c.1.02.2.04.3.04.29,0,.58-.1.82-.29,1.93-1.54,4.11-2.64,6.45-3.27.37-.1.69-.37.86-.72.18-.38.19-.82.01-1.21-.28-.6-.92-.92-1.55-.75-2.69.73-5.19,1.99-7.4,3.76-.49.39-.66,1.1-.4,1.68.18.39.51.66.91.76h0ZM27.64,57.99c.1-.08.2-.15.29-.22l.2.27c.13.17.38.21.56.08.18-.13.21-.38.08-.55l-.2-.27c.44-.31.89-.6,1.35-.87l.23.38c.11.18.36.25.55.13.19-.11.25-.35.14-.54l-.22-.37c.47-.25.94-.49,1.42-.7l.12.25c.1.19.34.27.54.18.2-.1.28-.33.18-.53l-.1-.2c.42-.16.85-.31,1.28-.44l.11.21c.1.19.34.27.54.18.2-.09.28-.33.18-.53l-.04-.07c.22-.02.42.1.52.32.08.18.08.38,0,.55-.07.15-.2.26-.35.3-.28.08-.56.16-.84.25l-.13-.25c-.1-.19-.34-.27-.54-.18-.2.1-.28.33-.18.53l.08.16c-.38.14-.76.29-1.13.46l-.22-.29c-.13-.17-.38-.21-.56-.08-.18.13-.21.38-.08.55l.12.16c-.45.23-.9.48-1.33.74l-.15-.2c-.13-.17-.38-.21-.56-.08-.18.13-.21.38-.08.55l.12.16c-.43.29-.86.6-1.28.93-.12.1-.28.13-.42.1-.16-.04-.3-.15-.37-.31-.12-.26-.05-.58.17-.75h0Z"/>
    <path class="cls-3" d="M37.34,66.98c-.21.32-.26.72-.15,1.1.12.4.42.73.81.9.18.08.38.12.57.12.44,0,.85-.21,1.09-.58,1.5-2.31,2.5-4.88,2.95-7.65.1-.62-.26-1.25-.86-1.51-.4-.17-.83-.16-1.2.04-.35.19-.59.52-.66.92-.39,2.41-1.25,4.66-2.56,6.67h0ZM40.42,62.78c.22.04.43-.1.47-.31.04-.21-.1-.42-.32-.46l-.2-.04c.12-.5.24-1.01.32-1.52.02-.15.11-.28.25-.35.08-.04.16-.06.24-.06s.16.02.24.05c.27.12.43.4.39.67-.02.12-.04.24-.07.36l-.33-.06c-.22-.04-.43.1-.47.31-.04.21.1.42.32.46l.34.07c-.12.52-.25,1.03-.41,1.53l-.43-.13c-.21-.06-.44.05-.5.26-.06.21.05.43.26.49l.41.13c-.18.49-.37.98-.58,1.45l-.26-.1c-.2-.08-.44.02-.52.22-.08.2.02.43.22.51l.21.08c-.2.4-.42.79-.65,1.17l-.22-.09c-.2-.08-.44.02-.52.22-.08.2.02.43.22.51l.08.03c-.15.15-.38.2-.6.1-.18-.08-.32-.23-.37-.41-.05-.16-.03-.32.06-.45.16-.24.31-.49.46-.74l.26.1c.2.08.44-.02.52-.22.08-.2-.02-.43-.22-.51l-.18-.07c.19-.35.36-.71.52-1.08l.36.07c.22.04.43-.09.47-.31.04-.21-.1-.42-.32-.46l-.2-.04c.18-.47.34-.94.48-1.43l.25.05h.01Z"/>
    <path class="cls-3" d="M35.72,58.64c-1.05,1.65-2.41,3.04-4.04,4.13-.28.19-.46.5-.49.84-.03.35.1.7.37.95.23.22.54.33.84.33.23,0,.46-.07.66-.2,1.89-1.27,3.46-2.89,4.68-4.79.29-.46.21-1.08-.2-1.46-.26-.25-.62-.37-.98-.33-.35.04-.65.23-.84.52h0ZM36.65,58.9h.04c.1,0,.2.04.28.11.14.13.17.33.07.48-.04.07-.09.13-.13.19l-.12-.07c-.19-.11-.44-.05-.55.13-.12.18-.06.43.14.54l.08.05c-.22.3-.45.59-.69.88l-.18-.13c-.18-.13-.43-.1-.56.07-.13.17-.1.42.08.55l.13.1c-.26.27-.52.53-.79.79l-.07-.06c-.16-.15-.42-.13-.56.03-.14.16-.13.4.03.55-.24.2-.49.39-.74.58l-.05-.04c-.16-.15-.42-.13-.56.03-.11.12-.13.29-.06.43-.11.01-.24-.02-.33-.11-.09-.09-.14-.2-.13-.32,0-.06.03-.18.15-.26.18-.13.37-.26.54-.39l.07.06c.16.15.42.13.56-.03.14-.15.13-.38,0-.52.22-.18.43-.37.64-.55l.15.09c.19.11.44.05.55-.13.11-.18.06-.41-.12-.52.25-.26.48-.52.71-.79l.07.04c.19.11.44.05.55-.13.11-.18.06-.41-.12-.53.23-.31.46-.62.66-.95.08-.12.19-.15.25-.16h.02Z"/>
    <path class="cls-3" d="M25.09,62.04c.66,0,1.2-.53,1.2-1.18s-.54-1.18-1.2-1.18-1.2.53-1.2,1.18.54,1.18,1.2,1.18ZM25.09,60.47c.22,0,.4.18.4.39s-.18.39-.4.39-.4-.18-.4-.39.18-.39.4-.39Z"/>
    <path class="cls-3" d="M38.7,57.72c.66,0,1.2-.53,1.2-1.18s-.54-1.18-1.2-1.18-1.2.53-1.2,1.18.54,1.18,1.2,1.18ZM38.7,56.15c.22,0,.4.18.4.39s-.18.39-.4.39-.4-.18-.4-.39.18-.39.4-.39Z"/>
    <path class="cls-3" d="M38.3,71.46c.22,0,.4-.18.4-.39s-.18-.39-.4-.39-.4.18-.4.39.18.39.4.39Z"/>
    <path class="cls-3" d="M34.94,65.57l-.24.23c-.16.15-.16.4,0,.55.16.15.41.15.56,0l.24-.23c.16-.15.16-.4,0-.55-.16-.15-.41-.15-.56,0Z"/>
    <path class="cls-3" d="M28.93,61.65l-.24.23c-.16.15-.16.4,0,.55.16.15.41.15.56,0l.24-.23c.16-.15.16-.4,0-.55-.16-.15-.41-.15-.56,0Z"/>
    <path class="cls-3" d="M27.26,69.89c-.16-.15-.41-.15-.56,0s-.16.4,0,.55l.24.23c.16.15.41.15.56,0,.16-.15.16-.4,0-.55l-.24-.23Z"/>
    <path class="cls-3" d="M43.67,64.79l.24-.23c.16-.15.16-.4,0-.55-.16-.15-.41-.15-.56,0l-.24.23c-.16.15-.16.4,0,.55.16.15.41.15.56,0Z"/>
    <path class="cls-3" d="M28.69,54.97c.22,0,.4-.18.4-.39s-.18-.39-.4-.39-.4.18-.4.39.18.39.4.39Z"/>
    <path class="cls-3" d="M33.5,58.9c.22,0,.4-.18.4-.39s-.18-.39-.4-.39-.4.18-.4.39.18.39.4.39Z"/>
    <path class="cls-3" d="M53.23,63.45c.35.35.92.35,1.27,0l5.73-5.73c.35-.35.35-.92,0-1.27-.35-.35-.92-.35-1.27,0l-5.1,5.1-5.1-5.1c-.35-.35-.92-.35-1.27,0s-.35.92,0,1.27l5.73,5.73ZM49.91,50.83l.72-.54-.72.54ZM39.59,43.56l-.26.86.26-.86ZM26.98,43.86l-.3-.85h0l.3.85ZM17.02,51.62l-.75-.5.75.5ZM13.64,63.78l.9-.04-.9.04ZM28.82,82.33l-.22.87.22-.87ZM41.75,82.25c.46-.19.68-.72.49-1.18-.19-.46-.72-.68-1.18-.49l.69,1.67ZM54.77,62.81c0-4.51-1.45-8.9-4.13-12.52l-1.45,1.07c2.45,3.31,3.78,7.32,3.78,11.45h1.8ZM50.63,50.29c-2.68-3.62-6.46-6.28-10.78-7.6l-.52,1.72c3.94,1.2,7.4,3.63,9.85,6.94l1.45-1.07ZM39.86,42.7c-4.31-1.31-8.93-1.2-13.18.32l.61,1.7c3.88-1.39,8.11-1.49,12.05-.29l.52-1.72ZM26.67,43.01c-4.25,1.52-7.89,4.36-10.4,8.1l1.5,1c2.29-3.43,5.63-6.02,9.51-7.41l-.61-1.7ZM16.27,51.12c-2.51,3.75-3.75,8.2-3.53,12.7l1.8-.09c-.2-4.12.93-8.19,3.23-11.61l-1.5-1ZM12.74,63.82c.22,4.5,1.87,8.82,4.73,12.31l1.39-1.14c-2.61-3.19-4.13-7.14-4.32-11.25l-1.8.09ZM17.47,76.13c2.86,3.49,6.76,5.97,11.13,7.07l.44-1.75c-4-1.01-7.56-3.27-10.17-6.47l-1.39,1.14ZM28.6,83.2c4.37,1.1,8.98.77,13.15-.95l-.69-1.67c-3.81,1.57-8.03,1.87-12.02.86l-.44,1.75Z"/>
  </g>
</svg>