<svg width="189" height="188" viewBox="0 0 189 188" fill="none" xmlns="http://www.w3.org/2000/svg">
<g filter="url(#filter0_bf_206_5969)">
<circle cx="94.5042" cy="94.0338" r="70.1548" transform="rotate(-64.0339 94.5042 94.0338)" fill="#1752E2" fill-opacity="0.3"/>
</g>
<path d="M58.1545 52.5337V44.3519H59.369V45.6303H59.4755C59.646 45.1935 59.9212 44.8544 60.3011 44.6129C60.6811 44.3679 61.1374 44.2453 61.6701 44.2453C62.2099 44.2453 62.6591 44.3679 63.0178 44.6129C63.38 44.8544 63.6623 45.1935 63.8647 45.6303H63.9499C64.1594 45.2077 64.4737 44.8721 64.8928 44.6235C65.3118 44.3714 65.8143 44.2453 66.4002 44.2453C67.1317 44.2453 67.7301 44.4744 68.1953 44.9325C68.6605 45.387 68.8931 46.0955 68.8931 47.0578V52.5337H67.636V47.0578C67.636 46.4541 67.4709 46.0227 67.1406 45.7634C66.8104 45.5042 66.4215 45.3746 65.9741 45.3746C65.3988 45.3746 64.9531 45.5486 64.6371 45.8966C64.321 46.2411 64.163 46.6779 64.163 47.207V52.5337H62.8846V46.93C62.8846 46.4648 62.7337 46.0902 62.4318 45.8061C62.13 45.5184 61.7411 45.3746 61.2653 45.3746C60.9386 45.3746 60.6332 45.4616 60.3491 45.6356C60.0685 45.8096 59.8413 46.0511 59.6673 46.36C59.4968 46.6654 59.4116 47.0188 59.4116 47.4201V52.5337H58.1545ZM74.5154 52.7041C73.7768 52.7041 73.1287 52.5284 72.5712 52.1768C72.0172 51.8252 71.584 51.3334 71.2715 50.7013C70.9625 50.0692 70.8081 49.3306 70.8081 48.4854C70.8081 47.6331 70.9625 46.8892 71.2715 46.2535C71.584 45.6179 72.0172 45.1242 72.5712 44.7727C73.1287 44.4211 73.7768 44.2453 74.5154 44.2453C75.2541 44.2453 75.9004 44.4211 76.4544 44.7727C77.0119 45.1242 77.4451 45.6179 77.7541 46.2535C78.0666 46.8892 78.2228 47.6331 78.2228 48.4854C78.2228 49.3306 78.0666 50.0692 77.7541 50.7013C77.4451 51.3334 77.0119 51.8252 76.4544 52.1768C75.9004 52.5284 75.2541 52.7041 74.5154 52.7041ZM74.5154 51.5749C75.0765 51.5749 75.5382 51.4311 75.9004 51.1434C76.2626 50.8558 76.5307 50.4776 76.7047 50.0088C76.8787 49.5401 76.9657 49.0323 76.9657 48.4854C76.9657 47.9385 76.8787 47.4289 76.7047 46.9566C76.5307 46.4843 76.2626 46.1026 75.9004 45.8114C75.5382 45.5202 75.0765 45.3746 74.5154 45.3746C73.9544 45.3746 73.4927 45.5202 73.1305 45.8114C72.7683 46.1026 72.5002 46.4843 72.3262 46.9566C72.1522 47.4289 72.0652 47.9385 72.0652 48.4854C72.0652 49.0323 72.1522 49.5401 72.3262 50.0088C72.5002 50.4776 72.7683 50.8558 73.1305 51.1434C73.4927 51.4311 73.9544 51.5749 74.5154 51.5749ZM85.9372 46.1843L84.808 46.5039C84.7369 46.3157 84.6322 46.1328 84.4937 45.9552C84.3588 45.7741 84.1741 45.625 83.9397 45.5078C83.7053 45.3906 83.4053 45.332 83.0395 45.332C82.5388 45.332 82.1215 45.4474 81.7877 45.6782C81.4575 45.9055 81.2923 46.1949 81.2923 46.5465C81.2923 46.859 81.406 47.1058 81.6333 47.2869C81.8605 47.468 82.2156 47.6189 82.6986 47.7397L83.9131 48.038C84.6446 48.2155 85.1897 48.4872 85.5484 48.8529C85.907 49.2152 86.0864 49.6821 86.0864 50.2539C86.0864 50.7226 85.9514 51.1416 85.6816 51.511C85.4152 51.8803 85.0423 52.1715 84.5629 52.3845C84.0835 52.5976 83.526 52.7041 82.8904 52.7041C82.0558 52.7041 81.3651 52.523 80.8183 52.1608C80.2714 51.7986 79.9252 51.2695 79.7796 50.5735L80.9727 50.2752C81.0864 50.7155 81.3012 51.0458 81.6173 51.2659C81.9369 51.4861 82.3541 51.5962 82.8691 51.5962C83.455 51.5962 83.9202 51.4719 84.2646 51.2233C84.6127 50.9712 84.7867 50.6693 84.7867 50.3178C84.7867 50.0337 84.6872 49.7958 84.4884 49.604C84.2895 49.4087 83.9841 49.2631 83.5722 49.1672L82.2085 48.8476C81.4593 48.6701 80.9088 48.3948 80.5573 48.022C80.2093 47.6456 80.0352 47.175 80.0352 46.6104C80.0352 46.1487 80.1649 45.7404 80.4241 45.3853C80.6869 45.0301 81.0438 44.7514 81.4948 44.549C81.9493 44.3465 82.4642 44.2453 83.0395 44.2453C83.8492 44.2453 84.4848 44.4229 84.9465 44.778C85.4117 45.1331 85.7419 45.6019 85.9372 46.1843ZM93.5611 55.6019V51.2766H93.4545C93.3622 51.4257 93.2308 51.6139 93.0604 51.8412C92.8899 52.0649 92.6467 52.2656 92.3306 52.4431C92.0146 52.6171 91.5938 52.7041 91.0682 52.7041C90.3864 52.7041 89.7844 52.5319 89.2624 52.1875C88.7404 51.8394 88.332 51.3494 88.0373 50.7173C87.7425 50.0816 87.5952 49.3306 87.5952 48.4641C87.5952 47.6047 87.7425 46.859 88.0373 46.2269C88.332 45.5948 88.7422 45.1065 89.2678 44.762C89.7933 44.4176 90.4006 44.2453 91.0895 44.2453C91.6222 44.2453 92.043 44.3341 92.3519 44.5117C92.6644 44.6857 92.9023 44.8845 93.0657 45.1083C93.2326 45.3284 93.3622 45.5095 93.4545 45.6516H93.6037V44.3519H94.8182V55.6019H93.5611ZM91.2386 51.5749C91.7429 51.5749 92.169 51.4435 92.517 51.1807C92.8651 50.9144 93.1296 50.5468 93.3107 50.0781C93.4918 49.6058 93.5824 49.0607 93.5824 48.4428C93.5824 47.832 93.4936 47.2975 93.3161 46.8394C93.1385 46.3778 92.8757 46.0191 92.5277 45.7634C92.1797 45.5042 91.75 45.3746 91.2386 45.3746C90.706 45.3746 90.2621 45.5113 89.907 45.7848C89.5554 46.0546 89.2908 46.4222 89.1133 46.8874C88.9393 47.349 88.8523 47.8675 88.8523 48.4428C88.8523 49.0252 88.9411 49.5543 89.1186 50.0301C89.2997 50.5024 89.5661 50.8789 89.9176 51.1594C90.2727 51.4364 90.7131 51.5749 91.2386 51.5749ZM102.276 49.1885V44.3519H103.533V52.5337H102.276V51.1487H102.19C101.999 51.5642 101.7 51.9176 101.295 52.2088C100.891 52.4964 100.379 52.6402 99.7614 52.6402C99.25 52.6402 98.7955 52.5284 98.3977 52.3046C98 52.0774 97.6875 51.7365 97.4602 51.2819C97.233 50.8238 97.1193 50.2468 97.1193 49.5507V44.3519H98.3764V49.4655C98.3764 50.0621 98.5433 50.538 98.8771 50.8931C99.2145 51.2482 99.6442 51.4257 100.166 51.4257C100.479 51.4257 100.797 51.3458 101.12 51.186C101.446 51.0262 101.72 50.7812 101.94 50.4509C102.164 50.1207 102.276 49.6999 102.276 49.1885ZM105.835 52.5337V44.3519H107.092V52.5337H105.835ZM106.474 42.9882C106.229 42.9882 106.018 42.9048 105.84 42.7379C105.666 42.571 105.579 42.3703 105.579 42.136C105.579 41.9016 105.666 41.7009 105.84 41.534C106.018 41.3671 106.229 41.2837 106.474 41.2837C106.719 41.2837 106.929 41.3671 107.103 41.534C107.28 41.7009 107.369 41.9016 107.369 42.136C107.369 42.3703 107.28 42.571 107.103 42.7379C106.929 42.9048 106.719 42.9882 106.474 42.9882ZM112.953 44.3519V45.4172H108.713V44.3519H112.953ZM109.949 42.3916H111.206V50.1899C111.206 50.5451 111.257 50.8114 111.36 50.9889C111.467 51.163 111.602 51.2801 111.765 51.3405C111.932 51.3973 112.108 51.4257 112.292 51.4257C112.431 51.4257 112.545 51.4186 112.633 51.4044C112.722 51.3867 112.793 51.3725 112.846 51.3618L113.102 52.4911C113.017 52.523 112.898 52.555 112.745 52.587C112.593 52.6225 112.399 52.6402 112.165 52.6402C111.809 52.6402 111.461 52.5639 111.121 52.4112C110.783 52.2585 110.503 52.0259 110.279 51.7134C110.059 51.4009 109.949 51.0067 109.949 50.5309V42.3916ZM118.08 52.7041C117.341 52.7041 116.693 52.5284 116.136 52.1768C115.582 51.8252 115.148 51.3334 114.836 50.7013C114.527 50.0692 114.373 49.3306 114.373 48.4854C114.373 47.6331 114.527 46.8892 114.836 46.2535C115.148 45.6179 115.582 45.1242 116.136 44.7727C116.693 44.4211 117.341 44.2453 118.08 44.2453C118.819 44.2453 119.465 44.4211 120.019 44.7727C120.576 45.1242 121.01 45.6179 121.319 46.2535C121.631 46.8892 121.787 47.6331 121.787 48.4854C121.787 49.3306 121.631 50.0692 121.319 50.7013C121.01 51.3334 120.576 51.8252 120.019 52.1768C119.465 52.5284 118.819 52.7041 118.08 52.7041ZM118.08 51.5749C118.641 51.5749 119.103 51.4311 119.465 51.1434C119.827 50.8558 120.095 50.4776 120.269 50.0088C120.443 49.5401 120.53 49.0323 120.53 48.4854C120.53 47.9385 120.443 47.4289 120.269 46.9566C120.095 46.4843 119.827 46.1026 119.465 45.8114C119.103 45.5202 118.641 45.3746 118.08 45.3746C117.519 45.3746 117.057 45.5202 116.695 45.8114C116.333 46.1026 116.065 46.4843 115.891 46.9566C115.717 47.4289 115.63 47.9385 115.63 48.4854C115.63 49.0323 115.717 49.5401 115.891 50.0088C116.065 50.4776 116.333 50.8558 116.695 51.1434C117.057 51.4311 117.519 51.5749 118.08 51.5749ZM131.59 52.6828C130.887 52.6828 130.26 52.5621 129.709 52.3206C129.163 52.0791 128.728 51.7436 128.404 51.3139C128.085 50.8806 127.911 50.3782 127.882 49.8064H129.225C129.253 50.158 129.374 50.4616 129.587 50.7173C129.8 50.9694 130.079 51.1647 130.423 51.3032C130.768 51.4417 131.149 51.511 131.568 51.511C132.037 51.511 132.453 51.4293 132.815 51.2659C133.177 51.1026 133.461 50.8753 133.667 50.5841C133.873 50.2929 133.976 49.9556 133.976 49.572C133.976 49.1708 133.877 48.8174 133.678 48.512C133.479 48.2031 133.188 47.9616 132.804 47.7876C132.421 47.6136 131.952 47.5266 131.398 47.5266H130.524V46.3547H131.398C131.831 46.3547 132.211 46.2766 132.538 46.1203C132.868 45.9641 133.126 45.7439 133.31 45.4598C133.498 45.1757 133.593 44.8419 133.593 44.4584C133.593 44.0891 133.511 43.7677 133.348 43.4943C133.184 43.2208 132.953 43.0078 132.655 42.8551C132.36 42.7024 132.012 42.626 131.611 42.626C131.235 42.626 130.88 42.6953 130.546 42.8338C130.215 42.9687 129.946 43.1658 129.736 43.425C129.527 43.6807 129.413 43.9897 129.395 44.3519H128.117C128.138 43.7801 128.31 43.2794 128.633 42.8497C128.957 42.4165 129.379 42.0791 129.901 41.8377C130.427 41.5962 131.004 41.4755 131.632 41.4755C132.307 41.4755 132.886 41.6122 133.369 41.8856C133.852 42.1555 134.223 42.5124 134.482 42.9563C134.741 43.4002 134.871 43.8796 134.871 44.3945C134.871 45.0088 134.709 45.5326 134.386 45.9659C134.067 46.3991 133.632 46.6992 133.081 46.8661V46.9513C133.77 47.0649 134.308 47.3579 134.695 47.8302C135.082 48.299 135.276 48.8796 135.276 49.572C135.276 50.1651 135.114 50.6978 134.791 51.1701C134.472 51.6388 134.035 52.0081 133.481 52.278C132.927 52.5479 132.296 52.6828 131.59 52.6828Z" fill="white"/>
<path fill-rule="evenodd" clip-rule="evenodd" d="M116.275 107.924C115.883 108.117 115.48 108.288 115.066 108.436C114.199 115.209 113.159 124.632 113.277 130.179C113.339 130.412 113.745 137.567 112.169 141.566C111.935 142.157 111.558 142.68 111.073 143.091C110.587 143.501 110.008 143.785 109.386 143.917C108.764 144.05 108.12 144.026 107.509 143.849C106.899 143.672 106.342 143.347 105.887 142.902C103.021 139.896 100.999 136.187 100.026 132.149C99.6392 130.785 99.3371 129.399 99.1211 127.998C99.0634 127.555 99.0156 127.112 98.9775 126.668L89.6733 130.915L81.0439 148.891C80.8885 149.21 80.6128 149.455 80.2774 149.57C79.9419 149.686 79.5742 149.664 79.255 149.509C79.0764 149.424 78.9189 149.3 78.7939 149.147C78.6689 148.993 78.5794 148.814 78.532 148.622C78.4451 148.31 78.4741 147.977 78.6137 147.685L87.4634 129.289C87.599 129.002 87.8323 128.773 88.1215 128.641L98.868 123.735C98.9158 119.356 99.9084 115.022 101.798 111.034C102.429 109.683 103.062 108.442 103.697 107.31C103.492 107.239 103.284 107.165 103.07 107.086C102.646 106.953 102.235 106.787 101.84 106.59C101.119 107.361 99.887 108.556 98.1495 109.823L95.2674 118.784C95.1886 119.038 95.0364 119.262 94.8301 119.428C90.5072 122.749 85.4856 125.042 80.1453 126.136C77.9938 126.521 76.0447 127.646 74.6352 129.317L62.6247 143.625C62.3956 143.895 62.0685 144.064 61.7152 144.093C61.362 144.123 61.0114 144.012 60.7403 143.783C60.5852 143.626 60.4715 143.432 60.4093 143.22C60.3538 143.012 60.3495 142.793 60.3969 142.582C60.4442 142.372 60.5418 142.175 60.6813 142.011L72.6874 127.635C74.4997 125.488 77.0051 124.042 79.7705 123.547C84.5359 122.521 89.0246 120.482 92.9312 117.567L94.6573 112.013C88.1589 115.481 77.7014 117.946 63.3815 111.691C63.1882 111.605 63.018 111.475 62.8849 111.311C62.7517 111.146 62.6593 110.953 62.6154 110.746C62.5629 110.553 62.5544 110.351 62.5904 110.154C62.6265 109.957 62.7061 109.771 62.8236 109.609C72.1323 97.0005 82.4448 93.9216 89.8086 93.7001L85.4481 89.6969C80.6072 89.115 75.6976 89.5887 71.0572 91.0855C68.4181 92.035 65.5305 92.0341 62.8919 91.0832L45.3496 84.6941C45.1424 84.6253 44.9552 84.5069 44.8042 84.3493C44.6533 84.1916 44.5431 83.9994 44.4834 83.7895C44.4134 83.5256 44.4257 83.2466 44.5187 82.9899C44.6392 82.6565 44.8871 82.3846 45.2078 82.2337C45.5286 82.0828 45.8961 82.0652 46.2298 82.1849L63.7851 88.5705C65.8427 89.3008 68.0896 89.2962 70.1443 88.5577C75.3275 86.8607 80.8276 86.3585 86.2325 87.0886C86.4945 87.1297 86.7384 87.2477 86.9332 87.4276L93.9528 93.869C95.9496 94.0938 97.5268 94.4838 98.5371 94.7907C98.791 94.3888 99.0797 94.008 99.4009 93.653C99.5468 93.4939 99.6857 93.3401 99.8208 93.1904L99.8837 93.1208C98.8006 92.4782 97.6663 91.7474 96.4811 90.9286C92.8536 88.4444 89.8232 85.2129 87.582 81.4703L75.7876 82.5974C75.4716 82.6286 75.1548 82.5464 74.8937 82.3656L58.0041 70.7558C57.741 70.5752 57.551 70.3066 57.4684 69.9983C57.4184 69.8115 57.4094 69.6161 57.4421 69.4255C57.4747 69.2348 57.5483 69.0536 57.6577 68.8941C57.7612 68.7512 57.892 68.6302 58.0424 68.538C58.1928 68.4458 58.36 68.3843 58.5343 68.3569C58.7086 68.3295 58.8866 68.3368 59.058 68.3785C59.2295 68.4201 59.391 68.4952 59.5333 68.5995L75.9947 79.8527L86.1948 78.8767C85.9885 78.4414 85.7922 78.0007 85.6062 77.5547C85.0927 76.2332 84.661 74.8813 84.3136 73.5068C83.1377 69.5234 83.0342 65.3001 84.0135 61.2639C84.1793 60.6376 84.5003 60.0632 84.9467 59.5937C85.3932 59.1242 85.9507 58.7748 86.5679 58.5776C87.185 58.3805 87.8419 58.342 88.4778 58.4658C89.1138 58.5895 89.7083 58.8715 90.2065 59.2857C93.1641 61.7043 96.0163 67.056 96.7211 68.3786L96.7212 68.3787L96.7213 68.3788L96.7213 68.3789C96.8075 68.5406 96.8615 68.642 96.8797 68.6703C99.514 73.486 105.103 81.0882 109.239 86.5145C109.669 86.438 110.101 86.3866 110.533 86.3599C110.039 81.4349 112.481 76.1764 112.602 75.9338C112.729 75.6623 112.945 75.4415 113.213 75.3068C113.481 75.1722 113.786 75.1314 114.08 75.1911C114.08 75.1911 119.684 76.6006 120.786 76.8874C120.905 76.9107 121.027 76.9066 121.144 76.8754C121.26 76.8441 121.368 76.7866 121.459 76.7072C123.919 75.0776 126.062 66.3111 126.829 61.1567C126.856 60.9829 126.917 60.816 127.009 60.6657C127.101 60.5155 127.221 60.3847 127.363 60.281C127.505 60.1772 127.666 60.1025 127.837 60.0611C128.008 60.0197 128.186 60.0124 128.36 60.0397C128.709 60.0922 129.024 60.2809 129.235 60.5645C129.446 60.8482 129.536 61.2038 129.486 61.5538L129.473 61.6379C129.18 63.4472 127.122 76.1747 122.945 78.9427C122.538 79.2259 122.076 79.419 121.588 79.509C121.101 79.5989 120.6 79.5838 120.118 79.4645C119.329 79.2602 116.25 78.4772 114.557 78.0575C113.911 79.7793 112.776 83.3926 113.204 86.5101C114.501 86.7381 115.761 87.1918 116.924 87.8631C117.777 88.3555 118.555 88.9518 119.243 89.6331C119.311 89.4836 119.387 89.337 119.47 89.194C119.824 88.5803 120.296 88.0424 120.858 87.611C121.42 87.1797 122.062 86.8632 122.746 86.6798C123.431 86.4964 124.145 86.4496 124.847 86.5421C125.55 86.6346 126.227 86.8646 126.841 87.2189C127.455 87.5732 127.993 88.0449 128.424 88.6071C128.855 89.1693 129.172 89.8109 129.355 90.4954L130.537 94.9057C130.907 96.288 130.713 97.7609 129.998 99.0003C129.282 100.24 128.104 101.144 126.721 101.514C125.339 101.885 123.866 101.691 122.627 100.975C122.485 100.893 122.347 100.805 122.215 100.712C121.959 101.648 121.584 102.555 121.09 103.41C120.427 104.559 119.575 105.571 118.581 106.412C119.745 109.366 122.559 111.901 123.996 113.069L128.109 109.07C128.466 108.726 128.892 108.462 129.359 108.296C129.826 108.13 130.324 108.066 130.817 108.108C135.906 108.422 144.238 118.721 145.177 119.897C145.398 120.176 145.5 120.531 145.46 120.885C145.42 121.239 145.24 121.562 144.962 121.784C144.683 122.006 144.327 122.108 143.973 122.068C143.619 122.027 143.296 121.848 143.074 121.569C139.829 117.476 133.59 110.955 130.645 110.774C130.529 110.749 130.408 110.752 130.294 110.783C130.179 110.814 130.073 110.871 129.985 110.951L124.964 115.803C124.739 116.018 124.447 116.148 124.136 116.17C123.826 116.193 123.518 116.106 123.264 115.926C123.039 115.776 118.344 112.428 116.275 107.924ZM89.5965 79.4751C89.584 79.4473 89.5705 79.4199 89.5561 79.393C89.5343 79.3522 89.5105 79.3126 89.4848 79.2745C88.9922 78.3816 88.5478 77.4594 88.1545 76.5114C85.2688 69.4665 85.9303 64.3821 86.5846 61.9612C86.6365 61.771 86.7349 61.5966 86.8708 61.4537C87.0067 61.3109 87.1759 61.204 87.3633 61.1426C87.5548 61.0806 87.759 61.0687 87.9564 61.1081C88.1537 61.1474 88.3378 61.2366 88.4909 61.3672C91.4046 63.7054 94.4238 69.7997 94.455 69.9161C97.3046 75.138 103.304 83.2515 107.524 88.7671C107.554 88.8122 107.587 88.8554 107.623 88.8965C108.767 90.3903 109.775 91.6874 110.548 92.6764C110.611 92.7563 110.658 92.8468 110.689 92.9436C110.737 93.1071 110.725 93.2825 110.655 93.4379C110.614 93.5577 110.539 93.6632 110.44 93.7415C110.34 93.8199 110.22 93.8677 110.094 93.8793C107.501 94.186 103.157 92.3558 98.0189 88.7006C94.5335 86.2989 91.6575 83.139 89.5965 79.4751ZM100.613 96.5595C100.836 96.1401 101.111 95.7487 101.434 95.3954L101.434 95.3953L101.434 95.3952L101.434 95.3951L101.434 95.3951L101.435 95.395L101.435 95.3949L101.435 95.3948L101.435 95.3948L101.436 95.3938C101.725 95.0784 102.014 94.763 102.305 94.4536C105.58 96.1046 108.306 96.8123 110.467 96.5655C111.067 96.4906 111.635 96.2547 112.111 95.8831C112.588 95.5114 112.955 95.0177 113.173 94.4543C113.408 93.8892 113.488 93.2719 113.406 92.6655C113.324 92.0592 113.082 91.4855 112.706 91.0031C112.263 90.4367 111.741 89.7672 111.161 89.0166C111.301 89.0154 111.442 89.0176 111.582 89.0232C111.833 89.1263 112.111 89.1508 112.378 89.0919C113.498 89.2404 114.588 89.6067 115.585 90.1823C117.161 91.0918 118.4 92.4652 119.148 94.0977L119.898 96.8992C120.067 98.6866 119.68 100.496 118.771 102.071C118.195 103.069 117.433 103.932 116.536 104.621C116.313 104.703 116.115 104.842 115.964 105.025C115.805 105.128 115.643 105.226 115.477 105.319C115.602 104.396 115.716 103.571 115.815 102.87C115.9 102.264 115.822 101.647 115.59 101.08C115.358 100.514 114.98 100.02 114.494 99.6477C114.025 99.2651 113.46 99.0185 112.861 98.9346C112.262 98.8508 111.651 98.933 111.095 99.1723C109.088 100.03 107.091 101.971 105.113 104.975C104.709 104.858 104.299 104.737 103.905 104.617C103.362 104.445 102.851 104.193 102.386 103.871C102.372 103.859 102.358 103.848 102.343 103.837C102.31 103.812 102.276 103.789 102.241 103.767C101.985 103.577 101.743 103.364 101.521 103.131C100.863 102.444 100.39 101.602 100.143 100.683C99.8972 99.7642 99.8864 98.7981 100.112 97.874C100.152 97.7102 100.199 97.5487 100.253 97.3899C100.36 97.2755 100.448 97.1422 100.51 96.9951C100.569 96.8554 100.603 96.7081 100.613 96.5595ZM97.4869 97.2692C93.2086 95.9909 79.0204 93.422 65.9824 109.913C80.7098 115.817 90.5817 111.933 95.8661 108.271C95.8982 108.219 95.9337 108.17 95.9726 108.123C96.0853 107.987 96.2238 107.875 96.38 107.793C96.4782 107.741 96.5822 107.702 96.6897 107.675C98.0459 106.653 99.0348 105.692 99.6625 105.02C99.6353 104.993 99.6084 104.966 99.5816 104.938C98.6155 103.943 97.9127 102.723 97.5368 101.388C97.1762 100.046 97.1579 98.6346 97.4835 97.2832L97.4869 97.2692ZM101.798 127.641C101.685 126.754 101.615 125.866 101.588 124.978C101.632 124.834 101.653 124.683 101.648 124.532C101.643 124.397 101.619 124.263 101.575 124.136C101.574 120.002 102.5 115.905 104.301 112.152C106.975 106.403 109.77 102.66 112.169 101.629L112.114 101.63C112.228 101.58 112.353 101.564 112.476 101.582C112.599 101.601 112.714 101.654 112.808 101.735C112.918 101.818 113.004 101.928 113.058 102.055C113.111 102.182 113.13 102.321 113.112 102.458C112.288 108.279 110.382 122.637 110.553 130.257C110.557 130.326 110.99 137.113 109.661 140.588C109.594 140.778 109.479 140.947 109.328 141.08C109.177 141.212 108.994 141.304 108.797 141.346C108.604 141.387 108.404 141.379 108.215 141.323C108.026 141.267 107.854 141.165 107.713 141.027C105.94 139.27 102.821 135.185 101.798 127.641ZM122.738 96.9954L122.5 96.1083C122.436 95.6607 122.345 95.2151 122.227 94.7739C122.109 94.3326 121.965 93.9013 121.797 93.4816L121.556 92.5851C121.37 91.8888 121.467 91.1469 121.828 90.5226C122.188 89.8982 122.782 89.4427 123.478 89.2561C124.175 89.0695 124.917 89.1672 125.541 89.5277C126.165 89.8881 126.621 90.4818 126.807 91.1781L127.989 95.5884C128.176 96.2847 128.078 97.0266 127.717 97.6509C127.357 98.2752 126.763 98.7308 126.067 98.9174C125.371 99.1039 124.629 99.0063 124.004 98.6458C123.38 98.2854 122.925 97.6917 122.738 96.9954Z" fill="white"/>
<defs>
<filter id="filter0_bf_206_5969" x="12.632" y="12.1633" width="163.744" height="163.741" filterUnits="userSpaceOnUse" color-interpolation-filters="sRGB">
<feFlood flood-opacity="0" result="BackgroundImageFix"/>
<feGaussianBlur in="BackgroundImageFix" stdDeviation="5.85"/>
<feComposite in2="SourceAlpha" operator="in" result="effect1_backgroundBlur_206_5969"/>
<feBlend mode="normal" in="SourceGraphic" in2="effect1_backgroundBlur_206_5969" result="shape"/>
<feGaussianBlur stdDeviation="2" result="effect2_foregroundBlur_206_5969"/>
</filter>
</defs>
</svg>
