<?xml version="1.0" encoding="utf-8"?>
<!-- Generator: Adobe Illustrator 28.3.0, SVG Export Plug-In . SVG Version: 6.00 Build 0)  -->
<svg version="1.1" id="Calque_1" xmlns="http://www.w3.org/2000/svg" xmlns:xlink="http://www.w3.org/1999/xlink" x="0px" y="0px"
	 viewBox="0 0 382.8 251.7" style="enable-background:new 0 0 382.8 251.7;" xml:space="preserve">
<style type="text/css">
	.st0{fill:#F4F7FD;}
	.st1{fill:#D4DFF3;}
</style>
<rect class="st0" width="382.8" height="251.7"/>
<g>
	<path class="st1" d="M239.2,88.7c-17.7,0-35.4,0-53.1,0c-14.1,0-28.3,0-42.4,0c-3.5,0-5.4,1.8-5.4,5.1c0,21.4,0,42.8,0,64.3
		c0,0.6,0,1.1,0.2,1.7c0.7,2.2,2.4,3.3,5.2,3.3c15.8,0,31.7,0,47.5,0c0,0,0,0,0,0c15.3,0,30.6,0,45.9,0c0.9,0,1.7,0,2.6,0
		c1.9-0.1,3.4-0.9,4.2-2.6c0.4-0.9,0.5-1.9,0.5-2.9c0-21.2,0-42.5,0-63.7C244.5,90.5,242.6,88.7,239.2,88.7z M218.3,131.6
		c-17.1,0-34.3,0-51.4,0c0-1,0-1.9,0-2.9c2.5-1,5-1.9,7.5-2.9c5.9-2.3,11.9-4.5,17.8-6.8c0.2-0.1,0.5-0.1,0.8,0
		c8.3,3.1,16.6,6.3,24.9,9.5c0.2,0.1,0.3,0.1,0.5,0.2C218.3,129.6,218.3,130.6,218.3,131.6z M169.4,134.2c15.4,0,30.8,0,46.3,0
		c0,6.4,0,12.8,0,19.2l-7.7,0c0-4.2,0-8.4,0-12.6c0-1-0.5-1.5-1.5-1.5c-9.3,0-18.6,0-27.9,0c-1,0-1.5,0.5-1.5,1.5
		c0,4.2,0,8.5,0,12.7l-7.7,0C169.4,147.1,169.4,140.7,169.4,134.2z M205.4,153.4l-25.7,0.1c0-3.8,0-7.7,0-11.6c8.5,0,17.1,0,25.7,0
		C205.4,145.8,205.4,149.6,205.4,153.4z M242.2,152.1c0,0.4-0.1,0.7-0.1,1.1c-0.1,0-0.2,0.1-0.3,0.1l-23.4,0.1c0-6.2,0-12.4,0-18.6
		c0-0.2,0-0.4,0-0.6c0.4,0,0.7,0,1,0c1.1,0,1.6-0.4,1.6-1.5c0-1.5,0-3.1,0-4.6c0-0.9-0.2-1.2-1.1-1.6c-7.5-2.9-15.1-5.7-22.6-8.6
		c-1.4-0.5-2.8-1.1-4.2-1.6c-0.3,0-0.5,0-0.8,0c-0.1,0.1-0.3,0.2-0.4,0.2c-6,2.3-11.9,4.5-17.9,6.8c-2.9,1.1-5.8,2.2-8.6,3.3
		c-0.7,0.3-1,0.6-1,1.3c0,1.7,0,3.4,0,5.1c0,0.8,0.5,1.3,1.3,1.3c0.4,0,0.8,0,1.3,0c0,0.3,0,0.5,0,0.7c0,6.2,0,12.5,0,18.7
		l-26.3,0.1c0-0.7,0-0.3,0-0.7c0-19.6,0-39.1,0-58.7c0-2.3,0.8-3.1,3-3.1c20.8,0,41.6,0,62.4,0c11.1,0,22.2,0,33.2,0.1
		c2.1,0,2.9,0.9,2.9,3c0,18.1,0,36.1,0,54.2C242.2,149.5,242.2,150.8,242.2,152.1z"/>
	<path class="st1" d="M165.2,103.4c-4.1,0-7.4,3.2-7.4,7.3c0,4.1,3.3,7.4,7.4,7.4c4,0,7.4-3.3,7.4-7.3
		C172.6,106.6,169.4,103.4,165.2,103.4z"/>
</g>
</svg>
