<?xml version="1.0" encoding="utf-8"?>
<!-- Generator: Adobe Illustrator 28.3.0, SVG Export Plug-In . SVG Version: 6.00 Build 0)  -->
<svg version="1.1" id="Calque_1" xmlns="http://www.w3.org/2000/svg" xmlns:xlink="http://www.w3.org/1999/xlink" x="0px" y="0px"
	 viewBox="0 0 128 128" style="enable-background:new 0 0 128 128;" xml:space="preserve">
<style type="text/css">
	.st0{fill:#FFFFFF;fill-opacity:0.9;}
	.st1{fill:#001AFF;}
</style>
<g>
	<g>
		<circle class="st0" cx="64" cy="64" r="51"/>
	</g>
	<path class="st1" d="M63.1,81.8c11,0,20-8.8,20-19.6s-9-19.6-20-19.6s-20,8.8-20,19.6S52.1,81.8,63.1,81.8z M63.1,43.9
		c10.3,0,18.7,8.2,18.7,18.3s-8.4,18.3-18.7,18.3s-18.7-8.2-18.7-18.3S52.8,43.9,63.1,43.9z"/>
	<path class="st1" d="M63,76.9c0.4,0.2,0.8,0.4,1.2,0.4c0.1,0,0.3,0,0.4,0c0.6-0.1,1.1-0.4,1.5-1c0.7-1,0.4-2.4-0.6-3.2
		c-0.1,0-0.1-0.1-0.2-0.1c-6-1.8-11.4-5.7-15.2-10.9c0-0.1-0.1-0.1-0.1-0.2c-0.5-0.4-1.1-0.5-1.7-0.4c-0.6,0.1-1.1,0.4-1.5,1
		c-0.7,1-0.5,2.3,0.5,3.1C51.2,70.9,56.8,74.9,63,76.9L63,76.9z M49.8,65.4c-0.2-0.3-0.6-0.3-0.9-0.1l-0.1,0
		c-0.2-0.2-0.3-0.4-0.5-0.6c0-0.1-0.1-0.1-0.2-0.2c-0.4-0.3-0.5-0.9-0.2-1.4c0.1-0.2,0.4-0.3,0.6-0.4c0,0,0.1,0,0.1,0
		c0.1,0,0.3,0,0.4,0.1c0.1,0.1,0.2,0.2,0.2,0.3c-0.3,0.2-0.4,0.6-0.2,0.9c0.2,0.3,0.6,0.4,0.9,0.2l0.1-0.1c0.4,0.5,0.9,1,1.3,1.5
		l-0.1,0.1c-0.3,0.2-0.4,0.6-0.2,0.9c0.2,0.3,0.6,0.4,0.9,0.2l0.4-0.2c0.5,0.5,1.1,1,1.6,1.5l-0.2,0.2c-0.3,0.3-0.3,0.7,0,0.9
		s0.7,0.3,0.9,0L55,69c0.8,0.6,1.6,1.2,2.4,1.7L57.1,71c-0.3,0.3-0.3,0.7,0,0.9s0.7,0.3,0.9,0l0.5-0.5c0.7,0.4,1.4,0.8,2.1,1.1
		L60.3,73c-0.2,0.3-0.2,0.7,0.1,0.9c0.3,0.2,0.7,0.2,0.9-0.1l0.6-0.7c0.9,0.4,1.9,0.7,2.8,1c0.4,0.3,0.4,0.9,0.2,1.3
		c-0.1,0.2-0.4,0.3-0.6,0.4c-0.2,0-0.5,0-0.7-0.2c-0.1,0-0.1-0.1-0.2-0.1c0,0-0.1,0-0.1,0l0.3-0.8l-1.2-0.5l-0.3,0.8
		c-1.1-0.4-2.1-0.8-3.1-1.3l0.2-0.3c0.2-0.3,0.2-0.7-0.1-0.9c-0.3-0.2-0.7-0.2-0.9,0.1l-0.3,0.5c-0.8-0.4-1.5-0.9-2.3-1.4l0.2-0.2
		c0.3-0.3,0.3-0.7,0-0.9c-0.3-0.3-0.7-0.3-0.9,0L54.5,71c-0.8-0.6-1.5-1.2-2.2-1.8l0.2-0.2c0.3-0.3,0.3-0.7,0-0.9s-0.7-0.3-0.9,0
		l-0.2,0.2c-0.6-0.6-1.2-1.2-1.7-1.9l0,0C49.9,66.2,50,65.7,49.8,65.4L49.8,65.4z"/>
	<path class="st1" d="M53.4,56.5c0.2,0,0.3,0.1,0.5,0.1c0.5,0,1-0.2,1.4-0.5c3.2-2.6,6.8-4.4,10.7-5.5c0.6-0.2,1.1-0.6,1.4-1.2
		c0.3-0.6,0.3-1.4,0-2c-0.5-1-1.5-1.5-2.6-1.2c-4.5,1.2-8.6,3.3-12.3,6.3c-0.8,0.7-1.1,1.8-0.7,2.8C52.1,55.9,52.7,56.4,53.4,56.5
		L53.4,56.5z M53.3,53.5c0.2-0.1,0.3-0.2,0.5-0.4l0.3,0.4c0.2,0.3,0.6,0.3,0.9,0.1c0.3-0.2,0.4-0.6,0.1-0.9l-0.3-0.5
		c0.7-0.5,1.5-1,2.2-1.5l0.4,0.6c0.2,0.3,0.6,0.4,0.9,0.2c0.3-0.2,0.4-0.6,0.2-0.9l-0.4-0.6c0.8-0.4,1.6-0.8,2.4-1.2l0.2,0.4
		c0.2,0.3,0.6,0.5,0.9,0.3c0.3-0.2,0.5-0.6,0.3-0.9l-0.2-0.3c0.7-0.3,1.4-0.5,2.1-0.7l0.2,0.4c0.2,0.3,0.6,0.5,0.9,0.3
		c0.3-0.2,0.5-0.6,0.3-0.9l-0.1-0.1c0.4,0,0.7,0.2,0.9,0.5c0.1,0.3,0.1,0.6,0,0.9c-0.1,0.3-0.3,0.4-0.6,0.5
		c-0.5,0.1-0.9,0.3-1.4,0.4L64,49.4c-0.2-0.3-0.6-0.5-0.9-0.3c-0.3,0.2-0.5,0.6-0.3,0.9l0.1,0.3c-0.6,0.2-1.3,0.5-1.9,0.8l-0.4-0.5
		c-0.2-0.3-0.6-0.3-0.9-0.1c-0.3,0.2-0.4,0.6-0.1,0.9l0.2,0.3c-0.8,0.4-1.5,0.8-2.2,1.2l-0.3-0.3c-0.2-0.3-0.6-0.3-0.9-0.1
		c-0.3,0.2-0.4,0.6-0.1,0.9l0.2,0.3c-0.7,0.5-1.4,1-2.1,1.5c-0.2,0.2-0.5,0.2-0.7,0.2c-0.3-0.1-0.5-0.3-0.6-0.5
		C52.9,54.3,53,53.8,53.3,53.5L53.3,53.5z"/>
	<path class="st1" d="M69.5,68.4c-0.3,0.5-0.4,1.2-0.2,1.8c0.2,0.7,0.7,1.2,1.4,1.5c0.3,0.1,0.6,0.2,0.9,0.2c0.7,0,1.4-0.3,1.8-1
		c2.5-3.8,4.2-8.1,4.9-12.7c0.2-1-0.4-2.1-1.4-2.5c-0.7-0.3-1.4-0.3-2,0.1c-0.6,0.3-1,0.9-1.1,1.5C73.1,61.4,71.7,65.1,69.5,68.4
		L69.5,68.4z M74.6,61.4c0.4,0.1,0.7-0.2,0.8-0.5c0.1-0.4-0.2-0.7-0.5-0.8l-0.3-0.1c0.2-0.8,0.4-1.7,0.5-2.5c0-0.3,0.2-0.5,0.4-0.6
		c0.1-0.1,0.3-0.1,0.4-0.1c0.1,0,0.3,0,0.4,0.1c0.4,0.2,0.7,0.7,0.6,1.1c0,0.2-0.1,0.4-0.1,0.6l-0.6-0.1c-0.4-0.1-0.7,0.2-0.8,0.5
		c-0.1,0.4,0.2,0.7,0.5,0.8l0.6,0.1c-0.2,0.9-0.4,1.7-0.7,2.5l-0.7-0.2c-0.4-0.1-0.7,0.1-0.8,0.4c-0.1,0.3,0.1,0.7,0.4,0.8l0.7,0.2
		c-0.3,0.8-0.6,1.6-1,2.4L74.1,66c-0.3-0.1-0.7,0-0.9,0.4c-0.1,0.3,0,0.7,0.4,0.8l0.4,0.1c-0.3,0.7-0.7,1.3-1.1,1.9l-0.4-0.1
		c-0.3-0.1-0.7,0-0.9,0.4c-0.1,0.3,0,0.7,0.4,0.8l0.1,0.1c-0.2,0.3-0.6,0.3-1,0.2c-0.3-0.1-0.5-0.4-0.6-0.7c-0.1-0.3,0-0.5,0.1-0.8
		c0.3-0.4,0.5-0.8,0.8-1.2l0.4,0.2c0.3,0.1,0.7,0,0.9-0.4c0.1-0.3,0-0.7-0.4-0.8L72,66.8c0.3-0.6,0.6-1.2,0.9-1.8l0.6,0.1
		c0.4,0.1,0.7-0.2,0.8-0.5c0.1-0.4-0.2-0.7-0.5-0.8l-0.3-0.1c0.3-0.8,0.6-1.6,0.8-2.4L74.6,61.4L74.6,61.4z"/>
	<path class="st1" d="M66.8,54.6c-1.8,2.7-4,5.1-6.7,6.9c-0.5,0.3-0.8,0.8-0.8,1.4c-0.1,0.6,0.2,1.2,0.6,1.6
		c0.4,0.4,0.9,0.6,1.4,0.6c0.4,0,0.8-0.1,1.1-0.3c3.1-2.1,5.8-4.8,7.8-8c0.5-0.8,0.4-1.8-0.3-2.4c-0.4-0.4-1-0.6-1.6-0.5
		C67.6,53.8,67.1,54.1,66.8,54.6L66.8,54.6z M68.3,55C68.3,55,68.4,55,68.3,55c0.2,0,0.4,0.1,0.5,0.2c0.2,0.2,0.3,0.6,0.1,0.8
		c-0.1,0.1-0.1,0.2-0.2,0.3l-0.2-0.1c-0.3-0.2-0.7-0.1-0.9,0.2c-0.2,0.3-0.1,0.7,0.2,0.9l0.1,0.1c-0.4,0.5-0.8,1-1.2,1.5l-0.3-0.2
		c-0.3-0.2-0.7-0.2-0.9,0.1c-0.2,0.3-0.2,0.7,0.1,0.9l0.2,0.2c-0.4,0.5-0.9,0.9-1.3,1.3L64.6,61c-0.3-0.2-0.7-0.2-0.9,0.1
		c-0.2,0.3-0.2,0.7,0.1,0.9c-0.4,0.3-0.8,0.7-1.2,1l-0.1-0.1c-0.3-0.2-0.7-0.2-0.9,0.1c-0.2,0.2-0.2,0.5-0.1,0.7
		c-0.2,0-0.4,0-0.5-0.2c-0.2-0.1-0.2-0.3-0.2-0.5c0-0.1,0.1-0.3,0.2-0.4c0.3-0.2,0.6-0.4,0.9-0.6l0.1,0.1c0.3,0.2,0.7,0.2,0.9-0.1
		c0.2-0.3,0.2-0.6,0-0.9c0.4-0.3,0.7-0.6,1.1-0.9l0.2,0.1c0.3,0.2,0.7,0.1,0.9-0.2c0.2-0.3,0.1-0.7-0.2-0.9c0.4-0.4,0.8-0.9,1.2-1.3
		l0.1,0.1c0.3,0.2,0.7,0.1,0.9-0.2c0.2-0.3,0.1-0.7-0.2-0.9c0.4-0.5,0.8-1,1.1-1.6C68,55,68.2,55,68.3,55L68.3,55z"/>
	<path class="st1" d="M49.1,60.2c1.1,0,2-0.9,2-2c0-1.1-0.9-2-2-2c-1.1,0-2,0.9-2,2C47.1,59.3,48,60.2,49.1,60.2z M49.1,57.6
		c0.4,0,0.7,0.3,0.7,0.7s-0.3,0.7-0.7,0.7c-0.4,0-0.7-0.3-0.7-0.7S48.7,57.6,49.1,57.6z"/>
	<path class="st1" d="M71.8,53c1.1,0,2-0.9,2-2c0-1.1-0.9-2-2-2c-1.1,0-2,0.9-2,2C69.8,52.1,70.7,53,71.8,53z M71.8,50.4
		c0.4,0,0.7,0.3,0.7,0.7c0,0.4-0.3,0.7-0.7,0.7s-0.7-0.3-0.7-0.7C71.1,50.7,71.4,50.4,71.8,50.4z"/>
	<path class="st1" d="M71.1,75.9c0.4,0,0.7-0.3,0.7-0.7s-0.3-0.7-0.7-0.7c-0.4,0-0.7,0.3-0.7,0.7S70.7,75.9,71.1,75.9z"/>
	<path class="st1" d="M65.5,66.1l-0.4,0.4c-0.3,0.3-0.3,0.7,0,0.9c0.3,0.3,0.7,0.3,0.9,0l0.4-0.4c0.3-0.3,0.3-0.7,0-0.9
		C66.2,65.8,65.7,65.8,65.5,66.1z"/>
	<path class="st1" d="M55.5,59.6l-0.4,0.4c-0.3,0.3-0.3,0.7,0,0.9c0.3,0.3,0.7,0.3,0.9,0l0.4-0.4c0.3-0.3,0.3-0.7,0-0.9
		C56.2,59.3,55.8,59.3,55.5,59.6z"/>
	<path class="st1" d="M52.7,73.3c-0.3-0.3-0.7-0.3-0.9,0s-0.3,0.7,0,0.9l0.4,0.4c0.3,0.3,0.7,0.3,0.9,0c0.3-0.3,0.3-0.7,0-0.9
		L52.7,73.3z"/>
	<path class="st1" d="M80,64.8l0.4-0.4c0.3-0.3,0.3-0.7,0-0.9c-0.3-0.3-0.7-0.3-0.9,0l-0.4,0.4c-0.3,0.3-0.3,0.7,0,0.9
		C79.3,65,79.8,65,80,64.8z"/>
	<path class="st1" d="M55.1,48.4c0.4,0,0.7-0.3,0.7-0.7c0-0.4-0.3-0.7-0.7-0.7c-0.4,0-0.7,0.3-0.7,0.7
		C54.4,48.2,54.7,48.4,55.1,48.4z"/>
	<path class="st1" d="M63.1,55c0.4,0,0.7-0.3,0.7-0.7c0-0.4-0.3-0.7-0.7-0.7c-0.4,0-0.7,0.3-0.7,0.7C62.4,54.7,62.7,55,63.1,55z"/>
	<path class="st1" d="M95.9,62.6c0.6,0.6,1.5,0.6,2.1,0l9.5-9.5c0.6-0.6,0.6-1.5,0-2.1c-0.6-0.6-1.5-0.6-2.1,0L97,59.4l-8.5-8.5
		c-0.6-0.6-1.5-0.6-2.1,0s-0.6,1.5,0,2.1L95.9,62.6z M90.4,41.6l1.2-0.9L90.4,41.6z M73.2,29.4l-0.4,1.4L73.2,29.4z M52.2,30
		l-0.5-1.4l0,0L52.2,30z M35.7,42.9L34.4,42L35.7,42.9z M30,63.1l1.5-0.1L30,63.1z M55.3,94l-0.4,1.5L55.3,94z M76.8,93.9
		c0.8-0.3,1.1-1.2,0.8-2c-0.3-0.8-1.2-1.1-2-0.8L76.8,93.9z M98.5,61.5c0-7.5-2.4-14.8-6.9-20.8l-2.4,1.8c4.1,5.5,6.3,12.2,6.3,19.1
		H98.5z M91.6,40.7c-4.5-6-10.8-10.5-17.9-12.6l-0.9,2.9c6.6,2,12.3,6,16.4,11.6L91.6,40.7z M73.7,28c-7.2-2.2-14.9-2-21.9,0.5
		l1,2.8c6.5-2.3,13.5-2.5,20.1-0.5L73.7,28z M51.7,28.5c-7.1,2.5-13.1,7.3-17.3,13.5l2.5,1.7c3.8-5.7,9.4-10,15.8-12.3L51.7,28.5z
		 M34.4,42c-4.2,6.2-6.2,13.7-5.9,21.1l3-0.1c-0.3-6.9,1.6-13.6,5.4-19.3L34.4,42z M28.5,63.2c0.4,7.5,3.1,14.7,7.9,20.5l2.3-1.9
		c-4.3-5.3-6.9-11.9-7.2-18.7L28.5,63.2z M36.4,83.7c4.8,5.8,11.2,9.9,18.5,11.8l0.7-2.9c-6.7-1.7-12.6-5.5-16.9-10.8L36.4,83.7z
		 M54.9,95.4c7.3,1.8,15,1.3,21.9-1.6l-1.1-2.8c-6.3,2.6-13.4,3.1-20,1.4L54.9,95.4z"/>
</g>
</svg>
