<?xml version="1.0" encoding="utf-8"?>
<!-- Generator: Adobe Illustrator 28.3.0, SVG Export Plug-In . SVG Version: 6.00 Build 0)  -->
<svg version="1.1" id="Calque_1" xmlns="http://www.w3.org/2000/svg" xmlns:xlink="http://www.w3.org/1999/xlink" x="0px" y="0px"
	 viewBox="0 0 87.9 87.9" style="enable-background:new 0 0 87.9 87.9;" xml:space="preserve">
<style type="text/css">
	.st0{fill-rule:evenodd;clip-rule:evenodd;fill:#1752E2;}
</style>
<path class="st0" d="M72.9,39.1V54c0,0.6-0.5,1.2-1.1,1.2h-5.4c-0.6,0-1.1-0.5-1.1-1.2V31.7c0-0.6,0.5-1.2,1.1-1.2h5.4
	c0.6,0,1.1,0.5,1.1,1.2V39.1z M70.6,52.8V32.9h-3.1v19.9H70.6z M47.5,42.8h5.4c0.6,0,1.1,0.5,1.1,1.2v10c0,0.6-0.5,1.2-1.1,1.2h-5.4
	c-0.6,0-1.1-0.5-1.1-1.2v-10C46.3,43.3,46.9,42.8,47.5,42.8z M51.7,45.1h-3.1v7.7h3.1V45.1z M61.1,39h-3.1v13.8h3.1V39z M56.9,36.7
	h5.4c0.6,0,1.1,0.5,1.1,1.2V54c0,0.6-0.5,1.2-1.1,1.2h-5.4c-0.6,0-1.1-0.5-1.1-1.2V37.8C55.8,37.2,56.3,36.7,56.9,36.7z M48.1,23.1
	c-5.4,3.2-9,8.2-10.5,13.8c-3.3,12.2,4,24.7,16.1,28c12.1,3.3,24.7-4,27.9-16.2c3.3-12.2-4-24.7-16.1-28c-5.6-1.5-11.8-0.9-17.2,2.2
	C48.3,23,48.2,23.1,48.1,23.1z M49.4,25.1c-4.9,2.8-8.2,7.4-9.5,12.5c-2.9,10.9,3.6,22.2,14.5,25.2c10.9,2.9,22.2-3.6,25.1-14.5
	c2.9-11-3.6-22.2-14.5-25.2C59.9,21.6,54.3,22.2,49.4,25.1z M47.2,21.3c-1.4,0.8-2.7,1.8-3.9,2.8c-0.1,0.1-0.1,0.1-0.2,0.1
	c-3.7,3.3-6.3,7.6-7.5,12.2c-3.5,13.3,4.3,26.9,17.6,30.5c0.2,0.1,0.4,0.1,0.6,0.2c0,0,0.1,0,0.1,0c1.3,0.3,2.7,0.5,4.1,0.6
	c0,0,0.1,0,0.1,0c11.8,0.8,22.5-6.9,25.5-18.4c3.5-13.3-4.3-26.9-17.6-30.5c-2.6-0.7-5.3-1-8-0.8c-0.1,0-0.1,0-0.1,0
	c-1.3,0.1-2.7,0.3-4,0.6c-0.1,0-0.1,0-0.2,0C51.5,19.2,49.3,20.1,47.2,21.3z M33.4,35.8c0.3-1.2,0.7-2.4,1.2-3.6h-8
	c-0.6,0-1.1-0.5-1.1-1.2c0-0.6,0.5-1.2,1.1-1.2h9.1c1.1-2,2.4-3.8,3.9-5.5h-13c-0.6,0-1.1-0.5-1.1-1.2c0-0.6,0.5-1.2,1.1-1.2H42
	c1.2-1,2.6-2,4-2.8c2-1.2,4.2-2.1,6.3-2.7v-1.8H9v56.1h43.4v-1.8c-3.8-1-7.3-2.9-10.4-5.5H26.6c-0.6,0-1.1-0.5-1.1-1.2
	c0-0.6,0.5-1.2,1.1-1.2h13c-1.5-1.7-2.9-3.5-3.9-5.5h-9.1c-0.6,0-1.1-0.5-1.1-1.2c0-0.6,0.5-1.2,1.1-1.2h8c-0.8-1.8-1.3-3.7-1.7-5.5
	h-6.3c-0.6,0-1.1-0.5-1.1-1.2c0-0.6,0.5-1.2,1.1-1.2h6c-0.2-1.8-0.2-3.7,0-5.5h-6c-0.6,0-1.1-0.5-1.1-1.2c0-0.6,0.5-1.2,1.1-1.2h6.3
	C33.1,37.1,33.2,36.5,33.4,35.8z M54.7,16.1c0.7-0.1,1.4-0.2,2.1-0.3V14c0-1-0.4-1.8-1-2.5c-0.6-0.6-1.5-1-2.5-1H8.2
	c-1,0-1.8,0.4-2.5,1c-0.6,0.6-1,1.5-1,2.5v57.7c0,1,0.4,1.8,1,2.5c0.6,0.6,1.5,1,2.5,1h45.1c1,0,1.8-0.4,2.5-1c0.6-0.6,1-1.5,1-2.5
	v-1.8c-0.7-0.1-1.4-0.2-2.1-0.3v2.5c0,0.6-0.5,1.2-1.1,1.2H7.9c-0.6,0-1.1-0.5-1.1-1.2V13.6c0-0.6,0.5-1.2,1.1-1.2h45.7
	c0.6,0,1.1,0.5,1.1,1.2V16.1z M59.1,15.7V14c0-1.6-0.7-3-1.7-4.1c-1-1-2.5-1.7-4.1-1.7H8.2c-1.6,0-3,0.7-4.1,1.7
	c-1,1-1.7,2.5-1.7,4.1v57.7c0,1.6,0.7,3,1.7,4.1c1,1,2.5,1.7,4.1,1.7h45.1c1.6,0,3-0.7,4.1-1.7c1-1,1.7-2.5,1.7-4.1v-1.6
	c12.5,0.3,23.5-8.1,26.7-20.2c3.9-14.5-4.7-29.4-19.2-33.3C64.2,15.9,61.6,15.6,59.1,15.7z M14.3,39.7c0-0.1,0-0.2,0.1-0.3
	c0.1-0.1,0.2-0.1,0.3-0.1h6.2c0.1,0,0.2,0,0.3,0.1c0.1,0.1,0.1,0.2,0.1,0.3v6.2c0,0.1,0,0.2-0.1,0.3c-0.1,0.1-0.2,0.1-0.3,0.1h-6.2
	c-0.1,0-0.2,0-0.3-0.1c-0.1-0.1-0.1-0.2-0.1-0.3V39.7z M12,46v-6.2c0-0.7,0.3-1.4,0.8-1.9c0.5-0.5,1.1-0.8,1.9-0.8h6.2
	c0.7,0,1.4,0.3,1.9,0.8c0.5,0.5,0.8,1.2,0.8,1.9V46c0,0.7-0.3,1.4-0.8,1.9c-0.5,0.5-1.1,0.8-1.9,0.8h-6.2c-0.7,0-1.4-0.3-1.9-0.8
	C12.3,47.4,12,46.7,12,46z M14.3,23.9c0-0.1,0-0.2,0.1-0.3c0.1-0.1,0.2-0.1,0.3-0.1h6.2c0.1,0,0.2,0,0.3,0.1
	c0.1,0.1,0.1,0.2,0.1,0.3v6.2c0,0.1,0,0.2-0.1,0.3c-0.1,0.1-0.2,0.1-0.3,0.1h-6.2c-0.1,0-0.2,0-0.3-0.1c-0.1-0.1-0.1-0.2-0.1-0.3
	V23.9z M12,30.2v-6.2c0-0.7,0.3-1.4,0.8-1.9c0.5-0.5,1.1-0.8,1.9-0.8h6.2c0.7,0,1.4,0.3,1.9,0.8c0.5,0.5,0.8,1.2,0.8,1.9v6.2
	c0,0.7-0.3,1.4-0.8,1.9c-0.5,0.5-1.1,0.8-1.9,0.8h-6.2c-0.7,0-1.4-0.3-1.9-0.8C12.3,31.6,12,30.9,12,30.2z M14.3,55.6
	c0-0.1,0-0.2,0.1-0.3c0.1-0.1,0.2-0.1,0.3-0.1h6.2c0.1,0,0.2,0,0.3,0.1c0.1,0.1,0.1,0.2,0.1,0.3v6.2c0,0.1,0,0.2-0.1,0.3
	c-0.1,0.1-0.2,0.1-0.3,0.1h-6.2c-0.1,0-0.2,0-0.3-0.1c-0.1-0.1-0.1-0.2-0.1-0.3V55.6z M12,61.8v-6.2c0-0.7,0.3-1.4,0.8-1.9
	c0.5-0.5,1.1-0.8,1.9-0.8h6.2c0.7,0,1.4,0.3,1.9,0.8c0.5,0.5,0.8,1.2,0.8,1.9v6.2c0,0.7-0.3,1.4-0.8,1.9c-0.5,0.5-1.1,0.8-1.9,0.8
	h-6.2c-0.7,0-1.4-0.3-1.9-0.8C12.3,63.2,12,62.5,12,61.8z"/>
</svg>
