<?xml version="1.0" encoding="utf-8"?>
<!-- Generator: Adobe Illustrator 28.3.0, SVG Export Plug-In . SVG Version: 6.00 Build 0)  -->
<svg version="1.1" id="Calque_1" xmlns="http://www.w3.org/2000/svg" xmlns:xlink="http://www.w3.org/1999/xlink" x="0px" y="0px"
	 viewBox="0 0 87.9 87.9" style="enable-background:new 0 0 87.9 87.9;" xml:space="preserve">
<style type="text/css">
	.st0{fill:#FFFFFF;}
	.st1{fill:#1752E2;}
</style>
<polygon class="st0" points="23.1,85.9 23.1,27.9 25.1,25.9 28.2,25.9 28.2,20.7 35.1,20.7 35.1,10 43.6,10 44,20.5 50.6,21 
	51.1,26.5 54.8,27 54.8,85.9 53.2,87.4 25.4,87.2 "/>
<path class="st1" d="M25.1,25.9h2v-4c0-1.1,0.9-2,2-2h5v-9c0-1.1,0.9-2,2-2H43c1.1,0,2,0.9,2,2v2c0,0,0,0,0.1,0c1.1,0,2,0.9,2,2
	s-0.9,2-2,2c0,0,0,0-0.1,0v3h5.1c1.1,0,2,0.9,2,2v4h2c1.1,0,2,0.9,2,2v58c0,1.1-0.9,2-2,2h-29c-1.1,0-2-0.9-2-2v-58
	C23.1,26.8,24,25.9,25.1,25.9z M43.1,10.9h-6.9v9h6.9V10.9z M50.1,21.9h-21v4h21V21.9z M54.1,39.9h-12v34h12V39.9z M25.1,85.9h29
	v-10h-12c-1.1,0-2-0.9-2-2v-34c0-1.1,0.9-2,2-2h12v-10h-29C25.1,27.9,25.1,85.9,25.1,85.9z"/>
<path class="st1" d="M61.4,15c0-0.6,0.3-1,0.7-1h14.3c0.4,0,0.7,0.4,0.7,1s-0.3,1-0.7,1H62.2C61.8,16,61.4,15.5,61.4,15z"/>
<path class="st1" d="M68.9,0.1c0.3-0.3,0.8-0.2,1.2,0.2c0.4,0.4,0.5,0.9,0.2,1.2L60,11.8c-0.3,0.3-0.8,0.2-1.2-0.2s-0.5-0.9-0.2-1.2
	L68.9,0.1z"/>
<path class="st1" d="M60,18.1l10.3,10.3c0.3,0.3,0.2,0.8-0.2,1.2c-0.4,0.4-0.9,0.5-1.2,0.2L58.6,19.6c-0.3-0.3-0.2-0.8,0.2-1.2
	C59.2,17.9,59.7,17.9,60,18.1z"/>
</svg>
