<?xml version="1.0" encoding="utf-8"?>
<!-- Generator: Adobe Illustrator 28.3.0, SVG Export Plug-In . SVG Version: 6.00 Build 0)  -->
<svg version="1.1" id="Calque_1" xmlns="http://www.w3.org/2000/svg" xmlns:xlink="http://www.w3.org/1999/xlink" x="0px" y="0px"
	 viewBox="0 0 87.9 87.9" style="enable-background:new 0 0 87.9 87.9;" xml:space="preserve">
<style type="text/css">
	.st0{fill-rule:evenodd;clip-rule:evenodd;fill:#FFFFFF;}
	.st1{fill-rule:evenodd;clip-rule:evenodd;fill:#1752E2;}
</style>
<path class="st0" d="M37.3,11.6h13.2c1.1,0,2.2-0.4,3-1.2c0.5-0.5,0.8-1,1-1.6c5.7,1.9,10.3,5.8,13.3,10.8l-5.4,5.4
	c-0.4-0.1-0.9-0.2-1.3-0.3c-4.6-1.1-10.7-1.7-17.2-1.7s-12.6,0.6-17.2,1.7c-0.6,0.1-1.1,0.3-1.6,0.4l-5.2-5.2
	c2.9-5.1,7.6-9.1,13.4-11c0.2,0.6,0.6,1.2,1,1.6C35.1,11.1,36.1,11.6,37.3,11.6z M18,17.9l-6.1-6.1l-5.4,5.4l8.3,8.3
	C14.3,27.6,14,29.8,14,32v4.1c0,0.3,0.1,0.6,0.4,0.9c0.2,0.2,0.5,0.4,0.9,0.4h4.2L22,65.3L6.8,80.5l4.8,4.8l11.7-11.7
	c0.3,0.7,0.8,1.4,1.3,1.9c1.2,1.3,2.7,2.2,4.4,2.5c4.3,0.8,9.4,1.2,14.8,1.2c5.4,0,10.6-0.4,14.8-1.2c1.7-0.3,3.3-1.2,4.4-2.5
	c0.3-0.3,0.5-0.6,0.8-1l12,12l5.4-5.4L65.7,65.6l2.6-28.2h4.2c0.3,0,0.6-0.1,0.9-0.4c0.2-0.2,0.4-0.5,0.4-0.9V32
	c0-2.6-0.4-5.3-1.1-7.8l8.4-8.4L76.2,11l-6.6,6.6c-0.5-0.8-1-1.5-1.5-2.2c-3.4-4.4-8.1-7.6-13.3-9.3V5.5c0-1.1-0.4-2.2-1.2-3
	c-0.8-0.8-1.9-1.2-3-1.2H37.3c-1.1,0-2.2,0.4-3,1.2c-0.8,0.8-1.2,1.9-1.2,3v0.7c-5.3,1.7-9.9,4.9-13.3,9.3
	C19.1,16.3,18.5,17.1,18,17.9z M70.6,26.3l-2,2c0.2,0.3,0.3,0.6,0.4,0.9c0,0,0,0.1,0,0.1c0,0.1,0.1,0.3,0,0.4c0,0,0,0,0,0.1
	c0,0.2,0,0.4-0.1,0.6l-0.4,4.6h2.7V32C71.2,30.1,71,28.2,70.6,26.3z M60.4,26.9l-6.7,6.7c-3,0.3-6.3,0.5-9.8,0.5
	c-3.6,0-7-0.2-10.2-0.5L27.1,27c0,0,0.1,0,0.1,0c4.4-1,10.3-1.6,16.6-1.6C50.1,25.3,55.9,25.9,60.4,26.9z M36.5,36.3
	c2.4,0.2,4.9,0.3,7.4,0.3c2.4,0,4.8-0.1,7-0.2l-7.2,7.2L36.5,36.3z M18.8,29.4c0,0.1,0,0.2,0,0.3c0,0.2,0,0.4,0.1,0.6l0.4,4.6h-2.7
	V32c0-1.5,0.1-3,0.4-4.5L18.8,29.4z M23.3,33.9l15,15l-14,14l-2.5-26.9c0,0,0-0.1,0-0.1l-0.3-2.8C22.1,33.4,22.6,33.7,23.3,33.9z
	 M25.2,71.7c0.2,0.8,0.7,1.6,1.2,2.2c0.8,0.9,1.9,1.5,3.1,1.7c4.1,0.8,9.2,1.2,14.4,1.2c5.2,0,10.3-0.4,14.4-1.2
	c1.2-0.2,2.3-0.8,3.1-1.7c0.3-0.3,0.6-0.7,0.8-1.1l-19-19L25.2,71.7z M63.4,63.3L48.5,48.4l13.8-13.8c1.6-0.4,2.9-0.9,4-1.5L66,36
	c0,0,0,0.1,0,0.1L63.4,63.3z M35.5,7.3L35.5,7.3c0,0.5,0.2,1,0.5,1.3c0.3,0.3,0.8,0.5,1.2,0.5h13.2c0.5,0,0.9-0.2,1.2-0.5
	c0.3-0.3,0.5-0.8,0.5-1.2v0c0,0,0,0,0,0c0-0.1,0-0.2,0-0.4V5.5c0-0.5-0.2-0.9-0.5-1.2c-0.3-0.3-0.8-0.5-1.2-0.5H37.3
	c-0.5,0-0.9,0.2-1.2,0.5c-0.3,0.3-0.5,0.8-0.5,1.2v1.4C35.5,7,35.5,7.2,35.5,7.3L35.5,7.3z"/>
<path class="st1" d="M37.3,11.6h13.2c1.1,0,2.2-0.4,3-1.2c0.5-0.5,0.8-1,1-1.6c5.7,1.9,10.3,5.8,13.3,10.8l-5.4,5.4
	c-0.4-0.1-0.9-0.2-1.3-0.3c-4.6-1.1-10.7-1.7-17.2-1.7s-12.6,0.6-17.2,1.7c-0.6,0.1-1.1,0.3-1.6,0.4l-5.2-5.2
	c2.9-5.1,7.6-9.1,13.4-11c0.2,0.6,0.6,1.2,1,1.6C35.1,11.1,36.1,11.6,37.3,11.6z M18,17.9l-6.1-6.1l-5.4,5.4l8.3,8.3
	C14.3,27.6,14,29.8,14,32v4.1c0,0.3,0.1,0.6,0.4,0.9c0.2,0.2,0.5,0.4,0.9,0.4h4.2L22,65.3L6.8,80.5l4.8,4.8l11.7-11.7
	c0.3,0.7,0.8,1.4,1.3,1.9c1.2,1.3,2.7,2.2,4.4,2.5c4.3,0.8,9.4,1.2,14.8,1.2c5.4,0,10.6-0.4,14.8-1.2c1.7-0.3,3.3-1.2,4.4-2.5
	c0.3-0.3,0.5-0.6,0.8-1l12,12l5.4-5.4L65.7,65.6l2.6-28.2h4.2c0.3,0,0.6-0.1,0.9-0.4c0.2-0.2,0.4-0.5,0.4-0.9V32
	c0-2.6-0.4-5.3-1.1-7.8l8.4-8.4L76.2,11l-6.6,6.6c-0.5-0.8-1-1.5-1.5-2.2c-3.4-4.4-8.1-7.6-13.3-9.3V5.5c0-1.1-0.4-2.2-1.2-3
	c-0.8-0.8-1.9-1.2-3-1.2H37.3c-1.1,0-2.2,0.4-3,1.2c-0.8,0.8-1.2,1.9-1.2,3v0.7c-5.3,1.7-9.9,4.9-13.3,9.3
	C19.1,16.3,18.5,17.1,18,17.9z M70.6,26.3l-2,2c0.2,0.3,0.3,0.6,0.4,0.9c0,0,0,0.1,0,0.1c0,0.1,0.1,0.3,0,0.4c0,0,0,0,0,0.1
	c0,0.2,0,0.4-0.1,0.6l-0.4,4.6h2.7V32C71.2,30.1,71,28.2,70.6,26.3z M60.4,26.9l-6.7,6.7c-3,0.3-6.3,0.5-9.8,0.5
	c-3.6,0-7-0.2-10.2-0.5L27.1,27c0,0,0.1,0,0.1,0c4.4-1,10.3-1.6,16.6-1.6C50.1,25.3,55.9,25.9,60.4,26.9z M36.5,36.3
	c2.4,0.2,4.9,0.3,7.4,0.3c2.4,0,4.8-0.1,7-0.2l-7.2,7.2L36.5,36.3z M18.8,29.4c0,0.1,0,0.2,0,0.3c0,0.2,0,0.4,0.1,0.6l0.4,4.6h-2.7
	V32c0-1.5,0.1-3,0.4-4.5L18.8,29.4z M23.3,33.9l15,15l-14,14l-2.5-26.9c0,0,0-0.1,0-0.1l-0.3-2.8C22.1,33.4,22.6,33.7,23.3,33.9z
	 M25.2,71.7c0.2,0.8,0.7,1.6,1.2,2.2c0.8,0.9,1.9,1.5,3.1,1.7c4.1,0.8,9.2,1.2,14.4,1.2c5.2,0,10.3-0.4,14.4-1.2
	c1.2-0.2,2.3-0.8,3.1-1.7c0.3-0.3,0.6-0.7,0.8-1.1l-19-19L25.2,71.7z M63.4,63.3L48.5,48.4l13.8-13.8c1.6-0.4,2.9-0.9,4-1.5L66,36
	c0,0,0,0.1,0,0.1L63.4,63.3z M35.5,7.3L35.5,7.3c0,0.5,0.2,1,0.5,1.3c0.3,0.3,0.8,0.5,1.2,0.5h13.2c0.5,0,0.9-0.2,1.2-0.5
	c0.3-0.3,0.5-0.8,0.5-1.2v0c0,0,0,0,0,0c0-0.1,0-0.2,0-0.4V5.5c0-0.5-0.2-0.9-0.5-1.2c-0.3-0.3-0.8-0.5-1.2-0.5H37.3
	c-0.5,0-0.9,0.2-1.2,0.5c-0.3,0.3-0.5,0.8-0.5,1.2v1.4C35.5,7,35.5,7.2,35.5,7.3L35.5,7.3z"/>
</svg>
