<?xml version="1.0" encoding="utf-8"?>
<!-- Generator: Adobe Illustrator 28.3.0, SVG Export Plug-In . SVG Version: 6.00 Build 0)  -->
<svg version="1.1" id="Calque_1" xmlns="http://www.w3.org/2000/svg" xmlns:xlink="http://www.w3.org/1999/xlink" x="0px" y="0px"
	 viewBox="0 0 125 145" style="enable-background:new 0 0 125 145;" xml:space="preserve">
<style type="text/css">
	.st0{fill:#001AFF;}
</style>
<path class="st0" d="M60.4,145c0.7,0,1.4,0,2.1,0c18,0,35-7.7,46.9-21.2C119,112.9,124.5,99,125,84.5c0-1.2,0-2.4,0-3.6
	c0-0.9-0.7-1.6-1.6-1.6h-4.8V28.3c0-0.9-0.7-1.6-1.6-1.6h-4.2v-6.8c0-0.9-0.7-1.6-1.6-1.6h-7.4v-7.7c0-0.9-0.7-1.6-1.6-1.6
	c-0.9,0-1.6,0.7-1.6,1.6v7.7H93c-0.9,0-1.6,0.7-1.6,1.6v6.8h-4.5c-0.9,0-1.6,0.7-1.6,1.6v12.8h-8.2V15.1c0-0.7-0.5-1.4-1.2-1.6
	l-5-1.3V1.6c0-0.9-0.7-1.6-1.6-1.6c-0.9,0-1.6,0.7-1.6,1.6v9.7L62,9.8V6.6C62,5.7,61.3,5,60.4,5s-1.6,0.7-1.6,1.6V9L37.3,3.3
	c-0.5-0.1-1,0-1.4,0.3c-0.4,0.3-0.6,0.8-0.6,1.3v19h-4.5v-9.6c0-0.9-0.7-1.6-1.6-1.6c-0.9,0-1.6,0.7-1.6,1.6v9.6H18
	c-0.9,0-1.6,0.7-1.6,1.6v5.4h-3.6c-0.9,0-1.6,0.7-1.6,1.6v46.8H1.6c0,0,0,0-0.1,0c0,0,0,0-0.1,0c0,0-0.1,0-0.1,0c0,0,0,0-0.1,0
	c0,0-0.1,0-0.1,0c0,0,0,0-0.1,0c0,0-0.1,0-0.1,0c0,0,0,0-0.1,0c0,0-0.1,0-0.1,0c0,0,0,0-0.1,0c0,0-0.1,0-0.1,0c0,0,0,0-0.1,0
	c0,0,0,0-0.1,0c0,0,0,0-0.1,0c0,0,0,0,0,0.1c0,0,0,0-0.1,0.1c0,0,0,0-0.1,0.1c0,0,0,0-0.1,0.1c0,0,0,0,0,0.1c0,0,0,0-0.1,0.1
	c0,0,0,0,0,0.1c0,0,0,0,0,0.1c0,0,0,0,0,0.1c0,0,0,0,0,0.1c0,0,0,0,0,0.1c0,0,0,0.1,0,0.1c0,0,0,0,0,0.1c0,0,0,0.1,0,0.1
	c0,0,0,0.1,0,0.1c0,0,0,0.1,0,0.1c0,0,0,0.1,0,0.1c0,0,0,0,0,0.1c-0.4,16.6,5.7,32.4,17,44.4C28.4,137.5,43.8,144.4,60.4,145z
	 M62.5,141.8c-0.7,0-1.3,0-2,0C33,140.8,10.4,121,4.6,95.3c3.7,1.3,7.2,2.7,10.3,4.2c1.4,0.7,2.6,1.3,3.7,1.8
	c1.8,0.9,3.3,1.6,4.3,2.1c-0.8,0.4-1.7,0.9-2.6,1.6c-0.3,0.2-0.6,0.4-0.8,0.6c-3.4,2.5-5.6,4.2-4.8,6.3c0.6,1.8,2.8,2.3,8.4,2.1
	c5.8-0.2,12.9-4.6,19.1-8.5c3-1.9,7.1-4.4,8.6-4.6c0.1,2.7-0.4,3-2,4c-1.6,1.1-4.1,2.7-6.9,7.2c-3.2,5.3-1.8,8.2-0.7,9.4
	c2.6,2.9,8.5,2.6,15-0.6c3.1-1.5,6.5-2.4,9.8-3.2c6.6-1.7,12.9-3.2,13.7-10.3c0.4-3.8,2-5.7,3.3-5.7c1.2-0.1,2.2,1.3,2.6,3.4
	c1.2,6,0.4,7.8-6.1,13.2c-1.6,1.3-3.1,2.5-4.5,3.5c-3.5,2.6-5.8,4.3-5.7,6.7c0.1,1.9,1.8,3,3.1,3.7c2.3,1.2,5.9,0.8,9.8,0.3
	c1.9-0.2,3.8-0.5,5.3-0.4c1.8,0,2.2,0.4,2.2,0.5c0.1,0.2,0.2,1-0.6,2.6c0,0,0,0.1,0,0.1C81.2,139.5,72,141.8,62.5,141.8z
	 M93.3,133.1c0-0.8-0.2-1.6-0.7-2.3c-1.8-2.5-6-1.9-10.6-1.4c-2.9,0.3-6.5,0.8-7.9,0c-1.1-0.6-1.4-1-1.4-1.1
	c0.1-0.7,2.6-2.5,4.3-3.9c1.4-1,3-2.2,4.6-3.6c7.3-6.1,8.6-9,7.2-16.3c-0.8-4.3-3.6-6.1-6-6c-2.5,0.1-5.7,2.4-6.4,8.6
	c-0.5,4.6-4.4,5.8-11.2,7.5c-3.3,0.8-7,1.8-10.4,3.5c-5.5,2.8-9.9,2.7-11.2,1.3c-0.9-1-0.5-3,1.1-5.5c2.4-3.9,4.3-5.2,5.8-6.2
	c2.2-1.4,3.6-2.6,3.4-6.8c0-1.7-0.8-2.4-1.5-2.8c-2.2-1.2-5.5,0.7-12.1,4.7c-5.6,3.5-12.6,7.8-17.6,8c-2.4,0.1-3.8,0-4.6-0.1
	c0.8-0.7,2.1-1.7,3.1-2.5c0.3-0.2,0.6-0.4,0.8-0.6c1-0.8,2-1.3,2.9-1.6c1.1-0.5,2.3-1.1,2.3-2.4c0-1.4-1.3-2.1-2.3-2.6
	c-1.1-0.6-2.7-1.4-5.1-2.6c-1.1-0.5-2.3-1.1-3.7-1.8c-3.7-1.8-7.8-3.5-12.4-4.9c-0.5-2.9-0.7-5.9-0.7-9h13.3c2,2.3,6.7,6.9,10.2,6.9
	c0.6,0,1.2-0.1,1.7-0.4c1.7-1,2.1-3.2,1.1-6.5h10.7c-0.3,1.9,0.4,3.6,1.9,4.8c1.1,0.8,2.5,1.3,4,1.3c1.1,0,2.2-0.3,3.2-0.8
	c1.9-1,3.1-2.9,3.5-5.2H64c0.8,1.9,1.3,3.9,0.9,5.8c-0.6,2.6-1.7,3.6-2.7,4.5c-1.6,1.4-2.7,2.8-0.9,6.1c0.6,1,1.5,1.6,2.5,1.7
	c0.1,0,0.2,0,0.3,0c2.6,0,6.2-2.9,11.8-9.6c0.4-0.5,0.7-0.9,1-1.2c0.4-0.4,0.8-0.9,0.9-1.1c0.1-0.1,0.1-0.1,0.2-0.2
	c0.1-0.1,2.6-3.1,3.8-5.9h16.5c1.1,4.6,1,10.2-0.3,17.3c-2.5,13.4,3,20,7.6,23.1C102,127,97.8,130.4,93.3,133.1z M26.2,82.6
	c0,0.1,0.1,0.2,0.1,0.3c0.7,2.2,0.6,3.1,0.5,3.3c-0.6,0.1-2.7-0.7-5.8-3.7H26.2z M49.6,82.6c-0.2,1.1-0.8,1.9-1.7,2.3
	c-1.2,0.6-2.8,0.5-3.8-0.2c-0.6-0.4-0.8-1-0.6-1.7c0-0.2,0.1-0.3,0.1-0.5L49.6,82.6L49.6,82.6z M75.4,82.6
	C75.4,82.6,75.4,82.6,75.4,82.6C75.5,82.6,75.5,82.6,75.4,82.6h2.9c-0.9,1.5-2,3-2.6,3.7c-0.2,0.2-0.5,0.6-1.2,1.4
	c-0.3,0.3-0.6,0.8-1,1.2c-6.8,8.1-8.9,8.5-9.2,8.5c0,0,0,0,0-0.1c-0.6-1-0.6-1.3-0.6-1.3c0.1-0.1,0.4-0.5,0.7-0.7
	c1.2-1,2.9-2.5,3.8-6.2c0.5-2.3,0.1-4.5-0.6-6.5L75.4,82.6L75.4,82.6z M121.7,84.4c-0.4,13.3-5.3,26.1-13.9,36.2
	c-4.4-2.8-8.7-8.5-6.6-20.1c1.3-7.2,1.5-13,0.5-17.9h20C121.7,83.2,121.7,83.8,121.7,84.4z M94.7,21.5h14.8v5.2H94.7V21.5z
	 M88.5,29.9h26.8v11.4h-3.7c-0.9,0-1.6,0.7-1.6,1.6c0,0.9,0.7,1.6,1.6,1.6h3.7v6.1h-3.7c-0.9,0-1.6,0.7-1.6,1.6
	c0,0.9,0.7,1.6,1.6,1.6h3.7v6.1h-3.7c-0.9,0-1.6,0.7-1.6,1.6c0,0.9,0.7,1.6,1.6,1.6h3.7v6.1h-3.7c-0.9,0-1.6,0.7-1.6,1.6
	s0.7,1.6,1.6,1.6h3.7v6.9H105V42.7c0-0.9-0.7-1.6-1.6-1.6H88.5V29.9z M101.8,44.4v35h-2h0h-18h-0.9h0h0h-3.7v-35H101.8z M73.8,16.3
	v6.5l-35.3-9.2V7L73.8,16.3z M38.6,17l35.3,9.2v53.2h-8.7h0H51.3h-4.2V32.5c0-0.9-0.7-1.6-1.6-1.6h-3.6v-5.4c0-0.9-0.7-1.6-1.6-1.6
	h-1.7V17z M19.7,27.1h19v3.8h-19V27.1z M14.4,34.1h29.4v45.2h-1.6H27.3h0H14.4V34.1z M22.9,41.4v30.2c0,0.9-0.7,1.6-1.6,1.6
	c-0.9,0-1.6-0.7-1.6-1.6V41.4c0-0.9,0.7-1.6,1.6-1.6C22.2,39.7,22.9,40.5,22.9,41.4z M35.3,71.5V41.4c0-0.9,0.7-1.6,1.6-1.6
	s1.6,0.7,1.6,1.6v30.2c0,0.9-0.7,1.6-1.6,1.6S35.3,72.4,35.3,71.5z M27.5,71.5V41.4c0-0.9,0.7-1.6,1.6-1.6s1.6,0.7,1.6,1.6v30.2
	c0,0.9-0.7,1.6-1.6,1.6S27.5,72.4,27.5,71.5z M62,32.5c0-0.9,0.7-1.6,1.6-1.6H66c0.9,0,1.6,0.7,1.6,1.6c0,0.9-0.7,1.6-1.6,1.6h-2.4
	C62.7,34.1,62,33.4,62,32.5z M62,42.4c0-0.9,0.7-1.6,1.6-1.6H66c0.9,0,1.6,0.7,1.6,1.6c0,0.9-0.7,1.6-1.6,1.6h-2.4
	C62.7,44,62,43.3,62,42.4z M62,52.2c0-0.9,0.7-1.6,1.6-1.6H66c0.9,0,1.6,0.7,1.6,1.6s-0.7,1.6-1.6,1.6h-2.4
	C62.7,53.9,62,53.1,62,52.2z M62,62.1c0-0.9,0.7-1.6,1.6-1.6H66c0.9,0,1.6,0.7,1.6,1.6c0,0.9-0.7,1.6-1.6,1.6h-2.4
	C62.7,63.7,62,63,62,62.1z M51.7,32.5c0-0.9,0.7-1.6,1.6-1.6h2.4c0.9,0,1.6,0.7,1.6,1.6c0,0.9-0.7,1.6-1.6,1.6h-2.4
	C52.5,34.1,51.7,33.4,51.7,32.5z M51.7,42.4c0-0.9,0.7-1.6,1.6-1.6h2.4c0.9,0,1.6,0.7,1.6,1.6c0,0.9-0.7,1.6-1.6,1.6h-2.4
	C52.5,44,51.7,43.3,51.7,42.4z M51.7,52.2c0-0.9,0.7-1.6,1.6-1.6h2.4c0.9,0,1.6,0.7,1.6,1.6s-0.7,1.6-1.6,1.6h-2.4
	C52.5,53.9,51.7,53.1,51.7,52.2z M51.7,62.1c0-0.9,0.7-1.6,1.6-1.6h2.4c0.9,0,1.6,0.7,1.6,1.6c0,0.9-0.7,1.6-1.6,1.6h-2.4
	C52.5,63.7,51.7,63,51.7,62.1z M62,71.9c0-0.9,0.7-1.6,1.6-1.6H66c0.9,0,1.6,0.7,1.6,1.6s-0.7,1.6-1.6,1.6h-2.4
	C62.7,73.6,62,72.8,62,71.9z M51.7,71.9c0-0.9,0.7-1.6,1.6-1.6h2.4c0.9,0,1.6,0.7,1.6,1.6s-0.7,1.6-1.6,1.6h-2.4
	C52.5,73.6,51.7,72.8,51.7,71.9z M82.9,62.9v-2.8c0-0.9,0.7-1.6,1.6-1.6c0.9,0,1.6,0.7,1.6,1.6v2.8c0,0.9-0.7,1.6-1.6,1.6
	C83.6,64.6,82.9,63.8,82.9,62.9z M92.2,62.9v-2.8c0-0.9,0.7-1.6,1.6-1.6c0.9,0,1.6,0.7,1.6,1.6v2.8c0,0.9-0.7,1.6-1.6,1.6
	C92.9,64.6,92.2,63.8,92.2,62.9z M82.9,53.5v-2.8c0-0.9,0.7-1.6,1.6-1.6c0.9,0,1.6,0.7,1.6,1.6v2.8c0,0.9-0.7,1.6-1.6,1.6
	C83.6,55.2,82.9,54.4,82.9,53.5z M92.2,53.5v-2.8c0-0.9,0.7-1.6,1.6-1.6c0.9,0,1.6,0.7,1.6,1.6v2.8c0,0.9-0.7,1.6-1.6,1.6
	C92.9,55.2,92.2,54.4,92.2,53.5z M82.9,72.4v-2.8c0-0.9,0.7-1.6,1.6-1.6c0.9,0,1.6,0.7,1.6,1.6v2.8c0,0.9-0.7,1.6-1.6,1.6
	C83.6,74,82.9,73.2,82.9,72.4z M92.2,72.4v-2.8c0-0.9,0.7-1.6,1.6-1.6c0.9,0,1.6,0.7,1.6,1.6v2.8c0,0.9-0.7,1.6-1.6,1.6
	C92.9,74,92.2,73.2,92.2,72.4z M108.3,37.5H95.5c-0.9,0-1.6-0.7-1.6-1.6c0-0.9,0.7-1.6,1.6-1.6h12.8c0.9,0,1.6,0.7,1.6,1.6
	C109.9,36.8,109.2,37.5,108.3,37.5z"/>
</svg>
