<?xml version="1.0" encoding="utf-8"?>
<!-- Generator: Adobe Illustrator 28.3.0, SVG Export Plug-In . SVG Version: 6.00 Build 0)  -->
<svg version="1.1" id="Calque_1" xmlns="http://www.w3.org/2000/svg" xmlns:xlink="http://www.w3.org/1999/xlink" x="0px" y="0px"
	 viewBox="0 0 144.6 144.6" style="enable-background:new 0 0 144.6 144.6;" xml:space="preserve">
<style type="text/css">
	.st0{fill:#001AFF;}
</style>
<path class="st0" d="M70.2,144.8c0.7,0,1.4,0,2.1,0c18,0,35-7.7,46.9-21.2c9.5-10.8,15.1-24.8,15.5-39.2c0-1.2,0-2.4,0-3.6
	c0-0.9-0.7-1.6-1.6-1.6h-4.8V28.1c0-0.9-0.7-1.6-1.6-1.6h-4.2v-6.8c0-0.9-0.7-1.6-1.6-1.6h-7.4v-7.7c0-0.9-0.7-1.6-1.6-1.6
	s-1.6,0.7-1.6,1.6v7.7h-7.4c-0.9,0-1.6,0.7-1.6,1.6v6.8h-4.5c-0.9,0-1.6,0.7-1.6,1.6v12.8H87V14.8c0-0.7-0.5-1.4-1.2-1.6l-5-1.3V1.4
	c0-0.9-0.7-1.6-1.6-1.6s-1.6,0.7-1.6,1.6v9.7L72,9.6V6.4c0-0.9-0.7-1.6-1.6-1.6s-1.6,0.7-1.6,1.6v2.4L47.1,3.1c-0.5-0.1-1,0-1.4,0.3
	s-0.6,0.8-0.6,1.3v19h-4.5v-9.6c0-0.9-0.7-1.6-1.6-1.6s-1.6,0.7-1.6,1.6v9.6h-9.5c-0.9,0-1.6,0.7-1.6,1.6v5.4h-3.6
	c-0.9,0-1.6,0.7-1.6,1.6v46.8h-9.6c0,0,0,0-0.1,0s0,0-0.1,0h-0.1c0,0,0,0-0.1,0H11c0,0,0,0-0.1,0h-0.1c0,0,0,0-0.1,0h-0.1
	c0,0,0,0-0.1,0h-0.1c0,0,0,0-0.1,0c0,0,0,0-0.1,0c0,0,0,0-0.1,0c0,0,0,0,0,0.1c0,0,0,0-0.1,0.1c0,0,0,0-0.1,0.1c0,0,0,0-0.1,0.1
	c0,0,0,0,0,0.1c0,0,0,0-0.1,0.1c0,0,0,0,0,0.1c0,0,0,0,0,0.1c0,0,0,0,0,0.1c0,0,0,0,0,0.1c0,0,0,0,0,0.1v0.1c0,0,0,0,0,0.1v0.1v0.1
	v0.1v0.1c0,0,0,0,0,0.1c-0.4,16.6,5.7,32.4,17,44.4C38.2,137.3,53.6,144.2,70.2,144.8z M72.3,141.5c-0.7,0-1.3,0-2,0
	c-27.5-0.9-50.2-20.7-55.9-46.5c3.7,1.3,7.2,2.7,10.3,4.2c1.4,0.7,2.6,1.3,3.7,1.8c1.8,0.9,3.3,1.6,4.3,2.1
	c-0.8,0.4-1.7,0.9-2.6,1.6c-0.3,0.2-0.6,0.4-0.8,0.6c-3.4,2.5-5.6,4.2-4.8,6.3c0.6,1.8,2.8,2.3,8.4,2.1c5.8-0.2,12.9-4.6,19.1-8.5
	c3-1.9,7.1-4.4,8.6-4.6c0.1,2.7-0.4,3-2,4c-1.6,1.1-4.1,2.7-6.9,7.2c-3.2,5.3-1.8,8.2-0.7,9.4c2.6,2.9,8.5,2.6,15-0.6
	c3.1-1.5,6.5-2.4,9.8-3.2c6.6-1.7,12.9-3.2,13.7-10.3c0.4-3.8,2-5.7,3.3-5.7c1.2-0.1,2.2,1.3,2.6,3.4c1.2,6,0.4,7.8-6.1,13.2
	c-1.6,1.3-3.1,2.5-4.5,3.5c-3.5,2.6-5.8,4.3-5.7,6.7c0.1,1.9,1.8,3,3.1,3.7c2.3,1.2,5.9,0.8,9.8,0.3c1.9-0.2,3.8-0.5,5.3-0.4
	c1.8,0,2.2,0.4,2.2,0.5c0.1,0.2,0.2,1-0.6,2.6v0.1C90.9,139.3,81.8,141.5,72.3,141.5z M103.1,132.9c0-0.8-0.2-1.6-0.7-2.3
	c-1.8-2.5-6-1.9-10.6-1.4c-2.9,0.3-6.5,0.8-7.9,0c-1.1-0.6-1.4-1-1.4-1.1c0.1-0.7,2.6-2.5,4.3-3.9c1.4-1,3-2.2,4.6-3.6
	c7.3-6.1,8.6-9,7.2-16.3c-0.8-4.3-3.6-6.1-6-6c-2.5,0.1-5.7,2.4-6.4,8.6c-0.5,4.6-4.4,5.8-11.2,7.5c-3.3,0.8-7,1.8-10.4,3.5
	c-5.5,2.8-9.9,2.7-11.2,1.3c-0.9-1-0.5-3,1.1-5.5c2.4-3.9,4.3-5.2,5.8-6.2c2.2-1.4,3.6-2.6,3.4-6.8c0-1.7-0.8-2.4-1.5-2.8
	c-2.2-1.2-5.5,0.7-12.1,4.7c-5.6,3.5-12.6,7.8-17.6,8c-2.4,0.1-3.8,0-4.6-0.1c0.8-0.7,2.1-1.7,3.1-2.5c0.3-0.2,0.6-0.4,0.8-0.6
	c1-0.8,2-1.3,2.9-1.6c1.1-0.5,2.3-1.1,2.3-2.4c0-1.4-1.3-2.1-2.3-2.6c-1.1-0.6-2.7-1.4-5.1-2.6c-1.1-0.5-2.3-1.1-3.7-1.8
	c-3.7-1.8-7.8-3.5-12.4-4.9c-0.5-2.9-0.7-5.9-0.7-9h13.3c2,2.3,6.7,6.9,10.2,6.9c0.6,0,1.2-0.1,1.7-0.4c1.7-1,2.1-3.2,1.1-6.5H50
	c-0.3,1.9,0.4,3.6,1.9,4.8c1.1,0.8,2.5,1.3,4,1.3c1.1,0,2.2-0.3,3.2-0.8c1.9-1,3.1-2.9,3.5-5.2h11.2c0.8,1.9,1.3,3.9,0.9,5.8
	C74.1,91,73,92,72,92.9c-1.6,1.4-2.7,2.8-0.9,6.1c0.6,1,1.5,1.6,2.5,1.7c0.1,0,0.2,0,0.3,0c2.6,0,6.2-2.9,11.8-9.6
	c0.4-0.5,0.7-0.9,1-1.2c0.4-0.4,0.8-0.9,0.9-1.1c0.1-0.1,0.1-0.1,0.2-0.2s2.6-3.1,3.8-5.9h16.5c1.1,4.6,1,10.2-0.3,17.3
	c-2.5,13.4,3,20,7.6,23.1C111.8,126.8,107.6,130.1,103.1,132.9z M36,82.4c0,0.1,0.1,0.2,0.1,0.3c0.7,2.2,0.6,3.1,0.5,3.3
	c-0.6,0.1-2.7-0.7-5.8-3.7L36,82.4L36,82.4z M59.3,82.4c-0.2,1.1-0.8,1.9-1.7,2.3c-1.2,0.6-2.8,0.5-3.8-0.2c-0.6-0.4-0.8-1-0.6-1.7
	c0-0.2,0.1-0.3,0.1-0.5L59.3,82.4L59.3,82.4z M85.2,82.4L85.2,82.4L85.2,82.4h2.9c-0.9,1.5-2,3-2.6,3.7c-0.2,0.2-0.5,0.6-1.2,1.4
	c-0.3,0.3-0.6,0.8-1,1.2c-6.8,8.1-8.9,8.5-9.2,8.5c0,0,0,0,0-0.1c-0.6-1-0.6-1.3-0.6-1.3c0.1-0.1,0.4-0.5,0.7-0.7
	c1.2-1,2.9-2.5,3.8-6.2c0.5-2.3,0.1-4.5-0.6-6.5H85.2L85.2,82.4z M131.5,84.2c-0.4,13.3-5.3,26.1-13.9,36.2
	c-4.4-2.8-8.7-8.5-6.6-20.1c1.3-7.2,1.5-13,0.5-17.9h20C131.5,83,131.5,83.6,131.5,84.2z M104.4,21.3h14.8v5.2h-14.8V21.3z
	 M98.3,29.7h26.8v11.4h-3.7c-0.9,0-1.6,0.7-1.6,1.6c0,0.9,0.7,1.6,1.6,1.6h3.7v6.1h-3.7c-0.9,0-1.6,0.7-1.6,1.6
	c0,0.9,0.7,1.6,1.6,1.6h3.7v6.1h-3.7c-0.9,0-1.6,0.7-1.6,1.6c0,0.9,0.7,1.6,1.6,1.6h3.7V69h-3.7c-0.9,0-1.6,0.7-1.6,1.6
	s0.7,1.6,1.6,1.6h3.7v6.9h-10.3V42.5c0-0.9-0.7-1.6-1.6-1.6H98.3V29.7z M111.5,44.2v35h-2l0,0h-18h-0.9l0,0l0,0h-3.7v-35
	C86.9,44.2,111.5,44.2,111.5,44.2z M83.6,16.1v6.5l-35.3-9.2V6.8L83.6,16.1z M48.3,16.8L83.6,26v53.2h-8.7l0,0H61.1h-4.2V32.3
	c0-0.9-0.7-1.6-1.6-1.6h-3.6v-5.4c0-0.9-0.7-1.6-1.6-1.6h-1.7v-6.9H48.3z M29.4,26.9h19v3.8h-19C29.4,30.7,29.4,26.9,29.4,26.9z
	 M24.2,33.9h29.4v45.2H52H37.1l0,0H24.2V33.9z M32.7,41.2v30.2c0,0.9-0.7,1.6-1.6,1.6s-1.6-0.7-1.6-1.6V41.2c0-0.9,0.7-1.6,1.6-1.6
	C31.9,39.5,32.7,40.3,32.7,41.2z M45.1,71.3V41.2c0-0.9,0.7-1.6,1.6-1.6s1.6,0.7,1.6,1.6v30.2c0,0.9-0.7,1.6-1.6,1.6
	S45.1,72.2,45.1,71.3z M37.3,71.3V41.2c0-0.9,0.7-1.6,1.6-1.6s1.6,0.7,1.6,1.6v30.2c0,0.9-0.7,1.6-1.6,1.6S37.3,72.2,37.3,71.3z
	 M71.8,32.3c0-0.9,0.7-1.6,1.6-1.6h2.4c0.9,0,1.6,0.7,1.6,1.6c0,0.9-0.7,1.6-1.6,1.6h-2.4C72.5,33.9,71.8,33.2,71.8,32.3z
	 M71.8,42.2c0-0.9,0.7-1.6,1.6-1.6h2.4c0.9,0,1.6,0.7,1.6,1.6c0,0.9-0.7,1.6-1.6,1.6h-2.4C72.5,43.8,71.8,43.1,71.8,42.2z M71.8,52
	c0-0.9,0.7-1.6,1.6-1.6h2.4c0.9,0,1.6,0.7,1.6,1.6s-0.7,1.6-1.6,1.6h-2.4C72.5,53.6,71.8,52.9,71.8,52z M71.8,61.9
	c0-0.9,0.7-1.6,1.6-1.6h2.4c0.9,0,1.6,0.7,1.6,1.6c0,0.9-0.7,1.6-1.6,1.6h-2.4C72.5,63.5,71.8,62.8,71.8,61.9z M61.5,32.3
	c0-0.9,0.7-1.6,1.6-1.6h2.4c0.9,0,1.6,0.7,1.6,1.6c0,0.9-0.7,1.6-1.6,1.6h-2.4C62.3,33.9,61.5,33.2,61.5,32.3z M61.5,42.2
	c0-0.9,0.7-1.6,1.6-1.6h2.4c0.9,0,1.6,0.7,1.6,1.6c0,0.9-0.7,1.6-1.6,1.6h-2.4C62.3,43.8,61.5,43.1,61.5,42.2z M61.5,52
	c0-0.9,0.7-1.6,1.6-1.6h2.4c0.9,0,1.6,0.7,1.6,1.6s-0.7,1.6-1.6,1.6h-2.4C62.3,53.6,61.5,52.9,61.5,52z M61.5,61.9
	c0-0.9,0.7-1.6,1.6-1.6h2.4c0.9,0,1.6,0.7,1.6,1.6c0,0.9-0.7,1.6-1.6,1.6h-2.4C62.3,63.5,61.5,62.8,61.5,61.9z M71.8,71.7
	c0-0.9,0.7-1.6,1.6-1.6h2.4c0.9,0,1.6,0.7,1.6,1.6s-0.7,1.6-1.6,1.6h-2.4C72.5,73.3,71.8,72.6,71.8,71.7z M61.5,71.7
	c0-0.9,0.7-1.6,1.6-1.6h2.4c0.9,0,1.6,0.7,1.6,1.6s-0.7,1.6-1.6,1.6h-2.4C62.3,73.3,61.5,72.6,61.5,71.7z M92.7,62.7v-2.8
	c0-0.9,0.7-1.6,1.6-1.6s1.6,0.7,1.6,1.6v2.8c0,0.9-0.7,1.6-1.6,1.6C93.4,64.4,92.7,63.6,92.7,62.7z M102,62.7v-2.8
	c0-0.9,0.7-1.6,1.6-1.6s1.6,0.7,1.6,1.6v2.8c0,0.9-0.7,1.6-1.6,1.6C102.7,64.4,102,63.6,102,62.7z M92.7,53.3v-2.8
	c0-0.9,0.7-1.6,1.6-1.6s1.6,0.7,1.6,1.6v2.8c0,0.9-0.7,1.6-1.6,1.6C93.4,54.9,92.7,54.2,92.7,53.3z M102,53.3v-2.8
	c0-0.9,0.7-1.6,1.6-1.6s1.6,0.7,1.6,1.6v2.8c0,0.9-0.7,1.6-1.6,1.6C102.7,54.9,102,54.2,102,53.3z M92.7,72.1v-2.8
	c0-0.9,0.7-1.6,1.6-1.6s1.6,0.7,1.6,1.6v2.8c0,0.9-0.7,1.6-1.6,1.6C93.4,73.8,92.7,73,92.7,72.1z M102,72.1v-2.8
	c0-0.9,0.7-1.6,1.6-1.6s1.6,0.7,1.6,1.6v2.8c0,0.9-0.7,1.6-1.6,1.6C102.7,73.8,102,73,102,72.1z M118.1,37.3h-12.8
	c-0.9,0-1.6-0.7-1.6-1.6c0-0.9,0.7-1.6,1.6-1.6h12.8c0.9,0,1.6,0.7,1.6,1.6S119,37.3,118.1,37.3z"/>
</svg>
