<?xml version="1.0" encoding="utf-8"?>
<!-- Generator: Adobe Illustrator 28.3.0, SVG Export Plug-In . SVG Version: 6.00 Build 0)  -->
<svg version="1.1" id="Calque_1" xmlns="http://www.w3.org/2000/svg" xmlns:xlink="http://www.w3.org/1999/xlink" x="0px" y="0px"
	 viewBox="0 0 87.9 87.9" style="enable-background:new 0 0 87.9 87.9;" xml:space="preserve">
<style type="text/css">
	.st0{fill:#1752E2;}
	.st1{fill:#1752E2;stroke:#1752E2;}
</style>
<path class="st0" d="M50.1,61.1c0.1,0,0.3,0,0.4-0.1c3.9-1.7,6.4-5.7,6.4-10.4c0-0.6-0.5-1-1-1c-0.6,0-1,0.5-1,1
	c0,3.9-1.9,7.1-5.1,8.5c-0.5,0.2-0.8,0.8-0.5,1.4C49.3,60.9,49.7,61.1,50.1,61.1z"/>
<path class="st0" d="M59,30.1c0.5-0.3,0.6-0.9,0.4-1.4c-2.1-3.6-1.9-8,0.6-11.3l8.2-11c0,0,0,0,0.1,0l8.2,11
	c1.7,2.3,2.4,5.1,1.9,7.9s-2.1,5.2-4.5,6.8c-3.4,2.2-7.8,2.2-11.2,0c-0.5-0.3-1.1-0.2-1.4,0.3c-0.3,0.5-0.2,1.1,0.3,1.4
	c2,1.3,4.4,2,6.7,2c2.3,0,4.7-0.7,6.7-2c2.9-1.9,4.8-4.7,5.4-8.1c0.6-3.4-0.2-6.7-2.2-9.5l-8.2-11c-0.4-0.5-1-0.8-1.7-0.8
	c-0.7,0-1.3,0.3-1.7,0.8l-8.2,11c-3,4-3.2,9.3-0.7,13.6C57.9,30.3,58.5,30.4,59,30.1L59,30.1z"/>
<path class="st1" d="M13.5,27.5c0.3-0.2,0.4-0.6,0.2-1c-1.4-2.5-1.3-5.6,0.4-7.9l5.6-7.7c0,0,0,0,0,0l5.6,7.7
	c1.2,1.6,1.6,3.6,1.3,5.5c-0.3,2-1.4,3.6-3,4.7c-2.3,1.5-5.3,1.5-7.6,0c-0.3-0.2-0.8-0.1-1,0.2c-0.2,0.3-0.1,0.8,0.2,1
	c1.4,0.9,3,1.4,4.6,1.4c1.6,0,3.2-0.5,4.6-1.4c1.9-1.3,3.2-3.3,3.7-5.7c0.4-2.4-0.1-4.7-1.5-6.6L20.8,10c-0.3-0.4-0.7-0.6-1.1-0.6
	c-0.5,0-0.9,0.2-1.1,0.6L13,17.7c-2,2.8-2.2,6.5-0.5,9.5C12.7,27.6,13.2,27.7,13.5,27.5L13.5,27.5z"/>
<path class="st0" d="M72,29.3c0.1,0,0.3,0,0.4-0.1c2.2-0.9,3.6-3.2,3.6-5.8c0-0.6-0.5-1-1-1c-0.6,0-1,0.5-1,1c0,1.8-0.9,3.2-2.3,3.9
	c-0.5,0.2-0.8,0.8-0.5,1.4C71.2,29.1,71.6,29.3,72,29.3L72,29.3z"/>
<path class="st0" d="M22.6,27c0.1,0,0.2,0,0.3-0.1c1.5-0.7,2.5-2.4,2.5-4.4c0-0.4-0.3-0.8-0.7-0.8c-0.4,0-0.7,0.4-0.7,0.8
	c0,1.4-0.6,2.5-1.6,3c-0.4,0.2-0.5,0.6-0.4,1C22.1,26.8,22.3,27,22.6,27L22.6,27z"/>
<path class="st0" d="M4,61.3c0.2,0.1,0.4,0.2,0.6,0.2c0.3,0,0.6-0.1,0.8-0.4c3.1-4,10.2-7.4,19.6-9.4c0,0.7,0.1,1.5,0.3,2.2
	c0.3,1.5,0.7,2.9,1.2,4.2c-7.7,1.6-12.7,4.3-12.7,7.4c0,5,13.5,9,30.1,9c16.6,0,30.1-4,30.1-9c0-3-5-5.7-12.7-7.4
	c0.6-1.3,1-2.7,1.2-4.2c0.9-5.2-0.3-10.4-3.4-14.7l-13-17.6c-0.5-0.7-1.3-1.1-2.2-1.1s-1.7,0.4-2.2,1.1l-13,17.6
	c-2.3,3.1-3.5,6.6-3.7,10.3C14.8,51.7,7.3,55.4,3.8,59.8C3.5,60.3,3.5,60.9,4,61.3L4,61.3z M30.4,40.5l13-17.6
	c0.1-0.2,0.3-0.3,0.5-0.3s0.4,0.1,0.5,0.3l13,17.6c2.8,3.8,3.9,8.4,3.1,13.1c-0.8,4.6-3.5,8.6-7.4,11.2c-5.6,3.7-12.9,3.7-18.5,0
	c-3.9-2.6-6.6-6.6-7.4-11.2C26.5,49,27.5,44.3,30.4,40.5L30.4,40.5z"/>
<path class="st0" d="M80.8,56.7c-3.3-2.4-7.9-4.5-13.5-6c-0.5-0.2-1.1,0.2-1.3,0.7c-0.2,0.5,0.2,1.1,0.7,1.3
	c5.4,1.5,9.8,3.4,12.9,5.7c2.1,1.6,4.6,4,4.6,7.1c0,3.9-4.2,7.9-11.4,10.8c-7.7,3.1-17.9,4.8-28.8,4.8s-21.1-1.7-28.8-4.8
	C7.9,73.4,3.7,69.5,3.7,65.5c0-0.6-0.5-1-1-1c-0.6,0-1,0.5-1,1c0,4.9,4.5,9.4,12.7,12.8c7.9,3.2,18.4,5,29.6,5s21.6-1.8,29.6-5
	c8.2-3.3,12.7-7.8,12.7-12.8C86.2,62.4,84.3,59.4,80.8,56.7L80.8,56.7z"/>
</svg>
